<svg width="24" height="24" viewBox="0 0 24 24" fill="none" xmlns="http://www.w3.org/2000/svg">
<g id="icon/m/disconnect">
<path id="Union" fill-rule="evenodd" clip-rule="evenodd" d="M12.819 2.27559C13.147 2.3634 13.3751 2.66056 13.3751 3.00007V9.45007H15.2329C15.8071 9.45027 16.3102 9.78129 16.5669 10.2713C16.8213 10.757 16.8102 11.3464 16.5359 11.822L15.9167 12.8952C15.7097 13.254 15.251 13.3771 14.8923 13.1701C14.5335 12.9631 14.4104 12.5044 14.6174 12.1457L15.2365 11.0726C15.2534 11.0432 15.2548 10.9992 15.2381 10.9673C15.2331 10.9577 15.2281 10.9525 15.2253 10.9501H12.6251C12.2108 10.9501 11.8751 10.6143 11.8751 10.2001V5.8011L10.7662 7.72323C10.5593 8.08202 10.1006 8.20509 9.74181 7.99811C9.38302 7.79113 9.25995 7.33248 9.46693 6.97369L11.9754 2.6253C12.1451 2.33122 12.4911 2.18778 12.819 2.27559ZM4.46967 4.53641C4.76256 4.24352 5.23744 4.24352 5.53033 4.53641L19.397 18.4031C19.6899 18.696 19.6899 19.1708 19.397 19.4637C19.1041 19.7566 18.6292 19.7566 18.3363 19.4637L4.46967 5.59707C4.17678 5.30418 4.17678 4.82931 4.46967 4.53641ZM9.62494 21.0362C9.62494 21.3757 9.85301 21.6729 10.181 21.7607C10.5089 21.8485 10.8549 21.705 11.0246 21.411L13.8573 16.5157C14.0643 16.1569 13.9412 15.6982 13.5824 15.4913C13.2236 15.2843 12.765 15.4074 12.558 15.7662L11.1249 18.2352V13.8362C11.1249 13.422 10.7892 13.0862 10.3749 13.0862H7.77468C7.77186 13.0838 7.76694 13.0786 7.76188 13.0689C7.74518 13.0371 7.74657 12.993 7.7635 12.9637L8.66384 11.3867C8.87083 11.0279 8.74778 10.5692 8.38899 10.3623C8.03021 10.1553 7.57155 10.2783 7.36456 10.6371L6.46411 12.2143C6.18983 12.6899 6.17874 13.2793 6.43313 13.7649C6.6898 14.255 7.19287 14.586 7.76708 14.5862H9.62494V21.0362Z" fill="#FF6666"/>
</g>
</svg>
