<svg width="16" height="16" viewBox="0 0 16 16" fill="none" xmlns="http://www.w3.org/2000/svg">
<path fill-rule="evenodd" clip-rule="evenodd" d="M8 16C12.4183 16 16 12.4183 16 8C16 3.58172 12.4183 0 8 0C3.58172 0 0 3.58172 0 8C0 12.4183 3.58172 16 8 16ZM9.22875 4.32734C9.22875 4.87334 8.78075 5.30734 8.24875 5.30734C7.70275 5.30734 7.25475 4.87334 7.25475 4.32734C7.25475 3.76734 7.70275 3.33334 8.24875 3.33334C8.78075 3.33334 9.22875 3.76734 9.22875 4.32734ZM10.1247 12.6993H6.66675V12.2653C7.32475 12.2093 7.56275 12.0133 7.56275 11.3693V7.84134C7.56275 7.19734 7.29675 7.02934 6.66675 7.08534V6.65134L8.62675 6.28734C9.03275 6.21734 9.24275 6.39934 9.24275 6.77734V11.3693C9.24275 12.0133 9.48075 12.2093 10.1247 12.2653V12.6993Z" fill="#E4EEEE" fill-opacity="0.8"/>
</svg>
