<svg width="24" height="24" viewBox="0 0 24 24" fill="none" xmlns="http://www.w3.org/2000/svg">
<g id="icon/m/light">
<path id="Union" fill-rule="evenodd" clip-rule="evenodd" d="M14.5 12C14.5 12.5629 14.314 13.0824 14 13.5002C13.6394 13.9802 13.11 14.3262 12.5 14.45V18C12.5 18.2761 12.2761 18.5 12 18.5C11.7239 18.5 11.5 18.2761 11.5 18V14.45C10.89 14.3262 10.3606 13.9802 10 13.5002C9.68604 13.0824 9.5 12.5629 9.5 12C9.5 10.6193 10.6193 9.5 12 9.5C13.3807 9.5 14.5 10.6193 14.5 12ZM10 15.4649C8.8044 14.7733 8 13.4806 8 12C8 9.79086 9.79086 8 12 8C14.2091 8 16 9.79086 16 12C16 13.4806 15.1956 14.7733 14 15.4649V18C14 19.1046 13.1046 20 12 20C10.8954 20 10 19.1046 10 18V15.4649Z" fill="#ED9A26"/>
<path id="Subtract" fill-rule="evenodd" clip-rule="evenodd" d="M12 4.25C12.4142 4.25 12.75 4.58579 12.75 5V6.04642C12.5043 6.01578 12.254 6 12 6C11.746 6 11.4957 6.01578 11.25 6.04642V5C11.25 4.58579 11.5858 4.25 12 4.25ZM8.31251 7.26654L7.52561 6.4765C7.2333 6.18303 6.75842 6.18208 6.46495 6.47439C6.17147 6.7667 6.17053 7.24158 6.46284 7.53505L7.25369 8.32904C7.56097 7.93232 7.91689 7.57517 8.31251 7.26654ZM6.04642 11.25H4.75C4.33579 11.25 4 11.5858 4 12C4 12.4142 4.33579 12.75 4.75 12.75H6.04642C6.01578 12.5043 6 12.254 6 12C6 11.746 6.01578 11.4957 6.04642 11.25ZM17.9536 12.75H19.25C19.6642 12.75 20 12.4142 20 12C20 11.5858 19.6642 11.25 19.25 11.25H17.9536C17.9842 11.4957 18 11.746 18 12C18 12.254 17.9842 12.5043 17.9536 12.75ZM16.8217 8.42843L17.6067 7.64342C17.8996 7.35053 17.8996 6.87566 17.6067 6.58277C17.3138 6.28987 16.8389 6.28987 16.546 6.58277L15.7847 7.34403C16.1738 7.66068 16.5224 8.02513 16.8217 8.42843Z" fill="#ED9A26"/>
</g>
</svg>
