<svg width="25" height="24" viewBox="0 0 25 24" fill="none" xmlns="http://www.w3.org/2000/svg">
<g id="icon/m/new-tab">
<path id="NewTab" fill-rule="evenodd" clip-rule="evenodd" d="M5.5 4.5L9.5 4.5V3L5.5 3C4.39543 3 3.5 3.89543 3.5 5L3.5 19C3.5 20.1046 4.39543 21 5.5 21L19.5 21C20.6046 21 21.5 20.1046 21.5 19V15L20 15V19C20 19.2761 19.7761 19.5 19.5 19.5L5.5 19.5C5.22386 19.5 5 19.2761 5 19L5 5C5 4.72386 5.22386 4.5 5.5 4.5ZM20 5.56065L13.0303 12.5304L11.9696 11.4697L18.9393 4.5L12.5 4.5V3L19.5 3C20.6046 3 21.5 3.89543 21.5 5V12L20 12V5.56065Z" fill="#0D2321"/>
</g>
</svg>
