<svg width="24" height="24" viewBox="0 0 24 24" fill="none" xmlns="http://www.w3.org/2000/svg">
<g id="icon/m/search">
<path id="Ellipse 350 (Stroke)" fill-rule="evenodd" clip-rule="evenodd" d="M10.5 15.5C13.2614 15.5 15.5 13.2614 15.5 10.5C15.5 7.73858 13.2614 5.5 10.5 5.5C7.73858 5.5 5.5 7.73858 5.5 10.5C5.5 13.2614 7.73858 15.5 10.5 15.5ZM10.5 17C14.0899 17 17 14.0899 17 10.5C17 6.91015 14.0899 4 10.5 4C6.91015 4 4 6.91015 4 10.5C4 14.0899 6.91015 17 10.5 17Z" fill="#E4EEEE" fill-opacity="0.4"/>
<path id="Vector 14 (Stroke)" fill-rule="evenodd" clip-rule="evenodd" d="M18.4697 19.5303L13.9697 15.0303L15.0304 13.9697L19.5304 18.4697L18.4697 19.5303Z" fill="#E4EEEE" fill-opacity="0.4"/>
</g>
</svg>
