<svg width="16" height="16" viewBox="0 0 16 16" fill="none" xmlns="http://www.w3.org/2000/svg">
<path id="Union" fill-rule="evenodd" clip-rule="evenodd" d="M11.5 6.5C11.5 9.26142 9.26142 11.5 6.5 11.5C3.73858 11.5 1.5 9.26142 1.5 6.5C1.5 3.73858 3.73858 1.5 6.5 1.5C9.26142 1.5 11.5 3.73858 11.5 6.5ZM10.5353 11.596C9.42677 12.475 8.02469 13 6.5 13C2.91015 13 0 10.0899 0 6.5C0 2.91015 2.91015 0 6.5 0C10.0899 0 13 2.91015 13 6.5C13 8.02469 12.475 9.42677 11.596 10.5353L15.5304 14.4697L14.4697 15.5304L10.5353 11.596ZM4 6.5C4 6.08579 4.33579 5.75 4.75 5.75H5.75V4.75C5.75 4.33579 6.08579 4 6.5 4C6.91421 4 7.25 4.33579 7.25 4.75V5.75H8.25C8.66421 5.75 9 6.08579 9 6.5C9 6.91421 8.66421 7.25 8.25 7.25H7.25V8.25C7.25 8.66421 6.91421 9 6.5 9C6.08579 9 5.75 8.66421 5.75 8.25V7.25H4.75C4.33579 7.25 4 6.91421 4 6.5Z" fill="#E4EEEE"/>
</svg>
