<svg width="16" height="17" viewBox="0 0 16 17" fill="none" xmlns="http://www.w3.org/2000/svg">
<path id="Union" fill-rule="evenodd" clip-rule="evenodd" d="M6.5 12.0303C9.26142 12.0303 11.5 9.7917 11.5 7.03027C11.5 4.26885 9.26142 2.03027 6.5 2.03027C3.73858 2.03027 1.5 4.26885 1.5 7.03027C1.5 9.7917 3.73858 12.0303 6.5 12.0303ZM6.5 13.5303C8.02469 13.5303 9.42677 13.0053 10.5353 12.1263L14.4697 16.0607L15.5304 15L11.596 11.0656C12.475 9.95704 13 8.55496 13 7.03027C13 3.44042 10.0899 0.530273 6.5 0.530273C2.91015 0.530273 0 3.44042 0 7.03027C0 10.6201 2.91015 13.5303 6.5 13.5303ZM4.75 6.28027C4.33579 6.28027 4 6.61606 4 7.03027C4 7.44449 4.33579 7.78027 4.75 7.78027H8.25C8.66421 7.78027 9 7.44449 9 7.03027C9 6.61606 8.66421 6.28027 8.25 6.28027H4.75Z" fill="#E4EEEE"/>
</svg>
