<svg width="1198" height="561" viewBox="0 0 1198 561" fill="none" xmlns="http://www.w3.org/2000/svg"
  xmlns:xlink="http://www.w3.org/1999/xlink">
  <mask id="mask0_1563_41613" style="mask-type:alpha" maskUnits="userSpaceOnUse" x="0" y="0" width="1198" height="561">
    <rect width="1198" height="561" rx="16" fill="#FAF8F1" />
  </mask>
  <g mask="url(#mask0_1563_41613)">
    <g opacity="0.3" filter="url(#filter0_f_1563_41613)">
      <rect x="591" y="424" width="516" height="153" rx="20" fill="#B6792B" />
    </g>
    <g clip-path="url(#clip0_1563_41613)">
      <rect x="656.666" y="45" width="384" height="600" rx="16" fill="#002522" />
      <path
        d="M711.142 125.626C711.142 124.24 712.44 123.36 714.002 123.36C715.498 123.36 716.642 124.152 717.082 125.67L719.238 125.274C718.6 122.7 716.378 121.38 713.98 121.38C711.384 121.38 708.898 122.92 708.898 125.758C708.898 128.97 712.132 129.586 714.64 130.29C716.18 130.73 717.456 131.39 717.456 132.842C717.456 134.426 715.916 135.218 714.31 135.218C712.528 135.218 711.098 134.272 710.812 132.666L708.634 133.04C709.25 135.79 711.406 137.22 714.222 137.22C717.17 137.22 719.7 135.636 719.7 132.688C719.7 129.388 716.532 128.706 714.046 128.046C712.44 127.628 711.142 127.012 711.142 125.626ZM734.876 125.956L732.632 134.338L730.102 125.956H728.166L725.636 134.338L723.392 125.956H721.17L724.514 137H726.692L729.134 128.926L731.576 137H733.754L737.098 125.956H734.876ZM743.121 125.714C740.811 125.714 738.831 127.034 738.435 129.19L740.525 129.542C740.701 128.354 741.779 127.562 743.011 127.562C744.309 127.562 745.497 128.266 745.497 129.762V130.114C743.121 130.114 738.215 130.246 738.215 133.832C738.215 135.834 739.777 137.22 741.845 137.22C743.583 137.22 744.661 136.56 745.497 135.306V137H747.675V129.894C747.675 127.232 745.739 125.714 743.121 125.714ZM745.497 132.248C745.497 133.92 744.199 135.416 742.439 135.416C741.317 135.416 740.371 134.844 740.371 133.81C740.371 131.566 744.903 131.742 745.497 131.72V132.248ZM750.519 141.84H752.697V135.306C753.511 136.494 754.941 137.22 756.569 137.22C759.627 137.22 761.717 134.734 761.717 131.5C761.717 128.288 759.649 125.736 756.591 125.736C754.941 125.736 753.489 126.462 752.697 127.672V125.956H750.519V141.84ZM752.675 131.478C752.675 129.344 753.929 127.65 756.129 127.65C758.197 127.65 759.539 129.168 759.539 131.478C759.539 133.788 758.197 135.306 756.129 135.306C753.929 135.306 752.675 133.634 752.675 131.478ZM773.823 125.714C771.513 125.714 769.533 127.034 769.137 129.19L771.227 129.542C771.403 128.354 772.481 127.562 773.713 127.562C775.011 127.562 776.199 128.266 776.199 129.762V130.114C773.823 130.114 768.917 130.246 768.917 133.832C768.917 135.834 770.479 137.22 772.547 137.22C774.285 137.22 775.363 136.56 776.199 135.306V137H778.377V129.894C778.377 127.232 776.441 125.714 773.823 125.714ZM776.199 132.248C776.199 133.92 774.901 135.416 773.141 135.416C772.019 135.416 771.073 134.844 771.073 133.81C771.073 131.566 775.605 131.742 776.199 131.72V132.248ZM782.804 128.904C782.804 127.958 783.838 127.496 784.762 127.496C785.818 127.496 786.676 128.09 786.896 129.08L788.986 128.728C788.59 126.792 786.698 125.692 784.762 125.692C782.672 125.692 780.714 127.012 780.714 129.102C780.714 131.192 782.716 131.918 785.026 132.424C786.082 132.666 787.182 132.952 787.182 133.964C787.182 135.042 785.928 135.416 784.982 135.416C783.75 135.416 782.87 134.8 782.628 133.612L780.516 133.964C780.824 136.164 782.848 137.22 785.026 137.22C787.248 137.22 789.316 136.098 789.316 133.876C789.316 131.588 787.116 130.906 785.136 130.488C783.992 130.246 782.804 129.916 782.804 128.904ZM793.095 128.904C793.095 127.958 794.129 127.496 795.053 127.496C796.109 127.496 796.967 128.09 797.187 129.08L799.277 128.728C798.881 126.792 796.989 125.692 795.053 125.692C792.963 125.692 791.005 127.012 791.005 129.102C791.005 131.192 793.007 131.918 795.317 132.424C796.373 132.666 797.473 132.952 797.473 133.964C797.473 135.042 796.219 135.416 795.273 135.416C794.041 135.416 793.161 134.8 792.919 133.612L790.807 133.964C791.115 136.164 793.139 137.22 795.317 137.22C797.539 137.22 799.607 136.098 799.607 133.876C799.607 131.588 797.407 130.906 795.427 130.488C794.283 130.246 793.095 129.916 793.095 128.904ZM812.032 131.654C812.032 128.31 810.03 125.714 806.686 125.714C803.364 125.714 801.208 128.222 801.208 131.5C801.208 134.8 803.43 137.22 806.752 137.22C809.04 137.22 810.822 136.12 811.79 133.942L809.722 133.568C809.128 134.778 808.094 135.35 806.752 135.35C804.838 135.35 803.43 134.074 803.32 132.138H812.01C812.032 131.984 812.032 131.808 812.032 131.654ZM803.408 130.444C803.65 128.684 804.904 127.518 806.686 127.518C808.358 127.518 809.7 128.684 809.854 130.444H803.408ZM819.54 127.76V125.956H817.142V122.722L815.008 123.096V125.956H813.226V127.76H814.986V133.898C814.986 136.098 816.064 137.22 818.264 137.22C818.682 137.22 819.188 137.176 819.606 137.088V135.108C819.298 135.218 818.968 135.262 818.638 135.262C817.34 135.262 817.164 134.69 817.164 133.458V127.76H819.54ZM823.388 128.904C823.388 127.958 824.422 127.496 825.346 127.496C826.402 127.496 827.26 128.09 827.48 129.08L829.57 128.728C829.174 126.792 827.282 125.692 825.346 125.692C823.256 125.692 821.298 127.012 821.298 129.102C821.298 131.192 823.3 131.918 825.61 132.424C826.666 132.666 827.766 132.952 827.766 133.964C827.766 135.042 826.512 135.416 825.566 135.416C824.334 135.416 823.454 134.8 823.212 133.612L821.1 133.964C821.408 136.164 823.432 137.22 825.61 137.22C827.832 137.22 829.9 136.098 829.9 133.876C829.9 131.588 827.7 130.906 825.72 130.488C824.576 130.246 823.388 129.916 823.388 128.904Z"
        fill="white" />
      <rect x="672.666" y="117" width="24" height="24" rx="2" fill="#2280C4" />
      <path
        d="M690.38 126.543L679.872 126.543C679.718 126.543 679.579 126.429 679.52 126.255C679.461 126.082 679.493 125.882 679.602 125.748L681.618 123.286"
        stroke="white" stroke-width="1.5" stroke-linecap="round" stroke-linejoin="round" />
      <path
        d="M687.714 134.714L689.73 132.253C689.839 132.12 689.872 131.92 689.813 131.747C689.754 131.573 689.615 131.46 689.461 131.46L678.952 131.46"
        stroke="white" stroke-width="1.5" stroke-linecap="round" stroke-linejoin="round" />
      <rect x="672.666" y="297" width="352" height="72" rx="4" fill="#193330" />
      <path
        d="M981.761 321.38C977.405 321.38 975.887 325.428 975.887 329.3C975.887 333.172 977.405 337.22 981.761 337.22C986.139 337.22 987.657 333.172 987.657 329.3C987.657 325.428 986.139 321.38 981.761 321.38ZM981.761 335.196C978.703 335.196 978.153 331.984 978.153 329.3C978.153 326.616 978.703 323.404 981.761 323.404C984.819 323.404 985.391 326.616 985.391 329.3C985.391 331.984 984.819 335.196 981.761 335.196ZM991.642 337.088C992.456 337.088 993.16 336.406 993.16 335.548C993.16 334.712 992.456 334.03 991.642 334.03C990.806 334.03 990.102 334.712 990.102 335.548C990.102 336.406 990.806 337.088 991.642 337.088ZM1001.61 321.38C997.257 321.38 995.739 325.428 995.739 329.3C995.739 333.172 997.257 337.22 1001.61 337.22C1005.99 337.22 1007.51 333.172 1007.51 329.3C1007.51 325.428 1005.99 321.38 1001.61 321.38ZM1001.61 335.196C998.555 335.196 998.005 331.984 998.005 329.3C998.005 326.616 998.555 323.404 1001.61 323.404C1004.67 323.404 1005.24 326.616 1005.24 329.3C1005.24 331.984 1004.67 335.196 1001.61 335.196Z"
        fill="#99A8A7" />
      <path
        d="M687.54 280.2L685.09 284.736L682.626 280.2H681.002L684.362 286.178V290H685.804V286.178L689.178 280.2H687.54ZM692.764 282.832C690.608 282.832 689.138 284.358 689.138 286.486C689.138 288.614 690.608 290.14 692.764 290.14C694.892 290.14 696.362 288.614 696.362 286.486C696.362 284.358 694.878 282.832 692.764 282.832ZM692.75 288.922C691.35 288.922 690.552 287.872 690.552 286.486C690.552 285.1 691.35 284.05 692.75 284.05C694.15 284.05 694.948 285.1 694.948 286.486C694.948 287.872 694.15 288.922 692.75 288.922ZM700.754 290.14C701.678 290.14 702.518 289.664 703.008 288.88V290H704.394V282.972H703.008V286.598C703.008 287.76 702.406 288.922 701.104 288.922C700.096 288.922 699.578 288.152 699.578 287.2V282.972H698.206V287.522C698.206 288.978 699.298 290.14 700.754 290.14ZM714.438 282.86C714.27 282.832 714.116 282.832 713.976 282.846C713.01 282.86 712.366 283.28 711.876 284.148V282.972H710.49V290H711.876V286.486C711.876 284.792 712.898 283.924 714.438 284.092V282.86ZM722.193 286.598C722.193 284.47 720.919 282.818 718.791 282.818C716.677 282.818 715.305 284.414 715.305 286.5C715.305 288.6 716.719 290.14 718.833 290.14C720.289 290.14 721.423 289.44 722.039 288.054L720.723 287.816C720.345 288.586 719.687 288.95 718.833 288.95C717.615 288.95 716.719 288.138 716.649 286.906H722.179C722.193 286.808 722.193 286.696 722.193 286.598ZM716.705 285.828C716.859 284.708 717.657 283.966 718.791 283.966C719.855 283.966 720.709 284.708 720.807 285.828H716.705ZM727.264 288.922C725.85 288.922 725.122 287.83 725.122 286.486C725.122 285.142 725.85 284.05 727.278 284.05C728.188 284.05 728.916 284.624 729.14 285.506L730.484 285.268C730.176 283.77 728.734 282.832 727.292 282.832C725.164 282.832 723.736 284.4 723.736 286.486C723.736 288.586 725.164 290.14 727.292 290.14C728.748 290.14 730.176 289.202 730.484 287.704L729.14 287.466C728.916 288.348 728.188 288.922 727.264 288.922ZM738.878 286.598C738.878 284.47 737.604 282.818 735.476 282.818C733.362 282.818 731.99 284.414 731.99 286.5C731.99 288.6 733.404 290.14 735.518 290.14C736.974 290.14 738.108 289.44 738.724 288.054L737.408 287.816C737.03 288.586 736.372 288.95 735.518 288.95C734.3 288.95 733.404 288.138 733.334 286.906H738.864C738.878 286.808 738.878 286.696 738.878 286.598ZM733.39 285.828C733.544 284.708 734.342 283.966 735.476 283.966C736.54 283.966 737.394 284.708 737.492 285.828H733.39ZM741.556 281.474C742.074 281.474 742.466 281.082 742.466 280.578C742.466 280.074 742.074 279.682 741.556 279.682C741.052 279.682 740.674 280.074 740.674 280.578C740.674 281.082 741.052 281.474 741.556 281.474ZM742.256 290V282.972H740.87V290H742.256ZM749.161 282.972L747.285 288.376L745.409 282.972H743.981L746.599 290H747.985L750.589 282.972H749.161ZM758.541 286.598C758.541 284.47 757.267 282.818 755.139 282.818C753.025 282.818 751.653 284.414 751.653 286.5C751.653 288.6 753.067 290.14 755.181 290.14C756.637 290.14 757.771 289.44 758.387 288.054L757.071 287.816C756.693 288.586 756.035 288.95 755.181 288.95C753.963 288.95 753.067 288.138 752.997 286.906H758.527C758.541 286.808 758.541 286.696 758.541 286.598ZM753.053 285.828C753.207 284.708 754.005 283.966 755.139 283.966C756.203 283.966 757.057 284.708 757.155 285.828H753.053ZM761.57 284.47C762.102 284.47 762.536 284.036 762.536 283.504C762.536 282.972 762.102 282.538 761.57 282.538C761.038 282.538 760.604 282.972 760.604 283.504C760.604 284.036 761.038 284.47 761.57 284.47ZM761.57 290.042C762.102 290.042 762.536 289.608 762.536 289.076C762.536 288.544 762.102 288.11 761.57 288.11C761.038 288.11 760.604 288.544 760.604 289.076C760.604 289.608 761.038 290.042 761.57 290.042Z"
        fill="#99A8A7" />
      <path
        d="M706.986 330.664C706.986 329.528 708.042 328.84 709.274 328.84C710.442 328.84 711.338 329.464 711.658 330.664L712.97 330.424C712.538 328.6 711.002 327.64 709.226 327.64C707.338 327.64 705.642 328.728 705.642 330.712C705.642 333.08 708.026 333.528 709.898 334.056C711.05 334.376 711.994 334.904 711.994 336.024C711.994 337.336 710.698 337.96 709.466 337.96C708.154 337.96 706.986 337.24 706.762 335.896L705.434 336.12C705.866 338.168 707.434 339.16 709.418 339.16C711.498 339.16 713.338 338.056 713.338 335.96C713.338 333.576 710.986 333.08 709.13 332.568C707.946 332.248 706.986 331.752 706.986 330.664ZM722.584 335.144C722.584 332.728 721.176 330.824 718.744 330.824C716.344 330.824 714.808 332.648 714.808 335.016C714.808 337.4 716.392 339.16 718.808 339.16C720.472 339.16 721.704 338.344 722.408 336.792L721.16 336.568C720.696 337.544 719.88 338.008 718.792 338.008C717.24 338.008 716.136 336.952 716.072 335.416H722.568C722.584 335.336 722.584 335.224 722.584 335.144ZM716.12 334.328C716.312 332.904 717.288 331.944 718.744 331.944C720.12 331.944 721.176 332.92 721.272 334.328H716.12ZM725.755 339V327.48H724.475V339H725.755ZM735.412 335.144C735.412 332.728 734.004 330.824 731.572 330.824C729.172 330.824 727.636 332.648 727.636 335.016C727.636 337.4 729.22 339.16 731.636 339.16C733.3 339.16 734.532 338.344 735.236 336.792L733.988 336.568C733.524 337.544 732.708 338.008 731.62 338.008C730.068 338.008 728.964 336.952 728.9 335.416H735.396C735.412 335.336 735.412 335.224 735.412 335.144ZM728.948 334.328C729.14 332.904 730.116 331.944 731.572 331.944C732.948 331.944 734.004 332.92 734.1 334.328H728.948ZM740.807 337.992C739.047 337.992 738.103 336.696 738.103 335C738.103 333.304 739.047 332.008 740.807 332.008C741.927 332.008 742.839 332.68 743.127 333.768L744.375 333.544C744.007 331.896 742.423 330.84 740.823 330.84C738.407 330.84 736.823 332.632 736.823 335C736.823 337.368 738.407 339.16 740.823 339.16C742.439 339.16 744.007 338.12 744.375 336.456L743.127 336.232C742.839 337.32 741.927 337.992 740.807 337.992ZM749.553 332.072V331H747.809V328.744L746.561 328.952V331H745.265V332.072H746.545V336.84C746.545 338.28 747.185 339.16 748.689 339.16C748.993 339.16 749.313 339.128 749.617 339.064V337.896C749.393 337.976 749.153 338.008 748.929 338.008C747.937 338.008 747.825 337.544 747.825 336.648V332.072H749.553ZM758.834 332.072V331H757.09V328.744L755.842 328.952V331H754.546V332.072H755.826V336.84C755.826 338.28 756.466 339.16 757.97 339.16C758.274 339.16 758.594 339.128 758.898 339.064V337.896C758.674 337.976 758.434 338.008 758.21 338.008C757.218 338.008 757.106 337.544 757.106 336.648V332.072H758.834ZM764.013 330.84C761.581 330.84 759.917 332.616 759.917 335C759.917 337.384 761.581 339.16 764.013 339.16C766.429 339.16 768.077 337.384 768.077 335C768.077 332.616 766.413 330.84 764.013 330.84ZM763.997 337.992C762.269 337.992 761.229 336.728 761.229 335C761.229 333.272 762.269 332.008 763.997 332.008C765.725 332.008 766.765 333.272 766.765 335C766.765 336.728 765.725 337.992 763.997 337.992ZM773.351 334.264L776.631 331H774.919L771.239 334.68V327.48H769.959V339H771.239V336.36L772.487 335.112L775.351 339H776.903L773.351 334.264ZM785.552 335.144C785.552 332.728 784.144 330.824 781.712 330.824C779.312 330.824 777.776 332.648 777.776 335.016C777.776 337.4 779.36 339.16 781.776 339.16C783.44 339.16 784.672 338.344 785.376 336.792L784.128 336.568C783.664 337.544 782.848 338.008 781.76 338.008C780.208 338.008 779.104 336.952 779.04 335.416H785.536C785.552 335.336 785.552 335.224 785.552 335.144ZM779.088 334.328C779.28 332.904 780.256 331.944 781.712 331.944C783.088 331.944 784.144 332.92 784.24 334.328H779.088ZM791.3 330.84C790.228 330.84 789.204 331.432 788.66 332.36V331H787.38V339H788.66V334.872C788.66 333.416 789.476 332.008 791.076 332.008C792.308 332.008 792.98 332.904 792.98 334.072V339H794.26V333.768C794.26 332.152 792.9 330.84 791.3 330.84Z"
        fill="#CCD3D3" />
      <path fill-rule="evenodd" clip-rule="evenodd"
        d="M811.266 335.414L811.973 336.121C812.363 336.511 812.997 336.511 813.387 336.121L814.094 335.414L819.044 330.464L817.63 329.05L812.68 334L807.73 329.05L806.316 330.464L811.266 335.414Z"
        fill="#667C7A" />
      <path
        d="M692.666 314.5H828.666V311.5H692.666V314.5ZM831.166 317V349H834.166V317H831.166ZM828.666 351.5H692.666V354.5H828.666V351.5ZM690.166 349V317H687.166V349H690.166ZM692.666 351.5C691.285 351.5 690.166 350.381 690.166 349H687.166C687.166 352.038 689.628 354.5 692.666 354.5V351.5ZM831.166 349C831.166 350.381 830.047 351.5 828.666 351.5V354.5C831.704 354.5 834.166 352.038 834.166 349H831.166ZM828.666 314.5C830.047 314.5 831.166 315.619 831.166 317H834.166C834.166 313.962 831.704 311.5 828.666 311.5V314.5ZM692.666 311.5C689.628 311.5 687.166 313.962 687.166 317H690.166C690.166 315.619 691.285 314.5 692.666 314.5V311.5Z"
        fill="#667C7A" />
      <rect x="672.666" y="193" width="352" height="72" rx="4" fill="#193330" />
      <rect x="688.666" y="209" width="40" height="40" rx="20" fill="#002522" />
      <rect width="18" height="29" transform="matrix(-1 0 0 1 717.666 214)" fill="url(#pattern0)" />
      <path
        d="M956.216 217.38C951.86 217.38 950.342 221.428 950.342 225.3C950.342 229.172 951.86 233.22 956.216 233.22C960.594 233.22 962.112 229.172 962.112 225.3C962.112 221.428 960.594 217.38 956.216 217.38ZM956.216 231.196C953.158 231.196 952.608 227.984 952.608 225.3C952.608 222.616 953.158 219.404 956.216 219.404C959.274 219.404 959.846 222.616 959.846 225.3C959.846 227.984 959.274 231.196 956.216 231.196ZM966.097 233.088C966.911 233.088 967.615 232.406 967.615 231.548C967.615 230.712 966.911 230.03 966.097 230.03C965.261 230.03 964.557 230.712 964.557 231.548C964.557 232.406 965.261 233.088 966.097 233.088ZM970.344 228.644C970.41 231.526 972.808 233.22 975.668 233.22C978.55 233.22 981.058 231.482 981.058 228.622C981.058 226.884 980.046 225.388 978.44 224.772C979.606 224.156 980.442 222.946 980.442 221.494C980.442 218.964 978.242 217.38 975.712 217.38C973.16 217.38 971.07 218.986 971.004 221.494L973.116 221.868C973.138 220.328 974.194 219.36 975.668 219.36C977.032 219.36 978.264 220.24 978.264 221.626C978.264 223.034 977.076 223.892 975.712 223.892H974.348V225.806H975.69C977.274 225.806 978.858 226.818 978.858 228.512C978.858 230.206 977.296 231.24 975.668 231.24C973.93 231.24 972.434 230.14 972.434 228.27L970.344 228.644ZM990.598 217.6L983.36 227.544V229.568H990.598V233H992.82V229.568H994.756V227.544H992.82V217.6H990.598ZM990.598 220.856V227.544H985.912L990.598 220.856ZM997.075 221.868L999.165 222.242C999.341 220.438 1000.62 219.382 1002.31 219.382C1003.96 219.382 1005.24 220.438 1005.24 222.154C1005.24 223.518 1004.45 224.508 1003.3 225.498L996.987 230.954V233H1007.48V230.998H1000.05L1004.73 226.95C1006.16 225.718 1007.44 224.178 1007.44 222.066C1007.44 219.228 1005.08 217.38 1002.27 217.38C999.319 217.38 997.273 219.338 997.075 221.868Z"
        fill="white" />
      <path
        d="M915.464 245.488H917.088V254H918.502V244.2H915.464V245.488ZM931.921 245.488V244.2H925.593V254H931.921V252.712H927.035V249.702H931.361V248.456H927.035V245.488H931.921ZM933.642 244.2V245.488H936.694V254H938.136V245.488H941.188V244.2H933.642ZM949.482 244.2V248.568H944.582V244.2H943.14V254H944.582V249.828H949.482V254H950.924V244.2H949.482ZM963.638 249.03V247.7H957.366V249.03H963.638ZM963.638 252.054V250.724H957.366V252.054H963.638ZM969.848 251.48C970.198 252.978 971.36 253.902 972.844 254.098V255.022H973.964V254.112C975.546 253.93 976.89 252.936 976.89 251.228C976.89 249.422 975.378 248.904 973.964 248.484V245.432C974.566 245.614 975.042 246.076 975.238 246.79L976.61 246.552C976.274 245.166 975.182 244.34 973.964 244.116V243.206H972.844V244.074C971.374 244.228 970.044 245.222 970.044 246.86C970.044 248.568 971.458 249.086 972.844 249.492V252.796C972.046 252.614 971.388 252.054 971.248 251.228L969.848 251.48ZM971.472 246.776C971.472 246.02 972.074 245.502 972.844 245.362V248.148C972.074 247.868 971.472 247.504 971.472 246.776ZM975.462 251.34C975.462 252.194 974.762 252.698 973.964 252.838V249.842C974.804 250.136 975.462 250.514 975.462 251.34ZM978.949 245.488H980.573V254H981.987V244.2H978.949V245.488ZM985.018 246.916L986.348 247.154C986.46 246.006 987.272 245.334 988.35 245.334C989.4 245.334 990.212 246.006 990.212 247.098C990.212 247.966 989.708 248.596 988.98 249.226L984.962 252.698V254H991.64V252.726H986.908L989.89 250.15C990.8 249.366 991.612 248.386 991.612 247.042C991.612 245.236 990.114 244.06 988.322 244.06C986.446 244.06 985.144 245.306 985.018 246.916ZM997.79 244.2L993.184 250.528V251.816H997.79V254H999.204V251.816H1000.44V250.528H999.204V244.2H997.79ZM997.79 246.272V250.528H994.808L997.79 246.272ZM1001.94 244.2V245.488H1006.55L1003.05 253.93L1004.42 254.168L1008.01 245.46V244.2H1001.94Z"
        fill="#667C7A" />
      <path
        d="M745.707 225.272V223.8H738.475V235H745.707V233.528H740.123V230.088H745.067V228.664H740.123V225.272H745.707ZM747.194 223.8V225.272H750.682V235H752.33V225.272H755.818V223.8H747.194ZM764.817 223.8V228.792H759.217V223.8H757.569V235H759.217V230.232H764.817V235H766.465V223.8H764.817Z"
        fill="white" />
      <path fill-rule="evenodd" clip-rule="evenodd"
        d="M795.005 227.211C795.37 227.56 795.37 228.127 795.005 228.476L790.328 232.949C789.962 233.298 789.37 233.298 789.005 232.949L784.328 228.476C783.962 228.127 783.962 227.56 784.328 227.211C784.693 226.861 785.285 226.861 785.651 227.211L789.666 231.051L793.682 227.211C794.047 226.861 794.639 226.861 795.005 227.211Z"
        fill="white" />
      <path
        d="M687.54 176.2L685.09 180.736L682.626 176.2H681.002L684.362 182.178V186H685.804V182.178L689.178 176.2H687.54ZM692.764 178.832C690.608 178.832 689.138 180.358 689.138 182.486C689.138 184.614 690.608 186.14 692.764 186.14C694.892 186.14 696.362 184.614 696.362 182.486C696.362 180.358 694.878 178.832 692.764 178.832ZM692.75 184.922C691.35 184.922 690.552 183.872 690.552 182.486C690.552 181.1 691.35 180.05 692.75 180.05C694.15 180.05 694.948 181.1 694.948 182.486C694.948 183.872 694.15 184.922 692.75 184.922ZM700.754 186.14C701.678 186.14 702.518 185.664 703.008 184.88V186H704.394V178.972H703.008V182.598C703.008 183.76 702.406 184.922 701.104 184.922C700.096 184.922 699.578 184.152 699.578 183.2V178.972H698.206V183.522C698.206 184.978 699.298 186.14 700.754 186.14ZM710.546 189.08H711.932V184.922C712.45 185.678 713.36 186.14 714.396 186.14C716.342 186.14 717.672 184.558 717.672 182.5C717.672 180.456 716.356 178.832 714.41 178.832C713.36 178.832 712.436 179.294 711.932 180.064V178.972H710.546V189.08ZM711.918 182.486C711.918 181.128 712.716 180.05 714.116 180.05C715.432 180.05 716.286 181.016 716.286 182.486C716.286 183.956 715.432 184.922 714.116 184.922C712.716 184.922 711.918 183.858 711.918 182.486ZM722.323 178.818C720.853 178.818 719.593 179.658 719.341 181.03L720.671 181.254C720.783 180.498 721.469 179.994 722.253 179.994C723.079 179.994 723.835 180.442 723.835 181.394V181.618C722.323 181.618 719.201 181.702 719.201 183.984C719.201 185.258 720.195 186.14 721.511 186.14C722.617 186.14 723.303 185.72 723.835 184.922V186H725.221V181.478C725.221 179.784 723.989 178.818 722.323 178.818ZM723.835 182.976C723.835 184.04 723.009 184.992 721.889 184.992C721.175 184.992 720.573 184.628 720.573 183.97C720.573 182.542 723.457 182.654 723.835 182.64V182.976ZM731.904 178.972L730.112 184.138L728.208 178.972H726.752L729.426 185.664L728.054 189.08H729.538L733.36 178.972H731.904ZM736.087 180.47C736.619 180.47 737.053 180.036 737.053 179.504C737.053 178.972 736.619 178.538 736.087 178.538C735.555 178.538 735.121 178.972 735.121 179.504C735.121 180.036 735.555 180.47 736.087 180.47ZM736.087 186.042C736.619 186.042 737.053 185.608 737.053 185.076C737.053 184.544 736.619 184.11 736.087 184.11C735.555 184.11 735.121 184.544 735.121 185.076C735.121 185.608 735.555 186.042 736.087 186.042Z"
        fill="#99A8A7" />
      <rect x="672.666" y="193" width="352" height="72" rx="4" fill="#193330" />
      <path
        d="M981.761 217.38C977.405 217.38 975.887 221.428 975.887 225.3C975.887 229.172 977.405 233.22 981.761 233.22C986.139 233.22 987.657 229.172 987.657 225.3C987.657 221.428 986.139 217.38 981.761 217.38ZM981.761 231.196C978.703 231.196 978.153 227.984 978.153 225.3C978.153 222.616 978.703 219.404 981.761 219.404C984.819 219.404 985.391 222.616 985.391 225.3C985.391 227.984 984.819 231.196 981.761 231.196ZM991.642 233.088C992.456 233.088 993.16 232.406 993.16 231.548C993.16 230.712 992.456 230.03 991.642 230.03C990.806 230.03 990.102 230.712 990.102 231.548C990.102 232.406 990.806 233.088 991.642 233.088ZM1001.61 217.38C997.257 217.38 995.739 221.428 995.739 225.3C995.739 229.172 997.257 233.22 1001.61 233.22C1005.99 233.22 1007.51 229.172 1007.51 225.3C1007.51 221.428 1005.99 217.38 1001.61 217.38ZM1001.61 231.196C998.555 231.196 998.005 227.984 998.005 225.3C998.005 222.616 998.555 219.404 1001.61 219.404C1004.67 219.404 1005.24 222.616 1005.24 225.3C1005.24 227.984 1004.67 231.196 1001.61 231.196Z"
        fill="#99A8A7" />
      <path
        d="M706.986 226.664C706.986 225.528 708.042 224.84 709.274 224.84C710.442 224.84 711.338 225.464 711.658 226.664L712.97 226.424C712.538 224.6 711.002 223.64 709.226 223.64C707.338 223.64 705.642 224.728 705.642 226.712C705.642 229.08 708.026 229.528 709.898 230.056C711.05 230.376 711.994 230.904 711.994 232.024C711.994 233.336 710.698 233.96 709.466 233.96C708.154 233.96 706.986 233.24 706.762 231.896L705.434 232.12C705.866 234.168 707.434 235.16 709.418 235.16C711.498 235.16 713.338 234.056 713.338 231.96C713.338 229.576 710.986 229.08 709.13 228.568C707.946 228.248 706.986 227.752 706.986 226.664ZM722.584 231.144C722.584 228.728 721.176 226.824 718.744 226.824C716.344 226.824 714.808 228.648 714.808 231.016C714.808 233.4 716.392 235.16 718.808 235.16C720.472 235.16 721.704 234.344 722.408 232.792L721.16 232.568C720.696 233.544 719.88 234.008 718.792 234.008C717.24 234.008 716.136 232.952 716.072 231.416H722.568C722.584 231.336 722.584 231.224 722.584 231.144ZM716.12 230.328C716.312 228.904 717.288 227.944 718.744 227.944C720.12 227.944 721.176 228.92 721.272 230.328H716.12ZM725.755 235V223.48H724.475V235H725.755ZM735.412 231.144C735.412 228.728 734.004 226.824 731.572 226.824C729.172 226.824 727.636 228.648 727.636 231.016C727.636 233.4 729.22 235.16 731.636 235.16C733.3 235.16 734.532 234.344 735.236 232.792L733.988 232.568C733.524 233.544 732.708 234.008 731.62 234.008C730.068 234.008 728.964 232.952 728.9 231.416H735.396C735.412 231.336 735.412 231.224 735.412 231.144ZM728.948 230.328C729.14 228.904 730.116 227.944 731.572 227.944C732.948 227.944 734.004 228.92 734.1 230.328H728.948ZM740.807 233.992C739.047 233.992 738.103 232.696 738.103 231C738.103 229.304 739.047 228.008 740.807 228.008C741.927 228.008 742.839 228.68 743.127 229.768L744.375 229.544C744.007 227.896 742.423 226.84 740.823 226.84C738.407 226.84 736.823 228.632 736.823 231C736.823 233.368 738.407 235.16 740.823 235.16C742.439 235.16 744.007 234.12 744.375 232.456L743.127 232.232C742.839 233.32 741.927 233.992 740.807 233.992ZM749.553 228.072V227H747.809V224.744L746.561 224.952V227H745.265V228.072H746.545V232.84C746.545 234.28 747.185 235.16 748.689 235.16C748.993 235.16 749.313 235.128 749.617 235.064V233.896C749.393 233.976 749.153 234.008 748.929 234.008C747.937 234.008 747.825 233.544 747.825 232.648V228.072H749.553ZM758.834 228.072V227H757.09V224.744L755.842 224.952V227H754.546V228.072H755.826V232.84C755.826 234.28 756.466 235.16 757.97 235.16C758.274 235.16 758.594 235.128 758.898 235.064V233.896C758.674 233.976 758.434 234.008 758.21 234.008C757.218 234.008 757.106 233.544 757.106 232.648V228.072H758.834ZM764.013 226.84C761.581 226.84 759.917 228.616 759.917 231C759.917 233.384 761.581 235.16 764.013 235.16C766.429 235.16 768.077 233.384 768.077 231C768.077 228.616 766.413 226.84 764.013 226.84ZM763.997 233.992C762.269 233.992 761.229 232.728 761.229 231C761.229 229.272 762.269 228.008 763.997 228.008C765.725 228.008 766.765 229.272 766.765 231C766.765 232.728 765.725 233.992 763.997 233.992ZM773.351 230.264L776.631 227H774.919L771.239 230.68V223.48H769.959V235H771.239V232.36L772.487 231.112L775.351 235H776.903L773.351 230.264ZM785.552 231.144C785.552 228.728 784.144 226.824 781.712 226.824C779.312 226.824 777.776 228.648 777.776 231.016C777.776 233.4 779.36 235.16 781.776 235.16C783.44 235.16 784.672 234.344 785.376 232.792L784.128 232.568C783.664 233.544 782.848 234.008 781.76 234.008C780.208 234.008 779.104 232.952 779.04 231.416H785.536C785.552 231.336 785.552 231.224 785.552 231.144ZM779.088 230.328C779.28 228.904 780.256 227.944 781.712 227.944C783.088 227.944 784.144 228.92 784.24 230.328H779.088ZM791.3 226.84C790.228 226.84 789.204 227.432 788.66 228.36V227H787.38V235H788.66V230.872C788.66 229.416 789.476 228.008 791.076 228.008C792.308 228.008 792.98 228.904 792.98 230.072V235H794.26V229.768C794.26 228.152 792.9 226.84 791.3 226.84Z"
        fill="#CCD3D3" />
      <path fill-rule="evenodd" clip-rule="evenodd"
        d="M811.266 231.414L811.973 232.121C812.363 232.511 812.997 232.511 813.387 232.121L814.094 231.414L819.044 226.464L817.63 225.05L812.68 230L807.73 225.05L806.316 226.464L811.266 231.414Z"
        fill="#667C7A" />
      <path
        d="M692.666 210.5H828.666V207.5H692.666V210.5ZM831.166 213V245H834.166V213H831.166ZM828.666 247.5H692.666V250.5H828.666V247.5ZM690.166 245V213H687.166V245H690.166ZM692.666 247.5C691.285 247.5 690.166 246.381 690.166 245H687.166C687.166 248.038 689.628 250.5 692.666 250.5V247.5ZM831.166 245C831.166 246.381 830.047 247.5 828.666 247.5V250.5C831.704 250.5 834.166 248.038 834.166 245H831.166ZM828.666 210.5C830.047 210.5 831.166 211.619 831.166 213H834.166C834.166 209.962 831.704 207.5 828.666 207.5V210.5ZM692.666 207.5C689.628 207.5 687.166 209.962 687.166 213H690.166C690.166 211.619 691.285 210.5 692.666 210.5V207.5Z"
        fill="#667C7A" />
      <path
        d="M687.54 176.2L685.09 180.736L682.626 176.2H681.002L684.362 182.178V186H685.804V182.178L689.178 176.2H687.54ZM692.764 178.832C690.608 178.832 689.138 180.358 689.138 182.486C689.138 184.614 690.608 186.14 692.764 186.14C694.892 186.14 696.362 184.614 696.362 182.486C696.362 180.358 694.878 178.832 692.764 178.832ZM692.75 184.922C691.35 184.922 690.552 183.872 690.552 182.486C690.552 181.1 691.35 180.05 692.75 180.05C694.15 180.05 694.948 181.1 694.948 182.486C694.948 183.872 694.15 184.922 692.75 184.922ZM700.754 186.14C701.678 186.14 702.518 185.664 703.008 184.88V186H704.394V178.972H703.008V182.598C703.008 183.76 702.406 184.922 701.104 184.922C700.096 184.922 699.578 184.152 699.578 183.2V178.972H698.206V183.522C698.206 184.978 699.298 186.14 700.754 186.14ZM710.546 189.08H711.932V184.922C712.45 185.678 713.36 186.14 714.396 186.14C716.342 186.14 717.672 184.558 717.672 182.5C717.672 180.456 716.356 178.832 714.41 178.832C713.36 178.832 712.436 179.294 711.932 180.064V178.972H710.546V189.08ZM711.918 182.486C711.918 181.128 712.716 180.05 714.116 180.05C715.432 180.05 716.286 181.016 716.286 182.486C716.286 183.956 715.432 184.922 714.116 184.922C712.716 184.922 711.918 183.858 711.918 182.486ZM722.323 178.818C720.853 178.818 719.593 179.658 719.341 181.03L720.671 181.254C720.783 180.498 721.469 179.994 722.253 179.994C723.079 179.994 723.835 180.442 723.835 181.394V181.618C722.323 181.618 719.201 181.702 719.201 183.984C719.201 185.258 720.195 186.14 721.511 186.14C722.617 186.14 723.303 185.72 723.835 184.922V186H725.221V181.478C725.221 179.784 723.989 178.818 722.323 178.818ZM723.835 182.976C723.835 184.04 723.009 184.992 721.889 184.992C721.175 184.992 720.573 184.628 720.573 183.97C720.573 182.542 723.457 182.654 723.835 182.64V182.976ZM731.904 178.972L730.112 184.138L728.208 178.972H726.752L729.426 185.664L728.054 189.08H729.538L733.36 178.972H731.904ZM736.087 180.47C736.619 180.47 737.053 180.036 737.053 179.504C737.053 178.972 736.619 178.538 736.087 178.538C735.555 178.538 735.121 178.972 735.121 179.504C735.121 180.036 735.555 180.47 736.087 180.47ZM736.087 186.042C736.619 186.042 737.053 185.608 737.053 185.076C737.053 184.544 736.619 184.11 736.087 184.11C735.555 184.11 735.121 184.544 735.121 185.076C735.121 185.608 735.555 186.042 736.087 186.042Z"
        fill="#99A8A7" />
      <circle cx="848.666" cy="281" r="19.5" fill="#193330" stroke="#002522" stroke-width="3" />
      <path fill-rule="evenodd" clip-rule="evenodd"
        d="M846.511 275.268C845.86 275.919 845.86 276.974 846.511 277.625L848.279 279.393L849.163 278.509L847.655 277.001H854.707C854.823 277.001 854.916 277.094 854.916 277.209V280.543H856.166V277.209C856.166 276.404 855.513 275.751 854.707 275.751H847.796L849.163 274.384L848.279 273.5L846.511 275.268ZM850.821 286.732C851.472 286.081 851.472 285.026 850.821 284.375L849.053 282.607L848.169 283.491L849.677 284.999L842.624 284.999C842.509 284.999 842.416 284.906 842.416 284.791L842.416 281.457H841.166L841.166 284.791C841.166 285.596 841.819 286.249 842.624 286.249L849.536 286.249L848.169 287.616L849.053 288.5L850.821 286.732ZM840.333 276.417C840.333 275.726 840.892 275.167 841.583 275.167C842.273 275.167 842.833 275.726 842.833 276.417C842.833 277.107 842.273 277.667 841.583 277.667C840.892 277.667 840.333 277.107 840.333 276.417ZM855.749 284.333C855.059 284.333 854.499 284.893 854.499 285.583C854.499 286.274 855.059 286.833 855.749 286.833C856.44 286.833 856.999 286.274 856.999 285.583C856.999 284.893 856.44 284.333 855.749 284.333Z"
        fill="#99A8A7" />
      <g filter="url(#filter1_ddd_1563_41613)">
        <rect x="656.666" y="45" width="384" height="64" rx="16" fill="#002522" />
      </g>
      <path fill-rule="evenodd" clip-rule="evenodd"
        d="M886.666 73.5001H872.666C872.39 73.5001 872.166 73.7239 872.166 74.0001V76.0001C872.166 76.2762 872.39 76.5001 872.666 76.5001H886.666C886.942 76.5001 887.166 76.2762 887.166 76.0001V74.0001C887.166 73.7239 886.942 73.5001 886.666 73.5001ZM872.666 72.0001C871.561 72.0001 870.666 72.8955 870.666 74.0001V76.0001C870.666 77.1046 871.561 78.0001 872.666 78.0001H886.666C887.771 78.0001 888.666 77.1046 888.666 76.0001V74.0001C888.666 72.8955 887.771 72.0001 886.666 72.0001H872.666Z"
        fill="#22C480" />
      <path fill-rule="evenodd" clip-rule="evenodd"
        d="M873.166 77H871.666V84C871.666 85.1046 872.561 86 873.666 86H885.666C886.771 86 887.666 85.1046 887.666 84V77H886.166V84C886.166 84.2761 885.942 84.5 885.666 84.5H873.666C873.39 84.5 873.166 84.2761 873.166 84V77Z"
        fill="#22C480" />
      <path fill-rule="evenodd" clip-rule="evenodd"
        d="M878.916 86.0001L878.916 73.0001L880.416 73.0001L880.416 86.0001L878.916 86.0001Z" fill="#22C480" />
      <path fill-rule="evenodd" clip-rule="evenodd"
        d="M878.915 71.8691C878.508 71.0389 877.895 70.2071 877.559 69.8601C877.23 69.5189 876.686 69.5096 876.345 69.8393C876.004 70.169 875.994 70.7129 876.324 71.0541C876.396 71.1288 876.627 71.3094 877.038 71.535C877.425 71.7469 877.885 71.9518 878.342 72.1062C878.628 72.2026 878.888 72.271 879.11 72.3128C879.059 72.1811 878.995 72.0326 878.915 71.8691ZM879.257 72.8872C879.257 72.8872 879.257 72.8815 879.257 72.8718C879.258 72.8826 879.257 72.8872 879.257 72.8872ZM879.68 72.3566C879.689 72.3541 879.694 72.3536 879.694 72.3536C879.694 72.3536 879.69 72.3551 879.68 72.3566ZM880.166 73.0001C881.103 72.0947 879.543 69.7546 878.638 68.8177C877.733 67.8808 876.239 67.8553 875.302 68.7607C874.365 69.6661 874.34 71.1596 875.245 72.0964C876.151 73.0333 879.229 73.9055 880.166 73.0001Z"
        fill="#22C480" />
      <path fill-rule="evenodd" clip-rule="evenodd"
        d="M880.357 71.8691C880.764 71.0389 881.377 70.2071 881.713 69.8601C882.042 69.5189 882.586 69.5096 882.927 69.8393C883.268 70.169 883.278 70.7129 882.948 71.0541C882.876 71.1288 882.645 71.3094 882.234 71.535C881.847 71.7469 881.387 71.9518 880.93 72.1062C880.644 72.2026 880.384 72.271 880.162 72.3128C880.213 72.1811 880.277 72.0326 880.357 71.8691ZM880.015 72.8872C880.015 72.8872 880.015 72.8815 880.015 72.8718C880.014 72.8826 880.015 72.8872 880.015 72.8872ZM879.592 72.3566C879.583 72.3541 879.578 72.3536 879.578 72.3536C879.578 72.3536 879.582 72.3551 879.592 72.3566ZM879.106 73.0001C878.169 72.0947 879.729 69.7546 880.634 68.8177C881.539 67.8808 883.033 67.8553 883.97 68.7607C884.907 69.6661 884.932 71.1596 884.027 72.0964C883.121 73.0333 880.043 73.9055 879.106 73.0001Z"
        fill="#22C480" />
      <path
        d="M912.166 75C912.166 75.4142 912.502 75.75 912.916 75.75H915.813C915.826 75.75 915.864 75.7575 915.893 75.8138C915.925 75.8745 915.923 75.9537 915.89 76.0111L911.166 84.1992V79C911.166 78.5858 910.83 78.25 910.416 78.25H907.518H907.518C907.506 78.25 907.468 78.2427 907.439 78.1867C907.407 78.1263 907.409 78.0473 907.442 77.9902L907.442 77.9899L912.166 69.801V75Z"
        stroke="#99A8A7" stroke-width="1.5" stroke-linejoin="round" />
      <path
        d="M937.837 71.8H933.725V83H935.373V78.776H937.837C940.109 78.776 941.661 77.432 941.661 75.288C941.661 73.16 940.093 71.8 937.837 71.8ZM937.725 77.32H935.373V73.272H937.725C939.101 73.272 939.997 74.072 939.997 75.288C939.997 76.52 939.101 77.32 937.725 77.32ZM946.763 74.808C944.299 74.808 942.619 76.552 942.619 78.984C942.619 81.416 944.299 83.16 946.763 83.16C949.195 83.16 950.875 81.416 950.875 78.984C950.875 76.552 949.179 74.808 946.763 74.808ZM946.747 81.768C945.147 81.768 944.235 80.568 944.235 78.984C944.235 77.4 945.147 76.2 946.747 76.2C948.347 76.2 949.259 77.4 949.259 78.984C949.259 80.568 948.347 81.768 946.747 81.768ZM953.446 73.256C954.038 73.256 954.486 72.808 954.486 72.232C954.486 71.656 954.038 71.208 953.446 71.208C952.87 71.208 952.438 71.656 952.438 72.232C952.438 72.808 952.87 73.256 953.446 73.256ZM954.246 83V74.968H952.662V83H954.246ZM960.569 74.808C959.513 74.808 958.553 75.352 957.993 76.248V74.968H956.409V83H957.993V78.856C957.993 77.528 958.681 76.2 960.169 76.2C961.353 76.2 961.929 77.08 961.929 78.168V83H963.513V77.8C963.513 76.152 962.233 74.808 960.569 74.808ZM969.31 76.28V74.968H967.566V72.616L966.014 72.888V74.968H964.718V76.28H965.998V80.744C965.998 82.344 966.782 83.16 968.382 83.16C968.686 83.16 969.054 83.128 969.358 83.064V81.624C969.134 81.704 968.894 81.736 968.654 81.736C967.71 81.736 967.582 81.32 967.582 80.424V76.28H969.31ZM978.209 79.112C978.209 76.68 976.753 74.792 974.321 74.792C971.905 74.792 970.337 76.616 970.337 79C970.337 81.4 971.953 83.16 974.369 83.16C976.033 83.16 977.329 82.36 978.033 80.776L976.529 80.504C976.097 81.384 975.345 81.8 974.369 81.8C972.977 81.8 971.953 80.872 971.873 79.464H978.193C978.209 79.352 978.209 79.224 978.209 79.112ZM971.937 78.232C972.113 76.952 973.025 76.104 974.321 76.104C975.537 76.104 976.513 76.952 976.625 78.232H971.937ZM984.374 74.84C984.182 74.808 984.006 74.808 983.846 74.824C982.742 74.84 982.006 75.32 981.446 76.312V74.968H979.862V83H981.446V78.984C981.446 77.048 982.614 76.056 984.374 76.248V74.84Z"
        fill="white" />
      <mask id="mask1_1563_41613" style="mask-type:alpha" maskUnits="userSpaceOnUse" x="992" y="61" width="33"
        height="32">
        <path
          d="M992.666 73C992.666 66.3726 998.039 61 1004.67 61H1012.67C1019.29 61 1024.67 66.3726 1024.67 73V81C1024.67 87.6274 1019.29 93 1012.67 93H1004.67C998.039 93 992.666 87.6274 992.666 81V73Z"
          fill="#C4C4C4" />
      </mask>
      <g mask="url(#mask1_1563_41613)">
        <rect x="992.666" y="61" width="32" height="32" fill="#FEFEFC" />
        <rect width="102" height="186.667" transform="matrix(-1 0 0 1 1046 54.3334)" fill="url(#pattern1)" />
        <path
          d="M1030.37 72.0388C1030.37 83.7405 1020.9 96.4 1009.29 96.4C997.672 96.4 987.966 90.673 987.966 78.9712C987.966 67.2695 993.248 53.3407 1009.29 54.0242C1020.9 54.0242 1030.37 60.337 1030.37 72.0388Z"
          fill="#276668" />
        <rect x="988.766" y="59.6" width="41.6" height="42.4" fill="url(#pattern2)" />
      </g>
      <rect x="1013.67" y="52" width="20" height="20" rx="10" fill="#667C7A" stroke="#002522" stroke-width="2" />
      <path fill-rule="evenodd" clip-rule="evenodd"
        d="M1024.67 55H1022.67V57.1C1020.38 57.5633 1018.67 59.581 1018.67 62V64H1017.67V66H1018.67H1020.67H1021.67H1025.67H1026.67H1028.67H1029.67V64H1028.67V62C1028.67 59.581 1026.95 57.5633 1024.67 57.1V55ZM1026.67 62V64H1020.67V62C1020.67 60.3431 1022.01 59 1023.67 59C1025.32 59 1026.67 60.3431 1026.67 62ZM1021.67 68V67H1025.67V68C1025.67 68.5523 1025.22 69 1024.67 69H1022.67C1022.11 69 1021.67 68.5523 1021.67 68Z"
        fill="#002522" />
      <path
        d="M689.049 73.032V71.8H682.009V83H689.049V81.768H683.353V77.992H688.409V76.792H683.353V73.032H689.049ZM694.553 76.072V75H692.809V72.744L691.561 72.952V75H690.265V76.072H691.545V80.84C691.545 82.28 692.185 83.16 693.689 83.16C693.993 83.16 694.313 83.128 694.617 83.064V81.896C694.393 81.976 694.153 82.008 693.929 82.008C692.937 82.008 692.825 81.544 692.825 80.648V76.072H694.553ZM700.318 74.84C698.958 74.84 698.046 75.736 697.63 76.456V71.48H696.35V83H697.63V78.968C697.63 77.304 698.622 76.008 700.062 76.008C701.294 76.008 701.95 76.936 701.95 78.072V83H703.23V77.768C703.23 76.344 702.062 74.84 700.318 74.84ZM712.802 79.144C712.802 76.728 711.394 74.824 708.962 74.824C706.562 74.824 705.026 76.648 705.026 79.016C705.026 81.4 706.61 83.16 709.026 83.16C710.69 83.16 711.922 82.344 712.626 80.792L711.378 80.568C710.914 81.544 710.098 82.008 709.01 82.008C707.458 82.008 706.354 80.952 706.29 79.416H712.786C712.802 79.336 712.802 79.224 712.802 79.144ZM706.338 78.328C706.53 76.904 707.506 75.944 708.962 75.944C710.338 75.944 711.394 76.92 711.49 78.328H706.338ZM718.854 74.872C718.678 74.84 718.534 74.84 718.39 74.84C717.238 74.84 716.47 75.352 715.91 76.344V75H714.63V83H715.91V78.92C715.91 77.048 716.934 75.848 718.854 76.024V74.872ZM727.162 79.144C727.162 76.728 725.754 74.824 723.322 74.824C720.922 74.824 719.386 76.648 719.386 79.016C719.386 81.4 720.97 83.16 723.386 83.16C725.05 83.16 726.282 82.344 726.986 80.792L725.738 80.568C725.274 81.544 724.458 82.008 723.37 82.008C721.818 82.008 720.714 80.952 720.65 79.416H727.146C727.162 79.336 727.162 79.224 727.162 79.144ZM720.698 78.328C720.89 76.904 721.866 75.944 723.322 75.944C724.698 75.944 725.754 76.92 725.85 78.328H720.698ZM731.901 83.16C732.973 83.16 733.981 82.568 734.525 81.64V83H735.805V75H734.525V79.128C734.525 80.584 733.709 81.992 732.125 81.992C730.925 81.992 730.237 81.096 730.237 79.928V75H728.957V80.232C728.957 81.864 730.301 83.16 731.901 83.16ZM746.836 74.84C745.684 74.84 744.66 75.432 744.132 76.584C743.78 75.56 742.868 74.84 741.716 74.84C740.772 74.84 739.844 75.352 739.332 76.344V75H738.052V83H739.332V78.696C739.332 77.336 740.068 76.008 741.444 76.008C742.564 76.008 743.204 76.872 743.204 78.088V83H744.484V78.696C744.484 77.336 745.172 76.008 746.548 76.008C747.652 76.008 748.292 76.872 748.292 78.088V83H749.572V78.056C749.572 76.28 748.58 74.84 746.836 74.84Z"
        fill="#99A8A7" />
      <path fill-rule="evenodd" clip-rule="evenodd"
        d="M1011.8 120C1011.02 120 1010.37 120.598 1010.3 121.375L1010.12 123.566C1009.81 123.712 1009.51 123.883 1009.23 124.078L1007.25 123.14C1006.54 122.807 1005.7 123.071 1005.31 123.747L1004.44 125.253C1004.05 125.929 1004.24 126.791 1004.88 127.236L1006.69 128.49C1006.67 128.658 1006.67 128.828 1006.67 129C1006.67 129.172 1006.67 129.342 1006.69 129.511L1004.88 130.764C1004.24 131.209 1004.05 132.071 1004.44 132.747L1005.31 134.253C1005.7 134.929 1006.54 135.193 1007.25 134.86L1009.23 133.923C1009.51 134.117 1009.81 134.288 1010.12 134.434L1010.3 136.625C1010.37 137.402 1011.02 138 1011.8 138H1013.54C1014.32 138 1014.97 137.402 1015.03 136.625L1015.21 134.434C1015.52 134.288 1015.82 134.117 1016.1 133.922L1018.09 134.86C1018.79 135.193 1019.64 134.929 1020.03 134.253L1020.9 132.747C1021.29 132.071 1021.09 131.209 1020.45 130.764L1018.64 129.51C1018.66 129.342 1018.67 129.172 1018.67 129C1018.67 128.828 1018.66 128.658 1018.64 128.489L1020.45 127.236C1021.09 126.791 1021.29 125.929 1020.9 125.253L1020.03 123.747C1019.64 123.071 1018.79 122.807 1018.09 123.14L1016.1 124.077C1015.82 123.883 1015.52 123.712 1015.21 123.566L1015.03 121.375C1014.97 120.598 1014.32 120 1013.54 120H1011.8ZM1012.67 132C1014.32 132 1015.67 130.657 1015.67 129C1015.67 127.343 1014.32 126 1012.67 126C1011.01 126 1009.67 127.343 1009.67 129C1009.67 130.657 1011.01 132 1012.67 132Z"
        fill="#99A8A7" />
    </g>
    <g filter="url(#filter2_ddd_1563_41613)">
      <rect x="581" y="370" width="535.333" height="146" rx="8" fill="#002522" />
      <rect x="582" y="371" width="533.333" height="144" rx="7" stroke="#14B9EA" stroke-width="2" />
    </g>
    <path d="M648.641 438.742V440.701H653.282V453.646H655.475V440.701H660.117V438.742H648.641Z" fill="#99A8A7" />
    <path
      d="M667.543 442.745C665.84 442.745 664.669 443.788 664.051 444.767V438.316H661.944V453.646H664.051V448.238C664.051 446.194 665.159 444.597 666.99 444.597C668.565 444.597 669.289 445.811 669.289 447.216V453.646H671.397V446.726C671.397 444.725 669.907 442.745 667.543 442.745Z"
      fill="#99A8A7" />
    <path
      d="M675.278 440.679C676.066 440.679 676.662 440.083 676.662 439.317C676.662 438.55 676.066 437.954 675.278 437.954C674.511 437.954 673.936 438.55 673.936 439.317C673.936 440.083 674.511 440.679 675.278 440.679ZM676.342 453.646V442.957H674.235V453.646H676.342Z"
      fill="#99A8A7" />
    <path
      d="M680.818 445.811C680.818 444.895 681.818 444.448 682.713 444.448C683.735 444.448 684.565 445.023 684.778 445.981L686.801 445.64C686.417 443.767 684.586 442.702 682.713 442.702C680.69 442.702 678.795 443.979 678.795 446.002C678.795 448.025 680.732 448.728 682.968 449.217C683.99 449.451 685.055 449.728 685.055 450.708C685.055 451.751 683.841 452.113 682.926 452.113C681.733 452.113 680.882 451.517 680.647 450.367L678.603 450.708C678.901 452.837 680.86 453.859 682.968 453.859C685.119 453.859 687.12 452.773 687.12 450.622C687.12 448.408 684.991 447.748 683.075 447.344C681.967 447.109 680.818 446.79 680.818 445.811Z"
      fill="#99A8A7" />
    <path
      d="M706.854 442.957L704.682 451.07L702.233 442.957H700.36L697.911 451.07L695.739 442.957H693.589L696.825 453.646H698.933L701.296 445.832L703.66 453.646H705.768L709.004 442.957H706.854Z"
      fill="#99A8A7" />
    <path
      d="M720.478 448.472C720.478 445.236 718.541 442.723 715.304 442.723C712.089 442.723 710.003 445.151 710.003 448.323C710.003 451.517 712.153 453.859 715.368 453.859C717.583 453.859 719.307 452.794 720.244 450.686L718.243 450.324C717.668 451.495 716.667 452.049 715.368 452.049C713.516 452.049 712.153 450.814 712.047 448.94H720.457C720.478 448.791 720.478 448.621 720.478 448.472ZM712.132 447.301C712.366 445.598 713.58 444.469 715.304 444.469C716.923 444.469 718.221 445.598 718.37 447.301H712.132Z"
      fill="#99A8A7" />
    <path
      d="M732.663 448.472C732.663 445.236 730.725 442.723 727.489 442.723C724.274 442.723 722.187 445.151 722.187 448.323C722.187 451.517 724.338 453.859 727.553 453.859C729.767 453.859 731.492 452.794 732.428 450.686L730.427 450.324C729.852 451.495 728.851 452.049 727.553 452.049C725.7 452.049 724.338 450.814 724.231 448.94H732.641C732.663 448.791 732.663 448.621 732.663 448.472ZM724.316 447.301C724.551 445.598 725.764 444.469 727.489 444.469C729.107 444.469 730.406 445.598 730.555 447.301H724.316Z"
      fill="#99A8A7" />
    <path
      d="M739.929 447.386L744.379 442.957H741.632L737.054 447.556V438.316H734.947V453.646H737.054V450.133L738.481 448.706L742.143 453.646H744.698L739.929 447.386Z"
      fill="#99A8A7" />
    <path d="M746.978 451.517L746.127 457.074H747.787L749.278 451.517H746.978Z" fill="#99A8A7" />
    <path
      d="M757.567 442.872L759.59 443.234C759.76 441.488 760.995 440.466 762.634 440.466C764.231 440.466 765.466 441.488 765.466 443.149C765.466 444.469 764.7 445.427 763.593 446.385L757.482 451.666V453.646H767.638V451.708H760.441L764.976 447.791C766.36 446.598 767.595 445.108 767.595 443.064C767.595 440.317 765.317 438.529 762.592 438.529C759.739 438.529 757.759 440.424 757.567 442.872Z"
      fill="#99A8A7" />
    <path
      d="M776.353 438.742L769.348 448.366V450.324H776.353V453.646H778.503V450.324H780.377V448.366H778.503V438.742H776.353ZM776.353 441.893V448.366H771.818L776.353 441.893Z"
      fill="#99A8A7" />
    <path
      d="M788.053 438.529C783.837 438.529 782.368 442.446 782.368 446.194C782.368 449.941 783.837 453.859 788.053 453.859C792.29 453.859 793.759 449.941 793.759 446.194C793.759 442.446 792.29 438.529 788.053 438.529ZM788.053 451.9C785.093 451.9 784.561 448.791 784.561 446.194C784.561 443.596 785.093 440.488 788.053 440.488C791.013 440.488 791.566 443.596 791.566 446.194C791.566 448.791 791.013 451.9 788.053 451.9Z"
      fill="#99A8A7" />
    <path d="M796.402 451.517L795.551 457.074H797.211L798.702 451.517H796.402Z" fill="#99A8A7" />
    <path
      d="M806.891 438.529C802.675 438.529 801.206 442.446 801.206 446.194C801.206 449.941 802.675 453.859 806.891 453.859C811.128 453.859 812.597 449.941 812.597 446.194C812.597 442.446 811.128 438.529 806.891 438.529ZM806.891 451.9C803.932 451.9 803.399 448.791 803.399 446.194C803.399 443.596 803.932 440.488 806.891 440.488C809.851 440.488 810.404 443.596 810.404 446.194C810.404 448.791 809.851 451.9 806.891 451.9Z"
      fill="#99A8A7" />
    <path
      d="M820.552 438.529C816.336 438.529 814.867 442.446 814.867 446.194C814.867 449.941 816.336 453.859 820.552 453.859C824.789 453.859 826.258 449.941 826.258 446.194C826.258 442.446 824.789 438.529 820.552 438.529ZM820.552 451.9C817.592 451.9 817.06 448.791 817.06 446.194C817.06 443.596 817.592 440.488 820.552 440.488C823.511 440.488 824.065 443.596 824.065 446.194C824.065 448.791 823.511 451.9 820.552 451.9Z"
      fill="#99A8A7" />
    <path
      d="M834.213 438.529C829.997 438.529 828.528 442.446 828.528 446.194C828.528 449.941 829.997 453.859 834.213 453.859C838.45 453.859 839.919 449.941 839.919 446.194C839.919 442.446 838.45 438.529 834.213 438.529ZM834.213 451.9C831.253 451.9 830.721 448.791 830.721 446.194C830.721 443.596 831.253 440.488 834.213 440.488C837.172 440.488 837.726 443.596 837.726 446.194C837.726 448.791 837.172 451.9 834.213 451.9Z"
      fill="#99A8A7" />
    <path
      d="M852.452 438.742H847.917V453.646H852.452C856.987 453.646 860.096 450.75 860.096 446.087C860.096 441.51 857.115 438.742 852.452 438.742ZM852.431 451.687H850.11V440.701H852.431C855.731 440.701 857.903 442.638 857.903 446.066C857.903 449.622 855.603 451.687 852.431 451.687Z"
      fill="#99A8A7" />
    <path
      d="M869.662 438.529C865.212 438.529 862.231 441.85 862.231 446.194C862.231 450.537 865.212 453.859 869.662 453.859C874.048 453.859 877.05 450.537 877.05 446.194C877.05 441.85 874.048 438.529 869.662 438.529ZM869.662 451.9C866.383 451.9 864.424 449.366 864.424 446.194C864.424 443.021 866.383 440.488 869.662 440.488C872.898 440.488 874.857 443.021 874.857 446.194C874.857 449.366 872.898 451.9 869.662 451.9Z"
      fill="#99A8A7" />
    <path
      d="M893.995 445.64H887.288V447.556H891.887C891.802 450.175 889.801 451.9 887.033 451.9C883.818 451.9 881.795 449.579 881.795 446.279C881.795 443 883.796 440.488 886.99 440.488C888.843 440.488 890.461 441.339 891.206 442.787L893.42 442.297C892.207 439.849 889.886 438.529 887.033 438.529C882.498 438.529 879.581 441.872 879.581 446.194C879.581 450.665 882.689 453.859 887.097 453.859C891.227 453.859 894.038 451.048 894.038 446.747C894.038 446.492 894.016 446.087 893.995 445.64Z"
      fill="#99A8A7" />
    <path
      d="M911.024 445.64H904.317V447.556H908.916C908.831 450.175 906.83 451.9 904.062 451.9C900.847 451.9 898.824 449.579 898.824 446.279C898.824 443 900.826 440.488 904.019 440.488C905.872 440.488 907.49 441.339 908.235 442.787L910.449 442.297C909.236 439.849 906.915 438.529 904.062 438.529C899.527 438.529 896.61 441.872 896.61 446.194C896.61 450.665 899.718 453.859 904.126 453.859C908.256 453.859 911.067 451.048 911.067 446.747C911.067 446.492 911.046 446.087 911.024 445.64Z"
      fill="#99A8A7" />
    <path
      d="M920.708 438.529C916.258 438.529 913.277 441.85 913.277 446.194C913.277 450.537 916.258 453.859 920.708 453.859C925.094 453.859 928.096 450.537 928.096 446.194C928.096 441.85 925.094 438.529 920.708 438.529ZM920.708 451.9C917.429 451.9 915.47 449.366 915.47 446.194C915.47 443.021 917.429 440.488 920.708 440.488C923.944 440.488 925.903 443.021 925.903 446.194C925.903 449.366 923.944 451.9 920.708 451.9Z"
      fill="#99A8A7" />
    <path
      d="M940.869 444.703V442.957H938.548V439.828L936.483 440.19V442.957H934.758V444.703H936.462V450.644C936.462 452.773 937.505 453.859 939.634 453.859C940.039 453.859 940.528 453.816 940.933 453.731V451.815C940.635 451.921 940.315 451.964 939.996 451.964C938.74 451.964 938.569 451.41 938.569 450.218V444.703H940.869Z"
      fill="#99A8A7" />
    <path
      d="M947.75 442.745C944.471 442.745 942.236 445.065 942.236 448.302C942.236 451.538 944.471 453.859 947.75 453.859C950.987 453.859 953.222 451.538 953.222 448.302C953.222 445.065 950.965 442.745 947.75 442.745ZM947.729 452.006C945.6 452.006 944.386 450.41 944.386 448.302C944.386 446.194 945.6 444.597 947.729 444.597C949.858 444.597 951.072 446.194 951.072 448.302C951.072 450.41 949.858 452.006 947.729 452.006Z"
      fill="#99A8A7" />
    <path
      d="M960.476 447.386L964.926 442.957H962.18L957.602 447.556V438.316H955.494V453.646H957.602V450.133L959.029 448.706L962.691 453.646H965.246L960.476 447.386Z"
      fill="#99A8A7" />
    <path
      d="M976.602 448.472C976.602 445.236 974.664 442.723 971.428 442.723C968.213 442.723 966.126 445.151 966.126 448.323C966.126 451.517 968.277 453.859 971.492 453.859C973.706 453.859 975.431 452.794 976.368 450.686L974.366 450.324C973.792 451.495 972.791 452.049 971.492 452.049C969.64 452.049 968.277 450.814 968.171 448.94H976.581C976.602 448.791 976.602 448.621 976.602 448.472ZM968.256 447.301C968.49 445.598 969.704 444.469 971.428 444.469C973.046 444.469 974.345 445.598 974.494 447.301H968.256Z"
      fill="#99A8A7" />
    <path
      d="M984.358 442.745C982.953 442.745 981.675 443.468 980.93 444.661V442.957H978.822V453.646H980.93V448.131C980.93 446.364 981.845 444.597 983.826 444.597C985.401 444.597 986.168 445.768 986.168 447.216V453.646H988.275V446.726C988.275 444.533 986.572 442.745 984.358 442.745Z"
      fill="#99A8A7" />
    <path
      d="M992.541 445.811C992.541 444.895 993.542 444.448 994.436 444.448C995.458 444.448 996.288 445.023 996.501 445.981L998.524 445.64C998.141 443.767 996.31 442.702 994.436 442.702C992.413 442.702 990.518 443.979 990.518 446.002C990.518 448.025 992.456 448.728 994.691 449.217C995.713 449.451 996.778 449.728 996.778 450.708C996.778 451.751 995.564 452.113 994.649 452.113C993.457 452.113 992.605 451.517 992.371 450.367L990.327 450.708C990.625 452.837 992.584 453.859 994.691 453.859C996.842 453.859 998.843 452.773 998.843 450.622C998.843 448.408 996.714 447.748 994.798 447.344C993.691 447.109 992.541 446.79 992.541 445.811Z"
      fill="#99A8A7" />
    <path
      d="M1018.58 442.957L1016.41 451.07L1013.96 442.957H1012.08L1009.63 451.07L1007.46 442.957H1005.31L1008.55 453.646H1010.66L1013.02 445.832L1015.38 453.646H1017.49L1020.73 442.957H1018.58Z"
      fill="#99A8A7" />
    <path
      d="M1023.78 440.679C1024.57 440.679 1025.17 440.083 1025.17 439.317C1025.17 438.55 1024.57 437.954 1023.78 437.954C1023.02 437.954 1022.44 438.55 1022.44 439.317C1022.44 440.083 1023.02 440.679 1023.78 440.679ZM1024.85 453.646V442.957H1022.74V453.646H1024.85Z"
      fill="#99A8A7" />
    <path d="M1029.9 453.646V438.316H1027.79V453.646H1029.9Z" fill="#99A8A7" />
    <path d="M1034.87 453.646V438.316H1032.76V453.646H1034.87Z" fill="#99A8A7" />
    <path
      d="M1043.01 453.646H1045.12V451.985C1045.88 453.177 1047.33 453.859 1048.89 453.859C1051.85 453.859 1053.85 451.389 1053.85 448.28C1053.85 445.151 1051.83 442.745 1048.87 442.745C1047.29 442.745 1045.91 443.447 1045.12 444.597V438.316H1043.01V453.646ZM1045.1 448.302C1045.1 446.236 1046.31 444.597 1048.44 444.597C1050.44 444.597 1051.74 446.066 1051.74 448.302C1051.74 450.537 1050.44 452.006 1048.44 452.006C1046.31 452.006 1045.1 450.367 1045.1 448.302Z"
      fill="#99A8A7" />
    <path
      d="M1066.03 448.472C1066.03 445.236 1064.09 442.723 1060.86 442.723C1057.64 442.723 1055.56 445.151 1055.56 448.323C1055.56 451.517 1057.71 453.859 1060.92 453.859C1063.14 453.859 1064.86 452.794 1065.8 450.686L1063.8 450.324C1063.22 451.495 1062.22 452.049 1060.92 452.049C1059.07 452.049 1057.71 450.814 1057.6 448.94H1066.01C1066.03 448.791 1066.03 448.621 1066.03 448.472ZM1057.68 447.301C1057.92 445.598 1059.13 444.469 1060.86 444.469C1062.48 444.469 1063.77 445.598 1063.92 447.301H1057.68Z"
      fill="#99A8A7" />
    <path
      d="M659.244 478.889C659.244 475.652 657.306 473.14 654.07 473.14C650.855 473.14 648.768 475.567 648.768 478.74C648.768 481.933 650.919 484.275 654.134 484.275C656.348 484.275 658.073 483.211 659.01 481.103L657.008 480.741C656.433 481.912 655.433 482.466 654.134 482.466C652.282 482.466 650.919 481.231 650.812 479.357H659.223C659.244 479.208 659.244 479.038 659.244 478.889ZM650.898 477.718C651.132 476.014 652.345 474.886 654.07 474.886C655.688 474.886 656.987 476.014 657.136 477.718H650.898Z"
      fill="#99A8A7" />
    <path
      d="M671.79 473.374H669.682V475.035C668.916 473.864 667.511 473.161 665.914 473.161C662.954 473.161 660.953 475.631 660.953 478.74C660.953 481.87 662.976 484.275 665.935 484.275C667.511 484.275 668.895 483.573 669.682 482.423V488.747H671.79V473.374ZM669.704 478.718C669.704 480.805 668.49 482.423 666.361 482.423C664.36 482.423 663.061 480.954 663.061 478.718C663.061 476.483 664.36 475.014 666.361 475.014C668.49 475.014 669.704 476.653 669.704 478.718Z"
      fill="#99A8A7" />
    <path
      d="M678.417 484.275C679.822 484.275 681.099 483.552 681.844 482.359V484.063H683.952V473.374H681.844V478.889C681.844 480.656 680.929 482.423 678.949 482.423C677.416 482.423 676.628 481.252 676.628 479.804V473.374H674.541V480.294C674.541 482.508 676.202 484.275 678.417 484.275Z"
      fill="#99A8A7" />
    <path
      d="M690.901 473.14C688.665 473.14 686.749 474.417 686.366 476.504L688.389 476.845C688.559 475.695 689.602 474.928 690.795 474.928C692.051 474.928 693.201 475.61 693.201 477.058V477.398C690.901 477.398 686.153 477.526 686.153 480.997C686.153 482.934 687.665 484.275 689.666 484.275C691.348 484.275 692.392 483.637 693.201 482.423V484.063H695.308V477.185C695.308 474.609 693.435 473.14 690.901 473.14ZM693.201 479.464C693.201 481.082 691.944 482.53 690.241 482.53C689.155 482.53 688.24 481.976 688.24 480.975C688.24 478.804 692.626 478.974 693.201 478.953V479.464Z"
      fill="#99A8A7" />
    <path d="M700.168 484.063V468.733H698.06V484.063H700.168Z" fill="#99A8A7" />
    <path d="M705.138 484.063V468.733H703.03V484.063H705.138Z" fill="#99A8A7" />
    <path
      d="M714.877 473.374L712.151 481.231L709.256 473.374H707.041L711.108 483.552L709.021 488.747H711.278L717.091 473.374H714.877Z"
      fill="#99A8A7" />
    <path
      d="M725.792 476.227C725.792 475.312 726.793 474.865 727.687 474.865C728.709 474.865 729.539 475.439 729.752 476.398L731.775 476.057C731.392 474.183 729.561 473.119 727.687 473.119C725.664 473.119 723.769 474.396 723.769 476.419C723.769 478.442 725.707 479.144 727.943 479.634C728.965 479.868 730.029 480.145 730.029 481.124C730.029 482.168 728.816 482.53 727.9 482.53C726.708 482.53 725.856 481.933 725.622 480.784L723.578 481.124C723.876 483.253 725.835 484.275 727.943 484.275C730.093 484.275 732.094 483.19 732.094 481.039C732.094 478.825 729.965 478.165 728.049 477.76C726.942 477.526 725.792 477.207 725.792 476.227Z"
      fill="#99A8A7" />
    <path
      d="M739.819 473.161C738.115 473.161 736.944 474.205 736.327 475.184V468.733H734.219V484.063H736.327V478.654C736.327 476.61 737.434 475.014 739.265 475.014C740.841 475.014 741.564 476.227 741.564 477.632V484.063H743.672V477.143C743.672 475.141 742.182 473.161 739.819 473.161Z"
      fill="#99A8A7" />
    <path
      d="M750.555 473.14C748.32 473.14 746.403 474.417 746.02 476.504L748.043 476.845C748.213 475.695 749.256 474.928 750.449 474.928C751.705 474.928 752.855 475.61 752.855 477.058V477.398C750.555 477.398 745.807 477.526 745.807 480.997C745.807 482.934 747.319 484.275 749.32 484.275C751.002 484.275 752.046 483.637 752.855 482.423V484.063H754.963V477.185C754.963 474.609 753.089 473.14 750.555 473.14ZM752.855 479.464C752.855 481.082 751.598 482.53 749.895 482.53C748.809 482.53 747.894 481.976 747.894 480.975C747.894 478.804 752.28 478.974 752.855 478.953V479.464Z"
      fill="#99A8A7" />
    <path
      d="M763.634 473.204C763.378 473.161 763.144 473.161 762.931 473.183C761.462 473.204 760.482 473.843 759.737 475.163V473.374H757.629V484.063H759.737V478.718C759.737 476.142 761.292 474.822 763.634 475.077V473.204Z"
      fill="#99A8A7" />
    <path
      d="M774.789 478.889C774.789 475.652 772.851 473.14 769.615 473.14C766.4 473.14 764.313 475.567 764.313 478.74C764.313 481.933 766.464 484.275 769.679 484.275C771.893 484.275 773.618 483.211 774.554 481.103L772.553 480.741C771.978 481.912 770.977 482.466 769.679 482.466C767.826 482.466 766.464 481.231 766.357 479.357H774.767C774.789 479.208 774.789 479.038 774.789 478.889ZM766.442 477.718C766.676 476.014 767.89 474.886 769.615 474.886C771.233 474.886 772.532 476.014 772.681 477.718H766.442Z"
      fill="#99A8A7" />
    <path
      d="M787.356 468.733H785.248V475.014C784.461 473.864 783.077 473.161 781.501 473.161C778.542 473.161 776.519 475.567 776.519 478.697C776.519 481.806 778.52 484.275 781.48 484.275C783.034 484.275 784.482 483.594 785.248 482.402V484.063H787.356V468.733ZM785.27 478.718C785.27 480.784 784.056 482.423 781.927 482.423C779.926 482.423 778.627 480.954 778.627 478.718C778.627 476.483 779.926 475.014 781.927 475.014C784.056 475.014 785.27 476.653 785.27 478.718Z"
      fill="#99A8A7" />
    <path
      d="M799.647 473.14C797.411 473.14 795.495 474.417 795.111 476.504L797.134 476.845C797.305 475.695 798.348 474.928 799.54 474.928C800.796 474.928 801.946 475.61 801.946 477.058V477.398C799.647 477.398 794.899 477.526 794.899 480.997C794.899 482.934 796.41 484.275 798.412 484.275C800.094 484.275 801.137 483.637 801.946 482.423V484.063H804.054V477.185C804.054 474.609 802.18 473.14 799.647 473.14ZM801.946 479.464C801.946 481.082 800.69 482.53 798.987 482.53C797.901 482.53 796.985 481.976 796.985 480.975C796.985 478.804 801.371 478.974 801.946 478.953V479.464Z"
      fill="#99A8A7" />
    <path
      d="M808.339 476.227C808.339 475.312 809.34 474.865 810.234 474.865C811.256 474.865 812.086 475.439 812.299 476.398L814.322 476.057C813.939 474.183 812.108 473.119 810.234 473.119C808.211 473.119 806.316 474.396 806.316 476.419C806.316 478.442 808.254 479.144 810.489 479.634C811.511 479.868 812.576 480.145 812.576 481.124C812.576 482.168 811.362 482.53 810.447 482.53C809.254 482.53 808.403 481.933 808.169 480.784L806.125 481.124C806.423 483.253 808.382 484.275 810.489 484.275C812.64 484.275 814.641 483.19 814.641 481.039C814.641 478.825 812.512 478.165 810.596 477.76C809.489 477.526 808.339 477.207 808.339 476.227Z"
      fill="#99A8A7" />
    <path
      d="M823.984 473.055C823.984 471.713 825.241 470.862 826.752 470.862C828.2 470.862 829.307 471.628 829.733 473.097L831.82 472.714C831.202 470.223 829.052 468.945 826.731 468.945C824.219 468.945 821.813 470.436 821.813 473.183C821.813 476.291 824.943 476.887 827.37 477.569C828.86 477.994 830.095 478.633 830.095 480.038C830.095 481.571 828.605 482.338 827.05 482.338C825.326 482.338 823.942 481.422 823.665 479.868L821.557 480.23C822.153 482.892 824.24 484.275 826.965 484.275C829.818 484.275 832.267 482.742 832.267 479.889C832.267 476.696 829.201 476.036 826.795 475.397C825.241 474.992 823.984 474.396 823.984 473.055Z"
      fill="#99A8A7" />
    <path
      d="M846.954 473.374L844.783 481.486L842.334 473.374H840.46L838.012 481.486L835.84 473.374H833.69L836.926 484.063H839.034L841.397 476.249L843.761 484.063H845.868L849.105 473.374H846.954Z"
      fill="#99A8A7" />
    <path
      d="M854.934 473.14C852.699 473.14 850.782 474.417 850.399 476.504L852.422 476.845C852.592 475.695 853.635 474.928 854.828 474.928C856.084 474.928 857.234 475.61 857.234 477.058V477.398C854.934 477.398 850.186 477.526 850.186 480.997C850.186 482.934 851.698 484.275 853.699 484.275C855.381 484.275 856.425 483.637 857.234 482.423V484.063H859.342V477.185C859.342 474.609 857.468 473.14 854.934 473.14ZM857.234 479.464C857.234 481.082 855.978 482.53 854.274 482.53C853.188 482.53 852.273 481.976 852.273 480.975C852.273 478.804 856.659 478.974 857.234 478.953V479.464Z"
      fill="#99A8A7" />
    <path
      d="M862.094 488.747H864.201V482.423C864.989 483.573 866.373 484.275 867.949 484.275C870.908 484.275 872.931 481.87 872.931 478.74C872.931 475.631 870.93 473.161 867.97 473.161C866.373 473.161 864.968 473.864 864.201 475.035V473.374H862.094V488.747ZM864.18 478.718C864.18 476.653 865.394 475.014 867.523 475.014C869.524 475.014 870.823 476.483 870.823 478.718C870.823 480.954 869.524 482.423 867.523 482.423C865.394 482.423 864.18 480.805 864.18 478.718Z"
      fill="#99A8A7" />
    <path
      d="M886.137 469.158H880.665V484.063H882.858V478.442H885.924L889.033 484.063H891.482L888.054 478.165C889.991 477.569 891.226 475.993 891.226 473.8C891.226 470.968 889.139 469.158 886.137 469.158ZM885.988 476.504H882.858V471.117H885.988C887.819 471.117 889.012 472.182 889.012 473.8C889.012 475.439 887.819 476.504 885.988 476.504Z"
      fill="#99A8A7" />
    <path
      d="M903.35 478.889C903.35 475.652 901.412 473.14 898.176 473.14C894.961 473.14 892.874 475.567 892.874 478.74C892.874 481.933 895.024 484.275 898.24 484.275C900.454 484.275 902.178 483.211 903.115 481.103L901.114 480.741C900.539 481.912 899.538 482.466 898.24 482.466C896.387 482.466 895.024 481.231 894.918 479.357H903.328C903.35 479.208 903.35 479.038 903.35 478.889ZM895.003 477.718C895.237 476.014 896.451 474.886 898.176 474.886C899.794 474.886 901.093 476.014 901.242 477.718H895.003Z"
      fill="#99A8A7" />
    <path
      d="M917.649 473.374L915.478 481.486L913.029 473.374H911.155L908.707 481.486L906.535 473.374H904.385L907.621 484.063H909.729L912.092 476.249L914.456 484.063H916.564L919.8 473.374H917.649Z"
      fill="#99A8A7" />
    <path
      d="M925.629 473.14C923.394 473.14 921.477 474.417 921.094 476.504L923.117 476.845C923.287 475.695 924.33 474.928 925.523 474.928C926.779 474.928 927.929 475.61 927.929 477.058V477.398C925.629 477.398 920.881 477.526 920.881 480.997C920.881 482.934 922.393 484.275 924.394 484.275C926.076 484.275 927.12 483.637 927.929 482.423V484.063H930.037V477.185C930.037 474.609 928.163 473.14 925.629 473.14ZM927.929 479.464C927.929 481.082 926.673 482.53 924.969 482.53C923.883 482.53 922.968 481.976 922.968 480.975C922.968 478.804 927.354 478.974 927.929 478.953V479.464Z"
      fill="#99A8A7" />
    <path
      d="M938.708 473.204C938.452 473.161 938.218 473.161 938.005 473.183C936.536 473.204 935.556 473.843 934.811 475.163V473.374H932.703V484.063H934.811V478.718C934.811 476.142 936.366 474.822 938.708 475.077V473.204Z"
      fill="#99A8A7" />
    <path
      d="M950.246 468.733H948.138V475.014C947.35 473.864 945.966 473.161 944.391 473.161C941.431 473.161 939.408 475.567 939.408 478.697C939.408 481.806 941.41 484.275 944.369 484.275C945.924 484.275 947.372 483.594 948.138 482.402V484.063H950.246V468.733ZM948.159 478.718C948.159 480.784 946.946 482.423 944.817 482.423C942.815 482.423 941.516 480.954 941.516 478.718C941.516 476.483 942.815 475.014 944.817 475.014C946.946 475.014 948.159 476.653 948.159 478.718Z"
      fill="#99A8A7" />
    <path
      d="M954.636 476.227C954.636 475.312 955.637 474.865 956.531 474.865C957.553 474.865 958.383 475.439 958.596 476.398L960.619 476.057C960.236 474.183 958.405 473.119 956.531 473.119C954.508 473.119 952.613 474.396 952.613 476.419C952.613 478.442 954.551 479.144 956.786 479.634C957.808 479.868 958.873 480.145 958.873 481.124C958.873 482.168 957.659 482.53 956.744 482.53C955.552 482.53 954.7 481.933 954.466 480.784L952.422 481.124C952.72 483.253 954.679 484.275 956.786 484.275C958.937 484.275 960.938 483.19 960.938 481.039C960.938 478.825 958.809 478.165 956.893 477.76C955.786 477.526 954.636 477.207 954.636 476.227Z"
      fill="#99A8A7" />
    <path
      d="M964.851 484.148C965.639 484.148 966.32 483.488 966.32 482.657C966.32 481.848 965.639 481.188 964.851 481.188C964.042 481.188 963.361 481.848 963.361 482.657C963.361 483.488 964.042 484.148 964.851 484.148Z"
      fill="#99A8A7" />
    <path
      d="M651.761 396.961C651.761 395.428 653.197 394.455 654.925 394.455C656.579 394.455 657.845 395.331 658.331 397.01L660.716 396.572C660.01 393.725 657.553 392.265 654.9 392.265C652.029 392.265 649.279 393.968 649.279 397.107C649.279 400.66 652.856 401.341 655.63 402.12C657.334 402.607 658.745 403.337 658.745 404.943C658.745 406.695 657.042 407.571 655.265 407.571C653.294 407.571 651.713 406.524 651.396 404.748L648.987 405.162C649.669 408.203 652.053 409.785 655.168 409.785C658.429 409.785 661.227 408.033 661.227 404.772C661.227 401.122 657.723 400.368 654.973 399.638C653.197 399.176 651.761 398.494 651.761 396.961Z"
      fill="#F1F6F6" />
    <path
      d="M678.013 397.326L675.531 406.597L672.732 397.326H670.591L667.793 406.597L665.311 397.326H662.853L666.552 409.542H668.961L671.662 400.611L674.363 409.542H676.772L680.47 397.326H678.013Z"
      fill="#F1F6F6" />
    <path
      d="M687.132 397.059C684.577 397.059 682.387 398.519 681.949 400.903L684.261 401.293C684.456 399.979 685.648 399.103 687.011 399.103C688.446 399.103 689.76 399.881 689.76 401.536V401.925C687.132 401.925 681.706 402.071 681.706 406.038C681.706 408.252 683.434 409.785 685.721 409.785C687.643 409.785 688.836 409.055 689.76 407.668V409.542H692.169V401.682C692.169 398.738 690.028 397.059 687.132 397.059ZM689.76 404.286C689.76 406.135 688.325 407.79 686.378 407.79C685.137 407.79 684.091 407.157 684.091 406.013C684.091 403.531 689.103 403.726 689.76 403.702V404.286Z"
      fill="#F1F6F6" />
    <path
      d="M695.315 414.895H697.724V407.668C698.624 408.982 700.206 409.785 702.006 409.785C705.389 409.785 707.7 407.035 707.7 403.458C707.7 399.906 705.413 397.083 702.031 397.083C700.206 397.083 698.6 397.886 697.724 399.224V397.326H695.315V414.895ZM697.699 403.434C697.699 401.074 699.086 399.2 701.52 399.2C703.807 399.2 705.291 400.879 705.291 403.434C705.291 405.989 703.807 407.668 701.52 407.668C699.086 407.668 697.699 405.819 697.699 403.434Z"
      fill="#F1F6F6" />
    <path
      d="M723.109 397.132C722.817 397.083 722.55 397.083 722.306 397.107C720.627 397.132 719.508 397.862 718.656 399.37V397.326H716.247V409.542H718.656V403.434C718.656 400.49 720.433 398.981 723.109 399.273V397.132Z"
      fill="#F1F6F6" />
    <path
      d="M735.858 403.629C735.858 399.93 733.644 397.059 729.945 397.059C726.271 397.059 723.886 399.833 723.886 403.458C723.886 407.108 726.344 409.785 730.018 409.785C732.549 409.785 734.52 408.568 735.59 406.159L733.303 405.746C732.646 407.084 731.502 407.717 730.018 407.717C727.901 407.717 726.344 406.305 726.222 404.164H735.834C735.858 403.994 735.858 403.799 735.858 403.629ZM726.319 402.29C726.587 400.344 727.974 399.054 729.945 399.054C731.794 399.054 733.279 400.344 733.449 402.29H726.319Z"
      fill="#F1F6F6" />
    <path
      d="M752.201 397.326L749.719 406.597L746.92 397.326H744.779L741.981 406.597L739.499 397.326H737.041L740.74 409.542H743.149L745.85 400.611L748.551 409.542H750.96L754.658 397.326H752.201Z"
      fill="#F1F6F6" />
    <path
      d="M761.321 397.059C758.766 397.059 756.576 398.519 756.138 400.903L758.449 401.293C758.644 399.979 759.836 399.103 761.199 399.103C762.635 399.103 763.949 399.881 763.949 401.536V401.925C761.321 401.925 755.894 402.071 755.894 406.038C755.894 408.252 757.622 409.785 759.909 409.785C761.832 409.785 763.024 409.055 763.949 407.668V409.542H766.358V401.682C766.358 398.738 764.216 397.059 761.321 397.059ZM763.949 404.286C763.949 406.135 762.513 407.79 760.566 407.79C759.325 407.79 758.279 407.157 758.279 406.013C758.279 403.531 763.292 403.726 763.949 403.702V404.286Z"
      fill="#F1F6F6" />
    <path
      d="M776.267 397.132C775.975 397.083 775.708 397.083 775.464 397.107C773.785 397.132 772.666 397.862 771.814 399.37V397.326H769.405V409.542H771.814V403.434C771.814 400.49 773.591 398.981 776.267 399.273V397.132Z"
      fill="#F1F6F6" />
    <path
      d="M789.454 392.022H787.045V399.2C786.145 397.886 784.563 397.083 782.762 397.083C779.38 397.083 777.068 399.833 777.068 403.41C777.068 406.962 779.356 409.785 782.738 409.785C784.514 409.785 786.169 409.006 787.045 407.644V409.542H789.454V392.022ZM787.069 403.434C787.069 405.794 785.682 407.668 783.249 407.668C780.962 407.668 779.477 405.989 779.477 403.434C779.477 400.879 780.962 399.2 783.249 399.2C785.682 399.2 787.069 401.074 787.069 403.434Z"
      fill="#F1F6F6" />
    <path
      d="M794.471 400.587C794.471 399.541 795.615 399.03 796.637 399.03C797.805 399.03 798.754 399.687 798.997 400.782L801.309 400.392C800.871 398.251 798.778 397.034 796.637 397.034C794.325 397.034 792.16 398.494 792.16 400.806C792.16 403.118 794.374 403.921 796.929 404.48C798.097 404.748 799.314 405.064 799.314 406.184C799.314 407.376 797.926 407.79 796.88 407.79C795.518 407.79 794.544 407.108 794.277 405.794L791.941 406.184C792.281 408.617 794.52 409.785 796.929 409.785C799.387 409.785 801.674 408.544 801.674 406.086C801.674 403.556 799.241 402.801 797.051 402.339C795.785 402.071 794.471 401.706 794.471 400.587Z"
      fill="#F1F6F6" />
    <path
      d="M816.026 397.326H813.398V395.866C813.398 394.601 813.739 394.114 814.736 393.944C815.32 393.847 816.002 393.993 816.099 394.041V391.876C815.953 391.851 815.393 391.778 814.712 391.778C811.987 391.778 810.989 393.409 810.989 395.891V397.326H809.042V399.322H810.989V409.542H813.398V399.322H816.026V397.326Z"
      fill="#F1F6F6" />
    <path
      d="M823.672 397.083C819.925 397.083 817.37 399.735 817.37 403.434C817.37 407.133 819.925 409.785 823.672 409.785C827.371 409.785 829.926 407.133 829.926 403.434C829.926 399.735 827.346 397.083 823.672 397.083ZM823.648 407.668C821.214 407.668 819.827 405.843 819.827 403.434C819.827 401.025 821.214 399.2 823.648 399.2C826.081 399.2 827.468 401.025 827.468 403.434C827.468 405.843 826.081 407.668 823.648 407.668Z"
      fill="#F1F6F6" />
    <path
      d="M839.287 397.132C838.995 397.083 838.727 397.083 838.484 397.107C836.805 397.132 835.686 397.862 834.834 399.37V397.326H832.425V409.542H834.834V403.434C834.834 400.49 836.61 398.981 839.287 399.273V397.132Z"
      fill="#F1F6F6" />
    <path
      d="M852.873 407.668C850.415 407.668 849.15 405.77 849.15 403.434C849.15 401.098 850.415 399.2 852.897 399.2C854.479 399.2 855.744 400.198 856.134 401.731L858.47 401.317C857.934 398.713 855.428 397.083 852.922 397.083C849.223 397.083 846.741 399.808 846.741 403.434C846.741 407.084 849.223 409.785 852.922 409.785C855.452 409.785 857.934 408.155 858.47 405.551L856.134 405.137C855.744 406.67 854.479 407.668 852.873 407.668Z"
      fill="#F1F6F6" />
    <path
      d="M866.659 397.083C862.912 397.083 860.357 399.735 860.357 403.434C860.357 407.133 862.912 409.785 866.659 409.785C870.358 409.785 872.913 407.133 872.913 403.434C872.913 399.735 870.334 397.083 866.659 397.083ZM866.635 407.668C864.202 407.668 862.815 405.843 862.815 403.434C862.815 401.025 864.202 399.2 866.635 399.2C869.068 399.2 870.455 401.025 870.455 403.434C870.455 405.843 869.068 407.668 866.635 407.668Z"
      fill="#F1F6F6" />
    <path
      d="M889.063 397.083C887.36 397.083 885.827 397.935 885.024 399.589C884.464 398.081 883.102 397.083 881.398 397.083C879.987 397.083 878.6 397.813 877.846 399.249V397.326H875.437V409.542H877.846V403.02C877.846 401.122 878.77 399.249 880.741 399.249C882.347 399.249 883.175 400.465 883.175 402.144V409.542H885.584V403.02C885.584 401.147 886.435 399.249 888.431 399.249C890.012 399.249 890.84 400.465 890.84 402.144V409.542H893.249V401.925C893.249 399.224 891.764 397.083 889.063 397.083Z"
      fill="#F1F6F6" />
    <path
      d="M909.951 397.083C908.248 397.083 906.715 397.935 905.912 399.589C905.352 398.081 903.989 397.083 902.286 397.083C900.875 397.083 899.488 397.813 898.733 399.249V397.326H896.324V409.542H898.733V403.02C898.733 401.122 899.658 399.249 901.629 399.249C903.235 399.249 904.062 400.465 904.062 402.144V409.542H906.471V403.02C906.471 401.147 907.323 399.249 909.318 399.249C910.9 399.249 911.727 400.465 911.727 402.144V409.542H914.136V401.925C914.136 399.224 912.652 397.083 909.951 397.083Z"
      fill="#F1F6F6" />
    <path
      d="M921.592 409.785C923.198 409.785 924.658 408.958 925.51 407.595V409.542H927.919V397.326H925.51V403.629C925.51 405.648 924.463 407.668 922.2 407.668C920.448 407.668 919.548 406.33 919.548 404.675V397.326H917.163V405.235C917.163 407.765 919.061 409.785 921.592 409.785Z"
      fill="#F1F6F6" />
    <path
      d="M937.369 397.083C935.763 397.083 934.303 397.91 933.451 399.273V397.326H931.042V409.542H933.451V403.239C933.451 401.22 934.497 399.2 936.76 399.2C938.561 399.2 939.437 400.538 939.437 402.193V409.542H941.846V401.633C941.846 399.127 939.899 397.083 937.369 397.083Z"
      fill="#F1F6F6" />
    <path
      d="M946.283 394.723C947.183 394.723 947.865 394.041 947.865 393.165C947.865 392.289 947.183 391.608 946.283 391.608C945.407 391.608 944.75 392.289 944.75 393.165C944.75 394.041 945.407 394.723 946.283 394.723ZM947.5 409.542V397.326H945.091V409.542H947.5Z"
      fill="#F1F6F6" />
    <path
      d="M956.675 399.322V397.326H954.023V393.749L951.662 394.163V397.326H949.691V399.322H951.638V406.111C951.638 408.544 952.83 409.785 955.264 409.785C955.726 409.785 956.286 409.736 956.748 409.639V407.449C956.407 407.571 956.042 407.619 955.677 407.619C954.242 407.619 954.047 406.987 954.047 405.624V399.322H956.675Z"
      fill="#F1F6F6" />
    <path
      d="M967.039 397.326L963.924 406.305L960.615 397.326H958.084L962.732 408.958L960.347 414.895H962.926L969.569 397.326H967.039Z"
      fill="#F1F6F6" />
    <path
      d="M628.992 402.634L616.738 401.925C615.864 401.868 615.04 401.506 614.412 400.902C613.784 400.298 613.393 399.492 613.31 398.629L612.235 387.398C612.201 387.21 612.102 387.041 611.955 386.918C611.807 386.796 611.621 386.729 611.429 386.729C611.237 386.729 611.051 386.796 610.904 386.918C610.757 387.041 610.657 387.21 610.623 387.398L609.523 398.629C609.45 399.496 609.063 400.307 608.433 400.913C607.802 401.519 606.972 401.879 606.095 401.925L593.841 402.685C593.652 402.719 593.481 402.817 593.357 402.963C593.234 403.109 593.167 403.293 593.167 403.484C593.167 403.674 593.234 403.858 593.357 404.004C593.481 404.15 593.652 404.249 593.841 404.282L606.095 404.992C606.967 405.053 607.789 405.418 608.416 406.021C609.043 406.624 609.435 407.427 609.523 408.288L610.598 419.519C610.632 419.707 610.731 419.876 610.878 419.998C611.026 420.121 611.212 420.188 611.404 420.188C611.596 420.188 611.782 420.121 611.929 419.998C612.076 419.876 612.176 419.707 612.21 419.519L613.284 408.288C613.367 407.425 613.758 406.619 614.386 406.015C615.014 405.411 615.839 405.048 616.712 404.992L628.992 404.232C629.181 404.198 629.352 404.1 629.476 403.954C629.599 403.808 629.667 403.623 629.667 403.433C629.667 403.243 629.599 403.058 629.476 402.912C629.352 402.766 629.181 402.668 628.992 402.634Z"
      fill="#14B9EA" />
    <path
      d="M632.483 387.227L628.399 387.002C628.107 386.984 627.833 386.868 627.623 386.676C627.414 386.484 627.284 386.228 627.256 385.953L626.898 382.379C626.886 382.32 626.853 382.266 626.804 382.227C626.755 382.188 626.693 382.167 626.629 382.167C626.565 382.167 626.503 382.188 626.454 382.227C626.405 382.266 626.372 382.32 626.36 382.379L625.994 385.953C625.969 386.229 625.84 386.487 625.63 386.68C625.42 386.873 625.143 386.987 624.851 387.002L620.766 387.244C620.703 387.254 620.646 387.286 620.605 387.332C620.564 387.378 620.542 387.437 620.542 387.498C620.542 387.558 620.564 387.617 620.605 387.663C620.646 387.71 620.703 387.741 620.766 387.752L624.851 387.978C625.142 387.997 625.416 388.113 625.625 388.305C625.834 388.497 625.964 388.752 625.994 389.026L626.352 392.6C626.363 392.659 626.396 392.713 626.445 392.752C626.495 392.791 626.557 392.813 626.621 392.813C626.685 392.813 626.747 392.791 626.796 392.752C626.845 392.713 626.878 392.659 626.889 392.6L627.247 389.026C627.275 388.752 627.405 388.495 627.615 388.303C627.824 388.111 628.099 387.996 628.39 387.978L632.483 387.736C632.546 387.725 632.603 387.694 632.645 387.647C632.686 387.601 632.708 387.542 632.708 387.482C632.708 387.421 632.686 387.362 632.645 387.316C632.603 387.269 632.546 387.238 632.483 387.227Z"
      fill="#22C480" />
  </g>
  <defs>
    <filter id="filter0_f_1563_41613" x="511" y="344" width="676" height="313" filterUnits="userSpaceOnUse"
      color-interpolation-filters="sRGB">
      <feFlood flood-opacity="0" result="BackgroundImageFix" />
      <feBlend mode="normal" in="SourceGraphic" in2="BackgroundImageFix" result="shape" />
      <feGaussianBlur stdDeviation="40" result="effect1_foregroundBlur_1563_41613" />
    </filter>
    <pattern id="pattern0" patternContentUnits="objectBoundingBox" width="1" height="1">
      <use xlink:href="#image0_1563_41613" transform="translate(0 -0.00555172) scale(0.001 0.00062069)" />
    </pattern>
    <filter id="filter1_ddd_1563_41613" x="640.666" y="43" width="416" height="98" filterUnits="userSpaceOnUse"
      color-interpolation-filters="sRGB">
      <feFlood flood-opacity="0" result="BackgroundImageFix" />
      <feColorMatrix in="SourceAlpha" type="matrix" values="0 0 0 0 0 0 0 0 0 0 0 0 0 0 0 0 0 0 127 0"
        result="hardAlpha" />
      <feOffset dy="2" />
      <feGaussianBlur stdDeviation="2" />
      <feColorMatrix type="matrix" values="0 0 0 0 0 0 0 0 0 0.145098 0 0 0 0 0.133333 0 0 0 0.24 0" />
      <feBlend mode="normal" in2="BackgroundImageFix" result="effect1_dropShadow_1563_41613" />
      <feColorMatrix in="SourceAlpha" type="matrix" values="0 0 0 0 0 0 0 0 0 0 0 0 0 0 0 0 0 0 127 0"
        result="hardAlpha" />
      <feOffset dy="6" />
      <feGaussianBlur stdDeviation="4" />
      <feColorMatrix type="matrix" values="0 0 0 0 0 0 0 0 0 0.145098 0 0 0 0 0.133333 0 0 0 0.14 0" />
      <feBlend mode="normal" in2="effect1_dropShadow_1563_41613" result="effect2_dropShadow_1563_41613" />
      <feColorMatrix in="SourceAlpha" type="matrix" values="0 0 0 0 0 0 0 0 0 0 0 0 0 0 0 0 0 0 127 0"
        result="hardAlpha" />
      <feOffset dy="16" />
      <feGaussianBlur stdDeviation="8" />
      <feColorMatrix type="matrix" values="0 0 0 0 0 0 0 0 0 0.145098 0 0 0 0 0.133333 0 0 0 0.04 0" />
      <feBlend mode="normal" in2="effect2_dropShadow_1563_41613" result="effect3_dropShadow_1563_41613" />
      <feBlend mode="normal" in="SourceGraphic" in2="effect3_dropShadow_1563_41613" result="shape" />
    </filter>
    <pattern id="pattern1" patternContentUnits="objectBoundingBox" width="1" height="1">
      <use xlink:href="#image1_1563_41613" transform="translate(-0.107843) scale(0.00261438 0.00142857)" />
    </pattern>
    <pattern id="pattern2" patternContentUnits="objectBoundingBox" width="1" height="1">
      <use xlink:href="#image2_1563_41613" transform="translate(-0.00961542) scale(0.000254808)" />
    </pattern>
    <filter id="filter2_ddd_1563_41613" x="565" y="368" width="567.333" height="180" filterUnits="userSpaceOnUse"
      color-interpolation-filters="sRGB">
      <feFlood flood-opacity="0" result="BackgroundImageFix" />
      <feColorMatrix in="SourceAlpha" type="matrix" values="0 0 0 0 0 0 0 0 0 0 0 0 0 0 0 0 0 0 127 0"
        result="hardAlpha" />
      <feOffset dy="2" />
      <feGaussianBlur stdDeviation="2" />
      <feColorMatrix type="matrix" values="0 0 0 0 0 0 0 0 0 0.0784314 0 0 0 0 0.0745098 0 0 0 0.34 0" />
      <feBlend mode="normal" in2="BackgroundImageFix" result="effect1_dropShadow_1563_41613" />
      <feColorMatrix in="SourceAlpha" type="matrix" values="0 0 0 0 0 0 0 0 0 0 0 0 0 0 0 0 0 0 127 0"
        result="hardAlpha" />
      <feOffset dy="6" />
      <feGaussianBlur stdDeviation="4" />
      <feColorMatrix type="matrix" values="0 0 0 0 0 0 0 0 0 0.0784314 0 0 0 0 0.0745098 0 0 0 0.24 0" />
      <feBlend mode="normal" in2="effect1_dropShadow_1563_41613" result="effect2_dropShadow_1563_41613" />
      <feColorMatrix in="SourceAlpha" type="matrix" values="0 0 0 0 0 0 0 0 0 0 0 0 0 0 0 0 0 0 127 0"
        result="hardAlpha" />
      <feOffset dy="16" />
      <feGaussianBlur stdDeviation="8" />
      <feColorMatrix type="matrix" values="0 0 0 0 0 0 0 0 0 0.0784314 0 0 0 0 0.0745098 0 0 0 0.14 0" />
      <feBlend mode="normal" in2="effect2_dropShadow_1563_41613" result="effect3_dropShadow_1563_41613" />
      <feBlend mode="normal" in="SourceGraphic" in2="effect3_dropShadow_1563_41613" result="shape" />
    </filter>
    <clipPath id="clip0_1563_41613">
      <rect x="656.666" y="45" width="384" height="600" rx="16" fill="white" />
    </clipPath>
  </defs>
</svg>