<svg width="29" height="29" viewBox="0 0 29 29" fill="none" xmlns="http://www.w3.org/2000/svg">
<g id="icons8-cookie 1">
<path id="Vector" d="M25.073 13.8962C24.2882 13.8962 23.5861 13.5584 23.0901 13.0268C22.2745 13.5735 21.2957 13.8962 20.2397 13.8962C17.4037 13.8962 15.1042 11.5967 15.1042 8.76074C15.1042 7.70466 15.4239 6.72349 15.9706 5.90726C15.4402 5.41124 15.1042 4.71101 15.1042 3.92741C15.1042 3.3897 15.2656 2.89126 15.535 2.46895C15.1931 2.43995 14.8493 2.41699 14.5001 2.41699C7.82646 2.41699 2.41675 7.8267 2.41675 14.5003C2.41675 21.1739 7.82646 26.5837 14.5001 26.5837C21.1737 26.5837 26.5834 21.1739 26.5834 14.5003C26.5834 14.1505 26.5635 13.8061 26.5339 13.4636C26.1116 13.7342 25.6119 13.8962 25.073 13.8962Z" fill="#E4EEEE" fill-opacity="0.9"/>
<path id="Vector_2" d="M20.8438 6.64616C20.7247 6.64616 20.6069 6.6696 20.4969 6.71514C20.387 6.76069 20.2871 6.82744 20.2029 6.91159C20.1188 6.99575 20.052 7.09565 20.0065 7.2056C19.9609 7.31555 19.9375 7.4334 19.9375 7.55241C19.9375 7.67142 19.9609 7.78926 20.0065 7.89922C20.052 8.00917 20.1188 8.10907 20.2029 8.19322C20.2871 8.27738 20.387 8.34413 20.4969 8.38967C20.6069 8.43522 20.7247 8.45866 20.8438 8.45866C20.9628 8.45866 21.0806 8.43522 21.1906 8.38967C21.3005 8.34413 21.4004 8.27738 21.4846 8.19322C21.5687 8.10907 21.6355 8.00917 21.681 7.89922C21.7266 7.78926 21.75 7.67142 21.75 7.55241C21.75 7.4334 21.7266 7.31555 21.681 7.2056C21.6355 7.09565 21.5687 6.99575 21.4846 6.91159C21.4004 6.82744 21.3005 6.76069 21.1906 6.71514C21.0806 6.6696 20.9628 6.64616 20.8438 6.64616ZM25.6771 8.45866C25.4367 8.45866 25.2062 8.55414 25.0363 8.72409C24.8663 8.89405 24.7708 9.12456 24.7708 9.36491C24.7708 9.60526 24.8663 9.83577 25.0363 10.0057C25.2062 10.1757 25.4367 10.2712 25.6771 10.2712C25.9174 10.2712 26.1479 10.1757 26.3179 10.0057C26.4879 9.83577 26.5833 9.60526 26.5833 9.36491C26.5833 9.12456 26.4879 8.89405 26.3179 8.72409C26.1479 8.55414 25.9174 8.45866 25.6771 8.45866ZM21.75 2.41699C21.4295 2.41699 21.1222 2.5443 20.8956 2.7709C20.669 2.99751 20.5417 3.30486 20.5417 3.62533C20.5417 3.9458 20.669 4.25314 20.8956 4.47975C21.1222 4.70635 21.4295 4.83366 21.75 4.83366C22.0705 4.83366 22.3778 4.70635 22.6044 4.47975C22.831 4.25314 22.9583 3.9458 22.9583 3.62533C22.9583 3.30486 22.831 2.99751 22.6044 2.7709C22.3778 2.5443 22.0705 2.41699 21.75 2.41699Z" fill="#E4EEEE" fill-opacity="0.9"/>
<path id="Vector_3" d="M7.85425 11.4792C7.61623 11.4792 7.38054 11.526 7.16063 11.6171C6.94073 11.7082 6.74092 11.8417 6.57262 12.01C6.40431 12.1783 6.2708 12.3781 6.17972 12.5981C6.08863 12.818 6.04175 13.0536 6.04175 13.2917C6.04175 13.5297 6.08863 13.7654 6.17972 13.9853C6.2708 14.2052 6.40431 14.405 6.57262 14.5733C6.74092 14.7416 6.94073 14.8751 7.16063 14.9662C7.38054 15.0573 7.61623 15.1042 7.85425 15.1042C8.09227 15.1042 8.32796 15.0573 8.54786 14.9662C8.76776 14.8751 8.96757 14.7416 9.13588 14.5733C9.30419 14.405 9.43769 14.2052 9.52878 13.9853C9.61987 13.7654 9.66675 13.5297 9.66675 13.2917C9.66675 13.0536 9.61987 12.818 9.52878 12.5981C9.43769 12.3781 9.30419 12.1783 9.13588 12.01C8.96757 11.8417 8.76776 11.7082 8.54786 11.6171C8.32796 11.526 8.09227 11.4792 7.85425 11.4792ZM16.9167 19.3333C16.436 19.3333 15.975 19.5243 15.6351 19.8642C15.2952 20.2041 15.1042 20.6651 15.1042 21.1458C15.1042 21.6265 15.2952 22.0876 15.6351 22.4275C15.975 22.7674 16.436 22.9583 16.9167 22.9583C17.3975 22.9583 17.8585 22.7674 18.1984 22.4275C18.5383 22.0876 18.7292 21.6265 18.7292 21.1458C18.7292 20.6651 18.5383 20.2041 18.1984 19.8642C17.8585 19.5243 17.3975 19.3333 16.9167 19.3333ZM9.96883 18.7292C9.56824 18.7292 9.18406 18.8883 8.90081 19.1716C8.61755 19.4548 8.45841 19.839 8.45841 20.2396C8.45841 20.6402 8.61755 21.0244 8.90081 21.3076C9.18406 21.5909 9.56824 21.75 9.96883 21.75C10.3694 21.75 10.7536 21.5909 11.0369 21.3076C11.3201 21.0244 11.4792 20.6402 11.4792 20.2396C11.4792 19.839 11.3201 19.4548 11.0369 19.1716C10.7536 18.8883 10.3694 18.7292 9.96883 18.7292ZM13.5938 13.8958C13.3535 13.8958 13.123 13.9913 12.953 14.1613C12.7831 14.3312 12.6876 14.5617 12.6876 14.8021C12.6876 15.0424 12.7831 15.2729 12.953 15.4429C13.123 15.6129 13.3535 15.7083 13.5938 15.7083C13.8342 15.7083 14.0647 15.6129 14.2346 15.4429C14.4046 15.2729 14.5001 15.0424 14.5001 14.8021C14.5001 14.5617 14.4046 14.3312 14.2346 14.1613C14.0647 13.9913 13.8342 13.8958 13.5938 13.8958ZM20.8438 15.7083C20.6035 15.7083 20.373 15.8038 20.203 15.9738C20.0331 16.1437 19.9376 16.3742 19.9376 16.6146C19.9376 16.8549 20.0331 17.0854 20.203 17.2554C20.373 17.4254 20.6035 17.5208 20.8438 17.5208C21.0842 17.5208 21.3147 17.4254 21.4846 17.2554C21.6546 17.0854 21.7501 16.8549 21.7501 16.6146C21.7501 16.3742 21.6546 16.1437 21.4846 15.9738C21.3147 15.8038 21.0842 15.7083 20.8438 15.7083ZM11.1772 7.25C10.9368 7.25 10.7063 7.34548 10.5363 7.51543C10.3664 7.68539 10.2709 7.9159 10.2709 8.15625C10.2709 8.3966 10.3664 8.62711 10.5363 8.79707C10.7063 8.96702 10.9368 9.0625 11.1772 9.0625C11.4175 9.0625 11.648 8.96702 11.818 8.79707C11.9879 8.62711 12.0834 8.3966 12.0834 8.15625C12.0834 7.9159 11.9879 7.68539 11.818 7.51543C11.648 7.34548 11.4175 7.25 11.1772 7.25Z" fill="#0D2321"/>
</g>
</svg>
