<svg width="17" height="17" viewBox="0 0 17 17" fill="none" xmlns="http://www.w3.org/2000/svg">
<g id="Union">
<mask id="path-1-outside-1_3795_172141" maskUnits="userSpaceOnUse" x="0" y="0" width="17" height="17" fill="black">
<rect fill="white" width="17" height="17"/>
<path fill-rule="evenodd" clip-rule="evenodd" d="M12.4426 7.85343L9.70755 7.69193L9.70697 7.69189C9.62516 7.68634 9.54684 7.6516 9.48675 7.59271C9.42678 7.53394 9.38861 7.45487 9.38009 7.36919L9.35625 7.08855L9.14088 4.55385L9.13723 4.5332C9.111 4.38507 9.03387 4.25 8.91815 4.15215C8.80235 4.05424 8.65537 4 8.50283 4C8.35029 4 8.20332 4.05424 8.08752 4.15215C7.97179 4.25 7.89467 4.38507 7.86844 4.53319L7.86487 4.55338L7.61976 7.37089L7.61959 7.37292C7.61256 7.45814 7.57525 7.53703 7.51577 7.59533C7.45641 7.6535 7.37905 7.68726 7.29824 7.69159L7.29729 7.69162L4.55644 7.86504L4.53007 7.86981C4.3802 7.89689 4.24535 7.97617 4.14875 8.09276C4.0523 8.20918 4 8.3554 4 8.50573C4 8.6561 4.05232 8.8023 4.14875 8.91868C4.24535 9.03527 4.3802 9.11455 4.53007 9.14163L4.55741 9.14657L7.29218 9.30806C7.37399 9.31447 7.45185 9.34961 7.51202 9.40858C7.57219 9.46755 7.61077 9.54663 7.62005 9.63244L7.85912 12.4462L7.86278 12.4668C7.88901 12.615 7.96613 12.75 8.08185 12.8479C8.19775 12.9459 8.34476 13 8.49717 13C8.64958 13 8.79658 12.9459 8.91248 12.8479C9.02821 12.75 9.10533 12.615 9.13156 12.4668L9.13522 12.4462L9.37444 9.63087C9.38296 9.54515 9.42113 9.46607 9.48109 9.40731C9.54116 9.34843 9.61985 9.31358 9.70185 9.30807L12.4435 9.13498L12.4699 9.13021C12.6199 9.1031 12.7547 9.02374 12.8512 8.90724C12.9477 8.79085 13 8.64466 13 8.49429C13 8.34392 12.9477 8.19772 12.8512 8.08133C12.7547 7.96484 12.6199 7.88547 12.4699 7.85837L12.4426 7.85343Z"/>
</mask>
<path fill-rule="evenodd" clip-rule="evenodd" d="M12.4426 7.85343L9.70755 7.69193L9.70697 7.69189C9.62516 7.68634 9.54684 7.6516 9.48675 7.59271C9.42678 7.53394 9.38861 7.45487 9.38009 7.36919L9.35625 7.08855L9.14088 4.55385L9.13723 4.5332C9.111 4.38507 9.03387 4.25 8.91815 4.15215C8.80235 4.05424 8.65537 4 8.50283 4C8.35029 4 8.20332 4.05424 8.08752 4.15215C7.97179 4.25 7.89467 4.38507 7.86844 4.53319L7.86487 4.55338L7.61976 7.37089L7.61959 7.37292C7.61256 7.45814 7.57525 7.53703 7.51577 7.59533C7.45641 7.6535 7.37905 7.68726 7.29824 7.69159L7.29729 7.69162L4.55644 7.86504L4.53007 7.86981C4.3802 7.89689 4.24535 7.97617 4.14875 8.09276C4.0523 8.20918 4 8.3554 4 8.50573C4 8.6561 4.05232 8.8023 4.14875 8.91868C4.24535 9.03527 4.3802 9.11455 4.53007 9.14163L4.55741 9.14657L7.29218 9.30806C7.37399 9.31447 7.45185 9.34961 7.51202 9.40858C7.57219 9.46755 7.61077 9.54663 7.62005 9.63244L7.85912 12.4462L7.86278 12.4668C7.88901 12.615 7.96613 12.75 8.08185 12.8479C8.19775 12.9459 8.34476 13 8.49717 13C8.64958 13 8.79658 12.9459 8.91248 12.8479C9.02821 12.75 9.10533 12.615 9.13156 12.4668L9.13522 12.4462L9.37444 9.63087C9.38296 9.54515 9.42113 9.46607 9.48109 9.40731C9.54116 9.34843 9.61985 9.31358 9.70185 9.30807L12.4435 9.13498L12.4699 9.13021C12.6199 9.1031 12.7547 9.02374 12.8512 8.90724C12.9477 8.79085 13 8.64466 13 8.49429C13 8.34392 12.9477 8.19772 12.8512 8.08133C12.7547 7.96484 12.6199 7.88547 12.4699 7.85837L12.4426 7.85343Z" fill="#E4EEEE"/>
<path d="M7.62786 8.09487L7.97917 8.69825L11.4359 6.68561L11.0846 6.08223L7.62786 8.09487ZM9.70755 7.69193L9.443 11.6832L9.45738 11.6841L9.47178 11.685L9.70755 7.69193ZM12.4426 7.85343L13.1538 3.91716L12.9178 3.87452L12.6784 3.86038L12.4426 7.85343ZM9.70697 7.69189L9.43623 11.6827L9.44241 11.6831L9.70697 7.69189ZM9.48675 7.59271L6.68698 10.4495L6.68699 10.4495L9.48675 7.59271ZM9.38009 7.36919L5.39445 7.70783L5.39688 7.73646L5.39973 7.76504L9.38009 7.36919ZM9.35625 7.08855L13.3419 6.7499L13.3419 6.7499L9.35625 7.08855ZM9.14088 4.55385L13.1265 4.2152L13.1112 4.03481L13.0796 3.85654L9.14088 4.55385ZM9.13723 4.5332L13.076 3.83589L13.076 3.83575L9.13723 4.5332ZM8.91815 4.15215L6.3355 7.20664L6.3355 7.20665L8.91815 4.15215ZM8.08752 4.15215L10.6702 7.20665L10.6702 7.20664L8.08752 4.15215ZM7.86844 4.53319L11.8072 5.23071L11.8072 5.23069L7.86844 4.53319ZM7.86487 4.55338L3.92615 3.85586L3.89527 4.03027L3.87992 4.20672L7.86487 4.55338ZM7.61976 7.37089L3.63481 7.02422L3.63406 7.03282L3.63335 7.04141L7.61976 7.37089ZM7.61959 7.37292L3.63319 7.04345L3.63316 7.04382L7.61959 7.37292ZM7.51577 7.59533L10.3155 10.4521L10.3155 10.4521L7.51577 7.59533ZM7.29824 7.69159L7.45848 11.6884L7.48521 11.6873L7.51192 11.6859L7.29824 7.69159ZM7.29729 7.69162L7.13706 3.69483L7.09086 3.69669L7.04471 3.69961L7.29729 7.69162ZM4.55644 7.86504L4.30386 3.87303L4.07292 3.88764L3.84521 3.92878L4.55644 7.86504ZM4.53007 7.86981L3.81884 3.93355L3.81877 3.93356L4.53007 7.86981ZM4.14875 8.09276L1.06864 5.54073L1.06864 5.54073L4.14875 8.09276ZM4.14875 8.91868L7.22887 6.36665L7.22887 6.36665L4.14875 8.91868ZM4.53007 9.14163L3.81879 13.0779L3.81884 13.0779L4.53007 9.14163ZM4.55741 9.14657L3.84618 13.0828L4.08219 13.1255L4.32162 13.1396L4.55741 9.14657ZM7.29218 9.30806L7.6044 5.32027L7.56621 5.31728L7.52797 5.31502L7.29218 9.30806ZM7.51202 9.40858L4.71224 12.2654L4.71226 12.2654L7.51202 9.40858ZM7.62005 9.63244L11.6057 9.29379L11.6018 9.24805L11.5969 9.2024L7.62005 9.63244ZM7.85912 12.4462L3.87348 12.7848L3.88881 12.9652L3.92037 13.1435L7.85912 12.4462ZM7.86278 12.4668L3.92403 13.1642L3.92405 13.1643L7.86278 12.4668ZM8.08185 12.8479L5.4992 15.9024L5.4992 15.9024L8.08185 12.8479ZM8.91248 12.8479L11.4951 15.9024L11.4951 15.9024L8.91248 12.8479ZM9.13156 12.4668L13.0703 13.1643L13.0703 13.1642L9.13156 12.4668ZM9.13522 12.4462L13.074 13.1436L13.1055 12.9653L13.1209 12.7848L9.13522 12.4462ZM9.37444 9.63087L5.39403 9.23548L5.39122 9.26382L5.3888 9.2922L9.37444 9.63087ZM9.48109 9.40731L6.68133 6.5505L6.68133 6.5505L9.48109 9.40731ZM9.70185 9.30807L9.44982 5.31602L9.4419 5.31652L9.43398 5.31705L9.70185 9.30807ZM12.4435 9.13498L12.6956 13.127L12.9268 13.1124L13.1548 13.0712L12.4435 9.13498ZM12.4699 9.13021L13.1812 13.0665L13.1812 13.0665L12.4699 9.13021ZM12.8512 8.90724L15.9313 11.4593L15.9314 11.4593L12.8512 8.90724ZM12.8512 8.08133L15.9314 5.52932L15.9314 5.52928L12.8512 8.08133ZM12.4699 7.85837L13.1812 3.92212L13.1812 3.9221L12.4699 7.85837ZM9.47178 11.685L12.2068 11.8465L12.6784 3.86038L9.94333 3.69889L9.47178 11.685ZM9.97211 3.70069L9.97153 3.70065L9.44241 11.6831L9.443 11.6832L9.97211 3.70069ZM9.97771 3.70107C10.8481 3.76011 11.6664 4.12815 12.2865 4.7359L6.68699 10.4495C7.4273 11.175 8.40223 11.6126 9.43623 11.6827L9.97771 3.70107ZM12.2865 4.73592C12.9001 5.33724 13.2767 6.13074 13.3605 6.97333L5.39973 7.76504C5.50057 8.77899 5.95347 9.73064 6.68698 10.4495L12.2865 4.73592ZM13.3657 7.03054L13.3419 6.7499L5.37061 7.42719L5.39445 7.70783L13.3657 7.03054ZM13.3419 6.7499L13.1265 4.2152L5.15524 4.89249L5.37061 7.4272L13.3419 6.7499ZM13.0796 3.85654L13.076 3.83589L5.19847 5.2305L5.20213 5.25115L13.0796 3.85654ZM13.076 3.83575C12.8879 2.77367 12.3346 1.80262 11.5008 1.09765L6.3355 7.20665C5.73318 6.69737 5.33411 5.99647 5.1985 5.23064L13.076 3.83575ZM11.5008 1.09766C10.6666 0.39232 9.60573 0 8.50283 0V8C7.70501 8 6.93811 7.71616 6.3355 7.20664L11.5008 1.09766ZM8.50283 0C7.39993 0 6.33907 0.392321 5.50487 1.09766L10.6702 7.20664C10.0676 7.71616 9.30066 8 8.50283 8V0ZM5.50488 1.09765C4.67109 1.80264 4.11779 2.77368 3.92972 3.83569L11.8072 5.23069C11.6716 5.99646 11.2725 6.69736 10.6702 7.20665L5.50488 1.09765ZM11.8036 5.2509L11.8072 5.23071L3.92973 3.83567L3.92615 3.85586L11.8036 5.2509ZM11.6047 7.71755L11.8498 4.90004L3.87992 4.20672L3.63481 7.02422L11.6047 7.71755ZM11.606 7.70239L11.6062 7.70036L3.63335 7.04141L3.63319 7.04345L11.606 7.70239ZM10.3155 10.4521C11.065 9.71766 11.5203 8.73999 11.606 7.70202L3.63316 7.04382C3.70477 6.17628 4.08554 5.3564 4.716 4.73853L10.3155 10.4521ZM7.51192 11.6859C8.56948 11.6293 9.56483 11.1878 10.3155 10.4521L4.71601 4.73852C5.34799 4.11916 6.18862 3.74523 7.08457 3.6973L7.51192 11.6859ZM7.45752 11.6884L7.45848 11.6884L7.13801 3.6948L7.13706 3.69483L7.45752 11.6884ZM4.80903 11.8571L7.54988 11.6836L7.04471 3.69961L4.30386 3.87303L4.80903 11.8571ZM5.2413 11.8061L5.26767 11.8013L3.84521 3.92878L3.81884 3.93355L5.2413 11.8061ZM7.22887 10.6448C6.72696 11.2506 6.02455 11.6645 5.24136 11.8061L3.81877 3.93356C2.73585 4.12925 1.76374 4.70178 1.06864 5.54073L7.22887 10.6448ZM8 8.50573C8 9.28264 7.72989 10.0401 7.22887 10.6448L1.06864 5.54073C0.374703 6.37825 0 7.42817 0 8.50573H8ZM7.22887 6.36665C7.72966 6.97106 8 7.72846 8 8.50573H0C0 9.58375 0.37499 10.6335 1.06864 11.4707L7.22887 6.36665ZM5.24134 5.20538C6.02455 5.34691 6.72697 5.76089 7.22887 6.36665L1.06863 11.4707C1.76374 12.3097 2.73584 12.8822 3.81879 13.0779L5.24134 5.20538ZM5.26863 5.21031L5.2413 5.20537L3.81884 13.0779L3.84618 13.0828L5.26863 5.21031ZM7.52797 5.31502L4.7932 5.15353L4.32162 13.1396L7.05639 13.3011L7.52797 5.31502ZM10.3118 6.5518C9.58432 5.83882 8.62718 5.40034 7.6044 5.32027L6.97995 13.2959C6.1208 13.2286 5.31939 12.8604 4.71224 12.2654L10.3118 6.5518ZM11.5969 9.2024C11.4886 8.20088 11.0371 7.26258 10.3118 6.55178L4.71226 12.2654C4.10732 11.6725 3.73297 10.8924 3.64323 10.0625L11.5969 9.2024ZM11.8448 12.1075L11.6057 9.29379L3.63441 9.97109L3.87348 12.7848L11.8448 12.1075ZM11.8015 11.7695L11.7979 11.7488L3.92037 13.1435L3.92403 13.1642L11.8015 11.7695ZM10.6645 9.79338C11.2668 10.3026 11.6659 11.0035 11.8015 11.7694L3.92405 13.1643C4.11212 14.2264 4.66546 15.1974 5.4992 15.9024L10.6645 9.79338ZM8.49717 9C9.29394 9 10.0611 9.28317 10.6645 9.79338L5.4992 15.9024C6.33442 16.6086 7.39559 17 8.49717 17V9ZM6.32984 9.79337C6.93325 9.28317 7.7004 9 8.49717 9V17C9.59875 17 10.6599 16.6086 11.4951 15.9024L6.32984 9.79337ZM5.19284 11.7694C5.32845 11.0035 5.72754 10.3026 6.32984 9.79337L11.4951 15.9024C12.3289 15.1974 12.8822 14.2264 13.0703 13.1643L5.19284 11.7694ZM5.19648 11.7488L5.19282 11.7695L13.0703 13.1642L13.074 13.1436L5.19648 11.7488ZM5.3888 9.2922L5.14958 12.1075L13.1209 12.7848L13.3601 9.96954L5.3888 9.2922ZM6.68133 6.5505C5.94754 7.26964 5.49475 8.22155 5.39403 9.23548L13.3549 10.0263C13.2712 10.8687 12.8947 11.6625 12.2808 12.2641L6.68133 6.5505ZM9.43398 5.31705C8.40056 5.38641 7.42362 5.82303 6.68133 6.5505L12.2808 12.2641C11.6587 12.8738 10.8391 13.2407 9.96972 13.2991L9.43398 5.31705ZM12.1915 5.14293L9.44982 5.31602L9.95388 13.3001L12.6956 13.127L12.1915 5.14293ZM11.7587 5.19396L11.7323 5.19873L13.1548 13.0712L13.1812 13.0665L11.7587 5.19396ZM9.77115 6.35519C10.2724 5.75016 10.9745 5.33565 11.7586 5.19396L13.1812 13.0665C14.2653 12.8706 15.237 12.2973 15.9313 11.4593L9.77115 6.35519ZM9 8.49429C9 7.71706 9.27031 6.95966 9.77112 6.35522L15.9314 11.4593C16.625 10.622 17 9.57225 17 8.49429H9ZM9.77111 10.6333C9.27033 10.0289 9 9.27154 9 8.49429H17C17 7.4163 16.625 6.36651 15.9314 5.52932L9.77111 10.6333ZM11.7586 11.7946C10.9745 11.6529 10.2725 11.2384 9.77115 10.6334L15.9314 5.52928C15.237 4.69125 14.2653 4.11801 13.1812 3.92212L11.7586 11.7946ZM11.7314 11.7897L11.7587 11.7946L13.1812 3.9221L13.1538 3.91716L11.7314 11.7897Z" fill="#16504E" mask="url(#path-1-outside-1_3795_172141)"/>
</g>
</svg>
