<svg xmlns="http://www.w3.org/2000/svg" width="26" height="26" viewBox="0 0 26 26" fill="none">
  <mask id="path-1-outside-1_1701_473" maskUnits="userSpaceOnUse" x="0.5" y="0.5" width="25" height="25" fill="black">
    <rect fill="white" x="0.5" y="0.5" width="25" height="25"/>
    <path fill-rule="evenodd" clip-rule="evenodd" d="M20.4471 11.7787L15.2809 11.4736L15.2798 11.4736C15.1253 11.4631 14.9774 11.3975 14.8639 11.2862C14.7506 11.1752 14.6785 11.0259 14.6624 10.864L14.6174 10.3339L14.2106 5.54615L14.2036 5.50715C14.1541 5.22736 14.0084 4.97222 13.7898 4.7874C13.5711 4.60246 13.2935 4.5 13.0054 4.5C12.7172 4.5 12.4396 4.60246 12.2209 4.7874C12.0023 4.97222 11.8566 5.22735 11.8071 5.50714L11.8003 5.54527L11.3373 10.8672L11.337 10.8711C11.3237 11.032 11.2533 11.1811 11.1409 11.2912C11.0288 11.4011 10.8826 11.4648 10.73 11.473L10.7282 11.4731L5.55106 11.8006L5.50124 11.8096C5.21815 11.8608 4.96344 12.0105 4.78098 12.2308C4.59878 12.4507 4.5 12.7269 4.5 13.0108C4.5 13.2949 4.59884 13.571 4.78098 13.7908C4.96344 14.0111 5.21815 14.1608 5.50124 14.212L5.55288 14.2213L10.7186 14.5263C10.8731 14.5384 11.0202 14.6048 11.1338 14.7162C11.2475 14.8276 11.3203 14.977 11.3379 15.1391L11.7894 20.4539L11.7964 20.4929C11.8459 20.7727 11.9916 21.0278 12.2102 21.2126C12.4291 21.3977 12.7068 21.5 12.9947 21.5C13.2825 21.5 13.5602 21.3977 13.7791 21.2126C13.9977 21.0278 14.1434 20.7727 14.1929 20.4929L14.1999 20.4539L14.6517 15.1361C14.6678 14.9742 14.7399 14.8248 14.8532 14.7138C14.9666 14.6026 15.1153 14.5368 15.2702 14.5264L20.4489 14.1994L20.4988 14.1904C20.7821 14.1392 21.0367 13.9893 21.219 13.7692C21.4012 13.5494 21.5 13.2732 21.5 12.9892C21.5 12.7052 21.4012 12.429 21.219 12.2092C21.0367 11.9891 20.7821 11.8392 20.4988 11.788L20.4471 11.7787Z"/>
  </mask>
  <path fill-rule="evenodd" clip-rule="evenodd" d="M20.4471 11.7787L15.2809 11.4736L15.2798 11.4736C15.1253 11.4631 14.9774 11.3975 14.8639 11.2862C14.7506 11.1752 14.6785 11.0259 14.6624 10.864L14.6174 10.3339L14.2106 5.54615L14.2036 5.50715C14.1541 5.22736 14.0084 4.97222 13.7898 4.7874C13.5711 4.60246 13.2935 4.5 13.0054 4.5C12.7172 4.5 12.4396 4.60246 12.2209 4.7874C12.0023 4.97222 11.8566 5.22735 11.8071 5.50714L11.8003 5.54527L11.3373 10.8672L11.337 10.8711C11.3237 11.032 11.2533 11.1811 11.1409 11.2912C11.0288 11.4011 10.8826 11.4648 10.73 11.473L10.7282 11.4731L5.55106 11.8006L5.50124 11.8096C5.21815 11.8608 4.96344 12.0105 4.78098 12.2308C4.59878 12.4507 4.5 12.7269 4.5 13.0108C4.5 13.2949 4.59884 13.571 4.78098 13.7908C4.96344 14.0111 5.21815 14.1608 5.50124 14.212L5.55288 14.2213L10.7186 14.5263C10.8731 14.5384 11.0202 14.6048 11.1338 14.7162C11.2475 14.8276 11.3203 14.977 11.3379 15.1391L11.7894 20.4539L11.7964 20.4929C11.8459 20.7727 11.9916 21.0278 12.2102 21.2126C12.4291 21.3977 12.7068 21.5 12.9947 21.5C13.2825 21.5 13.5602 21.3977 13.7791 21.2126C13.9977 21.0278 14.1434 20.7727 14.1929 20.4929L14.1999 20.4539L14.6517 15.1361C14.6678 14.9742 14.7399 14.8248 14.8532 14.7138C14.9666 14.6026 15.1153 14.5368 15.2702 14.5264L20.4489 14.1994L20.4988 14.1904C20.7821 14.1392 21.0367 13.9893 21.219 13.7692C21.4012 13.5494 21.5 13.2732 21.5 12.9892C21.5 12.7052 21.4012 12.429 21.219 12.2092C21.0367 11.9891 20.7821 11.8392 20.4988 11.788L20.4471 11.7787Z" fill="#ED9A26"/>
  <path d="M15.2809 11.4736L15.0164 15.4649L15.0308 15.4658L15.0452 15.4667L15.2809 11.4736ZM20.4471 11.7787L21.1584 7.84243L20.9223 7.79979L20.6829 7.78565L20.4471 11.7787ZM15.2798 11.4736L15.0091 15.4644L15.0153 15.4648L15.2798 11.4736ZM14.8639 11.2862L17.6636 8.42943L17.6636 8.42943L14.8639 11.2862ZM14.6624 10.864L10.6768 11.2027L10.6792 11.2313L10.682 11.2599L14.6624 10.864ZM14.6174 10.3339L18.603 9.99528L18.603 9.99528L14.6174 10.3339ZM14.2106 5.54615L18.1962 5.20751L18.1809 5.02712L18.1493 4.84885L14.2106 5.54615ZM14.2036 5.50715L18.1424 4.80984L18.1424 4.8097L14.2036 5.50715ZM13.7898 4.7874L11.2072 7.84189L11.2072 7.84189L13.7898 4.7874ZM12.2209 4.7874L14.8035 7.8419L14.8035 7.84189L12.2209 4.7874ZM11.8071 5.50714L15.7458 6.20466L15.7458 6.20463L11.8071 5.50714ZM11.8003 5.54527L7.86159 4.84775L7.8307 5.02216L7.81535 5.19861L11.8003 5.54527ZM11.3373 10.8672L7.35238 10.5206L7.35163 10.5291L7.35093 10.5377L11.3373 10.8672ZM11.337 10.8711L7.35061 10.5415L7.35057 10.542L11.337 10.8711ZM11.1409 11.2912L13.9407 14.148L13.9407 14.148L11.1409 11.2912ZM10.73 11.473L10.8901 15.4698L10.9169 15.4687L10.9437 15.4673L10.73 11.473ZM10.7282 11.4731L10.5681 7.47627L10.5218 7.47813L10.4756 7.48105L10.7282 11.4731ZM5.55106 11.8006L5.29847 7.80862L5.06755 7.82323L4.83985 7.86437L5.55106 11.8006ZM5.50124 11.8096L4.79003 7.87338L4.78995 7.87339L5.50124 11.8096ZM4.78098 12.2308L7.8611 14.7828L7.8611 14.7828L4.78098 12.2308ZM4.78098 13.7908L7.8611 11.2388L7.86109 11.2388L4.78098 13.7908ZM5.50124 14.212L4.78996 18.1482L4.79005 18.1482L5.50124 14.212ZM5.55288 14.2213L4.84168 18.1576L5.07768 18.2002L5.31709 18.2143L5.55288 14.2213ZM10.7186 14.5263L11.0308 10.5385L10.9926 10.5356L10.9543 10.5333L10.7186 14.5263ZM11.1338 14.7162L8.33405 17.573L8.33405 17.573L11.1338 14.7162ZM11.3379 15.1391L15.3235 14.8004L15.3196 14.7547L15.3147 14.709L11.3379 15.1391ZM11.7894 20.4539L7.80381 20.7925L7.81914 20.9729L7.8507 21.1512L11.7894 20.4539ZM11.7964 20.4929L7.85761 21.1902L7.85763 21.1904L11.7964 20.4929ZM12.2102 21.2126L9.62752 24.2671L9.62752 24.2671L12.2102 21.2126ZM13.7791 21.2126L16.3618 24.2671L16.3618 24.2671L13.7791 21.2126ZM14.1929 20.4929L18.1317 21.1904L18.1317 21.1903L14.1929 20.4929ZM14.1999 20.4539L18.1386 21.1513L18.1702 20.973L18.1855 20.7926L14.1999 20.4539ZM14.6517 15.1361L10.6713 14.7407L10.6685 14.769L10.6661 14.7974L14.6517 15.1361ZM14.8532 14.7138L17.6529 17.5706L17.6529 17.5706L14.8532 14.7138ZM15.2702 14.5264L15.0181 10.5343L15.0102 10.5348L15.0023 10.5353L15.2702 14.5264ZM20.4489 14.1994L20.7009 18.1915L20.9321 18.1769L21.1601 18.1357L20.4489 14.1994ZM20.4988 14.1904L21.21 18.1266L21.2101 18.1266L20.4988 14.1904ZM21.219 13.7692L24.2991 16.3213L24.2992 16.3212L21.219 13.7692ZM21.219 12.2092L24.2992 9.65716L24.2991 9.65713L21.219 12.2092ZM20.4988 11.788L21.21 7.85177L21.21 7.85176L20.4988 11.788ZM15.0452 15.4667L20.2113 15.7717L20.6829 7.78565L15.5167 7.4806L15.0452 15.4667ZM15.5455 7.48241L15.5444 7.48234L15.0153 15.4648L15.0164 15.4649L15.5455 7.48241ZM15.5506 7.48275C16.3482 7.53686 17.0969 7.87401 17.6636 8.42943L12.0641 14.143C12.8578 14.9209 13.9024 15.3893 15.0091 15.4644L15.5506 7.48275ZM17.6636 8.42943C18.2239 8.97852 18.5665 9.70175 18.6428 10.4681L10.682 11.2599C10.7904 12.35 11.2773 13.3719 12.0641 14.143L17.6636 8.42943ZM18.648 10.5254L18.603 9.99528L10.6317 10.6726L10.6768 11.2027L18.648 10.5254ZM18.603 9.99528L18.1962 5.20751L10.2249 5.8848L10.6317 10.6726L18.603 9.99528ZM18.1493 4.84885L18.1424 4.80984L10.2649 6.20445L10.2718 6.24346L18.1493 4.84885ZM18.1424 4.8097C17.931 3.61596 17.3091 2.52485 16.3725 1.7329L11.2072 7.84189C10.7077 7.41959 10.3772 6.83875 10.2649 6.20459L18.1424 4.8097ZM16.3725 1.7329C15.4353 0.940535 14.2438 0.5 13.0054 0.5V8.5C12.3431 8.5 11.7069 8.26438 11.2072 7.84189L16.3725 1.7329ZM13.0054 0.5C11.7669 0.5 10.5754 0.940536 9.63822 1.7329L14.8035 7.84189C14.3038 8.26438 13.6676 8.5 13.0054 8.5V0.5ZM9.63823 1.7329C8.70157 2.52486 8.07972 3.61596 7.86834 4.80964L15.7458 6.20463C15.6335 6.83875 15.303 7.41958 14.8035 7.8419L9.63823 1.7329ZM15.739 6.2428L15.7458 6.20466L7.86834 4.80961L7.86159 4.84775L15.739 6.2428ZM15.3223 11.2139L15.7853 5.89194L7.81535 5.19861L7.35238 10.5206L15.3223 11.2139ZM15.3234 11.2006L15.3237 11.1968L7.35093 10.5377L7.35061 10.5415L15.3234 11.2006ZM13.9407 14.148C14.743 13.3617 15.2315 12.3139 15.3234 11.2002L7.35057 10.542C7.41594 9.75018 7.76355 9.00043 8.34113 8.43437L13.9407 14.148ZM10.9437 15.4673C12.0731 15.4069 13.1372 14.9354 13.9407 14.148L8.34114 8.43437C8.92035 7.86672 9.69222 7.52279 10.5163 7.47871L10.9437 15.4673ZM10.8883 15.4699L10.8901 15.4698L10.5699 7.4762L10.5681 7.47627L10.8883 15.4699ZM5.80364 15.7927L10.9808 15.4651L10.4756 7.48105L5.29847 7.80862L5.80364 15.7927ZM6.21245 15.7459L6.26227 15.7369L4.83985 7.86437L4.79003 7.87338L6.21245 15.7459ZM7.8611 14.7828C7.44505 15.2849 6.8625 15.6284 6.21253 15.7459L4.78995 7.87339C3.5738 8.09315 2.48183 8.73616 1.70086 9.67873L7.8611 14.7828ZM8.5 13.0108C8.5 13.6541 8.27637 14.2816 7.8611 14.7828L1.70086 9.67873C0.921187 10.6197 0.5 11.7996 0.5 13.0108H8.5ZM7.86109 11.2388C8.27617 11.7398 8.5 12.3672 8.5 13.0108H0.5C0.5 14.2225 0.9215 15.4023 1.70087 16.3429L7.86109 11.2388ZM6.21251 10.2757C6.8625 10.3932 7.44506 10.7367 7.8611 11.2388L1.70085 16.3429C2.48182 17.2855 3.57379 17.9285 4.78996 18.1482L6.21251 10.2757ZM6.26407 10.285L6.21243 10.2757L4.79005 18.1482L4.84168 18.1576L6.26407 10.285ZM10.9543 10.5333L5.78867 10.2283L5.31709 18.2143L10.4828 18.5194L10.9543 10.5333ZM13.9336 11.8594C13.1526 11.094 12.1263 10.6243 11.0308 10.5385L10.4063 18.5141C9.61989 18.4526 8.8877 18.1156 8.33405 17.573L13.9336 11.8594ZM15.3147 14.709C15.1981 13.6312 14.7123 12.6226 13.9336 11.8594L8.33405 17.573C7.7826 17.0326 7.44254 16.3227 7.36105 15.5691L15.3147 14.709ZM15.7751 20.1152L15.3235 14.8004L7.35223 15.4777L7.80381 20.7925L15.7751 20.1152ZM15.7351 19.7956L15.7282 19.7566L7.8507 21.1512L7.85761 21.1902L15.7351 19.7956ZM14.7928 18.1581C15.2922 18.5804 15.6228 19.1613 15.7351 19.7954L7.85763 21.1904C8.06902 22.3841 8.69091 23.4752 9.62752 24.2671L14.7928 18.1581ZM12.9947 17.5C13.656 17.5 14.2924 17.7351 14.7928 18.1581L9.62752 24.2671C10.5657 25.0604 11.7576 25.5 12.9947 25.5V17.5ZM11.1965 18.1581C11.6969 17.7351 12.3333 17.5 12.9947 17.5V25.5C14.2317 25.5 15.4236 25.0604 16.3618 24.2671L11.1965 18.1581ZM10.2542 19.7954C10.3665 19.1613 10.6971 18.5804 11.1965 18.1581L16.3618 24.2671C17.2984 23.4752 17.9203 22.3841 18.1317 21.1904L10.2542 19.7954ZM10.2611 19.7565L10.2542 19.7955L18.1317 21.1903L18.1386 21.1513L10.2611 19.7565ZM10.6661 14.7974L10.2142 20.1152L18.1855 20.7926L18.6374 15.4748L10.6661 14.7974ZM12.0534 11.857C11.2663 12.6284 10.7796 13.6506 10.6713 14.7407L18.6321 15.5315C18.556 16.2978 18.2135 17.0212 17.6529 17.5706L12.0534 11.857ZM15.0023 10.5353C13.896 10.6096 12.8491 11.0772 12.0534 11.857L17.6529 17.5706C17.0842 18.128 16.3346 18.4639 15.538 18.5174L15.0023 10.5353ZM20.1969 10.2074L15.0181 10.5343L15.5222 18.5184L20.7009 18.1915L20.1969 10.2074ZM19.7875 10.2541L19.7376 10.2632L21.1601 18.1357L21.21 18.1266L19.7875 10.2541ZM18.1389 11.2172C18.5544 10.7157 19.1367 10.3717 19.7875 10.2541L21.2101 18.1266C22.4275 17.9066 23.519 17.2628 24.2991 16.3213L18.1389 11.2172ZM17.5 12.9892C17.5 12.3456 17.7238 11.7182 18.1389 11.2172L24.2992 16.3212C25.0785 15.3806 25.5 14.2009 25.5 12.9892H17.5ZM18.1389 14.7612C17.7238 14.2602 17.5 13.6328 17.5 12.9892H25.5C25.5 11.7776 25.0785 10.5978 24.2992 9.65716L18.1389 14.7612ZM19.7875 15.7243C19.1367 15.6067 18.5544 15.2627 18.1389 14.7612L24.2991 9.65713C23.519 8.71555 22.4274 8.07176 21.21 7.85177L19.7875 15.7243ZM19.7359 15.715L19.7875 15.7243L21.21 7.85176L21.1584 7.84243L19.7359 15.715Z" fill="#0D2321" mask="url(#path-1-outside-1_1701_473)"/>
</svg>
