<svg width="65" height="64" viewBox="0 0 65 64" fill="none" xmlns="http://www.w3.org/2000/svg">
<path d="M15.3774 4.00005C15.1988 3.99731 15.0215 4.03047 14.856 4.09757C14.6905 4.16468 14.5401 4.26435 14.4139 4.39067L4.89042 13.9141C4.64044 14.1642 4.5 14.5032 4.5 14.8568C4.5 15.2104 4.64044 15.5495 4.89042 15.7995L18.0363 28.9454L19.9217 27.0678L7.71855 14.8568L15.3566 7.2188L20.1378 12L14.4139 17.724L16.2993 19.6094L22.0258 13.8829L23.9503 15.8073L20.1274 19.6277L22.0128 21.5131L25.8357 17.6928L27.742 19.599L29.6326 17.724L16.2993 4.39067C16.0544 4.14565 15.7238 4.00556 15.3774 4.00005ZM57.1378 5.00005C57.0041 5.00277 56.8715 5.02559 56.7446 5.06776L46.9503 8.33338L46.9529 8.33859C46.758 8.40318 46.5807 8.51191 46.4347 8.6563L36.367 18.724L38.2446 20.6094L47.3696 11.4844L48.7498 12.8646L40.2238 21.3907L42.1092 23.2761L50.6326 14.7527L52.0102 16.1303L42.7472 25.3907L44.6326 27.2761L54.854 17.0756C55.038 16.891 55.1638 16.6565 55.2159 16.4011L58.4295 6.75265C58.4966 6.5502 58.5142 6.33461 58.4807 6.12396C58.4472 5.91332 58.3637 5.71378 58.2372 5.54209C58.1107 5.37039 57.9448 5.23156 57.7535 5.13725C57.5622 5.04293 57.3511 4.99588 57.1378 5.00005ZM55.0545 8.44015L53.3175 13.6537L49.8462 10.1823L55.0545 8.44015ZM46.781 34.875L44.8956 36.7605L46.8045 38.6693L42.9868 42.487L44.8722 44.3724L48.6873 40.5547L50.6118 42.4792L44.8904 48.2006L46.7758 50.086L52.4972 44.3646L57.281 49.1485L49.643 56.7865L37.255 44.4011L35.367 46.2761L48.7003 59.6094C48.9503 59.8595 49.2894 60 49.643 60C49.996 60.0035 50.336 59.8667 50.5883 59.6198L60.1144 50.0938C60.3644 49.8438 60.5048 49.5047 60.5048 49.1511C60.5048 48.7975 60.3644 48.4584 60.1144 48.2084L53.4477 41.5417L46.781 34.875ZM19.3566 35.724L5.89042 49.1902C5.64044 49.4402 5.5 49.7793 5.5 50.1329C5.5 50.4864 5.64044 50.8255 5.89042 51.0756L12.4243 57.6094C12.6743 57.8595 13.0134 58 13.367 58C13.7206 58 14.0597 57.8595 14.3097 57.6094L27.643 44.2761L25.7576 42.3907L13.367 54.7813L11.9842 53.4011L23.7758 41.6094L21.8878 39.724L10.0988 51.5131L8.71855 50.1329L21.242 37.6094L19.3566 35.724Z" fill="#E4EEEE" fill-opacity="0.8"/>
<path d="M30.5 40.5L35 23.5" stroke="#E4EEEE" stroke-opacity="0.8" stroke-width="2" stroke-linecap="round" stroke-linejoin="round"/>
<path d="M27.5 27L22.5 32C25.6242 35.1242 24.3758 33.8758 27.5 37" stroke="#E4EEEE" stroke-opacity="0.8" stroke-width="2" stroke-linecap="round" stroke-linejoin="round"/>
<path d="M37.5 37L42.5 32C39.3758 28.8758 40.6242 30.1242 37.5 27" stroke="#E4EEEE" stroke-opacity="0.8" stroke-width="2" stroke-linecap="round" stroke-linejoin="round"/>
</svg>
