<svg width="28" height="28" viewBox="0 0 28 28" fill="none" xmlns="http://www.w3.org/2000/svg">
<path d="M12.8587 2.51246C13.218 1.40688 14.782 1.40689 15.1413 2.51246L17.3228 9.22655C17.4835 9.72098 17.9442 10.0557 18.4641 10.0557H25.5237C26.6862 10.0557 27.1695 11.5433 26.229 12.2265L20.5177 16.3761C20.0971 16.6817 19.9211 17.2233 20.0818 17.7177L22.2633 24.4318C22.6225 25.5374 21.3571 26.4567 20.4167 25.7735L14.7053 21.6239C14.2848 21.3183 13.7152 21.3183 13.2947 21.6239L7.58331 25.7735C6.64285 26.4567 5.37748 25.5374 5.7367 24.4318L7.91824 17.7177C8.07889 17.2233 7.9029 16.6817 7.48232 16.3761L1.77097 12.2265C0.830514 11.5433 1.31385 10.0557 2.47632 10.0557H9.53593C10.0558 10.0557 10.5165 9.72098 10.6772 9.22655L12.8587 2.51246Z" stroke="#20C580" stroke-width="2"/>
</svg>
