<svg width="14" height="15" viewBox="0 0 14 15" fill="none" xmlns="http://www.w3.org/2000/svg">
<path d="M5.85873 2.51246C6.21795 1.40689 7.78205 1.40689 8.14127 2.51246L8.75121 4.38967C8.91186 4.88409 9.37261 5.21885 9.89248 5.21885H11.8663C13.0288 5.21885 13.5121 6.70639 12.5716 7.38967L10.9748 8.54984C10.5542 8.85542 10.3782 9.39706 10.5389 9.89149L11.1488 11.7687C11.508 12.8743 10.2426 13.7936 9.30219 13.1103L7.70534 11.9502C7.28476 11.6446 6.71524 11.6446 6.29466 11.9502L4.69781 13.1103C3.75736 13.7936 2.49198 12.8743 2.8512 11.7687L3.46114 9.89149C3.62179 9.39706 3.4458 8.85542 3.02522 8.54984L1.42837 7.38967C0.487915 6.70639 0.971245 5.21885 2.13371 5.21885H4.10752C4.62739 5.21885 5.08814 4.88409 5.24879 4.38967L5.85873 2.51246Z" stroke="#20C580" stroke-width="1.5"/>
</svg>
