<svg width="14" height="14" viewBox="0 0 14 14" fill="none" xmlns="http://www.w3.org/2000/svg">
<path d="M5.85873 2.33473C6.21795 1.22916 7.78205 1.22915 8.14127 2.33473L8.75121 4.21193C8.91186 4.70636 9.37261 5.04111 9.89248 5.04111H11.8663C13.0288 5.04111 13.5121 6.52865 12.5716 7.21193L10.9748 8.37211C10.5542 8.67768 10.3782 9.21932 10.5389 9.71375L11.1488 11.591C11.508 12.6965 10.2426 13.6159 9.30219 12.9326L7.70534 11.7724C7.28476 11.4668 6.71524 11.4668 6.29466 11.7724L4.69781 12.9326C3.75736 13.6159 2.49198 12.6965 2.8512 11.591L3.46114 9.71375C3.62179 9.21932 3.4458 8.67768 3.02522 8.37211L1.42837 7.21193C0.487915 6.52865 0.971245 5.04111 2.13371 5.04111H4.10752C4.62739 5.04111 5.08814 4.70636 5.24879 4.21193L5.85873 2.33473Z" stroke="#20C580" stroke-width="1.5"/>
</svg>
