<svg width="24" height="24" viewBox="0 0 24 24" fill="none" xmlns="http://www.w3.org/2000/svg">
<path fill-rule="evenodd" clip-rule="evenodd" d="M17 5.5H5C4.17157 5.5 3.5 6.17157 3.5 7V17C3.5 17.8284 4.17157 18.5 5 18.5H17C17.8284 18.5 18.5 17.8284 18.5 17V16L17 16C14.7909 16 13 14.2091 13 12C13 9.79086 14.7909 8 17 8L18.5 8V7C18.5 6.17157 17.8284 5.5 17 5.5ZM20 8L20.9995 8C21.5518 8 22 8.44772 22 9V15C22 15.5523 21.5523 16 21 16H20V17C20 18.6569 18.6569 20 17 20H5C3.34315 20 2 18.6569 2 17V7C2 5.34315 3.34315 4 5 4H17C18.6569 4 20 5.34315 20 7V8ZM20.5 9.5L17 9.5C15.6193 9.5 14.5 10.6193 14.5 12C14.5 13.3807 15.6193 14.5 17 14.5L20.5 14.5V9.5ZM18 12C18 12.5523 17.5523 13 17 13C16.4477 13 16 12.5523 16 12C16 11.4477 16.4477 11 17 11C17.5523 11 18 11.4477 18 12Z" fill="#ED9A26"/>
</svg>
