<svg width="24" height="24" viewBox="0 0 24 24" fill="none" xmlns="http://www.w3.org/2000/svg">
  <path fill-rule="evenodd" clip-rule="evenodd"
    d="M19.4522 12.8513C19.0295 16.5926 15.8543 19.5 12 19.5C7.85786 19.5 4.5 16.1421 4.5 12C4.5 7.85786 7.85786 4.5 12 4.5C13.4816 4.5 14.8628 4.92959 16.0259 5.671L18.1837 3.51315C16.4492 2.24715 14.3119 1.5 12 1.5C6.20101 1.5 1.5 6.20101 1.5 12C1.5 17.799 6.20101 22.5 12 22.5C17.799 22.5 22.5 17.799 22.5 12C22.5 11.3142 22.4343 10.6438 22.3087 9.99476L19.4522 12.8513Z"
    fill="#22C480" />
  <path fill-rule="evenodd" clip-rule="evenodd"
    d="M22.8106 6.31065L14.1213 15C12.9497 16.1716 11.0502 16.1716 9.87867 15L6.43933 11.5607L8.56065 9.43933L12 12.8787L20.6893 4.18933L22.8106 6.31065Z"
    fill="#22C480" />
</svg>