<svg width="20" height="13" viewBox="0 0 20 13" fill="none" xmlns="http://www.w3.org/2000/svg">
  <path fill-rule="evenodd" clip-rule="evenodd"
    d="M12.0101 0.299988C11.734 0.299988 11.5101 0.523846 11.5101 0.799988C11.5101 1.07613 11.734 1.29999 12.0101 1.29999L19.4762 1.29999C19.7523 1.29999 19.9762 1.07613 19.9762 0.799988C19.9762 0.523845 19.7523 0.299988 19.4762 0.299988L12.0101 0.299988ZM0.5 0.299988C0.223858 0.299988 0 0.523846 0 0.799988C0 1.07613 0.223858 1.29999 0.5 1.29999H4.89851C5.07755 1.29999 5.24292 1.39572 5.33209 1.55097L11.2883 11.9219C11.5558 12.3877 12.0519 12.6749 12.5891 12.6749H19.4763C19.7524 12.6749 19.9763 12.451 19.9763 12.1749C19.9763 11.8987 19.7524 11.6749 19.4763 11.6749H12.5891C12.41 11.6749 12.2446 11.5791 12.1555 11.4239L6.19925 1.05295C5.93175 0.587179 5.43563 0.299988 4.89851 0.299988H0.5Z"
    fill="#FFFBFC" />
</svg>