<svg width="120" height="92" viewBox="0 0 120 92" fill="none" xmlns="http://www.w3.org/2000/svg">
  <rect x="8" y="8.00745" width="104" height="58.0537" rx="3" fill="#193330" />
  <path
    d="M113.226 0H6.77419C4.97818 0.00197637 3.25629 0.713159 1.98631 1.97751C0.716331 3.24187 0.00198515 4.95614 0 6.74421V67.9135C0.00198515 69.7016 0.716331 71.4159 1.98631 72.6802C3.25629 73.9446 4.97818 74.6558 6.77419 74.6577H43.4784C44.2289 74.6577 44.6041 74.6577 44.8502 74.8149C45.0656 74.9524 45.2202 75.1672 45.2822 75.4152C45.3531 75.6984 45.2339 76.0543 44.9956 76.7659L43.4858 81.2735C43.3543 81.6662 43.2886 81.8625 43.167 82.0077C43.0596 82.1358 42.9217 82.235 42.7661 82.2962C42.5898 82.3654 42.3828 82.3654 41.9687 82.3654H38.7097C38.1964 82.3654 37.7041 82.5684 37.3411 82.9298C36.9781 83.2912 36.7742 83.7813 36.7742 84.2923V86.5462C36.7742 87.1062 36.7742 87.3862 36.6652 87.6001C36.5693 87.7883 36.4163 87.9413 36.2282 88.0372C36.0143 88.1461 35.7342 88.1461 35.1742 88.1461H23.2258C22.7125 88.1461 22.2202 88.3492 21.8572 88.7105C21.4942 89.0719 21.2903 89.562 21.2903 90.0731C21.2903 90.5841 21.4942 91.0742 21.8572 91.4356C22.2202 91.797 22.7125 92 23.2258 92H96.7742C97.2875 92 97.7798 91.797 98.1428 91.4356C98.5058 91.0742 98.7097 90.5841 98.7097 90.0731C98.7097 89.562 98.5058 89.0719 98.1428 88.7105C97.7798 88.3492 97.2875 88.1461 96.7742 88.1461H84.8258C84.2658 88.1461 83.9857 88.1461 83.7718 88.0372C83.5837 87.9413 83.4307 87.7883 83.3348 87.6001C83.2258 87.3862 83.2258 87.1062 83.2258 86.5462V84.2923C83.2258 83.7813 83.0219 83.2912 82.6589 82.9298C82.2959 82.5684 81.8036 82.3654 81.2903 82.3654H78.0313C77.6172 82.3654 77.4102 82.3654 77.2339 82.2962C77.0783 82.235 76.9404 82.1358 76.833 82.0077C76.7114 81.8625 76.6457 81.6662 76.5141 81.2735L75.0044 76.7659C74.7661 76.0543 74.6469 75.6984 74.7178 75.4152C74.7798 75.1672 74.9344 74.9524 75.1498 74.8149C75.3959 74.6577 75.7711 74.6577 76.5216 74.6577H113.226C115.022 74.6558 116.744 73.9446 118.014 72.6802C119.284 71.4159 119.998 69.7016 120 67.9135V6.74421C119.998 4.95614 119.284 3.24187 118.014 1.97751C116.744 0.713159 115.022 0.00197637 113.226 0ZM78.3914 86.2192C78.9235 86.2192 79.3548 86.6506 79.3548 87.1827C79.3548 87.7148 78.9235 88.1461 78.3914 88.1461H41.6086C41.0765 88.1461 40.6452 87.7148 40.6452 87.1827C40.6452 86.6506 41.0765 86.2192 41.6086 86.2192H78.3914ZM49.4248 82.3654C48.6744 82.3654 48.2991 82.3654 48.053 82.2083C47.8376 82.0707 47.683 81.8559 47.621 81.608C47.5502 81.3247 47.6693 80.9689 47.9077 80.2573L49.4174 75.7496C49.5489 75.3569 49.6146 75.1606 49.7363 75.0155C49.8437 74.8873 49.9815 74.7881 50.1371 74.727C50.3134 74.6577 50.5204 74.6577 50.9345 74.6577H69.0655C69.4796 74.6577 69.6866 74.6577 69.8629 74.727C70.0185 74.7881 70.1563 74.8873 70.2637 75.0155C70.3854 75.1606 70.4511 75.3569 70.5826 75.7496L72.0923 80.2573C72.3307 80.9689 72.4498 81.3247 72.379 81.608C72.317 81.8559 72.1624 82.0707 71.947 82.2083C71.7009 82.3654 71.3256 82.3654 70.5752 82.3654H49.4248ZM116.129 65.8399C116.129 67.5201 116.129 68.3602 115.802 69.0019C115.514 69.5664 115.055 70.0253 114.491 70.3129C113.849 70.6399 113.009 70.6399 111.329 70.6399H8.67097C6.99081 70.6399 6.15073 70.6399 5.509 70.3129C4.94451 70.0253 4.48557 69.5664 4.19795 69.0019C3.87097 68.3602 3.87097 67.5201 3.87097 65.8399V6.74421C3.87161 5.97783 4.17769 5.24302 4.72201 4.70111C5.26633 4.1592 6.00441 3.85447 6.77419 3.85383H113.226C113.996 3.85447 114.734 4.1592 115.278 4.70111C115.822 5.24302 116.128 5.97783 116.129 6.74421V65.8399Z"
    fill="#002522" />
  <path fill-rule="evenodd" clip-rule="evenodd"
    d="M66.7599 20.3455C64.7566 19.5855 62.5844 19.1694 60.315 19.1694C50.2704 19.1694 42.1277 27.3197 42.1277 37.3736C42.1277 47.4274 50.2704 55.5777 60.315 55.5777C70.3596 55.5777 78.5023 47.4274 78.5023 37.3736C78.5023 37.1685 78.4989 36.9641 78.4922 36.7607L73.8629 42.5243C71.7873 47.9906 66.5044 51.8753 60.315 51.8753C52.3133 51.8753 45.8266 45.3827 45.8266 37.3736C45.8266 29.3645 52.3133 22.8718 60.315 22.8718C61.6925 22.8718 63.0251 23.0642 64.2875 23.4237L66.7599 20.3455Z"
    fill="url(#paint0_linear_1284_32502)" />
  <path fill-rule="evenodd" clip-rule="evenodd"
    d="M77.3866 22.2776C78.1827 22.9182 78.3092 24.0834 77.6693 24.8802L63.3602 42.6953C63.0419 43.0917 62.5747 43.3395 62.0682 43.3806C61.5618 43.4217 61.0608 43.2524 60.6829 42.9126L52.2578 35.3374C51.4979 34.6542 51.4353 33.4838 52.1179 32.7232C52.8004 31.9626 53.9698 31.8999 54.7297 32.5831L61.7014 38.8516L74.7864 22.5604C75.4264 21.7636 76.5906 21.637 77.3866 22.2776Z"
    fill="url(#paint1_linear_1284_32502)" />
  <defs>
    <linearGradient id="paint0_linear_1284_32502" x1="49.4508" y1="55.5776" x2="77.6122" y2="54.0033"
      gradientUnits="userSpaceOnUse">
      <stop stop-color="#22C480" />
      <stop offset="1" stop-color="#2BD78F" />
    </linearGradient>
    <linearGradient id="paint1_linear_1284_32502" x1="52.4229" y1="35.807" x2="58.3197" y2="45.3734"
      gradientUnits="userSpaceOnUse">
      <stop stop-color="#22C480" />
      <stop offset="1" stop-color="#2BD78F" />
    </linearGradient>
  </defs>
</svg>