<svg width="384" height="265" viewBox="0 0 384 265" fill="none" xmlns="http://www.w3.org/2000/svg">
  <g clip-path="url(#clip0_1265_30975)">
    <path d="M0 16C0 7.16344 7.16344 0 16 0H368C376.837 0 384 7.16344 384 16V265H0V16Z" fill="#193330" />
    <path
      d="M33 189C33 186.791 34.7909 185 37 185H127C129.209 185 131 186.791 131 189V221C131 223.209 129.209 225 127 225H37C34.7909 225 33 223.209 33 221V189Z"
      fill="#3A90E9" />
    <path fill-rule="evenodd" clip-rule="evenodd"
      d="M58 204L58 199H56L56 204L51 204V206L56 206L56 211L58 211L58 206L63 206V204L58 204Z" fill="#D08E39" />
    <path
      d="M73.8779 202.792C73.8779 201.912 74.6939 201.336 75.7499 201.336C76.7259 201.336 77.5099 201.832 77.8139 202.84L79.6379 202.52C79.1739 200.6 77.4619 199.64 75.7339 199.64C73.8459 199.64 71.9579 200.792 71.9579 202.92C71.9579 205.256 74.2459 205.688 76.0379 206.2C77.1419 206.504 78.0379 206.936 78.0379 207.928C78.0379 208.92 77.0939 209.448 75.9739 209.448C74.7259 209.448 73.8139 208.808 73.6219 207.8L71.7659 208.12C72.2139 210.072 73.7979 211.16 75.9099 211.16C78.1179 211.16 79.9579 209.96 79.9579 207.768C79.9579 205.352 77.7019 204.872 75.9259 204.408C74.7899 204.104 73.8779 203.72 73.8779 202.792ZM86.4987 202.776C85.2827 202.776 84.4347 203.448 83.9227 204.2V199.48H82.0347V211H83.9227V206.904C83.9227 205.496 84.6107 204.408 85.8907 204.408C87.0427 204.408 87.4747 205.288 87.4747 206.28V211H89.3627V205.832C89.3627 204.248 88.2907 202.776 86.4987 202.776ZM94.9026 202.76C93.2386 202.76 91.7506 203.72 91.4466 205.304L93.2066 205.592C93.3026 204.84 93.9906 204.312 94.8226 204.312C95.6866 204.312 96.4226 204.792 96.4226 205.72V205.96C94.6626 205.96 91.2706 206.152 91.2706 208.68C91.2706 210.152 92.4066 211.16 93.8946 211.16C95.0466 211.16 95.8306 210.728 96.4226 209.864V211H98.2946V205.848C98.2946 203.864 96.8226 202.76 94.9026 202.76ZM96.4226 207.592C96.4226 208.712 95.5746 209.688 94.4386 209.688C93.6866 209.688 93.1266 209.304 93.1266 208.664C93.1266 207.224 95.9426 207.288 96.4226 207.272V207.592ZM105.387 202.792C105.163 202.776 104.987 202.776 104.795 202.792C103.739 202.84 103.035 203.304 102.475 204.264V202.936H100.587V211H102.475V207.048C102.475 205.048 103.771 204.264 105.387 204.472V202.792ZM114.293 207.064C114.293 204.632 112.789 202.76 110.357 202.76C107.925 202.76 106.325 204.568 106.325 206.968C106.325 209.4 107.973 211.16 110.405 211.16C112.069 211.16 113.413 210.376 114.101 208.76L112.357 208.44C111.973 209.24 111.285 209.592 110.405 209.592C109.173 209.592 108.229 208.792 108.133 207.528H114.261C114.293 207.384 114.293 207.224 114.293 207.064ZM108.197 206.136C108.373 205 109.221 204.264 110.341 204.264C111.429 204.264 112.325 205 112.421 206.136H108.197Z"
      fill="white" />
    <path fill-rule="evenodd" clip-rule="evenodd"
      d="M179 205V209H183V205H179ZM178 203C177.448 203 177 203.448 177 204V210C177 210.552 177.448 211 178 211H184C184.552 211 185 210.552 185 210V204C185 203.448 184.552 203 184 203H178Z"
      fill="#D08E39" />
    <path fill-rule="evenodd" clip-rule="evenodd"
      d="M181 200C181 199.448 181.448 199 182 199H188C188.552 199 189 199.448 189 200V206C189 206.552 188.552 207 188 207H187V205V201H183H181V200Z"
      fill="#D08E39" />
    <path
      d="M203.469 209.464C201.309 209.464 199.965 207.704 199.965 205.384C199.965 203.08 201.309 201.336 203.453 201.336C204.973 201.336 206.077 202.2 206.525 203.544L208.445 203.192C207.837 201.032 205.901 199.64 203.421 199.64C200.125 199.64 198.013 202.056 198.013 205.4C198.013 208.744 200.141 211.16 203.469 211.16C205.949 211.16 207.853 209.832 208.509 207.608L206.589 207.256C206.125 208.6 204.973 209.464 203.469 209.464ZM214.415 202.776C211.951 202.776 210.239 204.488 210.239 206.968C210.239 209.448 211.935 211.16 214.415 211.16C216.895 211.16 218.591 209.464 218.591 206.968C218.591 204.488 216.879 202.776 214.415 202.776ZM214.415 209.544C212.959 209.544 212.143 208.408 212.143 206.968C212.143 205.528 212.959 204.392 214.415 204.392C215.887 204.392 216.687 205.528 216.687 206.968C216.687 208.408 215.887 209.544 214.415 209.544ZM220.619 214.52H222.491V209.88C223.067 210.696 224.091 211.16 225.211 211.16C227.435 211.16 228.891 209.32 228.891 206.984C228.891 204.696 227.467 202.776 225.211 202.776C224.091 202.776 223.067 203.256 222.491 204.088V202.936H220.619V214.52ZM222.475 206.968C222.475 205.56 223.291 204.408 224.731 204.408C226.123 204.408 227.003 205.464 227.003 206.968C227.003 208.488 226.139 209.544 224.747 209.544C223.291 209.544 222.475 208.392 222.475 206.968ZM235.829 202.936L233.957 208.536L231.989 202.936H229.989L233.013 210.568L231.413 214.52H233.413L237.829 202.936H235.829ZM247.985 204.504V202.936H246.225V200.488L244.385 200.808V202.936H243.073V204.504H244.369V208.648C244.369 210.408 245.297 211.16 246.977 211.16C247.281 211.16 247.713 211.128 248.017 211.064V209.352C247.793 209.432 247.553 209.48 247.313 209.48C246.401 209.48 246.241 209.096 246.241 208.2V204.504H247.985ZM253.581 202.776C251.117 202.776 249.405 204.488 249.405 206.968C249.405 209.448 251.101 211.16 253.581 211.16C256.061 211.16 257.757 209.464 257.757 206.968C257.757 204.488 256.045 202.776 253.581 202.776ZM253.581 209.544C252.125 209.544 251.309 208.408 251.309 206.968C251.309 205.528 252.125 204.392 253.581 204.392C255.053 204.392 255.853 205.528 255.853 206.968C255.853 208.408 255.053 209.544 253.581 209.544ZM267.742 209.544C266.254 209.544 265.534 208.344 265.534 206.968C265.534 205.576 266.254 204.408 267.742 204.408C268.718 204.408 269.47 205.032 269.694 205.96L271.502 205.64C271.182 203.88 269.47 202.776 267.774 202.776C265.326 202.776 263.646 204.552 263.646 206.968C263.646 209.384 265.326 211.16 267.774 211.16C269.486 211.16 271.182 210.072 271.502 208.296L269.694 207.976C269.47 208.92 268.718 209.544 267.742 209.544ZM275.383 211V199.48H273.495V211H275.383ZM278.811 201.448C279.467 201.448 279.979 200.936 279.979 200.28C279.979 199.624 279.467 199.112 278.811 199.112C278.155 199.112 277.643 199.624 277.643 200.28C277.643 200.936 278.155 201.448 278.811 201.448ZM279.755 211V202.936H277.867V211H279.755ZM282.236 214.52H284.108V209.88C284.684 210.696 285.708 211.16 286.828 211.16C289.052 211.16 290.508 209.32 290.508 206.984C290.508 204.696 289.084 202.776 286.828 202.776C285.708 202.776 284.684 203.256 284.108 204.088V202.936H282.236V214.52ZM284.092 206.968C284.092 205.56 284.908 204.408 286.348 204.408C287.74 204.408 288.62 205.464 288.62 206.968C288.62 208.488 287.756 209.544 286.364 209.544C284.908 209.544 284.092 208.392 284.092 206.968ZM292.544 211H294.416V209.848C294.976 210.696 296.048 211.16 297.152 211.16C299.392 211.16 300.816 209.256 300.816 206.952C300.816 204.632 299.36 202.776 297.136 202.776C296.016 202.776 294.992 203.256 294.416 204.056V199.48H292.544V211ZM294.4 206.968C294.4 205.544 295.216 204.408 296.672 204.408C298.064 204.408 298.928 205.464 298.928 206.968C298.928 208.488 298.048 209.544 296.656 209.544C295.216 209.544 294.4 208.392 294.4 206.968ZM306.629 202.776C304.165 202.776 302.453 204.488 302.453 206.968C302.453 209.448 304.149 211.16 306.629 211.16C309.109 211.16 310.805 209.464 310.805 206.968C310.805 204.488 309.093 202.776 306.629 202.776ZM306.629 209.544C305.173 209.544 304.357 208.408 304.357 206.968C304.357 205.528 305.173 204.392 306.629 204.392C308.101 204.392 308.901 205.528 308.901 206.968C308.901 208.408 308.101 209.544 306.629 209.544ZM316.033 202.76C314.369 202.76 312.881 203.72 312.577 205.304L314.337 205.592C314.433 204.84 315.121 204.312 315.953 204.312C316.817 204.312 317.553 204.792 317.553 205.72V205.96C315.793 205.96 312.401 206.152 312.401 208.68C312.401 210.152 313.537 211.16 315.025 211.16C316.177 211.16 316.961 210.728 317.553 209.864V211H319.425V205.848C319.425 203.864 317.953 202.76 316.033 202.76ZM317.553 207.592C317.553 208.712 316.705 209.688 315.569 209.688C314.817 209.688 314.257 209.304 314.257 208.664C314.257 207.224 317.073 207.288 317.553 207.272V207.592ZM326.517 202.792C326.293 202.776 326.117 202.776 325.925 202.792C324.869 202.84 324.165 203.304 323.605 204.264V202.936H321.717V211H323.605V207.048C323.605 205.048 324.901 204.264 326.517 204.472V202.792ZM335.743 199.48H333.871V204.056C333.295 203.256 332.271 202.776 331.151 202.776C328.927 202.776 327.471 204.632 327.471 206.952C327.471 209.256 328.895 211.16 331.135 211.16C332.239 211.16 333.311 210.696 333.871 209.848V211H335.743V199.48ZM333.887 206.968C333.887 208.392 333.071 209.544 331.631 209.544C330.239 209.544 329.359 208.488 329.359 206.968C329.359 205.464 330.223 204.408 331.615 204.408C333.071 204.408 333.887 205.544 333.887 206.968Z"
      fill="#D08E39" />
    <path
      d="M163 187H349V183H163V187ZM351 189V221H355V189H351ZM349 223H163V227H349V223ZM161 221V189H157V221H161ZM163 223C161.895 223 161 222.105 161 221H157C157 224.314 159.686 227 163 227V223ZM351 221C351 222.105 350.105 223 349 223V227C352.314 227 355 224.314 355 221H351ZM349 187C350.105 187 351 187.895 351 189H355C355 185.686 352.314 183 349 183V187ZM163 183C159.686 183 157 185.686 157 189H161C161 187.895 161.895 187 163 187V183Z"
      fill="#D08E39" />
    <path
      d="M64 200C63.4 200.3 62.8 200.4 62.1 200.5C62.8 200.1 63.3 199.5 63.5 198.7C62.9 199.1 62.2 199.3 61.4 199.5C60.8 198.9 59.9 198.5 59 198.5C56.9 198.5 55.3 200.5 55.8 202.5C53.1 202.4 50.7 201.1 49 199.1C48.1 200.6 48.6 202.5 50 203.5C49.5 203.5 49 203.3 48.5 203.1C48.5 204.6 49.6 206 51.1 206.4C50.6 206.5 50.1 206.6 49.6 206.5C50 207.8 51.2 208.8 52.7 208.8C51.5 209.7 49.7 210.2 48 210C49.5 210.9 51.2 211.5 53 211.5C59.1 211.5 62.5 206.4 62.3 201.7C63 201.3 63.6 200.7 64 200Z"
      fill="white" />
    <path
      d="M41 151.8L37.976 157.192L34.952 151.8H33.416L37.304 158.568V163H38.648V158.568L42.536 151.8H41ZM46.3156 154.84C43.8836 154.84 42.2196 156.616 42.2196 159C42.2196 161.384 43.8836 163.16 46.3156 163.16C48.7316 163.16 50.3796 161.384 50.3796 159C50.3796 156.616 48.7156 154.84 46.3156 154.84ZM46.2996 161.992C44.5716 161.992 43.5316 160.728 43.5316 159C43.5316 157.272 44.5716 156.008 46.2996 156.008C48.0276 156.008 49.0676 157.272 49.0676 159C49.0676 160.728 48.0276 161.992 46.2996 161.992ZM55.1101 163.16C56.1821 163.16 57.1901 162.568 57.7341 161.64V163H59.0141V155H57.7341V159.128C57.7341 160.584 56.9181 161.992 55.3341 161.992C54.1341 161.992 53.4461 161.096 53.4461 159.928V155H52.1661V160.232C52.1661 161.864 53.5101 163.16 55.1101 163.16ZM65.4846 154.872C65.3086 154.84 65.1646 154.84 65.0206 154.84C63.8686 154.84 63.1006 155.352 62.5406 156.344V155H61.2606V163H62.5406V158.92C62.5406 157.048 63.5646 155.848 65.4846 156.024V154.872ZM72.4171 163V151.48H71.1371V163H72.4171ZM75.4978 153.064C75.9938 153.064 76.3778 152.68 76.3778 152.184C76.3778 151.688 75.9938 151.304 75.4978 151.304C75.0018 151.304 74.6178 151.688 74.6178 152.184C74.6178 152.68 75.0018 153.064 75.4978 153.064ZM76.1378 163V155H74.8578V163H76.1378ZM82.4463 154.84C81.3743 154.84 80.3503 155.432 79.8063 156.36V155H78.5263V163H79.8063V158.872C79.8063 157.416 80.6223 156.008 82.2223 156.008C83.4543 156.008 84.1263 156.904 84.1263 158.072V163H85.4062V157.768C85.4062 156.152 84.0463 154.84 82.4463 154.84ZM91.076 158.264L94.356 155H92.644L88.964 158.68V151.48H87.684V163H88.964V160.36L90.212 159.112L93.076 163H94.628L91.076 158.264ZM97.0086 156.584C97.5366 156.584 97.9846 156.136 97.9846 155.592C97.9846 155.064 97.5366 154.616 97.0086 154.616C96.4646 154.616 96.0166 155.064 96.0166 155.592C96.0166 156.136 96.4646 156.584 97.0086 156.584ZM97.0086 163.032C97.5366 163.032 97.9846 162.584 97.9846 162.04C97.9846 161.512 97.5366 161.064 97.0086 161.064C96.4646 161.064 96.0166 161.512 96.0166 162.04C96.0166 162.584 96.4646 163.032 97.0086 163.032Z"
      fill="#F1F6F6" />
    <path
      d="M108.028 156.072V155H106.284V152.744L105.036 152.952V155H103.74V156.072H105.02V160.84C105.02 162.28 105.66 163.16 107.164 163.16C107.468 163.16 107.788 163.128 108.092 163.064V161.896C107.868 161.976 107.628 162.008 107.404 162.008C106.412 162.008 106.3 161.544 106.3 160.648V156.072H108.028ZM112.708 154.824C111.012 154.824 109.604 155.8 109.348 157.336L110.612 157.544C110.756 156.6 111.636 155.976 112.628 155.976C113.62 155.976 114.628 156.504 114.628 157.768V158.024C112.932 158.024 109.188 158.024 109.188 160.696C109.188 162.152 110.308 163.16 111.844 163.16C113.22 163.16 113.988 162.632 114.628 161.656V163H115.908V157.816C115.908 155.928 114.58 154.824 112.708 154.824ZM114.628 159.48C114.628 160.808 113.588 162.008 112.18 162.008C111.284 162.008 110.468 161.56 110.468 160.712C110.468 158.872 114.244 159.064 114.628 159.048V159.48ZM119.464 163V151.48H118.184V163H119.464ZM123.105 163V151.48H121.825V163H123.105ZM130.649 155L128.425 161.208L126.041 155H124.697L127.801 162.664L126.281 166.52H127.657L131.993 155H130.649ZM133.571 163.048C134.099 163.048 134.547 162.6 134.547 162.056C134.547 161.512 134.099 161.064 133.571 161.064C133.027 161.064 132.579 161.512 132.579 162.056C132.579 162.6 133.027 163.048 133.571 163.048ZM140.126 161.992C138.366 161.992 137.422 160.696 137.422 159C137.422 157.304 138.366 156.008 140.126 156.008C141.246 156.008 142.158 156.68 142.446 157.768L143.694 157.544C143.326 155.896 141.742 154.84 140.141 154.84C137.726 154.84 136.142 156.632 136.142 159C136.142 161.368 137.726 163.16 140.141 163.16C141.758 163.16 143.326 162.12 143.694 160.456L142.446 160.232C142.158 161.32 141.246 161.992 140.126 161.992ZM148.583 154.824C146.887 154.824 145.479 155.8 145.223 157.336L146.487 157.544C146.631 156.6 147.511 155.976 148.503 155.976C149.495 155.976 150.503 156.504 150.503 157.768V158.024C148.807 158.024 145.063 158.024 145.063 160.696C145.063 162.152 146.183 163.16 147.719 163.16C149.095 163.16 149.863 162.632 150.503 161.656V163H151.783V157.816C151.783 155.928 150.455 154.824 148.583 154.824ZM150.503 159.48C150.503 160.808 149.463 162.008 148.055 162.008C147.159 162.008 146.343 161.56 146.343 160.712C146.343 158.872 150.119 159.064 150.503 159.048V159.48ZM154.923 157.096C154.923 156.296 155.803 155.944 156.539 155.944C157.355 155.944 158.075 156.392 158.267 157.208L159.515 157C159.259 155.576 157.867 154.808 156.523 154.808C155.083 154.808 153.675 155.704 153.675 157.208C153.675 158.824 155.291 159.304 156.683 159.592C157.691 159.8 158.475 160.04 158.475 160.824C158.475 161.752 157.403 162.008 156.683 162.008C155.723 162.008 154.987 161.56 154.763 160.584L153.515 160.792C153.739 162.424 155.243 163.16 156.731 163.16C158.235 163.16 159.755 162.392 159.755 160.776C159.755 159.032 157.979 158.6 156.939 158.392C155.803 158.168 154.923 157.896 154.923 157.096ZM165.511 154.84C164.151 154.84 163.239 155.736 162.823 156.456V151.48H161.543V163H162.823V158.968C162.823 157.304 163.815 156.008 165.255 156.008C166.487 156.008 167.143 156.936 167.143 158.072V163H168.423V157.768C168.423 156.344 167.255 154.84 165.511 154.84ZM169.804 164.776L171.052 165L175.1 151.08L173.868 150.872L169.804 164.776ZM180.735 154.872C180.559 154.84 180.415 154.84 180.271 154.84C179.119 154.84 178.351 155.352 177.791 156.344V155H176.511V163H177.791V158.92C177.791 157.048 178.815 155.848 180.735 156.024V154.872ZM189.043 159.144C189.043 156.728 187.635 154.824 185.203 154.824C182.803 154.824 181.267 156.648 181.267 159.016C181.267 161.4 182.851 163.16 185.266 163.16C186.931 163.16 188.163 162.344 188.867 160.792L187.619 160.568C187.155 161.544 186.339 162.008 185.251 162.008C183.699 162.008 182.595 160.952 182.531 159.416H189.027C189.043 159.336 189.043 159.224 189.043 159.144ZM182.579 158.328C182.771 156.904 183.747 155.944 185.203 155.944C186.579 155.944 187.635 156.92 187.731 158.328H182.579ZM194.422 155H192.694V153.816C192.694 152.984 192.966 152.648 193.558 152.52C193.974 152.44 194.47 152.536 194.486 152.552V151.384C194.47 151.368 194.134 151.32 193.702 151.32C192.022 151.32 191.414 152.44 191.414 153.96V155H190.134V156.072H191.414V163H192.694V156.072H194.422V155ZM203.136 159.144C203.136 156.728 201.728 154.824 199.296 154.824C196.896 154.824 195.36 156.648 195.36 159.016C195.36 161.4 196.944 163.16 199.36 163.16C201.024 163.16 202.256 162.344 202.96 160.792L201.712 160.568C201.248 161.544 200.432 162.008 199.344 162.008C197.792 162.008 196.688 160.952 196.624 159.416H203.12C203.136 159.336 203.136 159.224 203.136 159.144ZM196.672 158.328C196.864 156.904 197.84 155.944 199.296 155.944C200.672 155.944 201.728 156.92 201.824 158.328H196.672ZM209.188 154.872C209.012 154.84 208.868 154.84 208.724 154.84C207.572 154.84 206.804 155.352 206.244 156.344V155H204.964V163H206.244V158.92C206.244 157.048 207.268 155.848 209.188 156.024V154.872ZM214.844 154.872C214.668 154.84 214.524 154.84 214.38 154.84C213.228 154.84 212.46 155.352 211.9 156.344V155H210.62V163H211.9V158.92C211.9 157.048 212.924 155.848 214.844 156.024V154.872ZM219.224 154.824C217.528 154.824 216.12 155.8 215.864 157.336L217.128 157.544C217.272 156.6 218.152 155.976 219.144 155.976C220.136 155.976 221.144 156.504 221.144 157.768V158.024C219.448 158.024 215.704 158.024 215.704 160.696C215.704 162.152 216.824 163.16 218.36 163.16C219.736 163.16 220.504 162.632 221.144 161.656V163H222.424V157.816C222.424 155.928 221.096 154.824 219.224 154.824ZM221.144 159.48C221.144 160.808 220.104 162.008 218.696 162.008C217.8 162.008 216.984 161.56 216.984 160.712C216.984 158.872 220.76 159.064 221.144 159.048V159.48ZM225.98 163V151.48H224.7V163H225.98ZM227.132 164.776L228.38 165L232.428 151.08L231.196 150.872L227.132 164.776ZM235.087 163.048C235.615 163.048 236.063 162.6 236.063 162.056C236.063 161.512 235.615 161.064 235.087 161.064C234.543 161.064 234.095 161.512 234.095 162.056C234.095 162.6 234.543 163.048 235.087 163.048ZM239.806 163.048C240.334 163.048 240.782 162.6 240.782 162.056C240.782 161.512 240.334 161.064 239.806 161.064C239.262 161.064 238.814 161.512 238.814 162.056C238.814 162.6 239.262 163.048 239.806 163.048ZM244.524 163.048C245.052 163.048 245.5 162.6 245.5 162.056C245.5 161.512 245.052 161.064 244.524 161.064C243.98 161.064 243.532 161.512 243.532 162.056C243.532 162.6 243.98 163.048 244.524 163.048ZM251.928 161.928C249.432 161.928 247.912 159.928 247.912 157.4C247.912 154.872 249.432 152.872 251.944 152.872C253.64 152.872 254.872 153.784 255.416 155.144L256.744 154.904C256.024 152.872 254.184 151.64 251.912 151.64C248.648 151.64 246.568 154.152 246.568 157.4C246.568 160.648 248.648 163.16 251.976 163.16C254.232 163.16 256.056 161.992 256.808 159.896L255.48 159.656C254.92 161.032 253.592 161.928 251.928 161.928ZM258.601 153.032H260.457V163H261.769V151.8H258.601V153.032ZM264.898 153.032H266.754V163H268.066V151.8H264.898V153.032ZM278.683 159.144C278.683 156.728 277.275 154.824 274.843 154.824C272.443 154.824 270.907 156.648 270.907 159.016C270.907 161.4 272.491 163.16 274.907 163.16C276.571 163.16 277.803 162.344 278.507 160.792L277.259 160.568C276.795 161.544 275.979 162.008 274.891 162.008C273.339 162.008 272.235 160.952 272.171 159.416H278.667C278.683 159.336 278.683 159.224 278.683 159.144ZM272.219 158.328C272.411 156.904 273.387 155.944 274.843 155.944C276.219 155.944 277.275 156.92 277.371 158.328H272.219ZM284.431 151.64C281.199 151.64 280.319 154.744 280.319 157.4C280.319 160.056 281.199 163.16 284.431 163.16C287.663 163.16 288.543 160.056 288.543 157.4C288.543 154.744 287.663 151.64 284.431 151.64ZM284.431 161.928C281.967 161.928 281.663 159.304 281.663 157.4C281.663 155.496 281.967 152.872 284.431 152.872C286.879 152.872 287.199 155.496 287.199 157.4C287.199 159.304 286.879 161.928 284.431 161.928ZM294.077 159.208C294.493 159.208 295.069 159.096 295.421 158.872L292.429 162.984L293.805 163.24C294.749 161.928 295.981 160.28 296.925 158.904C297.645 157.864 298.125 156.728 298.125 155.48C298.125 153.272 296.381 151.64 294.205 151.64C292.013 151.64 290.269 153.16 290.269 155.4C290.269 157.56 291.965 159.208 294.077 159.208ZM294.173 152.872C295.613 152.872 296.813 153.944 296.813 155.416C296.813 156.888 295.597 157.976 294.157 157.976C292.701 157.976 291.581 156.872 291.581 155.416C291.581 153.96 292.733 152.872 294.173 152.872ZM300.856 151.8L300.472 157.64L301.704 158.072C302.184 157.384 303 156.984 303.864 156.984C305.256 156.984 306.296 158.024 306.296 159.448C306.296 160.904 305.224 161.928 303.832 161.928C302.648 161.928 301.752 161.176 301.448 160.12L300.104 160.36C300.568 162.024 301.96 163.16 303.8 163.16C305.928 163.16 307.608 161.64 307.608 159.464C307.608 157.352 306.008 155.752 304.024 155.752C303.192 155.752 302.392 156.04 301.8 156.536L302.008 153.032H306.84V151.8H300.856ZM309.398 153.032H311.254V163H312.566V151.8H309.398V153.032ZM315.503 151.8V153.032H320.831L316.751 162.984L318.031 163.208L322.159 153.032V151.8H315.503ZM330.39 157.016C331.414 156.504 331.862 155.72 331.862 154.696C331.862 152.984 330.63 151.8 328.438 151.8H324.406V163H328.71C330.838 163 332.342 161.672 332.342 159.864C332.342 158.584 331.574 157.4 330.39 157.016ZM325.75 153.032H328.406C329.686 153.032 330.518 153.624 330.518 154.728C330.518 155.784 329.75 156.504 328.63 156.504H325.75V153.032ZM328.662 161.768H325.75V157.736H328.822C330.07 157.736 330.998 158.632 330.998 159.832C330.998 161.048 330.022 161.768 328.662 161.768ZM341.271 153.032V151.8H334.359V163H335.703V158.168H340.631V156.968H335.703V153.032H341.271Z"
      fill="#99A8A7" />
    <rect x="16" y="16" width="352" height="96" rx="12" fill="#002522" />
    <path
      d="M166.476 29.2V30.488H169.528V39H170.97V30.488H174.022V29.2H166.476ZM177.374 31.832C175.218 31.832 173.748 33.358 173.748 35.486C173.748 37.614 175.218 39.14 177.374 39.14C179.502 39.14 180.972 37.614 180.972 35.486C180.972 33.358 179.488 31.832 177.374 31.832ZM177.36 37.922C175.96 37.922 175.162 36.872 175.162 35.486C175.162 34.1 175.96 33.05 177.36 33.05C178.76 33.05 179.558 34.1 179.558 35.486C179.558 36.872 178.76 37.922 177.36 37.922ZM186.161 33.12V31.972H184.635V29.914L183.277 30.152V31.972H182.143V33.12H183.263V37.026C183.263 38.426 183.949 39.14 185.349 39.14C185.615 39.14 185.937 39.112 186.203 39.056V37.796C186.007 37.866 185.797 37.894 185.587 37.894C184.761 37.894 184.649 37.53 184.649 36.746V33.12H186.161ZM190.643 31.818C189.173 31.818 187.913 32.658 187.661 34.03L188.991 34.254C189.103 33.498 189.789 32.994 190.573 32.994C191.399 32.994 192.155 33.442 192.155 34.394V34.618C190.643 34.618 187.521 34.702 187.521 36.984C187.521 38.258 188.515 39.14 189.831 39.14C190.937 39.14 191.623 38.72 192.155 37.922V39H193.541V34.478C193.541 32.784 192.309 31.818 190.643 31.818ZM192.155 35.976C192.155 37.04 191.329 37.992 190.209 37.992C189.495 37.992 188.893 37.628 188.893 36.97C188.893 35.542 191.777 35.654 192.155 35.64V35.976ZM197.156 39V28.92H195.77V39H197.156ZM203.351 39H204.737V37.908C205.241 38.692 206.193 39.14 207.215 39.14C209.161 39.14 210.477 37.516 210.477 35.472C210.477 33.414 209.147 31.832 207.201 31.832C206.165 31.832 205.255 32.294 204.737 33.05V28.92H203.351V39ZM204.723 35.486C204.723 34.128 205.521 33.05 206.921 33.05C208.237 33.05 209.091 34.016 209.091 35.486C209.091 36.956 208.237 37.922 206.921 37.922C205.521 37.922 204.723 36.844 204.723 35.486ZM215.646 31.832C213.49 31.832 212.02 33.358 212.02 35.486C212.02 37.614 213.49 39.14 215.646 39.14C217.774 39.14 219.244 37.614 219.244 35.486C219.244 33.358 217.76 31.832 215.646 31.832ZM215.632 37.922C214.232 37.922 213.434 36.872 213.434 35.486C213.434 34.1 214.232 33.05 215.632 33.05C217.032 33.05 217.83 34.1 217.83 35.486C217.83 36.872 217.032 37.922 215.632 37.922ZM224.755 31.832C223.831 31.832 222.991 32.308 222.501 33.092V31.972H221.115V39H222.501V35.374C222.501 34.212 223.103 33.05 224.405 33.05C225.441 33.05 225.945 33.82 225.945 34.772V39H227.331V34.45C227.331 33.008 226.211 31.832 224.755 31.832ZM232.026 39.14C232.95 39.14 233.79 38.664 234.28 37.88V39H235.666V31.972H234.28V35.598C234.28 36.76 233.678 37.922 232.376 37.922C231.368 37.922 230.85 37.152 230.85 36.2V31.972H229.478V36.522C229.478 37.978 230.57 39.14 232.026 39.14ZM238.933 33.848C238.933 33.246 239.591 32.952 240.179 32.952C240.851 32.952 241.397 33.33 241.537 33.96L242.867 33.736C242.615 32.504 241.411 31.804 240.179 31.804C238.849 31.804 237.603 32.644 237.603 33.974C237.603 35.304 238.877 35.766 240.347 36.088C241.019 36.242 241.719 36.424 241.719 37.068C241.719 37.754 240.921 37.992 240.319 37.992C239.535 37.992 238.975 37.6 238.821 36.844L237.477 37.068C237.673 38.468 238.961 39.14 240.347 39.14C241.761 39.14 243.077 38.426 243.077 37.012C243.077 35.556 241.677 35.122 240.417 34.856C239.689 34.702 238.933 34.492 238.933 33.848ZM252.679 31.86C252.511 31.832 252.357 31.832 252.217 31.846C251.251 31.86 250.607 32.28 250.117 33.148V31.972H248.731V39H250.117V35.486C250.117 33.792 251.139 32.924 252.679 33.092V31.86ZM260.433 35.598C260.433 33.47 259.159 31.818 257.031 31.818C254.917 31.818 253.545 33.414 253.545 35.5C253.545 37.6 254.959 39.14 257.073 39.14C258.529 39.14 259.663 38.44 260.279 37.054L258.963 36.816C258.585 37.586 257.927 37.95 257.073 37.95C255.855 37.95 254.959 37.138 254.889 35.906H260.419C260.433 35.808 260.433 35.696 260.433 35.598ZM254.945 34.828C255.099 33.708 255.897 32.966 257.031 32.966C258.095 32.966 258.949 33.708 259.047 34.828H254.945ZM265.505 37.922C264.091 37.922 263.363 36.83 263.363 35.486C263.363 34.142 264.091 33.05 265.519 33.05C266.429 33.05 267.157 33.624 267.381 34.506L268.725 34.268C268.417 32.77 266.975 31.832 265.533 31.832C263.405 31.832 261.977 33.4 261.977 35.486C261.977 37.586 263.405 39.14 265.533 39.14C266.989 39.14 268.417 38.202 268.725 36.704L267.381 36.466C267.157 37.348 266.429 37.922 265.505 37.922ZM277.119 35.598C277.119 33.47 275.845 31.818 273.717 31.818C271.603 31.818 270.231 33.414 270.231 35.5C270.231 37.6 271.645 39.14 273.759 39.14C275.215 39.14 276.349 38.44 276.965 37.054L275.649 36.816C275.271 37.586 274.613 37.95 273.759 37.95C272.541 37.95 271.645 37.138 271.575 35.906H277.105C277.119 35.808 277.119 35.696 277.119 35.598ZM271.631 34.828C271.785 33.708 272.583 32.966 273.717 32.966C274.781 32.966 275.635 33.708 275.733 34.828H271.631ZM279.797 30.474C280.315 30.474 280.707 30.082 280.707 29.578C280.707 29.074 280.315 28.682 279.797 28.682C279.293 28.682 278.915 29.074 278.915 29.578C278.915 30.082 279.293 30.474 279.797 30.474ZM280.497 39V31.972H279.111V39H280.497ZM287.401 31.972L285.525 37.376L283.649 31.972H282.221L284.839 39H286.225L288.829 31.972H287.401ZM296.781 35.598C296.781 33.47 295.507 31.818 293.379 31.818C291.265 31.818 289.893 33.414 289.893 35.5C289.893 37.6 291.307 39.14 293.421 39.14C294.877 39.14 296.011 38.44 296.627 37.054L295.311 36.816C294.933 37.586 294.275 37.95 293.421 37.95C292.203 37.95 291.307 37.138 291.237 35.906H296.767C296.781 35.808 296.781 35.696 296.781 35.598ZM291.293 34.828C291.447 33.708 292.245 32.966 293.379 32.966C294.443 32.966 295.297 33.708 295.395 34.828H291.293ZM305.465 28.92H304.079V33.05C303.561 32.294 302.651 31.832 301.615 31.832C299.669 31.832 298.339 33.414 298.339 35.472C298.339 37.516 299.655 39.14 301.601 39.14C302.623 39.14 303.575 38.692 304.079 37.908V39H305.465V28.92ZM304.093 35.486C304.093 36.844 303.295 37.922 301.895 37.922C300.579 37.922 299.725 36.956 299.725 35.486C299.725 34.016 300.579 33.05 301.895 33.05C303.295 33.05 304.093 34.128 304.093 35.486ZM312.664 33.848C312.664 33.246 313.322 32.952 313.91 32.952C314.582 32.952 315.128 33.33 315.268 33.96L316.598 33.736C316.346 32.504 315.142 31.804 313.91 31.804C312.58 31.804 311.334 32.644 311.334 33.974C311.334 35.304 312.608 35.766 314.078 36.088C314.75 36.242 315.45 36.424 315.45 37.068C315.45 37.754 314.652 37.992 314.05 37.992C313.266 37.992 312.706 37.6 312.552 36.844L311.208 37.068C311.404 38.468 312.692 39.14 314.078 39.14C315.492 39.14 316.808 38.426 316.808 37.012C316.808 35.556 315.408 35.122 314.148 34.856C313.42 34.702 312.664 34.492 312.664 33.848ZM321.873 31.832C319.717 31.832 318.247 33.358 318.247 35.486C318.247 37.614 319.717 39.14 321.873 39.14C324.001 39.14 325.471 37.614 325.471 35.486C325.471 33.358 323.987 31.832 321.873 31.832ZM321.859 37.922C320.459 37.922 319.661 36.872 319.661 35.486C319.661 34.1 320.459 33.05 321.859 33.05C323.259 33.05 324.057 34.1 324.057 35.486C324.057 36.872 323.259 37.922 321.859 37.922ZM334.666 31.972H333.154V31.132C333.154 30.404 333.35 30.124 333.924 30.026C334.26 29.97 334.652 30.054 334.708 30.082V28.836C334.624 28.822 334.302 28.78 333.91 28.78C332.342 28.78 331.768 29.718 331.768 31.146V31.972H330.648V33.12H331.768V39H333.154V33.12H334.666V31.972ZM338.857 31.818C337.387 31.818 336.127 32.658 335.875 34.03L337.205 34.254C337.317 33.498 338.003 32.994 338.787 32.994C339.613 32.994 340.369 33.442 340.369 34.394V34.618C338.857 34.618 335.735 34.702 335.735 36.984C335.735 38.258 336.729 39.14 338.045 39.14C339.151 39.14 339.837 38.72 340.369 37.922V39H341.755V34.478C341.755 32.784 340.523 31.818 338.857 31.818ZM340.369 35.976C340.369 37.04 339.543 37.992 338.423 37.992C337.709 37.992 337.107 37.628 337.107 36.97C337.107 35.542 339.991 35.654 340.369 35.64V35.976ZM347.877 31.86C347.709 31.832 347.555 31.832 347.415 31.846C346.449 31.86 345.805 32.28 345.315 33.148V31.972H343.929V39H345.315V35.486C345.315 33.792 346.337 32.924 347.877 33.092V31.86Z"
      fill="#99A8A7" />
    <path
      d="M43.5533 37.1053L43.9916 32.3763C44.0037 32.2888 44.1133 32.2888 44.1255 32.3763L44.5637 37.1053C44.6002 37.5182 44.9289 37.8435 45.3306 37.8685L51.0276 38.2188C51.1128 38.2188 51.1128 38.3564 51.0276 38.3564L45.3184 38.7192C44.9167 38.7442 44.5881 39.0695 44.5515 39.4824L44.1133 44.2114C44.1011 44.2989 43.9916 44.2989 43.9794 44.2114L43.5412 39.4824C43.5047 39.0695 43.176 38.7442 42.7743 38.7192L37.0773 38.3689C36.9921 38.3689 36.9921 38.2313 37.0773 38.2313L42.7864 37.8685C43.1882 37.8435 43.5047 37.5182 43.5533 37.1053Z"
      fill="#F6E8D7" />
    <path
      d="M110.477 95.2833L111.05 89.5355C111.066 89.4291 111.209 89.4291 111.225 89.5355L111.799 95.2833C111.847 95.7851 112.277 96.1804 112.802 96.2108L120.257 96.6366C120.369 96.6366 120.369 96.8039 120.257 96.8039L112.786 97.2448C112.261 97.2752 111.831 97.6706 111.783 98.1724L111.209 103.92C111.193 104.027 111.05 104.027 111.034 103.92L110.461 98.1724C110.413 97.6706 109.983 97.2752 109.457 97.2448L102.002 96.8191C101.89 96.8191 101.89 96.6518 102.002 96.6518L109.473 96.2108C109.999 96.1804 110.413 95.7851 110.477 95.2833Z"
      fill="#F6E8D7" />
    <path
      d="M115.267 29.0507L115.78 24.0693C115.794 23.9771 115.923 23.9771 115.937 24.0693L116.45 29.0507C116.493 29.4856 116.878 29.8282 117.348 29.8546L124.018 30.2236C124.118 30.2236 124.118 30.3685 124.018 30.3685L117.334 30.7507C116.863 30.7771 116.478 31.1197 116.436 31.5546L115.923 36.536C115.908 36.6282 115.78 36.6282 115.766 36.536L115.253 31.5546C115.21 31.1197 114.825 30.7771 114.355 30.7507L107.684 30.3817C107.585 30.3817 107.585 30.2368 107.684 30.2368L114.369 29.8546C114.839 29.8282 115.21 29.4856 115.267 29.0507Z"
      fill="#22C480" />
    <path
      d="M28.0884 79.4679L28.4808 75.2529C28.4917 75.1748 28.5897 75.1748 28.6006 75.2529L28.993 79.4679C29.0257 79.8359 29.32 80.1258 29.6797 80.1481L34.7806 80.4603C34.8568 80.4603 34.8568 80.583 34.7806 80.583L29.6688 80.9064C29.3091 80.9287 29.0148 81.2186 28.9821 81.5866L28.5897 85.8016C28.5788 85.8797 28.4808 85.8797 28.4699 85.8016L28.0775 81.5866C28.0448 81.2186 27.7505 80.9287 27.3908 80.9064L22.2899 80.5941C22.2137 80.5941 22.2137 80.4715 22.2899 80.4715L27.4017 80.1481C27.7614 80.1258 28.0448 79.8359 28.0884 79.4679Z"
      fill="#22C480" />
    <path
      d="M42.6479 65.1154C42.8171 64.5386 42.9997 63.9618 43.1979 63.3917C43.3939 62.8239 43.6033 62.2537 43.826 61.6925C44.0464 61.1336 44.2825 60.5768 44.5297 60.0223C44.7791 59.47 45.0374 58.9199 45.3114 58.3765C45.5831 57.8332 45.8637 57.2942 46.1621 56.7597C46.456 56.2253 46.7634 55.6975 47.0796 55.1763C47.3981 54.6508 47.7254 54.1341 48.0639 53.6241C48.4047 53.1097 48.7543 52.6064 49.1151 52.1053C49.4758 51.6065 49.8433 51.1121 50.2219 50.6288C50.6005 50.1389 50.9902 49.6623 51.3866 49.1879C51.7875 48.7136 52.1928 48.2482 52.607 47.7916C53.0235 47.3351 53.451 46.8808 53.8831 46.4376C54.3151 45.9967 54.7561 45.5602 55.2037 45.1304C55.6535 44.705 56.1078 44.2863 56.5755 43.8766C57.0365 43.4646 57.5109 43.0637 57.9874 42.6673C58.464 42.2753 58.9517 41.8901 59.4439 41.5159C59.9338 41.1396 60.4327 40.7721 60.9338 40.4158C61.4393 40.0639 61.9493 39.7121 62.4659 39.378C62.9804 39.0417 63.5015 38.7122 64.0271 38.3937C64.5526 38.0797 65.0849 37.7724 65.6194 37.4762C66.1561 37.18 66.695 36.8949 67.2362 36.6188C67.7818 36.3449 68.3252 36.0843 68.8819 35.8282C69.4364 35.5765 69.9932 35.3338 70.5521 35.1044C71.1111 34.875 71.6746 34.6568 72.238 34.4497C72.8059 34.2426 73.3738 34.0466 73.9416 33.864C74.5095 33.6814 75.0841 33.5121 75.6587 33.3562C76.231 33.1959 76.81 33.0489 77.389 32.9175C77.9658 32.7839 78.5448 32.6636 79.1239 32.5567C79.7073 32.4498 80.2864 32.3585 80.8676 32.2761C81.4511 32.196 82.0323 32.1291 82.6136 32.0779C83.1948 32.0245 83.7805 31.9866 84.3618 31.9621C84.943 31.9376 85.5243 31.9287 86.1055 31.9332C86.6845 31.9376 87.2591 31.9532 87.8247 31.9844C88.3882 32.0178 88.9449 32.0623 89.495 32.1225C90.0428 32.1826 90.5818 32.2561 91.1118 32.3452C91.6463 32.4298 92.1696 32.5322 92.6818 32.6458C93.1963 32.7616 93.704 32.8819 94.1984 33.0266C94.6973 33.1647 95.1827 33.3184 95.6615 33.4832C96.1426 33.648 96.6125 33.8217 97.0712 34.0087C97.5322 34.198 97.9821 34.4007 98.4208 34.6122C98.8617 34.826 99.2938 35.0487 99.7147 35.2826C100.133 35.5186 100.545 35.7636 100.946 36.0219C101.347 36.2803 101.739 36.5453 102.118 36.8259C102.498 37.102 102.868 37.3938 103.224 37.6922C103.585 37.9906 103.933 38.3002 104.269 38.6186C104.605 38.9393 104.93 39.2667 105.247 39.6052C105.561 39.9437 105.863 40.2911 106.157 40.6452C106.449 41.0015 106.73 41.3667 106.995 41.7431C107.266 42.115 107.523 42.498 107.768 42.8878C108.01 43.282 108.244 43.6806 108.467 44.0904C108.685 44.4957 108.894 44.9121 109.09 45.3308C109.286 45.7561 109.471 46.186 109.64 46.6247C109.81 47.0634 109.968 47.5088 110.117 47.9609C110.26 48.413 110.393 48.8673 110.509 49.3394C110.629 49.8048 110.738 50.2769 110.825 50.7558C110.919 51.2346 110.999 51.72 111.061 52.2122C111.128 52.7044 111.181 53.201 111.215 53.7043C111.255 54.2054 111.275 54.7176 111.286 55.232C111.295 55.7442 111.291 56.2653 111.271 56.7909C111.253 57.3143 111.217 57.8443 111.168 58.3788C111.121 58.9132 111.057 59.4544 110.979 59.9956C110.896 60.5434 110.801 61.089 110.698 61.6413C110.591 62.1914 110.464 62.7526 110.324 63.3093C110.186 63.8705 110.032 64.4362 109.861 65.0041C109.694 65.5675 109.507 66.1332 109.311 66.6922C109.113 67.2511 108.903 67.8079 108.678 68.3646C108.451 68.9147 108.217 69.4625 107.97 70.0059C107.723 70.5515 107.462 71.0905 107.188 71.625C106.915 72.1594 106.63 72.6917 106.336 73.2173C106.039 73.7428 105.732 74.2617 105.414 74.7784C105.097 75.2928 104.768 75.8006 104.429 76.3039C104.091 76.8094 103.734 77.3082 103.376 77.7982C103.017 78.2926 102.65 78.7781 102.265 79.2591C101.89 79.7357 101.501 80.2123 101.1 80.6777C100.701 81.1454 100.296 81.6064 99.8795 82.0584C99.4586 82.5127 99.0354 82.9581 98.6034 83.3969C98.1714 83.8356 97.7304 84.2676 97.2806 84.6885C96.8307 85.1161 96.3742 85.5326 95.911 85.9401C95.4478 86.3476 94.9734 86.7507 94.4946 87.1404C94.018 87.5324 93.5348 87.9154 93.0426 88.2918C92.5504 88.6682 92.0538 89.0334 91.5483 89.3919C91.0472 89.746 90.535 90.0957 90.0206 90.4386C89.5084 90.7749 88.9828 91.1067 88.4572 91.4252C87.9339 91.7459 87.4016 92.0577 86.8671 92.3561C86.3304 92.6589 85.7915 92.9462 85.2481 93.2268C84.7047 93.5097 84.1547 93.7769 83.6068 94.033C83.0523 94.2936 82.4955 94.5452 81.9388 94.779C81.3798 95.0151 80.8164 95.2423 80.253 95.4538C79.6873 95.6698 79.1216 95.8725 78.5515 96.0596C77.9792 96.2533 77.4113 96.4292 76.8345 96.594C76.2622 96.7611 75.6854 96.9192 75.1086 97.0595C74.5296 97.1998 73.9506 97.329 73.3715 97.4448C72.7925 97.5606 72.2135 97.663 71.6278 97.7521C71.051 97.8389 70.4698 97.9124 69.8885 97.9792C69.305 98.0416 68.7216 98.0884 68.1448 98.124C67.5613 98.1574 66.98 98.1797 66.401 98.1863C65.822 98.1908 65.2497 98.1819 64.684 98.1574C64.1206 98.1351 63.5616 98.0995 63.0138 98.046C62.4659 97.9926 61.9292 97.9302 61.397 97.8523C60.8669 97.7721 60.3458 97.6808 59.8292 97.5761C59.3147 97.4737 58.8114 97.3535 58.3148 97.2221C57.8182 97.0929 57.3305 96.9459 56.8539 96.79C56.3751 96.6364 55.9052 96.4671 55.4487 96.2845C54.9899 96.1041 54.54 95.9104 54.0969 95.7055C53.6581 95.5006 53.2261 95.2846 52.8074 95.0507C52.3865 94.828 51.9768 94.5875 51.5759 94.3359C51.1728 94.0842 50.7853 93.8237 50.4067 93.5497C50.0281 93.2736 49.6562 92.993 49.2999 92.6968C48.9414 92.4028 48.5962 92.0955 48.2555 91.7815C47.9214 91.4675 47.5963 91.1401 47.2823 90.8061C46.9638 90.4698 46.6631 90.1224 46.3692 89.7683C46.0797 89.412 45.7968 89.049 45.5318 88.6748C45.2624 88.2985 45.004 87.9177 44.7613 87.5257C44.5141 87.1338 44.2803 86.7329 44.0598 86.3231C43.8393 85.9134 43.63 85.4969 43.4362 85.0693C43.238 84.6418 43.0554 84.2075 42.8839 83.7643C42.7147 83.3234 42.5543 82.8735 42.4096 82.417C42.2648 81.9582 42.1334 81.4928 42.011 81.0229C41.8929 80.5508 41.786 80.0697 41.6947 79.5842C41.6034 79.0988 41.5232 78.6088 41.4587 78.1077C41.3918 77.6089 41.3384 77.1056 41.3028 76.5934C41.2649 76.0834 41.2426 75.5667 41.2315 75.0434C41.2226 74.52 41.2248 73.9922 41.2471 73.46C41.2627 72.9255 41.2983 72.3888 41.3473 71.8432C41.3941 71.2998 41.4587 70.752 41.5344 70.1997C41.6123 69.6474 41.7059 69.0906 41.815 68.5294C41.9219 67.966 42.0466 67.4003 42.1847 66.8325C42.3227 66.2623 42.4786 65.69 42.6479 65.1154Z"
      fill="#9A5F15" />
    <path
      d="M39.5582 62.9886C39.7275 62.4118 39.9101 61.835 40.1083 61.2649C40.3043 60.697 40.5136 60.1269 40.7363 59.5657C40.9568 59.0067 41.1928 58.45 41.44 57.8955C41.6894 57.3432 41.9478 56.7931 42.2217 56.2497C42.4934 55.7063 42.774 55.1674 43.0724 54.6329C43.3664 54.0984 43.6737 53.5706 43.9899 53.0495C44.3084 52.5239 44.6358 52.0073 44.9743 51.4973C45.315 50.9829 45.6646 50.4796 46.0254 49.9785C46.3862 49.4796 46.7536 48.9852 47.1322 48.502C47.5108 48.012 47.9005 47.5355 48.297 47.0611C48.6978 46.5868 49.1031 46.1213 49.5173 45.6648C49.9338 45.2083 50.3614 44.7539 50.7934 44.3108C51.2255 43.8698 51.6664 43.4333 52.114 43.0035C52.5639 42.5782 53.0182 42.1595 53.4859 41.7497C53.9468 41.3377 54.4212 40.9369 54.8978 40.5405C55.3743 40.1485 55.8621 39.7632 56.3542 39.3891C56.8442 39.0127 57.343 38.6453 57.8441 38.289C58.3496 37.9371 58.8596 37.5852 59.3763 37.2512C59.8907 36.9149 60.4118 36.5853 60.9374 36.2669C61.463 35.9529 61.9952 35.6455 62.5297 35.3493C63.0664 35.0531 63.6053 34.7681 64.1465 34.4919C64.6921 34.218 65.2355 33.9575 65.7922 33.7014C66.3468 33.4497 66.9035 33.207 67.4625 32.9776C68.0215 32.7482 68.5849 32.53 69.1483 32.3228C69.7162 32.1157 70.2841 31.9198 70.852 31.7371C71.4199 31.5545 71.9944 31.3853 72.569 31.2294C73.1413 31.069 73.7204 30.9221 74.2994 30.7907C74.8762 30.6571 75.4552 30.5368 76.0342 30.4299C76.6177 30.323 77.1967 30.2317 77.7779 30.1493C78.3614 30.0691 78.9427 30.0023 79.5239 29.9511C80.1052 29.8976 80.6909 29.8598 81.2721 29.8353C81.8533 29.8108 82.4346 29.8019 83.0158 29.8063C83.5949 29.8108 84.1694 29.8264 84.7351 29.8576C85.2985 29.891 85.8553 29.9355 86.4053 29.9956C86.9532 30.0558 87.4921 30.1293 88.0221 30.2183C88.5566 30.303 89.08 30.4054 89.5922 30.519C90.1066 30.6348 90.6144 30.755 91.1087 30.8998C91.6076 31.0379 92.0931 31.1915 92.5719 31.3563C93.0529 31.5211 93.5228 31.6948 93.9816 31.8819C94.4426 32.0712 94.8924 32.2739 95.3311 32.4854C95.7721 32.6992 96.2041 32.9219 96.625 33.1557C97.0437 33.3918 97.4557 33.6368 97.8566 33.8951C98.2574 34.1534 98.6494 34.4185 99.028 34.6991C99.4088 34.9752 99.7785 35.2669 100.135 35.5654C100.496 35.8638 100.843 36.1733 101.179 36.4918C101.516 36.8125 101.841 37.1398 102.157 37.4783C102.471 37.8169 102.774 38.1643 103.068 38.5184C103.359 38.8747 103.64 39.2399 103.905 39.6163C104.177 39.9882 104.433 40.3712 104.678 40.7609C104.921 41.1551 105.154 41.5538 105.377 41.9635C105.595 42.3688 105.805 42.7853 106.001 43.204C106.197 43.6293 106.382 44.0591 106.551 44.4978C106.72 44.9366 106.878 45.382 107.027 45.834C107.17 46.2861 107.303 46.7404 107.419 47.2126C107.54 47.678 107.649 48.1501 107.736 48.6289C107.829 49.1077 107.909 49.5932 107.972 50.0854C108.038 50.5775 108.092 51.0742 108.125 51.5775C108.165 52.0785 108.185 52.5908 108.197 53.1052C108.205 53.6174 108.201 54.1385 108.181 54.6641C108.163 55.1874 108.127 55.7175 108.078 56.2519C108.032 56.7864 107.967 57.3276 107.889 57.8687C107.807 58.4166 107.711 58.9622 107.609 59.5145C107.502 60.0646 107.375 60.6258 107.234 61.1825C107.096 61.7437 106.943 62.3094 106.771 62.8773C106.604 63.4407 106.417 64.0063 106.221 64.5653C106.023 65.1243 105.814 65.681 105.589 66.2378C105.362 66.7879 105.128 67.3357 104.881 67.8791C104.633 68.4247 104.373 68.9636 104.099 69.4981C103.825 70.0326 103.54 70.5649 103.246 71.0904C102.95 71.616 102.642 72.1349 102.324 72.6515C102.008 73.166 101.678 73.6737 101.34 74.177C101.001 74.6826 100.645 75.1814 100.286 75.6714C99.9277 76.1657 99.5602 76.6512 99.1749 77.1323C98.8008 77.6088 98.4111 78.0854 98.0102 78.5509C97.6116 79.0185 97.2063 79.4795 96.7898 79.9316C96.3689 80.3859 95.9458 80.8313 95.5138 81.27C95.0817 81.7087 94.6408 82.1408 94.1909 82.5617C93.7411 82.9893 93.2845 83.4057 92.8213 83.8133C92.3581 84.2208 91.8837 84.6239 91.4049 85.0136C90.9284 85.4056 90.4451 85.7886 89.9529 86.165C89.4608 86.5413 88.9641 86.9066 88.4586 87.2651C87.9575 87.6192 87.4453 87.9688 86.9309 88.3118C86.4187 88.6481 85.8931 88.9799 85.3675 89.2984C84.8442 89.619 84.312 89.9308 83.7775 90.2292C83.2408 90.5321 82.7018 90.8194 82.1584 91.1C81.6151 91.3828 81.065 91.6501 80.5172 91.9062C79.9626 92.1667 79.4059 92.4184 78.8491 92.6522C78.2901 92.8883 77.7267 93.1154 77.1633 93.327C76.5976 93.543 76.032 93.7457 75.4619 93.9327C74.8895 94.1265 74.3216 94.3024 73.7449 94.4672C73.1725 94.6342 72.5957 94.7924 72.0189 94.9327C71.4399 95.073 70.8609 95.2021 70.2819 95.3179C69.7028 95.4337 69.1238 95.5362 68.5381 95.6253C67.9613 95.7121 67.3801 95.7856 66.7988 95.8524C66.2154 95.9148 65.6319 95.9615 65.0551 95.9972C64.4716 96.0306 63.8904 96.0528 63.3114 96.0595C62.7323 96.064 62.16 96.0551 61.5944 96.0306C61.0309 96.0083 60.4719 95.9727 59.9241 95.9192C59.3763 95.8658 58.8396 95.8034 58.3073 95.7255C57.7773 95.6453 57.2562 95.554 56.7395 95.4493C56.2251 95.3469 55.7218 95.2266 55.2251 95.0952C54.7285 94.9661 54.2408 94.8191 53.7642 94.6632C53.2854 94.5095 52.8155 94.3403 52.359 94.1577C51.9002 93.9773 51.4504 93.7835 51.0072 93.5786C50.5685 93.3738 50.1365 93.1577 49.7178 92.9239C49.2969 92.7012 48.8871 92.4607 48.4862 92.209C48.0832 91.9574 47.6957 91.6968 47.3171 91.4229C46.9385 91.1468 46.5666 90.8662 46.2103 90.57C45.8517 90.276 45.5065 89.9687 45.1658 89.6547C44.8317 89.3407 44.5066 89.0133 44.1926 88.6792C43.8741 88.343 43.5735 87.9956 43.2795 87.6415C42.99 87.2851 42.7072 86.9221 42.4422 86.548C42.1727 86.1716 41.9144 85.7908 41.6716 85.3989C41.4244 85.0069 41.1906 84.6061 40.9701 84.1963C40.7497 83.7865 40.5403 83.3701 40.3466 82.9425C40.1484 82.5149 39.9658 82.0807 39.7943 81.6375C39.625 81.1965 39.4647 80.7467 39.3199 80.2901C39.1752 79.8314 39.0438 79.3659 38.9213 78.896C38.8033 78.4239 38.6964 77.9429 38.6051 77.4574C38.5138 76.9719 38.4336 76.482 38.369 75.9809C38.3022 75.4821 38.2487 74.9788 38.2131 74.4665C38.1752 73.9566 38.153 73.4399 38.1418 72.9166C38.1329 72.3932 38.1352 71.8654 38.1574 71.3332C38.173 70.7987 38.2087 70.262 38.2576 69.7164C38.3044 69.173 38.369 68.6251 38.4447 68.0728C38.5227 67.5205 38.6162 66.9638 38.7253 66.4026C38.8322 65.8392 38.9569 65.2735 39.095 64.7056C39.2331 64.1355 39.389 63.5632 39.5582 62.9886Z"
      fill="#D08E39" />
    <path
      d="M99.6803 50.0876C99.6803 50.0876 98.9587 50.0431 98.2394 50.0008C97.5223 49.9562 96.8052 49.9139 96.8052 49.9139C96.6003 49.9028 96.4289 49.8159 96.3197 49.6712C96.2128 49.5309 96.1772 49.3394 96.2195 49.1345C96.2195 49.1345 96.3531 48.4731 96.4868 47.8094C96.6204 47.148 96.7562 46.4821 96.7562 46.4821C96.7629 46.4376 96.7473 46.3953 96.7228 46.3708C96.6961 46.3396 96.656 46.3262 96.6115 46.3262C96.5647 46.3262 96.5135 46.3396 96.4734 46.3663C96.4289 46.3975 96.3888 46.4376 96.3687 46.4843C96.3687 46.4843 96.1082 47.1435 95.8432 47.8094C95.5804 48.4708 95.3154 49.13 95.3154 49.13C95.2374 49.3416 95.086 49.5309 94.8945 49.6734C94.7007 49.8159 94.4758 49.8983 94.2665 49.9095C94.2665 49.9095 93.5204 49.9518 92.7766 49.9963C92.0305 50.0409 91.2867 50.0854 91.2867 50.0854C91.24 50.0921 91.1932 50.1166 91.1531 50.15C91.1108 50.1834 91.0818 50.2257 91.0685 50.2725C91.0551 50.317 91.0573 50.3616 91.0774 50.3972C91.0997 50.4306 91.1331 50.4529 91.1754 50.4618C91.1754 50.4618 91.8925 50.5063 92.6096 50.5486C93.3267 50.5909 94.0504 50.6355 94.0504 50.6355C94.2486 50.6488 94.4223 50.7357 94.5292 50.876C94.6339 51.0207 94.6718 51.2123 94.6339 51.4149C94.6339 51.4149 94.4981 52.0741 94.3644 52.74C94.2308 53.4014 94.095 54.0673 94.095 54.0673C94.0905 54.1118 94.1017 54.1497 94.1261 54.1786C94.1551 54.2076 94.193 54.2254 94.2397 54.2232C94.2843 54.2254 94.3333 54.2054 94.38 54.1786C94.4223 54.1497 94.458 54.1096 94.4825 54.0628C94.4825 54.0628 94.743 53.4014 95.0058 52.74C95.2686 52.0763 95.5314 51.4171 95.5314 51.4171C95.6116 51.21 95.763 51.023 95.9523 50.8782C96.1438 50.7379 96.3687 50.6533 96.5825 50.6377C96.5825 50.6377 97.3286 50.5954 98.0746 50.5508C98.8207 50.5063 99.5667 50.464 99.5667 50.464C99.6135 50.4573 99.658 50.4328 99.7003 50.3972C99.736 50.3638 99.7671 50.317 99.7805 50.2769C99.7939 50.2324 99.7916 50.1878 99.7738 50.1544C99.7538 50.1188 99.7226 50.0943 99.6803 50.0876Z"
      fill="#002522" />
    <path fill-rule="evenodd" clip-rule="evenodd"
      d="M90.5609 60.0134L90.9395 60.3497C91.2825 60.6303 91.4941 61.0267 91.5586 61.4899C91.5742 61.7505 91.5297 62.0289 91.4206 62.3006C91.3382 62.521 91.2357 62.7348 91.1266 62.9419C90.9039 63.3584 90.6278 63.7659 90.3115 64.1445C90.1445 64.3338 89.9619 64.5186 89.7748 64.6923L89.6768 64.7859L89.6056 65.3159C89.5699 65.5275 89.5187 65.7368 89.4586 65.9573C89.3272 66.3804 89.1513 66.8013 88.933 67.2133C88.7148 67.6253 88.4497 68.0239 88.1536 68.407C87.8529 68.7945 87.5166 69.1575 87.1559 69.4893C86.7906 69.8256 86.3987 70.1329 85.9867 70.4068L85.8865 70.4692L85.7796 70.5026C85.3097 70.6518 84.8376 70.7899 84.3654 70.9079C83.8911 71.0282 83.4212 71.1306 82.9491 71.2175C82.4703 71.3132 81.9892 71.3822 81.5171 71.4223C81.0472 71.4624 80.5773 71.478 80.1186 71.4624H80.0562L79.9849 71.4646C79.5707 71.3199 79.1454 71.193 78.7155 71.0772C78.2857 70.9569 77.8515 70.8522 77.4083 70.7609C76.9674 70.6652 76.5175 70.585 76.0632 70.5159C75.6111 70.4469 75.1479 70.3935 74.6869 70.3467C74.5666 70.3356 74.4464 70.3289 74.3239 70.3155C73.9654 70.291 73.5868 70.2621 73.2149 70.2019C72.7249 70.124 72.2528 69.9971 71.8141 69.8234C71.4244 69.6786 71.0235 69.5672 70.5981 69.4915C70.1772 69.4203 69.7385 69.378 69.2909 69.3757L69.2597 69.3735C68.8722 69.7833 68.5582 70.2398 68.3444 70.7142C68.1217 71.193 68.0037 71.6807 67.9903 72.1461C67.9302 72.7318 67.9191 73.3064 67.9614 73.8631C67.997 74.4221 68.0839 74.9633 68.2152 75.4888C68.3823 76.0367 68.527 76.5957 68.6517 77.1635C68.7787 77.7292 68.8833 78.3082 68.9702 78.8939C69.0637 79.5108 69.0704 80.1655 68.9969 80.8336C68.9168 81.5574 68.6362 82.3124 68.1908 83.0161L67.6451 83.8534L67.0795 83.3279C66.9904 83.2544 66.8924 83.1876 66.7877 83.1341C66.614 83.5394 66.4114 83.9447 66.1887 84.3367C65.7767 85.0293 65.2867 85.6929 64.7255 86.3165C64.8102 85.8266 64.8458 85.3812 64.8391 84.9781C64.8302 84.5705 64.779 84.2031 64.6944 83.869C64.5207 83.2009 64.2 82.662 63.7902 82.2166C63.3804 81.7667 62.8727 81.406 62.3182 81.0897C61.7681 80.7735 61.169 80.5018 60.5744 80.2301C60.0399 79.9918 59.5077 79.7535 59.0155 79.4818C58.5256 79.2101 58.069 78.9117 57.6905 78.551C57.3809 78.257 57.1226 77.9563 56.9066 77.649C56.6928 77.3395 56.528 77.021 56.4077 76.6892C56.2852 76.3574 56.2117 76.0144 56.185 75.6536C56.1561 75.2906 56.1761 74.912 56.2385 74.5156C56.303 74.1215 56.4122 73.7028 56.5681 73.2641C56.7217 72.8253 56.9199 72.3621 57.1649 71.8744C57.4099 71.3867 57.6994 70.8723 58.0356 70.3289C58.3675 69.7877 58.7483 69.2154 59.167 68.6096C59.4275 68.2377 59.6792 67.8614 59.9175 67.4828C60.1602 67.102 60.3918 66.7234 60.6123 66.3381C60.835 65.9528 61.0488 65.5653 61.2514 65.1778C61.4541 64.7859 61.6478 64.3939 61.8282 63.9998C61.9886 63.6412 62.16 63.2938 62.3427 62.9419C62.3649 62.8929 62.385 62.8462 62.4139 62.7994L62.5453 62.55C62.5052 62.7103 62.4607 62.8684 62.4206 63.0221C62.3159 63.4074 62.2157 63.7882 62.1511 64.1601C62.0286 64.6768 61.9819 65.1823 62.0131 65.6633C62.0286 65.8682 62.0932 66.0553 62.1934 66.2178C62.2224 66.2691 62.2603 66.3091 62.2981 66.3626C62.3271 66.3982 62.356 66.4383 62.3894 66.4851C62.4451 66.5764 62.5075 66.6588 62.5765 66.7367C62.8771 67.0307 63.2424 67.2601 63.6566 67.4204C64.0931 67.5874 64.5496 67.7233 65.024 67.828C65.4916 67.9326 65.9793 68.0084 66.4804 68.0529C66.9592 68.1041 67.4447 68.1442 67.9391 68.1642C68.4335 68.1887 68.9323 68.1976 69.4446 68.1954H69.596C70.1149 68.1999 70.6271 68.24 71.1215 68.3268C71.6092 68.4114 72.0835 68.5361 72.5312 68.7032C72.9298 68.8479 73.3485 68.9615 73.7805 69.0417C74.2215 69.1196 74.6735 69.1642 75.1368 69.1753C75.6156 69.2198 76.0877 69.2755 76.5576 69.3468C77.0253 69.4158 77.4862 69.4982 77.9428 69.5917C78.3971 69.6875 78.8492 69.7944 79.2879 69.9147C79.7311 70.0349 80.1675 70.1663 80.5951 70.3111C80.996 70.32 81.4013 70.3066 81.8111 70.2688C82.2231 70.2331 82.6395 70.173 83.056 70.0906C83.6506 69.9815 84.2474 69.8323 84.8465 69.6675C86.2272 69.153 87.4498 67.7745 85.735 67.9571C85.3364 67.9883 84.9311 68.044 84.5213 68.1219C84.2073 68.1798 83.88 68.2867 83.5259 68.4048C83.2119 68.5072 82.8778 68.6163 82.5215 68.6965C81.7999 68.8591 81.0962 68.8457 80.486 68.6609C79.9716 68.4226 79.4015 68.2823 78.7824 68.2377C79.1231 68.0729 79.4816 67.9727 79.8246 67.9527C80.0762 67.9282 80.29 67.9349 80.4949 67.946C80.5951 67.946 80.6953 67.9504 80.7933 67.9504C81.3479 68.0195 81.9291 67.9928 82.5304 67.8725C82.8399 67.7901 83.174 67.6387 83.5348 67.4694C83.831 67.3358 84.1383 67.1955 84.4657 67.0752C85.1783 66.8125 85.8998 66.6721 86.5947 66.6588L87.0089 66.6566C87.6926 65.9951 88.3161 65.2669 88.3384 64.6679C88.2226 64.4162 88.0199 64.2358 87.7527 64.1356C87.6837 64.1066 87.5389 64.0688 87.3518 64.0198C87.02 63.924 86.5457 63.7949 86.1025 63.6278C85.6638 63.4586 85.2585 63.2604 85.0692 63.0266C84.7952 62.6346 85.2607 61.8529 86.9599 61.5233C87.7327 61.3964 88.4832 61.3786 89.2025 61.4565C89.4474 61.5011 89.7147 61.4766 89.9819 61.3919L89.9151 61.3118L89.5454 60.9889L89.1824 60.6437C89.1824 60.6437 88.8239 60.3007 88.4676 59.96C88.1135 59.617 87.7594 59.2718 87.7594 59.2718C87.5255 59.0536 87.2739 58.8242 87.0423 58.6394L86.9198 58.557L86.6659 58.4345C86.4989 58.3588 86.3408 58.263 86.1804 58.1672C85.6816 57.8666 85.2562 57.4858 84.9044 57.0426C84.5681 56.6729 84.2563 56.1763 83.9757 55.6151C83.6951 55.0539 83.4435 54.4326 83.2319 53.8224C83.0181 53.2122 82.8444 52.6109 82.7085 52.0898C82.5749 51.5664 82.4814 51.1277 82.4391 50.836C82.3634 50.3861 82.1919 49.983 81.9425 49.6423C81.693 49.2993 81.3612 49.0232 80.9604 48.825C81.4191 48.8005 81.8489 48.8784 82.2097 49.0521C82.5749 49.2281 82.8667 49.4909 83.0626 49.8227C83.1807 49.9518 83.3455 50.3616 83.5459 50.8538C83.7463 51.3526 83.9846 51.9383 84.2363 52.4082C84.4946 52.8759 84.7707 53.2233 85.0491 53.2523C85.3676 53.2411 85.6883 53.1988 86.0134 53.1142C85.8085 52.8425 85.6326 52.5441 85.4923 52.2278C85.3008 51.8181 85.1827 51.4016 85.0692 50.9919C85.0291 50.8538 84.9935 50.7135 84.9511 50.5843C84.8331 50.0721 84.6483 49.6 84.4033 49.1613C84.3432 49.07 84.2764 48.9876 84.2029 48.9118C84.1249 48.8361 84.0358 48.7715 83.9379 48.7181C83.7241 48.5889 83.5036 48.4798 83.2163 48.3595C82.9357 48.2371 82.6885 48.1302 82.4079 47.9698L81.6797 47.5445L80.2143 46.7182C79.7266 46.4532 79.2278 46.1994 78.7178 45.9677C78.21 45.7317 77.6844 45.5179 77.1477 45.3175C76.6199 45.1282 76.0721 44.9634 75.5087 44.8298C74.943 44.7006 74.364 44.5981 73.7694 44.5269C73.4888 44.489 73.2015 44.469 72.9075 44.4623C72.6737 44.4534 72.4265 44.5046 72.1815 44.6026C72.0524 44.6516 71.921 44.7117 71.7784 44.7763C71.6025 44.8565 71.4088 44.9411 71.1972 45.0213L70.2351 45.4043C69.6004 45.676 68.9724 45.97 68.3511 46.2907C67.732 46.6069 67.1173 46.9499 66.5116 47.3151C66.0395 47.569 65.5785 47.8562 65.1331 48.1747C64.6899 48.4932 64.2623 48.8406 63.8637 49.2147C64.3002 49.1947 64.7255 49.2169 65.1331 49.2771C65.5406 49.3394 65.9303 49.4441 66.3 49.5844C65.7522 49.5733 65.1932 49.6044 64.6276 49.6824C64.0619 49.7581 63.4896 49.8739 62.9172 50.032C62.3582 50.1857 61.8015 50.3683 61.2447 50.5888C60.6925 50.7892 60.1513 51.0319 59.6213 51.3103C59.1001 51.562 58.5991 51.8693 58.1292 52.2212C57.9332 52.3726 57.7662 52.5508 57.6303 52.7445C57.4633 52.9717 57.2918 53.2211 57.127 53.4683C56.7997 53.9783 56.4901 54.4905 56.1961 55.0094C55.9022 55.5283 55.6238 56.0538 55.3655 56.5794C55.0982 57.1072 54.851 57.635 54.6172 58.165C54.3834 58.6995 54.1673 59.2295 53.9691 59.7662C53.7732 60.3007 53.5928 60.833 53.428 61.3741C53.2632 61.9064 53.1184 62.4453 52.9848 62.982C52.8801 63.4141 52.7977 63.8461 52.7376 64.2737C52.6775 64.7013 52.6463 65.1199 52.6329 65.5408C52.624 65.9551 52.6352 66.3671 52.673 66.7701C52.7087 67.171 52.7666 67.5696 52.8556 67.9527C53.3701 67.465 53.8867 66.9706 54.4012 66.4717C54.9134 65.9751 55.4234 65.4696 55.9222 64.9663C56.2451 64.6367 56.568 64.3026 56.8887 63.9708C57.2072 63.639 57.519 63.3049 57.833 62.9664C58.1425 62.6324 58.4499 62.2916 58.755 61.9487C59.0578 61.6102 59.3563 61.2695 59.6502 60.9309C59.9575 60.5746 60.2537 60.2094 60.5477 59.8397C60.8394 59.47 61.1289 59.0959 61.4207 58.7195C61.6857 58.3744 61.9552 58.0292 62.2269 57.6818C62.5008 57.3366 62.7769 56.9892 63.0664 56.6484C63.3648 56.281 63.6722 55.9269 63.9951 55.5795C64.3202 55.2321 64.6543 54.8958 65.0039 54.5684C65.3647 54.2299 65.7566 53.9248 66.1686 53.6643C66.5851 53.3926 67.0438 53.2278 67.4826 53.1988C67.0505 53.5017 66.6007 53.9337 66.133 54.466C65.6653 54.9982 65.1843 55.6329 64.6855 56.3433C64.4383 56.6997 64.1866 57.0738 63.935 57.4635C63.6789 57.8577 63.4227 58.263 63.1666 58.6795C62.9083 59.1004 62.6455 59.5324 62.3827 59.9733C62.1177 60.4143 61.8505 60.8641 61.5855 61.3207C61.3695 61.6904 61.1 62.1224 60.7971 62.5901C60.492 63.0622 60.1513 63.5677 59.7861 64.0955C59.4186 64.6211 59.0267 65.1689 58.6213 65.7123C58.216 66.2579 57.7974 66.8013 57.3765 67.3247C56.96 67.8436 56.5391 68.3424 56.1293 68.8034C55.7173 69.2599 55.3209 69.6741 54.9468 70.0282C54.1941 70.7364 53.5371 71.1907 53.065 71.233C52.3434 71.2776 52.1831 70.9435 51.9003 70.2532L51.6664 69.7098C51.4571 69.2243 51.2967 68.7143 51.1921 68.1821C51.0807 67.6476 51.0251 67.0931 51.0184 66.5207C51.0295 65.9573 51.0651 65.3916 51.1386 64.8171C51.2099 64.2447 51.3168 63.6612 51.4571 63.0822C51.5974 62.5054 51.76 61.9398 51.9426 61.3674C52.1252 60.7929 52.3278 60.2161 52.5461 59.6527C52.7777 59.087 53.0249 58.5213 53.2877 57.9624C53.5505 57.4012 53.8266 56.8444 54.1184 56.2921C54.4079 55.7376 54.7196 55.1853 55.047 54.6397C55.3722 54.0963 55.7151 53.5574 56.0781 53.0251C56.2652 52.7601 56.4545 52.4929 56.6727 52.2167C56.7907 52.0653 56.9132 51.9205 57.0513 51.7802C57.1938 51.6377 57.3475 51.5063 57.5101 51.3816C58.0802 50.9629 58.6904 50.6066 59.3162 50.3327C59.8395 50.0988 60.3673 49.9006 60.8973 49.7381C61.4296 49.5755 61.9618 49.4508 62.4919 49.3617C62.9595 48.7404 63.5163 48.1725 64.1398 47.6781C64.7478 47.2015 65.3825 46.7628 66.0395 46.3731C66.6608 45.9744 67.2955 45.6047 67.9413 45.264C68.5849 44.9233 69.2397 44.6093 69.9055 44.3287C70.2262 44.1906 70.6382 44.0303 70.9166 43.9256C71.0502 43.8788 71.1927 43.812 71.3509 43.7408C71.5157 43.6695 71.6938 43.5893 71.8942 43.5158C72.3107 43.3466 72.7338 43.2597 73.1391 43.2686C73.4799 43.2753 73.8117 43.2954 74.1368 43.3443C74.7715 43.4201 75.3929 43.5292 75.9964 43.6673C76.5977 43.8098 77.1834 43.9835 77.7468 44.1906C78.3058 44.3955 78.8536 44.6182 79.3836 44.8609C79.9137 45.1059 80.4303 45.3665 80.9336 45.6448L82.4213 46.4822L83.1562 46.9075C83.321 47.0033 83.5348 47.1013 83.7619 47.1993C83.8065 47.2171 83.8488 47.2371 83.8911 47.2527C84.165 47.3774 84.4211 47.5044 84.6906 47.6603C84.8376 47.7493 84.9779 47.8407 85.1026 47.952C85.2139 48.0745 85.3186 48.2081 85.4099 48.3462C85.7328 48.845 85.9778 49.3929 86.1448 49.9808C86.1515 50.0075 86.1582 50.032 86.1649 50.0521C86.3185 50.5932 86.4677 51.1121 86.6704 51.5709C86.873 52.0296 87.1291 52.426 87.4944 52.7222L88.0801 53.1966L88.0578 53.2723L87.7482 53.6286L87.0245 53.7934C86.8886 53.8357 86.755 53.9226 86.657 54.0339C86.6058 54.0918 86.5679 54.1564 86.5457 54.2188C86.4989 54.3524 86.4633 54.4793 86.4299 54.6085C86.3675 54.8156 86.2784 55.016 86.1604 55.212C86.0936 55.3167 86.0335 55.408 85.9778 55.4859C85.9399 55.5416 85.9043 55.5951 85.8776 55.6351C85.8464 55.6775 85.8263 55.7198 85.813 55.7665C85.7996 55.8133 85.7952 55.8578 85.8041 55.8979C86.1314 56.3879 86.5679 56.791 87.0846 57.0983C87.2093 57.1829 87.3496 57.2564 87.4944 57.3277L87.7126 57.4212C87.824 57.4769 87.922 57.5415 88.0133 57.6194C88.2805 57.8221 88.4921 58.0158 88.7059 58.2251C88.7326 58.2496 88.7593 58.2741 88.7883 58.2986C88.7883 58.2986 89.1423 58.646 89.4964 58.9868C89.8505 59.3342 90.2069 59.6794 90.2069 59.6794L90.5609 60.0134ZM75.8093 56.2119C75.6467 56.2275 75.4886 56.2275 75.3394 56.2097C74.3016 56.1518 74.0032 55.4436 74.3885 54.7132C74.7782 53.9849 74.747 53.7467 74.5377 53.7467C74.1814 53.858 73.8451 54.0651 73.5734 54.3457L73.5311 54.3435C73.5177 54.3479 73.5044 54.3479 73.4955 54.3413C73.4843 54.3413 73.4799 54.3346 73.4732 54.3279C73.4643 54.319 73.4598 54.3101 73.4643 54.299C73.4621 54.2878 73.4598 54.2789 73.4643 54.27C74.1368 52.7579 75.0477 52.6911 75.4463 52.6933C76.0387 52.7378 76.6222 52.8113 77.1878 52.9138C77.7579 53.014 78.308 53.1431 78.8536 53.299C78.8848 53.3035 78.9093 53.3213 78.9293 53.3413C78.9494 53.3681 78.9583 53.3948 78.9516 53.4326C78.9516 53.4661 78.9338 53.4972 78.916 53.5306C78.8937 53.5574 78.8625 53.5863 78.8247 53.6041C78.6086 53.7556 78.4171 53.9493 78.2857 54.1676C78.1432 54.3836 78.063 54.6152 78.0452 54.8379C77.9784 55.192 77.6889 55.5082 77.2814 55.7487C76.8738 55.9892 76.3482 56.1563 75.8093 56.2119Z"
      fill="#002522" />
    <path
      d="M174.197 79.3599C179.381 79.3599 183.593 76.2279 183.593 71.7279C183.593 67.5159 179.849 65.6799 177.509 65.8599C179.381 65.2839 181.757 63.9519 181.757 61.1799C181.757 58.2999 179.417 56.0679 174.449 56.0679C168.941 56.0679 166.709 59.0199 166.709 61.3599C166.709 62.5479 167.285 63.5919 168.725 63.5919C170.129 63.5919 170.597 62.6559 170.597 61.3599C170.597 59.0559 171.497 57.2199 174.017 57.2199C176.609 57.2199 177.977 59.0559 177.977 61.6479C177.977 64.4559 176.321 65.4999 172.325 66.8319L172.757 67.9839C173.729 67.5159 174.629 67.2999 175.421 67.2999C177.689 67.2999 179.489 68.8839 179.489 72.1239C179.489 75.3999 177.689 78.1719 174.593 78.1719C171.965 78.1719 170.741 76.1559 170.165 74.7519C169.229 72.3399 170.021 70.6479 167.825 70.6479C166.601 70.6479 165.737 71.2959 165.737 73.0959C165.737 76.9119 169.553 79.3599 174.197 79.3599ZM195.051 79.3599C200.091 79.3599 203.403 76.0479 203.403 71.6559C203.403 67.2279 200.019 64.5279 196.239 64.5279C193.107 64.5279 190.875 66.4359 190.335 67.2999C190.335 62.8359 191.775 57.4359 196.923 57.4359C197.823 57.4359 198.615 57.5799 199.947 58.2639L200.523 57.3639C199.407 56.4279 197.823 56.0679 196.167 56.0679C189.327 56.0679 186.339 62.0799 186.303 68.4519C186.267 74.3919 188.823 79.3599 195.051 79.3599ZM195.267 78.1719C191.883 78.1719 190.335 74.5719 190.335 71.6919C190.335 68.5599 192.207 66.2199 194.979 66.2199C197.823 66.2199 199.479 68.7759 199.479 72.2679C199.479 74.9679 198.435 78.1719 195.267 78.1719ZM207.4 82.9599C209.056 81.8799 210.46 79.9359 210.46 77.7039C210.46 76.0119 209.668 74.6439 207.94 74.6439C206.608 74.6439 205.564 75.5799 205.564 76.9839C205.564 78.2439 206.464 79.1799 207.724 79.1799C208.12 79.1799 208.336 79.4319 208.336 79.7919C208.336 80.4039 207.724 81.4479 206.788 82.2759L207.4 82.9599ZM215.331 78.9999H217.959L229.335 56.6439H217.563L214.683 56.3559L212.811 62.3679H213.855C215.007 60.4959 216.375 60.1359 219.291 60.1359H226.419L215.331 78.9999ZM239.236 79.3599C244.42 79.3599 248.632 76.2279 248.632 71.7279C248.632 67.5159 244.888 65.6799 242.548 65.8599C244.42 65.2839 246.796 63.9519 246.796 61.1799C246.796 58.2999 244.456 56.0679 239.488 56.0679C233.98 56.0679 231.748 59.0199 231.748 61.3599C231.748 62.5479 232.324 63.5919 233.764 63.5919C235.168 63.5919 235.636 62.6559 235.636 61.3599C235.636 59.0559 236.536 57.2199 239.056 57.2199C241.648 57.2199 243.016 59.0559 243.016 61.6479C243.016 64.4559 241.36 65.4999 237.364 66.8319L237.796 67.9839C238.768 67.5159 239.668 67.2999 240.46 67.2999C242.728 67.2999 244.528 68.8839 244.528 72.1239C244.528 75.3999 242.728 78.1719 239.632 78.1719C237.004 78.1719 235.78 76.1559 235.204 74.7519C234.268 72.3399 235.06 70.6479 232.864 70.6479C231.64 70.6479 230.776 71.2959 230.776 73.0959C230.776 76.9119 234.592 79.3599 239.236 79.3599ZM260.09 79.3599C265.13 79.3599 268.442 76.0479 268.442 71.6559C268.442 67.2279 265.058 64.5279 261.278 64.5279C258.146 64.5279 255.914 66.4359 255.374 67.2999C255.374 62.8359 256.814 57.4359 261.962 57.4359C262.862 57.4359 263.654 57.5799 264.986 58.2639L265.562 57.3639C264.446 56.4279 262.862 56.0679 261.206 56.0679C254.366 56.0679 251.378 62.0799 251.342 68.4519C251.306 74.3919 253.862 79.3599 260.09 79.3599ZM260.306 78.1719C256.922 78.1719 255.374 74.5719 255.374 71.6919C255.374 68.5599 257.246 66.2199 260.018 66.2199C262.862 66.2199 264.518 68.7759 264.518 72.2679C264.518 74.9679 263.474 78.1719 260.306 78.1719Z"
      fill="#22C480" />
    <path
      d="M195.544 90.7999V92.2719H199.032V102H200.68V92.2719H204.168V90.7999H195.544ZM209.395 90.7999H207.635L203.571 102H205.363L206.211 99.5199H210.819L211.667 102H213.459L209.395 90.7999ZM206.659 98.0479L208.515 92.6079L210.371 98.0479H206.659ZM216.676 100.528V90.7999H215.028V102H222.1V100.528H216.676ZM225.567 100.528V90.7999H223.919V102H230.991V100.528H225.567ZM237.856 90.7999L235.056 95.9839L232.24 90.7999H230.384L234.224 97.6319V102H235.872V97.6319L239.728 90.7999H237.856Z"
      fill="#99A8A7" />
    <path
      d="M298.361 78.9999H308.477V77.9559C306.029 77.8119 305.309 77.3439 305.309 75.8679V57.0759C305.309 56.5359 304.805 56.1399 303.977 56.4999L298.541 58.9839V59.9919L300.089 59.8839C301.205 59.8119 301.529 59.9199 301.529 61.3599V75.8679C301.529 77.3439 300.809 77.8119 298.361 77.9559V78.9999ZM310.991 78.9999H327.551C327.371 78.7479 327.119 78.4599 327.443 76.7319L328.019 73.2399H326.975C326.291 75.2559 325.067 75.7959 321.971 75.7959H313.151C316.643 70.0719 327.731 69.2799 327.731 62.2959C327.731 58.4439 324.635 56.0679 319.775 56.0679C314.339 56.0679 311.495 59.0199 311.495 62.2959C311.495 64.2759 312.539 65.6079 314.087 65.6079C315.023 65.6079 316.139 65.1399 316.139 63.8079C316.139 62.8719 315.635 62.5479 315.635 61.2519C315.635 59.0559 317.147 57.2559 319.559 57.2559C322.295 57.2559 323.519 59.4879 323.519 61.5039C323.519 67.8399 310.991 70.5759 310.991 78.9999ZM340.105 79.3599C346.225 79.3599 349.465 73.8159 349.465 67.6959C349.465 61.6119 346.225 56.0679 340.105 56.0679C333.949 56.0679 330.709 61.6119 330.709 67.6959C330.709 73.8159 333.949 79.3599 340.105 79.3599ZM340.429 78.0279C336.253 78.0279 334.957 72.3759 334.957 66.7959C334.957 61.1799 336.361 57.3999 339.745 57.3999C343.885 57.3999 345.181 63.0519 345.181 68.6319C345.181 74.2839 343.813 78.0279 340.429 78.0279Z"
      fill="#22C480" />
    <path
      d="M311.096 90.7999V97.8559C311.096 99.3439 310.248 100.688 308.472 100.688C306.68 100.688 305.848 99.3439 305.848 97.8559V90.7999H304.2V97.8719C304.2 100.352 305.768 102.16 308.472 102.16C311.176 102.16 312.744 100.352 312.744 97.8719V90.7999H311.096ZM316.162 96.1119C316.162 95.4239 316.914 95.0879 317.586 95.0879C318.354 95.0879 318.978 95.5199 319.138 96.2399L320.658 95.9839C320.37 94.5759 318.994 93.7759 317.586 93.7759C316.066 93.7759 314.642 94.7359 314.642 96.2559C314.642 97.7759 316.098 98.3039 317.778 98.6719C318.546 98.8479 319.346 99.0559 319.346 99.7919C319.346 100.576 318.434 100.848 317.746 100.848C316.85 100.848 316.21 100.4 316.034 99.5359L314.498 99.7919C314.722 101.392 316.194 102.16 317.778 102.16C319.394 102.16 320.898 101.344 320.898 99.7279C320.898 98.0639 319.298 97.5679 317.858 97.2639C317.026 97.0879 316.162 96.8479 316.162 96.1119ZM329.934 98.1119C329.934 95.6799 328.478 93.7919 326.046 93.7919C323.63 93.7919 322.062 95.6159 322.062 97.9999C322.062 100.4 323.678 102.16 326.094 102.16C327.758 102.16 329.054 101.36 329.758 99.7759L328.254 99.5039C327.822 100.384 327.07 100.8 326.094 100.8C324.702 100.8 323.678 99.8719 323.598 98.4639H329.918C329.934 98.3519 329.934 98.2239 329.934 98.1119ZM323.662 97.2319C323.838 95.9519 324.75 95.1039 326.046 95.1039C327.262 95.1039 328.238 95.9519 328.35 97.2319H323.662ZM336.098 93.8399C335.906 93.8079 335.73 93.8079 335.57 93.8239C334.466 93.8399 333.73 94.3199 333.17 95.3119V93.9679H331.586V102H333.17V97.9839C333.17 96.0479 334.338 95.0559 336.098 95.2479V93.8399ZM338.49 96.1119C338.49 95.4239 339.242 95.0879 339.914 95.0879C340.682 95.0879 341.306 95.5199 341.466 96.2399L342.986 95.9839C342.698 94.5759 341.322 93.7759 339.914 93.7759C338.394 93.7759 336.97 94.7359 336.97 96.2559C336.97 97.7759 338.426 98.3039 340.106 98.6719C340.874 98.8479 341.674 99.0559 341.674 99.7919C341.674 100.576 340.762 100.848 340.074 100.848C339.178 100.848 338.538 100.4 338.362 99.5359L336.826 99.7919C337.05 101.392 338.522 102.16 340.106 102.16C341.722 102.16 343.226 101.344 343.226 99.7279C343.226 98.0639 341.626 97.5679 340.186 97.2639C339.354 97.0879 338.49 96.8479 338.49 96.1119Z"
      fill="#99A8A7" />
  </g>
  <defs>
    <clipPath id="clip0_1265_30975">
      <path d="M0 16C0 7.16344 7.16344 0 16 0H368C376.837 0 384 7.16344 384 16V265H0V16Z" fill="white" />
    </clipPath>
  </defs>
</svg>