<svg width="384" height="265" viewBox="0 0 384 265" fill="none" xmlns="http://www.w3.org/2000/svg"
  xmlns:xlink="http://www.w3.org/1999/xlink">
  <g clip-path="url(#clip0_1265_30949)">
    <path
      d="M6.10352e-05 16C6.10352e-05 7.16344 7.16351 0 16.0001 0H368C376.837 0 384 7.16344 384 16V265H6.10352e-05V16Z"
      fill="#002522" />
    <g opacity="0.3" filter="url(#filter0_d_1265_30949)">
      <path
        d="M61.0001 99.5C36.6001 83.9 10.1667 102 6.10352e-05 113V20.5L388 14L395 144C379 112 347 113 340 123.5C333 134 321.5 144.5 318.5 123.5C315.5 102.5 307.5 99.5 305 109C302.5 118.5 295.5 174 270 123.5C244.5 73 173.5 53 143 80C112.5 107 91.5001 119 61.0001 99.5Z"
        fill="#002522" />
    </g>
    <g opacity="0.3" filter="url(#filter1_d_1265_30949)">
      <path
        d="M61.0001 99.5C36.6001 83.9 10.1667 102 6.10352e-05 113V22.5L388 16L395 144C379 112 347 113 340 123.5C333 134 321.5 144.5 318.5 123.5C315.5 102.5 307.5 99.5 305 109C302.5 118.5 295.5 174 270 123.5C244.5 73 173.5 53 143 80C112.5 107 91.5001 119 61.0001 99.5Z"
        fill="#002522" />
    </g>
    <path opacity="0.4"
      d="M6.10352e-05 113C10.1667 102 36.6001 83.9 61.0001 99.5C91.5001 119 112.5 107 143 80C173.5 53 244.5 73 270 123.5C295.5 174 302.5 118.5 305 109C307.5 99.5 315.5 102.5 318.5 123.5C321.5 144.5 333 134 340 123.5C347 113 379 112 395 144"
      stroke="#11BEA9" />
    <path
      d="M16.6209 75.2V76.488H19.6729V85H21.1149V76.488H24.1669V75.2H16.6209ZM27.5185 77.832C25.3625 77.832 23.8925 79.358 23.8925 81.486C23.8925 83.614 25.3625 85.14 27.5185 85.14C29.6465 85.14 31.1165 83.614 31.1165 81.486C31.1165 79.358 29.6325 77.832 27.5185 77.832ZM27.5045 83.922C26.1045 83.922 25.3065 82.872 25.3065 81.486C25.3065 80.1 26.1045 79.05 27.5045 79.05C28.9045 79.05 29.7025 80.1 29.7025 81.486C29.7025 82.872 28.9045 83.922 27.5045 83.922ZM36.3063 79.12V77.972H34.7803V75.914L33.4223 76.152V77.972H32.2883V79.12H33.4083V83.026C33.4083 84.426 34.0943 85.14 35.4943 85.14C35.7603 85.14 36.0823 85.112 36.3483 85.056V83.796C36.1523 83.866 35.9423 83.894 35.7323 83.894C34.9063 83.894 34.7943 83.53 34.7943 82.746V79.12H36.3063ZM40.7877 77.818C39.3177 77.818 38.0577 78.658 37.8057 80.03L39.1357 80.254C39.2477 79.498 39.9337 78.994 40.7177 78.994C41.5437 78.994 42.2997 79.442 42.2997 80.394V80.618C40.7877 80.618 37.6657 80.702 37.6657 82.984C37.6657 84.258 38.6597 85.14 39.9757 85.14C41.0817 85.14 41.7677 84.72 42.2997 83.922V85H43.6857V80.478C43.6857 78.784 42.4537 77.818 40.7877 77.818ZM42.2997 81.976C42.2997 83.04 41.4737 83.992 40.3537 83.992C39.6397 83.992 39.0377 83.628 39.0377 82.97C39.0377 81.542 41.9217 81.654 42.2997 81.64V81.976ZM47.3012 85V74.92H45.9152V85H47.3012ZM58.0455 77.972L56.1695 83.376L54.2935 77.972H52.8655L55.4835 85H56.8695L59.4735 77.972H58.0455ZM63.7138 77.818C62.2438 77.818 60.9838 78.658 60.7318 80.03L62.0618 80.254C62.1738 79.498 62.8598 78.994 63.6438 78.994C64.4698 78.994 65.2258 79.442 65.2258 80.394V80.618C63.7138 80.618 60.5918 80.702 60.5918 82.984C60.5918 84.258 61.5858 85.14 62.9018 85.14C64.0078 85.14 64.6938 84.72 65.2258 83.922V85H66.6118V80.478C66.6118 78.784 65.3798 77.818 63.7138 77.818ZM65.2258 81.976C65.2258 83.04 64.3998 83.992 63.2798 83.992C62.5658 83.992 61.9638 83.628 61.9638 82.97C61.9638 81.542 64.8478 81.654 65.2258 81.64V81.976ZM70.2273 85V74.92H68.8413V85H70.2273ZM75.0069 85.14C75.9309 85.14 76.7709 84.664 77.2609 83.88V85H78.6469V77.972H77.2609V81.598C77.2609 82.76 76.6589 83.922 75.3569 83.922C74.3489 83.922 73.8309 83.152 73.8309 82.2V77.972H72.4589V82.522C72.4589 83.978 73.5509 85.14 75.0069 85.14ZM87.416 81.598C87.416 79.47 86.142 77.818 84.014 77.818C81.9 77.818 80.528 79.414 80.528 81.5C80.528 83.6 81.942 85.14 84.056 85.14C85.512 85.14 86.646 84.44 87.262 83.054L85.946 82.816C85.568 83.586 84.91 83.95 84.056 83.95C82.838 83.95 81.942 83.138 81.872 81.906H87.402C87.416 81.808 87.416 81.696 87.416 81.598ZM81.928 80.828C82.082 79.708 82.88 78.966 84.014 78.966C85.078 78.966 85.932 79.708 86.03 80.828H81.928ZM94.6163 85V74.92H93.2303V85H94.6163ZM100.166 77.832C98.0099 77.832 96.5399 79.358 96.5399 81.486C96.5399 83.614 98.0099 85.14 100.166 85.14C102.294 85.14 103.764 83.614 103.764 81.486C103.764 79.358 102.28 77.832 100.166 77.832ZM100.152 83.922C98.7519 83.922 97.9539 82.872 97.9539 81.486C97.9539 80.1 98.7519 79.05 100.152 79.05C101.552 79.05 102.35 80.1 102.35 81.486C102.35 82.872 101.552 83.922 100.152 83.922ZM108.828 83.922C107.414 83.922 106.686 82.83 106.686 81.486C106.686 80.142 107.414 79.05 108.842 79.05C109.752 79.05 110.48 79.624 110.704 80.506L112.048 80.268C111.74 78.77 110.298 77.832 108.856 77.832C106.728 77.832 105.3 79.4 105.3 81.486C105.3 83.586 106.728 85.14 108.856 85.14C110.312 85.14 111.74 84.202 112.048 82.704L110.704 82.466C110.48 83.348 109.752 83.922 108.828 83.922ZM117.208 80.884L120.134 77.972H118.328L115.318 80.996V74.92H113.932V85H115.318V82.69L116.256 81.752L118.664 85H120.344L117.208 80.884ZM128.231 81.598C128.231 79.47 126.957 77.818 124.829 77.818C122.715 77.818 121.343 79.414 121.343 81.5C121.343 83.6 122.757 85.14 124.871 85.14C126.327 85.14 127.461 84.44 128.077 83.054L126.761 82.816C126.383 83.586 125.725 83.95 124.871 83.95C123.653 83.95 122.757 83.138 122.687 81.906H128.217C128.231 81.808 128.231 81.696 128.231 81.598ZM122.743 80.828C122.897 79.708 123.695 78.966 124.829 78.966C125.893 78.966 126.747 79.708 126.845 80.828H122.743ZM136.915 74.92H135.529V79.05C135.011 78.294 134.101 77.832 133.065 77.832C131.119 77.832 129.789 79.414 129.789 81.472C129.789 83.516 131.105 85.14 133.051 85.14C134.073 85.14 135.025 84.692 135.529 83.908V85H136.915V74.92ZM135.543 81.486C135.543 82.844 134.745 83.922 133.345 83.922C132.029 83.922 131.175 82.956 131.175 81.486C131.175 80.016 132.029 79.05 133.345 79.05C134.745 79.05 135.543 80.128 135.543 81.486Z"
      fill="#99A8A7" />
    <path
      d="M286.295 77.916L287.625 78.154C287.737 77.006 288.549 76.334 289.627 76.334C290.677 76.334 291.489 77.006 291.489 78.098C291.489 78.966 290.985 79.596 290.257 80.226L286.239 83.698V85H292.917V83.726H288.185L291.167 81.15C292.077 80.366 292.889 79.386 292.889 78.042C292.889 76.236 291.391 75.06 289.599 75.06C287.723 75.06 286.421 76.306 286.295 77.916ZM299.067 75.2L294.461 81.528V82.816H299.067V85H300.481V82.816H301.713V81.528H300.481V75.2H299.067ZM299.067 77.272V81.528H296.085L299.067 77.272ZM307.347 77.832C306.227 77.832 305.457 78.518 305.051 79.162V74.92H303.665V85H305.051V81.444C305.051 80.1 305.779 79.05 306.983 79.05C308.019 79.05 308.495 79.848 308.495 80.772V85H309.881V80.45C309.881 79.134 308.901 77.832 307.347 77.832ZM320.498 83.852C318.468 83.852 317.208 82.214 317.208 80.1C317.208 77.972 318.468 76.348 320.498 76.348C321.912 76.348 322.92 77.118 323.354 78.294L324.782 78.042C324.194 76.208 322.556 75.06 320.47 75.06C317.6 75.06 315.766 77.216 315.766 80.1C315.766 82.984 317.6 85.14 320.512 85.14C322.598 85.14 324.222 84.048 324.838 82.158L323.41 81.906C322.976 83.096 321.884 83.852 320.498 83.852ZM330.523 77.832C329.403 77.832 328.633 78.518 328.227 79.162V74.92H326.841V85H328.227V81.444C328.227 80.1 328.955 79.05 330.159 79.05C331.195 79.05 331.671 79.848 331.671 80.772V85H333.057V80.45C333.057 79.134 332.077 77.832 330.523 77.832ZM338.003 77.818C336.533 77.818 335.273 78.658 335.021 80.03L336.351 80.254C336.463 79.498 337.149 78.994 337.933 78.994C338.759 78.994 339.515 79.442 339.515 80.394V80.618C338.003 80.618 334.881 80.702 334.881 82.984C334.881 84.258 335.875 85.14 337.191 85.14C338.297 85.14 338.983 84.72 339.515 83.922V85H340.901V80.478C340.901 78.784 339.669 77.818 338.003 77.818ZM339.515 81.976C339.515 83.04 338.689 83.992 337.569 83.992C336.855 83.992 336.253 83.628 336.253 82.97C336.253 81.542 339.137 81.654 339.515 81.64V81.976ZM346.729 77.832C345.805 77.832 344.965 78.308 344.475 79.092V77.972H343.089V85H344.475V81.374C344.475 80.212 345.077 79.05 346.379 79.05C347.415 79.05 347.919 79.82 347.919 80.772V85H349.305V80.45C349.305 79.008 348.185 77.832 346.729 77.832ZM354.517 84.972C355.413 84.972 356.365 84.636 356.883 83.866V84.93C356.883 86.274 356.085 87.002 354.741 87.002C353.901 87.002 353.061 86.68 352.823 85.84L351.423 86.078C351.843 87.576 353.187 88.22 354.713 88.22C356.799 88.22 358.255 87.044 358.255 84.888V77.972H356.883V79.022C356.351 78.238 355.357 77.832 354.447 77.832C352.445 77.832 351.143 79.484 351.143 81.402C351.143 83.362 352.501 84.972 354.517 84.972ZM356.883 81.402C356.883 82.718 356.057 83.74 354.699 83.74C353.327 83.74 352.529 82.746 352.529 81.402C352.529 80.058 353.327 79.064 354.699 79.064C356.057 79.064 356.883 80.086 356.883 81.402ZM367.024 81.598C367.024 79.47 365.75 77.818 363.622 77.818C361.508 77.818 360.136 79.414 360.136 81.5C360.136 83.6 361.55 85.14 363.664 85.14C365.12 85.14 366.254 84.44 366.87 83.054L365.554 82.816C365.176 83.586 364.518 83.95 363.664 83.95C362.446 83.95 361.55 83.138 361.48 81.906H367.01C367.024 81.808 367.024 81.696 367.024 81.598ZM361.536 80.828C361.69 79.708 362.488 78.966 363.622 78.966C364.686 78.966 365.54 79.708 365.638 80.828H361.536Z"
      fill="#99A8A7" />
    <g filter="url(#filter2_d_1265_30949)">
      <path
        d="M31.7641 107.832L34.4241 108.308C34.6481 106.012 36.2721 104.668 38.4281 104.668C40.5281 104.668 42.1521 106.012 42.1521 108.196C42.1521 109.932 41.1441 111.192 39.6881 112.452L31.6521 119.396V122H45.0081V119.452H35.5441L41.5081 114.3C43.3281 112.732 44.9521 110.772 44.9521 108.084C44.9521 104.472 41.9561 102.12 38.3721 102.12C34.6201 102.12 32.0161 104.612 31.7641 107.832ZM47.9997 116.456C48.0837 120.124 51.1357 122.28 54.7757 122.28C58.4437 122.28 61.6357 120.068 61.6357 116.428C61.6357 114.216 60.3477 112.312 58.3037 111.528C59.7877 110.744 60.8517 109.204 60.8517 107.356C60.8517 104.136 58.0517 102.12 54.8317 102.12C51.5837 102.12 48.9237 104.164 48.8397 107.356L51.5277 107.832C51.5557 105.872 52.8997 104.64 54.7757 104.64C56.5117 104.64 58.0797 105.76 58.0797 107.524C58.0797 109.316 56.5677 110.408 54.8317 110.408H53.0957V112.844H54.8037C56.8197 112.844 58.8357 114.132 58.8357 116.288C58.8357 118.444 56.8477 119.76 54.7757 119.76C52.5637 119.76 50.6597 118.36 50.6597 115.98L47.9997 116.456ZM65.5813 119.2L64.4613 126.508H66.6453L68.6053 119.2H65.5813ZM78.3948 115.336C79.1228 115.336 80.0188 115.168 80.5228 114.832L75.3988 121.86L78.2828 122.392C79.5988 120.544 82.0628 117.212 83.5468 115C84.9468 112.984 85.7308 110.996 85.7308 108.896C85.7308 104.948 82.6228 102.092 78.7308 102.092C74.8388 102.092 71.7308 104.752 71.7308 108.7C71.7308 112.592 74.8668 115.336 78.3948 115.336ZM78.7028 104.64C80.9988 104.64 82.9308 106.376 82.9308 108.756C82.9308 111.108 80.9988 112.844 78.6748 112.844C76.3508 112.844 74.5308 111.08 74.5308 108.728C74.5308 106.404 76.3788 104.64 78.7028 104.64ZM88.7758 107.832L91.4358 108.308C91.6598 106.012 93.2838 104.668 95.4398 104.668C97.5398 104.668 99.1638 106.012 99.1638 108.196C99.1638 109.932 98.1558 111.192 96.6998 112.452L88.6638 119.396V122H102.02V119.452H92.5558L98.5198 114.3C100.34 112.732 101.964 110.772 101.964 108.084C101.964 104.472 98.9678 102.12 95.3838 102.12C91.6318 102.12 89.0278 104.612 88.7758 107.832ZM115.427 111.472C116.939 110.66 117.891 109.204 117.891 107.356C117.891 104.332 115.343 102.12 111.871 102.12C108.427 102.12 105.851 104.332 105.851 107.328C105.851 109.204 106.859 110.66 108.343 111.472C106.243 112.424 105.039 114.244 105.039 116.428C105.039 119.816 107.895 122.28 111.871 122.28C115.847 122.28 118.731 119.816 118.731 116.428C118.731 114.244 117.527 112.424 115.427 111.472ZM108.651 107.524C108.651 105.928 110.051 104.64 111.899 104.64C113.775 104.64 115.119 105.928 115.119 107.524C115.119 109.148 113.775 110.408 111.899 110.408C110.051 110.408 108.651 109.148 108.651 107.524ZM111.871 119.76C109.547 119.76 107.839 118.192 107.839 116.26C107.839 114.328 109.547 112.844 111.871 112.844C114.195 112.844 115.903 114.328 115.903 116.26C115.903 118.192 114.195 119.76 111.871 119.76ZM122.511 119.2L121.391 126.508H123.575L125.535 119.2H122.511ZM129.491 107.832L132.151 108.308C132.375 106.012 133.999 104.668 136.155 104.668C138.255 104.668 139.879 106.012 139.879 108.196C139.879 109.932 138.871 111.192 137.415 112.452L129.379 119.396V122H142.735V119.452H133.271L139.235 114.3C141.055 112.732 142.679 110.772 142.679 108.084C142.679 104.472 139.683 102.12 136.099 102.12C132.347 102.12 129.743 104.612 129.491 107.832ZM152.168 115.336C152.896 115.336 153.792 115.168 154.296 114.832L149.172 121.86L152.056 122.392C153.372 120.544 155.836 117.212 157.32 115C158.72 112.984 159.504 110.996 159.504 108.896C159.504 104.948 156.396 102.092 152.504 102.092C148.612 102.092 145.504 104.752 145.504 108.7C145.504 112.592 148.64 115.336 152.168 115.336ZM152.476 104.64C154.772 104.64 156.704 106.376 156.704 108.756C156.704 111.108 154.772 112.844 152.448 112.844C150.124 112.844 148.304 111.08 148.304 108.728C148.304 106.404 150.152 104.64 152.476 104.64ZM162.549 107.832L165.209 108.308C165.433 106.012 167.057 104.668 169.213 104.668C171.313 104.668 172.937 106.012 172.937 108.196C172.937 109.932 171.929 111.192 170.473 112.452L162.437 119.396V122H175.793V119.452H166.329L172.293 114.3C174.113 112.732 175.737 110.772 175.737 108.084C175.737 104.472 172.741 102.12 169.157 102.12C165.405 102.12 162.801 104.612 162.549 107.832Z"
        fill="white" />
    </g>
    <path
      d="M17.3822 111.76C17.8502 113.668 19.3262 114.874 21.3062 115.126V116.35H22.8002V115.144C24.8882 114.892 26.6162 113.56 26.6162 111.346C26.6162 108.916 24.6002 108.286 22.8002 107.764V104.272C23.4662 104.506 23.9882 105.028 24.2222 105.82L26.2742 105.46C25.8242 103.642 24.3662 102.58 22.8002 102.292V101.086H21.3062V102.256C19.4162 102.472 17.6522 103.768 17.6522 105.928C17.6522 108.178 19.5422 108.826 21.3062 109.33V113.164C20.3702 112.93 19.6502 112.282 19.4702 111.382L17.3822 111.76ZM19.8122 105.784C19.8122 104.956 20.4422 104.362 21.3062 104.182V107.314C20.4602 107.008 19.8122 106.594 19.8122 105.784ZM24.4562 111.526C24.4562 112.462 23.7002 113.038 22.8002 113.2V109.798C23.7362 110.158 24.4562 110.608 24.4562 111.526Z"
      fill="#99A8A7" />
    <path
      d="M332.688 111.79H329.628V108.532H327.576V111.79H324.498V113.662H327.576V116.938H329.628V113.662H332.688V111.79ZM334.388 107.308H336.476V118H338.618V105.4H334.388V107.308ZM341.667 108.964L343.683 109.324C343.827 107.848 344.817 107.11 346.023 107.11C347.265 107.11 348.219 107.902 348.219 109.18C348.219 110.17 347.661 110.908 346.707 111.718L341.595 116.092V118H350.379V116.11H344.475L348.039 113.05C349.245 112.024 350.343 110.782 350.343 109.036C350.343 106.732 348.381 105.22 346.023 105.22C343.557 105.22 341.829 106.84 341.667 108.964ZM362.184 105.076L352.95 118L354.768 118.324L364.002 105.4L362.184 105.076ZM357.684 108.334C357.684 106.498 356.622 105.22 354.75 105.22C352.896 105.22 351.834 106.498 351.834 108.334C351.834 110.188 352.896 111.466 354.75 111.466C356.622 111.466 357.684 110.188 357.684 108.334ZM353.544 108.334C353.544 107.488 354.012 106.876 354.75 106.876C355.506 106.876 355.974 107.488 355.974 108.334C355.974 109.216 355.506 109.81 354.75 109.81C354.012 109.81 353.544 109.216 353.544 108.334ZM362.202 111.934C360.348 111.934 359.286 113.212 359.286 115.066C359.286 116.902 360.348 118.18 362.202 118.18C364.056 118.18 365.136 116.902 365.136 115.066C365.136 113.212 364.056 111.934 362.202 111.934ZM362.202 116.524C361.446 116.524 360.996 115.93 360.996 115.048C360.996 114.202 361.446 113.59 362.202 113.59C362.958 113.59 363.426 114.202 363.426 115.048C363.426 115.93 362.958 116.524 362.202 116.524Z"
      fill="#11BEA9" />
    <rect x="6.10352e-05" y="192" width="384" height="56" fill="#002522" />
    <line x1="6.10352e-05" y1="191.5" x2="384" y2="191.5" stroke="#001413" />
    <path
      d="M32.3841 166.8L29.2641 175.952L26.1441 166.8H24.3681L28.3681 178H30.1921L34.1601 166.8H32.3841ZM37.5514 169.792C35.8714 169.792 34.4314 170.752 34.1434 172.32L35.6634 172.576C35.7914 171.712 36.5754 171.136 37.4714 171.136C38.4154 171.136 39.2794 171.648 39.2794 172.736V172.992C37.5514 172.992 33.9834 173.088 33.9834 175.696C33.9834 177.152 35.1194 178.16 36.6234 178.16C37.8874 178.16 38.6714 177.68 39.2794 176.768V178H40.8634V172.832C40.8634 170.896 39.4554 169.792 37.5514 169.792ZM39.2794 174.544C39.2794 175.76 38.3354 176.848 37.0554 176.848C36.2394 176.848 35.5514 176.432 35.5514 175.68C35.5514 174.048 38.8474 174.176 39.2794 174.16V174.544ZM45.7634 178.16C46.8194 178.16 47.7794 177.616 48.3394 176.72V178H49.9234V169.968H48.3394V174.112C48.3394 175.44 47.6514 176.768 46.1634 176.768C45.0114 176.768 44.4194 175.888 44.4194 174.8V169.968H42.8514V175.168C42.8514 176.832 44.0994 178.16 45.7634 178.16ZM53.6092 178V166.48H52.0252V178H53.6092ZM59.5817 171.28V169.968H57.8377V167.616L56.2857 167.888V169.968H54.9897V171.28H56.2697V175.744C56.2697 177.344 57.0537 178.16 58.6537 178.16C58.9577 178.16 59.3257 178.128 59.6297 178.064V176.624C59.4057 176.704 59.1657 176.736 58.9257 176.736C57.9817 176.736 57.8537 176.32 57.8537 175.424V171.28H59.5817ZM62.3803 172.112C62.3803 171.424 63.1323 171.088 63.8043 171.088C64.5723 171.088 65.1963 171.52 65.3563 172.24L66.8763 171.984C66.5883 170.576 65.2123 169.776 63.8043 169.776C62.2843 169.776 60.8603 170.736 60.8603 172.256C60.8603 173.776 62.3163 174.304 63.9963 174.672C64.7643 174.848 65.5643 175.056 65.5643 175.792C65.5643 176.576 64.6523 176.848 63.9643 176.848C63.0683 176.848 62.4283 176.4 62.2523 175.536L60.7163 175.792C60.9403 177.392 62.4123 178.16 63.9963 178.16C65.6123 178.16 67.1163 177.344 67.1163 175.728C67.1163 174.064 65.5163 173.568 64.0763 173.264C63.2443 173.088 62.3803 172.848 62.3803 172.112Z"
      fill="#D08E39" />
    <line x1="38.0001" y1="191" x2="54.0001" y2="191" stroke="#D08E39" stroke-width="2" stroke-linecap="round" />
    <path
      d="M86.8481 176.528V166.8H85.2001V178H92.2721V176.528H86.8481ZM98.2027 166.8H94.0907V178H95.7387V173.776H98.2027C100.475 173.776 102.027 172.432 102.027 170.288C102.027 168.16 100.459 166.8 98.2027 166.8ZM98.0907 172.32H95.7387V168.272H98.0907C99.4667 168.272 100.363 169.072 100.363 170.288C100.363 171.52 99.4667 172.32 98.0907 172.32ZM111.984 166.8H107.872V178H109.52V173.776H111.984C114.256 173.776 115.808 172.432 115.808 170.288C115.808 168.16 114.24 166.8 111.984 166.8ZM111.872 172.32H109.52V168.272H111.872C113.248 168.272 114.144 169.072 114.144 170.288C114.144 171.52 113.248 172.32 111.872 172.32ZM120.909 169.808C118.445 169.808 116.765 171.552 116.765 173.984C116.765 176.416 118.445 178.16 120.909 178.16C123.341 178.16 125.021 176.416 125.021 173.984C125.021 171.552 123.325 169.808 120.909 169.808ZM120.893 176.768C119.293 176.768 118.381 175.568 118.381 173.984C118.381 172.4 119.293 171.2 120.893 171.2C122.493 171.2 123.405 172.4 123.405 173.984C123.405 175.568 122.493 176.768 120.893 176.768ZM130.44 169.808C127.976 169.808 126.296 171.552 126.296 173.984C126.296 176.416 127.976 178.16 130.44 178.16C132.872 178.16 134.552 176.416 134.552 173.984C134.552 171.552 132.856 169.808 130.44 169.808ZM130.424 176.768C128.824 176.768 127.912 175.568 127.912 173.984C127.912 172.4 128.824 171.2 130.424 171.2C132.024 171.2 132.936 172.4 132.936 173.984C132.936 175.568 132.024 176.768 130.424 176.768ZM137.844 178V166.48H136.26V178H137.844ZM141.146 172.112C141.146 171.424 141.898 171.088 142.57 171.088C143.338 171.088 143.962 171.52 144.122 172.24L145.642 171.984C145.354 170.576 143.978 169.776 142.57 169.776C141.05 169.776 139.626 170.736 139.626 172.256C139.626 173.776 141.082 174.304 142.762 174.672C143.53 174.848 144.33 175.056 144.33 175.792C144.33 176.576 143.418 176.848 142.73 176.848C141.834 176.848 141.194 176.4 141.018 175.536L139.482 175.792C139.706 177.392 141.178 178.16 142.762 178.16C144.378 178.16 145.882 177.344 145.882 175.728C145.882 174.064 144.282 173.568 142.842 173.264C142.01 173.088 141.146 172.848 141.146 172.112Z"
      fill="#99A8A7" />
    <path
      d="M170.856 166.8L168.056 171.984L165.24 166.8H163.384L167.224 173.632V178H168.872V173.632L172.728 166.8H170.856ZM176.347 169.808C173.883 169.808 172.203 171.552 172.203 173.984C172.203 176.416 173.883 178.16 176.347 178.16C178.779 178.16 180.459 176.416 180.459 173.984C180.459 171.552 178.763 169.808 176.347 169.808ZM176.331 176.768C174.731 176.768 173.819 175.568 173.819 173.984C173.819 172.4 174.731 171.2 176.331 171.2C177.931 171.2 178.843 172.4 178.843 173.984C178.843 175.568 177.931 176.768 176.331 176.768ZM184.998 178.16C186.054 178.16 187.014 177.616 187.574 176.72V178H189.158V169.968H187.574V174.112C187.574 175.44 186.886 176.768 185.398 176.768C184.246 176.768 183.654 175.888 183.654 174.8V169.968H182.086V175.168C182.086 176.832 183.334 178.16 184.998 178.16ZM195.708 169.84C195.516 169.808 195.34 169.808 195.18 169.824C194.076 169.84 193.34 170.32 192.78 171.312V169.968H191.196V178H192.78V173.984C192.78 172.048 193.948 171.056 195.708 171.248V169.84ZM208.769 166.48H207.185V171.2C206.593 170.336 205.553 169.808 204.369 169.808C202.145 169.808 200.625 171.616 200.625 173.968C200.625 176.304 202.129 178.16 204.353 178.16C205.521 178.16 206.609 177.648 207.185 176.752V178H208.769V166.48ZM207.201 173.984C207.201 175.536 206.289 176.768 204.689 176.768C203.185 176.768 202.209 175.664 202.209 173.984C202.209 172.304 203.185 171.2 204.689 171.2C206.289 171.2 207.201 172.432 207.201 173.984ZM218.356 174.112C218.356 171.68 216.9 169.792 214.468 169.792C212.052 169.792 210.484 171.616 210.484 174C210.484 176.4 212.1 178.16 214.516 178.16C216.18 178.16 217.476 177.36 218.18 175.776L216.676 175.504C216.244 176.384 215.492 176.8 214.516 176.8C213.124 176.8 212.1 175.872 212.02 174.464H218.34C218.356 174.352 218.356 174.224 218.356 174.112ZM212.084 173.232C212.26 171.952 213.172 171.104 214.468 171.104C215.684 171.104 216.66 171.952 216.772 173.232H212.084ZM220.072 181.52H221.656V176.768C222.248 177.632 223.288 178.16 224.472 178.16C226.696 178.16 228.216 176.352 228.216 174C228.216 171.664 226.712 169.808 224.488 169.808C223.288 169.808 222.232 170.336 221.656 171.216V169.968H220.072V181.52ZM221.64 173.984C221.64 172.432 222.552 171.2 224.152 171.2C225.656 171.2 226.632 172.304 226.632 173.984C226.632 175.664 225.656 176.768 224.152 176.768C222.552 176.768 221.64 175.552 221.64 173.984ZM233.643 169.808C231.179 169.808 229.499 171.552 229.499 173.984C229.499 176.416 231.179 178.16 233.643 178.16C236.075 178.16 237.755 176.416 237.755 173.984C237.755 171.552 236.059 169.808 233.643 169.808ZM233.627 176.768C232.027 176.768 231.115 175.568 231.115 173.984C231.115 172.4 232.027 171.2 233.627 171.2C235.227 171.2 236.139 172.4 236.139 173.984C236.139 175.568 235.227 176.768 233.627 176.768ZM240.615 172.112C240.615 171.424 241.367 171.088 242.039 171.088C242.807 171.088 243.431 171.52 243.591 172.24L245.111 171.984C244.823 170.576 243.447 169.776 242.039 169.776C240.519 169.776 239.095 170.736 239.095 172.256C239.095 173.776 240.551 174.304 242.231 174.672C242.999 174.848 243.799 175.056 243.799 175.792C243.799 176.576 242.887 176.848 242.199 176.848C241.303 176.848 240.663 176.4 240.487 175.536L238.951 175.792C239.175 177.392 240.647 178.16 242.231 178.16C243.847 178.16 245.351 177.344 245.351 175.728C245.351 174.064 243.751 173.568 242.311 173.264C241.479 173.088 240.615 172.848 240.615 172.112ZM247.811 168.256C248.403 168.256 248.851 167.808 248.851 167.232C248.851 166.656 248.403 166.208 247.811 166.208C247.235 166.208 246.803 166.656 246.803 167.232C246.803 167.808 247.235 168.256 247.811 168.256ZM248.611 178V169.968H247.027V178H248.611ZM254.644 171.28V169.968H252.9V167.616L251.348 167.888V169.968H250.052V171.28H251.332V175.744C251.332 177.344 252.116 178.16 253.716 178.16C254.02 178.16 254.388 178.128 254.692 178.064V176.624C254.468 176.704 254.228 176.736 253.988 176.736C253.044 176.736 252.916 176.32 252.916 175.424V171.28H254.644ZM257.443 172.112C257.443 171.424 258.195 171.088 258.867 171.088C259.635 171.088 260.259 171.52 260.419 172.24L261.939 171.984C261.651 170.576 260.275 169.776 258.867 169.776C257.347 169.776 255.923 170.736 255.923 172.256C255.923 173.776 257.379 174.304 259.059 174.672C259.827 174.848 260.627 175.056 260.627 175.792C260.627 176.576 259.715 176.848 259.027 176.848C258.131 176.848 257.491 176.4 257.315 175.536L255.779 175.792C256.003 177.392 257.475 178.16 259.059 178.16C260.675 178.16 262.179 177.344 262.179 175.728C262.179 174.064 260.579 173.568 259.139 173.264C258.307 173.088 257.443 172.848 257.443 172.112Z"
      fill="#99A8A7" />
    <rect x="16.0001" y="242" width="168" height="258" rx="8" fill="#193330" />
    <rect x="76.5001" y="218.5" width="47" height="47" rx="23.5" fill="#1BA58C" stroke="#FAF8F1" />
    <path fill-rule="evenodd" clip-rule="evenodd"
      d="M100 218C86.7452 218 76.0001 228.745 76.0001 242C76.0001 255.255 86.7452 266 100 266C113.255 266 124 255.255 124 242C124 228.745 113.255 218 100 218ZM107.696 237.172H109.04V233.306H100.291V237.117H101.652L98.9475 240.276H97.8403V237.117H99.3831V233.306H97.3139V234.74H96.1885V233.306H94.1374V234.74H93.012V233.306H90.9246V237.172H92.7579V242V246.792H90.9246V250.658H99.4013V246.828H97.8584V243.67H98.9656L101.67 246.828H100.309V250.658H109.058V246.792H107.696L103.576 241.982L107.696 237.172Z"
      fill="#001413" />
    <rect x="76.5001" y="218.5" width="47" height="47" rx="23.5" fill="#1BA58C" stroke="#FAF8F1" />
    <path
      d="M100 266C113.255 266 124 255.255 124 242C124 228.745 113.255 218 100 218C86.7452 218 76.0001 228.745 76.0001 242C76.0001 255.255 86.7452 266 100 266Z"
      fill="#26A17B" />
    <path
      d="M102.558 244.215V244.211C102.392 244.222 101.536 244.273 99.6297 244.273C98.1055 244.273 97.0367 244.23 96.6586 244.211V244.215C90.7975 243.956 86.4258 242.938 86.4258 241.714C86.4258 240.495 90.8014 239.473 96.6586 239.214V243.2C97.0406 243.227 98.1403 243.292 99.6567 243.292C101.478 243.292 102.388 243.215 102.558 243.2V239.218C108.408 239.48 112.768 240.499 112.768 241.718C112.768 242.938 108.404 243.956 102.558 244.219V244.215ZM102.558 238.805V235.24H110.719V229.803H88.5017V235.24H96.6625V238.805C90.0297 239.11 85.0444 240.422 85.0444 241.996C85.0444 243.57 90.0335 244.882 96.6625 245.191V256.62H102.562V245.191C109.183 244.886 114.161 243.574 114.161 242C114.161 240.429 109.183 239.114 102.562 238.809"
      fill="white" />
    <rect x="71.0001" y="253" width="18" height="18" rx="3" fill="#006AE3" stroke="#193330" stroke-width="2" />
    <rect x="72.0001" y="254" width="16" height="16" rx="2" fill="#006AE3" />
    <path fill-rule="evenodd" clip-rule="evenodd"
      d="M80.0001 254C84.4177 254 88.0001 257.582 88.0001 262C88.0001 266.418 84.4177 270 80.0001 270C75.5825 270 72.0001 266.418 72.0001 262C72.0001 257.582 75.5825 254 80.0001 254Z"
      fill="#006AE3" />
    <path d="M79.6705 265.373V258.717H80.3953V265.373H79.6705Z" fill="white" />
    <path
      d="M83.3601 260.934L81.1217 261.528L80.6225 259.205L81.2881 259.054L81.5505 260.155C81.5505 260.155 82.1553 259.163 81.3489 258.136C80.8737 257.608 80.6481 257.586 80.1153 257.502C79.6465 257.435 78.5569 257.594 78.2321 258.866C78.0945 259.685 78.2497 260.291 79.3057 261.085L79.2465 261.968C79.2465 261.968 78.0673 261.138 77.7633 260.555C77.5281 260.094 77.1249 259.184 77.8529 257.917C78.2449 257.283 79.0177 256.675 80.3793 256.739C81.0641 256.768 82.7361 257.605 82.4769 259.56C82.4321 259.926 82.2417 260.414 82.2417 260.414L83.1601 260.21L83.3601 260.934Z"
      fill="white" />
    <path
      d="M82.0817 266.142C81.6721 266.765 80.8833 267.352 79.5249 267.253C78.8401 267.206 77.1921 266.325 77.5025 264.378C77.5569 264.013 77.7601 263.531 77.7601 263.531L76.8369 263.71L76.6561 262.982L78.9105 262.448L79.3489 264.784L78.6785 264.917L78.4449 263.808C78.4449 263.808 77.8145 264.782 78.5921 265.832C79.0529 266.373 79.2769 266.4 79.8097 266.498C80.2753 266.578 81.3697 266.446 81.7281 265.184C81.8865 264.37 81.7473 263.758 80.7137 262.936L80.7969 262.054C80.7969 262.054 81.9537 262.915 82.2417 263.506C82.4625 263.974 82.8417 264.896 82.0817 266.142Z"
      fill="white" />
    <g filter="url(#filter3_ddd_1265_30949)">
      <rect x="200" y="242" width="168" height="258" rx="8" fill="url(#paint0_linear_1265_30949)" />
    </g>
    <rect x="260.5" y="218.5" width="47" height="47" rx="23.5" fill="#1BA58C" stroke="#FAF8F1" />
    <path fill-rule="evenodd" clip-rule="evenodd"
      d="M284 218C270.745 218 260 228.745 260 242C260 255.255 270.745 266 284 266C297.255 266 308 255.255 308 242C308 228.745 297.255 218 284 218ZM291.696 237.172H293.04V233.306H284.291V237.117H285.652L282.947 240.276H281.84V237.117H283.383V233.306H281.314V234.74H280.188V233.306H278.137V234.74H277.012V233.306H274.925V237.172H276.758V242V246.792H274.925V250.658H283.401V246.828H281.858V243.67H282.966L285.67 246.828H284.309V250.658H293.058V246.792H291.696L287.576 241.982L291.696 237.172Z"
      fill="#001413" />
    <rect x="255" y="253" width="18" height="18" rx="3" fill="#006AE3" stroke="#193330" stroke-width="2" />
    <rect x="256" y="254" width="16" height="16" rx="2" fill="#006AE3" />
    <path fill-rule="evenodd" clip-rule="evenodd"
      d="M264 254C268.418 254 272 257.582 272 262C272 266.418 268.418 270 264 270C259.582 270 256 266.418 256 262C256 257.582 259.582 254 264 254Z"
      fill="#006AE3" />
    <path d="M263.67 265.373V258.717H264.395V265.373H263.67Z" fill="white" />
    <path
      d="M267.36 260.934L265.122 261.528L264.622 259.205L265.288 259.054L265.55 260.155C265.55 260.155 266.155 259.163 265.349 258.136C264.874 257.608 264.648 257.586 264.115 257.502C263.646 257.435 262.557 257.594 262.232 258.866C262.094 259.685 262.25 260.291 263.306 261.085L263.246 261.968C263.246 261.968 262.067 261.138 261.763 260.555C261.528 260.094 261.125 259.184 261.853 257.917C262.245 257.283 263.018 256.675 264.379 256.739C265.064 256.768 266.736 257.605 266.477 259.56C266.432 259.926 266.242 260.414 266.242 260.414L267.16 260.21L267.36 260.934Z"
      fill="white" />
    <path
      d="M266.082 266.142C265.672 266.765 264.883 267.352 263.525 267.253C262.84 267.206 261.192 266.325 261.502 264.378C261.557 264.013 261.76 263.531 261.76 263.531L260.837 263.71L260.656 262.982L262.91 262.448L263.349 264.784L262.678 264.917L262.445 263.808C262.445 263.808 261.814 264.782 262.592 265.832C263.053 266.373 263.277 266.4 263.81 266.498C264.275 266.578 265.37 266.446 265.728 265.184C265.886 264.37 265.747 263.758 264.714 262.936L264.797 262.054C264.797 262.054 265.954 262.915 266.242 263.506C266.462 263.974 266.842 264.896 266.082 266.142Z"
      fill="white" />
    <g filter="url(#filter4_ddd_1265_30949)">
      <rect x="6.10352e-05" width="384" height="64" rx="16" fill="#002522" />
    </g>
    <path
      d="M255.5 30C255.5 30.4142 255.836 30.75 256.25 30.75H259.148C259.16 30.75 259.198 30.7575 259.227 30.8138C259.259 30.8745 259.257 30.9537 259.224 31.0111L254.5 39.1992V34C254.5 33.5858 254.164 33.25 253.75 33.25H250.852H250.852C250.84 33.25 250.802 33.2427 250.773 33.1867C250.741 33.1263 250.743 33.0473 250.776 32.9902L250.776 32.9899L255.5 24.801V30Z"
      stroke="#99A8A7" stroke-width="1.5" stroke-linejoin="round" />
    <path
      d="M281.171 26.8H277.059V38H278.707V33.776H281.171C283.443 33.776 284.995 32.432 284.995 30.288C284.995 28.16 283.427 26.8 281.171 26.8ZM281.059 32.32H278.707V28.272H281.059C282.435 28.272 283.331 29.072 283.331 30.288C283.331 31.52 282.435 32.32 281.059 32.32ZM290.097 29.808C287.633 29.808 285.953 31.552 285.953 33.984C285.953 36.416 287.633 38.16 290.097 38.16C292.529 38.16 294.209 36.416 294.209 33.984C294.209 31.552 292.513 29.808 290.097 29.808ZM290.081 36.768C288.481 36.768 287.569 35.568 287.569 33.984C287.569 32.4 288.481 31.2 290.081 31.2C291.681 31.2 292.593 32.4 292.593 33.984C292.593 35.568 291.681 36.768 290.081 36.768ZM296.78 28.256C297.372 28.256 297.82 27.808 297.82 27.232C297.82 26.656 297.372 26.208 296.78 26.208C296.204 26.208 295.772 26.656 295.772 27.232C295.772 27.808 296.204 28.256 296.78 28.256ZM297.58 38V29.968H295.996V38H297.58ZM303.903 29.808C302.847 29.808 301.887 30.352 301.327 31.248V29.968H299.743V38H301.327V33.856C301.327 32.528 302.015 31.2 303.503 31.2C304.687 31.2 305.263 32.08 305.263 33.168V38H306.847V32.8C306.847 31.152 305.567 29.808 303.903 29.808ZM312.644 31.28V29.968H310.9V27.616L309.348 27.888V29.968H308.052V31.28H309.332V35.744C309.332 37.344 310.116 38.16 311.716 38.16C312.02 38.16 312.388 38.128 312.692 38.064V36.624C312.468 36.704 312.228 36.736 311.988 36.736C311.044 36.736 310.916 36.32 310.916 35.424V31.28H312.644ZM321.543 34.112C321.543 31.68 320.087 29.792 317.655 29.792C315.239 29.792 313.671 31.616 313.671 34C313.671 36.4 315.287 38.16 317.703 38.16C319.367 38.16 320.663 37.36 321.367 35.776L319.863 35.504C319.431 36.384 318.679 36.8 317.703 36.8C316.311 36.8 315.287 35.872 315.207 34.464H321.527C321.543 34.352 321.543 34.224 321.543 34.112ZM315.271 33.232C315.447 31.952 316.359 31.104 317.655 31.104C318.871 31.104 319.847 31.952 319.959 33.232H315.271ZM327.708 29.84C327.516 29.808 327.34 29.808 327.18 29.824C326.076 29.84 325.34 30.32 324.78 31.312V29.968H323.196V38H324.78V33.984C324.78 32.048 325.948 31.056 327.708 31.248V29.84Z"
      fill="white" />
    <mask id="mask0_1265_30949" style="mask-type:alpha" maskUnits="userSpaceOnUse" x="336" y="16" width="32"
      height="32">
      <path
        d="M336 28C336 21.3726 341.373 16 348 16H356C362.627 16 368 21.3726 368 28V36C368 42.6274 362.627 48 356 48H348C341.373 48 336 42.6274 336 36V28Z"
        fill="#C4C4C4" />
    </mask>
    <g mask="url(#mask0_1265_30949)">
      <rect x="336" y="16" width="32" height="32" fill="#FEFEFC" />
      <rect width="102" height="186.667" transform="matrix(-1 0 0 1 389.333 9.33337)" fill="url(#pattern0)" />
      <path
        d="M373.7 27.0388C373.7 38.7405 364.236 51.4 352.621 51.4C341.006 51.4 331.3 45.673 331.3 33.9712C331.3 22.2695 336.582 8.34071 352.621 9.0242C364.236 9.0242 373.7 15.337 373.7 27.0388Z"
        fill="#276668" />
      <rect x="332.1" y="14.6" width="41.6" height="42.4" fill="url(#pattern1)" />
    </g>
    <path
      d="M32.3833 28.032V26.8H25.3433V38H32.3833V36.768H26.6873V32.992H31.7433V31.792H26.6873V28.032H32.3833ZM37.8871 31.072V30H36.1431V27.744L34.8951 27.952V30H33.5991V31.072H34.8791V35.84C34.8791 37.28 35.5191 38.16 37.0231 38.16C37.3271 38.16 37.6471 38.128 37.9511 38.064V36.896C37.7271 36.976 37.4871 37.008 37.2631 37.008C36.2711 37.008 36.1591 36.544 36.1591 35.648V31.072H37.8871ZM43.6521 29.84C42.2921 29.84 41.3801 30.736 40.9641 31.456V26.48H39.6841V38H40.9641V33.968C40.9641 32.304 41.9561 31.008 43.3961 31.008C44.6281 31.008 45.2841 31.936 45.2841 33.072V38H46.5641V32.768C46.5641 31.344 45.3961 29.84 43.6521 29.84ZM56.1363 34.144C56.1363 31.728 54.7283 29.824 52.2963 29.824C49.8963 29.824 48.3603 31.648 48.3603 34.016C48.3603 36.4 49.9443 38.16 52.3603 38.16C54.0243 38.16 55.2563 37.344 55.9603 35.792L54.7123 35.568C54.2483 36.544 53.4323 37.008 52.3443 37.008C50.7923 37.008 49.6883 35.952 49.6243 34.416H56.1203C56.1363 34.336 56.1363 34.224 56.1363 34.144ZM49.6723 33.328C49.8643 31.904 50.8403 30.944 52.2963 30.944C53.6723 30.944 54.7283 31.92 54.8243 33.328H49.6723ZM62.1878 29.872C62.0118 29.84 61.8678 29.84 61.7238 29.84C60.5718 29.84 59.8038 30.352 59.2438 31.344V30H57.9638V38H59.2438V33.92C59.2438 32.048 60.2678 30.848 62.1878 31.024V29.872ZM70.4957 34.144C70.4957 31.728 69.0877 29.824 66.6557 29.824C64.2557 29.824 62.7197 31.648 62.7197 34.016C62.7197 36.4 64.3037 38.16 66.7197 38.16C68.3837 38.16 69.6157 37.344 70.3197 35.792L69.0717 35.568C68.6077 36.544 67.7917 37.008 66.7037 37.008C65.1517 37.008 64.0477 35.952 63.9837 34.416H70.4797C70.4957 34.336 70.4957 34.224 70.4957 34.144ZM64.0317 33.328C64.2237 31.904 65.1997 30.944 66.6557 30.944C68.0317 30.944 69.0877 31.92 69.1837 33.328H64.0317ZM75.2352 38.16C76.3072 38.16 77.3152 37.568 77.8592 36.64V38H79.1392V30H77.8592V34.128C77.8592 35.584 77.0432 36.992 75.4592 36.992C74.2592 36.992 73.5712 36.096 73.5712 34.928V30H72.2912V35.232C72.2912 36.864 73.6352 38.16 75.2352 38.16ZM90.1697 29.84C89.0177 29.84 87.9937 30.432 87.4657 31.584C87.1137 30.56 86.2017 29.84 85.0497 29.84C84.1057 29.84 83.1777 30.352 82.6657 31.344V30H81.3857V38H82.6657V33.696C82.6657 32.336 83.4017 31.008 84.7777 31.008C85.8977 31.008 86.5377 31.872 86.5377 33.088V38H87.8177V33.696C87.8177 32.336 88.5057 31.008 89.8817 31.008C90.9857 31.008 91.6257 31.872 91.6257 33.088V38H92.9057V33.056C92.9057 31.28 91.9137 29.84 90.1697 29.84Z"
      fill="#99A8A7" />
  </g>
  <defs>
    <filter id="filter0_d_1265_30949" x="-99.9999" y="-34" width="595" height="330.438" filterUnits="userSpaceOnUse"
      color-interpolation-filters="sRGB">
      <feFlood flood-opacity="0" result="BackgroundImageFix" />
      <feColorMatrix in="SourceAlpha" type="matrix" values="0 0 0 0 0 0 0 0 0 0 0 0 0 0 0 0 0 0 127 0"
        result="hardAlpha" />
      <feOffset dy="52" />
      <feGaussianBlur stdDeviation="50" />
      <feColorMatrix type="matrix" values="0 0 0 0 0.0666667 0 0 0 0 0.745098 0 0 0 0 0.662745 0 0 0 0.4 0" />
      <feBlend mode="normal" in2="BackgroundImageFix" result="effect1_dropShadow_1265_30949" />
      <feBlend mode="normal" in="SourceGraphic" in2="effect1_dropShadow_1265_30949" result="shape" />
    </filter>
    <filter id="filter1_d_1265_30949" x="-9.99994" y="10" width="415" height="148.438" filterUnits="userSpaceOnUse"
      color-interpolation-filters="sRGB">
      <feFlood flood-opacity="0" result="BackgroundImageFix" />
      <feColorMatrix in="SourceAlpha" type="matrix" values="0 0 0 0 0 0 0 0 0 0 0 0 0 0 0 0 0 0 127 0"
        result="hardAlpha" />
      <feOffset dy="4" />
      <feGaussianBlur stdDeviation="5" />
      <feColorMatrix type="matrix" values="0 0 0 0 0 0 0 0 0 0.145098 0 0 0 0 0.133333 0 0 0 1 0" />
      <feBlend mode="normal" in2="BackgroundImageFix" result="effect1_dropShadow_1265_30949" />
      <feBlend mode="normal" in="SourceGraphic" in2="effect1_dropShadow_1265_30949" result="shape" />
    </filter>
    <filter id="filter2_d_1265_30949" x="29.6521" y="102.092" width="148.141" height="28.416"
      filterUnits="userSpaceOnUse" color-interpolation-filters="sRGB">
      <feFlood flood-opacity="0" result="BackgroundImageFix" />
      <feColorMatrix in="SourceAlpha" type="matrix" values="0 0 0 0 0 0 0 0 0 0 0 0 0 0 0 0 0 0 127 0"
        result="hardAlpha" />
      <feOffset dy="2" />
      <feGaussianBlur stdDeviation="1" />
      <feColorMatrix type="matrix" values="0 0 0 0 0.027451 0 0 0 0 0.160784 0 0 0 0 0.14902 0 0 0 1 0" />
      <feBlend mode="normal" in2="BackgroundImageFix" result="effect1_dropShadow_1265_30949" />
      <feBlend mode="normal" in="SourceGraphic" in2="effect1_dropShadow_1265_30949" result="shape" />
    </filter>
    <filter id="filter3_ddd_1265_30949" x="176" y="240" width="216" height="308" filterUnits="userSpaceOnUse"
      color-interpolation-filters="sRGB">
      <feFlood flood-opacity="0" result="BackgroundImageFix" />
      <feColorMatrix in="SourceAlpha" type="matrix" values="0 0 0 0 0 0 0 0 0 0 0 0 0 0 0 0 0 0 127 0"
        result="hardAlpha" />
      <feOffset dy="10" />
      <feGaussianBlur stdDeviation="6" />
      <feColorMatrix type="matrix" values="0 0 0 0 0 0 0 0 0 0.0784314 0 0 0 0 0.0745098 0 0 0 0.54 0" />
      <feBlend mode="normal" in2="BackgroundImageFix" result="effect1_dropShadow_1265_30949" />
      <feColorMatrix in="SourceAlpha" type="matrix" values="0 0 0 0 0 0 0 0 0 0 0 0 0 0 0 0 0 0 127 0"
        result="hardAlpha" />
      <feOffset dy="14" />
      <feGaussianBlur stdDeviation="8" />
      <feColorMatrix type="matrix" values="0 0 0 0 0 0 0 0 0 0.0784314 0 0 0 0 0.0745098 0 0 0 0.14 0" />
      <feBlend mode="normal" in2="effect1_dropShadow_1265_30949" result="effect2_dropShadow_1265_30949" />
      <feColorMatrix in="SourceAlpha" type="matrix" values="0 0 0 0 0 0 0 0 0 0 0 0 0 0 0 0 0 0 127 0"
        result="hardAlpha" />
      <feOffset dy="24" />
      <feGaussianBlur stdDeviation="12" />
      <feColorMatrix type="matrix" values="0 0 0 0 0 0 0 0 0 0.0784314 0 0 0 0 0.0745098 0 0 0 0.04 0" />
      <feBlend mode="normal" in2="effect2_dropShadow_1265_30949" result="effect3_dropShadow_1265_30949" />
      <feBlend mode="normal" in="SourceGraphic" in2="effect3_dropShadow_1265_30949" result="shape" />
    </filter>
    <filter id="filter4_ddd_1265_30949" x="-15.9999" y="-2" width="416" height="98" filterUnits="userSpaceOnUse"
      color-interpolation-filters="sRGB">
      <feFlood flood-opacity="0" result="BackgroundImageFix" />
      <feColorMatrix in="SourceAlpha" type="matrix" values="0 0 0 0 0 0 0 0 0 0 0 0 0 0 0 0 0 0 127 0"
        result="hardAlpha" />
      <feOffset dy="2" />
      <feGaussianBlur stdDeviation="2" />
      <feColorMatrix type="matrix" values="0 0 0 0 0 0 0 0 0 0.145098 0 0 0 0 0.133333 0 0 0 0.24 0" />
      <feBlend mode="normal" in2="BackgroundImageFix" result="effect1_dropShadow_1265_30949" />
      <feColorMatrix in="SourceAlpha" type="matrix" values="0 0 0 0 0 0 0 0 0 0 0 0 0 0 0 0 0 0 127 0"
        result="hardAlpha" />
      <feOffset dy="6" />
      <feGaussianBlur stdDeviation="4" />
      <feColorMatrix type="matrix" values="0 0 0 0 0 0 0 0 0 0.145098 0 0 0 0 0.133333 0 0 0 0.14 0" />
      <feBlend mode="normal" in2="effect1_dropShadow_1265_30949" result="effect2_dropShadow_1265_30949" />
      <feColorMatrix in="SourceAlpha" type="matrix" values="0 0 0 0 0 0 0 0 0 0 0 0 0 0 0 0 0 0 127 0"
        result="hardAlpha" />
      <feOffset dy="16" />
      <feGaussianBlur stdDeviation="8" />
      <feColorMatrix type="matrix" values="0 0 0 0 0 0 0 0 0 0.145098 0 0 0 0 0.133333 0 0 0 0.04 0" />
      <feBlend mode="normal" in2="effect2_dropShadow_1265_30949" result="effect3_dropShadow_1265_30949" />
      <feBlend mode="normal" in="SourceGraphic" in2="effect3_dropShadow_1265_30949" result="shape" />
    </filter>
    <pattern id="pattern0" patternContentUnits="objectBoundingBox" width="1" height="1">
      <use xlink:href="#image0_1265_30949" transform="translate(-0.107843) scale(0.00261438 0.00142857)" />
    </pattern>
    <pattern id="pattern1" patternContentUnits="objectBoundingBox" width="1" height="1">
      <use xlink:href="#image1_1265_30949" transform="translate(-0.00961542) scale(0.000254808)" />
    </pattern>
    <linearGradient id="paint0_linear_1265_30949" x1="284" y1="242" x2="284" y2="500" gradientUnits="userSpaceOnUse">
      <stop stop-color="#284340" />
      <stop offset="1" stop-color="#1a3a36" />
    </linearGradient>
    <clipPath id="clip0_1265_30949">
      <path
        d="M6.10352e-05 16C6.10352e-05 7.16344 7.16351 0 16.0001 0H368C376.837 0 384 7.16344 384 16V265H6.10352e-05V16Z"
        fill="white" />
    </clipPath>
  </defs>
</svg>