<svg width="70" height="76" viewBox="0 0 70 76" fill="none" xmlns="http://www.w3.org/2000/svg">
<g filter="url(#filter0_f_4592_17504)">
<ellipse cx="35" cy="68" rx="17" ry="2" fill="#0D2321"/>
</g>
<path d="M9.60486 18.8498V43.1538C9.60486 44.7162 10.4233 46.1298 11.7873 46.9234L32.8425 59.0754C34.1817 59.8442 35.8433 59.8442 37.1825 59.0754L58.2377 46.9234C59.5769 46.1546 60.4201 44.7162 60.4201 43.1538V18.8498C60.4201 17.2874 59.6017 15.8738 58.2377 15.0802L37.1825 2.92816C35.8433 2.15936 34.1817 2.15936 32.8425 2.92816L11.7873 15.0802C10.4481 15.849 9.62966 17.2874 9.62966 18.8498H9.60486Z" fill="#213147"/>
<path d="M39.5881 35.7098L36.5873 43.9434C36.5129 44.1666 36.5129 44.4146 36.5873 44.6626L41.7457 58.8234L47.7225 55.3762L40.5553 35.7098C40.3817 35.2634 39.7617 35.2634 39.5881 35.7098Z" fill="#12AAFF"/>
<path d="M45.6144 21.8739C45.4408 21.4275 44.8208 21.4275 44.6472 21.8739L41.6464 30.1075C41.572 30.3307 41.572 30.5787 41.6464 30.8267L50.1032 54.0147L56.08 50.5675L45.6144 21.8987V21.8739Z" fill="#12AAFF"/>
<path d="M35 3.844C35.1488 3.844 35.2976 3.8936 35.4216 3.968L58.188 17.112C58.4608 17.2608 58.6096 17.5584 58.6096 17.856V44.144C58.6096 44.4416 58.436 44.7392 58.188 44.888L35.4216 58.032C35.2976 58.1064 35.1488 58.156 35 58.156C34.8512 58.156 34.7024 58.1064 34.5784 58.032L11.812 44.888C11.5392 44.7392 11.3904 44.4416 11.3904 44.144V17.8312C11.3904 17.5336 11.564 17.236 11.812 17.0872L34.5784 3.9432C34.7024 3.8688 34.8512 3.8192 35 3.8192V3.844ZM35 0C34.1816 0 33.388 0.1984 32.644 0.62L9.87761 13.764C8.41441 14.6072 7.52161 16.1448 7.52161 17.8312V44.1192C7.52161 45.8056 8.41441 47.3432 9.87761 48.1864L32.644 61.3304C33.3632 61.752 34.1816 61.9504 35 61.9504C35.8184 61.9504 36.612 61.752 37.356 61.3304L60.1224 48.1864C61.5856 47.3432 62.4784 45.8056 62.4784 44.1192V17.8312C62.4784 16.1448 61.5856 14.6072 60.1224 13.764L37.3312 0.62C36.612 0.1984 35.7936 0 34.9752 0H35Z" fill="#9DCCED"/>
<path d="M19.9216 54.0388L22.0296 48.2852L26.2456 51.782L22.3024 55.4028L19.9216 54.0388Z" fill="#213147"/>
<path d="M33.0656 15.974H27.2872C26.8656 15.974 26.4688 16.2468 26.32 16.6436L13.9448 50.57L19.9216 54.0172L33.5616 16.6436C33.6856 16.2964 33.4376 15.9492 33.0904 15.9492L33.0656 15.974Z" fill="white"/>
<path d="M43.184 15.974H37.4056C36.984 15.974 36.5872 16.2468 36.4384 16.6436L22.3024 55.3812L28.2792 58.8284L43.6552 16.6436C43.7792 16.2964 43.5312 15.9492 43.184 15.9492V15.974Z" fill="white"/>
<defs>
<filter id="filter0_f_4592_17504" x="14" y="62" width="42" height="12" filterUnits="userSpaceOnUse" color-interpolation-filters="sRGB">
<feFlood flood-opacity="0" result="BackgroundImageFix"/>
<feBlend mode="normal" in="SourceGraphic" in2="BackgroundImageFix" result="shape"/>
<feGaussianBlur stdDeviation="2" result="effect1_foregroundBlur_4592_17504"/>
</filter>
</defs>
</svg>
