<svg width="62" height="62" viewBox="0 0 62 62" fill="none" xmlns="http://www.w3.org/2000/svg">
<path d="M5.60486 18.8498V43.1538C5.60486 44.7162 6.42326 46.1298 7.78726 46.9234L28.8425 59.0754C30.1817 59.8442 31.8433 59.8442 33.1825 59.0754L54.2377 46.9234C55.5769 46.1546 56.4201 44.7162 56.4201 43.1538V18.8498C56.4201 17.2874 55.6017 15.8738 54.2377 15.0802L33.1825 2.92816C31.8433 2.15936 30.1817 2.15936 28.8425 2.92816L7.78726 15.0802C6.44806 15.849 5.62966 17.2874 5.62966 18.8498H5.60486Z" fill="#213147"/>
<path d="M35.5881 35.7098L32.5873 43.9434C32.5129 44.1666 32.5129 44.4146 32.5873 44.6626L37.7457 58.8234L43.7225 55.3762L36.5553 35.7098C36.3817 35.2634 35.7617 35.2634 35.5881 35.7098Z" fill="#12AAFF"/>
<path d="M41.6144 21.8739C41.4408 21.4275 40.8208 21.4275 40.6472 21.8739L37.6464 30.1075C37.572 30.3307 37.572 30.5787 37.6464 30.8267L46.1032 54.0147L52.08 50.5675L41.6144 21.8987V21.8739Z" fill="#12AAFF"/>
<path d="M31 3.844C31.1488 3.844 31.2976 3.8936 31.4216 3.968L54.188 17.112C54.4608 17.2608 54.6096 17.5584 54.6096 17.856V44.144C54.6096 44.4416 54.436 44.7392 54.188 44.888L31.4216 58.032C31.2976 58.1064 31.1488 58.156 31 58.156C30.8512 58.156 30.7024 58.1064 30.5784 58.032L7.81201 44.888C7.53921 44.7392 7.39041 44.4416 7.39041 44.144V17.8312C7.39041 17.5336 7.56401 17.236 7.81201 17.0872L30.5784 3.9432C30.7024 3.8688 30.8512 3.8192 31 3.8192V3.844ZM31 0C30.1816 0 29.388 0.1984 28.644 0.62L5.87761 13.764C4.41441 14.6072 3.52161 16.1448 3.52161 17.8312V44.1192C3.52161 45.8056 4.41441 47.3432 5.87761 48.1864L28.644 61.3304C29.3632 61.752 30.1816 61.9504 31 61.9504C31.8184 61.9504 32.612 61.752 33.356 61.3304L56.1224 48.1864C57.5856 47.3432 58.4784 45.8056 58.4784 44.1192V17.8312C58.4784 16.1448 57.5856 14.6072 56.1224 13.764L33.3312 0.62C32.612 0.1984 31.7936 0 30.9752 0H31Z" fill="#9DCCED"/>
<path d="M15.9216 54.0388L18.0296 48.2852L22.2456 51.782L18.3024 55.4028L15.9216 54.0388Z" fill="#213147"/>
<path d="M29.0656 15.974H23.2872C22.8656 15.974 22.4688 16.2468 22.32 16.6436L9.94482 50.57L15.9216 54.0172L29.5616 16.6436C29.6856 16.2964 29.4376 15.9492 29.0904 15.9492L29.0656 15.974Z" fill="white"/>
<path d="M39.184 15.974H33.4056C32.984 15.974 32.5872 16.2468 32.4384 16.6436L18.3024 55.3812L24.2792 58.8284L39.6552 16.6436C39.7792 16.2964 39.5312 15.9492 39.184 15.9492V15.974Z" fill="white"/>
</svg>
