<svg width="70" height="76" viewBox="0 0 70 76" fill="none" xmlns="http://www.w3.org/2000/svg">
<g filter="url(#filter0_f_4592_17508)">
<ellipse cx="35" cy="68" rx="17" ry="2" fill="#0D2321"/>
</g>
<path d="M35 62C52.1208 62 66 48.1208 66 31C66 13.8792 52.1208 0 35 0C17.8792 0 4 13.8792 4 31C4 48.1208 17.8792 62 35 62Z" fill="white"/>
<path fill-rule="evenodd" clip-rule="evenodd" d="M42.0701 32.2832L52.5967 42.61C52.7231 42.7321 52.8237 42.8776 52.8928 43.038C52.9618 43.1984 52.9981 43.3705 52.9993 43.5446C53.0005 43.7187 52.9668 43.8914 52.9 44.0526C52.8332 44.2139 52.7346 44.3607 52.61 44.4847L51.8376 45.2398C51.6206 45.4629 51.3338 45.6086 51.0228 45.6538C50.8174 45.6807 50.6084 45.6606 50.4123 45.5951C50.2162 45.5296 50.0381 45.4205 49.8921 45.2762L37.0377 32.666C36.8142 32.4471 36.6369 32.1872 36.5159 31.901C36.3949 31.6148 36.3327 31.308 36.3327 30.9982C36.3327 30.6884 36.3949 30.3817 36.5159 30.0955C36.6369 29.8093 36.8142 29.5493 37.0377 29.3305L49.8921 16.7202C50.0173 16.5971 50.166 16.4996 50.3298 16.4329C50.4935 16.3663 50.669 16.332 50.8462 16.332C51.0235 16.332 51.199 16.3663 51.3628 16.4329C51.5265 16.4996 51.6752 16.5971 51.8004 16.7202L52.5967 17.5144C52.7222 17.6373 52.8217 17.7832 52.8896 17.9438C52.9575 18.1044 52.9924 18.2766 52.9924 18.4504C52.9924 18.6244 52.9575 18.7965 52.8896 18.9571C52.8217 19.1178 52.7222 19.2637 52.5967 19.3865L42.0701 29.7158C41.7249 30.0572 41.5311 30.5187 41.5311 30.9996C41.5311 31.4804 41.7249 31.9418 42.0701 32.2832ZM27.9273 29.7268L17.4047 19.3973C17.277 19.275 17.1754 19.129 17.1057 18.9678C17.0359 18.8066 16.9995 18.6334 16.9986 18.4582C16.9976 18.2832 17.032 18.1096 17.1 17.9476C17.1678 17.7856 17.2679 17.6386 17.3941 17.5148L18.1636 16.7571C18.3826 16.5353 18.6696 16.39 18.9807 16.3431C19.186 16.317 19.3947 16.3375 19.5906 16.4029C19.7866 16.4684 19.9646 16.577 20.111 16.7206L32.9604 29.331C33.1838 29.5499 33.3611 29.8099 33.482 30.096C33.6029 30.3822 33.6652 30.689 33.6652 30.9988C33.6652 31.3086 33.6029 31.6154 33.482 31.9015C33.3611 32.1877 33.1838 32.4477 32.9604 32.6666L20.111 45.277C19.9856 45.4001 19.8367 45.4978 19.6728 45.5644C19.5089 45.6311 19.3332 45.6654 19.1558 45.6654C18.9784 45.6654 18.8028 45.6311 18.6389 45.5644C18.475 45.4978 18.3261 45.4001 18.2007 45.277L17.4047 44.4959C17.2793 44.3728 17.1798 44.2266 17.1118 44.0658C17.044 43.9049 17.009 43.7325 17.009 43.5584C17.009 43.3843 17.044 43.2119 17.1118 43.0511C17.1798 42.8902 17.2793 42.7442 17.4047 42.6211L27.9273 32.2942C28.2724 31.9528 28.466 31.4914 28.466 31.0105C28.466 30.5296 28.2724 30.0682 27.9273 29.7268Z" fill="black"/>
<defs>
<filter id="filter0_f_4592_17508" x="14" y="62" width="42" height="12" filterUnits="userSpaceOnUse" color-interpolation-filters="sRGB">
<feFlood flood-opacity="0" result="BackgroundImageFix"/>
<feBlend mode="normal" in="SourceGraphic" in2="BackgroundImageFix" result="shape"/>
<feGaussianBlur stdDeviation="2" result="effect1_foregroundBlur_4592_17508"/>
</filter>
</defs>
</svg>
