<svg width="62" height="62" viewBox="0 0 62 62" fill="none" xmlns="http://www.w3.org/2000/svg">
<path d="M31 62C48.1208 62 62 48.1208 62 31C62 13.8792 48.1208 0 31 0C13.8792 0 0 13.8792 0 31C0 48.1208 13.8792 62 31 62Z" fill="white"/>
<path fill-rule="evenodd" clip-rule="evenodd" d="M38.0701 32.2832L48.5967 42.61C48.7231 42.7321 48.8237 42.8776 48.8928 43.038C48.9618 43.1984 48.9981 43.3705 48.9993 43.5446C49.0005 43.7187 48.9668 43.8914 48.9 44.0526C48.8332 44.2139 48.7346 44.3607 48.61 44.4847L47.8376 45.2398C47.6206 45.4629 47.3338 45.6086 47.0228 45.6538C46.8174 45.6807 46.6084 45.6606 46.4123 45.5951C46.2162 45.5296 46.0381 45.4205 45.8921 45.2762L33.0377 32.666C32.8142 32.4471 32.6369 32.1872 32.5159 31.901C32.3949 31.6148 32.3327 31.308 32.3327 30.9982C32.3327 30.6884 32.3949 30.3817 32.5159 30.0955C32.6369 29.8093 32.8142 29.5493 33.0377 29.3305L45.8921 16.7202C46.0173 16.5971 46.166 16.4996 46.3298 16.4329C46.4935 16.3663 46.669 16.332 46.8462 16.332C47.0235 16.332 47.199 16.3663 47.3628 16.4329C47.5265 16.4996 47.6752 16.5971 47.8004 16.7202L48.5967 17.5144C48.7222 17.6373 48.8217 17.7832 48.8896 17.9438C48.9575 18.1044 48.9924 18.2766 48.9924 18.4504C48.9924 18.6244 48.9575 18.7965 48.8896 18.9571C48.8217 19.1178 48.7222 19.2637 48.5967 19.3865L38.0701 29.7158C37.7249 30.0572 37.5311 30.5187 37.5311 30.9996C37.5311 31.4804 37.7249 31.9418 38.0701 32.2832ZM23.9273 29.7268L13.4047 19.3973C13.277 19.275 13.1754 19.129 13.1057 18.9678C13.0359 18.8066 12.9995 18.6334 12.9986 18.4582C12.9976 18.2832 13.032 18.1096 13.1 17.9476C13.1678 17.7856 13.2679 17.6386 13.3941 17.5148L14.1636 16.7571C14.3826 16.5353 14.6696 16.39 14.9807 16.3431C15.186 16.317 15.3947 16.3375 15.5906 16.4029C15.7866 16.4684 15.9646 16.577 16.111 16.7206L28.9604 29.331C29.1838 29.5499 29.3611 29.8099 29.482 30.096C29.6029 30.3822 29.6652 30.689 29.6652 30.9988C29.6652 31.3086 29.6029 31.6154 29.482 31.9015C29.3611 32.1877 29.1838 32.4477 28.9604 32.6666L16.111 45.277C15.9856 45.4001 15.8367 45.4978 15.6728 45.5644C15.5089 45.6311 15.3332 45.6654 15.1558 45.6654C14.9784 45.6654 14.8028 45.6311 14.6389 45.5644C14.475 45.4978 14.3261 45.4001 14.2007 45.277L13.4047 44.4959C13.2793 44.3728 13.1798 44.2266 13.1118 44.0658C13.044 43.9049 13.009 43.7325 13.009 43.5584C13.009 43.3843 13.044 43.2119 13.1118 43.0511C13.1798 42.8902 13.2793 42.7442 13.4047 42.6211L23.9273 32.2942C24.2724 31.9528 24.466 31.4914 24.466 31.0105C24.466 30.5296 24.2724 30.0682 23.9273 29.7268Z" fill="black"/>
</svg>
