<svg width="70" height="76" viewBox="0 0 70 76" fill="none" xmlns="http://www.w3.org/2000/svg">
<g filter="url(#filter0_f_4592_17520)">
<ellipse cx="36" cy="68" rx="17" ry="2" fill="#0D2321"/>
</g>
<path d="M35 62C30.8158 62 26.7562 61.1798 22.9329 59.5634C19.2408 58.0017 15.9271 55.7663 13.0793 52.9207C10.2337 50.0751 7.99831 46.7592 6.4366 43.0671C4.82022 39.2438 4 35.1842 4 31C4 26.8158 4.82022 22.7562 6.4366 18.9329C7.99831 15.2408 10.2337 11.9271 13.0793 9.07931C15.9271 6.23368 19.2408 3.99831 22.9329 2.4366C26.7562 0.820222 30.8158 0 35 0C39.1842 0 43.2438 0.820222 47.0671 2.4366C50.7592 3.99831 54.0729 6.23368 56.9207 9.07931C59.7663 11.9249 62.0017 15.2408 63.5634 18.9329C65.1798 22.7562 66 26.8158 66 31C66 35.1842 65.1798 39.2438 63.5634 43.0671C62.0017 46.7592 59.7663 50.0729 56.9207 52.9207C54.0751 55.7663 50.7592 58.0017 47.0671 59.5634C43.2438 61.182 39.1842 62 35 62Z" fill="white"/>
<path d="M34.9999 60.3554C51.2136 60.3554 64.3573 47.2116 64.3573 30.998C64.3573 14.7844 51.2136 1.64062 34.9999 1.64062C18.7863 1.64062 5.64258 14.7844 5.64258 30.998C5.64258 47.2116 18.7863 60.3554 34.9999 60.3554Z" fill="black"/>
<path d="M50.464 30.9983C50.464 27.8531 49.5191 24.9265 47.9005 22.4812L52.7015 17.6801L48.3839 13.3625L43.596 18.1504C41.1375 16.499 38.1803 15.5344 35.0022 15.5344C31.857 15.5344 28.9304 16.4793 26.4851 18.0979L21.6818 13.2969L17.3642 17.6145L22.1521 22.4024C20.5007 24.8609 19.5361 27.8181 19.5361 30.9962C19.5361 34.1414 20.481 37.068 22.0996 39.5133L17.2986 44.3166L21.6162 48.6342L26.4041 43.8463C28.8626 45.4977 31.8198 46.4623 34.9979 46.4623C38.1431 46.4623 41.0697 45.5174 43.5151 43.8988L48.3183 48.702L52.6359 44.3844L47.848 39.5965C49.4994 37.1336 50.464 34.1764 50.464 30.9983ZM25.6452 30.9983C25.6452 25.8386 29.8425 21.6413 35.0022 21.6413C40.162 21.6413 44.3593 25.8386 44.3593 30.9983C44.3593 36.1581 40.162 40.3554 35.0022 40.3554C29.8425 40.3554 25.6452 36.1581 25.6452 30.9983Z" fill="white"/>
<defs>
<filter id="filter0_f_4592_17520" x="15" y="62" width="42" height="12" filterUnits="userSpaceOnUse" color-interpolation-filters="sRGB">
<feFlood flood-opacity="0" result="BackgroundImageFix"/>
<feBlend mode="normal" in="SourceGraphic" in2="BackgroundImageFix" result="shape"/>
<feGaussianBlur stdDeviation="2" result="effect1_foregroundBlur_4592_17520"/>
</filter>
</defs>
</svg>
