<svg width="62" height="62" viewBox="0 0 62 62" fill="none" xmlns="http://www.w3.org/2000/svg">
<path d="M31 62C26.8158 62 22.7562 61.1798 18.9329 59.5634C15.2408 58.0017 11.9271 55.7663 9.07931 52.9207C6.23368 50.0751 3.99831 46.7592 2.4366 43.0671C0.820222 39.2438 0 35.1842 0 31C0 26.8158 0.820222 22.7562 2.4366 18.9329C3.99831 15.2408 6.23368 11.9271 9.07931 9.07931C11.9271 6.23368 15.2408 3.99831 18.9329 2.4366C22.7562 0.820222 26.8158 0 31 0C35.1842 0 39.2438 0.820222 43.0671 2.4366C46.7592 3.99831 50.0729 6.23368 52.9207 9.07931C55.7663 11.9249 58.0017 15.2408 59.5634 18.9329C61.1798 22.7562 62 26.8158 62 31C62 35.1842 61.1798 39.2438 59.5634 43.0671C58.0017 46.7592 55.7663 50.0729 52.9207 52.9207C50.0751 55.7663 46.7592 58.0017 43.0671 59.5634C39.2438 61.182 35.1842 62 31 62Z" fill="white"/>
<path d="M30.9999 60.3554C47.2136 60.3554 60.3573 47.2116 60.3573 30.998C60.3573 14.7844 47.2136 1.64062 30.9999 1.64062C14.7863 1.64062 1.64258 14.7844 1.64258 30.998C1.64258 47.2116 14.7863 60.3554 30.9999 60.3554Z" fill="black"/>
<path d="M46.464 30.9983C46.464 27.8531 45.5191 24.9265 43.9005 22.4812L48.7015 17.6801L44.3839 13.3625L39.596 18.1504C37.1375 16.499 34.1803 15.5344 31.0022 15.5344C27.857 15.5344 24.9304 16.4793 22.4851 18.0979L17.6818 13.2969L13.3642 17.6145L18.1521 22.4024C16.5007 24.8609 15.5361 27.8181 15.5361 30.9962C15.5361 34.1414 16.481 37.068 18.0996 39.5133L13.2986 44.3166L17.6162 48.6342L22.4041 43.8463C24.8626 45.4977 27.8198 46.4623 30.9979 46.4623C34.1431 46.4623 37.0697 45.5174 39.5151 43.8988L44.3183 48.702L48.6359 44.3844L43.848 39.5965C45.4994 37.1336 46.464 34.1764 46.464 30.9983ZM21.6452 30.9983C21.6452 25.8386 25.8425 21.6413 31.0022 21.6413C36.162 21.6413 40.3593 25.8386 40.3593 30.9983C40.3593 36.1581 36.162 40.3554 31.0022 40.3554C25.8425 40.3554 21.6452 36.1581 21.6452 30.9983Z" fill="white"/>
</svg>
