<svg width="62" height="62" viewBox="0 0 62 62" fill="none" xmlns="http://www.w3.org/2000/svg">
<path d="M62 31C62 13.8792 48.1208 0 31 0C13.8792 0 0 13.8792 0 31C0 48.1208 13.8792 62 31 62C48.1208 62 62 48.1208 62 31Z" fill="#1E5DFF"/>
<path fill-rule="evenodd" clip-rule="evenodd" d="M14.0293 47.9718L44.4702 22.6233C44.8431 22.2983 45.1452 21.9 45.3577 21.4534C45.5703 21.0066 45.6889 20.521 45.7061 20.0266C45.7233 19.5323 45.6387 19.0396 45.4575 18.5792C45.2764 18.1188 45.0027 17.7007 44.6532 17.3504C44.3029 17.0002 43.8844 16.7259 43.4236 16.5444C42.9627 16.3628 42.4695 16.2779 41.9746 16.2951C41.4796 16.3123 40.9933 16.4311 40.5462 16.6442C40.0991 16.8572 39.7005 17.1599 39.3753 17.5334L14.0293 47.9718ZM28.7142 20.9722L15.897 30.5843L25.5099 17.7682C25.7065 17.5062 25.9571 17.2894 26.2447 17.1325C26.5323 16.9757 26.8503 16.8823 27.177 16.8589C27.5039 16.8355 27.8318 16.8824 28.1388 16.9967C28.4459 17.1109 28.7248 17.2897 28.9568 17.521C29.1892 17.7527 29.369 18.0317 29.484 18.339C29.5992 18.6463 29.6467 18.9747 29.6238 19.302C29.6008 19.6293 29.5077 19.9479 29.3508 20.2361C29.1938 20.5243 28.9767 20.7753 28.7142 20.9722ZM44.2326 36.4921L31.4153 46.1041L41.0283 33.288C41.2249 33.026 41.4755 32.8092 41.7631 32.6523C42.0507 32.4955 42.3685 32.4021 42.6954 32.3787C43.0221 32.3553 43.3501 32.4022 43.6572 32.5165C43.9642 32.6307 44.2432 32.8095 44.4751 33.0408C44.7075 33.2725 44.8874 33.5515 45.0025 33.8588C45.1175 34.1661 45.1652 34.4945 45.1421 34.8218C45.1191 35.1491 45.0259 35.4677 44.869 35.7559C44.7121 36.0441 44.4951 36.2951 44.2326 36.4921Z" fill="white"/>
</svg>
