<svg width="70" height="76" viewBox="0 0 70 76" fill="none" xmlns="http://www.w3.org/2000/svg">
<g filter="url(#filter0_f_4592_17516)">
<ellipse cx="35" cy="68" rx="17" ry="2" fill="#0D2321"/>
</g>
<path d="M66 31C66 13.8792 52.1208 0 35 0C17.8792 0 4 13.8792 4 31C4 48.1208 17.8792 62 35 62C52.1208 62 66 48.1208 66 31Z" fill="#1E5DFF"/>
<path fill-rule="evenodd" clip-rule="evenodd" d="M18.0293 47.9718L48.4702 22.6233C48.8431 22.2983 49.1452 21.9 49.3577 21.4534C49.5703 21.0066 49.6889 20.521 49.7061 20.0266C49.7233 19.5323 49.6387 19.0396 49.4575 18.5792C49.2764 18.1188 49.0027 17.7007 48.6532 17.3504C48.3029 17.0002 47.8844 16.7259 47.4236 16.5444C46.9627 16.3628 46.4695 16.2779 45.9746 16.2951C45.4796 16.3123 44.9933 16.4311 44.5462 16.6442C44.0991 16.8572 43.7005 17.1599 43.3753 17.5334L18.0293 47.9718ZM32.7142 20.9722L19.897 30.5843L29.5099 17.7682C29.7065 17.5062 29.9571 17.2894 30.2447 17.1325C30.5323 16.9757 30.8503 16.8823 31.177 16.8589C31.5039 16.8355 31.8318 16.8824 32.1388 16.9967C32.4459 17.1109 32.7248 17.2897 32.9568 17.521C33.1892 17.7527 33.369 18.0317 33.484 18.339C33.5992 18.6463 33.6467 18.9747 33.6238 19.302C33.6008 19.6293 33.5077 19.9479 33.3508 20.2361C33.1938 20.5243 32.9767 20.7753 32.7142 20.9722ZM48.2326 36.4921L35.4153 46.1041L45.0283 33.288C45.2249 33.026 45.4755 32.8092 45.7631 32.6523C46.0507 32.4955 46.3685 32.4021 46.6954 32.3787C47.0221 32.3553 47.3501 32.4022 47.6572 32.5165C47.9642 32.6307 48.2432 32.8095 48.4751 33.0408C48.7075 33.2725 48.8874 33.5515 49.0025 33.8588C49.1175 34.1661 49.1652 34.4945 49.1421 34.8218C49.1191 35.1491 49.0259 35.4677 48.869 35.7559C48.7121 36.0441 48.4951 36.2951 48.2326 36.4921Z" fill="white"/>
<defs>
<filter id="filter0_f_4592_17516" x="14" y="62" width="42" height="12" filterUnits="userSpaceOnUse" color-interpolation-filters="sRGB">
<feFlood flood-opacity="0" result="BackgroundImageFix"/>
<feBlend mode="normal" in="SourceGraphic" in2="BackgroundImageFix" result="shape"/>
<feGaussianBlur stdDeviation="2" result="effect1_foregroundBlur_4592_17516"/>
</filter>
</defs>
</svg>
