<svg width="70" height="77" viewBox="0 0 70 77" fill="none" xmlns="http://www.w3.org/2000/svg">
<g filter="url(#filter0_f_4592_17512)">
<ellipse cx="36" cy="68.0352" rx="17" ry="2" fill="#0D2321"/>
</g>
<circle cx="35" cy="31.0352" r="31" fill="#1D4E56"/>
<path d="M50.8567 22.2489C50.7566 22.0769 50.6525 21.9042 50.5469 21.7349C50.251 21.2622 49.9301 20.7993 49.5923 20.3587C47.9881 18.2622 45.902 16.5174 43.5607 15.3132C41.1082 14.0523 38.4585 13.3907 35.6851 13.3488C35.5039 13.346 35.3557 13.197 35.3557 13.0166V10.497C35.3557 9.60048 34.6263 8.87109 33.7298 8.87109C32.8333 8.87109 32.1039 9.60048 32.1039 10.497V13.3803C32.1039 13.5376 31.9913 13.674 31.8368 13.7054C30.9039 13.895 29.9808 14.1614 29.092 14.4978C29.0535 14.5124 29.0143 14.5194 28.9745 14.5194C28.792 14.5194 28.643 14.3705 28.643 14.1873V10.497C28.643 9.60048 27.9136 8.87109 27.0171 8.87109C26.1206 8.87109 25.3912 9.60048 25.3912 10.497V16.1013C25.3912 16.2999 25.2933 16.4873 25.1283 16.6041C22.8464 18.2146 20.9485 20.3664 19.6394 22.8266C18.2876 25.3665 17.568 28.2399 17.5582 31.1365C17.5505 33.5253 18.019 35.8506 18.9505 38.0478C19.8484 40.1653 21.1366 42.0737 22.7779 43.7206C24.4387 45.3871 26.373 46.6976 28.5276 47.6151C30.757 48.5648 33.1165 49.0466 35.5403 49.0466H48.8349C49.4231 49.0466 49.9014 48.5682 49.9014 47.9801V39.0842C49.9014 38.617 49.665 38.1905 49.2685 37.9422L48.5244 37.4772L48.4846 37.4527L45.7048 35.7149L45.6531 35.6827L42.139 33.4869C41.9138 33.3463 41.8055 33.0785 41.8698 32.8211C42.002 32.2932 42.0691 31.747 42.0691 31.1973C42.0691 30.6477 42.002 30.1008 41.8698 29.5735C41.8055 29.3162 41.9138 29.0483 42.139 28.9078L45.6531 26.7119L45.7048 26.6798L48.4846 24.942L48.5244 24.9175L50.4958 23.6853C50.9867 23.3783 51.1448 22.7482 50.856 22.2503L50.8567 22.2489ZM46.5349 22.0706C46.509 22.2489 46.4062 22.4056 46.2538 22.5007L43.9279 23.9546L40.7502 25.9406C40.5642 26.0567 40.3495 26.1182 40.1306 26.1182C39.8767 26.1182 39.625 26.0336 39.4222 25.8805C38.2592 25.0007 36.8711 24.5357 35.4081 24.5357H35.3718C33.6263 24.5448 31.9766 25.2322 30.7262 26.4707C29.4759 27.7092 28.7731 29.3525 28.7479 31.0973C28.722 32.896 29.4024 34.5918 30.664 35.8715C31.9256 37.152 33.6109 37.8569 35.4081 37.8569C36.8739 37.8569 38.2641 37.3897 39.4285 36.5072C39.6306 36.3541 39.8719 36.2729 40.1271 36.2729C40.3474 36.2729 40.5628 36.3345 40.7502 36.452L43.9279 38.438L46.2964 39.9185C46.5174 40.0569 46.6496 40.2954 46.6496 40.5562V45.1829C46.6496 45.5199 46.3748 45.7948 46.0377 45.7948H35.5375C33.5725 45.7948 31.657 45.4067 29.8444 44.6416C28.0926 43.9024 26.5157 42.8465 25.1569 41.5024C23.7954 40.1562 22.7261 38.5933 21.9779 36.8562C21.2009 35.0533 20.8079 33.1442 20.81 31.1819C20.8121 29.2204 21.1967 27.3162 21.9534 25.5238C22.6842 23.7923 23.7296 22.2363 25.0618 20.8986C25.0982 20.8615 25.1464 20.8412 25.1975 20.8412C25.3045 20.8412 25.3912 20.9279 25.3912 21.0342V22.8042C25.3912 23.7007 26.1206 24.4301 27.0171 24.4301C27.9136 24.4301 28.643 23.7007 28.643 22.8042V18.6342C28.643 18.402 28.7773 18.1866 28.9857 18.0845C30.9948 17.0985 33.1564 16.5985 35.4088 16.5985C37.6613 16.5985 39.611 17.0509 41.5383 17.944C43.4006 18.8062 45.0328 20.0293 46.3908 21.5783C46.509 21.7133 46.5622 21.893 46.5363 22.0713L46.5349 22.0706ZM38.8152 31.3141C38.7942 31.9141 38.6159 32.4981 38.2998 33.0037C37.983 33.5107 37.5369 33.9267 37.0096 34.2072C36.5201 34.468 35.9669 34.6058 35.4088 34.6058C33.5291 34.6058 31.9997 33.0764 31.9997 31.1966C31.9997 29.3169 33.5291 27.7875 35.4088 27.7875C35.9669 27.7875 36.5201 27.9253 37.0096 28.1861C37.5369 28.4672 37.983 28.8833 38.2998 29.3896C38.6166 29.8952 38.7949 30.4791 38.8152 31.0771V31.3141Z" fill="#E7E7E7"/>
<path d="M45.7291 26.7351C46.3396 28.1457 46.6494 29.6471 46.6494 31.1975C46.6494 32.7478 46.3396 34.2493 45.7291 35.6598L45.7046 35.7157L48.4844 37.4535L48.5046 37.4115C49.4312 35.4626 49.9012 33.3716 49.9012 31.1975C49.9012 29.0233 49.4312 26.9323 48.5046 24.9834L48.4844 24.9414L45.7046 26.6792L45.7291 26.7351Z" fill="#72DEDE"/>
<defs>
<filter id="filter0_f_4592_17512" x="15" y="62.0352" width="42" height="12" filterUnits="userSpaceOnUse" color-interpolation-filters="sRGB">
<feFlood flood-opacity="0" result="BackgroundImageFix"/>
<feBlend mode="normal" in="SourceGraphic" in2="BackgroundImageFix" result="shape"/>
<feGaussianBlur stdDeviation="2" result="effect1_foregroundBlur_4592_17512"/>
</filter>
</defs>
</svg>
