<svg width="62" height="63" viewBox="0 0 62 63" fill="none" xmlns="http://www.w3.org/2000/svg">
<circle cx="31" cy="31.0352" r="31" fill="#1D4E56"/>
<path d="M46.8567 22.2489C46.7566 22.0769 46.6525 21.9042 46.5469 21.7349C46.251 21.2622 45.9301 20.7993 45.5923 20.3587C43.9881 18.2622 41.902 16.5174 39.5607 15.3132C37.1082 14.0523 34.4585 13.3907 31.6851 13.3488C31.5039 13.346 31.3557 13.197 31.3557 13.0166V10.497C31.3557 9.60048 30.6263 8.87109 29.7298 8.87109C28.8333 8.87109 28.1039 9.60048 28.1039 10.497V13.3803C28.1039 13.5376 27.9913 13.674 27.8368 13.7054C26.9039 13.895 25.9808 14.1614 25.092 14.4978C25.0535 14.5124 25.0143 14.5194 24.9745 14.5194C24.792 14.5194 24.643 14.3705 24.643 14.1873V10.497C24.643 9.60048 23.9136 8.87109 23.0171 8.87109C22.1206 8.87109 21.3912 9.60048 21.3912 10.497V16.1013C21.3912 16.2999 21.2933 16.4873 21.1283 16.6041C18.8464 18.2146 16.9485 20.3664 15.6394 22.8266C14.2876 25.3665 13.568 28.2399 13.5582 31.1365C13.5505 33.5253 14.019 35.8506 14.9505 38.0478C15.8484 40.1653 17.1366 42.0737 18.7779 43.7206C20.4387 45.3871 22.373 46.6976 24.5276 47.6151C26.757 48.5648 29.1165 49.0466 31.5403 49.0466H44.8349C45.4231 49.0466 45.9014 48.5682 45.9014 47.9801V39.0842C45.9014 38.617 45.665 38.1905 45.2685 37.9422L44.5244 37.4772L44.4846 37.4527L41.7048 35.7149L41.6531 35.6827L38.139 33.4869C37.9138 33.3463 37.8055 33.0785 37.8698 32.8211C38.002 32.2932 38.0691 31.747 38.0691 31.1973C38.0691 30.6477 38.002 30.1008 37.8698 29.5735C37.8055 29.3162 37.9138 29.0483 38.139 28.9078L41.6531 26.7119L41.7048 26.6798L44.4846 24.942L44.5244 24.9175L46.4958 23.6853C46.9867 23.3783 47.1448 22.7482 46.856 22.2503L46.8567 22.2489ZM42.5349 22.0706C42.509 22.2489 42.4062 22.4056 42.2538 22.5007L39.9279 23.9546L36.7502 25.9406C36.5642 26.0567 36.3495 26.1182 36.1306 26.1182C35.8767 26.1182 35.625 26.0336 35.4222 25.8805C34.2592 25.0007 32.8711 24.5357 31.4081 24.5357H31.3718C29.6263 24.5448 27.9766 25.2322 26.7262 26.4707C25.4759 27.7092 24.7731 29.3525 24.7479 31.0973C24.722 32.896 25.4024 34.5918 26.664 35.8715C27.9256 37.152 29.6109 37.8569 31.4081 37.8569C32.8739 37.8569 34.2641 37.3897 35.4285 36.5072C35.6306 36.3541 35.8719 36.2729 36.1271 36.2729C36.3474 36.2729 36.5628 36.3345 36.7502 36.452L39.9279 38.438L42.2964 39.9185C42.5174 40.0569 42.6496 40.2954 42.6496 40.5562V45.1829C42.6496 45.5199 42.3748 45.7948 42.0377 45.7948H31.5375C29.5725 45.7948 27.657 45.4067 25.8444 44.6416C24.0926 43.9024 22.5157 42.8465 21.1569 41.5024C19.7954 40.1562 18.7261 38.5933 17.9779 36.8562C17.2009 35.0533 16.8079 33.1442 16.81 31.1819C16.8121 29.2204 17.1967 27.3162 17.9534 25.5238C18.6842 23.7923 19.7296 22.2363 21.0618 20.8986C21.0982 20.8615 21.1464 20.8412 21.1975 20.8412C21.3045 20.8412 21.3912 20.9279 21.3912 21.0342V22.8042C21.3912 23.7007 22.1206 24.4301 23.0171 24.4301C23.9136 24.4301 24.643 23.7007 24.643 22.8042V18.6342C24.643 18.402 24.7773 18.1866 24.9857 18.0845C26.9948 17.0985 29.1564 16.5985 31.4088 16.5985C33.6613 16.5985 35.611 17.0509 37.5383 17.944C39.4006 18.8062 41.0328 20.0293 42.3908 21.5783C42.509 21.7133 42.5622 21.893 42.5363 22.0713L42.5349 22.0706ZM34.8152 31.3141C34.7942 31.9141 34.6159 32.4981 34.2998 33.0037C33.983 33.5107 33.5369 33.9267 33.0096 34.2072C32.5201 34.468 31.9669 34.6058 31.4088 34.6058C29.5291 34.6058 27.9997 33.0764 27.9997 31.1966C27.9997 29.3169 29.5291 27.7875 31.4088 27.7875C31.9669 27.7875 32.5201 27.9253 33.0096 28.1861C33.5369 28.4672 33.983 28.8833 34.2998 29.3896C34.6166 29.8952 34.7949 30.4791 34.8152 31.0771V31.3141Z" fill="#E7E7E7"/>
<path d="M41.7291 26.7351C42.3396 28.1457 42.6494 29.6471 42.6494 31.1975C42.6494 32.7478 42.3396 34.2493 41.7291 35.6598L41.7046 35.7157L44.4844 37.4535L44.5046 37.4115C45.4312 35.4626 45.9012 33.3716 45.9012 31.1975C45.9012 29.0233 45.4312 26.9323 44.5046 24.9834L44.4844 24.9414L41.7046 26.6792L41.7291 26.7351Z" fill="#72DEDE"/>
</svg>
