<svg width="358" height="159" viewBox="0 0 358 159" fill="none" xmlns="http://www.w3.org/2000/svg">
  <g filter="url(#filter0_d_1300_32263)">
    <path
      d="M30 30.375C30 22.4359 34.5331 16 40.125 16H316.875C322.467 16 327 22.4359 327 30.375V116.625C327 124.564 322.467 131 316.875 131H40.125C34.5331 131 30 124.564 30 116.625V30.375Z"
      fill="#FEFEFC" />
  </g>
  <path
    d="M31.125 54.875C31.125 48.8689 35.6429 44 41.2159 44H317.034C322.607 44 327.125 48.8689 327.125 54.875V120.125C327.125 126.131 322.607 131 317.034 131H41.2159C35.6429 131 31.125 126.131 31.125 120.125V54.875Z"
    fill="#7DA19F" />
  <path
    d="M13.125 46.875C13.125 40.8689 18.1923 36 24.4432 36H333.807C340.058 36 345.125 40.8689 345.125 46.875V112.125C345.125 118.131 340.058 123 333.807 123H24.4432C18.1923 123 13.125 118.131 13.125 112.125V46.875Z"
    fill="#497270" />
  <path
    d="M0 28.1972C0 21.4609 5.4489 16 12.1705 16H344.83C351.551 16 357 21.4609 357 28.1972V101.38C357 108.116 351.551 113.577 344.83 113.577H12.1705C5.44891 113.577 0 108.116 0 101.38V28.1972Z"
    fill="#013834" />
  <path
    d="M34.6708 37.3205L35.1163 32.5138C35.1286 32.4248 35.24 32.4248 35.2524 32.5138L35.6978 37.3205C35.7349 37.7401 36.069 38.0707 36.4773 38.0962L42.2679 38.4522C42.3545 38.4522 42.3545 38.5921 42.2679 38.5921L36.4649 38.9609C36.0566 38.9863 35.7225 39.3169 35.6854 39.7365L35.24 44.5432C35.2276 44.6322 35.1163 44.6322 35.1039 44.5432L34.6585 39.7365C34.6213 39.3169 34.2873 38.9863 33.879 38.9609L28.0884 38.6048C28.0018 38.6048 28.0018 38.4649 28.0884 38.4649L33.8913 38.0962C34.2996 38.0707 34.6213 37.7401 34.6708 37.3205Z"
    fill="#FBEDDA" />
  <path
    d="M102.693 96.4543L103.276 90.6121C103.292 90.504 103.438 90.504 103.454 90.6121L104.037 96.4543C104.085 96.9644 104.523 97.3662 105.057 97.3971L112.635 97.8299C112.748 97.8299 112.748 97.9999 112.635 97.9999L105.041 98.4481C104.506 98.479 104.069 98.8809 104.021 99.3909L103.438 105.233C103.422 105.341 103.276 105.341 103.26 105.233L102.677 99.3909C102.628 98.8809 102.191 98.479 101.657 98.4481L94.0791 98.0154C93.9658 98.0154 93.9658 97.8453 94.0791 97.8453L101.673 97.3971C102.207 97.3662 102.628 96.9644 102.693 96.4543Z"
    fill="#FBEDDA" />
  <path
    d="M107.562 29.1336L108.084 24.0703C108.099 23.9766 108.229 23.9766 108.243 24.0703L108.765 29.1336C108.808 29.5756 109.2 29.9239 109.678 29.9506L116.458 30.3257C116.559 30.3257 116.559 30.473 116.458 30.473L109.663 30.8615C109.185 30.8883 108.794 31.2365 108.75 31.6786L108.229 36.7418C108.214 36.8356 108.084 36.8356 108.07 36.7418L107.548 31.6786C107.505 31.2365 107.113 30.8883 106.635 30.8615L99.8554 30.4864C99.7539 30.4864 99.7539 30.3391 99.8554 30.3391L106.65 29.9506C107.128 29.9239 107.505 29.5756 107.562 29.1336Z"
    fill="#21C580" />
  <path
    d="M18.9519 80.379L19.3507 76.0947C19.3618 76.0154 19.4615 76.0154 19.4725 76.0947L19.8714 80.379C19.9046 80.753 20.2037 81.0477 20.5693 81.0704L25.754 81.3877C25.8315 81.3877 25.8315 81.5124 25.754 81.5124L20.5582 81.8411C20.1926 81.8638 19.8935 82.1585 19.8603 82.5325L19.4615 86.8168C19.4504 86.8961 19.3507 86.8961 19.3396 86.8168L18.9408 82.5325C18.9075 82.1585 18.6084 81.8638 18.2428 81.8411L13.0582 81.5237C12.9806 81.5237 12.9806 81.3991 13.0582 81.3991L18.2539 81.0704C18.6195 81.0477 18.9075 80.753 18.9519 80.379Z"
    fill="#21C580" />
  <g filter="url(#filter1_d_1300_32263)">
    <path
      d="M34.099 69.9947C34.2255 69.3647 34.3662 68.7335 34.5241 68.108C34.6799 67.485 34.8497 66.8584 35.0346 66.2401C35.2173 65.6243 35.4168 65.0095 35.6283 64.396C35.8425 63.7846 36.0663 63.1748 36.3074 62.5707C36.5461 61.9667 36.7947 61.3667 37.0626 60.7698C37.3259 60.1733 37.604 59.5826 37.8921 58.9982C38.1823 58.4089 38.4828 57.8282 38.7957 57.2536C39.1106 56.6741 39.436 56.1056 39.7735 55.5384C40.1112 54.9736 40.4564 54.4129 40.8146 53.8631C41.172 53.3061 41.5426 52.7623 41.9206 52.2202C42.3032 51.6778 42.6915 51.1444 43.09 50.6197C43.4909 50.0947 43.9039 49.5711 44.3227 49.059C44.7417 48.5492 45.1705 48.0433 45.6072 47.5439C46.0465 47.0491 46.4913 46.5609 46.9511 46.081C47.4036 45.5994 47.8714 45.1283 48.342 44.6618C48.8129 44.2 49.2964 43.7444 49.7856 43.3001C50.2722 42.8537 50.7692 42.4159 51.2696 41.9898C51.7751 41.568 52.2854 41.1459 52.8044 40.742C53.3209 40.336 53.8451 39.9365 54.3751 39.5484C54.9055 39.1651 55.4436 38.7882 55.9852 38.423C56.5291 38.0576 57.0764 37.7039 57.6269 37.3594C58.1824 37.0169 58.7368 36.6888 59.3058 36.3643C59.8728 36.0446 60.443 35.7343 61.0169 35.4379C61.5907 35.1416 62.1704 34.8567 62.751 34.5837C63.3365 34.3102 63.9229 34.0487 64.5106 33.8013C65.0983 33.5539 65.6944 33.3202 66.2917 33.1006C66.8862 32.8766 67.4891 32.6661 68.0934 32.4723C68.6951 32.2763 69.3005 32.0943 69.9071 31.9265C70.5184 31.7583 71.1265 31.6071 71.7378 31.4652C72.3516 31.3255 72.9643 31.2002 73.5785 31.0915C74.1924 30.9805 74.8126 30.8856 75.4293 30.8053C76.0459 30.7251 76.664 30.6615 77.2834 30.6121C77.9004 30.5629 78.5136 30.5259 79.1189 30.5064C79.722 30.4895 80.319 30.4851 80.9103 30.4979C81.4993 30.5109 82.08 30.5389 82.6527 30.5844C83.2297 30.6247 83.7965 30.685 84.3525 30.7583C84.9111 30.8336 85.463 30.9144 86.003 31.0225C86.547 31.123 87.0783 31.2414 87.6035 31.3723C88.1311 31.503 88.6476 31.6442 89.1536 31.8006C89.6621 31.9593 90.16 32.1331 90.6469 32.3176C91.1363 32.5041 91.6171 32.701 92.0871 32.9108C92.5549 33.1232 93.0165 33.3457 93.4674 33.5834C93.9183 33.8211 94.3604 34.0668 94.7896 34.3303C95.2209 34.5889 95.6417 34.8651 96.0489 35.1497C96.4609 35.4339 96.8597 35.7311 97.2474 36.0389C97.6354 36.3491 98.0121 36.6674 98.3804 36.9984C98.7463 37.3296 99.1012 37.6713 99.4472 38.021C99.791 38.3732 100.124 38.736 100.441 39.1121C100.765 39.4828 101.073 39.8668 101.371 40.259C101.666 40.6561 101.952 41.0588 102.227 41.4744C102.497 41.8856 102.759 42.3096 103.007 42.7372C103.255 43.1718 103.492 43.6123 103.713 44.0637C103.934 44.5151 104.144 44.9747 104.345 45.4422C104.539 45.9103 104.724 46.3816 104.891 46.8735C105.062 47.358 105.223 47.8505 105.36 48.3523C105.504 48.8534 105.634 49.3629 105.747 49.8812C105.864 50.3991 105.967 50.9229 106.049 51.4557C106.139 51.9856 106.208 52.5291 106.267 53.0759C106.325 53.6205 106.369 54.1758 106.396 54.7373C106.426 55.2963 106.437 55.864 106.435 56.4377C106.435 57.0112 106.417 57.5935 106.384 58.177C106.347 58.768 106.296 59.3579 106.239 59.9556C106.176 60.5513 106.093 61.1607 105.996 61.7666C105.901 62.3771 105.79 62.9937 105.66 63.6144C105.535 64.23 105.388 64.8497 105.232 65.4632C105.073 66.0769 104.902 66.6893 104.714 67.3031C104.523 67.91 104.325 68.5151 104.113 69.1168C103.9 69.7208 103.673 70.3189 103.431 70.9136C103.189 71.5083 102.935 72.1016 102.671 72.6886C102.405 73.2759 102.126 73.857 101.835 74.4369C101.546 75.0141 101.243 75.5855 100.929 76.153C100.616 76.7228 100.283 77.2872 99.9466 77.8423C99.6108 78.4022 99.2648 78.9534 98.8993 79.5015C98.5453 80.0439 98.1747 80.5877 97.7912 81.1206C97.4103 81.6558 97.0217 82.1844 96.6203 82.7046C96.2145 83.2276 95.8054 83.7413 95.3862 84.2487C94.967 84.7561 94.5377 85.2572 94.0979 85.7473C93.6587 86.2446 93.2114 86.7306 92.7561 87.2077C92.3008 87.6848 91.8333 88.1582 91.3597 88.6178C90.8887 89.0796 90.4098 89.5325 89.9208 89.9791C89.4318 90.4257 88.937 90.8609 88.4321 91.2898C87.9315 91.7135 87.4187 92.1336 86.9028 92.5467C86.3887 92.9525 85.86 93.3548 85.33 93.7429C84.8026 94.1331 84.2649 94.5147 83.7235 94.8823C83.1802 95.2548 82.6331 95.6109 82.0806 95.9603C81.5284 96.3121 80.9675 96.6479 80.408 96.9717C79.8418 97.3008 79.2724 97.6206 78.7013 97.9215C78.1281 98.2249 77.5493 98.5193 76.969 98.7971C76.3868 99.0798 75.8034 99.3483 75.2137 99.6006C74.6223 99.8602 74.034 100.1 73.4351 100.33C72.8412 100.561 72.2418 100.783 71.6406 100.986C71.0372 101.189 70.4326 101.381 69.8268 101.558C69.2211 101.735 68.614 101.898 67.9987 102.048C67.3926 102.194 66.7805 102.327 66.1677 102.452C65.5522 102.573 64.9353 102.677 64.3244 102.768C63.7062 102.858 63.0894 102.936 62.4734 102.997C61.8573 103.056 61.247 103.1 60.6424 103.126C60.0403 103.155 59.4418 103.169 58.8534 103.163C58.2651 103.158 57.6878 103.141 57.1137 103.108C56.5419 103.072 55.9784 103.023 55.4185 102.96C54.8612 102.899 54.314 102.817 53.773 102.724C53.2321 102.633 52.6991 102.521 52.1771 102.4C51.6529 102.281 51.1368 102.144 50.6336 101.992C50.1283 101.843 49.6312 101.679 49.1402 101.502C48.654 101.324 48.1738 101.135 47.7062 100.925C47.2373 100.727 46.7785 100.509 46.3282 100.278C45.8755 100.048 45.4386 99.8065 45.01 99.5501C44.5811 99.2913 44.1589 99.0271 43.7519 98.7449C43.3427 98.4653 42.9465 98.1702 42.5545 97.8676C42.1695 97.5643 41.7928 97.246 41.4273 96.9196C41.0568 96.5911 40.7043 96.2492 40.3583 95.8995C40.0168 95.5471 39.6819 95.1869 39.3648 94.8132C39.0428 94.4375 38.7322 94.0561 38.4372 93.6613C38.1375 93.267 37.8512 92.8619 37.5782 92.4461C37.3053 92.0303 37.0436 91.6064 36.7974 91.1691C36.5465 90.7323 36.3116 90.2869 36.0877 89.8309C35.8664 89.3771 35.6538 88.9131 35.4571 88.4404C35.2602 87.9654 35.0769 87.482 34.9027 86.993C34.7331 86.5013 34.5744 85.999 34.432 85.4906C34.2895 84.9821 34.1585 84.4679 34.043 83.9403C33.9254 83.4153 33.8216 82.8844 33.736 82.3423C33.6481 81.8027 33.5763 81.2547 33.5157 80.6984C33.4574 80.142 33.4106 79.5797 33.3848 79.0109C33.3516 78.4403 33.3395 77.8655 33.3409 77.2799C33.34 76.6969 33.3578 76.1075 33.3869 75.5124C33.4185 74.917 33.4662 74.3154 33.5301 73.7077C33.5915 73.0977 33.6716 72.4838 33.7657 71.8662C33.8596 71.2463 33.9723 70.6223 34.099 69.9947Z"
      fill="#9A5F15" />
    <path
      d="M34.099 69.9947C34.2255 69.3647 34.3662 68.7335 34.5241 68.108C34.6799 67.485 34.8497 66.8584 35.0346 66.2401C35.2173 65.6243 35.4168 65.0095 35.6283 64.396C35.8425 63.7846 36.0663 63.1748 36.3074 62.5707C36.5461 61.9667 36.7947 61.3667 37.0626 60.7698C37.3259 60.1733 37.604 59.5826 37.8921 58.9982C38.1823 58.4089 38.4828 57.8282 38.7957 57.2536C39.1106 56.6741 39.436 56.1056 39.7735 55.5384C40.1112 54.9736 40.4564 54.4129 40.8146 53.8631C41.172 53.3061 41.5426 52.7623 41.9206 52.2202C42.3032 51.6778 42.6915 51.1444 43.09 50.6197C43.4909 50.0947 43.9039 49.5711 44.3227 49.059C44.7417 48.5492 45.1705 48.0433 45.6072 47.5439C46.0465 47.0491 46.4913 46.5609 46.9511 46.081C47.4036 45.5994 47.8714 45.1283 48.342 44.6618C48.8129 44.2 49.2964 43.7444 49.7856 43.3001C50.2722 42.8537 50.7692 42.4159 51.2696 41.9898C51.7751 41.568 52.2854 41.1459 52.8044 40.742C53.3209 40.336 53.8451 39.9365 54.3751 39.5484C54.9055 39.1651 55.4436 38.7882 55.9852 38.423C56.5291 38.0576 57.0764 37.7039 57.6269 37.3594C58.1824 37.0169 58.7368 36.6888 59.3058 36.3643C59.8728 36.0446 60.443 35.7343 61.0169 35.4379C61.5907 35.1416 62.1704 34.8567 62.751 34.5837C63.3365 34.3102 63.9229 34.0487 64.5106 33.8013C65.0983 33.5539 65.6944 33.3202 66.2917 33.1006C66.8862 32.8766 67.4891 32.6661 68.0934 32.4723C68.6951 32.2763 69.3005 32.0943 69.9071 31.9265C70.5184 31.7583 71.1265 31.6071 71.7378 31.4652C72.3516 31.3255 72.9643 31.2002 73.5785 31.0915C74.1924 30.9805 74.8126 30.8856 75.4293 30.8053C76.0459 30.7251 76.664 30.6615 77.2834 30.6121C77.9004 30.5629 78.5136 30.5259 79.1189 30.5064C79.722 30.4895 80.319 30.4851 80.9103 30.4979C81.4993 30.5109 82.08 30.5389 82.6527 30.5844C83.2297 30.6247 83.7965 30.685 84.3525 30.7583C84.9111 30.8336 85.463 30.9144 86.003 31.0225C86.547 31.123 87.0783 31.2414 87.6035 31.3723C88.1311 31.503 88.6476 31.6442 89.1536 31.8006C89.6621 31.9593 90.16 32.1331 90.6469 32.3176C91.1363 32.5041 91.6171 32.701 92.0871 32.9108C92.5549 33.1232 93.0165 33.3457 93.4674 33.5834C93.9183 33.8211 94.3604 34.0668 94.7896 34.3303C95.2209 34.5889 95.6417 34.8651 96.0489 35.1497C96.4609 35.4339 96.8597 35.7311 97.2474 36.0389C97.6354 36.3491 98.0121 36.6674 98.3804 36.9984C98.7463 37.3296 99.1012 37.6713 99.4472 38.021C99.791 38.3732 100.124 38.736 100.441 39.1121C100.765 39.4828 101.073 39.8668 101.371 40.259C101.666 40.6561 101.952 41.0588 102.227 41.4744C102.497 41.8856 102.759 42.3096 103.007 42.7372C103.255 43.1718 103.492 43.6123 103.713 44.0637C103.934 44.5151 104.144 44.9747 104.345 45.4422C104.539 45.9103 104.724 46.3816 104.891 46.8735C105.062 47.358 105.223 47.8505 105.36 48.3523C105.504 48.8534 105.634 49.3629 105.747 49.8812C105.864 50.3991 105.967 50.9229 106.049 51.4557C106.139 51.9856 106.208 52.5291 106.267 53.0759C106.325 53.6205 106.369 54.1758 106.396 54.7373C106.426 55.2963 106.437 55.864 106.435 56.4377C106.435 57.0112 106.417 57.5935 106.384 58.177C106.347 58.768 106.296 59.3579 106.239 59.9556C106.176 60.5513 106.093 61.1607 105.996 61.7666C105.901 62.3771 105.79 62.9937 105.66 63.6144C105.535 64.23 105.388 64.8497 105.232 65.4632C105.073 66.0769 104.902 66.6893 104.714 67.3031C104.523 67.91 104.325 68.5151 104.113 69.1168C103.9 69.7208 103.673 70.3189 103.431 70.9136C103.189 71.5083 102.935 72.1016 102.671 72.6886C102.405 73.2759 102.126 73.857 101.835 74.4369C101.546 75.0141 101.243 75.5855 100.929 76.153C100.616 76.7228 100.283 77.2872 99.9466 77.8423C99.6108 78.4022 99.2648 78.9534 98.8993 79.5015C98.5453 80.0439 98.1747 80.5877 97.7912 81.1206C97.4103 81.6558 97.0217 82.1844 96.6203 82.7046C96.2145 83.2276 95.8054 83.7413 95.3862 84.2487C94.967 84.7561 94.5377 85.2572 94.0979 85.7473C93.6587 86.2446 93.2114 86.7306 92.7561 87.2077C92.3008 87.6848 91.8333 88.1582 91.3597 88.6178C90.8887 89.0796 90.4098 89.5325 89.9208 89.9791C89.4318 90.4257 88.937 90.8609 88.4321 91.2898C87.9315 91.7135 87.4187 92.1336 86.9028 92.5467C86.3887 92.9525 85.86 93.3548 85.33 93.7429C84.8026 94.1331 84.2649 94.5147 83.7235 94.8823C83.1802 95.2548 82.6331 95.6109 82.0806 95.9603C81.5284 96.3121 80.9675 96.6479 80.408 96.9717C79.8418 97.3008 79.2724 97.6206 78.7013 97.9215C78.1281 98.2249 77.5493 98.5193 76.969 98.7971C76.3868 99.0798 75.8034 99.3483 75.2137 99.6006C74.6223 99.8602 74.034 100.1 73.4351 100.33C72.8412 100.561 72.2418 100.783 71.6406 100.986C71.0372 101.189 70.4326 101.381 69.8268 101.558C69.2211 101.735 68.614 101.898 67.9987 102.048C67.3926 102.194 66.7805 102.327 66.1677 102.452C65.5522 102.573 64.9353 102.677 64.3244 102.768C63.7062 102.858 63.0894 102.936 62.4734 102.997C61.8573 103.056 61.247 103.1 60.6424 103.126C60.0403 103.155 59.4418 103.169 58.8534 103.163C58.2651 103.158 57.6878 103.141 57.1137 103.108C56.5419 103.072 55.9784 103.023 55.4185 102.96C54.8612 102.899 54.314 102.817 53.773 102.724C53.2321 102.633 52.6991 102.521 52.1771 102.4C51.6529 102.281 51.1368 102.144 50.6336 101.992C50.1283 101.843 49.6312 101.679 49.1402 101.502C48.654 101.324 48.1738 101.135 47.7062 100.925C47.2373 100.727 46.7785 100.509 46.3282 100.278C45.8755 100.048 45.4386 99.8065 45.01 99.5501C44.5811 99.2913 44.1589 99.0271 43.7519 98.7449C43.3427 98.4653 42.9465 98.1702 42.5545 97.8676C42.1695 97.5643 41.7928 97.246 41.4273 96.9196C41.0568 96.5911 40.7043 96.2492 40.3583 95.8995C40.0168 95.5471 39.6819 95.1869 39.3648 94.8132C39.0428 94.4375 38.7322 94.0561 38.4372 93.6613C38.1375 93.267 37.8512 92.8619 37.5782 92.4461C37.3053 92.0303 37.0436 91.6064 36.7974 91.1691C36.5465 90.7323 36.3116 90.2869 36.0877 89.8309C35.8664 89.3771 35.6538 88.9131 35.4571 88.4404C35.2602 87.9654 35.0769 87.482 34.9027 86.993C34.7331 86.5013 34.5744 85.999 34.432 85.4906C34.2895 84.9821 34.1585 84.4679 34.043 83.9403C33.9254 83.4153 33.8216 82.8844 33.736 82.3423C33.6481 81.8027 33.5763 81.2547 33.5157 80.6984C33.4574 80.142 33.4106 79.5797 33.3848 79.0109C33.3516 78.4403 33.3395 77.8655 33.3409 77.2799C33.34 76.6969 33.3578 76.1075 33.3869 75.5124C33.4185 74.917 33.4662 74.3154 33.5301 73.7077C33.5915 73.0977 33.6716 72.4838 33.7657 71.8662C33.8596 71.2463 33.9723 70.6223 34.099 69.9947Z"
      fill="url(#paint0_linear_1300_32263)" fill-opacity="0.52" />
    <path
      d="M30.6107 68.0179C30.7372 67.388 30.8779 66.7568 31.0359 66.1312C31.1916 65.5082 31.3614 64.8817 31.5463 64.2633C31.729 63.6476 31.9285 63.0327 32.1401 62.4192C32.3542 61.8078 32.578 61.198 32.8191 60.5939C33.0578 59.99 33.3064 59.3899 33.5744 58.793C33.8376 58.1965 34.1157 57.6058 34.4039 57.0214C34.694 56.4321 34.9945 55.8515 35.3074 55.2769C35.6223 54.6973 35.9477 54.1288 36.2852 53.5616C36.6229 52.9968 36.9682 52.4361 37.3263 51.8863C37.6838 51.3293 38.0544 50.7855 38.4323 50.2435C38.8149 49.701 39.2032 49.1676 39.6017 48.6429C40.0027 48.118 40.4156 47.5944 40.8344 47.0822C41.2534 46.5724 41.6823 46.0665 42.1189 45.5672C42.5583 45.0723 43.003 44.5842 43.4629 44.1042C43.9154 43.6226 44.3831 43.1515 44.8537 42.685C45.3246 42.2233 45.8081 41.7676 46.2973 41.3233C46.784 40.8769 47.2809 40.4392 47.7813 40.0131C48.2868 39.5913 48.7971 39.1691 49.3161 38.7652C49.8326 38.3592 50.3568 37.9597 50.8868 37.5716C51.4172 37.1883 51.9553 36.8115 52.4969 36.4463C53.0408 36.0809 53.5881 35.7271 54.1386 35.3826C54.6941 35.0401 55.2485 34.7121 55.8175 34.3875C56.3845 34.0678 56.9547 33.7575 57.5286 33.4612C58.1025 33.1648 58.6821 32.8799 59.2628 32.6069C59.8482 32.3335 60.4346 32.0719 61.0223 31.8245C61.61 31.5772 62.2061 31.3434 62.8034 31.1239C63.3979 30.8998 64.0008 30.6894 64.6051 30.4955C65.2068 30.2995 65.8122 30.1175 66.4188 29.9497C67.0302 29.7815 67.6382 29.6304 68.2495 29.4885C68.8633 29.3487 69.476 29.2234 70.0902 29.1147C70.7042 29.0037 71.3243 28.9088 71.941 28.8286C72.5576 28.7483 73.1757 28.6847 73.7951 28.6353C74.4121 28.5861 75.0254 28.5492 75.6306 28.5297C76.2337 28.5127 76.8307 28.5083 77.422 28.5211C78.011 28.5341 78.5917 28.5621 79.1644 28.6076C79.7414 28.6479 80.3083 28.7083 80.8643 28.7815C81.4229 28.8569 81.9747 28.9376 82.5147 29.0457C83.0587 29.1463 83.59 29.2647 84.1152 29.3955C84.6428 29.5262 85.1594 29.6674 85.6653 29.8239C86.1738 29.9825 86.6717 30.1564 87.1586 30.3408C87.6481 30.5274 88.1289 30.7242 88.5988 30.934C89.0667 31.1464 89.5282 31.3689 89.9791 31.6066C90.43 31.8444 90.8721 32.09 91.3014 32.3536C91.7326 32.6121 92.1534 32.8884 92.5607 33.1729C92.9726 33.4571 93.3714 33.7543 93.7592 34.0621C94.1471 34.3723 94.5238 34.6906 94.8921 35.0216C95.258 35.3528 95.6129 35.6945 95.9589 36.0442C96.3028 36.3964 96.6356 36.7592 96.9529 37.1353C97.2768 37.506 97.5852 37.89 97.8824 38.2822C98.1776 38.6793 98.4637 39.082 98.739 39.4976C99.0092 39.9089 99.2709 40.3328 99.5186 40.7604C99.7669 41.1951 100.004 41.6355 100.225 42.0869C100.446 42.5383 100.656 42.9979 100.857 43.4654C101.051 43.9335 101.235 44.4048 101.403 44.8968C101.574 45.3812 101.734 45.8738 101.871 46.3755C102.016 46.8767 102.146 47.3862 102.258 47.9044C102.375 48.4223 102.479 48.9461 102.561 49.479C102.65 50.0088 102.719 50.5524 102.779 51.0991C102.836 51.6437 102.88 52.199 102.908 52.7606C102.938 53.3195 102.949 53.8872 102.947 54.4609C102.947 55.0344 102.928 55.6167 102.896 56.2002C102.859 56.7912 102.808 57.3812 102.75 57.9788C102.688 58.5745 102.605 59.1839 102.507 59.7899C102.413 60.4003 102.302 61.017 102.172 61.6377C102.047 62.2532 101.9 62.873 101.743 63.4864C101.584 64.1001 101.413 64.7125 101.226 65.3263C101.035 65.9332 100.837 66.5383 100.625 67.14C100.412 67.744 100.185 68.3422 99.943 68.9368C99.7011 69.5315 99.4472 70.1248 99.1831 70.7119C98.9167 71.2991 98.6378 71.8803 98.3468 72.4601C98.058 73.0374 97.7543 73.6087 97.4407 74.1762C97.1274 74.7461 96.7944 75.3105 96.4583 75.8656C96.1225 76.4254 95.7765 76.9766 95.411 77.5247C95.057 78.0671 94.6864 78.6109 94.303 79.1438C93.922 79.679 93.5334 80.2076 93.1321 80.7278C92.7262 81.2508 92.3171 81.7645 91.8979 82.2719C91.4787 82.7793 91.0495 83.2805 90.6096 83.7706C90.1704 84.2678 89.7231 84.7538 89.2678 85.2309C88.8125 85.708 88.345 86.1814 87.8714 86.641C87.4005 87.1028 86.9215 87.5557 86.4325 88.0023C85.9435 88.449 85.4487 88.8841 84.9438 89.313C84.4432 89.7368 83.9304 90.1568 83.4145 90.5699C82.9004 90.9757 82.3717 91.378 81.8417 91.7661C81.3143 92.1563 80.7766 92.5379 80.2352 92.9055C79.6919 93.278 79.1448 93.6341 78.5923 93.9835C78.0401 94.3353 77.4792 94.6711 76.9197 94.9949C76.3535 95.324 75.7841 95.6438 75.213 95.9447C74.6398 96.2482 74.061 96.5425 73.4807 96.8203C72.8985 97.103 72.3151 97.3715 71.7254 97.6238C71.134 97.8835 70.5457 98.1237 69.9468 98.3529C69.353 98.5841 68.7535 98.8062 68.1524 99.0093C67.5489 99.2127 66.9443 99.4042 66.3386 99.5814C65.7328 99.7587 65.1258 99.9217 64.5104 100.071C63.9043 100.217 63.2922 100.35 62.6795 100.475C62.064 100.596 61.447 100.7 60.8361 100.792C60.2179 100.882 59.6011 100.959 58.9851 101.02C58.369 101.079 57.7587 101.123 57.1541 101.15C56.552 101.178 55.9535 101.193 55.3651 101.187C54.7768 101.181 54.1995 101.164 53.6254 101.131C53.0536 101.095 52.4902 101.046 51.9302 100.983C51.3729 100.922 50.8258 100.841 50.2847 100.747C49.7438 100.656 49.2108 100.545 48.6888 100.423C48.1646 100.304 47.6485 100.168 47.1453 100.016C46.64 99.8663 46.143 99.7019 45.652 99.525C45.1657 99.3477 44.6855 99.158 44.2179 98.948C43.749 98.75 43.2902 98.5321 42.8399 98.3015C42.3873 98.071 41.9504 97.8297 41.5217 97.5733C41.0928 97.3145 40.6707 97.0503 40.2636 96.7681C39.8545 96.4885 39.4583 96.1934 39.0662 95.8908C38.6812 95.5875 38.3045 95.2692 37.939 94.9428C37.5686 94.6144 37.2161 94.2724 36.87 93.9228C36.5286 93.5703 36.1936 93.2101 35.8765 92.8364C35.5545 92.4608 35.244 92.0793 34.949 91.6846C34.6492 91.2902 34.3629 90.8851 34.0899 90.4693C33.817 90.0535 33.5553 89.6296 33.3091 89.1923C33.0582 88.7555 32.8233 88.3101 32.5994 87.8541C32.3781 87.4004 32.1655 86.9363 31.9688 86.4636C31.7719 85.9886 31.5887 85.5052 31.4144 85.0163C31.2448 84.5245 31.0861 84.0222 30.9437 83.5138C30.8012 83.0053 30.6702 82.4911 30.5548 81.9635C30.4371 81.4386 30.3333 80.9076 30.2477 80.3655C30.1599 79.826 30.088 79.2779 30.0274 78.7216C29.9692 78.1652 29.9224 77.6029 29.8965 77.0341C29.8633 76.4635 29.8512 75.8887 29.8526 75.3031C29.8517 74.7201 29.8695 74.1308 29.8987 73.5356C29.9302 72.9402 29.9779 72.3387 30.0418 71.7309C30.1032 71.121 30.1833 70.507 30.2774 69.8894C30.3713 69.2695 30.484 68.6455 30.6107 68.0179Z"
      fill="#D08E39" />
    <path
      d="M30.6107 68.0823C30.7372 67.4524 30.8779 66.8211 31.0359 66.1956C31.1916 65.5726 31.3614 64.946 31.5463 64.3277C31.729 63.7119 31.9285 63.0971 32.1401 62.4836C32.3542 61.8722 32.578 61.2624 32.8191 60.6583C33.0578 60.0544 33.3064 59.4543 33.5744 58.8574C33.8376 58.2609 34.1157 57.6702 34.4039 57.0858C34.694 56.4965 34.9945 55.9158 35.3074 55.3413C35.6223 54.7617 35.9477 54.1932 36.2852 53.626C36.6229 53.0612 36.9682 52.5005 37.3263 51.9507C37.6838 51.3937 38.0544 50.8499 38.4323 50.3079C38.8149 49.7654 39.2032 49.232 39.6017 48.7073C40.0027 48.1824 40.4156 47.6588 40.8344 47.1466C41.2534 46.6368 41.6823 46.1309 42.1189 45.6315C42.5583 45.1367 43.003 44.6485 43.4629 44.1686C43.9154 43.687 44.3831 43.2159 44.8537 42.7494C45.3246 42.2877 45.8081 41.832 46.2973 41.3877C46.784 40.9413 47.2809 40.5035 47.7813 40.0774C48.2868 39.6557 48.7971 39.2335 49.3161 38.8296C49.8326 38.4236 50.3568 38.0241 50.8868 37.636C51.4172 37.2527 51.9553 36.8758 52.4969 36.5107C53.0408 36.1453 53.5881 35.7915 54.1386 35.447C54.6941 35.1045 55.2485 34.7764 55.8175 34.4519C56.3845 34.1322 56.9547 33.8219 57.5286 33.5256C58.1025 33.2292 58.6821 32.9443 59.2628 32.6713C59.8482 32.3979 60.4346 32.1363 61.0223 31.8889C61.61 31.6415 62.2061 31.4078 62.8034 31.1883C63.3979 30.9642 64.0008 30.7537 64.6051 30.5599C65.2068 30.3639 65.8122 30.1819 66.4188 30.0141C67.0302 29.8459 67.6382 29.6947 68.2495 29.5529C68.8633 29.4131 69.476 29.2878 70.0902 29.1791C70.7042 29.0681 71.3243 28.9732 71.941 28.893C72.5576 28.8127 73.1757 28.7491 73.7951 28.6997C74.4121 28.6505 75.0254 28.6136 75.6306 28.5941C76.2337 28.5771 76.8307 28.5727 77.422 28.5855C78.011 28.5985 78.5917 28.6265 79.1644 28.672C79.7414 28.7123 80.3083 28.7726 80.8643 28.8459C81.4228 28.9213 81.9747 29.002 82.5147 29.1101C83.0587 29.2106 83.59 29.329 84.1152 29.4599C84.6428 29.5906 85.1594 29.7318 85.6653 29.8882C86.1738 30.0469 86.6717 30.2208 87.1586 30.4052C87.648 30.5917 88.1288 30.7886 88.5988 30.9984C89.0666 31.2108 89.5282 31.4333 89.9791 31.671C90.43 31.9087 90.8721 32.1544 91.3014 32.418C91.7326 32.6765 92.1534 32.9527 92.5607 33.2373C92.9726 33.5215 93.3714 33.8187 93.7592 34.1265C94.1471 34.4367 94.5238 34.755 94.8921 35.086C95.258 35.4172 95.6129 35.7589 95.9589 36.1086C96.3028 36.4608 96.6356 36.8236 96.9529 37.1997C97.2768 37.5704 97.5852 37.9544 97.8824 38.3466C98.1776 38.7437 98.4637 39.1464 98.739 39.562C99.0092 39.9733 99.2709 40.3972 99.5186 40.8248C99.7669 41.2595 100.004 41.6999 100.225 42.1513C100.446 42.6027 100.656 43.0623 100.857 43.5298C101.051 43.9979 101.235 44.4692 101.403 44.9612C101.574 45.4456 101.734 45.9382 101.871 46.4399C102.016 46.9411 102.146 47.4506 102.258 47.9688C102.375 48.4867 102.479 49.0105 102.561 49.5434C102.65 50.0732 102.719 50.6167 102.779 51.1635C102.836 51.7081 102.88 52.2634 102.908 52.825C102.938 53.3839 102.949 53.9516 102.947 54.5253C102.947 55.0988 102.928 55.6811 102.896 56.2646C102.859 56.8556 102.808 57.4456 102.75 58.0432C102.688 58.6389 102.605 59.2483 102.507 59.8542C102.413 60.4647 102.302 61.0814 102.172 61.702C102.047 62.3176 101.9 62.9373 101.743 63.5508C101.584 64.1645 101.413 64.7769 101.226 65.3907C101.035 65.9976 100.837 66.6027 100.625 67.2044C100.412 67.8084 100.185 68.4066 99.943 69.0012C99.7011 69.5959 99.4472 70.1892 99.1831 70.7762C98.9167 71.3635 98.6378 71.9447 98.3468 72.5245C98.058 73.1017 97.7543 73.6731 97.4407 74.2406C97.1274 74.8105 96.7944 75.3748 96.4583 75.93C96.1225 76.4898 95.7765 77.041 95.411 77.5891C95.057 78.1315 94.6864 78.6753 94.303 79.2082C93.922 79.7434 93.5334 80.272 93.132 80.7922C92.7262 81.3152 92.3171 81.8289 91.8979 82.3363C91.4787 82.8437 91.0494 83.3449 90.6096 83.835C90.1704 84.3322 89.7231 84.8182 89.2678 85.2953C88.8125 85.7724 88.345 86.2458 87.8714 86.7054C87.4005 87.1672 86.9215 87.6201 86.4325 88.0667C85.9435 88.5133 85.4487 88.9485 84.9438 89.3774C84.4432 89.8011 83.9304 90.2212 83.4145 90.6343C82.9004 91.0401 82.3717 91.4424 81.8417 91.8305C81.3143 92.2207 80.7766 92.6023 80.2352 92.9699C79.6919 93.3424 79.1448 93.6985 78.5923 94.0479C78.0401 94.3997 77.4792 94.7355 76.9197 95.0593C76.3535 95.3884 75.7841 95.7082 75.213 96.0091C74.6398 96.3125 74.061 96.6069 73.4807 96.8847C72.8985 97.1674 72.3151 97.4359 71.7254 97.6882C71.134 97.9479 70.5457 98.1881 69.9468 98.4173C69.353 98.6485 68.7535 98.8706 68.1524 99.0737C67.5489 99.2771 66.9443 99.4686 66.3386 99.6458C65.7328 99.8231 65.1258 99.9861 64.5104 100.136C63.9043 100.282 63.2922 100.414 62.6795 100.539C62.064 100.66 61.447 100.764 60.8361 100.856C60.2179 100.946 59.6011 101.024 58.9851 101.085C58.369 101.144 57.7587 101.187 57.1541 101.214C56.552 101.243 55.9535 101.257 55.3651 101.251C54.7768 101.245 54.1995 101.229 53.6254 101.195C53.0536 101.159 52.4902 101.111 51.9302 101.047C51.3729 100.986 50.8258 100.905 50.2847 100.811C49.7438 100.72 49.2108 100.609 48.6888 100.487C48.1646 100.368 47.6485 100.232 47.1453 100.08C46.64 99.9307 46.143 99.7663 45.652 99.5894C45.1657 99.4121 44.6855 99.2223 44.2179 99.0123C43.749 98.8144 43.2902 98.5965 42.8399 98.3658C42.3873 98.1354 41.9504 97.8941 41.5217 97.6377C41.0928 97.3789 40.6707 97.1147 40.2636 96.8325C39.8545 96.5529 39.4583 96.2578 39.0662 95.9552C38.6812 95.6519 38.3045 95.3336 37.939 95.0072C37.5686 94.6787 37.2161 94.3368 36.87 93.9872C36.5286 93.6347 36.1936 93.2745 35.8765 92.9008C35.5545 92.5251 35.244 92.1437 34.949 91.7489C34.6492 91.3546 34.3629 90.9495 34.0899 90.5337C33.817 90.1179 33.5553 89.694 33.3091 89.2567C33.0582 88.8199 32.8233 88.3745 32.5994 87.9185C32.3781 87.4648 32.1655 87.0007 31.9688 86.528C31.7719 86.053 31.5887 85.5696 31.4144 85.0806C31.2448 84.5889 31.0861 84.0866 30.9437 83.5782C30.8012 83.0697 30.6702 82.5555 30.5548 82.0279C30.4371 81.5029 30.3333 80.972 30.2477 80.4299C30.1599 79.8904 30.088 79.3423 30.0274 78.786C29.9692 78.2296 29.9224 77.6673 29.8965 77.0985C29.8633 76.5279 29.8512 75.9531 29.8526 75.3675C29.8517 74.7845 29.8695 74.1951 29.8987 73.6C29.9302 73.0046 29.9779 72.403 30.0418 71.7953C30.1032 71.1854 30.1833 70.5714 30.2774 69.9538C30.3713 69.3339 30.484 68.7099 30.6107 68.0823Z"
      fill="url(#paint1_linear_1300_32263)" />
    <mask id="path-12-inside-1_1300_32263" fill="white">
      <path
        d="M32.3289 67.8364C32.4492 67.2337 32.5831 66.6298 32.7334 66.0313C32.8816 65.4353 33.0432 64.8358 33.2191 64.2443C33.393 63.6551 33.5829 63.0669 33.7843 62.48C33.9882 61.8951 34.2012 61.3117 34.4307 60.7337C34.658 60.1559 34.8947 59.5819 35.1498 59.0108C35.4005 58.4401 35.6652 57.8751 35.9397 57.316C36.216 56.7523 36.5021 56.1968 36.8001 55.6471C37.1 55.0927 37.4099 54.5488 37.7313 54.0062C38.0529 53.4659 38.3816 52.9296 38.7227 52.4036C39.0632 51.8708 39.4162 51.3506 39.7761 50.8321C40.1406 50.3132 40.5103 49.8029 40.8899 49.301C41.2718 48.7989 41.6652 48.298 42.064 47.8081C42.4631 47.3205 42.8716 46.8366 43.2875 46.3589C43.706 45.8856 44.1297 45.4187 44.5677 44.9596C44.9987 44.4989 45.4443 44.0484 45.8926 43.6022C46.3412 43.1605 46.8017 42.7246 47.2678 42.2997C47.7313 41.8728 48.2048 41.4541 48.6814 41.0466C49.163 40.6432 49.6491 40.2394 50.1436 39.8531C50.6356 39.4648 51.135 39.0827 51.6399 38.7116C52.1452 38.345 52.6578 37.9846 53.1738 37.6354C53.6919 37.2859 54.2134 36.9477 54.7379 36.6183C55.2671 36.2907 55.7952 35.977 56.3373 35.6666C56.8775 35.361 57.4208 35.0642 57.9676 34.7809C58.5143 34.4976 59.0665 34.2252 59.6198 33.9641C60.1775 33.7027 60.7363 33.4526 61.2962 33.2161C61.8562 32.9796 62.4241 32.7562 62.9932 32.5463C63.5596 32.3321 64.1341 32.131 64.7099 31.9457C65.2832 31.7584 65.86 31.5844 66.438 31.4241C67.0205 31.2634 67.5999 31.119 68.1823 30.9834C68.7672 30.8499 69.351 30.7302 69.9363 30.6265C70.5213 30.5204 71.1122 30.4298 71.6998 30.3533C72.2874 30.2767 72.8764 30.216 73.4665 30.169C74.0545 30.1221 74.6389 30.087 75.2156 30.0685C75.7903 30.0526 76.3592 30.0485 76.9227 30.061C77.4839 30.0736 78.0373 30.1006 78.5831 30.1443C79.1329 30.1831 79.6731 30.241 80.2029 30.3113C80.7353 30.3836 81.2612 30.4611 81.7757 30.5647C82.2942 30.6611 82.8005 30.7745 83.3011 30.8999C83.8038 31.0252 84.2961 31.1604 84.7783 31.3103C85.2629 31.4623 85.7374 31.6288 86.2015 31.8054C86.6679 31.9841 87.1262 32.1727 87.5741 32.3736C88.02 32.5769 88.4598 32.79 88.8896 33.0176C89.3194 33.2452 89.7407 33.4804 90.1499 33.7327C90.5609 33.9803 90.962 34.2447 91.3502 34.5172C91.7428 34.7892 92.123 35.0738 92.4926 35.3684C92.8624 35.6653 93.2215 35.97 93.5725 36.2868C93.9213 36.6038 94.2596 36.9309 94.5894 37.2656C94.9172 37.6028 95.2345 37.95 95.5369 38.31C95.8458 38.6648 96.1398 39.0323 96.4231 39.4077C96.7045 39.7878 96.9773 40.1732 97.2398 40.5709C97.4974 40.9645 97.747 41.3703 97.9831 41.7795C98.2199 42.1955 98.4458 42.617 98.6566 43.049C98.8675 43.481 99.0676 43.9207 99.2593 44.3681C99.4442 44.8161 99.6203 45.2671 99.7799 45.7379C99.9434 46.2015 100.096 46.6728 100.227 47.153C100.365 47.6325 100.489 48.1201 100.596 48.616C100.708 49.1116 100.807 49.6128 100.885 50.1227C100.971 50.6297 101.037 51.1498 101.094 51.6729C101.149 52.194 101.19 52.7254 101.217 53.2627C101.246 53.7975 101.257 54.3407 101.255 54.8897C101.255 55.4384 101.237 55.9955 101.207 56.5538C101.172 57.1193 101.123 57.6838 101.069 58.2556C101.009 58.8256 100.93 59.4087 100.838 59.9884C100.748 60.5725 100.642 61.1624 100.519 61.7563C100.399 62.3452 100.26 62.9382 100.111 63.5251C99.9598 64.1122 99.797 64.6981 99.6184 65.2853C99.4369 65.866 99.2485 66.4449 99.0461 67.0205C98.8439 67.5984 98.6276 68.1707 98.3973 68.7396C98.167 69.3085 97.9252 69.8761 97.6738 70.4377C97.4201 70.9995 97.1545 71.5555 96.8774 72.1102C96.6024 72.6624 96.3132 73.209 96.0146 73.7519C95.7162 74.297 95.3991 74.8369 95.079 75.368C94.7593 75.9035 94.4297 76.4308 94.0816 76.9552C93.7445 77.474 93.3915 77.9941 93.0263 78.504C92.6635 79.0159 92.2933 79.5215 91.911 80.0191C91.5245 80.5194 91.1348 81.0108 90.7356 81.4962C90.3363 81.9815 89.9274 82.4609 89.5084 82.9297C89.0901 83.4053 88.664 83.8701 88.2303 84.3265C87.7966 84.7829 87.3512 85.2357 86.9001 85.6753C86.4515 86.1169 85.9953 86.5501 85.5294 86.9773C85.0636 87.4045 84.5923 87.8207 84.1113 88.2309C83.6344 88.6361 83.1458 89.0379 82.6544 89.433C82.1647 89.8211 81.661 90.2058 81.1561 90.577C80.6536 90.9502 80.1413 91.3151 79.6256 91.6666C79.108 92.0229 78.5868 92.3634 78.0604 92.6976C77.5343 93.034 77 93.3551 76.4669 93.6647C75.9275 93.9794 75.385 94.2852 74.8409 94.5729C74.2948 94.863 73.7433 95.1445 73.1905 95.4101C72.6358 95.6804 72.0799 95.9371 71.5181 96.1783C70.9546 96.4266 70.3941 96.6562 69.8235 96.8753C69.2576 97.0963 68.6865 97.3086 68.1137 97.5028C67.5387 97.6972 66.9627 97.8802 66.3855 98.0496C65.8083 98.219 65.2299 98.3747 64.6436 98.5175C64.066 98.6572 63.4828 98.7837 62.899 98.9033C62.3125 99.0187 61.7246 99.1181 61.1426 99.2056C60.5535 99.2915 59.9657 99.3657 59.3788 99.424C58.7917 99.4799 58.2101 99.5216 57.634 99.5469C57.0603 99.5742 56.4899 99.5875 55.9293 99.5817C55.3686 99.5759 54.8185 99.56 54.2715 99.5278C53.7265 99.4932 53.1896 99.4464 52.656 99.3856C52.1249 99.3269 51.6035 99.2491 51.0879 99.1593C50.5725 99.0718 50.0645 98.9653 49.567 98.8488C49.0675 98.7347 48.5756 98.604 48.0961 98.4584C47.6145 98.3153 47.1408 98.1579 46.6728 97.9885C46.2094 97.8186 45.7518 97.6369 45.3061 97.4358C44.8592 97.2463 44.422 97.0376 43.9928 96.8168C43.5613 96.5961 43.1449 96.365 42.7364 96.1196C42.3276 95.8718 41.9252 95.6189 41.5373 95.3487C41.1472 95.0811 40.7696 94.7986 40.3959 94.5089C40.0289 94.2186 39.6698 93.9139 39.3214 93.6014C38.9683 93.287 38.6323 92.9597 38.3025 92.625C37.9769 92.2877 37.6576 91.9429 37.3553 91.5853C37.0484 91.2257 36.7523 90.8606 36.471 90.4828C36.1853 90.1054 35.9123 89.7177 35.652 89.3198C35.3918 88.9218 35.1423 88.5161 34.9076 88.0976C34.6683 87.6795 34.4443 87.2533 34.2308 86.8169C34.0198 86.3827 33.817 85.9386 33.6294 85.4863C33.4416 85.0317 33.2668 84.5691 33.1006 84.1012C32.9388 83.6306 32.7874 83.15 32.6515 82.6634C32.5156 82.1769 32.3906 81.6848 32.2804 81.18C32.1681 80.6776 32.069 80.1695 31.9872 79.6508C31.9033 79.1345 31.8347 78.6101 31.7767 78.0778C31.721 77.5454 31.6762 77.0074 31.6514 76.4631C31.6196 75.9172 31.6079 75.3671 31.609 74.8069C31.608 74.249 31.6247 73.6851 31.6523 73.1157C31.6821 72.546 31.7274 71.9704 31.7881 71.3889C31.8463 70.8053 31.9224 70.2179 32.0119 69.627C32.1012 69.0339 32.2084 68.4369 32.3289 67.8364Z" />
    </mask>
    <path
      d="M32.3289 67.8364C32.4492 67.2337 32.5831 66.6298 32.7334 66.0313C32.8816 65.4353 33.0432 64.8358 33.2191 64.2443C33.393 63.6551 33.5829 63.0669 33.7843 62.48C33.9882 61.8951 34.2012 61.3117 34.4307 60.7337C34.658 60.1559 34.8947 59.5819 35.1498 59.0108C35.4005 58.4401 35.6652 57.8751 35.9397 57.316C36.216 56.7523 36.5021 56.1968 36.8001 55.6471C37.1 55.0927 37.4099 54.5488 37.7313 54.0062C38.0529 53.4659 38.3816 52.9296 38.7227 52.4036C39.0632 51.8708 39.4162 51.3506 39.7761 50.8321C40.1406 50.3132 40.5103 49.8029 40.8899 49.301C41.2718 48.7989 41.6652 48.298 42.064 47.8081C42.4631 47.3205 42.8716 46.8366 43.2875 46.3589C43.706 45.8856 44.1297 45.4187 44.5677 44.9596C44.9987 44.4989 45.4443 44.0484 45.8926 43.6022C46.3412 43.1605 46.8017 42.7246 47.2678 42.2997C47.7313 41.8728 48.2048 41.4541 48.6814 41.0466C49.163 40.6432 49.6491 40.2394 50.1436 39.8531C50.6356 39.4648 51.135 39.0827 51.6399 38.7116C52.1452 38.345 52.6578 37.9846 53.1738 37.6354C53.6919 37.2859 54.2134 36.9477 54.7379 36.6183C55.2671 36.2907 55.7952 35.977 56.3373 35.6666C56.8775 35.361 57.4208 35.0642 57.9676 34.7809C58.5143 34.4976 59.0665 34.2252 59.6198 33.9641C60.1775 33.7027 60.7363 33.4526 61.2962 33.2161C61.8562 32.9796 62.4241 32.7562 62.9932 32.5463C63.5596 32.3321 64.1341 32.131 64.7099 31.9457C65.2832 31.7584 65.86 31.5844 66.438 31.4241C67.0205 31.2634 67.5999 31.119 68.1823 30.9834C68.7672 30.8499 69.351 30.7302 69.9363 30.6265C70.5213 30.5204 71.1122 30.4298 71.6998 30.3533C72.2874 30.2767 72.8764 30.216 73.4665 30.169C74.0545 30.1221 74.6389 30.087 75.2156 30.0685C75.7903 30.0526 76.3592 30.0485 76.9227 30.061C77.4839 30.0736 78.0373 30.1006 78.5831 30.1443C79.1329 30.1831 79.6731 30.241 80.2029 30.3113C80.7353 30.3836 81.2612 30.4611 81.7757 30.5647C82.2942 30.6611 82.8005 30.7745 83.3011 30.8999C83.8038 31.0252 84.2961 31.1604 84.7783 31.3103C85.2629 31.4623 85.7374 31.6288 86.2015 31.8054C86.6679 31.9841 87.1262 32.1727 87.5741 32.3736C88.02 32.5769 88.4598 32.79 88.8896 33.0176C89.3194 33.2452 89.7407 33.4804 90.1499 33.7327C90.5609 33.9803 90.962 34.2447 91.3502 34.5172C91.7428 34.7892 92.123 35.0738 92.4926 35.3684C92.8624 35.6653 93.2215 35.97 93.5725 36.2868C93.9213 36.6038 94.2596 36.9309 94.5894 37.2656C94.9172 37.6028 95.2345 37.95 95.5369 38.31C95.8458 38.6648 96.1398 39.0323 96.4231 39.4077C96.7045 39.7878 96.9773 40.1732 97.2398 40.5709C97.4974 40.9645 97.747 41.3703 97.9831 41.7795C98.2199 42.1955 98.4458 42.617 98.6566 43.049C98.8675 43.481 99.0676 43.9207 99.2593 44.3681C99.4442 44.8161 99.6203 45.2671 99.7799 45.7379C99.9434 46.2015 100.096 46.6728 100.227 47.153C100.365 47.6325 100.489 48.1201 100.596 48.616C100.708 49.1116 100.807 49.6128 100.885 50.1227C100.971 50.6297 101.037 51.1498 101.094 51.6729C101.149 52.194 101.19 52.7254 101.217 53.2627C101.246 53.7975 101.257 54.3407 101.255 54.8897C101.255 55.4384 101.237 55.9955 101.207 56.5538C101.172 57.1193 101.123 57.6838 101.069 58.2556C101.009 58.8256 100.93 59.4087 100.838 59.9884C100.748 60.5725 100.642 61.1624 100.519 61.7563C100.399 62.3452 100.26 62.9382 100.111 63.5251C99.9598 64.1122 99.797 64.6981 99.6184 65.2853C99.4369 65.866 99.2485 66.4449 99.0461 67.0205C98.8439 67.5984 98.6276 68.1707 98.3973 68.7396C98.167 69.3085 97.9252 69.8761 97.6738 70.4377C97.4201 70.9995 97.1545 71.5555 96.8774 72.1102C96.6024 72.6624 96.3132 73.209 96.0146 73.7519C95.7162 74.297 95.3991 74.8369 95.079 75.368C94.7593 75.9035 94.4297 76.4308 94.0816 76.9552C93.7445 77.474 93.3915 77.9941 93.0263 78.504C92.6635 79.0159 92.2933 79.5215 91.911 80.0191C91.5245 80.5194 91.1348 81.0108 90.7356 81.4962C90.3363 81.9815 89.9274 82.4609 89.5084 82.9297C89.0901 83.4053 88.664 83.8701 88.2303 84.3265C87.7966 84.7829 87.3512 85.2357 86.9001 85.6753C86.4515 86.1169 85.9953 86.5501 85.5294 86.9773C85.0636 87.4045 84.5923 87.8207 84.1113 88.2309C83.6344 88.6361 83.1458 89.0379 82.6544 89.433C82.1647 89.8211 81.661 90.2058 81.1561 90.577C80.6536 90.9502 80.1413 91.3151 79.6256 91.6666C79.108 92.0229 78.5868 92.3634 78.0604 92.6976C77.5343 93.034 77 93.3551 76.4669 93.6647C75.9275 93.9794 75.385 94.2852 74.8409 94.5729C74.2948 94.863 73.7433 95.1445 73.1905 95.4101C72.6358 95.6804 72.0799 95.9371 71.5181 96.1783C70.9546 96.4266 70.3941 96.6562 69.8235 96.8753C69.2576 97.0963 68.6865 97.3086 68.1137 97.5028C67.5387 97.6972 66.9627 97.8802 66.3855 98.0496C65.8083 98.219 65.2299 98.3747 64.6436 98.5175C64.066 98.6572 63.4828 98.7837 62.899 98.9033C62.3125 99.0187 61.7246 99.1181 61.1426 99.2056C60.5535 99.2915 59.9657 99.3657 59.3788 99.424C58.7917 99.4799 58.2101 99.5216 57.634 99.5469C57.0603 99.5742 56.4899 99.5875 55.9293 99.5817C55.3686 99.5759 54.8185 99.56 54.2715 99.5278C53.7265 99.4932 53.1896 99.4464 52.656 99.3856C52.1249 99.3269 51.6035 99.2491 51.0879 99.1593C50.5725 99.0718 50.0645 98.9653 49.567 98.8488C49.0675 98.7347 48.5756 98.604 48.0961 98.4584C47.6145 98.3153 47.1408 98.1579 46.6728 97.9885C46.2094 97.8186 45.7518 97.6369 45.3061 97.4358C44.8592 97.2463 44.422 97.0376 43.9928 96.8168C43.5613 96.5961 43.1449 96.365 42.7364 96.1196C42.3276 95.8718 41.9252 95.6189 41.5373 95.3487C41.1472 95.0811 40.7696 94.7986 40.3959 94.5089C40.0289 94.2186 39.6698 93.9139 39.3214 93.6014C38.9683 93.287 38.6323 92.9597 38.3025 92.625C37.9769 92.2877 37.6576 91.9429 37.3553 91.5853C37.0484 91.2257 36.7523 90.8606 36.471 90.4828C36.1853 90.1054 35.9123 89.7177 35.652 89.3198C35.3918 88.9218 35.1423 88.5161 34.9076 88.0976C34.6683 87.6795 34.4443 87.2533 34.2308 86.8169C34.0198 86.3827 33.817 85.9386 33.6294 85.4863C33.4416 85.0317 33.2668 84.5691 33.1006 84.1012C32.9388 83.6306 32.7874 83.15 32.6515 82.6634C32.5156 82.1769 32.3906 81.6848 32.2804 81.18C32.1681 80.6776 32.069 80.1695 31.9872 79.6508C31.9033 79.1345 31.8347 78.6101 31.7767 78.0778C31.721 77.5454 31.6762 77.0074 31.6514 76.4631C31.6196 75.9172 31.6079 75.3671 31.609 74.8069C31.608 74.249 31.6247 73.6851 31.6523 73.1157C31.6821 72.546 31.7274 71.9704 31.7881 71.3889C31.8463 70.8053 31.9224 70.2179 32.0119 69.627C32.1012 69.0339 32.2084 68.4369 32.3289 67.8364Z"
      stroke="#B57017" mask="url(#path-12-inside-1_1300_32263)" />
    <path fill-rule="evenodd" clip-rule="evenodd"
      d="M85.0779 60.4208L84.6434 60.098L84.2352 59.7753C84.2352 59.7753 83.8236 59.4409 83.4142 59.104C83.0054 58.7741 82.596 58.4372 82.596 58.4372C82.5629 58.4138 82.5321 58.3902 82.5014 58.3666C82.2542 58.1636 82.0109 57.977 81.7075 57.7861C81.603 57.7116 81.4926 57.6519 81.3688 57.603L81.1277 57.5238C80.967 57.4614 80.8107 57.3962 80.67 57.3177C80.0912 57.0386 79.5889 56.65 79.1946 56.1588C79.1814 56.1169 79.182 56.0691 79.1919 56.0181C79.2018 55.967 79.2192 55.9201 79.2484 55.8721L79.2485 55.872C79.2732 55.8268 79.3061 55.7666 79.3412 55.7039C79.3932 55.6157 79.4488 55.5129 79.5102 55.3952C79.6176 55.1755 79.6938 54.9538 79.7409 54.7274C79.7644 54.5868 79.7905 54.4483 79.8279 54.3017C79.8458 54.2332 79.8801 54.1609 79.9292 54.0945C80.0232 53.9668 80.1574 53.8618 80.2981 53.8041L81.0535 53.5612L81.3499 53.1529L81.3666 53.0702L80.6987 52.6197C80.2822 52.3383 79.9725 51.9401 79.714 51.4704C79.4555 51.0008 79.2482 50.4622 79.0342 49.9002C79.0252 49.8795 79.0158 49.854 79.0062 49.8262C78.7736 49.2157 78.4617 48.6552 78.0714 48.1541C77.9613 48.0155 77.8374 47.883 77.7074 47.763C77.5642 47.656 77.4063 47.5718 77.2415 47.4907C76.94 47.3498 76.6555 47.2385 76.3522 47.1312C76.3251 47.1238 76.2978 47.1148 76.2701 47.1057C76.2502 47.0991 76.2301 47.0925 76.2097 47.0863C75.9587 47.0031 75.7219 46.9187 75.5375 46.8321L74.7153 46.4476L73.0532 45.6946C72.4913 45.445 71.9168 45.2157 71.3296 45.0042C70.7426 44.7951 70.1385 44.609 69.5242 44.4429C68.9049 44.2749 68.2651 44.1445 67.6115 44.0487C66.956 43.9579 66.2842 43.8996 65.6013 43.8781C65.2505 43.8562 64.8953 43.8658 64.5319 43.8904C64.0994 43.9187 63.6569 44.0506 63.2293 44.2696C63.0555 44.3512 62.8989 44.4363 62.753 44.5156C62.7255 44.5305 62.6984 44.5453 62.6716 44.5597C62.6489 44.5724 62.6266 44.585 62.6045 44.5974C62.4692 44.6736 62.345 44.7435 62.2264 44.797C61.9397 44.9344 61.5159 45.1435 61.1873 45.3204C60.5044 45.6813 59.8365 46.0766 59.1829 46.4994C58.5269 46.9224 57.8855 47.3752 57.261 47.8576C56.5977 48.3338 55.9628 48.8601 55.3598 49.4242C54.7418 50.0087 54.2019 50.6653 53.7618 51.3705C53.2057 51.5147 52.6505 51.6971 52.0989 51.9198C51.5497 52.1423 51.0061 52.4025 50.4706 52.7003C49.8298 53.0503 49.2132 53.4866 48.6451 53.9855C48.4836 54.1334 48.3322 54.2877 48.1937 54.4527C48.0598 54.615 47.9428 54.7805 47.8313 54.9528C47.6246 55.2672 47.4479 55.5694 47.2734 55.869C46.9364 56.4696 46.6215 57.0754 46.3259 57.6843C46.0281 58.2958 45.7475 58.913 45.4909 59.5304C45.2317 60.1457 44.9895 60.7643 44.762 61.3864C44.5342 62.0061 44.3237 62.6315 44.1298 63.2554C43.9499 63.8757 43.7878 64.5087 43.6469 65.1376C43.5057 65.7641 43.3853 66.3815 43.2897 67.0088C43.1942 67.6384 43.1347 68.2697 43.1122 68.8858C43.0874 69.5045 43.1022 70.1101 43.1428 70.7111C43.2033 71.32 43.3142 71.9053 43.4826 72.464C43.6436 73.021 43.8619 73.5492 44.13 74.0466L44.4296 74.6035C44.7951 75.3122 44.997 75.653 45.7612 75.5384C46.26 75.4493 46.9172 74.9044 47.6528 74.0801C48.0182 73.6682 48.4017 73.1902 48.7979 72.6657C49.1913 72.1366 49.593 71.5662 49.9881 70.9749C50.3876 70.3784 50.7828 69.7608 51.1635 69.142C51.5445 68.5256 51.9108 67.9057 52.2531 67.3119C52.5929 66.7158 52.9086 66.1457 53.1895 65.6146C53.4685 65.0884 53.7151 64.6032 53.9107 64.1894C54.1504 63.6786 54.3931 63.1747 54.6342 62.6805C54.8729 62.1864 55.1125 61.7019 55.3484 61.2296C55.5823 60.7623 55.8172 60.3069 56.0532 59.8633C56.2849 59.4248 56.518 59.003 56.748 58.6005C57.2131 57.7976 57.6661 57.0769 58.1146 56.4666C58.563 55.8562 59.0017 55.3543 59.4336 54.9915C58.9691 55.0632 58.496 55.2814 58.0778 55.6095C57.6634 55.9254 57.2744 56.2868 56.9218 56.6808C56.58 57.062 56.2556 57.4512 55.9417 57.8515C55.6303 58.2515 55.336 58.6572 55.0524 59.0762C54.7759 59.466 54.5142 59.8617 54.2547 60.2548C53.9977 60.65 53.743 61.0427 53.4929 61.435C53.4706 61.4696 53.4483 61.5043 53.426 61.5389C53.173 61.9318 52.9215 62.3224 52.6677 62.7091C52.3891 63.1302 52.1077 63.5467 51.8137 63.9547C51.5322 64.3426 51.2462 64.7332 50.9552 65.1219C50.6622 65.5155 50.3667 65.9069 50.0682 66.2915C49.7654 66.6812 49.4645 67.066 49.1563 67.449C48.8457 67.8322 48.533 68.218 48.2199 68.599C47.7356 69.1815 47.2396 69.7673 46.7404 70.3438C46.2391 70.9229 45.735 71.4975 45.2327 72.0648C45.1021 71.6652 45.0033 71.2461 44.928 70.8226C44.8502 70.3969 44.7999 69.9592 44.7708 69.5173C44.7458 69.0679 44.74 68.6191 44.7642 68.1582C44.7884 67.6973 44.8359 67.2296 44.9071 66.7598C44.9994 66.1758 45.1033 65.5884 45.2292 65.0063C45.3543 64.4147 45.4968 63.8311 45.6557 63.2437C45.8167 62.6538 45.9974 62.0692 46.1966 61.4783C46.3962 60.8921 46.6103 60.3071 46.8457 59.7202C47.0718 59.1364 47.3193 58.5509 47.5839 57.9709C47.8486 57.391 48.1305 56.8167 48.4316 56.2432C48.5841 55.9646 48.7434 55.683 48.9001 55.4256C49.0267 55.2066 49.188 55.0014 49.3826 54.8218C49.8502 54.4034 50.3551 54.0294 50.8866 53.7129C51.425 53.3671 51.9787 53.0582 52.5481 52.7933C53.1204 52.5067 53.6963 52.2604 54.2772 52.0447C54.8719 51.823 55.4705 51.6464 56.0658 51.513C56.6609 51.3773 57.2532 51.2921 57.8376 51.2529C57.4309 51.1379 57.0062 51.0628 56.5664 51.0343C56.1268 51.0083 55.6718 51.0242 55.2089 51.0862C55.5985 50.6507 56.0214 50.2409 56.4637 49.8605C56.9083 49.4799 57.3724 49.131 57.8515 48.8167C58.4625 48.3714 59.0851 47.9489 59.7149 47.5545C60.3466 47.1551 60.988 46.7836 61.6385 46.4351L62.6273 45.9376C62.8451 45.8325 63.0435 45.7244 63.2234 45.6226L63.2475 45.609C63.384 45.5321 63.5108 45.4607 63.6364 45.4001C63.8881 45.2729 64.1466 45.1954 64.3964 45.1831C64.7101 45.1628 65.0179 45.1574 65.3202 45.1715C65.96 45.192 66.5861 45.2472 67.2005 45.332C67.8129 45.4218 68.4116 45.5463 68.9913 45.6987C69.5814 45.8621 70.161 46.0408 70.7237 46.2448C71.2883 46.444 71.8432 46.6678 72.3872 46.9046L74.0246 47.6479L74.8396 48.033C75.1454 48.1739 75.4127 48.2637 75.7132 48.3647L75.7368 48.3726C76.0539 48.4739 76.2988 48.5696 76.5385 48.6872C76.6478 48.735 76.7487 48.7955 76.8388 48.8688C76.9241 48.9426 77.0029 49.0241 77.0754 49.1158C77.3771 49.5601 77.618 50.0456 77.7914 50.5801C77.8289 50.668 77.8639 50.7614 77.8992 50.8558C77.9176 50.9048 77.936 50.9541 77.955 51.003C78.1141 51.4288 78.2786 51.8613 78.5207 52.2798C78.6996 52.6034 78.9147 52.9048 79.1582 53.175C78.8199 53.2954 78.4823 53.3704 78.1443 53.4119C77.8451 53.407 77.5187 53.0628 77.2001 52.5889C76.8883 52.1119 76.58 51.5104 76.3201 50.9979L76.2969 50.9526C76.0481 50.4675 75.843 50.0677 75.7094 49.945C75.4699 49.6099 75.1347 49.3572 74.7294 49.2039C74.3291 49.0526 73.8641 49.0096 73.3779 49.0784C73.8232 49.2522 74.2023 49.5153 74.4998 49.8573C74.7972 50.1968 75.0173 50.6101 75.1399 51.0821C75.2121 51.3888 75.3526 51.8472 75.5436 52.3921C75.7368 52.9343 75.9778 53.5584 76.2623 54.1883C76.5444 54.8183 76.8703 55.4565 77.2214 56.028C77.5724 56.5994 77.9507 57.0992 78.3432 57.4615C78.7592 57.9006 79.2476 58.2665 79.8068 58.5402L79.8337 58.5532C80.0042 58.6359 80.173 58.7177 80.3487 58.7795L80.6304 58.8863L80.7685 58.9626C81.0324 59.1379 81.3217 59.3587 81.5911 59.5693C81.5911 59.5693 82.0003 59.9039 82.4093 60.2361L83.2342 60.8975L83.6529 61.2313L84.0766 61.5407L84.1552 61.6198C83.8786 61.7349 83.5963 61.7858 83.3313 61.7612C82.558 61.7452 81.7605 61.8341 80.9495 62.0413C79.1708 62.5506 78.748 63.4263 79.0762 63.8181C79.2995 64.0495 79.7496 64.2228 80.2325 64.3622C80.6542 64.4803 81.098 64.5661 81.4446 64.6331C81.4987 64.6435 81.5505 64.6535 81.5994 64.6631L81.6024 64.6636C81.8047 64.6981 81.9612 64.7248 82.0371 64.7491C82.331 64.8309 82.5636 65.0041 82.7103 65.2613C82.7424 65.9013 82.1463 66.7348 81.4799 67.5028L81.039 67.5438C80.3004 67.6228 79.5451 67.8394 78.8107 68.1856C78.4915 68.3356 78.193 68.5031 77.9052 68.6646L77.8562 68.6921C77.4878 68.9059 77.1462 69.0983 76.8242 69.2149C76.1952 69.3989 75.5787 69.4815 74.9818 69.4597C74.9299 69.4642 74.8774 69.4676 74.8245 69.4711C74.771 69.4746 74.7173 69.478 74.6636 69.4827C74.4444 69.49 74.2161 69.5028 73.9504 69.5523C73.5871 69.6056 73.2147 69.7457 72.8672 69.9529C73.5306 69.9427 74.1507 70.039 74.7207 70.2448C75.3877 70.3848 76.1383 70.3334 76.8915 70.0931C77.262 69.975 77.6064 69.8284 77.9301 69.6905L77.9338 69.6889C78.2999 69.5302 78.6385 69.3859 78.9675 69.295C79.3966 69.1738 79.823 69.0768 80.2446 69.0064C82.0536 68.6522 80.8801 70.234 79.4577 70.9104C78.8352 71.1417 78.2135 71.3562 77.5905 71.5278C77.1548 71.6544 76.7169 71.7572 76.2815 71.8335C75.8487 71.912 75.4183 71.964 74.9907 71.9918C74.5219 71.8775 74.0448 71.7783 73.5617 71.6915C73.0833 71.6043 72.592 71.5326 72.0993 71.473C71.6044 71.4159 71.1059 71.3711 70.6015 71.3412C70.0945 71.3091 69.5865 71.2938 69.0725 71.2909C68.5782 71.3222 68.0927 71.3169 67.6159 71.275C67.1484 71.2299 66.692 71.1479 66.254 71.0309C65.7618 70.8948 65.245 70.8062 64.7178 70.7615C64.1833 70.7151 63.6341 70.7201 63.0812 70.7637L62.9199 70.7778C62.3747 70.8279 61.8427 70.8649 61.3139 70.8849C60.7856 70.9096 60.2649 70.9121 59.7503 70.9022C59.2126 70.9014 58.6862 70.8663 58.1784 70.7984C57.6636 70.7311 57.1648 70.629 56.6844 70.4918C56.2284 70.3596 55.8181 70.1494 55.4706 69.8644C55.3898 69.7878 55.3157 69.7059 55.2479 69.6138C55.208 69.5672 55.1734 69.5272 55.1393 69.4919C55.1224 69.472 55.1058 69.4541 55.0896 69.4368C55.0624 69.4076 55.0367 69.3801 55.0144 69.3475C54.8925 69.1838 54.8063 68.9906 54.7706 68.7739C54.6926 68.2645 54.6953 67.7219 54.7776 67.1603C54.8117 66.7582 54.883 66.3434 54.9585 65.9234C54.9696 65.8578 54.9814 65.7915 54.9933 65.7245C55.0117 65.6206 55.0305 65.5152 55.0473 65.409L54.9307 65.6869C54.9074 65.733 54.8914 65.7786 54.8749 65.8258C54.8726 65.8322 54.8704 65.8387 54.8681 65.8453C54.7064 66.237 54.5561 66.6229 54.4188 67.0196C54.2634 67.4562 54.0936 67.8916 53.9144 68.3278C53.7347 68.7593 53.5431 69.1919 53.3419 69.6229C53.143 70.0537 52.9316 70.4784 52.7086 70.9065C52.4901 71.3319 52.2572 71.7561 52.0144 72.1764C51.625 72.8604 51.2729 73.5053 50.9699 74.1125C50.6625 74.7225 50.4021 75.2972 50.1867 75.8394C49.9713 76.3815 49.8034 76.8933 49.6806 77.3747C49.5555 77.8564 49.4783 78.3124 49.4462 78.7382C49.4168 79.1661 49.4307 79.5711 49.4953 79.955C49.5574 80.3366 49.6676 80.695 49.829 81.0369C49.9879 81.3791 50.1931 81.7028 50.4496 82.0125C50.7082 82.3197 51.0113 82.6157 51.3683 82.8999C51.8051 83.2488 52.319 83.5241 52.8661 83.7677C53.4154 84.0112 54.0044 84.2153 54.5958 84.4193L54.6541 84.44C55.2933 84.667 55.9356 84.8951 56.5327 85.1722C57.1526 85.4573 57.7269 85.7941 58.2051 86.235C58.683 86.6711 59.0747 87.2151 59.3219 87.9103C59.4431 88.2582 59.5319 88.6447 59.5793 89.0778C59.624 89.5064 59.6276 89.984 59.5831 90.5136C60.1226 89.7973 60.5825 89.045 60.9567 88.2691C61.1573 87.831 61.3353 87.3805 61.4825 86.9328C61.599 86.9799 61.7095 87.0419 61.8112 87.1119L62.4625 87.6188L62.9655 86.6764C63.3742 85.8855 63.6027 85.0555 63.6207 84.2773C63.6367 83.559 63.5686 82.8624 63.4115 82.2143C63.2644 81.5987 63.099 80.9919 62.9112 80.4013C62.7255 79.8083 62.5193 79.2265 62.2904 78.6587C62.1015 78.1113 61.9586 77.5431 61.8686 76.9512C61.7716 76.3623 61.73 75.7495 61.7394 75.1202C61.7103 74.6233 61.7905 74.093 61.9831 73.5624C62.1665 73.0373 62.4584 72.522 62.8328 72.0495L62.8662 72.049C63.3431 72.0096 63.8142 72.0138 64.269 72.0505C64.729 72.0915 65.1663 72.1727 65.5948 72.2906C66.0781 72.4347 66.5927 72.5259 67.1216 72.5632C67.5233 72.5926 67.9291 72.5881 68.3132 72.5808C68.3914 72.5825 68.4685 72.5817 68.5453 72.581C68.5978 72.5805 68.6502 72.5799 68.7026 72.5802C69.1979 72.5871 69.6961 72.6008 70.1839 72.6322C70.6741 72.6634 71.1606 72.7069 71.6391 72.7678C72.1195 72.8237 72.5917 72.8947 73.0606 72.9827C73.529 73.066 73.9938 73.1615 74.4484 73.2771L74.524 73.2681L74.5904 73.2623C75.0804 73.2361 75.5793 73.1757 76.076 73.0893C76.575 73.0026 77.0808 72.8843 77.5817 72.7377C78.0763 72.6012 78.5672 72.4484 79.0611 72.2761C79.5528 72.1065 80.0427 71.9155 80.5291 71.7128L80.6399 71.6673L80.7408 71.5915C81.154 71.2615 81.5427 70.8977 81.9003 70.5056C82.2535 70.1186 82.5778 69.7008 82.8618 69.2601C83.1416 68.8247 83.3866 68.3755 83.5806 67.9164C83.7747 67.4574 83.9228 66.9928 84.0233 66.53C84.0668 66.2896 84.1018 66.0619 84.12 65.8333L84.1465 65.2623L84.2422 65.1536C84.4252 64.9512 84.6024 64.7373 84.7626 64.5202C85.0641 64.0876 85.3202 63.6279 85.5185 63.1637C85.6154 62.933 85.7046 62.6958 85.7718 62.4534C85.8627 62.1539 85.8842 61.8533 85.8433 61.5773C85.7314 61.0901 85.4692 60.6877 85.0779 60.4208ZM68.0804 57.4657C68.241 57.4708 68.4093 57.456 68.581 57.4243C69.1497 57.3148 69.6938 57.088 70.1053 56.7939C70.5169 56.4998 70.7957 56.1361 70.8339 55.7528C70.8321 55.514 70.8959 55.2599 71.0275 55.0166C71.1471 54.772 71.333 54.5478 71.5489 54.3665C71.5876 54.344 71.6181 54.3102 71.6393 54.2797L71.6421 54.2731C71.657 54.2383 71.6711 54.2055 71.6681 54.172C71.6717 54.1311 71.6597 54.1035 71.6359 54.0769C71.6127 54.0574 71.585 54.0407 71.5513 54.0389C70.9558 53.9237 70.3581 53.8374 69.7416 53.7838C69.1298 53.7274 68.5016 53.7035 67.8667 53.7113C67.442 53.746 66.4783 53.902 65.903 55.5749C65.8993 55.5842 65.9019 55.5929 65.905 55.6035L65.9057 55.6057C65.902 55.618 65.9076 55.6271 65.9179 55.6357C65.919 55.6367 65.9201 55.6376 65.9211 55.6385C65.9273 55.644 65.9327 55.6488 65.9428 55.6479C65.9529 55.6542 65.9672 55.6529 65.981 55.6469L66.0262 55.6454C66.2894 55.3212 66.6282 55.0694 66.9972 54.9176C67.2202 54.8981 67.2756 55.1489 66.9284 55.9607C66.5862 56.7744 66.97 57.5007 68.0804 57.4657ZM91.8867 48.7209C92.6566 48.6989 93.4291 48.6791 93.4291 48.6791C93.4747 48.6823 93.5102 48.7055 93.5349 48.7415C93.557 48.7754 93.5635 48.8227 93.5534 48.8713C93.5429 48.9153 93.5141 48.968 93.4792 49.0069C93.4375 49.0487 93.3923 49.079 93.3432 49.0905C93.3432 49.0905 92.5527 49.205 91.7624 49.3219C90.9721 49.4389 90.1817 49.5534 90.1817 49.5534C89.9555 49.59 89.7238 49.701 89.533 49.8683C89.3449 50.04 89.201 50.2533 89.135 50.4814C89.135 50.4814 88.9166 51.2078 88.6986 51.9389C88.4803 52.6677 88.2645 53.3963 88.2645 53.3963C88.2428 53.4484 88.2086 53.4944 88.1662 53.5292C88.1189 53.562 88.0686 53.5879 88.021 53.5897C87.9714 53.5964 87.9294 53.581 87.8959 53.5528C87.8671 53.5243 87.8517 53.485 87.8523 53.4372C87.8523 53.4372 87.9349 52.7154 88.0156 51.9987C88.0958 51.2772 88.1791 50.5626 88.1791 50.5626C88.2005 50.3433 88.1424 50.1429 88.0174 49.9985C87.8905 49.859 87.6975 49.7827 87.4852 49.787C87.4852 49.787 86.7103 49.807 85.9428 49.8287C85.1752 49.8505 84.4075 49.8698 84.4075 49.8698C84.3616 49.8643 84.324 49.8437 84.2971 49.8102C84.2725 49.7741 84.2659 49.7269 84.276 49.6782C84.2859 49.6272 84.3128 49.5794 84.3547 49.5399C84.3943 49.5006 84.4418 49.4702 84.491 49.4587L86.0692 49.225C86.8571 49.1083 87.6476 48.9938 87.6476 48.9938C87.8694 48.9624 88.1013 48.8537 88.2943 48.6839C88.485 48.5143 88.6286 48.2986 88.6919 48.066C88.6919 48.066 88.9127 47.3394 89.1309 46.6106C89.351 45.8769 89.5671 45.1507 89.5671 45.1507C89.5841 45.099 89.623 45.0526 89.6675 45.0152C89.7077 44.983 89.761 44.964 89.8108 44.9597C89.8583 44.9555 89.9022 44.966 89.9335 44.9967C89.9619 45.0205 89.9825 45.0641 89.9795 45.1122C89.9795 45.1122 89.8969 45.8339 89.8162 46.5507C89.7357 47.2698 89.6551 47.9866 89.6551 47.9866C89.6291 48.2087 89.6849 48.4093 89.8118 48.5487C89.9415 48.6927 90.1322 48.7692 90.3514 48.762C90.3514 48.762 91.1189 48.7402 91.8867 48.7209Z"
      fill="#002825" />
  </g>
  <path d="M140 50.0539C140 43.4265 145.373 38.0539 152 38.0539H357.079V91H152C145.373 91 140 85.6274 140 79V50.0539Z"
    fill="#002825" />
  <path
    d="M199.164 64.1599C200.646 63.4186 201.363 62.1832 201.363 60.6019C201.363 57.884 199.312 56.0556 195.878 56.0556H189.503V73.3513H196.347C199.683 73.3513 202.079 71.3993 202.079 68.5085C202.079 66.5318 200.968 64.7776 199.164 64.1599ZM192.048 58.3287H195.828C197.632 58.3287 198.793 59.1688 198.793 60.7254C198.793 62.2326 197.706 63.2456 196.1 63.2456H192.048V58.3287ZM196.248 71.0781H192.048V65.4447H196.446C198.225 65.4447 199.51 66.6801 199.51 68.3602C199.51 70.0651 198.176 71.0781 196.248 71.0781Z"
    fill="#21C580" />
  <path
    d="M211.173 60.7007C207.368 60.7007 204.774 63.3939 204.774 67.1495C204.774 70.9052 207.368 73.5984 211.173 73.5984C214.929 73.5984 217.523 70.9052 217.523 67.1495C217.523 63.3939 214.904 60.7007 211.173 60.7007ZM211.148 71.4488C208.678 71.4488 207.269 69.5957 207.269 67.1495C207.269 64.7034 208.678 62.8503 211.148 62.8503C213.619 62.8503 215.028 64.7034 215.028 67.1495C215.028 69.5957 213.619 71.4488 211.148 71.4488Z"
    fill="#21C580" />
  <path
    d="M227.251 60.7007C225.62 60.7007 224.138 61.5408 223.273 62.9244V60.9478H220.827V73.3513H223.273V66.9519C223.273 64.9011 224.335 62.8503 226.633 62.8503C228.462 62.8503 229.351 64.2093 229.351 65.8894V73.3513H231.797V65.3211C231.797 62.7762 229.821 60.7007 227.251 60.7007Z"
    fill="#21C580" />
  <path
    d="M240.083 73.5984C241.713 73.5984 243.196 72.7583 244.061 71.3746V73.3513H246.507V60.9478H244.061V67.3472C244.061 69.398 242.998 71.4488 240.7 71.4488C238.921 71.4488 238.007 70.0898 238.007 68.4097V60.9478H235.586V68.9779C235.586 71.5476 237.513 73.5984 240.083 73.5984Z"
    fill="#21C580" />
  <path
    d="M252.273 64.2587C252.273 63.1962 253.434 62.6774 254.472 62.6774C255.658 62.6774 256.621 63.3445 256.868 64.4563L259.216 64.061C258.771 61.8867 256.646 60.6513 254.472 60.6513C252.124 60.6513 249.925 62.1338 249.925 64.4811C249.925 66.8283 252.174 67.6437 254.768 68.212C255.954 68.4838 257.19 68.805 257.19 69.9416C257.19 71.1523 255.781 71.5723 254.719 71.5723C253.335 71.5723 252.347 70.8805 252.075 69.5462L249.703 69.9416C250.049 72.4124 252.322 73.5984 254.768 73.5984C257.264 73.5984 259.586 72.3383 259.586 69.8427C259.586 67.2731 257.116 66.5071 254.892 66.0377C253.607 65.7659 252.273 65.3953 252.273 64.2587Z"
    fill="#21C580" />
  <path
    d="M274.481 60.676C271.887 60.676 269.663 62.1585 269.218 64.5799L271.565 64.9752C271.763 63.641 272.974 62.7515 274.357 62.7515C275.815 62.7515 277.149 63.5421 277.149 65.2223V65.6176C274.481 65.6176 268.971 65.7659 268.971 69.7933C268.971 72.0418 270.725 73.5984 273.048 73.5984C275 73.5984 276.211 72.8571 277.149 71.4488V73.3513H279.596V65.3706C279.596 62.3809 277.421 60.676 274.481 60.676ZM277.149 68.0143C277.149 69.8921 275.692 71.5723 273.715 71.5723C272.455 71.5723 271.392 70.9299 271.392 69.7686C271.392 67.2484 276.482 67.446 277.149 67.4213V68.0143Z"
    fill="#21C580" />
  <path
    d="M295.464 55.5614H293.018V62.8503C292.104 61.5161 290.498 60.7007 288.67 60.7007C285.235 60.7007 282.888 63.4927 282.888 67.1248C282.888 70.7322 285.21 73.5984 288.645 73.5984C290.449 73.5984 292.129 72.8077 293.018 71.4241V73.3513H295.464V55.5614ZM293.043 67.1495C293.043 69.5462 291.635 71.4488 289.164 71.4488C286.841 71.4488 285.334 69.7439 285.334 67.1495C285.334 64.5552 286.841 62.8503 289.164 62.8503C291.635 62.8503 293.043 64.7528 293.043 67.1495Z"
    fill="#21C580" />
  <path
    d="M311.455 55.5614H309.009V62.8503C308.095 61.5161 306.489 60.7007 304.66 60.7007C301.226 60.7007 298.879 63.4927 298.879 67.1248C298.879 70.7322 301.201 73.5984 304.636 73.5984C306.439 73.5984 308.12 72.8077 309.009 71.4241V73.3513H311.455V55.5614ZM309.034 67.1495C309.034 69.5462 307.625 71.4488 305.155 71.4488C302.832 71.4488 301.325 69.7439 301.325 67.1495C301.325 64.5552 302.832 62.8503 305.155 62.8503C307.625 62.8503 309.034 64.7528 309.034 67.1495Z"
    fill="#21C580" />
  <path
    d="M327.001 67.3472C327.001 63.5916 324.753 60.676 320.997 60.676C317.266 60.676 314.845 63.4927 314.845 67.1742C314.845 70.8805 317.34 73.5984 321.071 73.5984C323.641 73.5984 325.642 72.363 326.73 69.9169L324.407 69.4968C323.74 70.8558 322.579 71.4982 321.071 71.4982C318.922 71.4982 317.34 70.0651 317.217 67.8908H326.977C327.001 67.7178 327.001 67.5202 327.001 67.3472ZM317.316 65.9883C317.587 64.0116 318.996 62.7021 320.997 62.7021C322.875 62.7021 324.382 64.0116 324.555 65.9883H317.316Z"
    fill="#21C580" />
  <path
    d="M342.327 55.5614H339.881V62.8503C338.967 61.5161 337.361 60.7007 335.532 60.7007C332.098 60.7007 329.75 63.4927 329.75 67.1248C329.75 70.7322 332.073 73.5984 335.507 73.5984C337.311 73.5984 338.991 72.8077 339.881 71.4241V73.3513H342.327V55.5614ZM339.906 67.1495C339.906 69.5462 338.497 71.4488 336.026 71.4488C333.704 71.4488 332.197 69.7439 332.197 67.1495C332.197 64.5552 333.704 62.8503 336.026 62.8503C338.497 62.8503 339.906 64.7528 339.906 67.1495Z"
    fill="#21C580" />
  <path fill-rule="evenodd" clip-rule="evenodd"
    d="M164.707 73.6454C169.542 73.6454 173.498 69.8826 173.806 65.1258L176.318 62.6139C176.42 63.2365 176.473 63.8755 176.473 64.5269C176.473 71.025 171.205 76.2927 164.707 76.2927C158.209 76.2927 152.941 71.025 152.941 64.5269C152.941 58.0288 158.209 52.7611 164.707 52.7611C167.884 52.7611 170.766 54.0198 172.883 56.0657L171.011 57.9379C169.373 56.371 167.153 55.4084 164.707 55.4084C159.671 55.4084 155.589 59.4909 155.589 64.5269C155.589 69.5629 159.671 73.6454 164.707 73.6454ZM168.728 67.085L177.409 58.4034L175.538 56.5314L166.856 65.213C165.994 66.0746 164.598 66.0746 163.736 65.213L160.937 62.4143L159.065 64.2863L161.864 67.085C163.76 68.9803 166.833 68.9803 168.728 67.085Z"
    fill="#21C580" />
  <defs>
    <filter id="filter0_d_1300_32263" x="8" y="0" width="341" height="159" filterUnits="userSpaceOnUse"
      color-interpolation-filters="sRGB">
      <feFlood flood-opacity="0" result="BackgroundImageFix" />
      <feColorMatrix in="SourceAlpha" type="matrix" values="0 0 0 0 0 0 0 0 0 0 0 0 0 0 0 0 0 0 127 0"
        result="hardAlpha" />
      <feOffset dy="6" />
      <feGaussianBlur stdDeviation="11" />
      <feColorMatrix type="matrix" values="0 0 0 0 0.713726 0 0 0 0 0.47451 0 0 0 0 0.168627 0 0 0 0.5 0" />
      <feBlend mode="normal" in2="BackgroundImageFix" result="effect1_dropShadow_1300_32263" />
      <feBlend mode="normal" in="SourceGraphic" in2="effect1_dropShadow_1300_32263" result="shape" />
    </filter>
    <filter id="filter1_d_1300_32263" x="12.8525" y="16.5137" width="136.583" height="134.651"
      filterUnits="userSpaceOnUse" color-interpolation-filters="sRGB">
      <feFlood flood-opacity="0" result="BackgroundImageFix" />
      <feColorMatrix in="SourceAlpha" type="matrix" values="0 0 0 0 0 0 0 0 0 0 0 0 0 0 0 0 0 0 127 0"
        result="hardAlpha" />
      <feOffset dx="13" dy="18" />
      <feGaussianBlur stdDeviation="15" />
      <feComposite in2="hardAlpha" operator="out" />
      <feColorMatrix type="matrix" values="0 0 0 0 0 0 0 0 0 0 0 0 0 0 0 0 0 0 0.25 0" />
      <feBlend mode="normal" in2="BackgroundImageFix" result="effect1_dropShadow_1300_32263" />
      <feBlend mode="normal" in="SourceGraphic" in2="effect1_dropShadow_1300_32263" result="shape" />
    </filter>
    <linearGradient id="paint0_linear_1300_32263" x1="107.624" y1="36.8113" x2="45.5707" y2="103.342"
      gradientUnits="userSpaceOnUse">
      <stop stop-color="#603B0C" />
      <stop offset="0.53125" stop-color="#C68635" />
      <stop offset="1" stop-color="#181006" />
    </linearGradient>
    <linearGradient id="paint1_linear_1300_32263" x1="59.2868" y1="93.3271" x2="73.4098" y2="25.1854"
      gradientUnits="userSpaceOnUse">
      <stop stop-color="#D08E39" />
      <stop offset="1" stop-color="#EBC28E" />
    </linearGradient>
  </defs>
</svg>