<svg width="333" height="142" viewBox="0 0 333 142" fill="none" xmlns="http://www.w3.org/2000/svg">
  <g filter="url(#filter0_d_1300_32263)">
    <path
      d="M22.7832 28.1972C22.7832 21.4609 27.1823 16 32.6088 16H301.174C306.601 16 311 21.4609 311 28.1972V101.38C311 108.116 306.601 113.577 301.174 113.577H32.6088C27.1823 113.577 22.7832 108.116 22.7832 101.38V28.1972Z"
      fill="#013834" />
  </g>
  <path
    d="M60 51.7857C60 45.2767 65.2766 40 71.7857 40H95.3571C101.866 40 107.143 45.2767 107.143 51.7857V75.3572C107.143 81.8662 101.866 87.1429 95.3571 87.1429H71.7857C65.2766 87.1429 60 81.8662 60 75.3572V51.7857Z"
    fill="#FBEDDA" />
  <path
    d="M83.3959 69.8489L84.9585 68.2863L81.3485 64.6763H95.357L95.357 62.4665L81.3958 62.4665L84.9821 58.8801L83.4196 57.3176L79.2255 61.5116C78.0749 62.6623 78.0749 64.5278 79.2255 65.6785L83.3959 69.8489Z"
    fill="#013834" />
  <path
    d="M76.2052 53.9956H89.4641C89.871 53.9956 90.2008 54.3253 90.2008 54.7322V57.6786H92.4106V54.7322C92.4106 53.1049 91.0914 51.7857 89.4641 51.7857H76.2052C74.578 51.7857 73.2588 53.1049 73.2588 54.7322V72.4107C73.2588 74.038 74.578 75.3572 76.2052 75.3572H89.4641C91.0914 75.3572 92.4106 74.038 92.4106 72.4107V69.4643H90.2008V72.4107C90.2008 72.8176 89.871 73.1473 89.4641 73.1473H76.2052C75.7984 73.1473 75.4686 72.8176 75.4686 72.4107V54.7322C75.4686 54.3253 75.7984 53.9956 76.2052 53.9956Z"
    fill="#013834" />
  <path
    d="M123.143 51.7857C123.143 45.2766 128.42 40 134.929 40H158.5C165.009 40 170.286 45.2766 170.286 51.7857V75.3571C170.286 81.8662 165.009 87.1429 158.5 87.1429H134.929C128.42 87.1429 123.143 81.8662 123.143 75.3571V51.7857Z"
    fill="#FBEDDA" />
  <path
    d="M151.871 76.9192V78.9047H160.736V69.9498H159.015V76.9192H151.871ZM151.871 47.3661V49.3517H159.015V56.3215H160.736V47.3661H151.871ZM145.532 56.3215H143.811V69.9493H151.574V68.1583H145.532V56.3215ZM133.456 69.9498V78.9052H142.321V76.9192H135.177V69.9498H133.456ZM133.456 47.3661V56.3215H135.177V49.3517H142.321V47.3661H133.456Z"
    fill="#013834" />
  <path fill-rule="evenodd" clip-rule="evenodd"
    d="M151.576 76.6246H158.72V69.6551H161.031V79.1993H151.576V76.6246ZM159.015 69.9498H160.736V78.9047H151.87V76.9192H159.015V69.9498ZM151.576 47.0714H161.031V56.6161H158.72V49.6463H151.576V47.0714ZM159.015 56.3215V49.3517H151.87V47.3661H160.736V56.3215H159.015ZM145.827 56.0269V67.8636H151.868V70.2439H143.516V56.0269H145.827ZM151.573 68.1583V69.9493H143.811V56.3215H145.532V68.1583H151.573ZM133.161 69.6551H135.471V76.6246H142.615V79.1998H133.161V69.6551ZM142.321 76.9192V78.9052H133.455V69.9498H135.176V76.9192H142.321ZM133.161 47.0714H142.615V49.6463H135.471V56.6161H133.161V47.0714ZM135.176 56.3215H133.455V47.3661H142.321V49.3517H135.176V56.3215Z"
    fill="#013834" />
  <path
    d="M186.286 51.7857C186.286 45.2766 191.562 40 198.071 40H221.643C228.152 40 233.429 45.2766 233.429 51.7857V75.3571C233.429 81.8662 228.152 87.1429 221.643 87.1429H198.071C191.562 87.1429 186.286 81.8662 186.286 75.3571V51.7857Z"
    fill="#FBEDDA" />
  <path fill-rule="evenodd" clip-rule="evenodd"
    d="M212.983 61.0355C213.812 61.8647 214.277 62.9893 214.276 64.1618C214.275 66.6025 212.297 68.5807 209.856 68.5802C207.416 68.5798 205.437 66.6009 205.438 64.1602C205.438 61.7194 207.416 59.7409 209.857 59.7409C211.03 59.7406 212.154 60.2063 212.983 61.0355ZM209.858 61.9508C210.444 61.9506 211.006 62.1834 211.42 62.5979C211.835 63.0123 212.067 63.5745 212.067 64.1606C212.067 65.3809 211.077 66.3706 209.857 66.3704C208.636 66.3702 207.647 65.3808 207.647 64.1604C207.647 62.94 208.637 61.9508 209.858 61.9508Z"
    fill="#013834" />
  <path fill-rule="evenodd" clip-rule="evenodd"
    d="M195.685 62.7008C199.117 58.9228 204.576 55.2338 209.855 55.3229C215.134 55.2338 220.593 58.9228 224.03 62.7008C224.776 63.5292 224.776 64.7874 224.03 65.6159C220.669 69.314 215.224 73.0881 209.855 72.9977C204.486 73.0881 199.042 69.314 195.685 65.6159C194.938 64.7874 194.938 63.5292 195.685 62.7008ZM209.818 70.7882C205.405 70.8625 200.541 67.6658 197.346 64.1583C200.606 60.5824 205.486 57.4593 209.818 57.5324C209.843 57.5328 209.868 57.5328 209.892 57.5324C214.224 57.4593 219.104 60.5818 222.368 64.1584C219.17 67.666 214.305 70.8625 209.892 70.7882C209.868 70.7878 209.843 70.7878 209.818 70.7882Z"
    fill="#013834" />
  <path
    d="M263.429 61.5714L263.429 51.5714H259.429L259.429 61.5714L249.429 61.5714V65.5714L259.429 65.5714L259.429 75.5714L263.429 75.5714L263.429 65.5714L273.429 65.5714V61.5714L263.429 61.5714Z"
    fill="#21C580" />
  <defs>
    <filter id="filter0_d_1300_32263" x="0.783203" y="0" width="332.217" height="141.577" filterUnits="userSpaceOnUse"
      color-interpolation-filters="sRGB">
      <feFlood flood-opacity="0" result="BackgroundImageFix" />
      <feColorMatrix in="SourceAlpha" type="matrix" values="0 0 0 0 0 0 0 0 0 0 0 0 0 0 0 0 0 0 127 0"
        result="hardAlpha" />
      <feOffset dy="6" />
      <feGaussianBlur stdDeviation="11" />
      <feColorMatrix type="matrix" values="0 0 0 0 0.713726 0 0 0 0 0.47451 0 0 0 0 0.168627 0 0 0 0.5 0" />
      <feBlend mode="normal" in2="BackgroundImageFix" result="effect1_dropShadow_1300_32263" />
      <feBlend mode="normal" in="SourceGraphic" in2="effect1_dropShadow_1300_32263" result="shape" />
    </filter>
  </defs>
</svg>