<svg width="381" height="174" viewBox="0 0 381 174" fill="none" xmlns="http://www.w3.org/2000/svg">
  <g filter="url(#filter0_d_1884_54578)">
    <path
      d="M22 41.6C22 32.6392 22 28.1587 23.7439 24.7362C25.2779 21.7256 27.7256 19.2779 30.7362 17.7439C34.1587 16 38.6392 16 47.6 16H324.4C333.361 16 337.841 16 341.264 17.7439C344.274 19.2779 346.722 21.7256 348.256 24.7362C350 28.1587 350 32.6392 350 41.6V95.4C350 104.361 350 108.841 348.256 112.264C346.722 115.274 344.274 117.722 341.264 119.256C337.841 121 333.361 121 324.4 121H47.6C38.6392 121 34.1587 121 30.7362 119.256C27.7256 117.722 25.2779 115.274 23.7439 112.264C22 108.841 22 104.361 22 95.4V41.6Z"
      fill="#013834" />
    <rect x="38" y="57" width="208" height="38" rx="19" fill="#00211E" />
    <circle cx="43.2108" cy="38.0043" r="5.21085" fill="#00211E" />
    <circle cx="60.9892" cy="38.0043" r="5.21085" fill="#00211E" />
    <circle cx="78.767" cy="38.0043" r="5.21085" fill="#00211E" />
  </g>
  <g filter="url(#filter1_d_1884_54578)">
    <path
      d="M263.786 66.6571C263.786 50.9472 263.786 43.0923 268.666 38.2119C273.547 33.3314 281.401 33.3314 297.111 33.3314H299.888C315.598 33.3314 323.453 33.3314 328.334 38.2119C333.214 43.0923 333.214 50.9472 333.214 66.6571V69.4343C333.214 85.1442 333.214 92.9991 328.334 97.8795C323.453 102.76 315.598 102.76 299.888 102.76H297.111C281.401 102.76 273.547 102.76 268.666 97.8795C263.786 92.9991 263.786 85.1442 263.786 69.4343V66.6571Z"
      fill="#FBEDDA" />
    <path fill-rule="evenodd" clip-rule="evenodd"
      d="M324.053 65.5848C324.633 66.0561 325.025 66.7201 325.158 67.456C325.183 67.6702 325.186 67.8865 325.166 68.1013C325.109 68.2706 325.109 68.4077 325.109 68.561C325.062 68.8583 324.995 69.152 324.908 69.4401C324.73 70.0412 324.458 70.6102 324.101 71.1258C324.034 71.2229 323.949 71.3338 323.891 71.4102C323.871 71.4353 323.855 71.4566 323.843 71.4726C323.845 71.4843 323.85 71.5013 323.856 71.5231C323.875 71.5909 323.907 71.7051 323.907 71.8516C324.002 72.4408 324.029 73.0388 323.988 73.6341C323.908 74.7845 323.636 75.9132 323.182 76.9732C322.729 78.0816 322.018 79.0659 321.109 79.8445L321.004 79.9332L320.859 79.9897C319.734 80.4072 318.58 80.7414 317.407 80.9898C316.199 81.2716 314.96 81.3936 313.721 81.3527H313.624H313.511C310.949 80.5279 308.304 79.987 305.623 79.7396C304.894 79.6896 304.169 79.5872 303.454 79.4332C302.729 79.2417 302.017 79.0019 301.324 78.7153C300.243 78.3281 299.139 78.0103 298.018 77.7636C297.49 78.5002 297.247 79.4024 297.332 80.3042C297.412 81.2969 298.306 83.005 298.947 84.2284C299.082 84.4861 299.206 84.7222 299.308 84.9257C300.029 86.5246 300.291 88.2924 300.064 90.0316C299.838 91.7708 299.132 93.4127 298.026 94.7736C296.28 91.1236 293.007 89.3912 290.076 87.84C285.857 85.6069 282.346 83.749 285.121 77.0861C285.906 75.1375 286.391 72.9956 286.789 71.2413C287.127 69.7499 287.401 68.5386 287.742 67.9642V68.0125C287.515 69.3472 287.515 70.7106 287.742 72.0453C287.848 72.6708 288.085 73.267 288.436 73.7954C288.801 74.2769 289.292 74.6481 289.855 74.8681C291.072 75.35 292.356 75.6384 293.662 75.7231C294.332 75.8199 295.001 75.8199 295.678 75.8199H295.679C296.037 75.8171 296.395 75.8332 296.751 75.8683C297.106 75.9005 297.469 75.9408 297.824 75.9973C299.231 76.2245 300.617 76.5643 301.97 77.0135C303.184 77.4955 304.471 77.7682 305.776 77.8201C308.551 78.0374 311.29 78.5788 313.939 79.4332C314.998 79.4697 316.059 79.3885 317.1 79.1912C317.362 79.1411 317.62 79.0833 317.876 79.0258C317.991 79 318.106 78.9742 318.221 78.9492C320.036 78.4169 322.109 75.6021 319.738 75.8683C319.079 75.8992 318.424 75.98 317.778 76.1102C317.193 76.2296 316.733 76.3393 316.345 76.4318C315.162 76.7141 314.646 76.8371 313.261 76.5941C312.283 76.2553 311.267 76.0386 310.237 75.9489C311.1 75.3931 312.126 75.1432 313.148 75.2391C313.904 75.3346 314.67 75.3019 315.415 75.1423C315.791 75.0349 316.174 74.8282 316.588 74.6048C316.921 74.4256 317.273 74.2357 317.657 74.0777C318.751 73.7326 319.898 73.5825 321.044 73.6341C321.33 73.3329 321.542 72.9686 321.661 72.5707C321.78 72.1728 321.803 71.7523 321.73 71.3435C321.498 70.991 321.145 70.7357 320.738 70.6257C320.577 70.5902 320.373 70.5506 320.14 70.5053C318.943 70.2731 316.98 69.8922 316.197 69.1497C315.657 68.6336 315.366 67.0608 317.27 66.6253C318.276 66.4482 319.302 66.4129 320.318 66.5204C320.754 66.5688 321.94 66.6817 322.214 66.4559C322.029 65.8156 319.939 64.6715 317.858 63.5325C316.034 62.5337 314.217 61.5389 313.697 60.8908C311.381 58.5309 309.436 55.8332 307.93 52.8899C307.441 51.6591 306.517 50.6514 305.333 50.0589C306.74 49.9559 308.135 50.3752 309.253 51.2365C309.414 51.3702 309.619 51.7367 309.883 52.2064C310.62 53.5217 311.81 55.6457 313.753 55.7289C313.958 55.7486 314.164 55.7123 314.35 55.624C313.388 54.7168 312.739 53.6223 312.13 52.5972C311.208 51.0433 310.381 49.649 308.704 49.3088C308.679 49.2989 308.654 49.2891 308.629 49.2793C308.246 49.1294 307.888 48.989 307.486 48.7846L306.349 48.22L304.091 47.1231C302.6 46.4028 301.065 45.7805 299.494 45.26C297.939 44.7495 296.336 44.4008 294.711 44.2195C294.356 44.1792 293.88 44.1308 293.549 44.1308C293.238 44.1319 292.931 44.2065 292.654 44.3486C292.461 44.4292 292.242 44.5421 292.021 44.6555C291.844 44.7465 291.666 44.8378 291.501 44.9132C291.429 44.9458 291.357 44.9785 291.285 45.0112C290.984 45.1481 290.681 45.2861 290.388 45.4293C288.914 46.1424 287.524 47.016 286.242 48.0345C285.28 48.7131 284.436 49.544 283.742 50.4944C284.954 50.4065 286.172 50.5628 287.323 50.9542C285.574 51.0378 283.861 51.4764 282.287 52.2431C280.713 53.0099 279.312 54.0889 278.169 55.4143C276.096 57.6323 274.483 68.9481 276.83 71.9404C277.975 71.404 279.525 68.7829 281.285 65.8044C283.998 61.2143 287.213 55.7753 290.226 55.8095C288.412 57.4307 287.008 61.786 285.605 66.6656C284.476 70.6257 280.645 79.659 278.225 79.8767C277.281 79.9332 276.935 79.4815 276.297 78.5621L275.765 77.8362C274.835 76.5429 274.126 75.1037 273.668 73.5777C273.245 72.0836 272.991 70.547 272.91 68.9965C272.828 67.4717 272.863 65.9429 273.015 64.4234C273.178 62.9176 273.431 61.4228 273.773 59.9471C274.113 58.47 274.552 57.0177 275.088 55.5999C275.233 55.2369 275.378 54.882 275.563 54.5191C275.658 54.3158 275.765 54.1191 275.886 53.9303C276.025 53.7408 276.178 53.5628 276.346 53.398C276.934 52.8385 277.6 52.3659 278.322 51.9946C279.378 51.4435 280.504 51.0366 281.669 50.7848C282.037 49.9591 282.542 49.2011 283.161 48.5426C283.774 47.9008 284.44 47.3125 285.153 46.7843C286.52 45.7005 288.003 44.77 289.573 44.0098C289.944 43.8163 290.428 43.5985 290.751 43.4614C290.921 43.389 291.1 43.2964 291.298 43.1942C291.475 43.1028 291.667 43.0038 291.88 42.9049C292.361 42.6758 292.887 42.5547 293.42 42.55C293.876 42.5512 294.332 42.5836 294.783 42.6468C296.519 42.8363 298.23 43.2066 299.889 43.7518C301.522 44.2963 303.119 44.9428 304.671 45.6874L306.962 46.8005L308.099 47.365C308.377 47.5152 308.732 47.6514 309.118 47.7996C309.146 47.8106 309.175 47.8217 309.204 47.8329C309.624 47.9942 310.011 48.1635 310.43 48.3732C310.657 48.4895 310.875 48.6215 311.084 48.7684C311.282 48.929 311.47 49.1013 311.648 49.2846C312.266 49.9565 312.807 50.695 313.261 51.4865C313.311 51.5741 313.361 51.6614 313.411 51.7483C314.207 53.1422 314.946 54.4374 316.1 55.1966L316.907 55.7289C316.893 55.7739 316.874 55.8172 316.85 55.8579L316.681 56.1725L315.874 56.5838C315.715 56.6611 315.59 56.7968 315.528 56.9629C315.497 57.0373 315.481 57.1166 315.479 57.1968V57.713C315.483 57.9855 315.448 58.2572 315.374 58.5195C315.341 58.6251 315.303 58.7185 315.269 58.8009C315.22 58.9199 315.181 59.0159 315.181 59.0922C315.158 59.1739 315.158 59.2605 315.181 59.3422C315.408 60.3648 318.382 62.0832 320.839 63.5024C322.393 64.4004 323.74 65.1785 324.053 65.5848ZM304.155 58.4953C304.244 59.6164 302.881 60.4955 301.268 60.681C299.195 60.8827 298.146 59.7454 298.38 58.3098C298.614 56.8741 297.606 56.8741 296.928 57.6807C296.913 57.7001 296.893 57.7141 296.869 57.7205C296.845 57.727 296.82 57.7256 296.797 57.7164C296.774 57.7073 296.755 57.691 296.743 57.67C296.73 57.649 296.724 57.6244 296.727 57.6C297.066 55.2046 298.469 55.0997 299.098 55.0997C300.99 55.2341 302.865 55.5529 304.695 56.0515C304.746 56.0639 304.793 56.0902 304.83 56.1275C304.866 56.1647 304.892 56.2116 304.904 56.2626C304.916 56.3137 304.913 56.367 304.896 56.4166C304.879 56.4662 304.849 56.5101 304.808 56.5435C304.536 56.7812 304.331 57.0874 304.216 57.4306C304.102 57.7737 304.08 58.1413 304.155 58.4953Z"
      fill="#002825" />
  </g>
  <g filter="url(#filter2_ddd_1884_54578)">
    <circle cx="338.5" cy="115.5" r="26.5" fill="url(#paint0_linear_1884_54578)" />
    <path
      d="M324.872 123.263V125.326C324.872 126.421 325.306 127.47 326.08 128.244C326.854 129.018 327.904 129.453 328.998 129.453H347.569C348.664 129.453 349.713 129.018 350.487 128.244C351.261 127.47 351.696 126.421 351.696 125.326V123.263"
      stroke="#002825" stroke-width="3" stroke-linecap="round" stroke-linejoin="round" />
    <path d="M332.094 113.977L338.284 121.199L344.474 113.977" stroke="#002825" stroke-width="3" stroke-linecap="round"
      stroke-linejoin="round" />
    <path d="M338.284 121.199V102.629" stroke="#002825" stroke-width="3" stroke-linecap="round"
      stroke-linejoin="round" />
  </g>
  <defs>
    <filter id="filter0_d_1884_54578" x="0" y="0" width="372" height="149" filterUnits="userSpaceOnUse"
      color-interpolation-filters="sRGB">
      <feFlood flood-opacity="0" result="BackgroundImageFix" />
      <feColorMatrix in="SourceAlpha" type="matrix" values="0 0 0 0 0 0 0 0 0 0 0 0 0 0 0 0 0 0 127 0"
        result="hardAlpha" />
      <feOffset dy="6" />
      <feGaussianBlur stdDeviation="11" />
      <feColorMatrix type="matrix" values="0 0 0 0 0.713726 0 0 0 0 0.47451 0 0 0 0 0.168627 0 0 0 0.5 0" />
      <feBlend mode="normal" in2="BackgroundImageFix" result="effect1_dropShadow_1884_54578" />
      <feBlend mode="normal" in="SourceGraphic" in2="effect1_dropShadow_1884_54578" result="shape" />
    </filter>
    <filter id="filter1_d_1884_54578" x="236" y="9" width="125" height="125" filterUnits="userSpaceOnUse"
      color-interpolation-filters="sRGB">
      <feFlood flood-opacity="0" result="BackgroundImageFix" />
      <feColorMatrix in="SourceAlpha" type="matrix" values="0 0 0 0 0 0 0 0 0 0 0 0 0 0 0 0 0 0 127 0"
        result="hardAlpha" />
      <feOffset dy="6" />
      <feGaussianBlur stdDeviation="11" />
      <feColorMatrix type="matrix" values="0 0 0 0 0.713726 0 0 0 0 0.47451 0 0 0 0 0.168627 0 0 0 0.5 0" />
      <feBlend mode="normal" in2="BackgroundImageFix" result="effect1_dropShadow_1884_54578" />
      <feBlend mode="normal" in="SourceGraphic" in2="effect1_dropShadow_1884_54578" result="shape" />
    </filter>
    <filter id="filter2_ddd_1884_54578" x="296" y="87" width="85" height="87" filterUnits="userSpaceOnUse"
      color-interpolation-filters="sRGB">
      <feFlood flood-opacity="0" result="BackgroundImageFix" />
      <feColorMatrix in="SourceAlpha" type="matrix" values="0 0 0 0 0 0 0 0 0 0 0 0 0 0 0 0 0 0 127 0"
        result="hardAlpha" />
      <feOffset dy="2" />
      <feGaussianBlur stdDeviation="2" />
      <feColorMatrix type="matrix" values="0 0 0 0 0 0 0 0 0 0.0784314 0 0 0 0 0.0745098 0 0 0 0.34 0" />
      <feBlend mode="normal" in2="BackgroundImageFix" result="effect1_dropShadow_1884_54578" />
      <feColorMatrix in="SourceAlpha" type="matrix" values="0 0 0 0 0 0 0 0 0 0 0 0 0 0 0 0 0 0 127 0"
        result="hardAlpha" />
      <feOffset dy="6" />
      <feGaussianBlur stdDeviation="4" />
      <feColorMatrix type="matrix" values="0 0 0 0 0 0 0 0 0 0.0784314 0 0 0 0 0.0745098 0 0 0 0.24 0" />
      <feBlend mode="normal" in2="effect1_dropShadow_1884_54578" result="effect2_dropShadow_1884_54578" />
      <feColorMatrix in="SourceAlpha" type="matrix" values="0 0 0 0 0 0 0 0 0 0 0 0 0 0 0 0 0 0 127 0"
        result="hardAlpha" />
      <feOffset dy="16" />
      <feGaussianBlur stdDeviation="8" />
      <feColorMatrix type="matrix" values="0 0 0 0 0 0 0 0 0 0.0784314 0 0 0 0 0.0745098 0 0 0 0.14 0" />
      <feBlend mode="normal" in2="effect2_dropShadow_1884_54578" result="effect3_dropShadow_1884_54578" />
      <feBlend mode="normal" in="SourceGraphic" in2="effect3_dropShadow_1884_54578" result="shape" />
    </filter>
    <linearGradient id="paint0_linear_1884_54578" x1="338.5" y1="89" x2="338.5" y2="142" gradientUnits="userSpaceOnUse">
      <stop stop-color="#40EEA5" />
      <stop offset="1" stop-color="#189862" />
    </linearGradient>
  </defs>
</svg>