<svg width="277" height="60" viewBox="0 0 277 60" fill="none" xmlns="http://www.w3.org/2000/svg">
  <path fill-rule="evenodd" clip-rule="evenodd"
    d="M64.6153 42.0442V9.87714C64.6153 6.86922 63.8097 5.79666 60.2679 6.13035V4.5954L68.1571 2.92223C69.6968 2.58855 70.6312 3.32265 70.6312 4.92909V41.9012C70.6312 44.2417 72.0374 44.6422 73.968 44.2417V45.1951C73.1671 46.3964 71.1603 47.1352 69.2869 47.1352C66.6365 47.1448 64.6153 45.6575 64.6153 42.0442ZM15.1206 41.5771C15.1206 44.0511 13.7191 44.6469 8.29918 45.1236V46.7253H28.8445V45.1236C23.4246 44.6517 21.9564 44.0511 21.9564 41.5771V11.6171C21.9564 8.40417 22.4902 7.60333 27.3048 7.60333C31.9954 7.60333 33.5352 9.00957 35.4086 14.2246H37.1437L36.0092 5.72994C35.9969 5.62834 35.9644 5.53022 35.9137 5.44136C35.8629 5.3525 35.7949 5.2747 35.7136 5.21251C35.6323 5.15033 35.5394 5.10502 35.4404 5.07927C35.3413 5.05353 35.2381 5.04785 35.1368 5.06257C34.1263 5.12931 32.4626 5.19605 30.7894 5.19605H6.31139C4.62867 5.19605 2.97456 5.12931 2.02118 5.06257C1.46822 5.06257 1.13453 5.25325 1.0678 5.72994L0 14.2246H1.73516C3.61809 9.00957 5.1578 7.60333 9.83889 7.60333C14.6439 7.60333 15.1206 8.40417 15.1206 11.6171V41.5771ZM50.4338 29.0019C35.9233 30.7419 31.7761 34.5554 31.7761 39.7704C31.7761 44.9901 36.0568 47.1352 40.471 47.1352C44.8851 47.1352 48.8988 45.1093 51.2394 42.2492C51.7066 41.6485 52.2404 41.6485 52.2404 42.3159C52.3739 45.4621 54.1806 47.1352 56.9215 47.1352C58.7949 47.1352 60.7351 46.3964 61.5359 45.1951V44.2417C59.5958 44.6422 58.261 44.2417 58.261 41.9012V27.2716C58.261 19.3061 55.1149 15.9692 47.2257 15.9692C40.7379 15.9692 33.783 18.0381 33.783 23.1196C33.783 25.0597 34.7841 26.3944 36.7909 26.3944C38.6643 26.3944 40.0705 25.1932 40.0705 22.7192C40.0705 19.7065 41.6055 17.8998 45.419 17.8998C50.1668 17.8998 52.2404 20.8267 52.2404 25.5936V27.0666C52.2404 28.4681 51.6398 28.8685 50.4338 29.0019ZM52.2404 33.0824V35.8282C52.2404 40.3758 48.4269 43.7174 43.8745 43.7174C39.9323 43.7174 38.1256 41.2433 38.1256 38.5024C38.1256 35.423 40.204 31.9479 49.5662 30.9421C51.7638 30.6751 52.2404 31.5475 52.2404 33.0824ZM77.9913 9.87714V42.0442C77.9913 45.6575 79.9838 47.1448 82.6628 47.1352C84.5362 47.1352 86.5383 46.3964 87.3439 45.1951V44.2417C85.4133 44.6422 84.0071 44.2417 84.0071 41.9012V4.92909C84.0071 3.32265 83.0728 2.58855 81.5331 2.92223L73.6439 4.5954V6.13035C77.1857 5.79666 77.9913 6.86922 77.9913 9.87714ZM89.6273 55.6203C89.6171 55.1643 89.7005 54.711 89.8725 54.2884C90.0444 53.8659 90.3011 53.4831 90.6267 53.1637C90.9524 52.8442 91.3401 52.595 91.7659 52.4313C92.1917 52.2676 92.6466 52.193 93.1023 52.212C95.3775 52.212 95.7001 53.8016 95.9913 55.2367C96.2309 56.4175 96.4493 57.4937 97.7167 57.4937C99.2564 57.4937 100.577 55.2866 101.53 52.9461C102.87 49.471 102.064 46.6586 101.13 44.4515L93.0261 24.1874C91.3529 20.1069 90.552 19.1726 87.6776 18.1048V16.5651H101.587V18.1048C97.9741 19.1726 97.7072 20.0402 99.4471 24.1874L105.201 38.4356C106.068 40.5093 106.802 40.5092 107.675 38.3689L110.482 31.0755C114.83 20.1117 113.624 19.1583 109.682 18.1048V16.5651H121.785V18.1048C117.905 19.1726 116.837 20.1736 115.297 24.1874L104.295 51.5446C102.221 56.7596 100.348 59.9677 95.4 59.9677C91.8343 59.9677 89.6273 58.1659 89.6273 55.6203ZM165.936 41.5771V10.3443C165.936 7.87027 167.342 7.20291 170.078 6.80249V5.19605H154.9V6.80249C157.641 7.20291 159.114 7.87027 159.114 10.3443V22.8336C159.114 24.4353 158.18 25.1074 156.574 25.1074H140.991C139.384 25.1074 138.517 24.4353 138.517 22.8336V10.3443C138.517 7.87027 139.918 7.20291 142.664 6.80249V5.19605H127.481V6.80249C130.198 7.20291 131.628 7.87027 131.628 10.3443V41.5771C131.628 44.0511 130.222 44.6469 127.481 45.1236V46.7253H142.65V45.1236C139.904 44.6517 138.502 44.0511 138.502 41.5771V29.4072C138.502 27.8007 139.37 27.1333 140.91 27.1333H156.64C158.161 27.1333 159.114 27.8007 159.114 29.4072V41.5771C159.114 44.0511 157.641 44.6469 154.9 45.1236V46.7253H170.083V45.1236C167.366 44.6517 165.936 44.0511 165.936 41.5771ZM172.071 31.6142C172.071 21.7801 179.426 15.9645 187.654 15.9645C195.882 15.9645 203.17 21.7134 203.17 31.4807C203.17 41.2481 195.82 47.1448 187.587 47.1448C179.355 47.1448 172.071 41.3768 172.071 31.6142ZM196.682 34.0215C196.682 25.3934 192.392 17.9713 186.114 17.9713C181.7 17.9713 178.554 21.5131 178.554 29.0687C178.554 37.6968 182.844 45.0569 189.122 45.0569C193.469 45.0569 196.682 41.577 196.682 34.0215ZM210.726 4.12349C208.185 4.12349 206.579 6.06362 206.579 9.14304C206.579 11.9699 207.124 14.9412 207.75 18.3588C208.546 22.6983 209.474 27.7576 209.586 34.155H211.794C211.916 27.7685 212.862 22.7156 213.674 18.381C214.315 14.954 214.873 11.976 214.873 9.14304C214.873 6.06362 213.267 4.12349 210.726 4.12349ZM208.003 40.48C207.276 41.1939 206.861 42.1652 206.845 43.1835C206.832 43.9536 207.049 44.7103 207.467 45.3571C207.885 46.0039 208.486 46.5117 209.194 46.8156C209.902 47.1195 210.684 47.206 211.441 47.0639C212.198 46.9218 212.896 46.5576 213.445 46.0177C213.994 45.4778 214.371 44.7866 214.526 44.0321C214.681 43.2776 214.608 42.4941 214.317 41.7811C214.025 41.0682 213.528 40.4582 212.888 40.0288C212.249 39.5994 211.496 39.3701 210.726 39.37C209.707 39.3673 208.729 39.7662 208.003 40.48Z"
    fill="#002522" />
  <path
    d="M275.536 25.0837C275.536 38.5104 264.652 49.3949 251.225 49.3949C237.799 49.3949 226.914 38.5104 226.914 25.0837C226.914 11.657 237.799 0.772461 251.225 0.772461C264.652 0.772461 275.536 11.657 275.536 25.0837Z"
    fill="#FAF8F1" />
  <path fill-rule="evenodd" clip-rule="evenodd"
    d="M276.18 25.0836C276.18 38.8659 265.008 50.0386 251.225 50.0386C237.443 50.0386 226.271 38.8659 226.271 25.0836C226.271 11.3014 237.443 0.128662 251.225 0.128662C265.008 0.128662 276.18 11.3014 276.18 25.0836ZM251.225 49.3948C264.652 49.3948 275.537 38.5103 275.537 25.0836C275.537 11.6569 264.652 0.772439 251.225 0.772439C237.799 0.772439 226.914 11.6569 226.914 25.0836C226.914 38.5103 237.799 49.3948 251.225 49.3948Z"
    fill="#002522" />
  <path
    d="M267.629 15.6255L265.514 15.5019C265.364 15.4921 265.221 15.429 265.113 15.3238C265.004 15.2187 264.937 15.0783 264.923 14.928L264.737 12.9724C264.731 12.9397 264.714 12.9102 264.689 12.8889C264.663 12.8676 264.631 12.856 264.598 12.856C264.565 12.856 264.533 12.8676 264.508 12.8889C264.482 12.9102 264.465 12.9397 264.459 12.9724L264.269 14.928C264.257 15.079 264.19 15.2203 264.081 15.3258C263.972 15.4313 263.829 15.4939 263.678 15.5019L261.563 15.6343C261.531 15.6402 261.501 15.6573 261.48 15.6827C261.458 15.7081 261.447 15.7403 261.447 15.7734C261.447 15.8066 261.458 15.8386 261.48 15.8641C261.501 15.8895 261.531 15.9066 261.563 15.9124L263.678 16.0361C263.828 16.0467 263.97 16.1102 264.078 16.2151C264.186 16.3201 264.254 16.4599 264.269 16.61L264.455 18.5656C264.461 18.5982 264.478 18.6278 264.503 18.6491C264.529 18.6703 264.561 18.682 264.594 18.682C264.627 18.682 264.659 18.6703 264.684 18.6491C264.71 18.6278 264.727 18.5982 264.733 18.5656L264.918 16.61C264.933 16.4596 265 16.3193 265.108 16.2142C265.217 16.109 265.359 16.0459 265.51 16.0361L267.629 15.9036C267.661 15.8978 267.691 15.8807 267.712 15.8552C267.734 15.8298 267.745 15.7977 267.745 15.7646C267.745 15.7314 267.734 15.6993 267.712 15.6739C267.691 15.6485 267.661 15.6313 267.629 15.6255Z"
    fill="#D08E39" />
  <path fill-rule="evenodd" clip-rule="evenodd"
    d="M263.183 22.9538L263.532 23.201C263.84 23.4089 264.081 23.7018 264.225 24.0442C264.295 24.2362 264.322 24.441 264.305 24.6445C264.289 24.8033 264.264 24.9611 264.229 25.1169C264.158 25.4243 264.047 25.7211 263.898 25.9998C263.82 26.1424 263.73 26.2782 263.629 26.406L263.581 26.4722L263.642 26.8651C263.662 27.0218 263.672 27.1795 263.673 27.3374C263.669 27.9633 263.528 28.5808 263.261 29.1466C262.993 29.7124 262.605 30.2129 262.124 30.613L262.066 30.6616L261.996 30.6837C261.379 30.905 260.745 31.0792 260.102 31.2046C259.445 31.3429 258.773 31.4007 258.102 31.3768H258.058H258.005C256.678 30.9555 255.311 30.6744 253.926 30.538C253.838 30.5302 253.748 30.5232 253.658 30.5161C253.391 30.4953 253.115 30.4738 252.831 30.4276C252.456 30.369 252.088 30.2744 251.732 30.1451C251.113 29.9301 250.463 29.8168 249.807 29.8096H249.785C249.594 30.1074 249.467 30.4416 249.411 30.7912C249.356 31.1407 249.373 31.4979 249.463 31.8403C249.632 32.6982 249.929 33.5257 250.346 34.2948C250.823 35.1037 251.251 35.9411 251.626 36.8023C251.828 37.2586 251.976 37.7372 252.067 38.2282C252.163 38.7636 252.123 39.3144 251.953 39.8307L251.736 40.4443L251.211 40.0558C251.132 39.9993 251.048 39.9506 250.959 39.9101C250.919 40.2078 250.86 40.5027 250.783 40.793C250.635 41.2992 250.423 41.7843 250.151 42.2366C249.792 39.3704 247.787 38.5492 245.828 37.7466C244.951 37.3872 244.082 37.0315 243.375 36.4977C241.088 34.7716 240.903 32.7541 242.316 29.2225C242.747 28.1363 243.061 27.0071 243.251 25.8541C243.291 25.5937 243.34 25.3376 243.397 25.0816C243.402 25.0458 243.409 25.0104 243.419 24.9756L243.459 24.7946C243.464 24.9108 243.467 25.0266 243.471 25.142C243.479 25.4213 243.486 25.6984 243.521 25.9733C243.542 26.3483 243.616 26.7184 243.741 27.0725C243.798 27.2229 243.884 27.3608 243.993 27.4787C244.024 27.5152 244.059 27.5471 244.099 27.5844C244.127 27.6102 244.157 27.6386 244.192 27.6729C244.25 27.7396 244.314 27.8016 244.382 27.8584C244.662 28.0734 244.975 28.2432 245.309 28.3616C246.013 28.6077 246.746 28.7649 247.489 28.8295C248.205 28.9134 248.933 28.9443 249.666 28.9443H249.776C250.536 28.9499 251.291 29.078 252.01 29.324C252.652 29.5411 253.323 29.6601 254.001 29.6772C255.426 29.8144 256.833 30.1 258.199 30.5292C258.782 30.5446 259.364 30.4927 259.934 30.3746C260.34 30.2952 260.742 30.1848 261.139 30.0656C262.027 29.6904 262.614 28.675 261.413 28.8075C261.129 28.8271 260.848 28.8669 260.57 28.9267C260.353 28.9663 260.138 29.0454 259.909 29.1301C259.704 29.2057 259.487 29.2857 259.245 29.3461C258.756 29.4611 258.245 29.4489 257.762 29.3107C257.34 29.1363 256.893 29.0304 256.438 28.9973C256.65 28.8758 256.887 28.8048 257.131 28.7898C257.306 28.772 257.463 28.7782 257.615 28.7841C257.688 28.787 257.761 28.7898 257.833 28.7898C258.246 28.8421 258.666 28.8242 259.073 28.7368C259.279 28.6781 259.489 28.5649 259.716 28.4426C259.898 28.3445 260.09 28.2406 260.301 28.1541C260.761 27.9604 261.254 27.857 261.753 27.8495H262.053C262.402 27.3639 262.698 26.8253 262.583 26.3839C262.447 26.2017 262.259 26.0648 262.044 25.991C261.987 25.971 261.876 25.9421 261.732 25.9046C261.206 25.7677 260.241 25.5164 259.863 25.1699C259.581 24.8829 259.749 24.3046 260.905 24.0662C261.437 23.9737 261.98 23.9574 262.517 24.0177C262.7 24.0497 262.889 24.0329 263.064 23.9691L262.998 23.9117L262.662 23.6733L262.322 23.4173L260.998 22.4064C260.782 22.243 260.552 22.0753 260.34 21.9384L260.234 21.8766L260.027 21.7883C259.89 21.7309 259.753 21.6647 259.616 21.5941C259.194 21.369 258.802 21.09 258.451 20.7641C257.157 19.6781 255.709 17.0559 255.33 16.1995C255.027 15.5409 254.493 15.0163 253.829 14.725C254.155 14.7068 254.48 14.7634 254.781 14.8904C255.082 15.0174 255.349 15.2115 255.564 15.4578C255.675 15.5499 255.882 15.8504 256.133 16.2134C256.639 16.9459 257.321 17.9328 257.74 17.9741C257.965 17.9657 258.189 17.9316 258.407 17.8726C258.198 17.6719 258.008 17.4533 257.837 17.2192C257.61 16.92 257.435 16.6111 257.265 16.3123C257.207 16.21 257.15 16.1088 257.091 16.0096C256.896 15.6375 256.661 15.2882 256.389 14.9678C256.327 14.902 256.26 14.84 256.191 14.7824C256.117 14.7279 256.039 14.6806 255.957 14.6411C255.776 14.5484 255.59 14.4689 255.361 14.3807C255.131 14.2924 254.928 14.2129 254.69 14.0937L254.072 13.7847L252.835 13.1843C252.02 12.7927 251.181 12.4521 250.324 12.1645C249.474 11.8852 248.599 11.6943 247.71 11.5951C247.499 11.567 247.287 11.5508 247.074 11.5465C246.904 11.5419 246.734 11.5782 246.58 11.6525C246.499 11.688 246.415 11.7325 246.325 11.7802C246.214 11.8391 246.094 11.903 245.958 11.9615L245.344 12.244C244.546 12.6457 243.784 13.1154 243.066 13.6478C242.488 14.0253 241.978 14.4968 241.556 15.0428C242.181 15.0141 242.806 15.104 243.397 15.3077C242.601 15.2952 241.809 15.4085 241.049 15.6432C240.676 15.7535 240.312 15.8892 239.958 16.0494C239.604 16.1976 239.263 16.3747 238.938 16.5791C238.618 16.7641 238.321 16.988 238.055 17.2457C237.947 17.3549 237.863 17.4857 237.808 17.6298C237.733 17.7931 237.663 17.9741 237.596 18.1551C237.341 18.898 237.138 19.6577 236.987 20.4286C236.668 21.9637 236.549 23.5337 236.634 25.0992C236.697 26.3634 237.026 27.6 237.601 28.728C238.144 28.0173 238.674 27.2889 239.186 26.5516C239.839 25.5937 240.461 24.6048 241.018 23.6071C241.308 23.0861 241.565 22.5411 241.824 21.9901C242.062 21.4861 242.302 20.9771 242.572 20.4772C242.846 19.9424 243.166 19.4327 243.53 18.9542C243.717 18.707 243.935 18.4845 244.178 18.292C244.418 18.0923 244.715 17.9734 245.026 17.9521C244.037 18.8394 243.265 21.2232 242.501 23.8941C241.879 26.0616 239.782 31.0059 238.457 31.1251C237.941 31.156 237.755 30.9088 237.402 30.4056L237.115 30.0082C236.607 29.2998 236.219 28.5123 235.967 27.6774C235.737 26.8593 235.596 26.0185 235.548 25.1699C235.507 24.3352 235.527 23.4987 235.605 22.6668C235.696 21.8425 235.836 21.0244 236.025 20.2167C236.209 19.4064 236.45 18.6099 236.744 17.8328C236.824 17.6386 236.903 17.4444 237 17.2457C237.054 17.1344 237.114 17.0268 237.181 16.9234C237.256 16.8198 237.339 16.7224 237.429 16.6321C237.751 16.3258 238.115 16.0672 238.51 15.864C239.167 15.524 239.871 15.2844 240.598 15.1532C240.803 14.6984 241.083 14.2819 241.428 13.9215C241.765 13.5714 242.131 13.2509 242.523 12.9636C243.251 12.3789 244.04 11.8742 244.876 11.4582C245.079 11.3567 245.344 11.2375 245.521 11.1624C245.607 11.1257 245.698 11.0784 245.797 11.0268C245.9 10.9729 246.012 10.9142 246.139 10.8578C246.404 10.7336 246.693 10.6703 246.986 10.6724C247.233 10.6754 247.479 10.6931 247.723 10.7254C248.672 10.8323 249.607 11.0364 250.513 11.3346C251.406 11.6319 252.279 11.9858 253.127 12.3941L254.381 13.0033L255.003 13.3123C255.141 13.3869 255.317 13.4552 255.504 13.5278C255.538 13.5412 255.573 13.5547 255.608 13.5684C255.833 13.6567 256.045 13.7494 256.274 13.8642C256.399 13.9267 256.519 13.9991 256.632 14.0805C256.742 14.1686 256.845 14.2645 256.941 14.3674C257.28 14.7326 257.576 15.1355 257.824 15.5682C257.834 15.5854 257.844 15.6026 257.854 15.6198C258.31 16.4125 258.734 17.1491 259.391 17.5812L259.916 17.93V17.9874L259.771 18.2478L259.285 18.3714C259.193 18.3999 259.115 18.4632 259.069 18.548C259.046 18.5902 259.032 18.6369 259.029 18.6849C259.024 18.7804 259.024 18.8762 259.029 18.9718C259.03 19.1215 259.007 19.2704 258.963 19.4133C258.94 19.4926 258.914 19.56 258.892 19.6173C258.876 19.6589 258.862 19.6951 258.853 19.7267C258.839 19.7574 258.833 19.7904 258.833 19.8238C258.833 19.8572 258.839 19.8902 258.853 19.9209C259.197 20.2784 259.598 20.5767 260.04 20.8039C260.15 20.8657 260.265 20.9186 260.384 20.9716L260.565 21.0423C260.656 21.0834 260.743 21.1321 260.826 21.1879C261.061 21.3369 261.255 21.4825 261.456 21.6338C261.481 21.6528 261.507 21.672 261.532 21.6912L262.857 22.7065L263.183 22.9538ZM251.692 20.1549C251.579 20.1658 251.465 20.1658 251.352 20.1549C250.593 20.1108 250.222 19.5899 250.346 19.0557C250.469 18.5215 250.394 18.3449 250.244 18.3449C250.011 18.4263 249.812 18.5813 249.675 18.7864H249.644C249.636 18.7878 249.628 18.7873 249.62 18.785C249.612 18.7827 249.605 18.7786 249.599 18.773C249.593 18.7675 249.588 18.7606 249.585 18.753C249.582 18.7453 249.581 18.7371 249.582 18.729C249.741 17.6209 250.39 17.5724 250.677 17.5724C251.553 17.6375 252.42 17.7853 253.268 18.0138C253.293 18.0178 253.316 18.0291 253.334 18.0462C253.352 18.0633 253.364 18.0855 253.369 18.1098C253.375 18.1342 253.372 18.1595 253.363 18.1825C253.354 18.2056 253.337 18.2253 253.317 18.239C253.191 18.3497 253.097 18.4918 253.044 18.6508C252.991 18.8099 252.982 18.9801 253.017 19.144C253.07 19.6649 252.451 20.071 251.692 20.1549Z"
    fill="#002522" />
</svg>