<svg width="65" height="64" viewBox="0 0 65 64" fill="none" xmlns="http://www.w3.org/2000/svg">
<g id="icons8-community 1">
<path id="Vector" d="M32.3828 2.00195C31.3427 2.03244 30.3555 2.46702 29.6305 3.21346C28.9056 3.95991 28.5001 4.95947 28.5 6C28.5043 6.70431 28.6965 7.39472 29.0566 8H28.5C27.1744 8.00159 25.9036 8.52888 24.9662 9.46622C24.0289 10.4036 23.5016 11.6744 23.5 13V15.9297L22.3086 14.7363C22.1202 14.5533 21.8673 14.4518 21.6046 14.4537C21.3419 14.4556 21.0905 14.5608 20.9048 14.7466C20.719 14.9323 20.6138 15.1837 20.6119 15.4464C20.61 15.7091 20.7115 15.962 20.8945 16.1504L23.5 18.7578V18.7812C21.8434 19.9126 20.4126 21.3434 19.2812 23H19.2578L16.6504 20.3945C16.462 20.2115 16.2091 20.11 15.9464 20.1119C15.6837 20.1138 15.4323 20.219 15.2466 20.4048C15.0608 20.5905 14.9556 20.8419 14.9537 21.1046C14.9518 21.3673 15.0533 21.6202 15.2363 21.8086L16.4297 23H13.5996L13.1133 22.5137C12.5528 21.9492 12.2382 21.1861 12.2382 20.3906C12.2382 19.5952 12.5528 18.832 13.1133 18.2676L15.9238 15.457L15.9395 15.4434L15.9531 15.4277L18.7617 12.6191C19.3262 12.0558 20.0912 11.7397 20.8887 11.7402C21.1538 11.7401 21.408 11.6346 21.5954 11.4471C21.7828 11.2596 21.888 11.0053 21.888 10.7402C21.888 10.4751 21.7828 10.2209 21.5954 10.0334C21.408 9.84583 21.1538 9.7404 20.8887 9.74023C20.2324 9.73902 19.5824 9.86726 18.9758 10.1176C18.3692 10.368 17.8179 10.7355 17.3535 11.1992L16.9668 11.5879C16.7919 10.9073 16.4386 10.2856 15.9434 9.78711C15.1818 9.05914 14.1688 8.65289 13.1152 8.65289C12.0617 8.65289 11.0487 9.05914 10.2871 9.78711C9.78689 10.2813 9.42667 10.8994 9.24314 11.5782C9.05962 12.257 9.05937 12.9724 9.24241 13.6513C9.42545 14.3303 9.78524 14.9486 10.2851 15.4432C10.785 15.9378 11.407 16.291 12.0879 16.4668L11.6973 16.8535C10.8337 17.7262 10.3214 18.8861 10.258 20.1122C10.1946 21.3383 10.5846 22.5449 11.3535 23.502C10.5019 23.906 9.78193 24.5428 9.27697 25.3388C8.77201 26.1347 8.50264 27.0574 8.5 28V28.5566C7.89472 28.1965 7.20431 28.0043 6.5 28C5.43913 28 4.42172 28.4214 3.67157 29.1716C2.92143 29.9217 2.5 30.9391 2.5 32C2.5 33.0609 2.92143 34.0783 3.67157 34.8284C4.42172 35.5786 5.43913 36 6.5 36C7.20431 35.9957 7.89472 35.8035 8.5 35.4434V36C8.50245 36.9432 8.77194 37.8664 9.27728 38.6628C9.78261 39.4591 10.5031 40.0961 11.3555 40.5C10.587 41.4576 10.1978 42.6644 10.2619 43.8905C10.326 45.1166 10.839 46.2762 11.7031 47.1484L12.1133 47.5605C11.4242 47.7195 10.7923 48.0656 10.2871 48.5605C9.84832 48.993 9.51538 49.521 9.31423 50.1034C9.11308 50.6857 9.04917 51.3067 9.12749 51.9178C9.2058 52.5289 9.42422 53.1136 9.76572 53.6264C10.1072 54.1392 10.5625 54.5662 11.0962 54.8741C11.6299 55.182 12.2274 55.3624 12.8423 55.4013C13.4572 55.4403 14.0727 55.3366 14.641 55.0985C15.2092 54.8604 15.7147 54.4942 16.1182 54.0286C16.5216 53.563 16.812 53.0104 16.9668 52.4141L17.3535 52.8047C18.2973 53.7393 19.5722 54.263 20.9004 54.2617C21.0204 54.2617 21.1398 54.2551 21.2598 54.2461C21.5238 54.2271 21.7695 54.1041 21.9431 53.9042C22.1166 53.7043 22.2038 53.4438 22.1855 53.1797C22.1776 53.0481 22.1434 52.9194 22.085 52.8012C22.0265 52.683 21.9451 52.5777 21.8454 52.4914C21.7456 52.4051 21.6297 52.3397 21.5043 52.2989C21.3789 52.2581 21.2466 52.2428 21.1152 52.2539C20.6851 52.2839 20.2535 52.2217 19.8493 52.0715C19.4451 51.9213 19.0776 51.6865 18.7715 51.3828L15.9609 48.5723L15.9473 48.5566L15.9316 48.5449L13.123 45.7344C12.5622 45.1697 12.2474 44.4062 12.2474 43.6104C12.2474 42.8145 12.5622 42.051 13.123 41.4863L13.5996 41H16.4258L15.2324 42.1914C15.1373 42.2838 15.0616 42.3941 15.0095 42.516C14.9574 42.6379 14.9301 42.7689 14.9291 42.9015C14.9282 43.034 14.9536 43.1654 15.0038 43.2881C15.0541 43.4107 15.1283 43.5222 15.222 43.6159C15.3157 43.7096 15.4272 43.7838 15.5498 43.834C15.6725 43.8843 15.8039 43.9097 15.9364 43.9087C16.069 43.9078 16.2 43.8805 16.3219 43.8284C16.4438 43.7763 16.5541 43.7006 16.6465 43.6055L19.2578 41H19.2812C20.4126 42.6566 21.8434 44.0874 23.5 45.2188V45.2422L20.8945 47.8496C20.7994 47.942 20.7237 48.0523 20.6716 48.1742C20.6195 48.2961 20.5922 48.4271 20.5913 48.5597C20.5903 48.6922 20.6157 48.8236 20.666 48.9463C20.7163 49.0689 20.7904 49.1803 20.8841 49.2741C20.9779 49.3678 21.0893 49.442 21.2119 49.4922C21.3346 49.5425 21.466 49.5679 21.5985 49.5669C21.7311 49.566 21.8621 49.5387 21.984 49.4866C22.1059 49.4345 22.2162 49.3588 22.3086 49.2637L23.5 48.0703V51C23.5016 52.3256 24.0289 53.5964 24.9662 54.5338C25.9036 55.4711 27.1744 55.9984 28.5 56H29.0566C28.6965 56.6053 28.5043 57.2957 28.5 58C28.5 59.0609 28.9214 60.0783 29.6716 60.8284C30.4217 61.5786 31.4391 62 32.5 62C33.5609 62 34.5783 61.5786 35.3284 60.8284C36.0786 60.0783 36.5 59.0609 36.5 58C36.4957 57.2957 36.3035 56.6053 35.9434 56H36.5C37.4432 55.9976 38.3664 55.7281 39.1628 55.2227C39.9591 54.7174 40.5961 53.9969 41 53.1445C41.9546 53.92 43.1629 54.3137 44.3911 54.2494C45.6193 54.1852 46.7799 53.6676 47.6484 52.7969L48.0352 52.4102C48.1929 53.0024 48.4849 53.5503 48.8884 54.0116C49.2919 54.4728 49.7962 54.835 50.3622 55.07C50.9282 55.3051 51.5407 55.4067 52.1523 55.367C52.7639 55.3273 53.3581 55.1473 53.8889 54.8411C54.4198 54.5348 54.873 54.1105 55.2136 53.6009C55.5541 53.0914 55.7727 52.5103 55.8526 51.9026C55.9324 51.295 55.8713 50.6772 55.674 50.0969C55.4768 49.5167 55.1485 48.9897 54.7148 48.5566C54.2097 48.0617 53.5778 47.7156 52.8887 47.5566L53.3008 47.1445C54.1646 46.2721 54.6773 45.1123 54.741 43.8862C54.8048 42.6601 54.4152 41.4534 53.6465 40.4961C54.4978 40.0922 55.2176 39.4557 55.7225 38.6601C56.2274 37.8645 56.497 36.9423 56.5 36V35.4434C57.1053 35.8035 57.7957 35.9957 58.5 36C59.5609 36 60.5783 35.5786 61.3284 34.8284C62.0786 34.0783 62.5 33.0609 62.5 32C62.5 30.9391 62.0786 29.9217 61.3284 29.1716C60.5783 28.4214 59.5609 28 58.5 28C57.7957 28.0043 57.1053 28.1965 56.5 28.5566V28C56.4976 27.0568 56.2281 26.1336 55.7227 25.3373C55.2174 24.5409 54.4969 23.9039 53.6445 23.5C54.413 22.5424 54.8022 21.3356 54.7381 20.1095C54.674 18.8834 54.161 17.7238 53.2969 16.8516L52.9102 16.4648C53.5893 16.2866 54.2092 15.9321 54.7073 15.4373C55.2054 14.9425 55.564 14.3249 55.7468 13.647C55.9295 12.9691 55.93 12.2549 55.7481 11.5768C55.5662 10.8987 55.2084 10.2806 54.7109 9.78516C53.9493 9.05719 52.9364 8.65093 51.8828 8.65093C50.8293 8.65093 49.8163 9.05719 49.0547 9.78516C48.5594 10.2837 48.2061 10.9053 48.0312 11.5859L47.6426 11.1953C46.7699 10.3318 45.61 9.81948 44.3839 9.75609C43.1578 9.69269 41.9512 10.0826 40.9941 10.8516C40.5901 10.0009 39.9538 9.28174 39.1586 8.77718C38.3634 8.27263 37.4418 8.0032 36.5 8H35.9434C36.3035 7.39472 36.4957 6.70431 36.5 6C36.5 5.46487 36.3926 4.93518 36.1841 4.44231C35.9757 3.94944 35.6705 3.50339 35.2866 3.13059C34.9027 2.75779 34.4479 2.46582 33.9491 2.27195C33.4503 2.07809 32.9177 1.98628 32.3828 2.00195ZM32.5586 4C33.089 4.00777 33.5946 4.22594 33.9642 4.6065C34.3338 4.98707 34.5371 5.49886 34.5293 6.0293C34.5215 6.55973 34.3034 7.06535 33.9228 7.43493C33.5422 7.80451 33.0304 8.00777 32.5 8C31.9696 8 31.4609 7.78929 31.0858 7.41421C30.7107 7.03914 30.5 6.53043 30.5 6C30.4999 5.73235 30.5535 5.4674 30.6576 5.22085C30.7618 4.9743 30.9144 4.75116 31.1063 4.56466C31.2983 4.37816 31.5258 4.23208 31.7752 4.13509C32.0247 4.0381 32.2911 3.99216 32.5586 4ZM28.5 10H36.5C37.2957 10 38.0587 10.3161 38.6213 10.8787C39.1839 11.4413 39.5 12.2044 39.5 13V17.6348C38.8529 17.3148 38.1847 17.0394 37.5 16.8105V14C37.5 13.7348 37.3946 13.4804 37.2071 13.2929C37.0196 13.1054 36.7652 13 36.5 13C36.2348 13 35.9804 13.1054 35.7929 13.2929C35.6054 13.4804 35.5 13.7348 35.5 14V16.293C33.5189 15.9036 31.4811 15.9036 29.5 16.293V14C29.5 13.7348 29.3946 13.4804 29.2071 13.2929C29.0196 13.1054 28.7652 13 28.5 13C28.2348 13 27.9804 13.1054 27.7929 13.2929C27.6054 13.4804 27.5 13.7348 27.5 14V16.8105C26.8153 17.0394 26.1471 17.3148 25.5 17.6348V13C25.5 12.2044 25.8161 11.4413 26.3787 10.8787C26.9413 10.3161 27.7044 10 28.5 10ZM13.1992 10.6152C13.5856 10.6315 13.9589 10.7595 14.2741 10.9836C14.5892 11.2078 14.8326 11.5184 14.9748 11.8781C15.117 12.2377 15.1519 12.6308 15.0752 13.0098C14.9986 13.3889 14.8137 13.7376 14.543 14.0137L14.5137 14.043C14.1319 14.4012 13.6273 14.5995 13.1037 14.5969C12.5802 14.5944 12.0775 14.3912 11.6992 14.0293C11.4137 13.7445 11.221 13.3801 11.1463 12.9838C11.0716 12.5876 11.1184 12.178 11.2806 11.8088C11.4428 11.4396 11.7128 11.1281 12.0552 10.9151C12.3976 10.7021 12.7964 10.5976 13.1992 10.6152ZM51.9434 10.6172C52.3337 10.6285 52.7121 10.7539 53.032 10.9777C53.3519 11.2016 53.5993 11.5142 53.7437 11.8771C53.888 12.2399 53.923 12.637 53.8443 13.0194C53.7656 13.4019 53.5766 13.7529 53.3008 14.0293C52.9225 14.3912 52.4198 14.5944 51.8963 14.5969C51.3727 14.5995 50.8681 14.4012 50.4863 14.043L50.457 14.0137C50.0896 13.6411 49.8839 13.1386 49.8848 12.6152C49.8849 12.3478 49.9387 12.083 50.043 11.8367C50.1473 11.5904 50.2999 11.3675 50.4918 11.1812C50.6838 10.9949 50.9111 10.849 51.1604 10.7521C51.4098 10.6552 51.676 10.6094 51.9434 10.6172ZM44.1641 11.7402C44.9408 11.7549 45.6819 12.0691 46.2324 12.6172L49.043 15.4258L49.0566 15.4414L49.0723 15.4551L51.8809 18.2637C52.4417 18.8283 52.7565 19.5919 52.7565 20.3877C52.7565 21.1835 52.4417 21.9471 51.8809 22.5117L51.4004 23H48.5703L49.7637 21.8086C49.9467 21.6202 50.0482 21.3673 50.0463 21.1046C50.0444 20.8419 49.9392 20.5905 49.7534 20.4048C49.5677 20.219 49.3163 20.1138 49.0536 20.1119C48.7909 20.11 48.538 20.2115 48.3496 20.3945L45.7422 23H45.7188C44.5874 21.3434 43.1566 19.9126 41.5 18.7812V18.7578L44.1055 16.1504C44.2885 15.962 44.39 15.7091 44.3881 15.4464C44.3862 15.1837 44.281 14.9323 44.0952 14.7466C43.9095 14.5608 43.6581 14.4556 43.3954 14.4537C43.1327 14.4518 42.8798 14.5533 42.6914 14.7363L41.5 15.9297V13.0996L41.9863 12.6133C42.2725 12.3295 42.6126 12.106 42.9867 11.956C43.3608 11.806 43.7611 11.7327 44.1641 11.7402ZM31.8438 17.9395C34.4825 17.8228 37.1007 18.453 39.3973 19.7577C41.694 21.0625 43.5759 22.9887 44.8268 25.3151C46.0777 27.6414 46.6468 30.2735 46.4688 32.9089C46.2907 35.5443 45.3728 38.0759 43.8203 40.2129C43.6718 40.4277 43.6132 40.692 43.657 40.9494C43.7008 41.2068 43.8436 41.4369 44.0548 41.5905C44.266 41.744 44.5288 41.8089 44.7872 41.7712C45.0456 41.7334 45.279 41.5962 45.4375 41.3887C45.5305 41.2617 45.6093 41.129 45.6973 41H45.7422L48.3496 43.6055C48.538 43.7885 48.7909 43.89 49.0536 43.8881C49.3163 43.8862 49.5677 43.781 49.7534 43.5952C49.9392 43.4095 50.0444 43.1581 50.0463 42.8954C50.0482 42.6327 49.9467 42.3798 49.7637 42.1914L48.5703 41H51.4004L51.8867 41.4863C52.4472 42.0508 52.7618 42.8139 52.7618 43.6094C52.7618 44.4048 52.4472 45.168 51.8867 45.7324L49.0762 48.5449L49.0605 48.5566L49.0469 48.5723L46.2344 51.3809C45.6696 51.9415 44.9061 52.2561 44.1104 52.2561C43.3146 52.2561 42.5511 51.9415 41.9863 51.3809L41.5 50.9004V48.0703L42.6914 49.2637C42.8798 49.4467 43.1327 49.5482 43.3954 49.5463C43.6581 49.5444 43.9095 49.4392 44.0952 49.2534C44.281 49.0677 44.3862 48.8163 44.3881 48.5536C44.39 48.2909 44.2885 48.038 44.1055 47.8496L41.5 45.2422V45.2168C41.839 44.9848 42.173 44.7415 42.5 44.4805C42.6092 44.4008 42.7011 44.2998 42.7701 44.1836C42.8392 44.0675 42.884 43.9385 42.9018 43.8045C42.9196 43.6705 42.9101 43.5343 42.8738 43.4042C42.8375 43.274 42.7752 43.1525 42.6906 43.0471C42.606 42.9416 42.501 42.8544 42.3818 42.7907C42.2626 42.727 42.1317 42.6882 41.9971 42.6765C41.8624 42.6648 41.7268 42.6805 41.5984 42.7227C41.47 42.7648 41.3515 42.8326 41.25 42.9219C38.7739 44.9233 35.6838 46.0103 32.5 46C28.8265 46.0113 25.2949 44.5822 22.6632 42.0192C20.0315 39.4563 18.5094 35.9638 18.4235 32.2913C18.3376 28.6187 19.6948 25.0589 22.2038 22.3757C24.7128 19.6925 28.1737 18.0998 31.8438 17.9395ZM13.5 25H18.1348C17.8148 25.6471 17.5394 26.3153 17.3105 27H14.5C14.2348 27 13.9804 27.1054 13.7929 27.2929C13.6054 27.4804 13.5 27.7348 13.5 28C13.5 28.2652 13.6054 28.5196 13.7929 28.7071C13.9804 28.8946 14.2348 29 14.5 29H16.793C16.4036 30.9811 16.4036 33.0189 16.793 35H14.5C14.2348 35 13.9804 35.1054 13.7929 35.2929C13.6054 35.4804 13.5 35.7348 13.5 36C13.5 36.2652 13.6054 36.5196 13.7929 36.7071C13.9804 36.8946 14.2348 37 14.5 37H17.3105C17.5394 37.6847 17.8148 38.3529 18.1348 39H13.5C12.7044 39 11.9413 38.6839 11.3787 38.1213C10.8161 37.5587 10.5 36.7957 10.5 36V28C10.5 27.2044 10.8161 26.4413 11.3787 25.8787C11.9413 25.3161 12.7044 25 13.5 25ZM46.8652 25H51.5C52.2957 25 53.0587 25.3161 53.6213 25.8787C54.1839 26.4413 54.5 27.2044 54.5 28V36C54.5 36.7957 54.1839 37.5587 53.6213 38.1213C53.0587 38.6839 52.2957 39 51.5 39H46.8691C47.1895 38.3531 47.4649 37.6848 47.6934 37H50.5C50.7652 37 51.0196 36.8946 51.2071 36.7071C51.3946 36.5196 51.5 36.2652 51.5 36C51.5 35.7348 51.3946 35.4804 51.2071 35.2929C51.0196 35.1054 50.7652 35 50.5 35H48.1992C48.5905 33.0191 48.5905 30.9809 48.1992 29H50.5C50.7652 29 51.0196 28.8946 51.2071 28.7071C51.3946 28.5196 51.5 28.2652 51.5 28C51.5 27.7348 51.3946 27.4804 51.2071 27.2929C51.0196 27.1054 50.7652 27 50.5 27H47.6895C47.4606 26.3153 47.1852 25.6471 46.8652 25ZM6.41602 30.002C6.68548 29.9906 6.95444 30.0339 7.20674 30.1292C7.45904 30.2245 7.68946 30.3699 7.88413 30.5565C8.07881 30.7432 8.23373 30.9673 8.33956 31.2153C8.4454 31.4634 8.49997 31.7303 8.5 32C8.5 32.5304 8.28929 33.0391 7.91421 33.4142C7.53914 33.7893 7.03043 34 6.5 34C5.97758 33.9989 5.47634 33.7934 5.10347 33.4275C4.73059 33.0616 4.51569 32.5643 4.50472 32.042C4.49375 31.5197 4.68758 31.0138 5.04475 30.6326C5.40193 30.2514 5.89411 30.025 6.41602 30.002ZM58.416 30.002C58.6855 29.9906 58.9544 30.0339 59.2067 30.1292C59.459 30.2245 59.6895 30.3699 59.8841 30.5565C60.0788 30.7432 60.2337 30.9673 60.3396 31.2153C60.4454 31.4634 60.5 31.7303 60.5 32C60.5 32.5304 60.2893 33.0391 59.9142 33.4142C59.5391 33.7893 59.0304 34 58.5 34C57.9776 33.9989 57.4763 33.7934 57.1035 33.4275C56.7306 33.0616 56.5157 32.5643 56.5047 32.042C56.4937 31.5197 56.6876 31.0138 57.0448 30.6326C57.4019 30.2514 57.8941 30.025 58.416 30.002ZM25.5 46.3652C26.1471 46.6852 26.8153 46.9606 27.5 47.1895V50C27.5 50.2652 27.6054 50.5196 27.7929 50.7071C27.9804 50.8946 28.2348 51 28.5 51C28.7652 51 29.0196 50.8946 29.2071 50.7071C29.3946 50.5196 29.5 50.2652 29.5 50V47.707C30.4885 47.8992 31.493 47.9973 32.5 48C33.5068 47.9975 34.5112 47.9007 35.5 47.7109V50C35.5 50.2652 35.6054 50.5196 35.7929 50.7071C35.9804 50.8946 36.2348 51 36.5 51C36.7652 51 37.0196 50.8946 37.2071 50.7071C37.3946 50.5196 37.5 50.2652 37.5 50V47.1992C38.1847 46.9727 38.8529 46.6993 39.5 46.3809V51C39.5 51.7957 39.1839 52.5587 38.6213 53.1213C38.0587 53.6839 37.2957 54 36.5 54H28.5C27.7044 54 26.9413 53.6839 26.3787 53.1213C25.8161 52.5587 25.5 51.7957 25.5 51V46.3652ZM51.8848 49.3809C52.2817 49.3794 52.67 49.496 53.0004 49.7159C53.3308 49.9358 53.5883 50.249 53.7402 50.6157C53.892 50.9824 53.9313 51.386 53.8531 51.7751C53.7748 52.1642 53.5826 52.5213 53.3008 52.8008C52.9199 53.1646 52.4135 53.3677 51.8867 53.3677C51.36 53.3677 50.8535 53.1646 50.4727 52.8008C50.1003 52.4284 49.8899 51.9243 49.887 51.3977C49.884 50.8712 50.0889 50.3647 50.457 49.9883L50.4883 49.957C50.8604 49.59 51.3621 49.3844 51.8848 49.3848V49.3809ZM13.1055 49.4297C13.624 49.4161 14.1275 49.6045 14.5098 49.9551L14.5449 49.9902C14.911 50.362 15.1159 50.863 15.1152 51.3848C15.116 51.6475 15.0645 51.9078 14.964 52.1505C14.8634 52.3932 14.7156 52.6136 14.5293 52.7988C14.1484 53.1627 13.642 53.3657 13.1152 53.3657C12.5885 53.3657 12.082 53.1627 11.7012 52.7988C11.4369 52.5177 11.2596 52.1662 11.1906 51.7866C11.1217 51.4071 11.1639 51.0156 11.3123 50.6595C11.4608 50.3034 11.709 49.9979 12.0272 49.7796C12.3453 49.5614 12.7198 49.4399 13.1055 49.4297ZM32.4746 56C32.4831 55.9999 32.4915 55.9999 32.5 56C33.0304 56 33.5391 56.2107 33.9142 56.5858C34.2893 56.9609 34.5 57.4696 34.5 58C34.5 58.3945 34.3833 58.7801 34.1646 59.1085C33.946 59.4368 33.6351 59.6931 33.2711 59.8452C32.9071 59.9973 32.5063 60.0384 32.1191 59.9632C31.7318 59.8881 31.3754 59.7001 31.0947 59.4229C30.814 59.1458 30.6216 58.7918 30.5416 58.4055C30.4616 58.0192 30.4976 57.6179 30.6451 57.2521C30.7925 56.8862 31.0449 56.5721 31.3705 56.3493C31.696 56.1265 32.0802 56.005 32.4746 56Z" fill="#E4EEEE" fill-opacity="0.8"/>
<path id="Vector 117" d="M26.5 31L31.5 36C34.6242 32.8758 36.3758 31.1242 39.5 28" stroke="#E4EEEE" stroke-opacity="0.8" stroke-width="2" stroke-linecap="round" stroke-linejoin="round"/>
</g>
</svg>
