<svg width="65" height="64" viewBox="0 0 65 64" fill="none" xmlns="http://www.w3.org/2000/svg">
<g id="icons8-earth 1" clip-path="url(#clip0_575_16104)">
<path id="Vector" d="M50.7637 -0.138673C49.5601 -0.173949 48.3617 0.0326435 47.2394 0.46887C46.1171 0.905097 45.0938 1.56209 44.23 2.40094C43.3662 3.23979 42.6795 4.24344 42.2105 5.35247C41.7416 6.46149 41.5 7.65333 41.5 8.85742C41.5 12.0774 43.1992 14.1009 44.6992 15.8809C45.9842 17.4169 47.0996 18.7426 47.0996 20.6426C47.1072 21.4464 47.4007 22.2212 47.9277 22.8281C47.2313 22.2931 46.3782 22.002 45.5 22H38.5C38.3665 22.0002 38.2344 21.9732 38.1118 21.9204C37.9892 21.8677 37.8787 21.7904 37.7871 21.6934C37.6954 21.6028 37.6227 21.4948 37.5734 21.3757C37.5241 21.2566 37.4991 21.1289 37.5 21C37.5 20.7348 37.6054 20.4804 37.7929 20.2929C37.9804 20.1054 38.2348 20 38.5 20H45.5V18H38.5C37.7043 18 36.9413 18.3161 36.3787 18.8787C35.8161 19.4413 35.5 20.2044 35.5 21C35.5039 21.7944 35.8213 22.5552 36.383 23.117C36.9448 23.6787 37.7056 23.9961 38.5 24H45.5C46.0304 24 46.5391 24.2107 46.9142 24.5858C47.2893 24.9609 47.5 25.4696 47.5 26C47.5 27.0609 47.9214 28.0783 48.6716 28.8284C49.4217 29.5786 50.4391 30 51.5 30H58.3984C58.4581 30.6651 58.492 31.3323 58.5 32H36.5C35.7043 32 34.9413 32.3161 34.3787 32.8787C33.8161 33.4413 33.5 34.2043 33.5 35C33.5039 35.7944 33.8213 36.5552 34.383 37.117C34.9448 37.6787 35.7056 37.9961 36.5 38H42C42.1326 38 42.2598 38.0527 42.3536 38.1464C42.4473 38.2402 42.5 38.3674 42.5 38.5C42.5 38.8283 42.5647 39.1534 42.6903 39.4567C42.8159 39.76 43.0001 40.0356 43.2322 40.2678C43.4644 40.4999 43.74 40.6841 44.0433 40.8097C44.3466 40.9353 44.6717 41 45 41H46C46.3283 41 46.6534 41.0647 46.9567 41.1903C47.26 41.3159 47.5356 41.5001 47.7678 41.7322C47.9999 41.9644 48.1841 42.24 48.3097 42.5433C48.4353 42.8466 48.5 43.1717 48.5 43.5C48.5044 44.4001 48.7776 45.2783 49.2847 46.022C49.7917 46.7657 50.5094 47.3409 51.3457 47.6738C50.8362 48.61 50.5469 49.65 50.5 50.7148C50.5 53.1658 51.8108 54.6768 52.9668 56.0098C53.9008 57.0868 54.6992 58.0092 54.6992 59.2852C54.7114 60.0163 55.0131 60.7128 55.5382 61.2218C56.0632 61.7308 56.7688 62.0106 57.5 62C58.2302 62.0107 58.9349 61.7316 59.4598 61.2239C59.9847 60.7162 60.2871 60.0212 60.3008 59.291C60.3008 58.014 61.1032 57.0877 62.0332 56.0137C63.1892 54.6757 64.5 53.1658 64.5 50.7148C64.4422 49.367 63.9964 48.0645 63.2163 46.9639C62.4361 45.8632 61.3548 45.0112 60.1022 44.5102C58.8496 44.0092 57.479 43.8806 56.155 44.1396C54.8311 44.3987 53.6101 45.0345 52.6387 45.9707C52.0465 45.8807 51.5059 45.5825 51.1139 45.1296C50.7219 44.6767 50.5042 44.0989 50.5 43.5C50.4987 42.3069 50.0241 41.1631 49.1805 40.3195C48.3369 39.4759 47.1931 39.0013 46 39H45C44.8674 39 44.7402 38.9473 44.6464 38.8536C44.5527 38.7598 44.5 38.6326 44.5 38.5C44.5 37.837 44.2366 37.2011 43.7678 36.7322C43.2989 36.2634 42.663 36 42 36H36.5C36.3665 36.0002 36.2344 35.9731 36.1118 35.9204C35.9892 35.8677 35.8787 35.7904 35.7871 35.6934C35.6954 35.6028 35.6227 35.4948 35.5734 35.3757C35.5241 35.2566 35.4991 35.1289 35.5 35C35.5 34.7348 35.6054 34.4804 35.7929 34.2929C35.9804 34.1054 36.2348 34 36.5 34H58.4102C58.2855 35.5996 58.0082 37.1836 57.582 38.7305L59.5098 39.2695C60.0743 37.2341 60.4001 35.14 60.4805 33.0293C60.4905 32.6893 60.5 32.34 60.5 32C60.4985 30.9604 60.4392 29.9217 60.3223 28.8887C59.9055 25.224 58.7308 21.6862 56.873 18.5L55.1465 19.5039C56.6633 22.1266 57.6823 25.007 58.1523 28H51.5C50.9696 28 50.4609 27.7893 50.0858 27.4142C49.7107 27.0391 49.5 26.5304 49.5 26C49.4981 25.0182 49.1353 24.0714 48.4805 23.3398C49.0653 23.7711 49.7734 24.0026 50.5 24C51.3959 24.0049 52.2571 23.6541 52.8947 23.0246C53.5322 22.3952 53.8939 21.5385 53.9004 20.6426C53.9004 18.7406 55.0118 17.4169 56.3008 15.8809C57.8008 14.0989 59.5 12.0774 59.5 8.85742C59.5 6.51614 58.5876 4.26701 56.9565 2.5874C55.3254 0.907793 53.104 -0.0700804 50.7637 -0.138673ZM50.5 2C52.3369 1.98346 54.1054 2.69609 55.4176 3.9816C56.7299 5.26711 57.4787 7.02056 57.5 8.85742C57.5 11.3494 56.1835 12.9137 54.7715 14.5937C53.3595 16.2737 51.9004 18.0116 51.9004 20.6426C51.9004 21.014 51.7528 21.3702 51.4902 21.6328C51.2276 21.8954 50.8714 22.043 50.5 22.043C50.1286 22.043 49.7724 21.8954 49.5098 21.6328C49.2472 21.3702 49.0996 21.014 49.0996 20.6426C49.0996 18.0116 47.6325 16.2627 46.2285 14.5937C44.8245 12.9247 43.5 11.3494 43.5 8.85742C43.5213 7.02056 44.2701 5.26711 45.5824 3.9816C46.8946 2.69609 48.6631 1.98346 50.5 2ZM50.334 5.00391C49.2903 5.04998 48.3061 5.50254 47.5917 6.26481C46.8774 7.02709 46.4896 8.03858 46.5113 9.08304C46.533 10.1275 46.9624 11.122 47.7078 11.854C48.4532 12.586 49.4553 12.9973 50.5 13C51.5609 13 52.5783 12.5786 53.3284 11.8284C54.0786 11.0783 54.5 10.0609 54.5 9C54.4999 8.46077 54.3909 7.92713 54.1793 7.43114C53.9677 6.93514 53.6581 6.48704 53.2689 6.11377C52.8798 5.7405 52.4192 5.44977 51.9148 5.25904C51.4105 5.06831 50.8727 4.98153 50.334 5.00391ZM34.5254 5.01953C29.0917 4.81485 23.723 6.25676 19.123 9.15625L20.1992 10.8437C23.1705 8.97267 26.5028 7.74887 29.9789 7.25214C33.4549 6.75542 36.9966 6.99694 40.373 7.96094L40.9238 6.03906C38.8397 5.44343 36.6914 5.10112 34.5254 5.01953ZM50.5 7C51.0304 7 51.5391 7.21071 51.9142 7.58579C52.2893 7.96086 52.5 8.46957 52.5 9C52.5 9.39556 52.3827 9.78224 52.1629 10.1111C51.9432 10.44 51.6308 10.6964 51.2654 10.8478C50.8999 10.9991 50.4978 11.0387 50.1098 10.9616C49.7219 10.8844 49.3655 10.6939 49.0858 10.4142C48.8061 10.1345 48.6156 9.77814 48.5384 9.39018C48.4613 9.00222 48.5009 8.60008 48.6522 8.23463C48.8036 7.86918 49.06 7.55682 49.3889 7.33706C49.7178 7.1173 50.1044 7 50.5 7ZM11.5 8C9.68214 7.96514 7.92459 8.65233 6.61248 9.91098C5.30038 11.1696 4.54073 12.8971 4.5 14.7148C4.5 17.1658 5.8108 18.6768 6.9668 20.0098C7.9008 21.0868 8.69922 22.0092 8.69922 23.2852C8.71137 24.0163 9.01309 24.7128 9.53817 25.2218C10.0633 25.7308 10.7688 26.0106 11.5 26C12.2302 26.0107 12.9349 25.7316 13.4598 25.2239C13.9847 24.7162 14.2871 24.0212 14.3008 23.291C14.3008 22.014 15.1032 21.0877 16.0332 20.0137C17.1892 18.6757 18.5 17.1658 18.5 14.7148C18.4593 12.8971 17.6996 11.1696 16.3875 9.91098C15.0754 8.65233 13.3179 7.96514 11.5 8ZM24.5 9V11H31.5C31.6335 10.9998 31.7656 11.0268 31.8882 11.0796C32.0108 11.1323 32.1213 11.2096 32.2129 11.3066C32.3046 11.3972 32.3773 11.5052 32.4266 11.6243C32.4759 11.7434 32.5009 11.8711 32.5 12C32.5 12.2652 32.3946 12.5196 32.2071 12.7071C32.0196 12.8946 31.7652 13 31.5 13H27.5C26.7057 13.0045 25.9453 13.322 25.3836 13.8836C24.822 14.4453 24.5045 15.2057 24.5 16C24.5 16.2652 24.3946 16.5196 24.2071 16.7071C24.0196 16.8946 23.7652 17 23.5 17H18.5V19H23.5C24.2956 19 25.0587 18.6839 25.6213 18.1213C26.1839 17.5587 26.5 16.7956 26.5 16C26.4998 15.8665 26.5268 15.7344 26.5796 15.6118C26.6323 15.4892 26.7096 15.3787 26.8066 15.2871C26.8969 15.195 27.0049 15.1221 27.124 15.0728C27.2432 15.0234 27.371 14.9987 27.5 15H31.5C32.2956 15 33.0587 14.6839 33.6213 14.1213C34.1839 13.5587 34.5 12.7956 34.5 12C34.4961 11.2056 34.1787 10.4448 33.617 9.88303C33.0552 9.32128 32.2944 9.00394 31.5 9H24.5ZM11.5 10C12.7876 9.96471 14.0367 10.4411 14.9738 11.3247C15.9109 12.2084 16.4597 13.4274 16.5 14.7148C16.5 16.4188 15.5844 17.4752 14.5234 18.6992C13.4804 19.9012 12.3008 21.2632 12.3008 23.2852C12.2804 23.4834 12.1873 23.667 12.0393 23.8005C11.8914 23.934 11.6992 24.0078 11.5 24.0078C11.3008 24.0078 11.1086 23.934 10.9607 23.8005C10.8127 23.667 10.7196 23.4834 10.6992 23.2852C10.6992 21.2632 9.51956 19.9002 8.47656 18.6992C7.41556 17.4752 6.5 16.4148 6.5 14.7148C6.5403 13.4274 7.08909 12.2084 8.02621 11.3247C8.96333 10.4411 10.2124 9.96471 11.5 10ZM11.375 12.002C10.5875 12.03 9.84264 12.3667 9.30138 12.9394C8.76011 13.5121 8.4659 14.2747 8.48232 15.0626C8.49874 15.8504 8.82447 16.6001 9.38912 17.1498C9.95378 17.6994 10.712 18.0048 11.5 18C12.2956 18 13.0587 17.6839 13.6213 17.1213C14.1839 16.5587 14.5 15.7956 14.5 15C14.5001 14.5955 14.4184 14.1951 14.2597 13.8229C14.1011 13.4508 13.8688 13.1146 13.5769 12.8345C13.285 12.5544 12.9394 12.3363 12.561 12.1932C12.1826 12.0502 11.7792 11.9851 11.375 12.002ZM11.5 14C11.7652 14 12.0196 14.1054 12.2071 14.2929C12.3946 14.4804 12.5 14.7348 12.5 15C12.5 15.1978 12.4414 15.3911 12.3315 15.5556C12.2216 15.72 12.0654 15.8482 11.8827 15.9239C11.7 15.9996 11.4989 16.0194 11.3049 15.9808C11.1109 15.9422 10.9327 15.847 10.7929 15.7071C10.653 15.5673 10.5578 15.3891 10.5192 15.1951C10.4806 15.0011 10.5004 14.8 10.5761 14.6173C10.6518 14.4346 10.78 14.2784 10.9444 14.1685C11.1089 14.0586 11.3022 14 11.5 14ZM15.5 25V27H17.5V25H15.5ZM19.5 25V27H27.5C27.7652 27 28.0196 27.1054 28.2071 27.2929C28.3946 27.4804 28.5 27.7348 28.5 28C28.5002 28.1335 28.4732 28.2656 28.4204 28.3882C28.3677 28.5108 28.2904 28.6213 28.1934 28.7129C28.1031 28.805 27.9951 28.8779 27.876 28.9272C27.7568 28.9766 27.629 29.0013 27.5 29H20.5C19.4391 29 18.4217 29.4214 17.6716 30.1716C16.9214 30.9217 16.5 31.9391 16.5 33C16.5 34.0609 16.9214 35.0783 17.6716 35.8284C18.4217 36.5786 19.4391 37 20.5 37H22.5C22.7652 37 23.0196 37.1054 23.2071 37.2929C23.3946 37.4804 23.5 37.7348 23.5 38C23.5002 38.1335 23.4732 38.2656 23.4204 38.3882C23.3677 38.5108 23.2904 38.6213 23.1934 38.7129C23.1031 38.805 22.9951 38.8779 22.876 38.9272C22.7568 38.9766 22.629 39.0013 22.5 39H15.1895C13.5819 37.6944 11.5709 36.9875 9.5 37C7.13275 36.9837 4.85572 37.9072 3.16847 39.5677C1.48122 41.2282 0.521548 43.4902 0.5 45.8574C0.5 49.0774 2.19922 51.1009 3.69922 52.8809C4.98422 54.4169 6.09961 55.7426 6.09961 57.6426C6.10611 58.5385 6.46782 59.3952 7.10534 60.0246C7.74286 60.6541 8.6041 61.0049 9.5 61C10.3959 61.0049 11.2571 60.6541 11.8947 60.0246C12.5322 59.3952 12.8939 58.5385 12.9004 57.6426C12.9004 55.7406 14.0118 54.4169 15.3008 52.8809C16.6149 51.3197 18.0802 49.5734 18.4238 47H27C27.3978 47 27.7794 47.158 28.0607 47.4393C28.342 47.7206 28.5 48.1022 28.5 48.5C28.4982 48.9598 28.5876 49.4154 28.7629 49.8405C28.9382 50.2656 29.196 50.6517 29.5215 50.9766C30.1806 51.6309 31.0713 51.9987 32 52H37C37.3978 52 37.7794 52.158 38.0607 52.4393C38.342 52.7206 38.5 53.1022 38.5 53.5V56.4941C36.8546 56.8304 35.1794 56.9999 33.5 57C29.4323 57 25.4257 56.0099 21.8262 54.1152L20.8926 55.8848C24.7802 57.9304 29.1071 58.9995 33.5 59C39.5215 59.0022 45.3706 56.989 50.1152 53.2812L48.8848 51.7051C46.3864 53.6501 43.5409 55.1023 40.5 55.9844V53.5C40.5 52.5717 40.1312 51.6815 39.4749 51.0251C38.8185 50.3688 37.9283 50 37 50H32C31.8027 50.0011 31.6072 49.963 31.4247 49.888C31.2423 49.813 31.0765 49.7025 30.937 49.563C30.7975 49.4235 30.687 49.2577 30.612 49.0753C30.537 48.8928 30.4989 48.6973 30.5 48.5C30.5 47.5717 30.1313 46.6815 29.4749 46.0251C28.8185 45.3688 27.9283 45 27 45H18.4414C18.2926 43.571 17.8015 42.1989 17.0098 41H22.5C23.2943 40.9955 24.0547 40.678 24.6164 40.1164C25.178 39.5547 25.4955 38.7943 25.5 38C25.5 37.2043 25.1839 36.4413 24.6213 35.8787C24.0587 35.3161 23.2956 35 22.5 35H20.5C19.9696 35 19.4609 34.7893 19.0858 34.4142C18.7107 34.0391 18.5 33.5304 18.5 33C18.5 32.4696 18.7107 31.9609 19.0858 31.5858C19.4609 31.2107 19.9696 31 20.5 31H27.5C28.2943 30.9955 29.0547 30.678 29.6164 30.1164C30.178 29.5547 30.4955 28.7943 30.5 28C30.5 27.2044 30.1839 26.4413 29.6213 25.8787C29.0587 25.3161 28.2956 25 27.5 25H19.5ZM7.22852 25.7676C6.42221 29.1709 6.28359 32.6982 6.82031 36.1543L8.80078 35.8457C8.30181 32.6473 8.4285 29.3825 9.17383 26.2324L7.22852 25.7676ZM9.5 39C11.3369 38.9835 13.1054 39.6961 14.4176 40.9816C15.7299 42.2671 16.4787 44.0206 16.5 45.8574C16.5 48.3494 15.1835 49.9137 13.7715 51.5938C12.3595 53.2738 10.9004 55.0116 10.9004 57.6426C10.9004 58.014 10.7528 58.3702 10.4902 58.6328C10.2276 58.8954 9.87141 59.043 9.5 59.043C9.12859 59.043 8.7724 58.8954 8.50977 58.6328C8.24715 58.3702 8.09961 58.014 8.09961 57.6426C8.09961 55.0116 6.63252 53.2627 5.22852 51.5938C3.82452 49.9248 2.5 48.3494 2.5 45.8574C2.52126 44.0206 3.27012 42.2671 4.58236 40.9816C5.8946 39.6961 7.66309 38.9835 9.5 39ZM56.9609 40.6543C56.7239 41.3043 56.4532 41.9502 56.1602 42.5762L57.9727 43.4238C58.2877 42.7478 58.5809 42.0477 58.8379 41.3457L56.9609 40.6543ZM9.33398 42.0039C8.29032 42.05 7.30609 42.5025 6.59173 43.2648C5.87737 44.0271 5.48958 45.0386 5.51127 46.083C5.53295 47.1275 5.96239 48.122 6.70777 48.854C7.45315 49.586 8.45532 49.9973 9.5 50C10.5609 50 11.5783 49.5786 12.3284 48.8284C13.0786 48.0783 13.5 47.0609 13.5 46C13.4999 45.4608 13.3909 44.9271 13.1793 44.4311C12.9677 43.9351 12.6581 43.487 12.2689 43.1138C11.8798 42.7405 11.4192 42.4498 10.9148 42.259C10.4105 42.0683 9.87275 41.9815 9.33398 42.0039ZM9.5 44C10.0304 44 10.5391 44.2107 10.9142 44.5858C11.2893 44.9609 11.5 45.4696 11.5 46C11.5 46.3956 11.3827 46.7822 11.1629 47.1111C10.9432 47.44 10.6308 47.6964 10.2654 47.8478C9.89991 47.9991 9.49778 48.0387 9.10982 47.9616C8.72186 47.8844 8.36549 47.6939 8.08579 47.4142C7.80608 47.1345 7.6156 46.7781 7.53843 46.3902C7.46126 46.0022 7.50087 45.6001 7.65224 45.2346C7.80362 44.8692 8.05996 44.5568 8.38886 44.3371C8.71776 44.1173 9.10444 44 9.5 44ZM57.5 46C58.7876 45.9647 60.0367 46.4411 60.9738 47.3247C61.9109 48.2084 62.4597 49.4274 62.5 50.7148C62.5 52.4188 61.5844 53.4752 60.5234 54.6992C59.4804 55.9012 58.3008 57.2632 58.3008 59.2852C58.2804 59.4834 58.1873 59.667 58.0393 59.8005C57.8914 59.934 57.6992 60.0078 57.5 60.0078C57.3008 60.0078 57.1086 59.934 56.9607 59.8005C56.8127 59.667 56.7196 59.4834 56.6992 59.2852C56.6992 57.2632 55.5196 55.8992 54.4766 54.6992C53.4156 53.4752 52.5 52.4148 52.5 50.7148C52.5403 49.4274 53.0891 48.2084 54.0262 47.3247C54.9633 46.4411 56.2124 45.9647 57.5 46ZM57.375 48.002C56.5875 48.03 55.8426 48.3667 55.3014 48.9394C54.7601 49.5121 54.4659 50.2747 54.4823 51.0626C54.4987 51.8504 54.8245 52.6001 55.3891 53.1498C55.9538 53.6994 56.712 54.0048 57.5 54C58.2957 54 59.0587 53.6839 59.6213 53.1213C60.1839 52.5587 60.5 51.7957 60.5 51C60.5001 50.5955 60.4184 50.1951 60.2597 49.8229C60.1011 49.4508 59.8688 49.1146 59.5769 48.8345C59.285 48.5544 58.9394 48.3363 58.561 48.1932C58.1826 48.0502 57.7792 47.9851 57.375 48.002ZM57.5 50C57.7652 50 58.0196 50.1054 58.2071 50.2929C58.3946 50.4804 58.5 50.7348 58.5 51C58.5 51.1978 58.4414 51.3911 58.3315 51.5556C58.2216 51.72 58.0654 51.8482 57.8827 51.9239C57.7 51.9996 57.4989 52.0194 57.3049 51.9808C57.1109 51.9422 56.9327 51.847 56.7929 51.7071C56.653 51.5673 56.5578 51.3891 56.5192 51.1951C56.4806 51.0011 56.5004 50.8 56.5761 50.6173C56.6518 50.4346 56.78 50.2784 56.9444 50.1685C57.1089 50.0586 57.3022 50 57.5 50ZM18.1152 51.7109L16.8848 53.2871C17.5448 53.8041 18.2429 54.2988 18.9609 54.7578L20.0391 53.0742C19.3751 52.6482 18.7272 52.1899 18.1152 51.7109Z" fill="#E4EEEE" fill-opacity="0.8"/>
</g>
<defs>
<clipPath id="clip0_575_16104">
<rect width="64" height="64" fill="white" transform="translate(0.5)"/>
</clipPath>
</defs>
</svg>
