<svg width="31" height="30" viewBox="0 0 31 30" fill="none" xmlns="http://www.w3.org/2000/svg">
<g id="Group 81037927">
<g id="Group 81037926">
<path id="Subtract" fill-rule="evenodd" clip-rule="evenodd" d="M18.4889 7.65839C18.3371 6.47424 17.3134 5.54556 16.0909 5.54556H9.64465C8.31916 5.54556 7.22729 6.63743 7.22729 7.96292V19.1281L8.83887 17.4867V12.7976H13.4429L15.0252 11.1861H8.83887V7.96292C8.83887 7.50763 9.18936 7.15713 9.64465 7.15713H16.0909C16.5462 7.15713 16.8967 7.50763 16.8967 7.96292V9.27999L18.4889 7.65839ZM18.5083 10.4933L16.2458 12.7976H16.8967V21.6613H8.83887V20.3414L7.22729 21.9828V23.2728H18.5083V22.4671V17.6323H20.1199V20.8555C20.1199 22.181 21.2117 23.2728 22.5372 23.2728C23.8627 23.2728 24.9546 22.181 24.9546 20.8555V12.7913V12.6591C24.9546 12.0182 24.6995 11.4031 24.2464 10.95L21.1248 7.82844L19.9958 8.9783L21.5898 10.5723C20.7297 10.9443 20.1199 11.8017 20.1199 12.7913C20.1199 14.1168 21.2117 15.2087 22.5372 15.2087C22.8207 15.2087 23.0893 15.1491 23.343 15.0576V20.8555C23.343 21.3108 22.9925 21.6613 22.5372 21.6613C22.0819 21.6613 21.7314 21.3108 21.7314 20.8555V17.6323C21.7314 16.7516 21.0006 16.0208 20.1199 16.0208H18.5083V12.7976V11.1861V10.4933ZM23.343 12.7913C23.343 12.336 22.9925 11.9855 22.5372 11.9855C22.0819 11.9855 21.7314 12.336 21.7314 12.7913C21.7314 13.2466 22.0819 13.5971 22.5372 13.5971C22.9925 13.5971 23.343 13.2466 23.343 12.7913Z" fill="#E4EEEE" fill-opacity="0.7"/>
</g>
<circle id="Ellipse 388" cx="15.5" cy="15" r="14" stroke="#E7296D" stroke-width="2"/>
<path id="Line 102" d="M5.68311 25.1831L25.5 5" stroke="#E7296D" stroke-width="2"/>
</g>
</svg>
