<svg width="24" height="25" viewBox="0 0 24 25" fill="none" xmlns="http://www.w3.org/2000/svg">
<path d="M11.8438 6.57613C11.0854 6.60847 10.3547 6.87018 9.74823 7.32668C9.14178 7.78318 8.68815 8.41297 8.44728 9.1328C8.20642 9.85263 8.18968 10.6286 8.39927 11.3582C8.60885 12.0877 9.0349 12.7365 9.62109 13.2187C8.90121 13.6352 8.30332 14.2335 7.88721 14.9536C7.4711 15.6738 7.25137 16.4905 7.25 17.3222V18.3222C7.25 18.5211 7.32902 18.7119 7.46967 18.8526C7.61032 18.9932 7.80109 19.0722 8 19.0722C8.19891 19.0722 8.38968 18.9932 8.53033 18.8526C8.67098 18.7119 8.75 18.5211 8.75 18.3222V17.3222C8.75 16.4603 9.09241 15.6336 9.7019 15.0241C10.3114 14.4146 11.138 14.0722 12 14.0722C12.862 14.0722 13.6886 14.4146 14.2981 15.0241C14.9076 15.6336 15.25 16.4603 15.25 17.3222V18.3222C15.25 18.5211 15.329 18.7119 15.4697 18.8526C15.6103 18.9932 15.8011 19.0722 16 19.0722C16.1989 19.0722 16.3897 18.9932 16.5303 18.8526C16.671 18.7119 16.75 18.5211 16.75 18.3222V17.3222C16.7498 16.4897 16.5309 15.6719 16.1151 14.9506C15.6993 14.2294 15.1012 13.6301 14.3809 13.2129C14.8079 12.8616 15.152 12.4203 15.3887 11.9207C15.6254 11.421 15.7487 10.8751 15.75 10.3222C15.7499 9.81667 15.6476 9.31635 15.4492 8.85134C15.2508 8.38634 14.9605 7.96625 14.5956 7.61632C14.2307 7.2664 13.7988 6.99387 13.3259 6.81511C12.853 6.63636 12.3489 6.55507 11.8438 6.57613ZM12 8.07223C12.5966 8.07276 13.1686 8.30998 13.5904 8.73182C14.0122 9.15366 14.2495 9.72565 14.25 10.3222C14.25 10.7672 14.118 11.2022 13.8708 11.5723C13.6236 11.9423 13.2722 12.2307 12.861 12.401C12.4499 12.5713 11.9975 12.6158 11.561 12.529C11.1246 12.4422 10.7237 12.2279 10.409 11.9132C10.0943 11.5985 9.88005 11.1976 9.79323 10.7612C9.70642 10.3247 9.75097 9.87232 9.92127 9.46119C10.0916 9.05006 10.38 8.69865 10.75 8.45142C11.12 8.20419 11.555 8.07223 12 8.07223ZM4.86523 8.57418C4.21749 8.60154 3.59273 8.822 3.07127 9.20722C2.54981 9.59245 2.15548 10.1248 1.93897 10.7359C1.72246 11.347 1.69366 12.0089 1.85629 12.6365C2.01891 13.2641 2.36552 13.8287 2.85156 14.2578C2.35854 14.6028 1.95568 15.0613 1.67695 15.5946C1.39823 16.128 1.25179 16.7205 1.25 17.3222V18.3222C1.25 18.5211 1.32902 18.7119 1.46967 18.8526C1.61032 18.9932 1.80109 19.0722 2 19.0722C2.19891 19.0722 2.38968 18.9932 2.53033 18.8526C2.67098 18.7119 2.75 18.5211 2.75 18.3222V17.3222C2.75053 16.7257 2.98775 16.1537 3.40959 15.7318C3.83144 15.31 4.40343 15.0728 5 15.0722C5.41112 15.0677 5.81474 15.1824 6.16211 15.4023C6.31477 15.4997 6.4975 15.5386 6.6766 15.5118C6.85569 15.4851 7.01907 15.3945 7.1366 15.2567C7.25413 15.1189 7.31789 14.9433 7.31612 14.7623C7.31434 14.5812 7.24716 14.4069 7.12695 14.2714C7.4782 13.9671 7.76017 13.591 7.95389 13.1685C8.14761 12.7461 8.24858 12.287 8.25 11.8222C8.25011 11.384 8.16161 10.9503 7.9898 10.5472C7.81799 10.144 7.56643 9.77983 7.25025 9.47642C6.93407 9.173 6.55979 8.93667 6.14992 8.78162C5.74006 8.62657 5.30307 8.55601 4.86523 8.57418ZM18.8652 8.57418C18.215 8.60116 17.5879 8.82274 17.065 9.21021C16.5421 9.59767 16.1476 10.1332 15.9326 10.7474C15.7175 11.3616 15.6918 12.0263 15.8588 12.6553C16.0258 13.2843 16.3778 13.8487 16.8691 14.2754C16.7506 14.4112 16.6849 14.5852 16.6841 14.7655C16.6833 14.9458 16.7475 15.1203 16.8649 15.2572C16.9823 15.394 17.145 15.484 17.3234 15.5107C17.5017 15.5373 17.6837 15.4988 17.8359 15.4023C18.2676 15.1475 18.7711 15.0418 19.2687 15.1015C19.7664 15.1611 20.2306 15.3828 20.5898 15.7324C20.7996 15.9405 20.966 16.1882 21.0793 16.4611C21.1926 16.734 21.2506 17.0267 21.25 17.3222V18.3222C21.25 18.5211 21.329 18.7119 21.4697 18.8526C21.6103 18.9932 21.8011 19.0722 22 19.0722C22.1989 19.0722 22.3897 18.9932 22.5303 18.8526C22.671 18.7119 22.75 18.5211 22.75 18.3222V17.3222C22.7511 16.8297 22.6545 16.3418 22.4657 15.8869C22.277 15.4319 21.9998 15.0189 21.6504 14.6718C21.4919 14.5207 21.3207 14.3834 21.1387 14.2617C21.4865 13.9573 21.7656 13.5823 21.9572 13.1617C22.1488 12.7411 22.2486 12.2844 22.25 11.8222C22.2501 11.384 22.1616 10.9503 21.9898 10.5472C21.818 10.144 21.5664 9.77983 21.2502 9.47642C20.9341 9.173 20.5598 8.93667 20.1499 8.78162C19.7401 8.62657 19.3031 8.55601 18.8652 8.57418ZM5 10.0722C5.46397 10.0728 5.90878 10.2573 6.23685 10.5854C6.56493 10.9134 6.74947 11.3583 6.75 11.8222C6.75 12.1683 6.64736 12.5067 6.45507 12.7945C6.26278 13.0823 5.98947 13.3066 5.6697 13.439C5.34993 13.5715 4.99806 13.6061 4.65859 13.5386C4.31912 13.4711 4.00731 13.3044 3.76256 13.0597C3.51782 12.8149 3.35115 12.5031 3.28363 12.1636C3.2161 11.8242 3.25076 11.4723 3.38321 11.1525C3.51566 10.8328 3.73997 10.5594 4.02775 10.3672C4.31554 10.1749 4.65388 10.0722 5 10.0722ZM19 10.0722C19.464 10.0728 19.9088 10.2573 20.2369 10.5854C20.5649 10.9134 20.7495 11.3583 20.75 11.8222C20.75 12.1683 20.6474 12.5067 20.4551 12.7945C20.2628 13.0823 19.9895 13.3066 19.6697 13.439C19.3499 13.5715 18.9981 13.6061 18.6586 13.5386C18.3191 13.4711 18.0073 13.3044 17.7626 13.0597C17.5178 12.8149 17.3512 12.5031 17.2836 12.1636C17.2161 11.8242 17.2508 11.4723 17.3832 11.1525C17.5157 10.8328 17.74 10.5594 18.0278 10.3672C18.3155 10.1749 18.6539 10.0722 19 10.0722Z" fill="#3CC5EE"/>
</svg>
