<svg width="16" height="16" viewBox="0 0 16 16" fill="none" xmlns="http://www.w3.org/2000/svg">
<path d="M0.656831 8.35092L5.77675 8.65325C6.14164 8.67723 6.48614 8.83164 6.74859 9.08884C7.01103 9.34605 7.17426 9.68923 7.20904 10.0569L7.65795 15.3403C7.67208 15.4201 7.71357 15.4924 7.77512 15.5444C7.83667 15.5965 7.91438 15.625 7.99465 15.625C8.07492 15.625 8.15263 15.5965 8.21418 15.5444C8.27573 15.4924 8.31721 15.4201 8.33135 15.3403L8.79096 10.0569C8.82145 9.68761 8.98333 9.34196 9.24665 9.0839C9.50997 8.82584 9.85689 8.67285 10.2232 8.65325L15.3432 8.3293C15.4222 8.31503 15.4937 8.27316 15.5452 8.21097C15.5968 8.14879 15.625 8.07026 15.625 7.98918C15.625 7.90809 15.5968 7.82959 15.5452 7.76741C15.4937 7.70523 15.4222 7.66336 15.3432 7.64908L10.2232 7.34675C9.85909 7.32065 9.51576 7.16551 9.25373 6.90872C8.9917 6.65192 8.82781 6.30994 8.79096 5.94303L8.34205 0.65967C8.32791 0.57985 8.28643 0.507579 8.22488 0.455534C8.16333 0.403489 8.08562 0.375 8.00535 0.375C7.92508 0.375 7.84737 0.403489 7.78582 0.455534C7.72427 0.507579 7.68279 0.57985 7.66865 0.65967L7.21971 5.94303C7.18493 6.31073 7.02173 6.65392 6.75929 6.91112C6.49684 7.16833 6.1523 7.32277 5.78742 7.34675L0.656831 7.67066C0.577816 7.68494 0.506273 7.72684 0.454753 7.78903C0.403233 7.85121 0.374998 7.9297 0.374998 8.01079C0.374998 8.09188 0.403233 8.17038 0.454753 8.23256C0.506273 8.29474 0.577816 8.33664 0.656831 8.35092Z" fill="#FFC700"/>
<path fill-rule="evenodd" clip-rule="evenodd" d="M0.612276 8.72394L0.590147 8.71994C0.423585 8.68985 0.273575 8.60165 0.165992 8.47181C0.0584926 8.34207 -1.4693e-08 8.17886 0 8.01079C1.4693e-08 7.84272 0.0584927 7.67952 0.165992 7.54977C0.273574 7.41993 0.423584 7.33174 0.590147 7.30164L0.611523 7.29778L5.76283 6.97255C6.03758 6.95438 6.29816 6.83798 6.49681 6.6433C6.69525 6.44882 6.8194 6.1888 6.84622 5.90937L7.29643 0.611003L7.2994 0.594284C7.32871 0.428755 7.41485 0.27812 7.5437 0.169174C7.6727 0.0601024 7.83611 -1.47955e-08 8.00535 0C8.17459 1.47956e-08 8.338 0.0601025 8.467 0.169174C8.59585 0.27812 8.68199 0.428755 8.7113 0.594284L8.71426 0.611004L9.16435 5.90824C9.193 6.18723 9.31787 6.44652 9.51621 6.64089C9.71458 6.8353 9.97367 6.95238 10.2479 6.97255L15.3877 7.27606L15.4099 7.28006C15.5763 7.31014 15.7264 7.39824 15.834 7.52816C15.9415 7.6579 16 7.82111 16 7.98918C16 8.15721 15.9415 8.32046 15.834 8.45023C15.7264 8.58015 15.5763 8.66825 15.4099 8.69833L15.3885 8.70219L10.2451 9.02762L10.2433 9.02772C9.96852 9.04242 9.70765 9.15717 9.50913 9.35173C9.31051 9.54638 9.1878 9.80776 9.16469 10.0878L9.16455 10.0894L8.7035 15.3893L8.7006 15.4057C8.67129 15.5712 8.58515 15.7218 8.4563 15.8308C8.32738 15.9398 8.16399 16 7.99465 16C7.8253 16 7.66192 15.9398 7.533 15.8308C7.40415 15.7218 7.31801 15.5712 7.28869 15.4057L7.28573 15.389L6.83555 10.0906C6.80874 9.8112 6.68457 9.55117 6.48611 9.35667C6.28762 9.16214 6.0278 9.04582 5.75326 9.02752L5.75216 9.02745L0.612276 8.72394ZM5.77675 8.65325C6.14164 8.67723 6.48614 8.83164 6.74859 9.08884C7.01103 9.34605 7.17426 9.68923 7.20904 10.0569L7.65795 15.3403C7.67208 15.4201 7.71357 15.4924 7.77512 15.5444C7.83667 15.5965 7.91438 15.625 7.99465 15.625C8.07492 15.625 8.15263 15.5965 8.21418 15.5444C8.27573 15.4924 8.31721 15.4201 8.33135 15.3403L8.79096 10.0569C8.82145 9.68761 8.98333 9.34196 9.24665 9.0839C9.50997 8.82584 9.85689 8.67285 10.2232 8.65325L15.3432 8.3293C15.4222 8.31503 15.4937 8.27316 15.5452 8.21097C15.5968 8.14879 15.625 8.07026 15.625 7.98918C15.625 7.90809 15.5968 7.82959 15.5452 7.76741C15.4937 7.70523 15.4222 7.66336 15.3432 7.64908L10.2232 7.34675C9.85909 7.32065 9.51576 7.16551 9.25373 6.90872C8.9917 6.65192 8.82781 6.30994 8.79096 5.94303L8.34205 0.65967C8.32791 0.57985 8.28643 0.507579 8.22488 0.455534C8.16333 0.403489 8.08562 0.375 8.00535 0.375C7.92508 0.375 7.84737 0.403489 7.78582 0.455534C7.72427 0.507579 7.68279 0.57985 7.66865 0.65967L7.21971 5.94303C7.18493 6.31073 7.02173 6.65392 6.75929 6.91112C6.49684 7.16833 6.1523 7.32277 5.78742 7.34675L0.656831 7.67066C0.577816 7.68494 0.506273 7.72684 0.454753 7.78903C0.403233 7.85121 0.374998 7.9297 0.374998 8.01079C0.374998 8.09188 0.403233 8.17038 0.454753 8.23256C0.506273 8.29474 0.577816 8.33664 0.656831 8.35092L5.77675 8.65325Z" fill="#FFC700"/>
</svg>
