<svg width="1306" height="129" viewBox="0 0 1306 129" fill="none" xmlns="http://www.w3.org/2000/svg">
  <path
    d="M358.603 82.2474L360.781 59.7237C360.811 59.5226 360.913 59.3388 361.068 59.2059C361.223 59.0731 361.421 59 361.626 59C361.83 59 362.028 59.0731 362.183 59.2059C362.338 59.3388 362.44 59.5226 362.47 59.7237L364.612 82.2294C364.748 83.4863 365.324 84.6559 366.24 85.5348C367.155 86.4138 368.352 86.9466 369.622 87.0404L396.271 88.6261C396.474 88.6556 396.659 88.7565 396.793 88.9104C396.926 89.0642 397 89.2607 397 89.464C397 89.6672 396.926 89.8637 396.793 90.0175C396.659 90.1714 396.474 90.2723 396.271 90.3018L369.604 91.9416C368.334 92.0354 367.137 92.5681 366.222 93.4471C365.306 94.3261 364.73 95.4957 364.594 96.7526L362.415 119.276C362.386 119.477 362.284 119.661 362.129 119.794C361.974 119.927 361.776 120 361.571 120C361.366 120 361.168 119.927 361.013 119.794C360.859 119.661 360.757 119.477 360.727 119.276L358.585 96.7706C358.448 95.5137 357.872 94.3441 356.957 93.4652C356.042 92.5862 354.845 92.0534 353.575 91.9596L326.853 90.428C326.627 90.428 326.41 90.3387 326.25 90.1799C326.09 90.0211 326 89.8057 326 89.5811C326 89.3565 326.09 89.1411 326.25 88.9822C326.41 88.8234 326.627 88.7342 326.853 88.7342L353.538 87.1125C354.827 87.0289 356.043 86.4939 356.97 85.6029C357.898 84.7118 358.477 83.5226 358.603 82.2474Z"
    fill="#FAF8F1" />
  <path
    d="M310.664 48.8631L312.045 34.4627C312.063 34.3341 312.128 34.2166 312.226 34.1317C312.324 34.0467 312.45 34 312.58 34C312.709 34 312.835 34.0467 312.933 34.1317C313.031 34.2166 313.096 34.3341 313.115 34.4627L314.472 48.8516C314.559 49.6552 314.924 50.4029 315.504 50.9649C316.084 51.5269 316.843 51.8675 317.648 51.9275L334.538 52.9413C334.666 52.9602 334.784 53.0247 334.869 53.123C334.953 53.2214 335 53.347 335 53.477C335 53.6069 334.953 53.7325 334.869 53.8309C334.784 53.9292 334.666 53.9937 334.538 54.0126L317.636 55.061C316.831 55.121 316.073 55.4616 315.493 56.0236C314.912 56.5855 314.547 57.3333 314.461 58.1369L313.08 72.5373C313.061 72.6659 312.997 72.7834 312.899 72.8683C312.8 72.9533 312.675 73 312.545 73C312.415 73 312.29 72.9533 312.192 72.8683C312.093 72.7834 312.029 72.6659 312.01 72.5373L310.652 58.1484C310.566 57.3448 310.201 56.5971 309.621 56.0351C309.04 55.4731 308.282 55.1325 307.477 55.0725L290.541 54.0933C290.397 54.0933 290.26 54.0362 290.158 53.9347C290.057 53.8332 290 53.6954 290 53.5518C290 53.4082 290.057 53.2705 290.158 53.169C290.26 53.0674 290.397 53.0104 290.541 53.0104L307.454 51.9736C308.27 51.9201 309.041 51.5781 309.629 51.0084C310.217 50.4387 310.584 49.6784 310.664 48.8631Z"
    fill="#FAF8F1" />
  <path
    d="M976.664 48.8631L978.045 34.4627C978.063 34.3341 978.128 34.2166 978.226 34.1317C978.324 34.0467 978.45 34 978.58 34C978.709 34 978.835 34.0467 978.933 34.1317C979.031 34.2166 979.096 34.3341 979.115 34.4627L980.472 48.8516C980.559 49.6552 980.924 50.4029 981.504 50.9649C982.084 51.5269 982.843 51.8675 983.648 51.9275L1000.54 52.9413C1000.67 52.9602 1000.78 53.0247 1000.87 53.123C1000.95 53.2214 1001 53.347 1001 53.477C1001 53.6069 1000.95 53.7325 1000.87 53.8309C1000.78 53.9292 1000.67 53.9937 1000.54 54.0126L983.636 55.061C982.831 55.121 982.073 55.4616 981.493 56.0236C980.912 56.5855 980.547 57.3333 980.461 58.1369L979.08 72.5373C979.061 72.6659 978.997 72.7834 978.899 72.8683C978.8 72.9533 978.675 73 978.545 73C978.415 73 978.29 72.9533 978.192 72.8683C978.093 72.7834 978.029 72.6659 978.01 72.5373L976.652 58.1484C976.566 57.3448 976.201 56.5971 975.621 56.0351C975.04 55.4731 974.282 55.1325 973.477 55.0725L956.541 54.0933C956.397 54.0933 956.26 54.0362 956.158 53.9347C956.057 53.8332 956 53.6954 956 53.5518C956 53.4082 956.057 53.2705 956.158 53.169C956.26 53.0674 956.397 53.0104 956.541 53.0104L973.454 51.9736C974.27 51.9201 975.041 51.5781 975.629 51.0084C976.217 50.4387 976.584 49.6784 976.664 48.8631Z"
    fill="#FAF8F1" />
  <path
    d="M717.317 50.5276L718.207 41.2966C718.219 41.2142 718.26 41.1389 718.324 41.0844C718.387 41.0299 718.468 41 718.551 41C718.635 41 718.716 41.0299 718.779 41.0844C718.842 41.1389 718.884 41.2142 718.896 41.2966L719.771 50.5202C719.827 51.0354 720.062 51.5147 720.436 51.8749C720.81 52.2352 721.299 52.4535 721.817 52.492L732.702 53.1418C732.785 53.154 732.861 53.1953 732.915 53.2584C732.97 53.3214 733 53.4019 733 53.4852C733 53.5685 732.97 53.6491 732.915 53.7121C732.861 53.7751 732.785 53.8165 732.702 53.8286L721.81 54.5006C721.291 54.5391 720.802 54.7574 720.429 55.1177C720.055 55.4779 719.819 55.9573 719.764 56.4724L718.874 65.7034C718.862 65.7858 718.82 65.8611 718.757 65.9156C718.694 65.9701 718.613 66 718.529 66C718.445 66 718.365 65.9701 718.301 65.9156C718.238 65.8611 718.196 65.7858 718.184 65.7034L717.309 56.4798C717.254 55.9646 717.018 55.4853 716.644 55.1251C716.27 54.7648 715.782 54.5465 715.263 54.508L704.348 53.8803C704.256 53.8803 704.167 53.8437 704.102 53.7787C704.037 53.7136 704 53.6253 704 53.5332C704 53.4412 704.037 53.3529 704.102 53.2878C704.167 53.2227 704.256 53.1861 704.348 53.1861L715.248 52.5215C715.774 52.4873 716.271 52.268 716.65 51.9028C717.029 51.5376 717.265 51.0502 717.317 50.5276Z"
    fill="#FAF8F1" />
  <path
    d="M497.878 76.1497L499.474 59.5338C499.496 59.3855 499.57 59.2499 499.684 59.1519C499.797 59.0539 499.942 59 500.092 59C500.242 59 500.387 59.0539 500.5 59.1519C500.614 59.2499 500.688 59.3855 500.71 59.5338L502.279 76.1364C502.379 77.0636 502.801 77.9265 503.471 78.5749C504.142 79.2233 505.018 79.6163 505.949 79.6855L525.466 80.8553C525.614 80.8771 525.75 80.9516 525.848 81.065C525.946 81.1785 526 81.3235 526 81.4734C526 81.6234 525.946 81.7683 525.848 81.8818C525.75 81.9953 525.614 82.0697 525.466 82.0915L505.935 83.3012C505.005 83.3704 504.129 83.7634 503.458 84.4118C502.788 85.0602 502.366 85.9231 502.266 86.8503L500.67 103.466C500.649 103.615 500.574 103.75 500.461 103.848C500.347 103.946 500.202 104 500.052 104C499.902 104 499.757 103.946 499.644 103.848C499.53 103.75 499.456 103.615 499.434 103.466L497.865 86.8636C497.765 85.9364 497.343 85.0735 496.673 84.4251C496.002 83.7767 495.126 83.3837 494.195 83.3145L474.625 82.1846C474.459 82.1846 474.3 82.1187 474.183 82.0016C474.066 81.8844 474 81.7255 474 81.5598C474 81.3941 474.066 81.2352 474.183 81.1181C474.3 81.0009 474.459 80.9351 474.625 80.9351L494.169 79.7387C495.112 79.6771 496.003 79.2824 496.683 78.6251C497.362 77.9677 497.786 77.0904 497.878 76.1497Z"
    fill="#FAF8F1" />
  <path
    d="M1043.32 33.5276L1044.21 24.2966C1044.22 24.2142 1044.26 24.1389 1044.32 24.0844C1044.39 24.0299 1044.47 24 1044.55 24C1044.63 24 1044.72 24.0299 1044.78 24.0844C1044.84 24.1389 1044.88 24.2142 1044.9 24.2966L1045.77 33.5202C1045.83 34.0354 1046.06 34.5147 1046.44 34.8749C1046.81 35.2352 1047.3 35.4535 1047.82 35.492L1058.7 36.1418C1058.78 36.154 1058.86 36.1953 1058.92 36.2584C1058.97 36.3214 1059 36.4019 1059 36.4852C1059 36.5685 1058.97 36.6491 1058.92 36.7121C1058.86 36.7751 1058.78 36.8165 1058.7 36.8286L1047.81 37.5006C1047.29 37.5391 1046.8 37.7574 1046.43 38.1177C1046.05 38.4779 1045.82 38.9573 1045.76 39.4724L1044.87 48.7034C1044.86 48.7858 1044.82 48.8611 1044.76 48.9156C1044.69 48.9701 1044.61 49 1044.53 49C1044.45 49 1044.36 48.9701 1044.3 48.9156C1044.24 48.8611 1044.2 48.7858 1044.18 48.7034L1043.31 39.4798C1043.25 38.9646 1043.02 38.4853 1042.64 38.1251C1042.27 37.7648 1041.78 37.5465 1041.26 37.508L1030.35 36.8803C1030.26 36.8803 1030.17 36.8437 1030.1 36.7787C1030.04 36.7136 1030 36.6253 1030 36.5332C1030 36.4412 1030.04 36.3529 1030.1 36.2878C1030.17 36.2227 1030.26 36.1861 1030.35 36.1861L1041.25 35.5215C1041.77 35.4873 1042.27 35.268 1042.65 34.9028C1043.03 34.5376 1043.27 34.0502 1043.32 33.5276Z"
    fill="#FAF8F1" />
  <path
    d="M141.317 50.5276L142.207 41.2966C142.219 41.2142 142.26 41.1389 142.324 41.0844C142.387 41.0299 142.468 41 142.551 41C142.635 41 142.716 41.0299 142.779 41.0844C142.842 41.1389 142.884 41.2142 142.896 41.2966L143.771 50.5202C143.827 51.0354 144.062 51.5147 144.436 51.8749C144.81 52.2352 145.299 52.4535 145.817 52.492L156.702 53.1418C156.785 53.154 156.861 53.1953 156.915 53.2584C156.97 53.3214 157 53.4019 157 53.4852C157 53.5685 156.97 53.6491 156.915 53.7121C156.861 53.7751 156.785 53.8165 156.702 53.8286L145.81 54.5006C145.291 54.5391 144.802 54.7574 144.429 55.1177C144.055 55.4779 143.819 55.9573 143.764 56.4724L142.874 65.7034C142.862 65.7858 142.82 65.8611 142.757 65.9156C142.694 65.9701 142.613 66 142.529 66C142.445 66 142.365 65.9701 142.301 65.9156C142.238 65.8611 142.196 65.7858 142.184 65.7034L141.309 56.4798C141.254 55.9646 141.018 55.4853 140.644 55.1251C140.27 54.7648 139.782 54.5465 139.263 54.508L128.348 53.8803C128.256 53.8803 128.167 53.8437 128.102 53.7787C128.037 53.7136 128 53.6253 128 53.5332C128 53.4412 128.037 53.3529 128.102 53.2878C128.167 53.2227 128.256 53.1861 128.348 53.1861L139.248 52.5215C139.774 52.4873 140.271 52.268 140.65 51.9028C141.029 51.5376 141.265 51.0502 141.317 50.5276Z"
    fill="#FAF8F1" />
  <path
    d="M13.3167 9.52761L14.2065 0.296583C14.2187 0.214165 14.2602 0.138852 14.3235 0.0843998C14.3868 0.0299478 14.4677 0 14.5513 0C14.635 0 14.7158 0.0299478 14.7791 0.0843998C14.8424 0.138852 14.8839 0.214165 14.8961 0.296583L15.771 9.52024C15.8268 10.0354 16.0621 10.5147 16.436 10.8749C16.8099 11.2352 17.2987 11.4535 17.8175 11.492L28.7022 12.1418C28.785 12.154 28.8606 12.1953 28.9153 12.2584C28.97 12.3214 29 12.4019 29 12.4852C29 12.5685 28.97 12.6491 28.9153 12.7121C28.8606 12.7751 28.785 12.8165 28.7022 12.8286L17.81 13.5006C17.2913 13.5391 16.8025 13.7574 16.4286 14.1177C16.0547 14.4779 15.8194 14.9573 15.7636 15.4724L14.8739 24.7034C14.8617 24.7858 14.8201 24.8611 14.7568 24.9156C14.6935 24.9701 14.6127 25 14.5291 25C14.4454 25 14.3646 24.9701 14.3013 24.9156C14.238 24.8611 14.1964 24.7858 14.1843 24.7034L13.3093 15.4798C13.2535 14.9646 13.0183 14.4853 12.6444 14.1251C12.2705 13.7648 11.7816 13.5465 11.2629 13.508L0.348468 12.8803C0.256043 12.8803 0.167406 12.8437 0.102051 12.7787C0.0366969 12.7136 0 12.6253 0 12.5332C0 12.4412 0.0366969 12.3529 0.102051 12.2878C0.167406 12.2227 0.256043 12.1861 0.348468 12.1861L11.2481 11.5215C11.7742 11.4873 12.271 11.268 12.6499 10.9028C13.0288 10.5376 13.2651 10.0502 13.3167 9.52761Z"
    fill="#FAF8F1" />
  <path
    d="M1257.87 81.345L1260.6 52.9135C1260.64 52.6596 1260.76 52.4277 1260.96 52.26C1261.15 52.0922 1261.4 52 1261.66 52C1261.91 52 1262.16 52.0922 1262.36 52.26C1262.55 52.4277 1262.68 52.6596 1262.72 52.9135L1265.4 81.3223C1265.57 82.9089 1266.29 84.3853 1267.44 85.4948C1268.59 86.6043 1270.09 87.2768 1271.68 87.3953L1305.09 89.3969C1305.34 89.4342 1305.57 89.5615 1305.74 89.7557C1305.91 89.9499 1306 90.1979 1306 90.4545C1306 90.7111 1305.91 90.9591 1305.74 91.1533C1305.57 91.3475 1305.34 91.4748 1305.09 91.5121L1271.66 93.582C1270.07 93.7004 1268.57 94.3729 1267.42 95.4824C1266.27 96.592 1265.55 98.0684 1265.38 99.655L1262.65 128.087C1262.61 128.34 1262.48 128.572 1262.29 128.74C1262.09 128.908 1261.85 129 1261.59 129C1261.33 129 1261.08 128.908 1260.89 128.74C1260.7 128.572 1260.57 128.34 1260.53 128.087L1257.85 99.6777C1257.67 98.0911 1256.95 96.6147 1255.81 95.5052C1254.66 94.3957 1253.16 93.7232 1251.57 93.6047L1218.07 91.6714C1217.79 91.6714 1217.51 91.5587 1217.31 91.3583C1217.11 91.1578 1217 90.8859 1217 90.6023C1217 90.3188 1217.11 90.0469 1217.31 89.8464C1217.51 89.646 1217.79 89.5333 1218.07 89.5333L1251.52 87.4863C1253.13 87.3808 1254.66 86.7055 1255.82 85.5807C1256.98 84.4559 1257.71 82.9547 1257.87 81.345Z"
    fill="#FAF8F1" />
</svg>