<svg width="1350" height="242" viewBox="0 0 1350 242" fill="none" xmlns="http://www.w3.org/2000/svg">
  <path
    d="M26.1743 -5.3259L27.9232 -23.4187C27.9471 -23.5802 28.0287 -23.7279 28.1531 -23.8346C28.2775 -23.9413 28.4365 -24 28.6009 -24C28.7653 -24 28.9241 -23.9413 29.0486 -23.8346C29.173 -23.7279 29.2546 -23.5802 29.2785 -23.4187L30.9982 -5.34034C31.1078 -4.3307 31.5703 -3.39119 32.3052 -2.68512C33.0401 -1.97906 34.0009 -1.55113 35.0205 -1.47574L56.4147 -0.202002C56.5774 -0.178249 56.726 -0.0972004 56.8335 0.0263672C56.9409 0.149933 57 0.307768 57 0.471045C57 0.634321 56.9409 0.792156 56.8335 0.915724C56.726 1.03929 56.5774 1.12034 56.4147 1.14409L35.0059 2.46125C33.9863 2.53664 33.0255 2.96457 32.2906 3.67064C31.5558 4.3767 31.0932 5.31626 30.9836 6.3259L29.2348 24.4187C29.2109 24.5802 29.1292 24.7278 29.0048 24.8346C28.8804 24.9413 28.7215 25 28.5571 25C28.3927 25 28.2338 24.9413 28.1094 24.8346C27.985 24.7278 27.9033 24.5802 27.8794 24.4187L26.1597 6.34034C26.0501 5.3307 25.5876 4.39119 24.8528 3.68512C24.1179 2.97906 23.157 2.55112 22.1374 2.47574L0.684921 1.24542C0.503257 1.24542 0.32904 1.17374 0.200584 1.04616C0.0721284 0.918585 0 0.745556 0 0.56513C0 0.384706 0.0721284 0.211678 0.200584 0.0840988C0.32904 -0.0434799 0.503257 -0.11516 0.684921 -0.11516L22.1083 -1.41783C23.1424 -1.48494 24.1189 -1.9147 24.8636 -2.63048C25.6083 -3.34627 26.0729 -4.30155 26.1743 -5.3259Z"
    fill="#F6E8D7" />
  <path
    d="M177.766 110.104L179.822 88.6881C179.85 88.4969 179.946 88.3221 180.092 88.1958C180.238 88.0695 180.425 88 180.619 88C180.812 88 180.999 88.0695 181.145 88.1958C181.291 88.3221 181.387 88.4969 181.415 88.6881L183.436 110.087C183.565 111.282 184.109 112.394 184.973 113.23C185.837 114.066 186.966 114.572 188.164 114.661L213.312 116.169C213.503 116.197 213.678 116.293 213.804 116.439C213.931 116.586 214 116.772 214 116.966C214 117.159 213.931 117.346 213.804 117.492C213.678 117.638 213.503 117.734 213.312 117.762L188.147 119.321C186.949 119.411 185.819 119.917 184.956 120.753C184.092 121.589 183.548 122.701 183.419 123.896L181.364 145.312C181.336 145.503 181.24 145.678 181.093 145.804C180.947 145.931 180.76 146 180.567 146C180.374 146 180.187 145.931 180.041 145.804C179.895 145.678 179.799 145.503 179.771 145.312L177.749 123.913C177.62 122.718 177.077 121.606 176.213 120.77C175.349 119.934 174.22 119.428 173.021 119.339L147.805 117.882C147.592 117.882 147.387 117.797 147.236 117.646C147.085 117.495 147 117.291 147 117.077C147 116.864 147.085 116.659 147.236 116.508C147.387 116.357 147.592 116.272 147.805 116.272L172.987 114.73C174.202 114.65 175.35 114.142 176.226 113.295C177.101 112.447 177.647 111.317 177.766 110.104Z"
    fill="#ECD2B0" />
  <path
    d="M596.848 198.342L598.842 177.664C598.869 177.48 598.963 177.311 599.104 177.189C599.246 177.067 599.428 177 599.615 177C599.802 177 599.984 177.067 600.126 177.189C600.267 177.311 600.36 177.48 600.388 177.664L602.349 198.325C602.474 199.479 603.001 200.553 603.839 201.36C604.677 202.167 605.773 202.656 606.936 202.742L631.333 204.198C631.518 204.225 631.688 204.317 631.81 204.459C631.933 204.6 632 204.78 632 204.967C632 205.154 631.933 205.334 631.81 205.475C631.688 205.616 631.518 205.709 631.333 205.736L606.919 207.241C605.756 207.328 604.661 207.817 603.823 208.624C602.985 209.431 602.457 210.504 602.332 211.658L600.338 232.336C600.311 232.52 600.218 232.689 600.076 232.811C599.934 232.933 599.753 233 599.565 233C599.378 233 599.196 232.933 599.055 232.811C598.913 232.689 598.82 232.52 598.792 232.336L596.831 211.675C596.706 210.521 596.179 209.447 595.341 208.64C594.503 207.833 593.407 207.344 592.244 207.258L567.781 205.852C567.574 205.852 567.375 205.77 567.229 205.624C567.082 205.478 567 205.281 567 205.074C567 204.868 567.082 204.67 567.229 204.525C567.375 204.379 567.574 204.297 567.781 204.297L592.211 202.808C593.39 202.731 594.504 202.24 595.353 201.422C596.202 200.604 596.732 199.513 596.848 198.342Z"
    fill="#E3BB88" />
  <path
    d="M636.235 225.909L637.186 216.308C637.199 216.223 637.244 216.144 637.311 216.088C637.379 216.031 637.465 216 637.555 216C637.644 216 637.731 216.031 637.798 216.088C637.866 216.144 637.91 216.223 637.923 216.308L638.859 225.901C638.918 226.437 639.17 226.935 639.57 227.31C639.969 227.685 640.492 227.912 641.046 227.952L652.682 228.628C652.77 228.64 652.851 228.683 652.909 228.749C652.968 228.814 653 228.898 653 228.985C653 229.071 652.968 229.155 652.909 229.221C652.851 229.286 652.77 229.329 652.682 229.342L641.038 230.041C640.484 230.081 639.961 230.308 639.562 230.682C639.162 231.057 638.91 231.556 638.851 232.091L637.9 241.692C637.887 241.777 637.842 241.856 637.775 241.912C637.707 241.969 637.62 242 637.531 242C637.442 242 637.355 241.969 637.288 241.912C637.22 241.856 637.175 241.777 637.162 241.692L636.227 232.099C636.168 231.563 635.916 231.065 635.516 230.69C635.117 230.315 634.594 230.088 634.04 230.048L622.373 229.396C622.274 229.396 622.179 229.357 622.109 229.29C622.039 229.222 622 229.13 622 229.035C622 228.939 622.039 228.847 622.109 228.779C622.179 228.712 622.274 228.674 622.373 228.674L634.024 227.982C634.586 227.947 635.117 227.719 635.522 227.339C635.927 226.959 636.18 226.452 636.235 225.909Z"
    fill="#ECD2B0" />
  <path
    d="M348.603 55.2474L350.781 32.7237C350.811 32.5226 350.913 32.3388 351.068 32.2059C351.223 32.0731 351.421 32 351.626 32C351.83 32 352.028 32.0731 352.183 32.2059C352.338 32.3388 352.44 32.5226 352.47 32.7237L354.612 55.2294C354.748 56.4863 355.324 57.6559 356.24 58.5348C357.155 59.4138 358.352 59.9466 359.622 60.0404L386.271 61.6261C386.474 61.6556 386.659 61.7565 386.793 61.9104C386.926 62.0642 387 62.2607 387 62.464C387 62.6672 386.926 62.8637 386.793 63.0175C386.659 63.1714 386.474 63.2723 386.271 63.3018L359.604 64.9416C358.334 65.0354 357.137 65.5681 356.222 66.4471C355.306 67.3261 354.73 68.4957 354.594 69.7526L352.415 92.2763C352.386 92.4774 352.284 92.6612 352.129 92.7941C351.974 92.9269 351.776 93 351.571 93C351.366 93 351.168 92.9269 351.013 92.7941C350.859 92.6612 350.757 92.4774 350.727 92.2763L348.585 69.7706C348.448 68.5137 347.872 67.3441 346.957 66.4652C346.042 65.5862 344.845 65.0534 343.575 64.9596L316.853 63.428C316.627 63.428 316.41 63.3387 316.25 63.1799C316.09 63.0211 316 62.8057 316 62.5811C316 62.3565 316.09 62.1411 316.25 61.9822C316.41 61.8234 316.627 61.7342 316.853 61.7342L343.538 60.1125C344.827 60.0289 346.043 59.4939 346.97 58.6029C347.898 57.7118 348.477 56.5226 348.603 55.2474Z"
    fill="#F6E8D7" />
  <path
    d="M706.011 77.1985L707.883 57.6288C707.908 57.454 707.996 57.2944 708.129 57.1789C708.262 57.0635 708.432 57 708.608 57C708.784 57 708.954 57.0635 709.087 57.1789C709.22 57.2944 709.308 57.454 709.333 57.6288L711.173 77.1829C711.291 78.275 711.786 79.2912 712.572 80.0549C713.359 80.8186 714.387 81.2814 715.478 81.363L738.374 82.7407C738.548 82.7664 738.707 82.854 738.822 82.9877C738.937 83.1214 739 83.2921 739 83.4687C739 83.6453 738.937 83.816 738.822 83.9497C738.707 84.0833 738.548 84.171 738.374 84.1967L715.463 85.6214C714.371 85.7029 713.343 86.1658 712.557 86.9295C711.77 87.6932 711.275 88.7094 711.158 89.8015L709.286 109.371C709.261 109.546 709.173 109.706 709.04 109.821C708.907 109.937 708.737 110 708.561 110C708.385 110 708.215 109.937 708.082 109.821C707.949 109.706 707.861 109.546 707.836 109.371L705.995 89.8171C705.878 88.725 705.383 87.7088 704.597 86.9451C703.81 86.1814 702.782 85.7186 701.691 85.637L678.733 84.3063C678.539 84.3063 678.352 84.2287 678.215 84.0907C678.077 83.9528 678 83.7656 678 83.5704C678 83.3753 678.077 83.1881 678.215 83.0501C678.352 82.9122 678.539 82.8346 678.733 82.8346L701.66 81.4256C702.766 81.353 703.811 80.8882 704.608 80.114C705.405 79.3398 705.903 78.3065 706.011 77.1985Z"
    fill="#D9A561" />
  <path
    d="M1193.01 -6.80148L1194.88 -26.3712C1194.91 -26.546 1195 -26.7056 1195.13 -26.8211C1195.26 -26.9365 1195.43 -27 1195.61 -27C1195.78 -27 1195.95 -26.9365 1196.09 -26.8211C1196.22 -26.7056 1196.31 -26.546 1196.33 -26.3712L1198.17 -6.8171C1198.29 -5.72504 1198.79 -4.70884 1199.57 -3.94513C1200.36 -3.18143 1201.39 -2.71856 1202.48 -2.63703L1225.37 -1.25931C1225.55 -1.23362 1225.71 -1.14595 1225.82 -1.0123C1225.94 -0.878643 1226 -0.707922 1226 -0.531317C1226 -0.354713 1225.94 -0.183992 1225.82 -0.0503387C1225.71 0.0833149 1225.55 0.17098 1225.37 0.196672L1202.46 1.62136C1201.37 1.70289 1200.34 2.16576 1199.56 2.92946C1198.77 3.69317 1198.28 4.70942 1198.16 5.80148L1196.29 25.3712C1196.26 25.546 1196.17 25.7056 1196.04 25.8211C1195.91 25.9365 1195.74 26 1195.56 26C1195.39 26 1195.22 25.9365 1195.08 25.8211C1194.95 25.7056 1194.86 25.546 1194.84 25.3712L1193 5.8171C1192.88 4.72504 1192.38 3.70884 1191.6 2.94514C1190.81 2.18143 1189.78 1.71856 1188.69 1.63703L1165.73 0.306274C1165.54 0.306274 1165.35 0.228743 1165.21 0.0907497C1165.08 -0.047245 1165 -0.234398 1165 -0.42955C1165 -0.624702 1165.08 -0.811857 1165.21 -0.94985C1165.35 -1.08784 1165.54 -1.16538 1165.73 -1.16538L1188.66 -2.57439C1189.77 -2.64698 1190.81 -3.11181 1191.61 -3.88603C1192.41 -4.66025 1192.9 -5.69352 1193.01 -6.80148Z"
    fill="#F6E8D7" />
  <path
    d="M985.134 9.44269L988.417 -24.8967C988.462 -25.2033 988.615 -25.4835 988.849 -25.686C989.082 -25.8886 989.381 -26 989.689 -26C989.998 -26 990.296 -25.8886 990.53 -25.686C990.763 -25.4835 990.916 -25.2033 990.961 -24.8967L994.19 9.41528C994.395 11.3315 995.264 13.1147 996.643 14.4548C998.023 15.7948 999.826 16.607 1001.74 16.7501L1041.9 19.1676C1042.21 19.2127 1042.49 19.3665 1042.69 19.6011C1042.89 19.8356 1043 20.1352 1043 20.445C1043 20.7549 1042.89 21.0545 1042.69 21.289C1042.49 21.5236 1042.21 21.6774 1041.9 21.7225L1001.71 24.2224C999.799 24.3655 997.995 25.1777 996.616 26.5177C995.236 27.8578 994.368 29.6411 994.162 31.5573L990.879 65.8967C990.835 66.2033 990.681 66.4835 990.448 66.686C990.214 66.8886 989.916 67 989.607 67C989.299 67 989 66.8886 988.767 66.686C988.533 66.4835 988.38 66.2033 988.335 65.8967L985.107 31.5847C984.901 29.6685 984.033 27.8853 982.653 26.5452C981.274 25.2052 979.47 24.393 977.556 24.2499L937.286 21.9148C936.945 21.9148 936.618 21.7787 936.377 21.5366C936.135 21.2945 936 20.9661 936 20.6236C936 20.2812 936.135 19.9528 936.377 19.7106C936.618 19.4685 936.945 19.3325 937.286 19.3325L977.501 16.86C979.443 16.7327 981.276 15.917 982.674 14.5585C984.072 13.1999 984.944 11.3868 985.134 9.44269Z"
    fill="#F6E8D7" />
  <path
    d="M1124.52 77.0096L1126.76 53.7474C1126.79 53.5397 1126.9 53.3499 1127.06 53.2127C1127.22 53.0755 1127.42 53 1127.63 53C1127.84 53 1128.04 53.0755 1128.2 53.2127C1128.36 53.3499 1128.47 53.5397 1128.5 53.7474L1130.7 76.991C1130.84 78.2891 1131.43 79.497 1132.37 80.4048C1133.31 81.3126 1134.54 81.8628 1135.85 81.9598L1163.25 83.5974C1163.46 83.628 1163.65 83.7322 1163.79 83.891C1163.92 84.0499 1164 84.2528 1164 84.4628C1164 84.6727 1163.92 84.8756 1163.79 85.0345C1163.65 85.1934 1163.46 85.2976 1163.25 85.3281L1135.83 87.0216C1134.53 87.1185 1133.3 87.6687 1132.35 88.5765C1131.41 89.4843 1130.82 90.6923 1130.68 91.9904L1128.44 115.253C1128.41 115.46 1128.31 115.65 1128.15 115.787C1127.99 115.925 1127.78 116 1127.57 116C1127.36 116 1127.16 115.925 1127 115.787C1126.84 115.65 1126.74 115.46 1126.71 115.253L1124.5 92.009C1124.36 90.7109 1123.77 89.503 1122.83 88.5952C1121.89 87.6874 1120.66 87.1372 1119.35 87.0402L1091.88 85.4584C1091.64 85.4584 1091.42 85.3662 1091.26 85.2022C1091.09 85.0382 1091 84.8157 1091 84.5837C1091 84.3518 1091.09 84.1293 1091.26 83.9653C1091.42 83.8012 1091.64 83.7091 1091.88 83.7091L1119.31 82.0342C1120.64 81.9479 1121.89 81.3954 1122.84 80.4751C1123.8 79.5548 1124.39 78.3266 1124.52 77.0096Z"
    fill="#ECD2B0" />
  <path
    d="M228.746 132.101L230.065 118.439C230.083 118.317 230.144 118.206 230.238 118.125C230.332 118.044 230.452 118 230.576 118C230.7 118 230.82 118.044 230.914 118.125C231.008 118.206 231.069 118.317 231.087 118.439L232.385 132.09C232.467 132.852 232.816 133.562 233.371 134.095C233.925 134.628 234.65 134.951 235.419 135.008L251.558 135.97C251.681 135.988 251.793 136.049 251.874 136.142C251.955 136.236 252 136.355 252 136.478C252 136.601 251.955 136.721 251.874 136.814C251.793 136.907 251.681 136.968 251.558 136.986L235.408 137.981C234.639 138.038 233.914 138.361 233.36 138.894C232.805 139.427 232.456 140.137 232.374 140.899L231.054 154.561C231.036 154.683 230.975 154.794 230.881 154.875C230.787 154.956 230.667 155 230.543 155C230.419 155 230.299 154.956 230.205 154.875C230.111 154.794 230.05 154.683 230.032 154.561L228.735 140.91C228.652 140.148 228.303 139.438 227.749 138.905C227.194 138.372 226.469 138.049 225.7 137.992L209.517 137.063C209.38 137.063 209.248 137.009 209.151 136.912C209.054 136.816 209 136.685 209 136.549C209 136.413 209.054 136.282 209.151 136.186C209.248 136.09 209.38 136.035 209.517 136.035L225.678 135.052C226.458 135.001 227.195 134.677 227.757 134.136C228.319 133.596 228.669 132.874 228.746 132.101Z"
    fill="#ECD2B0" />
</svg>