<svg width="17" height="16" viewBox="0 0 17 16" fill="none" xmlns="http://www.w3.org/2000/svg">
<g id="icon/s/copy">
<path id="Union" fill-rule="evenodd" clip-rule="evenodd" d="M7.25 2C6.69772 2 6.25 2.44772 6.25 3V4H8.25H12.25V8V10H13.25C13.8023 10 14.25 9.55228 14.25 9V3C14.25 2.44772 13.8023 2 13.25 2H7.25ZM4.25 12V8H8.25V12H4.25ZM2.25 7C2.25 6.44772 2.69772 6 3.25 6H9.25C9.80228 6 10.25 6.44772 10.25 7V13C10.25 13.5523 9.80228 14 9.25 14H3.25C2.69772 14 2.25 13.5523 2.25 13V7Z" fill="#0D2321"/>
</g>
</svg>
