<svg width="16" height="16" viewBox="0 0 16 16" fill="none" xmlns="http://www.w3.org/2000/svg">
<g id="icon/s/notif-correct">
<path id="Union" fill-rule="evenodd" clip-rule="evenodd" d="M8 13C10.5695 13 12.6864 11.0617 12.9681 8.56752L14.8725 6.66317C14.9562 7.0959 15 7.54283 15 8C15 11.866 11.866 15 8 15C4.13401 15 1 11.866 1 8C1 4.13401 4.13401 1 8 1C9.54123 1 10.9661 1.4981 12.1225 2.3421L10.6839 3.78066C9.90852 3.28639 8.98771 3 8 3C5.23858 3 3 5.23858 3 8C3 10.7614 5.23858 13 8 13ZM9.41429 10L15.2072 4.20711L13.793 2.79289L8.00008 8.58578L5.70718 6.29289L4.29297 7.70711L6.58586 10C7.36691 10.781 8.63324 10.781 9.41429 10Z" fill="#11BEA9"/>
</g>
</svg>
