<svg width="503" height="443" viewBox="0 0 503 443" fill="none" xmlns="http://www.w3.org/2000/svg">
  <path fill-rule="evenodd" clip-rule="evenodd"
    d="M435.519 136.809C437.052 137.874 438.246 139.356 438.96 141.079C439.333 142.081 439.48 143.154 439.39 144.219C439.31 145.039 439.181 145.854 439.006 146.659C438.645 148.234 438.074 149.754 437.308 151.178C436.911 151.911 436.449 152.606 435.927 153.256L435.678 153.618L435.995 155.628C436.093 156.431 436.146 157.238 436.153 158.046C436.133 161.249 435.411 164.409 434.038 167.305C432.666 170.2 430.676 172.762 428.208 174.809L427.913 175.058L427.551 175.193C424.383 176.316 421.137 177.207 417.84 177.859C414.469 178.56 411.026 178.848 407.585 178.718H407.359H407.087C400.284 176.562 393.274 175.123 386.171 174.425C385.915 174.406 385.658 174.387 385.399 174.368C383.844 174.254 382.225 174.135 380.556 173.883C378.638 173.572 376.751 173.088 374.92 172.437C371.747 171.326 368.412 170.745 365.05 170.72H364.892C363.858 172.289 363.172 174.06 362.879 175.914C362.587 177.769 362.694 179.664 363.194 181.474C364.168 186.004 365.824 190.361 368.106 194.397C370.588 198.658 372.796 203.072 374.716 207.613C376.81 212.396 377.726 217.609 377.387 222.818L377.048 226.884L373.788 224.422C373.879 229.128 373.331 233.825 372.158 238.384C370.669 244.089 368.018 249.426 364.371 254.063C361.921 257.079 358.992 259.674 355.701 261.744C355.527 270.047 354.217 278.286 351.807 286.234C349.649 293.43 348.343 300.853 347.914 308.352V315.604C348.05 323.421 348.185 331.509 343.816 338.897C341.236 343.142 337.807 346.81 333.743 349.674C332.294 350.735 330.845 351.91 329.215 353.311C328.016 354.373 326.25 356.045 324.371 357.83C324.166 358.023 323.961 358.218 323.756 358.412C320.834 361.183 317.917 363.947 315.95 365.488L315.384 365.918C312.057 368.538 308.344 371.385 303.432 371.385C300.626 371.087 297.789 371.294 295.056 371.995C294.581 372.13 294.06 372.311 293.539 372.515C291.687 373.278 289.722 373.736 287.722 373.87H287.314C282.787 373.599 276.992 370.617 275.996 367.092L275.226 364.449L276.629 364.336C273.732 361.557 271.604 358.801 271.604 354.983V352.068L274.343 352.769C273.96 351.995 273.752 351.147 273.732 350.284V346.691L276.901 348.16C277.014 347.821 277.014 347.505 277.014 347.211C277.017 346.036 277.274 344.874 277.766 343.806C278.258 342.738 278.974 341.788 279.867 341.021C282.425 338.829 286.092 338.965 290.823 339.823L291.547 339.936C292.548 340.17 293.576 340.269 294.603 340.23C295.94 339.99 297.227 339.524 298.406 338.852L298.791 338.649C302.888 336.615 313.822 331.148 316.742 324.37C317.196 323.046 317.433 321.658 317.444 320.258C317.457 319.335 317.767 318.44 318.327 317.706C319.365 316.292 320.81 315.228 322.47 314.656C322.06 309.971 321.009 305.364 319.346 300.965C316.648 293.238 314.522 285.325 312.985 277.288C309.544 278.417 306.148 279.638 302.888 281.061C297.944 283.218 293.296 285.997 289.057 289.33C284.655 292.563 280.501 296.12 276.629 299.971C272.755 303.785 269.212 307.919 266.035 312.329C262.873 316.658 260.307 321.392 258.407 326.404C257.475 328.815 256.858 331.336 256.573 333.904C256.433 336.53 256.547 339.163 256.912 341.766C257.546 347.234 258.361 352.701 259.176 358.168C260.874 369.126 262.776 380.06 264.768 390.972C265.308 393.845 265.871 396.711 266.434 399.577C267.827 406.675 269.22 413.768 270.268 420.93L270.902 420.704C271.808 420.373 272.777 420.256 273.736 420.362C274.694 420.468 275.615 420.794 276.426 421.314C277.142 421.779 277.784 422.35 278.327 423.008L279.708 422.466H279.934C281.178 422.114 282.5 422.162 283.715 422.602C284.784 423.013 285.75 423.653 286.545 424.477C287.873 425.846 288.925 427.456 289.646 429.221C290.979 432.448 291.745 435.879 291.91 439.365L292.091 441.963H289.442L252.362 442.212H250.28L249.737 440.178C248.233 434.809 247.056 429.372 245.892 423.999C245.269 421.121 244.65 418.261 243.987 415.44C243.489 413.429 242.968 411.464 242.357 409.589C242.017 408.64 241.678 407.758 241.315 406.923L240.704 405.793L239.867 404.596C239.528 404.11 239.282 403.566 239.142 402.992L238.961 402.133L238.644 400.574L237.988 397.479L236.72 391.266C233.347 374.683 230.45 357.988 228.186 341.202C227.122 333.52 226.194 325.568 225.515 317.706C216.908 330.02 206.622 341.076 194.955 350.555L194.366 351.029C191.251 353.02 188.64 355.703 186.737 358.869C185.528 362.004 185.048 365.372 185.334 368.719C185.651 387.79 188.63 406.724 194.185 424.974C195.611 424.698 196.397 424.501 197.539 424.216L197.762 424.16L198.894 423.844C202.778 422.332 206.984 421.826 211.118 422.376C215.6 423.415 223.206 426.826 223.885 439.23L224.021 441.602H181.78L181.101 440.54C165.911 415.553 159.211 383.11 160.727 341.405C160.783 340.675 161.006 339.967 161.379 339.337C161.752 338.706 162.265 338.169 162.878 337.768C171.842 331.147 178.111 321.52 180.535 310.657C180.535 310.65 180.541 310.574 180.551 310.437C180.745 307.923 182.542 284.621 179.924 275.797C177.158 269.993 173.499 264.657 169.08 259.982C167.79 258.491 166.704 257.203 165.866 256.074C157.105 263.168 150.337 272.272 143.84 281.083C137.709 290.046 130.586 298.292 122.606 305.664C118.079 309.685 113.71 313.097 109.024 316.711C97.648 325.143 87.0426 334.563 77.3321 344.861C63.3876 359.14 40.2073 387.764 38.351 421.901C40.0922 421.699 41.8442 422.177 43.2406 423.234C43.5204 423.441 43.7852 423.668 44.033 423.912C44.7578 423.62 45.5196 423.43 46.2967 423.347C47.5307 423.212 48.7786 423.399 49.9186 423.889C51.9219 424.871 53.5219 426.516 54.446 428.543C56.02 431.978 56.7939 435.725 56.7097 439.501V441.76H17.6607L17.2306 440.02C15.5923 433.42 14.974 426.609 15.397 419.823C15.8912 413.072 17.2844 406.416 19.5396 400.032C22.4548 391.588 26.3676 383.693 30.2383 375.882C32.1985 371.926 34.1479 367.992 35.9515 364.02C38.668 358.033 41.158 352.023 43.4217 345.946C43.965 344.455 44.4858 342.919 44.9159 341.427L45.2327 340.253C45.467 339.462 45.9039 338.745 46.5004 338.174C46.7773 337.923 47.081 337.704 47.4059 337.519L47.8813 337.225L48.8321 336.638C51.3806 334.824 53.7393 332.757 55.8722 330.47C56.9361 329.341 57.9774 328.143 58.9508 326.901L60.4222 325.003C60.8524 324.37 61.2145 323.828 61.6446 323.105C63.1738 320.596 64.6448 317.952 66.1114 315.316C66.2298 315.103 66.348 314.891 66.4663 314.678C69.5676 308.94 72.601 303.134 75.5212 297.305C81.3615 285.602 86.9303 273.764 91.6841 261.654C92.8839 258.717 93.9931 255.667 94.9892 252.617C96.0384 249.598 96.8779 246.511 97.5019 243.377C97.9256 241.453 98.3348 239.52 98.7452 237.581C99.6942 233.097 100.649 228.585 101.803 224.106C102.618 220.875 103.501 217.667 104.61 214.436C105.773 211.238 107.181 208.134 108.82 205.151C111.992 199.209 115.786 193.62 120.139 188.478C122.176 185.902 124.417 183.394 126.93 181.158C129.443 178.921 131.956 176.73 134.649 174.764C136.664 173.25 138.769 171.872 140.897 170.562C140.054 169.112 138.922 167.851 137.57 166.857C135.87 165.75 133.971 164.982 131.978 164.597C130.469 164.281 128.96 164.045 127.451 163.809C126.696 163.691 125.942 163.573 125.187 163.445L118.396 162.383L90.8919 157.865L36.0194 148.467L22.3013 146.207C17.4879 145.654 12.7689 144.469 8.26635 142.683C5.75695 141.614 3.5772 139.899 1.95051 137.713C1.53637 137.147 1.18001 136.542 0.886629 135.905C0.781011 135.694 0.695514 135.484 0.610019 135.273C0.567245 135.167 0.52447 135.062 0.479177 134.956L0.298041 134.482C0.205269 134.254 0.12952 134.02 0.071587 133.782C-0.110557 132.91 0.0580804 132.003 0.540937 131.254C1.02379 130.506 1.78214 129.978 2.65225 129.783C3.04847 129.706 3.45587 129.706 3.85209 129.783H4.2822L5.14242 129.896L18.951 131.68L74.163 138.752L184.632 152.578L212.001 155.877C221.214 157.006 230.359 157.865 239.595 158.385C244.022 158.853 248.493 158.717 252.883 157.978C257.204 157.049 261.342 155.416 265.13 153.143C269.207 150.742 273.451 148.635 277.829 146.84C282.268 145.142 286.874 143.915 291.57 143.18C293.585 142.581 295.892 143.483 297.779 144.256C297.602 144.912 297.524 145.659 297.569 146.524C297.914 152.993 299.61 159.318 302.549 165.095C305.341 161.42 308.05 157.699 310.676 153.934C314.059 149.079 317.194 144.057 320.07 138.887C321.549 136.24 322.858 133.465 324.179 130.663C325.405 128.061 326.643 125.437 328.038 122.869C329.443 120.125 331.087 117.509 332.951 115.052C333.918 113.793 335.036 112.655 336.278 111.664C337.515 110.658 339.033 110.058 340.625 109.947C335.554 114.488 331.592 126.688 327.676 140.356C324.484 151.449 313.732 176.73 306.941 177.362C304.292 177.498 303.341 176.255 301.53 173.68L300.059 171.646C297.452 168.021 295.463 163.99 294.173 159.718C293.056 155.811 292.358 151.797 292.091 147.744C287.901 148.445 283.792 149.558 279.821 151.065C275.622 152.799 271.552 154.83 267.642 157.142C263.436 159.636 258.848 161.422 254.06 162.429C249.297 163.233 244.448 163.4 239.64 162.926C230.336 162.406 221.01 161.502 211.797 160.373L184.406 156.984L73.914 143.18L18.702 136.086L5.59505 134.414C5.70145 134.637 5.83049 134.849 5.97998 135.047C6.74956 136.123 7.74635 137.018 8.90012 137.667C13.5779 139.64 21.3118 140.632 34.0203 142.262C38.7777 142.872 44.2322 143.571 50.4845 144.445C59.2727 145.707 67.3505 146.979 76.3754 148.401C86.4131 149.982 97.6224 151.747 112.284 153.889C133.608 157.029 162.086 161.276 153.031 167.241C148.477 169.325 144.14 171.853 140.082 174.787C134.224 179.83 128.823 185.379 123.942 191.369C119.867 196.312 116.33 201.674 113.393 207.365C111.913 210.156 110.649 213.056 109.613 216.04C108.617 219.022 107.802 222.163 107.055 225.303C105.936 230.038 104.907 234.81 103.871 239.612C103.523 241.225 103.175 242.842 102.822 244.461C102.575 245.566 102.319 246.63 102.052 247.737C101.926 248.259 101.798 248.791 101.667 249.341C101.398 250.475 101.05 251.519 100.702 252.567C100.522 253.106 100.342 253.646 100.173 254.199C99.7531 255.335 99.3534 256.463 98.9563 257.583C98.2403 259.603 97.5331 261.598 96.7321 263.574C91.8652 275.91 86.138 287.793 80.1844 299.541C77.1963 305.415 74.1177 311.244 70.9032 317.005C69.296 319.897 67.6887 322.766 65.9004 325.635C65.4929 326.381 64.9271 327.194 64.4291 327.895L62.8671 329.905C61.7805 331.216 60.6938 332.504 59.5167 333.746C57.1469 336.26 54.5307 338.531 51.707 340.524L49.8733 341.653L49.5565 342.851C49.0811 344.5 48.5378 346.081 47.9718 347.64C45.6855 353.921 43.1275 359.998 40.3658 366.008C38.5238 370.048 36.5625 374.012 34.6119 377.954C30.7374 385.784 26.9053 393.529 24.1349 401.613C21.9951 407.614 20.6778 413.876 20.2187 420.229C19.867 425.973 20.3241 431.738 21.5769 437.354H33.3482C32.9181 432.384 31.4693 427.007 27.9605 428.317C26.3307 428.815 24.6555 429.266 22.8898 429.65C24.4971 428.25 26.1496 426.917 27.8927 425.674C28.0132 425.573 28.1419 425.483 28.2775 425.403C27.7795 409.001 37.853 383.765 49.5338 365.579C57.3128 354.069 65.9066 343.129 75.2495 332.842C80.2758 327.39 85.1477 323.178 90.2068 318.804C104.037 306.848 119.265 293.682 142.867 250.674C147.411 241.513 151.555 236.543 154.867 232.57C160.793 225.461 164.058 221.544 162.199 202.53C163.541 209.283 165.748 215.835 168.764 222.027C171.643 226.682 175.849 229.729 180.178 232.865C182.657 234.66 185.175 236.484 187.507 238.655L187.801 238.949C194.694 243.467 201.063 248.733 206.794 254.65C212.68 260.163 223.07 264.501 230.789 264.207C229.733 256.877 229.65 249.441 230.54 242.089C231.436 250.457 232.873 258.758 234.841 266.941C236.675 275.187 238.169 283.794 236.675 292.831C235.861 297.391 233.88 301.664 230.925 305.235L230.02 306.319C229.952 306.436 229.913 306.568 229.906 306.703C229.893 306.823 229.893 306.944 229.906 307.065V307.855V309.414C229.968 310.116 230.024 310.82 230.08 311.526C230.19 312.909 230.3 314.296 230.45 315.672C231.31 324.009 232.329 332.345 233.574 340.659C236.041 357.287 239.165 373.847 242.402 390.362L244.666 401.659L245.639 403.037C245.75 403.25 245.865 403.46 245.979 403.669C246.166 404.014 246.353 404.357 246.522 404.709C246.999 405.763 247.423 406.842 247.79 407.939C248.492 410.085 249.035 412.187 249.555 414.265C250.232 417.162 250.857 420.043 251.477 422.906C252.497 427.61 253.506 432.264 254.717 436.857H265.175L266.782 436.744H268.05C267.688 431.48 266.239 425.471 261.032 426.759C259.108 427.369 257.026 428.001 254.988 428.498C256.845 427.098 258.588 425.787 260.602 424.522L260.964 424.341C254.173 389.391 246.862 345.517 245.118 332.91C243.806 323.241 250.144 316.734 254.354 312.577C263.869 303.22 274.118 294.637 285.005 286.912L286.477 285.783C290.995 282.235 295.947 279.274 301.213 276.972C306.384 274.778 311.674 272.877 317.059 271.278C322.492 269.652 327.631 267.98 332.905 266.06C338.159 264.475 343.327 262.62 348.389 260.502C353.169 258.387 357.381 255.174 360.681 251.126C363.91 246.986 366.266 242.237 367.608 237.164C368.944 232.005 369.433 226.664 369.057 221.349L368.876 218.57L371.592 218.909C371.814 218.938 372.003 218.984 372.181 219.026C372.419 219.083 372.636 219.135 372.882 219.135C372.689 215.726 371.924 212.374 370.619 209.217C369.007 205.207 366.951 201.294 364.861 197.316C364.69 196.991 364.519 196.666 364.348 196.34C361.912 191.874 360.244 187.032 359.413 182.016C358.977 179.382 359.062 176.688 359.662 174.086C359.791 173.538 359.965 173.002 360.183 172.482C352.826 177.136 352.011 182.988 354.275 189.562C355.643 192.733 357.305 195.649 358.91 198.467C362.006 203.899 364.894 208.966 365.073 214.798C364.188 213.876 363.069 213.212 361.836 212.877C363.926 243.634 348.736 251.771 343.185 254.744C342.844 254.927 342.539 255.09 342.277 255.238C348.597 241.767 339.026 227.005 335.283 221.231C334.883 220.614 334.549 220.099 334.309 219.7C335.839 219.883 337.353 220.185 338.836 220.604C338.836 220.604 337.84 217.238 325.141 204.654C315.517 195.149 318.895 186.817 324.565 172.83C325.244 171.157 325.955 169.403 326.68 167.557C328.837 162.133 330.422 156.5 331.411 150.748C331.684 148.757 332.062 146.781 332.543 144.829C332.57 145.424 332.586 146.02 332.603 146.613C332.644 148.047 332.684 149.471 332.86 150.861C332.965 152.781 333.346 154.675 333.992 156.487C334.278 157.266 334.716 157.98 335.282 158.588C335.426 158.743 335.582 158.885 335.76 159.048C335.92 159.194 336.098 159.357 336.301 159.559C336.609 159.899 336.942 160.217 337.297 160.508C338.74 161.605 340.343 162.474 342.051 163.084C345.667 164.333 349.422 165.137 353.233 165.479C356.901 165.885 360.636 166.066 364.393 166.066H364.959C368.86 166.07 372.731 166.727 376.414 168.009C379.698 169.119 383.134 169.721 386.601 169.794C393.919 170.491 401.143 171.96 408.151 174.177C411.138 174.259 414.125 173.986 417.047 173.363L416.957 173.454C419.091 173.028 421.199 172.485 423.273 171.827C427.823 169.929 430.833 164.71 424.676 165.411C423.223 165.504 421.778 165.7 420.353 165.998C419.314 166.243 418.286 166.632 417.195 167.044C416.076 167.466 414.891 167.914 413.561 168.257C411.049 168.828 408.433 168.758 405.955 168.054C403.787 167.18 401.496 166.647 399.164 166.473C400.254 165.854 401.468 165.483 402.718 165.388C403.617 165.297 404.424 165.329 405.2 165.359C405.577 165.374 405.947 165.388 406.318 165.388C408.437 165.678 410.592 165.586 412.679 165.117C413.72 164.82 414.781 164.252 415.927 163.64C416.873 163.134 417.876 162.597 418.972 162.157C421.333 161.168 423.859 160.631 426.419 160.576H427.959C429.747 158.091 431.264 155.335 430.675 153.075C429.976 152.151 429.013 151.458 427.913 151.087C427.624 150.986 427.061 150.839 426.332 150.647C423.64 149.942 418.672 148.64 416.731 146.863C415.282 145.417 416.142 142.457 422.073 141.214C424.804 140.764 427.582 140.681 430.335 140.966C431.276 141.141 432.247 141.055 433.143 140.717L432.803 140.446L431.083 139.226L429.339 137.916L422.548 132.742C421.439 131.906 420.262 131.048 419.175 130.325L418.632 130.009L417.568 129.579C416.866 129.286 416.165 128.947 415.463 128.585C413.295 127.433 411.286 126.006 409.487 124.338C402.854 118.758 395.429 105.338 393.482 100.978C391.943 97.5971 389.2 94.9079 385.786 93.4317C387.457 93.3335 389.13 93.6207 390.672 94.2711C392.215 94.9214 393.587 95.9175 394.682 97.182C395.256 97.649 396.33 99.1983 397.626 101.068C400.219 104.806 403.699 109.826 405.842 110.037C406.998 109.994 408.144 109.82 409.26 109.517C408.197 108.493 407.22 107.382 406.34 106.196C405.17 104.639 404.267 103.057 403.393 101.526C403.1 101.012 402.81 100.505 402.514 100.006C401.446 98.0885 400.171 96.2931 398.711 94.6516C398.562 94.522 398.385 94.3483 398.217 94.1831C398.005 93.974 397.807 93.7785 397.693 93.7028C397.311 93.44 396.91 93.2059 396.493 93.0025C395.565 92.528 394.614 92.0987 393.437 91.6469C392.26 91.1951 391.219 90.7884 389.996 90.1784L386.827 88.6195L380.489 85.5469C376.312 83.5334 372.009 81.7902 367.608 80.3281C363.257 78.8803 358.765 77.8958 354.207 77.3912C354.102 77.3805 353.996 77.3696 353.89 77.3587C352.869 77.2538 351.787 77.1426 350.947 77.1426C350.069 77.127 349.2 77.3207 348.412 77.7074C347.952 77.8976 347.426 78.1765 346.883 78.4644C346.329 78.7579 345.757 79.0608 345.22 79.2889C344.156 79.7407 343.115 80.2152 342.073 80.7348C337.981 82.7827 334.073 85.1789 330.393 87.8966C327.426 89.831 324.808 92.2525 322.651 95.0584C325.855 94.899 329.061 95.3592 332.09 96.4138C328.01 96.3387 323.944 96.9185 320.047 98.1309C318.135 98.6776 316.266 99.3648 314.456 100.187C313.542 100.578 313.924 102.085 314.312 103.617C314.693 105.12 315.079 106.646 314.252 107.164C313.397 107.645 313.787 109.742 314.176 111.839C314.54 113.801 314.905 115.764 314.252 116.408C313.695 116.958 313.263 117.62 312.985 118.351C312.6 119.187 312.238 120.136 311.898 121.062C310.651 124.861 309.668 128.741 308.955 132.675C308.173 136.442 305.432 137.937 302.834 139.355C302.608 139.478 302.384 139.6 302.162 139.723C302.601 137.023 303.145 134.34 303.794 131.68C304.734 127.532 305.967 123.455 307.484 119.481C307.891 118.464 308.299 117.47 308.797 116.453C309.061 115.887 309.372 115.343 309.725 114.827C310.107 114.289 310.531 113.783 310.993 113.313C311.791 112.559 311.271 109.668 310.748 106.765C310.19 103.659 309.628 100.539 310.676 100.006C312.062 99.285 312.863 98.5376 313.588 97.8618C314.621 96.898 315.498 96.0797 317.693 95.6909C318.736 93.3534 320.176 91.2132 321.949 89.3651C323.688 87.5855 325.565 85.9462 327.563 84.4626C331.402 81.4407 335.562 78.8496 339.968 76.736C341.009 76.1937 342.368 75.5838 343.273 75.1997C343.716 75.0118 344.181 74.7699 344.688 74.5056C345.218 74.2296 345.795 73.9293 346.442 73.6408C347.802 73.0052 349.287 72.681 350.789 72.6919C352.054 72.7153 353.316 72.8134 354.569 72.9856C359.433 73.5167 364.228 74.5541 368.876 76.0808C373.45 77.6197 377.926 79.4381 382.277 81.5255L388.706 84.6207L391.898 86.2021C392.705 86.6375 393.764 87.0519 394.873 87.4857L394.999 87.5351C396.153 87.9869 397.24 88.4388 398.417 89.0488C399.061 89.3607 399.675 89.7313 400.251 90.1558C400.818 90.5932 401.348 91.0769 401.835 91.6017C403.575 93.4786 405.094 95.5479 406.363 97.7694L406.475 97.9633C408.831 102.046 411.012 105.825 414.399 108.049L417.093 109.834L416.98 110.15L416.233 111.46L413.743 112.116C413.504 112.179 413.282 112.293 413.091 112.448C412.899 112.604 412.743 112.799 412.633 113.019C412.512 113.234 412.443 113.474 412.43 113.72C412.404 114.201 412.404 114.684 412.43 115.166C412.432 115.931 412.318 116.693 412.09 117.425C412.002 117.717 411.885 117.98 411.779 118.216C411.641 118.526 411.524 118.788 411.524 119.006C411.389 119.332 411.389 119.697 411.524 120.023C413.303 121.839 415.358 123.364 417.613 124.541C418.179 124.835 418.768 125.129 419.379 125.377L420.307 125.761C420.767 125.975 421.213 126.216 421.643 126.484C422.661 127.128 423.527 127.772 424.393 128.416C424.682 128.63 424.97 128.845 425.265 129.06L432.056 134.256L433.731 135.521L435.519 136.809ZM302.162 139.723C301.919 141.217 301.708 142.716 301.53 144.219C301.393 145.739 299.923 145.136 297.959 144.33C297.899 144.306 297.839 144.281 297.779 144.256C298.39 141.995 300.178 140.825 302.162 139.723ZM35.861 427.346C37.068 428.982 37.9585 430.829 38.4869 432.791C38.8618 434.263 39.0818 435.769 39.1433 437.287H43.1954C42.1315 427.572 39.7546 426.013 35.861 427.346ZM51.9333 437.196C51.7881 434.889 51.2123 432.628 50.2355 430.532V430.667C49.7911 429.53 48.9676 428.581 47.9039 427.979C47.4609 427.793 46.9779 427.723 46.5004 427.775C47.824 430.762 48.6498 433.944 48.9452 437.196H51.9333ZM165.345 341.495C165.215 341.581 165.101 341.688 165.006 341.812V341.902C163.557 381.935 169.827 413.203 184.179 437.174H211.118C210.761 434.057 209.222 431.195 206.817 429.176C205.593 428.544 204.252 428.169 202.878 428.076C201.503 427.983 200.124 428.173 198.826 428.634C196.871 429.242 194.862 429.658 192.827 429.876H192.578L190.812 429.989C184.386 429.615 178.693 396.8 177.115 387.704C177.075 387.476 177.038 387.262 177.003 387.064C176.03 381.371 172.453 356.067 176.415 348.183C177.692 345.45 181.165 342.235 185.213 338.486C192.142 332.07 200.759 324.091 202.946 314.294C205.12 299.952 204.17 285.311 200.161 271.369C198.214 265.382 191.967 257.746 182.368 251.329C178.01 251.416 173.699 252.249 169.624 253.792C170.336 254.675 171.192 255.681 172.153 256.81L172.295 256.977C177.096 262.098 181.04 267.957 183.976 274.328C186.698 283.37 185.287 304.072 184.901 309.735C184.847 310.524 184.813 311.021 184.813 311.154C182.295 323.318 175.362 334.124 165.345 341.495ZM218.967 437.174C218.819 434.995 218.041 432.906 216.727 431.158C215.395 429.387 213.57 428.046 211.48 427.301C213.76 430.153 215.237 433.562 215.758 437.174H218.967ZM277.15 430.035C276.745 428.887 276.213 427.789 275.565 426.759L275.475 426.849C275.058 426.172 274.426 425.652 273.68 425.374C272.933 425.096 272.115 425.074 271.355 425.313L269.091 426.194C270.489 427.918 271.57 429.876 272.283 431.977C272.789 433.563 273.197 435.177 273.506 436.812H278.667C278.338 434.517 277.831 432.251 277.15 430.035ZM280.817 427.052C282.123 430.226 283.028 433.55 283.511 436.948L286.431 436.97C285.911 431.074 283.466 426.262 280.817 427.052ZM329.929 346.822C330.256 346.564 330.577 346.312 330.891 346.059L330.8 346.149C334.394 343.628 337.424 340.389 339.696 336.638C341.42 333.625 342.492 330.285 342.843 326.833C342.852 325.765 342.638 324.706 342.213 323.726C341.788 322.745 341.162 321.864 340.376 321.14C339.556 320.474 338.943 319.59 338.606 318.59C338.27 317.59 338.224 316.516 338.474 315.491C339.953 309.735 338.651 300.592 337.413 291.897C336.775 287.419 336.154 283.061 335.939 279.344C329.94 280.202 323.443 285.24 320.093 288.155C321.36 292.854 322.696 296.966 323.624 299.632C325.673 305.024 326.805 310.721 326.974 316.486V318.541L324.914 318.7C324.321 318.745 323.745 318.918 323.226 319.206C322.706 319.495 322.255 319.892 321.904 320.371C321.897 322.306 321.553 324.225 320.885 326.042C317.338 334.392 305.611 340.24 300.939 342.57L300.738 342.67L300.376 342.873C298.712 343.8 296.895 344.42 295.011 344.703C293.568 344.792 292.12 344.678 290.71 344.364L290.008 344.252C285.979 343.506 283.737 343.596 282.764 344.432C281.791 345.268 281.678 345.878 281.474 347.708C281.383 348.454 281.293 349.177 281.157 349.967L281.021 350.374C280.816 350.871 280.516 351.324 280.138 351.707C281.881 352.833 283.696 353.844 285.571 354.734C287.735 355.594 290.034 356.069 292.362 356.135C297.33 356.135 302.274 355.451 307.054 354.102L305.062 354.892C298.848 357.879 292.038 359.424 285.141 359.411C282.141 359.527 279.175 358.74 276.629 357.152C278.037 359.432 279.865 361.426 282.017 363.026C282.624 363.472 283.296 363.822 284.009 364.065C284.939 364.293 285.909 364.293 286.839 364.065C289.289 363.588 291.77 363.294 294.264 363.184C296.622 363.202 298.968 362.844 301.213 362.122C303.408 361.144 305.47 359.891 307.348 358.394C305.691 360.232 303.804 361.849 301.734 363.207C299.48 364.365 297.059 365.166 294.558 365.579C292.213 366.021 289.905 366.64 287.654 367.431C286.255 367.964 284.752 368.165 283.262 368.019H282.991C284.393 368.76 285.935 369.199 287.518 369.306C289.076 369.177 290.604 368.804 292.045 368.199L293.72 367.635C296.957 366.767 300.325 366.499 303.658 366.844C306.751 366.844 309.471 364.782 312.313 362.628C312.446 362.527 312.579 362.426 312.713 362.325L313.302 361.873C315.138 360.45 318.192 357.545 320.986 354.886L321.383 354.508C323.307 352.678 325.118 350.961 326.363 349.854C327.593 348.662 328.796 347.714 329.929 346.822ZM369.557 107.958C374.043 108.267 378.487 109.024 382.822 110.217C382.94 110.253 383.045 110.322 383.125 110.417C383.204 110.511 383.254 110.627 383.268 110.749C383.283 110.871 383.261 110.995 383.206 111.106C383.151 111.216 383.064 111.308 382.958 111.37C382.311 111.935 381.827 112.662 381.556 113.476C381.286 114.29 381.238 115.162 381.418 116.001C381.69 118.644 378.521 120.745 374.627 121.175C369.783 121.694 367.157 118.87 367.836 115.549C369.126 110.037 366.297 111.799 364.395 114.058C364.214 114.261 363.92 114.126 363.92 113.877C364.735 108.207 368.062 107.958 369.557 107.958Z"
    fill="#002522" />
  <path opacity="0.87" fill-rule="evenodd" clip-rule="evenodd"
    d="M366.333 170.756C400.93 192.032 440.104 192.505 460.226 169.657C483.849 142.834 472.27 94.0257 434.363 60.6408C396.456 27.2559 346.575 21.9366 322.952 48.7598C311.556 61.6993 308.352 79.7548 312.344 98.7271C312.507 98.4972 312.736 98.295 313.059 98.1305C314.531 97.3648 314.887 96.9286 315.134 96.6248C315.453 96.2344 315.593 96.0624 317.693 95.6906C318.736 93.353 320.175 91.2129 321.949 89.3647C323.687 87.5851 325.565 85.9459 327.563 84.4622C331.401 81.4404 335.561 78.8492 339.968 76.7356C341.009 76.1934 342.367 75.5834 343.273 75.1993C343.716 75.0115 344.18 74.7695 344.688 74.5052C345.218 74.2292 345.794 73.929 346.442 73.6405C347.802 73.0048 349.287 72.6806 350.788 72.6916C352.053 72.7149 353.316 72.813 354.569 72.9853C359.433 73.5164 364.228 74.5537 368.875 76.0804C373.45 77.6194 377.926 79.4377 382.277 81.5252L388.706 84.6203L391.897 86.2018C392.704 86.6371 393.763 87.0515 394.872 87.4853L394.999 87.5347C396.153 87.9866 397.24 88.4384 398.417 89.0484C399.061 89.3604 399.675 89.7309 400.25 90.1554C400.818 90.5929 401.348 91.0765 401.835 91.6014C403.575 93.4783 405.094 95.5476 406.362 97.769L406.474 97.9629C408.831 102.046 411.011 105.825 414.399 108.049L417.092 109.833L416.979 110.15L416.232 111.46L413.742 112.115C413.504 112.179 413.282 112.292 413.09 112.448C412.899 112.604 412.743 112.798 412.633 113.019C412.512 113.234 412.442 113.473 412.429 113.719C412.403 114.201 412.403 114.684 412.429 115.165C412.432 115.931 412.317 116.693 412.09 117.424C412.002 117.717 411.884 117.98 411.779 118.215C411.641 118.525 411.524 118.787 411.524 119.006C411.389 119.331 411.389 119.697 411.524 120.022C413.303 121.839 415.358 123.363 417.613 124.541C418.179 124.835 418.768 125.128 419.379 125.377L420.307 125.761C420.766 125.974 421.213 126.216 421.643 126.484C422.661 127.128 423.527 127.771 424.392 128.415C424.681 128.63 424.97 128.845 425.264 129.059L432.056 134.256L433.731 135.521L435.519 136.809C437.052 137.874 438.246 139.356 438.96 141.079C439.333 142.081 439.48 143.153 439.39 144.219C439.309 145.039 439.181 145.854 439.005 146.659C438.644 148.234 438.073 149.754 437.307 151.177C436.911 151.91 436.449 152.606 435.927 153.256L435.678 153.617L435.994 155.628C436.092 156.43 436.145 157.237 436.153 158.045C436.132 161.249 435.41 164.409 434.038 167.304C432.665 170.2 430.675 172.761 428.207 174.809L427.913 175.057L427.551 175.193C424.383 176.315 421.137 177.206 417.84 177.859C414.469 178.559 411.025 178.848 407.585 178.717H407.359H407.087C400.284 176.562 393.273 175.123 386.17 174.425C385.915 174.405 385.658 174.386 385.399 174.367C383.844 174.253 382.225 174.134 380.556 173.883C378.637 173.572 376.751 173.088 374.919 172.437C372.151 171.467 369.259 170.901 366.333 170.756Z"
    fill="white" />
  <path opacity="0.87"
    d="M302.451 114.819L311.822 83.6301L315.031 100.211L318.775 112.512L325.698 125.626L332.915 135.728L343.624 148.291L355.88 159.261L364.457 165.73L374.604 172.176L387.728 178.107L404.888 183.649L428.957 183.649L420.934 185.788L394.191 193.276L367.448 199.159L354.611 202.369L337.496 201.834L322.52 194.881L304.334 178.835L297.429 168.136L294.805 160.636L294.009 149.339L296.167 135.958L302.451 114.819Z"
    fill="white" />
  <mask id="mask0_1397_41951" style="mask-type:alpha" maskUnits="userSpaceOnUse" x="294" y="83" width="135"
    height="120">
    <path opacity="0.87"
      d="M302.452 114.819L311.823 83.6301L315.032 100.211L318.776 112.512L325.699 125.626L332.916 135.728L343.625 148.291L355.881 159.261L364.458 165.73L374.605 172.176L387.728 178.107L404.889 183.649L428.958 183.649L420.935 185.788L394.192 193.276L367.449 199.159L354.612 202.369L337.497 201.834L322.521 194.881L304.335 178.835L297.43 168.136L294.806 160.636L294.01 149.339L296.168 135.958L302.452 114.819Z"
      fill="white" />
  </mask>
  <g mask="url(#mask0_1397_41951)">
    <g filter="url(#filter0_f_1397_41951)">
      <path
        d="M438.961 141.078C438.247 139.356 437.053 137.874 435.52 136.808L433.732 135.521L432.057 134.255L425.266 129.059C424.089 128.201 423.002 127.342 421.644 126.484C421.214 126.216 420.768 125.974 420.308 125.761L419.38 125.377C418.769 125.128 418.18 124.835 417.614 124.541C415.359 123.363 413.304 121.838 411.525 120.022C411.39 119.697 411.39 119.331 411.525 119.006C411.525 118.622 411.887 118.102 412.091 117.424C412.319 116.693 412.433 115.931 412.431 115.165C412.405 114.683 412.405 114.201 412.431 113.719C412.444 113.473 412.513 113.233 412.634 113.019C412.744 112.798 412.9 112.604 413.092 112.448C413.283 112.292 413.505 112.179 413.744 112.115L416.234 111.46L416.981 110.15L417.094 109.833L414.4 108.048C410.959 105.789 408.763 101.926 406.364 97.7689C405.095 95.5474 403.576 93.4781 401.836 91.6013C401.349 91.0764 400.819 90.5927 400.252 90.1553C399.676 89.7308 399.062 89.3602 398.418 89.0483C397.241 88.4383 396.154 87.9864 395 87.5346C393.845 87.0827 392.736 86.6535 391.899 86.2017L388.707 84.6202L382.278 81.525C377.927 79.4376 373.451 77.6192 368.877 76.0803C364.229 74.5536 359.434 73.5163 354.57 72.9851C353.317 72.8129 352.055 72.7148 350.79 72.6914C349.288 72.6805 347.803 73.0047 346.443 73.6403C345.176 74.2051 344.18 74.8151 343.274 75.1992C342.369 75.5833 341.01 76.1933 339.969 76.7355C335.563 78.8491 331.403 81.4402 327.564 84.4621C325.566 85.9457 323.689 87.585 321.95 89.3646C320.177 91.2127 318.737 93.3529 317.694 95.6905C313.96 96.3517 315.336 97.3913 311.974 99.1408C309.947 100.173 312.72 101.676 311.068 103.236C310.606 103.707 310.182 104.213 309.8 104.75C309.447 105.266 309.137 105.81 308.872 106.377C308.374 107.393 307.967 108.387 307.559 109.404C306.042 113.379 304.809 117.455 303.87 121.604C302.862 125.734 302.106 129.921 301.606 134.143C301.334 137.147 301.176 140.197 301.198 143.179C296.502 143.914 291.896 145.141 287.458 146.839C283.079 148.635 269.208 150.741 265.131 153.143C261.343 155.415 257.205 157.049 252.884 157.977C248.494 158.716 244.023 158.853 239.596 158.384C230.36 157.864 221.215 157.006 212.001 155.876L184.633 152.578L74.164 138.751L18.952 131.68L5.1434 129.895L4.28317 129.782H3.85306C3.45684 129.705 3.04945 129.705 2.65323 129.782C1.78312 129.977 1.02477 130.506 0.541914 131.254C0.059057 132.002 -0.10958 132.91 0.0725636 133.781C0.130496 134.02 0.206245 134.254 0.299018 134.481L0.480153 134.956C0.615976 135.272 0.729145 135.588 0.887605 135.905C1.18099 136.541 1.53735 137.147 1.95148 137.712C3.57817 139.898 5.75792 141.614 8.26733 142.682C12.7699 144.468 17.4889 145.654 22.3022 146.207L36.0203 148.466L90.8928 157.864L118.397 162.383L125.188 163.445C127.452 163.829 129.715 164.123 131.979 164.597C133.972 164.982 135.871 165.749 137.571 166.856C138.923 167.85 140.055 169.112 140.898 170.561C138.77 171.872 136.665 173.25 134.65 174.764C131.956 176.729 129.444 178.92 126.931 181.157C124.418 183.394 122.177 185.901 120.14 188.477C115.787 193.62 111.993 199.209 108.821 205.15C107.182 208.133 105.774 211.238 104.611 214.436C103.502 217.666 102.619 220.874 101.804 224.105C100.151 230.521 98.9063 237.005 97.5028 243.376C96.8789 246.51 96.0394 249.598 94.9902 252.617C93.9941 255.667 92.8849 258.717 91.6851 261.654C86.9313 273.763 81.3625 285.601 75.5221 297.304C72.602 303.133 69.5686 308.939 66.4673 314.678C64.8827 317.524 63.2981 320.394 61.6456 323.105C61.2155 323.828 60.8533 324.37 60.4232 325.002L58.9518 326.9C57.9784 328.143 56.9371 329.34 55.8731 330.47C53.7402 332.757 51.3816 334.823 48.833 336.637L47.8823 337.225L47.4069 337.518C47.082 337.703 46.7783 337.923 46.5013 338.174C45.9049 338.745 45.468 339.461 45.2337 340.252L44.9168 341.427C44.4867 342.918 43.966 344.454 43.4227 345.945C41.159 352.023 38.6689 358.032 35.9525 364.019C30.5875 375.835 23.9322 387.312 19.5406 400.031C17.2853 406.416 15.8922 413.071 15.3979 419.822C14.975 426.609 15.5933 433.42 17.2315 440.02L17.6617 441.759H56.7107V439.5C56.7949 435.724 56.0209 431.978 54.447 428.543C53.5229 426.515 51.9228 424.871 49.9196 423.889C48.7796 423.399 47.5317 423.212 46.2977 423.347C45.5206 423.43 44.7588 423.62 44.034 423.912C43.7862 423.667 43.5213 423.441 43.2416 423.234C41.8452 422.176 40.0932 421.699 38.352 421.901C40.2083 387.764 63.3886 359.139 77.3331 344.861C87.0436 334.562 97.649 325.142 109.025 316.711C113.711 313.096 118.08 309.685 122.607 305.663C130.587 298.291 137.71 290.046 143.841 281.083C150.338 272.272 157.106 263.167 165.867 256.073C166.705 257.203 167.791 258.491 169.081 259.982C173.5 264.657 177.159 269.993 179.925 275.796C182.686 285.104 180.536 310.521 180.536 310.656C178.112 321.52 171.843 331.146 162.879 337.767C162.266 338.169 161.753 338.706 161.38 339.336C161.007 339.967 160.784 340.674 160.728 341.404C159.212 383.11 165.912 415.552 181.102 440.539L181.781 441.601H224.022L223.886 439.229C223.207 426.826 215.601 423.414 211.119 422.375C206.985 421.826 202.779 422.331 198.894 423.844L197.763 424.16C196.495 424.476 195.703 424.68 194.186 424.973C188.631 406.723 185.652 387.789 185.335 368.718C185.049 365.371 185.529 362.003 186.738 358.868C188.641 355.703 191.252 353.02 194.367 351.029L194.956 350.554C206.623 341.075 216.908 330.019 225.516 317.705C226.195 325.567 227.123 333.52 228.187 341.201C230.451 357.987 233.348 374.683 236.721 391.266L237.989 397.479L238.645 400.574L238.962 402.133L239.143 402.991C239.283 403.566 239.529 404.11 239.868 404.595L240.705 405.792L241.316 406.922C241.679 407.758 242.018 408.639 242.358 409.588C242.969 411.463 243.49 413.429 243.988 415.439C245.889 423.527 247.429 431.932 249.738 440.178L250.281 442.211H252.363L289.443 441.963H292.091L291.91 439.365C291.746 435.879 290.98 432.447 289.647 429.221C288.926 427.456 287.874 425.846 286.546 424.476C285.751 423.652 284.785 423.012 283.716 422.601C282.501 422.161 281.179 422.114 279.935 422.466H279.709L278.328 423.008C277.784 422.35 277.143 421.778 276.427 421.313C275.616 420.793 274.695 420.468 273.737 420.362C272.778 420.256 271.809 420.373 270.903 420.703L270.269 420.929C268.798 410.876 266.647 400.958 264.769 390.972C262.777 380.06 260.875 369.125 259.177 358.168C258.362 352.701 257.547 347.233 256.913 341.766C256.548 339.162 256.434 336.529 256.574 333.904C256.859 331.335 257.476 328.814 258.408 326.403C260.308 321.392 262.874 316.658 266.036 312.328C269.212 307.918 272.756 303.784 276.63 299.97C280.502 296.119 284.656 292.562 289.058 289.329C293.297 285.997 297.945 283.218 302.889 281.06C306.149 279.637 309.545 278.417 312.986 277.287C314.523 285.324 316.649 293.238 319.347 300.964C321.01 305.364 322.061 309.97 322.471 314.655C320.811 315.227 319.366 316.291 318.328 317.705C317.768 318.44 317.458 319.335 317.445 320.258C317.434 321.657 317.197 323.046 316.743 324.37C313.823 331.147 302.889 336.615 298.792 338.648L298.407 338.851C297.228 339.524 295.941 339.99 294.604 340.23C293.577 340.268 292.549 340.17 291.548 339.936L290.824 339.823C286.093 338.964 282.426 338.829 279.868 341.02C278.975 341.788 278.259 342.738 277.767 343.806C277.275 344.874 277.018 346.035 277.015 347.211C277.015 347.504 277.015 347.821 276.902 348.16L273.733 346.691V350.283C273.753 351.146 273.961 351.994 274.344 352.768L271.605 352.068V354.982C271.605 358.8 273.733 361.557 276.63 364.336L275.227 364.449L275.997 367.092C276.993 370.616 282.788 373.598 287.315 373.87H287.723C289.723 373.736 291.688 373.278 293.54 372.514C294.061 372.311 294.582 372.13 295.057 371.994C297.79 371.293 300.627 371.087 303.433 371.384C308.345 371.384 312.058 368.538 315.385 365.917L315.951 365.488C318.056 363.839 321.248 360.789 324.372 357.829C326.251 356.044 328.017 354.372 329.216 353.311C330.846 351.91 332.295 350.735 333.744 349.673C337.808 346.81 341.237 343.141 343.817 338.897C348.186 331.509 348.051 323.421 347.915 315.604C347.915 313.232 347.915 310.769 347.915 308.352C348.344 300.853 349.65 293.43 351.808 286.234C354.218 278.286 355.528 270.046 355.702 261.744C358.993 259.674 361.922 257.079 364.372 254.062C368.019 249.425 370.67 244.088 372.159 238.383C373.332 233.824 373.88 229.128 373.789 224.421L377.049 226.884L377.388 222.817C377.727 217.609 376.811 212.395 374.717 207.613C372.797 203.072 370.589 198.657 368.107 194.396C365.825 190.361 364.169 186.004 363.195 181.473C362.695 179.664 362.588 177.768 362.88 175.914C363.173 174.059 363.859 172.288 364.893 170.719H365.051C368.413 170.745 371.748 171.325 374.921 172.437C376.752 173.088 378.639 173.572 380.557 173.882C382.504 174.176 384.383 174.289 386.172 174.425C393.275 175.123 400.285 176.562 407.088 178.717H407.36H407.586C411.027 178.847 414.47 178.559 417.841 177.859C421.138 177.206 424.384 176.315 427.552 175.193L427.914 175.057L428.209 174.809C430.677 172.761 432.667 170.2 434.039 167.304C435.412 164.408 436.134 161.248 436.154 158.045C436.146 157.237 436.094 156.43 435.996 155.628L435.679 153.617L435.928 153.256C436.45 152.606 436.912 151.91 437.309 151.177C438.074 149.754 438.645 148.234 439.007 146.659C439.182 145.854 439.311 145.039 439.391 144.219C439.481 143.153 439.334 142.081 438.961 141.078ZM38.4878 432.79C37.9594 430.828 37.069 428.982 35.862 427.346C39.7556 426.013 42.1325 427.571 43.1964 437.286H39.1443C39.0828 435.769 38.8628 434.262 38.4878 432.79ZM50.2365 430.531C51.2132 432.628 51.789 434.888 51.9343 437.196H48.9462C48.6508 433.944 47.8249 430.761 46.5013 427.775C46.9789 427.723 47.4619 427.793 47.9048 427.978C48.9686 428.58 49.792 429.53 50.2365 430.667V430.531ZM165.007 341.811C165.102 341.688 165.216 341.581 165.346 341.495C175.363 334.123 182.296 323.317 184.814 311.153C184.814 310.069 187.078 284.63 183.977 274.328C181.041 267.956 177.097 262.098 172.296 256.977C171.277 255.78 170.372 254.718 169.625 253.791C173.7 252.249 178.011 251.416 182.369 251.329C191.968 257.745 198.215 265.381 200.162 271.368C204.171 285.311 205.121 299.952 202.947 314.294C199.483 329.815 179.879 340.772 176.416 348.182C172.454 356.067 176.031 381.37 177.004 387.063C178.408 395.129 184.226 429.605 190.813 429.989L192.579 429.876H192.828C194.863 429.658 196.872 429.241 198.827 428.633C200.125 428.172 201.504 427.982 202.879 428.076C204.253 428.169 205.594 428.543 206.817 429.175C209.223 431.195 210.762 434.057 211.119 437.173H184.18C169.828 413.203 163.558 381.935 165.007 341.901V341.811ZM218.974 437.173H215.759C215.238 433.561 213.761 430.153 211.481 427.3C213.571 428.045 215.396 429.387 216.728 431.158C218.06 432.929 218.841 435.053 218.974 437.264V437.173ZM275.566 426.758C276.214 427.788 276.746 428.887 277.151 430.034C277.831 432.251 278.339 434.517 278.668 436.812H273.507C273.198 435.177 272.79 433.562 272.284 431.977C271.571 429.876 270.49 427.918 269.092 426.193L271.356 425.312C272.116 425.074 272.934 425.095 273.68 425.374C274.427 425.652 275.059 426.171 275.476 426.849L275.566 426.758ZM283.512 436.947C283.029 433.55 282.124 430.226 280.818 427.052C283.467 426.261 285.912 431.073 286.432 436.97L283.512 436.947ZM330.892 346.058C329.488 347.188 327.949 348.318 326.364 349.854C325.119 350.961 323.308 352.678 321.384 354.508C318.486 357.264 315.227 360.382 313.303 361.873L312.714 362.325C309.726 364.584 306.896 366.843 303.659 366.843C300.326 366.499 296.958 366.767 293.721 367.634L292.046 368.199C290.605 368.803 289.077 369.177 287.519 369.306C285.936 369.198 284.393 368.759 282.991 368.018H283.263C284.753 368.164 286.256 367.963 287.655 367.431C289.906 366.64 292.214 366.021 294.559 365.578C297.06 365.165 299.481 364.365 301.735 363.206C303.805 361.848 305.692 360.231 307.349 358.394C305.471 359.891 303.409 361.143 301.214 362.122C298.969 362.843 296.623 363.202 294.265 363.183C291.771 363.293 289.29 363.588 286.84 364.064C285.91 364.292 284.94 364.292 284.01 364.064C283.297 363.822 282.625 363.471 282.018 363.025C279.866 361.425 278.038 359.432 276.63 357.151C279.176 358.739 282.142 359.527 285.142 359.41C292.039 359.424 298.849 357.879 305.063 354.892L307.055 354.101C302.275 355.45 297.331 356.135 292.363 356.135C290.035 356.068 287.736 355.594 285.572 354.734C283.697 353.844 281.882 352.832 280.139 351.706C280.517 351.323 280.817 350.871 281.022 350.374L281.158 349.967C281.294 349.176 281.384 348.453 281.475 347.708C281.679 345.878 281.792 345.268 282.765 344.432C283.738 343.596 285.979 343.505 290.009 344.251L290.711 344.364C292.121 344.677 293.569 344.791 295.012 344.703C296.896 344.42 298.713 343.8 300.377 342.873L300.739 342.67C305.266 340.41 317.287 334.514 320.886 326.042C321.554 324.225 321.898 322.306 321.905 320.371C322.256 319.892 322.707 319.494 323.227 319.206C323.746 318.917 324.322 318.744 324.915 318.699L326.975 318.541V316.485C326.806 310.72 325.674 305.024 323.625 299.631C322.697 296.965 321.361 292.854 320.094 288.154C323.444 285.24 329.941 280.202 335.94 279.343C336.574 290.278 340.716 306.77 338.475 315.491C338.225 316.516 338.271 317.59 338.607 318.59C338.944 319.589 339.557 320.473 340.377 321.139C341.163 321.864 341.789 322.745 342.214 323.725C342.639 324.706 342.853 325.764 342.844 326.832C342.492 330.284 341.421 333.624 339.697 336.637C337.424 340.389 334.395 343.628 330.801 346.149L330.892 346.058ZM417.048 173.363C414.126 173.985 411.139 174.258 408.152 174.176C401.144 171.96 393.92 170.491 386.602 169.793C383.135 169.721 379.699 169.119 376.415 168.008C372.732 166.726 368.861 166.07 364.96 166.065H364.394C360.637 166.065 356.902 165.885 353.234 165.478C349.423 165.136 345.668 164.332 342.052 163.083C340.344 162.473 338.741 161.605 337.298 160.508C336.943 160.216 336.61 159.899 336.302 159.559C335.872 159.13 335.555 158.881 335.283 158.587C334.717 157.98 334.279 157.265 333.993 156.486C333.347 154.675 332.966 152.78 332.861 150.861C332.612 148.895 332.635 146.862 332.544 144.829C332.063 146.781 331.685 148.756 331.412 150.748C330.423 156.499 328.837 162.132 326.681 167.557C319.89 184.84 314.366 194.012 325.142 204.653C337.841 217.237 338.837 220.603 338.837 220.603C337.354 220.184 335.84 219.882 334.31 219.7C336.8 223.834 349.273 240.326 342.278 255.237C346.806 252.684 364.055 245.523 361.837 212.877C363.07 213.212 364.189 213.876 365.074 214.797C364.802 205.941 358.283 198.847 354.276 189.561C352.012 182.987 352.827 177.136 360.184 172.482C359.966 173.001 359.792 173.538 359.663 174.086C359.063 176.688 358.978 179.381 359.414 182.016C360.245 187.032 361.913 191.874 364.349 196.339C366.613 200.654 368.877 204.879 370.62 209.217C371.925 212.373 372.69 215.726 372.883 219.135C372.453 219.135 372.114 218.977 371.593 218.909L368.877 218.57L369.058 221.349C369.434 226.664 368.945 232.005 367.609 237.163C366.267 242.236 363.911 246.985 360.682 251.126C357.382 255.174 353.17 258.386 348.39 260.501C343.328 262.619 338.16 264.474 332.906 266.059C327.632 267.979 322.493 269.651 317.06 271.278C311.675 272.877 306.385 274.778 301.214 276.971C295.948 279.274 290.996 282.234 286.478 285.782L285.006 286.912C274.119 294.637 263.87 303.219 254.355 312.577C250.145 316.734 243.807 323.24 245.119 332.91C246.863 345.516 254.174 389.39 260.965 424.341L260.603 424.521C258.589 425.787 256.846 427.097 254.989 428.498C257.027 428.001 259.109 427.368 261.033 426.758C266.24 425.47 267.689 431.48 268.051 436.744H266.783L265.176 436.857H254.718C252.771 429.469 251.345 421.923 249.556 414.265C249.036 412.186 248.493 410.085 247.791 407.939C247.424 406.841 247 405.763 246.523 404.708C246.251 404.143 245.935 403.601 245.64 403.036L244.667 401.658L242.403 390.362C239.166 373.847 236.042 357.287 233.575 340.659C232.33 332.345 231.311 324.008 230.451 315.672C230.224 313.593 230.088 311.492 229.907 309.414V307.855V307.064C229.894 306.944 229.894 306.823 229.907 306.703C229.914 306.567 229.953 306.436 230.021 306.319L230.926 305.234C233.881 301.663 235.862 297.391 236.676 292.831C238.17 283.794 236.676 275.186 234.842 266.94C232.874 258.757 231.437 250.456 230.541 242.089C229.651 249.44 229.734 256.877 230.79 264.206C223.071 264.5 212.68 260.162 206.795 254.65C201.064 248.732 194.695 243.466 187.802 238.948L187.508 238.655C181.102 232.69 173.292 229.347 168.764 222.027C165.749 215.835 163.542 209.282 162.2 202.529C165.097 232.171 155.544 225.122 142.868 250.674C110.632 309.414 94.0167 312.486 75.2505 332.842C65.9076 343.128 57.3138 354.068 49.5348 365.578C37.854 383.765 27.7805 409.001 28.2785 425.403C28.1429 425.482 28.0142 425.573 27.8937 425.674C26.1506 426.916 24.4981 428.249 22.8908 429.65C24.6565 429.266 26.3316 428.814 27.9615 428.317C31.4703 427.007 32.9191 432.384 33.3492 437.354H21.5778C20.3251 431.737 19.868 425.973 20.2197 420.229C20.6787 413.876 21.996 407.614 24.1358 401.613C28.3011 389.458 34.8659 378.072 40.3668 366.007C43.1285 359.998 45.6865 353.921 47.9728 347.64C48.5387 346.081 49.0821 344.5 49.5574 342.85L49.8742 341.653L51.708 340.523C54.5317 338.53 57.1479 336.26 59.5177 333.746C60.6948 332.503 61.7815 331.215 62.8681 329.905L64.43 327.894C64.9281 327.194 65.4939 326.381 65.9014 325.635C67.6897 322.766 69.297 319.897 70.9042 317.005C74.1187 311.244 77.1973 305.415 80.1854 299.541C86.139 287.793 91.8661 275.909 96.7331 263.574C97.9782 260.501 98.9969 257.384 100.174 254.198C100.672 252.571 101.261 251.058 101.668 249.341C102.075 247.624 102.46 246.087 102.823 244.461C104.226 238.022 105.562 231.628 107.056 225.303C107.803 222.162 108.618 219.022 109.614 216.04C110.65 213.056 111.914 210.156 113.394 207.364C116.331 201.674 119.868 196.312 123.943 191.369C128.824 185.378 134.225 179.829 140.083 174.786C144.141 171.852 148.478 169.325 153.032 167.24C162.087 161.276 133.609 157.029 112.285 153.888C84.4412 149.822 69.0479 147.111 50.4855 144.445C27.5314 141.237 15.33 140.378 8.9011 137.667C7.74732 137.017 6.75053 136.122 5.98096 135.046C5.83147 134.849 5.70242 134.637 5.59603 134.414L18.703 136.085L73.915 143.179L184.407 156.983L211.798 160.372C221.011 161.502 230.337 162.405 239.641 162.925C244.449 163.4 249.298 163.233 254.061 162.428C258.849 161.422 263.437 159.636 267.643 157.141C271.553 154.829 275.623 152.798 279.822 151.064C283.793 149.557 297.53 148.445 301.719 147.743C301.986 151.797 293.057 155.811 294.174 159.717C295.464 163.99 297.453 168.02 300.06 171.646L301.531 173.679C303.342 176.255 304.293 177.497 306.942 177.362C313.733 176.729 324.485 151.448 327.677 140.355C331.593 126.687 335.555 114.487 340.625 109.946C339.034 110.058 337.516 110.658 336.279 111.663C335.037 112.654 333.919 113.792 332.952 115.052C331.088 117.509 329.444 120.125 328.039 122.869C325.142 128.201 322.923 133.781 320.071 138.887C317.195 144.057 314.06 149.079 310.677 153.933C308.051 157.699 305.342 161.419 302.55 165.094C299.611 159.318 307.542 152.992 307.197 146.523C306.781 138.503 307.397 130.462 309.031 122.598C309.743 118.664 310.727 114.784 311.974 110.985C312.313 110.059 312.675 109.11 313.06 108.274C313.339 107.544 313.771 106.881 314.328 106.331C315.678 104.998 317.201 103.851 318.855 102.92C320.525 101.875 312.646 100.962 314.457 100.186C316.267 99.3643 318.136 98.6771 320.048 98.1304C323.945 96.918 328.011 96.3382 332.091 96.4134C329.062 95.3587 325.856 94.8985 322.652 95.0579C324.809 92.252 327.427 89.8305 330.394 87.8961C334.074 85.1784 337.982 82.7822 342.074 80.7343C343.116 80.2147 344.157 79.7403 345.221 79.2884C346.285 78.8366 347.485 78.091 348.413 77.7069C349.201 77.3202 350.07 77.1265 350.948 77.1421C351.876 77.1421 353.099 77.2777 354.208 77.3907C358.766 77.8953 363.258 78.8798 367.609 80.3276C372.01 81.7897 376.313 83.5329 380.49 85.5465L386.828 88.6191L389.997 90.1779C391.219 90.7879 392.261 91.1946 393.438 91.6464C394.615 92.0983 395.566 92.5275 396.494 93.002C396.911 93.2055 397.312 93.4396 397.694 93.7023C397.897 93.8379 398.373 94.3575 398.712 94.6512C400.172 96.2926 401.447 98.0881 402.515 100.006C403.693 101.994 404.779 104.117 406.341 106.196C407.221 107.382 408.198 108.492 409.261 109.517C408.145 109.819 406.999 109.993 405.843 110.037C402.629 109.72 396.403 98.5823 394.683 97.1816C393.588 95.917 392.216 94.9209 390.673 94.2706C389.131 93.6202 387.458 93.333 385.787 93.4312C389.201 94.9074 391.944 97.5966 393.483 100.977C395.43 105.337 402.855 118.757 409.488 124.337C411.287 126.005 413.296 127.433 415.464 128.585C416.166 128.946 416.867 129.285 417.569 129.579L418.633 130.008L419.176 130.324C420.263 131.047 421.44 131.906 422.549 132.742L429.34 137.915L431.084 139.226L432.804 140.446L433.144 140.717C432.248 141.055 431.277 141.14 430.336 140.965C427.583 140.68 424.805 140.764 422.074 141.214C416.143 142.457 415.283 145.416 416.732 146.862C419.199 149.121 426.556 150.612 427.914 151.087C429.014 151.457 429.977 152.15 430.676 153.075C431.265 155.334 429.748 158.09 427.96 160.576C427.371 160.576 426.805 160.576 426.239 160.576H426.42C423.86 160.631 421.334 161.167 418.973 162.157C416.551 163.128 414.581 164.574 412.68 165.117C410.592 165.586 408.438 165.678 406.318 165.388C405.187 165.388 404.055 165.252 402.719 165.388C401.469 165.483 400.255 165.853 399.165 166.472C401.497 166.646 403.788 167.18 405.956 168.054C408.434 168.757 411.05 168.827 413.562 168.257C416.188 167.579 418.248 166.495 420.354 165.998C421.779 165.699 423.224 165.503 424.677 165.41C430.834 164.71 427.824 169.929 423.274 171.826C421.2 172.485 419.092 173.028 416.958 173.453L417.048 173.363Z"
        fill="#002522" />
    </g>
  </g>
  <path opacity="0.87"
    d="M302.451 114.819L311.822 83.6301L315.031 100.211L318.775 112.512L325.698 125.626L332.915 135.728L343.624 148.291L355.88 159.261L364.457 165.73L374.604 172.176L387.728 178.107L404.888 183.649L428.957 183.649L420.934 185.788L394.191 193.276L367.448 199.159L354.611 202.369L337.496 201.834L322.52 194.881L304.334 178.835L297.429 168.136L294.805 160.636L294.009 149.339L296.167 135.958L302.451 114.819Z"
    fill="white" />
  <path
    d="M458.726 168.335C447.458 181.13 429.8 186.408 410.09 184.306C390.387 182.205 368.818 172.727 350.138 156.275C331.458 139.824 319.331 119.626 314.757 100.346C310.181 81.0596 313.185 62.8764 324.454 50.0817C335.722 37.2869 353.38 32.0091 373.09 34.111C392.793 36.2122 414.362 45.6903 433.042 62.1417C451.722 78.5931 463.849 98.7912 468.423 118.071C472.999 137.357 469.994 155.541 458.726 168.335Z"
    stroke="#002522" stroke-width="4" />
  <path fill-rule="evenodd" clip-rule="evenodd"
    d="M300.703 134.521L317.253 67.0384L313.369 66.0856L294.422 143.336C292.824 148.764 292.857 154.827 294.305 160.934C296.704 171.046 303.009 181.462 312.567 189.88C322.126 198.298 333.255 203.236 343.589 204.338C347.756 204.783 351.825 204.603 355.611 203.758L355.616 203.777L437.449 183.988L436.509 180.1L369.169 196.384C369.179 196.374 369.189 196.364 369.199 196.354L367.957 196.678L355.057 199.797L355.053 199.784C351.662 200.584 347.937 200.779 344.013 200.361C334.595 199.356 324.222 194.814 315.211 186.878C306.2 178.942 300.384 169.227 298.197 160.011C297.081 155.307 296.917 150.78 297.719 146.685L297.719 146.685L298.275 144.421C298.327 144.245 298.381 144.07 298.437 143.896L300.759 134.57L300.703 134.521Z"
    fill="#002522" />
  <path
    d="M331.859 199.993C332.12 199.902 332.258 199.617 332.168 199.357C332.077 199.096 331.792 198.958 331.531 199.048L331.859 199.993ZM340.03 196.101C339.769 196.191 339.631 196.476 339.721 196.737C339.812 196.998 340.096 197.136 340.357 197.045L340.03 196.101ZM344.134 195.735C344.395 195.645 344.533 195.36 344.443 195.099C344.352 194.838 344.068 194.7 343.807 194.791L344.134 195.735ZM352.305 191.843C352.044 191.934 351.906 192.218 351.996 192.479C352.087 192.74 352.372 192.878 352.633 192.788L352.305 191.843ZM356.409 191.478C356.67 191.387 356.809 191.103 356.718 190.842C356.628 190.581 356.343 190.443 356.082 190.533L356.409 191.478ZM364.58 187.586C364.319 187.676 364.181 187.961 364.271 188.222C364.362 188.483 364.647 188.621 364.908 188.531L364.58 187.586ZM368.685 187.221C368.946 187.13 369.084 186.845 368.993 186.584C368.903 186.323 368.618 186.185 368.357 186.276L368.685 187.221ZM376.855 183.328C376.594 183.419 376.456 183.704 376.547 183.965C376.637 184.225 376.922 184.364 377.183 184.273L376.855 183.328ZM380.96 182.963C381.221 182.873 381.359 182.588 381.268 182.327C381.178 182.066 380.893 181.928 380.632 182.018L380.96 182.963ZM389.13 179.071C388.87 179.161 388.731 179.446 388.822 179.707C388.912 179.968 389.197 180.106 389.458 180.016L389.13 179.071ZM329.971 200.648L331.859 199.993L331.531 199.048L329.643 199.703L329.971 200.648ZM340.357 197.045L344.134 195.735L343.807 194.791L340.03 196.101L340.357 197.045ZM352.633 192.788L356.409 191.478L356.082 190.533L352.305 191.843L352.633 192.788ZM364.908 188.531L368.685 187.221L368.357 186.276L364.58 187.586L364.908 188.531ZM377.183 184.273L380.96 182.963L380.632 182.018L376.855 183.328L377.183 184.273ZM389.458 180.016L391.347 179.361L391.019 178.416L389.13 179.071L389.458 180.016ZM332.023 200.465C332.545 200.284 332.821 199.714 332.64 199.193C332.459 198.671 331.889 198.395 331.368 198.576L332.023 200.465ZM339.866 195.628C339.344 195.809 339.068 196.379 339.249 196.901C339.43 197.422 339.999 197.699 340.521 197.518L339.866 195.628ZM344.298 196.208C344.82 196.027 345.096 195.457 344.915 194.935C344.734 194.414 344.165 194.137 343.643 194.318L344.298 196.208ZM352.141 191.371C351.619 191.552 351.343 192.121 351.524 192.643C351.705 193.165 352.275 193.441 352.796 193.26L352.141 191.371ZM356.573 191.95C357.095 191.769 357.371 191.2 357.19 190.678C357.009 190.156 356.44 189.88 355.918 190.061L356.573 191.95ZM364.416 187.113C363.894 187.294 363.618 187.864 363.799 188.386C363.98 188.908 364.55 189.184 365.072 189.003L364.416 187.113ZM368.849 187.693C369.37 187.512 369.647 186.942 369.466 186.421C369.285 185.899 368.715 185.622 368.193 185.803L368.849 187.693ZM376.691 182.856C376.17 183.037 375.893 183.607 376.074 184.128C376.255 184.65 376.825 184.927 377.347 184.746L376.691 182.856ZM381.124 183.436C381.646 183.255 381.922 182.685 381.741 182.163C381.56 181.641 380.99 181.365 380.468 181.546L381.124 183.436ZM388.967 178.599C388.445 178.78 388.169 179.349 388.35 179.871C388.53 180.393 389.1 180.669 389.622 180.488L388.967 178.599ZM330.134 201.12L332.023 200.465L331.368 198.576L329.479 199.231L330.134 201.12ZM340.521 197.518L344.298 196.208L343.643 194.318L339.866 195.628L340.521 197.518ZM352.796 193.26L356.573 191.95L355.918 190.061L352.141 191.371L352.796 193.26ZM365.072 189.003L368.849 187.693L368.193 185.803L364.416 187.113L365.072 189.003ZM377.347 184.746L381.124 183.436L380.468 181.546L376.691 182.856L377.347 184.746ZM389.622 180.488L391.51 179.833L390.855 177.944L388.967 178.599L389.622 180.488Z"
    fill="#002522" />
  <defs>
    <filter id="filter0_f_1397_41951" x="-3.99902" y="68.6912" width="447.416" height="377.52"
      filterUnits="userSpaceOnUse" color-interpolation-filters="sRGB">
      <feFlood flood-opacity="0" result="BackgroundImageFix" />
      <feBlend mode="normal" in="SourceGraphic" in2="BackgroundImageFix" result="shape" />
      <feGaussianBlur stdDeviation="2" result="effect1_foregroundBlur_1397_41951" />
    </filter>
  </defs>
</svg>