<svg width="387" height="148" viewBox="0 0 387 148" fill="none" xmlns="http://www.w3.org/2000/svg">
  <path opacity="0.5"
    d="M44 40.875C44 34.8689 48.5179 30 54.0909 30H329.909C335.482 30 340 34.8689 340 40.875V106.125C340 112.131 335.482 117 329.909 117H54.0909C48.5179 117 44 112.131 44 106.125V40.875Z"
    fill="#001413" />
  <path opacity="0.6"
    d="M26 32.875C26 26.8689 31.0673 22 37.3182 22H346.682C352.933 22 358 26.8689 358 32.875V98.125C358 104.131 352.933 109 346.682 109H37.3182C31.0673 109 26 104.131 26 98.125V32.875Z"
    fill="#001413" />
  <g filter="url(#filter0_ddd_1779_44860)">
    <path
      d="M12.875 14.1972C12.875 7.46085 18.3359 2 25.0722 2H358.461C365.197 2 370.658 7.46085 370.658 14.1972V87.3801C370.658 94.1164 365.197 99.5772 358.461 99.5772H25.0722C18.3359 99.5772 12.875 94.1164 12.875 87.3801V14.1972Z"
      fill="#002522" />
    <path d="M165.823 15.4166V16.7258H168.925V25.3777H170.391V16.7258H173.493V15.4166H165.823Z" fill="#99A8A7" />
    <path
      d="M176.9 18.0919C174.708 18.0919 173.214 19.643 173.214 21.8059C173.214 23.9689 174.708 25.52 176.9 25.52C179.063 25.52 180.557 23.9689 180.557 21.8059C180.557 19.643 179.049 18.0919 176.9 18.0919ZM176.886 24.2819C175.463 24.2819 174.652 23.2147 174.652 21.8059C174.652 20.3972 175.463 19.3299 176.886 19.3299C178.309 19.3299 179.12 20.3972 179.12 21.8059C179.12 23.2147 178.309 24.2819 176.886 24.2819Z"
      fill="#99A8A7" />
    <path
      d="M185.832 19.4011V18.2342H184.281V16.1424L182.901 16.3843V18.2342H181.748V19.4011H182.886V23.3712C182.886 24.7942 183.584 25.52 185.007 25.52C185.277 25.52 185.604 25.4915 185.875 25.4346V24.1539C185.676 24.225 185.462 24.2535 185.249 24.2535C184.409 24.2535 184.295 23.8835 184.295 23.0866V19.4011H185.832Z"
      fill="#99A8A7" />
    <path
      d="M190.387 18.0777C188.893 18.0777 187.612 18.9315 187.356 20.326L188.708 20.5537C188.822 19.7853 189.519 19.273 190.316 19.273C191.156 19.273 191.924 19.7283 191.924 20.696V20.9237C190.387 20.9237 187.214 21.009 187.214 23.3285C187.214 24.6235 188.224 25.52 189.562 25.52C190.686 25.52 191.383 25.0931 191.924 24.2819V25.3777H193.333V20.7814C193.333 19.0595 192.081 18.0777 190.387 18.0777ZM191.924 22.304C191.924 23.3855 191.084 24.3531 189.946 24.3531C189.22 24.3531 188.608 23.9831 188.608 23.3143C188.608 21.8628 191.54 21.9767 191.924 21.9625V22.304Z"
      fill="#99A8A7" />
    <path d="M197.008 25.3777V15.132H195.599V25.3777H197.008Z" fill="#99A8A7" />
    <path
      d="M203.304 25.3777H204.712V24.2677C205.225 25.0646 206.192 25.52 207.231 25.52C209.209 25.52 210.547 23.8693 210.547 21.7917C210.547 19.6999 209.195 18.0919 207.217 18.0919C206.164 18.0919 205.239 18.5615 204.712 19.3299V15.132H203.304V25.3777ZM204.698 21.8059C204.698 20.4256 205.509 19.3299 206.932 19.3299C208.27 19.3299 209.138 20.3118 209.138 21.8059C209.138 23.3001 208.27 24.2819 206.932 24.2819C205.509 24.2819 204.698 23.1862 204.698 21.8059Z"
      fill="#99A8A7" />
    <path
      d="M215.801 18.0919C213.609 18.0919 212.115 19.643 212.115 21.8059C212.115 23.9689 213.609 25.52 215.801 25.52C217.964 25.52 219.458 23.9689 219.458 21.8059C219.458 19.643 217.949 18.0919 215.801 18.0919ZM215.786 24.2819C214.363 24.2819 213.552 23.2147 213.552 21.8059C213.552 20.3972 214.363 19.3299 215.786 19.3299C217.209 19.3299 218.02 20.3972 218.02 21.8059C218.02 23.2147 217.209 24.2819 215.786 24.2819Z"
      fill="#99A8A7" />
    <path
      d="M225.06 18.0919C224.121 18.0919 223.267 18.5757 222.769 19.3726V18.2342H221.36V25.3777H222.769V21.6921C222.769 20.511 223.381 19.3299 224.704 19.3299C225.757 19.3299 226.27 20.1126 226.27 21.0802V25.3777H227.678V20.7529C227.678 19.2872 226.54 18.0919 225.06 18.0919Z"
      fill="#99A8A7" />
    <path
      d="M232.45 25.52C233.389 25.52 234.243 25.0361 234.741 24.2393V25.3777H236.15V18.2342H234.741V21.9198C234.741 23.1009 234.129 24.2819 232.806 24.2819C231.781 24.2819 231.255 23.4993 231.255 22.5317V18.2342H229.86V22.8589C229.86 24.3389 230.97 25.52 232.45 25.52Z"
      fill="#99A8A7" />
    <path
      d="M239.471 20.141C239.471 19.5291 240.14 19.2303 240.737 19.2303C241.42 19.2303 241.975 19.6145 242.118 20.2549L243.469 20.0272C243.213 18.7749 241.989 18.0634 240.737 18.0634C239.385 18.0634 238.119 18.9172 238.119 20.2691C238.119 21.6209 239.414 22.0905 240.908 22.4178C241.591 22.5743 242.303 22.7593 242.303 23.4139C242.303 24.1112 241.491 24.3531 240.88 24.3531C240.083 24.3531 239.513 23.9547 239.357 23.1862L237.991 23.4139C238.19 24.8369 239.499 25.52 240.908 25.52C242.345 25.52 243.683 24.7942 243.683 23.357C243.683 21.8771 242.26 21.4359 240.979 21.1656C240.239 21.009 239.471 20.7956 239.471 20.141Z"
      fill="#99A8A7" />
    <path
      d="M253.442 18.1203C253.271 18.0919 253.115 18.0919 252.973 18.1061C251.991 18.1203 251.336 18.5472 250.838 19.4295V18.2342H249.429V25.3777H250.838V21.8059C250.838 20.0841 251.877 19.2018 253.442 19.3726V18.1203Z"
      fill="#99A8A7" />
    <path
      d="M261.324 21.9198C261.324 19.7568 260.029 18.0777 257.866 18.0777C255.718 18.0777 254.323 19.6999 254.323 21.8202C254.323 23.9547 255.76 25.52 257.909 25.52C259.389 25.52 260.542 24.8085 261.168 23.3997L259.83 23.1578C259.446 23.9404 258.777 24.3104 257.909 24.3104C256.671 24.3104 255.76 23.4851 255.689 22.2328H261.31C261.324 22.1332 261.324 22.0194 261.324 21.9198ZM255.746 21.1371C255.903 19.9987 256.714 19.2445 257.866 19.2445C258.948 19.2445 259.816 19.9987 259.916 21.1371H255.746Z"
      fill="#99A8A7" />
    <path
      d="M266.479 24.2819C265.042 24.2819 264.302 23.172 264.302 21.8059C264.302 20.4398 265.042 19.3299 266.494 19.3299C267.419 19.3299 268.158 19.9133 268.386 20.8098L269.752 20.5679C269.439 19.0453 267.973 18.0919 266.508 18.0919C264.345 18.0919 262.893 19.6857 262.893 21.8059C262.893 23.9404 264.345 25.52 266.508 25.52C267.988 25.52 269.439 24.5665 269.752 23.0439L268.386 22.802C268.158 23.6985 267.419 24.2819 266.479 24.2819Z"
      fill="#99A8A7" />
    <path
      d="M278.284 21.9198C278.284 19.7568 276.989 18.0777 274.826 18.0777C272.678 18.0777 271.283 19.6999 271.283 21.8202C271.283 23.9547 272.72 25.52 274.869 25.52C276.349 25.52 277.501 24.8085 278.128 23.3997L276.79 23.1578C276.406 23.9404 275.737 24.3104 274.869 24.3104C273.631 24.3104 272.72 23.4851 272.649 22.2328H278.27C278.284 22.1332 278.284 22.0194 278.284 21.9198ZM272.706 21.1371C272.862 19.9987 273.674 19.2445 274.826 19.2445C275.908 19.2445 276.776 19.9987 276.875 21.1371H272.706Z"
      fill="#99A8A7" />
    <path
      d="M281.006 16.7116C281.532 16.7116 281.931 16.3131 281.931 15.8009C281.931 15.2886 281.532 14.8901 281.006 14.8901C280.494 14.8901 280.109 15.2886 280.109 15.8009C280.109 16.3131 280.494 16.7116 281.006 16.7116ZM281.717 25.3777V18.2342H280.309V25.3777H281.717Z"
      fill="#99A8A7" />
    <path d="M288.735 18.2342L286.829 23.727L284.922 18.2342H283.47L286.131 25.3777H287.54L290.187 18.2342H288.735Z"
      fill="#99A8A7" />
    <path
      d="M298.27 21.9198C298.27 19.7568 296.975 18.0777 294.812 18.0777C292.663 18.0777 291.268 19.6999 291.268 21.8202C291.268 23.9547 292.706 25.52 294.854 25.52C296.334 25.52 297.487 24.8085 298.113 23.3997L296.775 23.1578C296.391 23.9404 295.722 24.3104 294.854 24.3104C293.616 24.3104 292.706 23.4851 292.634 22.2328H298.255C298.27 22.1332 298.27 22.0194 298.27 21.9198ZM292.691 21.1371C292.848 19.9987 293.659 19.2445 294.812 19.2445C295.893 19.2445 296.761 19.9987 296.861 21.1371H292.691Z"
      fill="#99A8A7" />
    <path
      d="M307.096 15.132H305.687V19.3299C305.161 18.5615 304.236 18.0919 303.183 18.0919C301.205 18.0919 299.853 19.6999 299.853 21.7917C299.853 23.8693 301.19 25.52 303.168 25.52C304.207 25.52 305.175 25.0646 305.687 24.2677V25.3777H307.096V15.132ZM305.701 21.8059C305.701 23.1862 304.89 24.2819 303.467 24.2819C302.13 24.2819 301.262 23.3001 301.262 21.8059C301.262 20.3118 302.13 19.3299 303.467 19.3299C304.89 19.3299 305.701 20.4256 305.701 21.8059Z"
      fill="#99A8A7" />
    <path
      d="M314.413 20.141C314.413 19.5291 315.082 19.2303 315.68 19.2303C316.363 19.2303 316.918 19.6145 317.06 20.2549L318.412 20.0272C318.156 18.7749 316.932 18.0634 315.68 18.0634C314.328 18.0634 313.062 18.9172 313.062 20.2691C313.062 21.6209 314.357 22.0905 315.851 22.4178C316.534 22.5743 317.245 22.7593 317.245 23.4139C317.245 24.1112 316.434 24.3531 315.822 24.3531C315.025 24.3531 314.456 23.9547 314.3 23.1862L312.934 23.4139C313.133 24.8369 314.442 25.52 315.851 25.52C317.288 25.52 318.626 24.7942 318.626 23.357C318.626 21.8771 317.203 21.4359 315.922 21.1656C315.182 21.009 314.413 20.7956 314.413 20.141Z"
      fill="#99A8A7" />
    <path
      d="M323.774 18.0919C321.582 18.0919 320.088 19.643 320.088 21.8059C320.088 23.9689 321.582 25.52 323.774 25.52C325.937 25.52 327.431 23.9689 327.431 21.8059C327.431 19.643 325.922 18.0919 323.774 18.0919ZM323.759 24.2819C322.336 24.2819 321.525 23.2147 321.525 21.8059C321.525 20.3972 322.336 19.3299 323.759 19.3299C325.182 19.3299 325.993 20.3972 325.993 21.8059C325.993 23.2147 325.182 24.2819 323.759 24.2819Z"
      fill="#99A8A7" />
    <path
      d="M336.776 18.2342H335.239V17.3804C335.239 16.6404 335.439 16.3558 336.022 16.2562C336.364 16.1993 336.762 16.2847 336.819 16.3131V15.0467C336.734 15.0324 336.406 14.9897 336.008 14.9897C334.414 14.9897 333.831 15.9432 333.831 17.3946V18.2342H332.692V19.4011H333.831V25.3777H335.239V19.4011H336.776V18.2342Z"
      fill="#99A8A7" />
    <path
      d="M341.037 18.0777C339.543 18.0777 338.262 18.9315 338.006 20.326L339.358 20.5537C339.472 19.7853 340.169 19.273 340.966 19.273C341.805 19.273 342.574 19.7283 342.574 20.696V20.9237C341.037 20.9237 337.864 21.009 337.864 23.3285C337.864 24.6235 338.874 25.52 340.211 25.52C341.336 25.52 342.033 25.0931 342.574 24.2819V25.3777H343.982V20.7814C343.982 19.0595 342.73 18.0777 341.037 18.0777ZM342.574 22.304C342.574 23.3855 341.734 24.3531 340.596 24.3531C339.87 24.3531 339.258 23.9831 339.258 23.3143C339.258 21.8628 342.189 21.9767 342.574 21.9625V22.304Z"
      fill="#99A8A7" />
    <path
      d="M350.204 18.1203C350.034 18.0919 349.877 18.0919 349.735 18.1061C348.753 18.1203 348.098 18.5472 347.6 19.4295V18.2342H346.192V25.3777H347.6V21.8059C347.6 20.0841 348.639 19.2018 350.204 19.3726V18.1203Z"
      fill="#99A8A7" />
    <path
      d="M40.8808 23.4521L41.3262 18.6454C41.3386 18.5564 41.45 18.5564 41.4623 18.6454L41.9078 23.4521C41.9449 23.8717 42.2789 24.2023 42.6873 24.2278L48.4778 24.5838C48.5644 24.5838 48.5644 24.7237 48.4778 24.7237L42.6749 25.0924C42.2666 25.1179 41.9325 25.4485 41.8954 25.8681L41.45 30.6748C41.4376 30.7638 41.3262 30.7638 41.3138 30.6748L40.8684 25.8681C40.8313 25.4485 40.4972 25.1179 40.0889 25.0924L34.2984 24.7364C34.2117 24.7364 34.2117 24.5965 34.2984 24.5965L40.1013 24.2278C40.5096 24.2023 40.8313 23.8717 40.8808 23.4521Z"
      fill="#F6E8D7" />
    <path
      d="M108.903 82.5859L109.486 76.7437C109.503 76.6356 109.648 76.6356 109.664 76.7437L110.247 82.5859C110.296 83.096 110.733 83.4978 111.267 83.5287L118.845 83.9615C118.958 83.9615 118.958 84.1315 118.845 84.1315L111.251 84.5797C110.717 84.6106 110.28 85.0125 110.231 85.5225L109.648 91.3647C109.632 91.4729 109.486 91.4729 109.47 91.3647L108.887 85.5225C108.839 85.0125 108.402 84.6106 107.867 84.5797L100.29 84.147C100.176 84.147 100.176 83.9769 100.29 83.9769L107.883 83.5287C108.418 83.4978 108.839 83.096 108.903 82.5859Z"
      fill="#F6E8D7" />
    <path
      d="M113.773 15.2652L114.294 10.2019C114.309 10.1082 114.439 10.1082 114.454 10.2019L114.975 15.2652C115.019 15.7072 115.41 16.0554 115.888 16.0822L122.668 16.4573C122.769 16.4573 122.769 16.6046 122.668 16.6046L115.874 16.9931C115.395 17.0199 115.004 17.3681 114.961 17.8102L114.439 22.8734C114.425 22.9672 114.294 22.9672 114.28 22.8734L113.758 17.8102C113.715 17.3681 113.324 17.0199 112.846 16.9931L106.066 16.618C105.964 16.618 105.964 16.4707 106.066 16.4707L112.86 16.0822C113.338 16.0554 113.715 15.7072 113.773 15.2652Z"
      fill="#22C480" />
    <path
      d="M25.1618 66.5105L25.5606 62.2263C25.5717 62.1469 25.6714 62.1469 25.6825 62.2263L26.0813 66.5105C26.1146 66.8846 26.4137 67.1792 26.7793 67.2019L31.9639 67.5193C32.0415 67.5193 32.0415 67.6439 31.9639 67.6439L26.7682 67.9726C26.4026 67.9953 26.1035 68.29 26.0702 68.664L25.6714 72.9483C25.6603 73.0276 25.5606 73.0276 25.5496 72.9483L25.1507 68.664C25.1175 68.29 24.8184 67.9953 24.4528 67.9726L19.2681 67.6553C19.1906 67.6553 19.1906 67.5306 19.2681 67.5306L24.4639 67.2019C24.8295 67.1792 25.1175 66.8846 25.1618 66.5105Z"
      fill="#22C480" />
    <path
      d="M39.9602 51.9226C40.1323 51.3364 40.3179 50.7501 40.5193 50.1706C40.7185 49.5934 40.9313 49.0139 41.1577 48.4435C41.3818 47.8754 41.6217 47.3095 41.873 46.7458C42.1265 46.1844 42.3891 45.6253 42.6675 45.073C42.9436 44.5207 43.2288 43.9729 43.5322 43.4297C43.831 42.8864 44.1433 42.3499 44.4648 41.8203C44.7885 41.2861 45.1212 40.7609 45.4653 40.2425C45.8116 39.7197 46.167 39.2081 46.5337 38.6988C46.9004 38.1917 47.2739 37.6892 47.6587 37.198C48.0435 36.7 48.4396 36.2156 48.8425 35.7335C49.25 35.2513 49.662 34.7782 50.083 34.3142C50.5063 33.8502 50.9409 33.3884 51.38 32.9379C51.8192 32.4898 52.2673 32.0461 52.7223 31.6092C53.1796 31.1769 53.6413 30.7513 54.1167 30.3348C54.5853 29.9161 55.0674 29.5086 55.5518 29.1057C56.0362 28.7073 56.5319 28.3157 57.0322 27.9354C57.5302 27.5529 58.0372 27.1794 58.5465 26.8172C59.0604 26.4596 59.5787 26.1019 60.1039 25.7624C60.6268 25.4206 61.1564 25.0856 61.6906 24.7619C62.2249 24.4427 62.7659 24.1303 63.3091 23.8293C63.8546 23.5282 64.4024 23.2385 64.9525 22.9578C65.5071 22.6794 66.0594 22.4145 66.6253 22.1542C67.1889 21.8984 67.7548 21.6517 68.323 21.4186C68.8911 21.1854 69.4638 20.9636 70.0365 20.7531C70.6137 20.5426 71.1909 20.3434 71.7681 20.1577C72.3453 19.9721 72.9294 19.8001 73.5134 19.6416C74.0951 19.4787 74.6836 19.3293 75.2722 19.1957C75.8584 19.0599 76.447 18.9377 77.0355 18.829C77.6286 18.7204 78.2171 18.6276 78.8079 18.5438C79.4009 18.4623 79.9917 18.3944 80.5825 18.3423C81.1733 18.288 81.7687 18.2495 82.3595 18.2246C82.9502 18.1997 83.541 18.1907 84.1318 18.1952C84.7204 18.1997 85.3044 18.2156 85.8793 18.2473C86.452 18.2812 87.0179 18.3265 87.577 18.3876C88.1339 18.4487 88.6816 18.5234 89.2204 18.614C89.7636 18.7 90.2956 18.8041 90.8162 18.9196C91.3391 19.0373 91.8552 19.1595 92.3577 19.3066C92.8647 19.447 93.3582 19.6032 93.8449 19.7707C94.3338 19.9382 94.8114 20.1147 95.2777 20.3049C95.7463 20.4973 96.2035 20.7033 96.6495 20.9183C97.0977 21.1356 97.5368 21.362 97.9646 21.5996C98.3902 21.8396 98.8089 22.0886 99.2164 22.3512C99.6238 22.6137 100.022 22.8831 100.407 23.1683C100.794 23.449 101.17 23.7455 101.532 24.0488C101.899 24.3522 102.252 24.6668 102.594 24.9905C102.935 25.3165 103.266 25.6492 103.587 25.9933C103.907 26.3373 104.214 26.6904 104.513 27.0504C104.81 27.4125 105.095 27.7838 105.364 28.1663C105.64 28.5443 105.901 28.9337 106.15 29.3298C106.396 29.7304 106.634 30.1356 106.86 30.5521C107.082 30.9641 107.295 31.3874 107.494 31.8129C107.694 32.2453 107.881 32.6822 108.053 33.1281C108.225 33.574 108.386 34.0267 108.538 34.4862C108.683 34.9457 108.819 35.4075 108.936 35.8874C109.058 36.3605 109.169 36.8404 109.258 37.327C109.353 37.8137 109.434 38.3072 109.498 38.8074C109.565 39.3077 109.62 39.8125 109.654 40.324C109.695 40.8333 109.715 41.354 109.726 41.8768C109.735 42.3975 109.731 42.9271 109.71 43.4614C109.692 43.9933 109.656 44.532 109.606 45.0753C109.559 45.6186 109.493 46.1686 109.414 46.7187C109.33 47.2755 109.233 47.8301 109.129 48.3914C109.02 48.9506 108.891 49.521 108.748 50.0869C108.608 50.6573 108.452 51.2322 108.278 51.8095C108.108 52.3821 107.918 52.9571 107.718 53.5253C107.517 54.0934 107.304 54.6593 107.076 55.2252C106.845 55.7843 106.607 56.3412 106.356 56.8935C106.104 57.4481 105.84 57.9958 105.561 58.5391C105.283 59.0824 104.993 59.6234 104.694 60.1576C104.393 60.6918 104.081 61.2192 103.757 61.7443C103.436 62.2672 103.101 62.7833 102.757 63.2949C102.413 63.8087 102.05 64.3158 101.686 64.8138C101.322 65.3163 100.948 65.8097 100.556 66.2987C100.176 66.7831 99.78 67.2675 99.3726 67.7406C98.9674 68.2159 98.5554 68.6845 98.1321 69.144C97.7043 69.6058 97.2742 70.0585 96.8351 70.5044C96.3959 70.9503 95.9478 71.3895 95.4905 71.8173C95.0333 72.2519 94.5692 72.6752 94.0984 73.0894C93.6276 73.5037 93.1454 73.9134 92.6588 74.3095C92.1744 74.7079 91.6832 75.0972 91.1829 75.4798C90.6827 75.8623 90.1779 76.2336 89.664 76.598C89.1547 76.9579 88.6341 77.3133 88.1112 77.6619C87.5906 78.0037 87.0564 78.3409 86.5222 78.6646C85.9902 78.9906 85.4492 79.3075 84.906 79.6108C84.3605 79.9187 83.8127 80.2107 83.2604 80.4959C82.708 80.7834 82.1489 81.055 81.5921 81.3153C81.0285 81.5801 80.4626 81.8359 79.8967 82.0736C79.3285 82.3135 78.7558 82.5444 78.1831 82.7595C77.6082 82.979 77.0332 83.185 76.4538 83.3752C75.872 83.5721 75.2948 83.7509 74.7085 83.9184C74.1268 84.0882 73.5405 84.2489 72.9543 84.3915C72.3657 84.5341 71.7772 84.6654 71.1887 84.7831C70.6001 84.9008 70.0116 85.0049 69.4163 85.0955C68.83 85.1838 68.2392 85.2585 67.6484 85.3264C67.0553 85.3898 66.4623 85.4373 65.876 85.4735C65.283 85.5075 64.6922 85.5301 64.1036 85.5369C63.5151 85.5414 62.9334 85.5324 62.3584 85.5075C61.7857 85.4848 61.2176 85.4486 60.6607 85.3943C60.1039 85.34 59.5584 85.2766 59.0174 85.1973C58.4786 85.1159 57.9489 85.023 57.4238 84.9167C56.9009 84.8125 56.3893 84.6903 55.8846 84.5568C55.3798 84.4255 54.884 84.2761 54.3996 84.1176C53.913 83.9614 53.4354 83.7894 52.9713 83.6038C52.505 83.4204 52.0478 83.2235 51.5973 83.0153C51.1514 82.807 50.7123 82.5874 50.2867 82.3498C49.8589 82.1234 49.4424 81.8789 49.0349 81.6231C48.6252 81.3674 48.2314 81.1025 47.8466 80.8241C47.4617 80.5434 47.0837 80.2582 46.7216 79.9571C46.3571 79.6584 46.0063 79.346 45.6599 79.0268C45.3204 78.7076 44.9899 78.3749 44.6707 78.0354C44.3471 77.6936 44.0415 77.3404 43.7427 76.9805C43.4484 76.6184 43.1609 76.2494 42.8916 75.8691C42.6177 75.4866 42.3551 75.0995 42.1084 74.7011C41.8571 74.3027 41.6194 73.8953 41.3953 73.4788C41.1712 73.0623 40.9585 72.639 40.7615 72.2044C40.5601 71.7698 40.3745 71.3284 40.2002 70.8779C40.0281 70.4297 39.8652 69.9725 39.718 69.5084C39.5709 69.0421 39.4373 68.569 39.3128 68.0914C39.1929 67.6116 39.0842 67.1226 38.9914 66.6292C38.8986 66.1357 38.8171 65.6377 38.7515 65.1284C38.6836 64.6214 38.6292 64.1098 38.593 63.5892C38.5545 63.0708 38.5319 62.5456 38.5206 62.0137C38.5115 61.4818 38.5138 60.9453 38.5364 60.4043C38.5523 59.861 38.5885 59.3155 38.6383 58.7609C38.6858 58.2086 38.7515 57.6518 38.8284 57.0904C38.9077 56.529 39.0027 55.9631 39.1136 55.3927C39.2223 54.82 39.3491 54.2451 39.4894 53.6679C39.6297 53.0884 39.7882 52.5066 39.9602 51.9226Z"
      fill="#9A5F15" />
    <path
      d="M36.8196 49.7608C36.9916 49.1745 37.1772 48.5882 37.3787 48.0088C37.5779 47.4315 37.7907 46.8521 38.017 46.2816C38.2411 45.7135 38.4811 45.1476 38.7323 44.584C38.9859 44.0226 39.2484 43.4635 39.5268 42.9112C39.803 42.3588 40.0882 41.8111 40.3915 41.2678C40.6903 40.7245 41.0027 40.1881 41.3241 39.6584C41.6478 39.1242 41.9806 38.599 42.3246 38.0807C42.671 37.5578 43.0264 37.0462 43.3931 36.5369C43.7598 36.0299 44.1332 35.5273 44.5181 35.0361C44.9029 34.5382 45.299 34.0538 45.7019 33.5716C46.1094 33.0895 46.5213 32.6164 46.9424 32.1523C47.3656 31.6883 47.8003 31.2265 48.2394 30.7761C48.6785 30.3279 49.1267 29.8842 49.5817 29.4474C50.0389 29.015 50.5007 28.5895 50.9761 28.173C51.4446 27.7542 51.9268 27.3467 52.4112 26.9438C52.8956 26.5454 53.3913 26.1538 53.8916 25.7736C54.3896 25.391 54.8966 25.0175 55.4059 24.6553C55.9197 24.2977 56.4381 23.9401 56.9632 23.6005C57.4861 23.2587 58.0158 22.9237 58.55 22.6C59.0842 22.2808 59.6252 21.9685 60.1685 21.6674C60.714 21.3664 61.2618 21.0766 61.8119 20.7959C62.3664 20.5175 62.9187 20.2527 63.4846 19.9924C64.0483 19.7366 64.6142 19.4898 65.1823 19.2567C65.7505 19.0235 66.3232 18.8017 66.8959 18.5912C67.4731 18.3807 68.0503 18.1815 68.6275 17.9959C69.2047 17.8103 69.7887 17.6382 70.3727 17.4798C70.9545 17.3168 71.543 17.1674 72.1315 17.0339C72.7178 16.898 73.3063 16.7758 73.8949 16.6672C74.4879 16.5585 75.0765 16.4657 75.6673 16.3819C76.2603 16.3005 76.8511 16.2325 77.4419 16.1805C78.0327 16.1262 78.628 16.0877 79.2188 16.0628C79.8096 16.0379 80.4004 16.0288 80.9912 16.0333C81.5797 16.0379 82.1637 16.0537 82.7387 16.0854C83.3114 16.1194 83.8773 16.1646 84.4364 16.2258C84.9932 16.2869 85.541 16.3616 86.0798 16.4521C86.623 16.5381 87.155 16.6423 87.6756 16.7577C88.1985 16.8754 88.7146 16.9976 89.2171 17.1448C89.7241 17.2851 90.2176 17.4413 90.7043 17.6088C91.1932 17.7763 91.6708 17.9529 92.1371 18.143C92.6057 18.3354 93.0629 18.5414 93.5088 18.7564C93.957 18.9737 94.3962 19.2001 94.824 19.4378C95.2495 19.6777 95.6683 19.9267 96.0758 20.1893C96.4832 20.4519 96.8816 20.7212 97.2664 21.0064C97.6535 21.2871 98.0292 21.5837 98.3914 21.887C98.7581 22.1903 99.1112 22.5049 99.453 22.8286C99.7948 23.1546 100.125 23.4873 100.447 23.8314C100.766 24.1755 101.074 24.5286 101.373 24.8885C101.669 25.2507 101.954 25.6219 102.224 26.0044C102.5 26.3825 102.76 26.7718 103.009 27.1679C103.256 27.5686 103.494 27.9738 103.72 28.3903C103.942 28.8022 104.154 29.2255 104.354 29.6511C104.553 30.0834 104.741 30.5203 104.913 30.9662C105.085 31.4121 105.246 31.8649 105.397 32.3244C105.542 32.7839 105.678 33.2457 105.796 33.7255C105.918 34.1986 106.029 34.6785 106.117 35.1652C106.212 35.6518 106.294 36.1453 106.357 36.6456C106.425 37.1458 106.479 37.6506 106.513 38.1622C106.554 38.6715 106.574 39.1921 106.586 39.715C106.595 40.2356 106.59 40.7653 106.57 41.2995C106.552 41.8314 106.515 42.3702 106.466 42.9134C106.418 43.4567 106.352 44.0067 106.273 44.5568C106.189 45.1136 106.092 45.6682 105.988 46.2296C105.879 46.7887 105.75 47.3591 105.608 47.925C105.467 48.4954 105.311 49.0704 105.137 49.6476C104.967 50.2203 104.777 50.7952 104.578 51.3634C104.376 51.9316 104.164 52.4974 103.935 53.0633C103.704 53.6225 103.466 54.1793 103.215 54.7316C102.964 55.2862 102.699 55.834 102.421 56.3772C102.142 56.9205 101.852 57.4615 101.554 57.9957C101.253 58.5299 100.94 59.0573 100.617 59.5825C100.295 60.1054 99.9601 60.6215 99.616 61.133C99.2719 61.6469 98.9098 62.1539 98.5453 62.6519C98.1809 63.1544 97.8074 63.6479 97.4158 64.1368C97.0355 64.6212 96.6394 65.1056 96.2319 65.5787C95.8268 66.0541 95.4148 66.5226 94.9915 66.9821C94.5637 67.4439 94.1336 67.8966 93.6945 68.3425C93.2553 68.7885 92.8071 69.2276 92.3499 69.6554C91.8926 70.09 91.4286 70.5133 90.9578 70.9276C90.4869 71.3418 90.0048 71.7515 89.5181 72.1476C89.0337 72.546 88.5425 72.9354 88.0423 73.3179C87.542 73.7005 87.0373 74.0717 86.5234 74.4361C86.0141 74.796 85.4935 75.1514 84.9706 75.5C84.45 75.8418 83.9158 76.1791 83.3816 76.5028C82.8496 76.8287 82.3086 77.1456 81.7654 77.449C81.2198 77.7568 80.672 78.0488 80.1197 78.334C79.5674 78.6215 79.0083 78.8931 78.4515 79.1534C77.8878 79.4183 77.3219 79.6741 76.756 79.9117C76.1879 80.1517 75.6152 80.3826 75.0425 80.5976C74.4676 80.8172 73.8926 81.0232 73.3131 81.2133C72.7314 81.4102 72.1542 81.5891 71.5679 81.7566C70.9862 81.9263 70.3999 82.087 69.8136 82.2296C69.2251 82.3722 68.6366 82.5035 68.048 82.6212C67.4595 82.739 66.871 82.8431 66.2756 82.9336C65.6894 83.0219 65.0986 83.0966 64.5078 83.1645C63.9147 83.2279 63.3217 83.2754 62.7354 83.3116C62.1423 83.3456 61.5515 83.3682 60.963 83.375C60.3745 83.3795 59.7927 83.3705 59.2178 83.3456C58.6451 83.323 58.0769 83.2867 57.5201 83.2324C56.9633 83.1781 56.4177 83.1147 55.8767 83.0355C55.338 82.954 54.8083 82.8612 54.2832 82.7548C53.7603 82.6507 53.2487 82.5284 52.7439 82.3949C52.2391 82.2636 51.7434 82.1142 51.259 81.9558C50.7723 81.7996 50.2947 81.6275 49.8307 81.4419C49.3644 81.2586 48.9071 81.0616 48.4567 80.8534C48.0108 80.6451 47.5716 80.4256 47.1461 80.1879C46.7183 79.9615 46.3018 79.7171 45.8943 79.4613C45.4846 79.2055 45.0907 78.9407 44.7059 78.6622C44.3211 78.3815 43.9431 78.0963 43.5809 77.7953C43.2165 77.4965 42.8656 77.1841 42.5193 76.8649C42.1798 76.5458 41.8493 76.213 41.5301 75.8735C41.2064 75.5317 40.9008 75.1786 40.6021 74.8187C40.3078 74.4565 40.0203 74.0875 39.7509 73.7072C39.477 73.3247 39.2145 72.9376 38.9677 72.5392C38.7165 72.1408 38.4788 71.7334 38.2547 71.3169C38.0306 70.9004 37.8178 70.4771 37.6209 70.0425C37.4195 69.6079 37.2338 69.1665 37.0595 68.716C36.8875 68.2679 36.7245 67.8106 36.5774 67.3466C36.4303 66.8803 36.2967 66.4072 36.1722 65.9296C36.0522 65.4497 35.9436 64.9608 35.8508 64.4673C35.758 63.9738 35.6765 63.4758 35.6108 62.9665C35.5429 62.4595 35.4886 61.9479 35.4524 61.4273C35.4139 60.9089 35.3913 60.3838 35.38 59.8518C35.3709 59.3199 35.3732 58.7834 35.3958 58.2424C35.4116 57.6992 35.4479 57.1536 35.4977 56.5991C35.5452 56.0468 35.6108 55.4899 35.6878 54.9285C35.767 54.3672 35.8621 53.8013 35.973 53.2309C36.0817 52.6582 36.2084 52.0832 36.3488 51.506C36.4891 50.9265 36.6476 50.3448 36.8196 49.7608Z"
      fill="#D08E39" />
    <path
      d="M97.9288 36.6479C97.9288 36.6479 97.1954 36.6026 96.4643 36.5596C95.7354 36.5144 95.0066 36.4713 95.0066 36.4713C94.7983 36.46 94.624 36.3717 94.5131 36.2246C94.4044 36.082 94.3682 35.8873 94.4112 35.6791C94.4112 35.6791 94.547 35.0068 94.6829 34.3323C94.8187 33.66 94.9568 32.9832 94.9568 32.9832C94.9635 32.9379 94.9477 32.8949 94.9228 32.87C94.8956 32.8383 94.8549 32.8247 94.8096 32.8247C94.7621 32.8247 94.71 32.8383 94.6693 32.8655C94.624 32.8971 94.5833 32.9379 94.5629 32.9854C94.5629 32.9854 94.298 33.6554 94.0287 34.3323C93.7616 35.0045 93.4922 35.6746 93.4922 35.6746C93.413 35.8896 93.2591 36.082 93.0644 36.2269C92.8675 36.3717 92.6388 36.4555 92.4261 36.4668C92.4261 36.4668 91.6678 36.5098 90.9117 36.5551C90.1534 36.6004 89.3974 36.6456 89.3974 36.6456C89.3499 36.6524 89.3023 36.6773 89.2616 36.7113C89.2186 36.7452 89.1891 36.7882 89.1756 36.8358C89.162 36.8811 89.1642 36.9263 89.1846 36.9625C89.2072 36.9965 89.2412 37.0191 89.2842 37.0282C89.2842 37.0282 90.0131 37.0735 90.742 37.1165C91.4708 37.1595 92.2065 37.2047 92.2065 37.2047C92.408 37.2183 92.5845 37.3066 92.6932 37.4492C92.7996 37.5963 92.838 37.791 92.7996 37.997C92.7996 37.997 92.6615 38.667 92.5257 39.3438C92.3898 40.0161 92.2518 40.6929 92.2518 40.6929C92.2472 40.7382 92.2586 40.7767 92.2835 40.8061C92.3129 40.8355 92.3514 40.8536 92.3989 40.8514C92.4442 40.8536 92.494 40.8333 92.5415 40.8061C92.5845 40.7767 92.6207 40.7359 92.6456 40.6884C92.6456 40.6884 92.9105 40.0161 93.1776 39.3438C93.4447 38.6693 93.7118 37.9993 93.7118 37.9993C93.7933 37.7888 93.9472 37.5986 94.1396 37.4515C94.3343 37.3089 94.5629 37.2229 94.7802 37.207C94.7802 37.207 95.5385 37.164 96.2968 37.1187C97.0551 37.0735 97.8134 37.0304 97.8134 37.0304C97.8609 37.0237 97.9062 36.9988 97.9492 36.9625C97.9854 36.9286 98.0171 36.8811 98.0307 36.8403C98.0443 36.795 98.042 36.7498 98.0239 36.7158C98.0035 36.6796 97.9718 36.6547 97.9288 36.6479Z"
      fill="#002522" />
    <path fill-rule="evenodd" clip-rule="evenodd"
      d="M88.66 46.7366L89.0448 47.0784C89.3934 47.3636 89.6084 47.7665 89.6741 48.2374C89.6899 48.5022 89.6447 48.7852 89.5337 49.0613C89.45 49.2854 89.3459 49.5027 89.235 49.7132C89.0086 50.1365 88.7279 50.5507 88.4065 50.9356C88.2367 51.128 88.0511 51.3158 87.861 51.4924L87.7614 51.5875L87.6889 52.1262C87.6527 52.3412 87.6006 52.554 87.5395 52.7781C87.406 53.2082 87.2272 53.636 87.0053 54.0548C86.7835 54.4735 86.5141 54.8787 86.2131 55.2681C85.9075 55.6619 85.5657 56.0309 85.199 56.3682C84.8278 56.71 84.4294 57.0223 84.0106 57.3008L83.9087 57.3641L83.8001 57.3981C83.3225 57.5498 82.8426 57.6901 82.3627 57.8101C81.8806 57.9323 81.4029 58.0364 80.9231 58.1247C80.4364 58.222 79.9475 58.2922 79.4676 58.333C78.99 58.3737 78.5123 58.3895 78.046 58.3737H77.9827L77.9102 58.376C77.4892 58.2288 77.0569 58.0998 76.62 57.9821C76.1831 57.8599 75.7417 57.7535 75.2913 57.6607C74.8431 57.5633 74.3858 57.4818 73.9241 57.4117C73.4646 57.3415 72.9937 57.2872 72.5252 57.2396C72.4029 57.2283 72.2807 57.2215 72.1562 57.208C71.7918 57.1831 71.4069 57.1536 71.0289 57.0925C70.5309 57.0133 70.0511 56.8843 69.6051 56.7077C69.209 56.5606 68.8016 56.4474 68.3692 56.3704C67.9414 56.298 67.4955 56.255 67.0405 56.2527L67.0088 56.2505C66.6149 56.667 66.2958 57.131 66.0785 57.6131C65.8521 58.0998 65.7321 58.5955 65.7186 59.0686C65.6574 59.6639 65.6461 60.2479 65.6891 60.8138C65.7254 61.382 65.8136 61.9321 65.9472 62.4663C66.117 63.0231 66.2641 63.5913 66.3908 64.1685C66.5199 64.7434 66.6263 65.332 66.7145 65.9273C66.8096 66.5543 66.8164 67.2198 66.7417 67.8989C66.6602 68.6345 66.375 69.4019 65.9223 70.1172L65.3677 70.9683L64.7928 70.4341C64.7022 70.3594 64.6026 70.2915 64.4962 70.2372C64.3197 70.6491 64.1137 71.0611 63.8873 71.4595C63.4686 72.1635 62.9706 72.838 62.4001 73.4718C62.4862 72.9738 62.5224 72.5211 62.5156 72.1114C62.5065 71.6972 62.4545 71.3237 62.3685 70.9841C62.1919 70.3051 61.8659 69.7573 61.4494 69.3046C61.0329 68.8473 60.5168 68.4806 59.9532 68.1592C59.3941 67.8378 58.7852 67.5616 58.1808 67.2854C57.6376 67.0432 57.0966 66.801 56.5963 66.5249C56.0983 66.2487 55.6343 65.9454 55.2495 65.5787C54.9348 65.2799 54.6723 64.9743 54.4527 64.6619C54.2354 64.3473 54.0679 64.0236 53.9457 63.6863C53.8212 63.3491 53.7465 63.0005 53.7193 62.6338C53.6899 62.2648 53.7102 61.88 53.7736 61.4771C53.8393 61.0764 53.9502 60.6509 54.1086 60.2049C54.2648 59.759 54.4663 59.2882 54.7153 58.7925C54.9643 58.2967 55.2585 57.7739 55.6003 57.2215C55.9376 56.6715 56.3247 56.0897 56.7502 55.474C57.0151 55.096 57.2709 54.7135 57.5131 54.3287C57.7598 53.9416 57.9952 53.5568 58.2193 53.1652C58.4457 52.7736 58.663 52.3797 58.869 51.9859C59.0749 51.5875 59.2719 51.1891 59.4552 50.7884C59.6182 50.424 59.7925 50.0709 59.9781 49.7132C60.0007 49.6634 60.0211 49.6159 60.0505 49.5683L60.1841 49.3148C60.1433 49.4778 60.0981 49.6385 60.0573 49.7947C59.9509 50.1863 59.8491 50.5734 59.7834 50.9514C59.6589 51.4766 59.6114 51.9904 59.6431 52.4793C59.6589 52.6876 59.7246 52.8777 59.8264 53.043C59.8559 53.095 59.8944 53.1358 59.9328 53.1901C59.9623 53.2263 59.9917 53.267 60.0256 53.3146C60.0822 53.4074 60.1456 53.4911 60.2158 53.5704C60.5214 53.8692 60.8926 54.1023 61.3136 54.2653C61.7573 54.4351 62.2213 54.5731 62.7035 54.6795C63.1788 54.7859 63.6745 54.8629 64.1839 54.9082C64.6705 54.9602 65.164 55.001 65.6665 55.0213C66.169 55.0462 66.6761 55.0553 67.1967 55.053H67.3506C67.878 55.0575 68.3986 55.0983 68.9012 55.1866C69.3969 55.2726 69.879 55.3993 70.334 55.5691C70.7392 55.7162 71.1647 55.8317 71.6039 55.9132C72.0521 55.9924 72.5116 56.0377 72.9824 56.049C73.4691 56.0943 73.949 56.1509 74.4266 56.2233C74.9019 56.2935 75.3705 56.3772 75.8345 56.4723C76.2963 56.5696 76.7558 56.6783 77.2017 56.8005C77.6522 56.9227 78.0958 57.0563 78.5305 57.2034C78.9379 57.2125 79.3499 57.1989 79.7664 57.1604C80.1851 57.1242 80.6084 57.0631 81.0317 56.9793C81.6361 56.8684 82.2427 56.7168 82.8516 56.5492C84.2551 56.0264 85.4978 54.6252 83.7548 54.8108C83.3496 54.8425 82.9377 54.8991 82.5212 54.9783C82.202 55.0372 81.8692 55.1458 81.5093 55.2658C81.1902 55.3699 80.8506 55.4808 80.4885 55.5623C79.7551 55.7276 79.0398 55.714 78.4195 55.5261C77.8967 55.2839 77.3172 55.1413 76.6879 55.096C77.0342 54.9285 77.3987 54.8267 77.7473 54.8063C78.003 54.7814 78.2203 54.7882 78.4286 54.7995C78.5305 54.7995 78.6323 54.804 78.7319 54.804C79.2955 54.8742 79.8863 54.847 80.4975 54.7248C80.8121 54.641 81.1517 54.4871 81.5184 54.3151C81.8194 54.1793 82.1318 54.0367 82.4646 53.9144C83.1889 53.6473 83.9223 53.5047 84.6286 53.4911L85.0496 53.4889C85.7445 52.8166 86.3783 52.0764 86.4009 51.4675C86.2832 51.2117 86.0773 51.0284 85.8056 50.9265C85.7355 50.8971 85.5883 50.8586 85.3982 50.8088C85.0609 50.7115 84.5788 50.5802 84.1283 50.4104C83.6824 50.2384 83.2704 50.0369 83.078 49.7992C82.7996 49.4008 83.2727 48.6063 84.9998 48.2713C85.7852 48.1423 86.5481 48.1242 87.2792 48.2034C87.5282 48.2487 87.7998 48.2238 88.0715 48.1378L88.0036 48.0563L87.6278 47.7281L87.2588 47.3772C87.2588 47.3772 86.8944 47.0286 86.5322 46.6823C86.1723 46.3337 85.8124 45.9828 85.8124 45.9828C85.5747 45.761 85.319 45.5278 85.0835 45.34L84.959 45.2562L84.701 45.1317C84.5312 45.0548 84.3705 44.9574 84.2075 44.8601C83.7005 44.5545 83.2681 44.1674 82.9105 43.717C82.5687 43.3412 82.2518 42.8364 81.9666 42.266C81.6814 41.6956 81.4256 41.0641 81.2105 40.4438C80.9932 39.8236 80.8167 39.2124 80.6786 38.6828C80.5428 38.1508 80.4477 37.7049 80.4047 37.4084C80.3277 36.9511 80.1534 36.5414 79.8999 36.1951C79.6464 35.8465 79.3091 35.5658 78.9017 35.3643C79.368 35.3394 79.8049 35.4187 80.1716 35.5952C80.5428 35.7741 80.8393 36.0412 81.0385 36.3784C81.1585 36.5097 81.326 36.9262 81.5297 37.4265C81.7334 37.9335 81.9756 38.5288 82.2314 39.0065C82.494 39.4818 82.7747 39.8349 83.0576 39.8644C83.3813 39.853 83.7073 39.81 84.0378 39.724C83.8295 39.4479 83.6507 39.1445 83.5081 38.8231C83.3134 38.4066 83.1934 37.9833 83.078 37.5668C83.0373 37.4265 83.001 37.2839 82.958 37.1526C82.8381 36.632 82.6502 36.1521 82.4012 35.7061C82.3401 35.6133 82.2722 35.5296 82.1975 35.4526C82.1182 35.3757 82.0277 35.31 81.9281 35.2557C81.7108 35.1244 81.4867 35.0135 81.1947 34.8913C80.9095 34.7668 80.6582 34.6581 80.373 34.4951L79.6328 34.0628L78.1434 33.223C77.6477 32.9536 77.1406 32.6956 76.6223 32.4602C76.1062 32.2202 75.572 32.0029 75.0264 31.7992C74.49 31.6068 73.9331 31.4393 73.3604 31.3035C72.7855 31.1722 72.1969 31.0681 71.5926 30.9956C71.3074 30.9571 71.0154 30.9368 70.7166 30.93C70.4789 30.9209 70.2276 30.973 69.9786 31.0726C69.8473 31.1224 69.7138 31.1835 69.5689 31.2491C69.3901 31.3306 69.1932 31.4167 68.9781 31.4981L68.0003 31.8875C67.3551 32.1636 66.7168 32.4624 66.0853 32.7884C65.456 33.1098 64.8312 33.4584 64.2155 33.8296C63.7357 34.0877 63.2671 34.3797 62.8144 34.7034C62.3639 35.0271 61.9293 35.3802 61.5241 35.7605C61.9678 35.7401 62.4001 35.7627 62.8144 35.8239C63.2286 35.8872 63.6247 35.9936 64.0005 36.1362C63.4437 36.1249 62.8755 36.1566 62.3005 36.2358C61.7256 36.3128 61.1439 36.4305 60.5621 36.5912C59.994 36.7474 59.4281 36.933 58.8622 37.1571C58.3008 37.3608 57.7507 37.6076 57.212 37.8905C56.6823 38.1463 56.173 38.4587 55.6954 38.8163C55.4962 38.9702 55.3264 39.1513 55.1884 39.3483C55.0186 39.5791 54.8443 39.8327 54.6768 40.0839C54.344 40.6023 54.0294 41.1229 53.7306 41.6503C53.4318 42.1777 53.1489 42.7119 52.8863 43.2462C52.6147 43.7826 52.3634 44.3191 52.1257 44.8578C51.8881 45.4011 51.6685 45.9398 51.467 46.4853C51.2678 47.0286 51.0845 47.5696 50.917 48.1197C50.7495 48.6607 50.6023 49.2084 50.4665 49.754C50.3601 50.1931 50.2764 50.6322 50.2153 51.0668C50.1541 51.5015 50.1225 51.927 50.1089 52.3548C50.0998 52.7759 50.1111 53.1946 50.1496 53.6043C50.1858 54.0118 50.2447 54.417 50.3352 54.8063C50.8581 54.3106 51.3833 53.808 51.9062 53.301C52.4268 52.7962 52.9451 52.2824 53.4522 51.7708C53.7804 51.4358 54.1086 51.0963 54.4346 50.759C54.7583 50.4217 55.0752 50.0822 55.3943 49.7381C55.709 49.3986 56.0214 49.0523 56.3315 48.7037C56.6393 48.3596 56.9426 48.0133 57.2414 47.6692C57.5538 47.307 57.8549 46.9358 58.1537 46.56C58.4502 46.1843 58.7445 45.804 59.041 45.4215C59.3103 45.0706 59.5842 44.7197 59.8604 44.3666C60.1388 44.0158 60.4195 43.6627 60.7138 43.3163C61.0171 42.9428 61.3295 42.5829 61.6577 42.2298C61.9882 41.8767 62.3277 41.5349 62.6831 41.2021C63.0498 40.8581 63.4482 40.548 63.8669 40.2831C64.2902 40.007 64.7565 39.8395 65.2025 39.81C64.7633 40.1179 64.3061 40.557 63.8307 41.098C63.3554 41.639 62.8664 42.2841 62.3594 43.0062C62.1081 43.3684 61.8524 43.7487 61.5966 44.1448C61.3363 44.5455 61.0759 44.9574 60.8156 45.3807C60.5531 45.8085 60.286 46.2477 60.0189 46.6959C59.7495 47.144 59.4779 47.6013 59.2085 48.0653C58.9889 48.4411 58.715 48.8802 58.4072 49.3556C58.0971 49.8355 57.7507 50.3493 57.3795 50.8858C57.006 51.42 56.6076 51.9768 56.1957 52.5291C55.7837 53.0837 55.3581 53.636 54.9303 54.168C54.507 54.6954 54.0792 55.2024 53.6627 55.671C53.2439 56.135 52.841 56.556 52.4607 56.916C51.6956 57.6358 51.0279 58.0975 50.548 58.1406C49.8146 58.1858 49.6516 57.8463 49.3642 57.1446L49.1265 56.5923C48.9137 56.0988 48.7507 55.5804 48.6443 55.0394C48.5312 54.4962 48.4746 53.9325 48.4678 53.3508C48.4791 52.7781 48.5153 52.2032 48.59 51.6192C48.6624 51.0374 48.7711 50.4444 48.9137 49.8558C49.0563 49.2696 49.2215 48.6946 49.4072 48.1129C49.5928 47.5289 49.7988 46.9426 50.0206 46.3699C50.256 45.795 50.5073 45.22 50.7744 44.6518C51.0415 44.0814 51.3222 43.5155 51.6187 42.9542C51.913 42.3905 52.2299 41.8291 52.5626 41.2746C52.8931 40.7223 53.2417 40.1745 53.6106 39.6335C53.8008 39.3641 53.9932 39.0925 54.215 38.8118C54.335 38.6579 54.4595 38.5107 54.5998 38.3681C54.7447 38.2233 54.9009 38.0897 55.0661 37.9629C55.6456 37.5374 56.2658 37.1752 56.9019 36.8968C57.4338 36.6591 57.9703 36.4577 58.509 36.2924C59.05 36.1272 59.591 36.0004 60.1298 35.9099C60.6051 35.2783 61.171 34.7011 61.8048 34.1986C62.4228 33.7142 63.0679 33.2683 63.7357 32.8721C64.3672 32.467 65.0123 32.0912 65.6688 31.7449C66.3229 31.3985 66.9884 31.0794 67.6652 30.7942C67.9912 30.6538 68.41 30.4908 68.6929 30.3845C68.8287 30.3369 68.9736 30.269 69.1343 30.1966C69.3018 30.1241 69.4829 30.0427 69.6866 29.968C70.1099 29.7959 70.54 29.7076 70.952 29.7167C71.2983 29.7235 71.6356 29.7439 71.9661 29.7937C72.6112 29.8706 73.2427 29.9815 73.8562 30.1219C74.4673 30.2667 75.0626 30.4433 75.6353 30.6538C76.2035 30.8621 76.7603 31.0884 77.2991 31.3352C77.8378 31.5842 78.363 31.849 78.8745 32.1319L80.3866 32.9831L81.1336 33.4154C81.3011 33.5127 81.5184 33.6123 81.7493 33.7119C81.7945 33.73 81.8376 33.7504 81.8806 33.7663C82.159 33.893 82.4193 34.022 82.6932 34.1805C82.8426 34.271 82.9852 34.3638 83.112 34.477C83.2251 34.6015 83.3315 34.7373 83.4243 34.8777C83.7526 35.3847 84.0015 35.9416 84.1713 36.5391C84.1781 36.5663 84.1849 36.5912 84.1917 36.6116C84.3479 37.1616 84.4995 37.689 84.7055 38.1553C84.9115 38.6216 85.1718 39.0246 85.543 39.3256L86.1384 39.8078L86.1157 39.8847L85.8011 40.2469L85.0654 40.4144C84.9273 40.4574 84.7915 40.5457 84.6919 40.6589C84.6399 40.7177 84.6014 40.7834 84.5788 40.8468C84.5312 40.9826 84.495 41.1116 84.4611 41.2429C84.3977 41.4534 84.3071 41.6571 84.1872 41.8563C84.1193 41.9627 84.0581 42.0555 84.0015 42.1347C83.9631 42.1913 83.9268 42.2456 83.8997 42.2864C83.868 42.3294 83.8476 42.3724 83.834 42.4199C83.8205 42.4675 83.8159 42.5128 83.825 42.5535C84.1577 43.0515 84.6014 43.4612 85.1265 43.7736C85.2533 43.8596 85.3959 43.9343 85.543 44.0067L85.7649 44.1018C85.8781 44.1584 85.9776 44.224 86.0705 44.3032C86.3421 44.5092 86.5571 44.7062 86.7744 44.9189C86.8016 44.9438 86.8288 44.9687 86.8582 44.9936C86.8582 44.9936 87.2181 45.3468 87.578 45.6931C87.9379 46.0462 88.3001 46.3971 88.3001 46.3971L88.66 46.7366ZM73.666 42.8727C73.5008 42.8885 73.3401 42.8885 73.1884 42.8704C72.1336 42.8115 71.8302 42.0917 72.2218 41.3493C72.618 40.6091 72.5863 40.3669 72.3735 40.3669C72.0113 40.4801 71.6695 40.6906 71.3934 40.9758L71.3504 40.9735C71.3368 40.978 71.3232 40.978 71.3141 40.9712C71.3028 40.9712 71.2983 40.9645 71.2915 40.9577C71.2825 40.9486 71.2779 40.9396 71.2825 40.9282C71.2802 40.9169 71.2779 40.9079 71.2825 40.8988C71.9661 39.3618 72.8919 39.2939 73.297 39.2962C73.8992 39.3415 74.4922 39.4162 75.0672 39.5203C75.6467 39.6222 76.2058 39.7534 76.7603 39.9119C76.792 39.9164 76.8169 39.9345 76.8373 39.9549C76.8577 39.9821 76.8667 40.0092 76.8599 40.0477C76.8599 40.0817 76.8418 40.1133 76.8237 40.1473C76.8011 40.1745 76.7694 40.2039 76.7309 40.222C76.5113 40.3759 76.3167 40.5729 76.1831 40.7947C76.0382 41.0143 75.9568 41.2497 75.9387 41.476C75.8707 41.8359 75.5765 42.1574 75.1622 42.4018C74.748 42.6463 74.2138 42.8161 73.666 42.8727Z"
      fill="#002522" />
    <path
      d="M173.67 66.4007C178.939 66.4007 183.221 63.2173 183.221 58.6434C183.221 54.3622 179.415 52.496 177.037 52.679C178.939 52.0935 181.354 50.7396 181.354 47.9221C181.354 44.9947 178.976 42.7261 173.926 42.7261C168.328 42.7261 166.059 45.7266 166.059 48.105C166.059 49.3125 166.645 50.3737 168.108 50.3737C169.535 50.3737 170.011 49.4223 170.011 48.105C170.011 45.7632 170.926 43.897 173.487 43.897C176.122 43.897 177.512 45.7632 177.512 48.3977C177.512 51.2519 175.829 52.313 171.768 53.6669L172.207 54.8378C173.195 54.3622 174.109 54.1426 174.914 54.1426C177.22 54.1426 179.049 55.7526 179.049 59.0459C179.049 62.3757 177.22 65.1932 174.073 65.1932C171.402 65.1932 170.158 63.1441 169.572 61.717C168.621 59.2654 169.426 57.5456 167.194 57.5456C165.949 57.5456 165.071 58.2043 165.071 60.0338C165.071 63.9125 168.95 66.4007 173.67 66.4007Z"
      fill="#22C480" />
    <path
      d="M194.867 66.4007C199.99 66.4007 203.357 63.0343 203.357 58.5702C203.357 54.0694 199.917 51.3251 196.075 51.3251C192.891 51.3251 190.623 53.2644 190.074 54.1426C190.074 49.6053 191.537 44.1165 196.77 44.1165C197.685 44.1165 198.49 44.2629 199.844 44.9582L200.429 44.0434C199.295 43.092 197.685 42.7261 196.002 42.7261C189.049 42.7261 186.012 48.8368 185.976 55.3135C185.939 61.3511 188.537 66.4007 194.867 66.4007ZM195.087 65.1932C191.647 65.1932 190.074 61.5341 190.074 58.6068C190.074 55.4233 191.977 53.0449 194.794 53.0449C197.685 53.0449 199.368 55.6429 199.368 59.1922C199.368 61.9366 198.307 65.1932 195.087 65.1932Z"
      fill="#22C480" />
    <path
      d="M207.42 70.0599C209.103 68.9621 210.53 66.9862 210.53 64.7175C210.53 62.9977 209.725 61.6073 207.968 61.6073C206.615 61.6073 205.553 62.5586 205.553 63.9857C205.553 65.2664 206.468 66.2178 207.749 66.2178C208.151 66.2178 208.371 66.4739 208.371 66.8398C208.371 67.4619 207.749 68.5231 206.798 69.3647L207.42 70.0599Z"
      fill="#22C480" />
    <path
      d="M215.48 66.0348H218.151L229.714 43.3115H217.749L214.822 43.0188L212.919 49.1296H213.98C215.151 47.2268 216.541 46.8609 219.505 46.8609H226.75L215.48 66.0348Z"
      fill="#22C480" />
    <path
      d="M239.778 66.4007C245.047 66.4007 249.328 63.2173 249.328 58.6434C249.328 54.3622 245.523 52.496 243.144 52.679C245.047 52.0935 247.462 50.7396 247.462 47.9221C247.462 44.9947 245.084 42.7261 240.034 42.7261C234.436 42.7261 232.167 45.7266 232.167 48.105C232.167 49.3125 232.752 50.3737 234.216 50.3737C235.643 50.3737 236.119 49.4223 236.119 48.105C236.119 45.7632 237.034 43.897 239.595 43.897C242.23 43.897 243.62 45.7632 243.62 48.3977C243.62 51.2519 241.937 52.313 237.875 53.6669L238.314 54.8378C239.302 54.3622 240.217 54.1426 241.022 54.1426C243.327 54.1426 245.157 55.7526 245.157 59.0459C245.157 62.3757 243.327 65.1932 240.18 65.1932C237.509 65.1932 236.265 63.1441 235.68 61.717C234.728 59.2654 235.533 57.5456 233.301 57.5456C232.057 57.5456 231.179 58.2043 231.179 60.0338C231.179 63.9125 235.058 66.4007 239.778 66.4007Z"
      fill="#22C480" />
    <path
      d="M260.975 66.4007C266.098 66.4007 269.464 63.0343 269.464 58.5702C269.464 54.0694 266.025 51.3251 262.182 51.3251C258.999 51.3251 256.73 53.2644 256.181 54.1426C256.181 49.6053 257.645 44.1165 262.878 44.1165C263.792 44.1165 264.597 44.2629 265.951 44.9582L266.537 44.0434C265.402 43.092 263.792 42.7261 262.109 42.7261C255.157 42.7261 252.12 48.8368 252.083 55.3135C252.047 61.3511 254.645 66.4007 260.975 66.4007ZM261.194 65.1932C257.755 65.1932 256.181 61.5341 256.181 58.6068C256.181 55.4233 258.084 53.0449 260.902 53.0449C263.792 53.0449 265.476 55.6429 265.476 59.1922C265.476 61.9366 264.415 65.1932 261.194 65.1932Z"
      fill="#22C480" />
    <path d="M195.368 78.0286V79.5247H198.913V89.4126H200.589V79.5247H204.134V78.0286H195.368Z" fill="#99A8A7" />
    <path
      d="M209.447 78.0286H207.658L203.527 89.4126H205.349L206.211 86.8918H210.894L211.756 89.4126H213.578L209.447 78.0286ZM206.666 85.3956L208.552 79.8663L210.439 85.3956H206.666Z"
      fill="#99A8A7" />
    <path d="M216.847 87.9164V78.0286H215.172V89.4126H222.361V87.9164H216.847Z" fill="#99A8A7" />
    <path d="M225.884 87.9164V78.0286H224.209V89.4126H231.397V87.9164H225.884Z" fill="#99A8A7" />
    <path
      d="M238.375 78.0286L235.529 83.2977L232.667 78.0286H230.781L234.684 84.9728V89.4126H236.359V84.9728L240.278 78.0286H238.375Z"
      fill="#99A8A7" />
    <path
      d="M299.875 66.0348H310.157V64.9737C307.669 64.8273 306.937 64.3516 306.937 62.8514V43.7506C306.937 43.2018 306.425 42.7993 305.583 43.1652L300.058 45.69V46.7145L301.631 46.6048C302.766 46.5316 303.095 46.6414 303.095 48.105V62.8514C303.095 64.3516 302.363 64.8273 299.875 64.9737V66.0348Z"
      fill="#22C480" />
    <path
      d="M312.712 66.0348H329.544C329.361 65.7787 329.105 65.486 329.434 63.7296L330.02 60.1802H328.959C328.263 62.2293 327.019 62.7782 323.872 62.7782H314.908C318.457 56.9602 329.727 56.1551 329.727 49.0564C329.727 45.1411 326.58 42.7261 321.64 42.7261C316.115 42.7261 313.224 45.7266 313.224 49.0564C313.224 51.0689 314.285 52.4228 315.859 52.4228C316.81 52.4228 317.945 51.9471 317.945 50.5932C317.945 49.6419 317.432 49.3125 317.432 47.9952C317.432 45.7632 318.969 43.9336 321.421 43.9336C324.202 43.9336 325.446 46.2023 325.446 48.2514C325.446 54.6915 312.712 57.4724 312.712 66.0348Z"
      fill="#22C480" />
    <path
      d="M342.305 66.4007C348.525 66.4007 351.819 60.7657 351.819 54.5451C351.819 48.3612 348.525 42.7261 342.305 42.7261C336.048 42.7261 332.754 48.3612 332.754 54.5451C332.754 60.7657 336.048 66.4007 342.305 66.4007ZM342.634 65.0469C338.39 65.0469 337.072 59.302 337.072 53.6303C337.072 47.9221 338.499 44.08 341.939 44.08C346.147 44.08 347.464 49.8248 347.464 55.4965C347.464 61.2414 346.074 65.0469 342.634 65.0469Z"
      fill="#22C480" />
    <path
      d="M312.819 78.0286V85.2005C312.819 86.7129 311.957 88.079 310.152 88.079C308.33 88.079 307.485 86.7129 307.485 85.2005V78.0286H305.81V85.2168C305.81 87.7375 307.403 89.5752 310.152 89.5752C312.9 89.5752 314.494 87.7375 314.494 85.2168V78.0286H312.819Z"
      fill="#99A8A7" />
    <path
      d="M317.968 83.4278C317.968 82.7285 318.732 82.387 319.415 82.387C320.196 82.387 320.83 82.8261 320.992 83.5579L322.537 83.2977C322.245 81.8666 320.846 81.0535 319.415 81.0535C317.87 81.0535 316.423 82.0292 316.423 83.5742C316.423 85.1192 317.903 85.6559 319.61 86.0299C320.391 86.2088 321.204 86.4202 321.204 87.1683C321.204 87.9652 320.277 88.2416 319.578 88.2416C318.667 88.2416 318.016 87.7863 317.837 86.9081L316.276 87.1683C316.504 88.7946 318 89.5752 319.61 89.5752C321.253 89.5752 322.781 88.7458 322.781 87.1032C322.781 85.4119 321.155 84.9078 319.691 84.5988C318.846 84.4199 317.968 84.1759 317.968 83.4278Z"
      fill="#99A8A7" />
    <path
      d="M331.966 85.4607C331.966 82.9887 330.486 81.0697 328.014 81.0697C325.559 81.0697 323.965 82.9237 323.965 85.3469C323.965 87.7863 325.607 89.5752 328.063 89.5752C329.754 89.5752 331.072 88.7621 331.787 87.152L330.259 86.8756C329.82 87.77 329.055 88.1929 328.063 88.1929C326.648 88.1929 325.607 87.2496 325.526 85.8185H331.95C331.966 85.7046 331.966 85.5745 331.966 85.4607ZM325.591 84.5662C325.77 83.2652 326.697 82.4033 328.014 82.4033C329.25 82.4033 330.242 83.2652 330.356 84.5662H325.591Z"
      fill="#99A8A7" />
    <path
      d="M338.232 81.1185C338.037 81.086 337.858 81.086 337.695 81.1022C336.573 81.1185 335.825 81.6064 335.256 82.6147V81.2486H333.646V89.4126H335.256V85.3306C335.256 83.3628 336.443 82.3545 338.232 82.5496V81.1185Z"
      fill="#99A8A7" />
    <path
      d="M340.663 83.4278C340.663 82.7285 341.427 82.387 342.11 82.387C342.891 82.387 343.525 82.8261 343.687 83.5579L345.232 83.2977C344.94 81.8666 343.541 81.0535 342.11 81.0535C340.565 81.0535 339.118 82.0292 339.118 83.5742C339.118 85.1192 340.598 85.6559 342.305 86.0299C343.086 86.2088 343.899 86.4202 343.899 87.1683C343.899 87.9652 342.972 88.2416 342.273 88.2416C341.362 88.2416 340.711 87.7863 340.532 86.9081L338.971 87.1683C339.199 88.7946 340.695 89.5752 342.305 89.5752C343.948 89.5752 345.476 88.7458 345.476 87.1032C345.476 85.4119 343.85 84.9078 342.386 84.5988C341.541 84.4199 340.663 84.1759 340.663 83.4278Z"
      fill="#99A8A7" />
  </g>
  <defs>
    <filter id="filter0_ddd_1779_44860" x="-11.125" y="0" width="405.783" height="147.577" filterUnits="userSpaceOnUse"
      color-interpolation-filters="sRGB">
      <feFlood flood-opacity="0" result="BackgroundImageFix" />
      <feColorMatrix in="SourceAlpha" type="matrix" values="0 0 0 0 0 0 0 0 0 0 0 0 0 0 0 0 0 0 127 0"
        result="hardAlpha" />
      <feOffset dy="10" />
      <feGaussianBlur stdDeviation="6" />
      <feColorMatrix type="matrix" values="0 0 0 0 0 0 0 0 0 0.0784314 0 0 0 0 0.0745098 0 0 0 0.34 0" />
      <feBlend mode="normal" in2="BackgroundImageFix" result="effect1_dropShadow_1779_44860" />
      <feColorMatrix in="SourceAlpha" type="matrix" values="0 0 0 0 0 0 0 0 0 0 0 0 0 0 0 0 0 0 127 0"
        result="hardAlpha" />
      <feOffset dy="14" />
      <feGaussianBlur stdDeviation="8" />
      <feColorMatrix type="matrix" values="0 0 0 0 0 0 0 0 0 0.0784314 0 0 0 0 0.0745098 0 0 0 0.24 0" />
      <feBlend mode="normal" in2="effect1_dropShadow_1779_44860" result="effect2_dropShadow_1779_44860" />
      <feColorMatrix in="SourceAlpha" type="matrix" values="0 0 0 0 0 0 0 0 0 0 0 0 0 0 0 0 0 0 127 0"
        result="hardAlpha" />
      <feOffset dy="24" />
      <feGaussianBlur stdDeviation="12" />
      <feColorMatrix type="matrix" values="0 0 0 0 0 0 0 0 0 0.0784314 0 0 0 0 0.0745098 0 0 0 0.14 0" />
      <feBlend mode="normal" in2="effect2_dropShadow_1779_44860" result="effect3_dropShadow_1779_44860" />
      <feBlend mode="normal" in="SourceGraphic" in2="effect3_dropShadow_1779_44860" result="shape" />
    </filter>
  </defs>
</svg>