<svg width="387" height="134" viewBox="0 0 387 134" fill="none" xmlns="http://www.w3.org/2000/svg">
  <path opacity="0.5"
    d="M42 40.875C42 34.8689 46.64 30 52.3636 30H335.636C341.36 30 346 34.8689 346 40.875V106.125C346 112.131 341.36 117 335.636 117H52.3636C46.64 117 42 112.131 42 106.125V40.875Z"
    fill="#001413" />
  <path opacity="0.6"
    d="M23 32.875C23 26.8689 28.22 22 34.6591 22H353.341C359.78 22 365 26.8689 365 32.875V98.125C365 104.131 359.78 109 353.341 109H34.6591C28.22 109 23 104.131 23 98.125V32.875Z"
    fill="#001413" />
  <g filter="url(#filter0_ddd_1794_45900)">
    <rect x="12" y="2" width="363.334" height="99.091" rx="8" fill="#002522" />
    <rect x="13" y="3" width="361.334" height="97.091" rx="7" stroke="#14B9EA" stroke-width="2" />
  </g>
  <path d="M57.9082 48.655V49.9845H61.0585V58.7706H62.5469V49.9845H65.6972V48.655H57.9082Z" fill="#99A8A7" />
  <path
    d="M70.7375 51.3718C69.5815 51.3718 68.7867 52.0799 68.3676 52.7446V48.366H66.937V58.7706H68.3676V55.1001C68.3676 53.7128 69.1191 52.629 70.3618 52.629C71.4312 52.629 71.9225 53.4527 71.9225 54.4064V58.7706H73.3531V54.0741C73.3531 52.7157 72.3416 51.3718 70.7375 51.3718Z"
    fill="#99A8A7" />
  <path
    d="M75.987 49.9701C76.5217 49.9701 76.9263 49.5654 76.9263 49.0452C76.9263 48.525 76.5217 48.1204 75.987 48.1204C75.4668 48.1204 75.0766 48.525 75.0766 49.0452C75.0766 49.5654 75.4668 49.9701 75.987 49.9701ZM76.7096 58.7706V51.5163H75.2789V58.7706H76.7096Z"
    fill="#99A8A7" />
  <path
    d="M79.7469 53.4527C79.7469 52.8313 80.4261 52.5278 81.033 52.5278C81.7267 52.5278 82.2903 52.918 82.4348 53.5683L83.8076 53.3371C83.5475 52.0654 82.3047 51.3429 81.033 51.3429C79.6602 51.3429 78.3741 52.2099 78.3741 53.5828C78.3741 54.9556 79.6891 55.4325 81.2065 55.7648C81.9001 55.9238 82.6226 56.1116 82.6226 56.7764C82.6226 57.4845 81.7989 57.7301 81.1776 57.7301C80.3683 57.7301 79.7903 57.3255 79.6313 56.5452L78.244 56.7764C78.4464 58.2214 79.7758 58.9151 81.2065 58.9151C82.666 58.9151 84.0244 58.1781 84.0244 56.7186C84.0244 55.2157 82.5793 54.7677 81.2787 54.4932C80.5273 54.3342 79.7469 54.1174 79.7469 53.4527Z"
    fill="#99A8A7" />
  <path
    d="M97.4176 51.5163L95.9436 57.022L94.2818 51.5163H93.0101L91.3483 57.022L89.8743 51.5163H88.4148L90.6113 58.7706H92.0419L93.646 53.4671L95.25 58.7706H96.6806L98.8771 51.5163H97.4176Z"
    fill="#99A8A7" />
  <path
    d="M106.665 55.259C106.665 53.0625 105.35 51.3573 103.153 51.3573C100.971 51.3573 99.555 53.0047 99.555 55.1579C99.555 57.3255 101.015 58.9151 103.197 58.9151C104.699 58.9151 105.87 58.1925 106.506 56.7619L105.147 56.5163C104.757 57.3111 104.078 57.6868 103.197 57.6868C101.939 57.6868 101.015 56.8486 100.942 55.577H106.65C106.665 55.4758 106.665 55.3602 106.665 55.259ZM101 54.4642C101.159 53.3082 101.983 52.5423 103.153 52.5423C104.251 52.5423 105.133 53.3082 105.234 54.4642H101Z"
    fill="#99A8A7" />
  <path
    d="M114.934 55.259C114.934 53.0625 113.619 51.3573 111.423 51.3573C109.241 51.3573 107.825 53.0047 107.825 55.1579C107.825 57.3255 109.284 58.9151 111.466 58.9151C112.969 58.9151 114.14 58.1925 114.775 56.7619L113.417 56.5163C113.027 57.3111 112.348 57.6868 111.466 57.6868C110.209 57.6868 109.284 56.8486 109.212 55.577H114.92C114.934 55.4758 114.934 55.3602 114.934 55.259ZM109.27 54.4642C109.429 53.3082 110.252 52.5423 111.423 52.5423C112.521 52.5423 113.403 53.3082 113.504 54.4642H109.27Z"
    fill="#99A8A7" />
  <path
    d="M119.866 54.5221L122.886 51.5163H121.022L117.915 54.6377V48.366H116.485V58.7706H117.915V56.3862L118.883 55.418L121.369 58.7706H123.103L119.866 54.5221Z"
    fill="#99A8A7" />
  <path d="M124.65 57.3255L124.072 61.0972H125.2L126.211 57.3255H124.65Z" fill="#99A8A7" />
  <path
    d="M131.837 51.4585L133.21 51.7042C133.326 50.5192 134.164 49.8256 135.276 49.8256C136.36 49.8256 137.198 50.5192 137.198 51.6463C137.198 52.5423 136.678 53.1926 135.927 53.8429L131.779 57.4267V58.7706H138.672V57.4556H133.788L136.866 54.7966C137.805 53.9874 138.643 52.9758 138.643 51.5885C138.643 49.7244 137.097 48.5105 135.247 48.5105C133.311 48.5105 131.967 49.7967 131.837 51.4585Z"
    fill="#99A8A7" />
  <path
    d="M144.587 48.655L139.833 55.1868V56.5163H144.587V58.7706H146.047V56.5163H147.318V55.1868H146.047V48.655H144.587ZM144.587 50.7938V55.1868H141.509L144.587 50.7938Z"
    fill="#99A8A7" />
  <path
    d="M152.528 48.5105C149.667 48.5105 148.67 51.1695 148.67 53.7128C148.67 56.2561 149.667 58.9151 152.528 58.9151C155.404 58.9151 156.401 56.2561 156.401 53.7128C156.401 51.1695 155.404 48.5105 152.528 48.5105ZM152.528 57.5856C150.519 57.5856 150.158 55.4758 150.158 53.7128C150.158 51.9498 150.519 49.84 152.528 49.84C154.537 49.84 154.912 51.9498 154.912 53.7128C154.912 55.4758 154.537 57.5856 152.528 57.5856Z"
    fill="#99A8A7" />
  <path d="M158.195 57.3255L157.617 61.0972H158.744L159.756 57.3255H158.195Z" fill="#99A8A7" />
  <path
    d="M165.314 48.5105C162.452 48.5105 161.455 51.1695 161.455 53.7128C161.455 56.2561 162.452 58.9151 165.314 58.9151C168.189 58.9151 169.186 56.2561 169.186 53.7128C169.186 51.1695 168.189 48.5105 165.314 48.5105ZM165.314 57.5856C163.305 57.5856 162.944 55.4758 162.944 53.7128C162.944 51.9498 163.305 49.84 165.314 49.84C167.322 49.84 167.698 51.9498 167.698 53.7128C167.698 55.4758 167.322 57.5856 165.314 57.5856Z"
    fill="#99A8A7" />
  <path
    d="M174.585 48.5105C171.724 48.5105 170.727 51.1695 170.727 53.7128C170.727 56.2561 171.724 58.9151 174.585 58.9151C177.461 58.9151 178.458 56.2561 178.458 53.7128C178.458 51.1695 177.461 48.5105 174.585 48.5105ZM174.585 57.5856C172.577 57.5856 172.215 55.4758 172.215 53.7128C172.215 51.9498 172.577 49.84 174.585 49.84C176.594 49.84 176.97 51.9498 176.97 53.7128C176.97 55.4758 176.594 57.5856 174.585 57.5856Z"
    fill="#99A8A7" />
  <path
    d="M183.857 48.5105C180.996 48.5105 179.999 51.1695 179.999 53.7128C179.999 56.2561 180.996 58.9151 183.857 58.9151C186.733 58.9151 187.73 56.2561 187.73 53.7128C187.73 51.1695 186.733 48.5105 183.857 48.5105ZM183.857 57.5856C181.848 57.5856 181.487 55.4758 181.487 53.7128C181.487 51.9498 181.848 49.84 183.857 49.84C185.866 49.84 186.241 51.9498 186.241 53.7128C186.241 55.4758 185.866 57.5856 183.857 57.5856Z"
    fill="#99A8A7" />
  <path
    d="M196.236 48.655H193.158V58.7706H196.236C199.314 58.7706 201.424 56.8053 201.424 53.6406C201.424 50.5336 199.401 48.655 196.236 48.655ZM196.222 57.4411H194.647V49.9845H196.222C198.462 49.9845 199.936 51.2995 199.936 53.6261C199.936 56.0394 198.375 57.4411 196.222 57.4411Z"
    fill="#99A8A7" />
  <path
    d="M207.917 48.5105C204.896 48.5105 202.873 50.7649 202.873 53.7128C202.873 56.6608 204.896 58.9151 207.917 58.9151C210.893 58.9151 212.931 56.6608 212.931 53.7128C212.931 50.7649 210.893 48.5105 207.917 48.5105ZM207.917 57.5856C205.691 57.5856 204.362 55.866 204.362 53.7128C204.362 51.5596 205.691 49.84 207.917 49.84C210.113 49.84 211.443 51.5596 211.443 53.7128C211.443 55.866 210.113 57.5856 207.917 57.5856Z"
    fill="#99A8A7" />
  <path
    d="M224.432 53.3371H219.88V54.6377H223.001C222.943 56.4151 221.585 57.5856 219.706 57.5856C217.524 57.5856 216.151 56.0105 216.151 53.7706C216.151 51.5452 217.51 49.84 219.677 49.84C220.935 49.84 222.033 50.418 222.539 51.4007L224.041 51.0683C223.218 49.4065 221.643 48.5105 219.706 48.5105C216.628 48.5105 214.648 50.7793 214.648 53.7128C214.648 56.7475 216.758 58.9151 219.75 58.9151C222.553 58.9151 224.461 57.0076 224.461 54.0885C224.461 53.9151 224.446 53.6406 224.432 53.3371Z"
    fill="#99A8A7" />
  <path
    d="M235.989 53.3371H231.437V54.6377H234.559C234.501 56.4151 233.143 57.5856 231.264 57.5856C229.082 57.5856 227.709 56.0105 227.709 53.7706C227.709 51.5452 229.068 49.84 231.235 49.84C232.492 49.84 233.591 50.418 234.096 51.4007L235.599 51.0683C234.776 49.4065 233.2 48.5105 231.264 48.5105C228.186 48.5105 226.206 50.7793 226.206 53.7128C226.206 56.7475 228.316 58.9151 231.307 58.9151C234.111 58.9151 236.018 57.0076 236.018 54.0885C236.018 53.9151 236.004 53.6406 235.989 53.3371Z"
    fill="#99A8A7" />
  <path
    d="M242.562 48.5105C239.541 48.5105 237.518 50.7649 237.518 53.7128C237.518 56.6608 239.541 58.9151 242.562 58.9151C245.539 58.9151 247.576 56.6608 247.576 53.7128C247.576 50.7649 245.539 48.5105 242.562 48.5105ZM242.562 57.5856C240.336 57.5856 239.007 55.866 239.007 53.7128C239.007 51.5596 240.336 49.84 242.562 49.84C244.758 49.84 246.088 51.5596 246.088 53.7128C246.088 55.866 244.758 57.5856 242.562 57.5856Z"
    fill="#99A8A7" />
  <path
    d="M256.245 52.7013V51.5163H254.67V49.392L253.268 49.6377V51.5163H252.098V52.7013H253.254V56.733C253.254 58.1781 253.962 58.9151 255.407 58.9151C255.682 58.9151 256.014 58.8862 256.288 58.8284V57.5278C256.086 57.6001 255.869 57.629 255.653 57.629C254.8 57.629 254.684 57.2532 254.684 56.444V52.7013H256.245Z"
    fill="#99A8A7" />
  <path
    d="M260.916 51.3718C258.69 51.3718 257.173 52.9469 257.173 55.1434C257.173 57.34 258.69 58.9151 260.916 58.9151C263.112 58.9151 264.629 57.34 264.629 55.1434C264.629 52.9469 263.098 51.3718 260.916 51.3718ZM260.901 57.6579C259.456 57.6579 258.632 56.5741 258.632 55.1434C258.632 53.7128 259.456 52.629 260.901 52.629C262.346 52.629 263.17 53.7128 263.17 55.1434C263.17 56.5741 262.346 57.6579 260.901 57.6579Z"
    fill="#99A8A7" />
  <path
    d="M269.553 54.5221L272.573 51.5163H270.709L267.602 54.6377V48.366H266.171V58.7706H267.602V56.3862L268.57 55.418L271.056 58.7706H272.79L269.553 54.5221Z"
    fill="#99A8A7" />
  <path
    d="M280.497 55.259C280.497 53.0625 279.182 51.3573 276.986 51.3573C274.804 51.3573 273.388 53.0047 273.388 55.1579C273.388 57.3255 274.847 58.9151 277.029 58.9151C278.532 58.9151 279.703 58.1925 280.338 56.7619L278.98 56.5163C278.59 57.3111 277.911 57.6868 277.029 57.6868C275.772 57.6868 274.847 56.8486 274.775 55.577H280.483C280.497 55.4758 280.497 55.3602 280.497 55.259ZM274.833 54.4642C274.992 53.3082 275.815 52.5423 276.986 52.5423C278.084 52.5423 278.966 53.3082 279.067 54.4642H274.833Z"
    fill="#99A8A7" />
  <path
    d="M285.761 51.3718C284.807 51.3718 283.94 51.8631 283.435 52.6724V51.5163H282.004V58.7706H283.435V55.0278C283.435 53.8284 284.056 52.629 285.4 52.629C286.469 52.629 286.99 53.4238 286.99 54.4064V58.7706H288.42V54.0741C288.42 52.5856 287.264 51.3718 285.761 51.3718Z"
    fill="#99A8A7" />
  <path
    d="M291.315 53.4527C291.315 52.8313 291.994 52.5278 292.601 52.5278C293.295 52.5278 293.859 52.918 294.003 53.5683L295.376 53.3371C295.116 52.0654 293.873 51.3429 292.601 51.3429C291.229 51.3429 289.942 52.2099 289.942 53.5828C289.942 54.9556 291.257 55.4325 292.775 55.7648C293.468 55.9238 294.191 56.1116 294.191 56.7764C294.191 57.4845 293.367 57.7301 292.746 57.7301C291.937 57.7301 291.359 57.3255 291.2 56.5452L289.812 56.7764C290.015 58.2214 291.344 58.9151 292.775 58.9151C294.234 58.9151 295.593 58.1781 295.593 56.7186C295.593 55.2157 294.148 54.7677 292.847 54.4932C292.096 54.3342 291.315 54.1174 291.315 53.4527Z"
    fill="#99A8A7" />
  <path
    d="M308.986 51.5163L307.512 57.022L305.85 51.5163H304.578L302.917 57.022L301.443 51.5163H299.983L302.18 58.7706H303.61L305.214 53.4671L306.818 58.7706H308.249L310.445 51.5163H308.986Z"
    fill="#99A8A7" />
  <path
    d="M312.52 49.9701C313.054 49.9701 313.459 49.5654 313.459 49.0452C313.459 48.525 313.054 48.1204 312.52 48.1204C311.999 48.1204 311.609 48.525 311.609 49.0452C311.609 49.5654 311.999 49.9701 312.52 49.9701ZM313.242 58.7706V51.5163H311.811V58.7706H313.242Z"
    fill="#99A8A7" />
  <path d="M316.67 58.7706V48.366H315.239V58.7706H316.67Z" fill="#99A8A7" />
  <path d="M320.042 58.7706V48.366H318.612V58.7706H320.042Z" fill="#99A8A7" />
  <path
    d="M325.569 58.7706H327V57.6434C327.52 58.4527 328.503 58.9151 329.557 58.9151C331.566 58.9151 332.924 57.2388 332.924 55.129C332.924 53.0047 331.552 51.3718 329.543 51.3718C328.474 51.3718 327.534 51.8487 327 52.629V48.366H325.569V58.7706ZM326.985 55.1434C326.985 53.7417 327.809 52.629 329.254 52.629C330.612 52.629 331.494 53.6261 331.494 55.1434C331.494 56.6608 330.612 57.6579 329.254 57.6579C327.809 57.6579 326.985 56.5452 326.985 55.1434Z"
    fill="#99A8A7" />
  <path
    d="M341.193 55.259C341.193 53.0625 339.878 51.3573 337.682 51.3573C335.5 51.3573 334.084 53.0047 334.084 55.1579C334.084 57.3255 335.543 58.9151 337.725 58.9151C339.228 58.9151 340.399 58.1925 341.034 56.7619L339.676 56.5163C339.286 57.3111 338.607 57.6868 337.725 57.6868C336.468 57.6868 335.543 56.8486 335.471 55.577H341.179C341.193 55.4758 341.193 55.3602 341.193 55.259ZM335.529 54.4642C335.688 53.3082 336.511 52.5423 337.682 52.5423C338.78 52.5423 339.662 53.3082 339.763 54.4642H335.529Z"
    fill="#99A8A7" />
  <path
    d="M65.1047 75.903C65.1047 73.7065 63.7897 72.0013 61.5931 72.0013C59.4111 72.0013 57.9949 73.6487 57.9949 75.8018C57.9949 77.9695 59.4544 79.559 61.6365 79.559C63.1394 79.559 64.3099 78.8365 64.9457 77.4059L63.5874 77.1602C63.1972 77.955 62.518 78.3307 61.6365 78.3307C60.3793 78.3307 59.4544 77.4926 59.3822 76.2209H65.0902C65.1047 76.1198 65.1047 76.0042 65.1047 75.903ZM59.44 75.1082C59.5989 73.9521 60.4226 73.1863 61.5931 73.1863C62.6914 73.1863 63.5729 73.9521 63.6741 75.1082H59.44Z"
    fill="#99A8A7" />
  <path
    d="M73.62 72.1602H72.1894V73.2874C71.6692 72.4926 70.7154 72.0157 69.6316 72.0157C67.623 72.0157 66.2646 73.692 66.2646 75.8018C66.2646 77.9261 67.6374 79.559 69.6461 79.559C70.7154 79.559 71.6547 79.0822 72.1894 78.3018V82.5937H73.62V72.1602ZM72.2039 75.7874C72.2039 77.2036 71.3802 78.3018 69.9351 78.3018C68.5767 78.3018 67.6952 77.3047 67.6952 75.7874C67.6952 74.2701 68.5767 73.273 69.9351 73.273C71.3802 73.273 72.2039 74.3857 72.2039 75.7874Z"
    fill="#99A8A7" />
  <path
    d="M78.1173 79.559C79.071 79.559 79.9381 79.0677 80.4438 78.2585V79.4145H81.8745V72.1602H80.4438V75.903C80.4438 77.1024 79.8225 78.3018 78.4785 78.3018C77.4381 78.3018 76.9034 77.507 76.9034 76.5244V72.1602H75.4872V76.8567C75.4872 78.3596 76.6144 79.559 78.1173 79.559Z"
    fill="#99A8A7" />
  <path
    d="M86.5906 72.0013C85.0733 72.0013 83.7727 72.8683 83.5126 74.2845L84.8854 74.5157C85.001 73.7354 85.7091 73.2152 86.5184 73.2152C87.3709 73.2152 88.1513 73.6776 88.1513 74.6602V74.8914C86.5906 74.8914 83.3681 74.9781 83.3681 77.3336C83.3681 78.6486 84.3941 79.559 85.7525 79.559C86.8941 79.559 87.6022 79.1255 88.1513 78.3018V79.4145H89.5819V74.7469C89.5819 72.9984 88.3102 72.0013 86.5906 72.0013ZM88.1513 76.2932C88.1513 77.3914 87.2987 78.3741 86.1426 78.3741C85.4056 78.3741 84.7843 77.9984 84.7843 77.3192C84.7843 75.8452 87.7611 75.9608 88.1513 75.9463V76.2932Z"
    fill="#99A8A7" />
  <path d="M92.8803 79.4145V69.01H91.4497V79.4145H92.8803Z" fill="#99A8A7" />
  <path d="M96.2531 79.4145V69.01H94.8225V79.4145H96.2531Z" fill="#99A8A7" />
  <path
    d="M102.863 72.1602L101.013 77.4926L99.0478 72.1602H97.545L100.305 79.0677L98.8889 82.5937H100.421L104.366 72.1602H102.863Z"
    fill="#99A8A7" />
  <path
    d="M110.271 74.0966C110.271 73.4753 110.951 73.1718 111.557 73.1718C112.251 73.1718 112.815 73.562 112.959 74.2123L114.332 73.981C114.072 72.7094 112.829 71.9868 111.557 71.9868C110.185 71.9868 108.899 72.8539 108.899 74.2267C108.899 75.5995 110.214 76.0764 111.731 76.4088C112.425 76.5677 113.147 76.7556 113.147 77.4203C113.147 78.1284 112.323 78.3741 111.702 78.3741C110.893 78.3741 110.315 77.9695 110.156 77.1891L108.768 77.4203C108.971 78.8654 110.3 79.559 111.731 79.559C113.19 79.559 114.549 78.8221 114.549 77.3625C114.549 75.8596 113.104 75.4117 111.803 75.1371C111.052 74.9781 110.271 74.7614 110.271 74.0966Z"
    fill="#99A8A7" />
  <path
    d="M119.791 72.0157C118.635 72.0157 117.84 72.7238 117.421 73.3886V69.01H115.991V79.4145H117.421V75.744C117.421 74.3568 118.173 73.273 119.415 73.273C120.485 73.273 120.976 74.0966 120.976 75.0504V79.4145H122.407V74.718C122.407 73.3597 121.395 72.0157 119.791 72.0157Z"
    fill="#99A8A7" />
  <path
    d="M127.078 72.0013C125.561 72.0013 124.26 72.8683 124 74.2845L125.373 74.5157C125.489 73.7354 126.197 73.2152 127.006 73.2152C127.859 73.2152 128.639 73.6776 128.639 74.6602V74.8914C127.078 74.8914 123.856 74.9781 123.856 77.3336C123.856 78.6486 124.882 79.559 126.24 79.559C127.382 79.559 128.09 79.1255 128.639 78.3018V79.4145H130.069V74.7469C130.069 72.9984 128.798 72.0013 127.078 72.0013ZM128.639 76.2932C128.639 77.3914 127.786 78.3741 126.63 78.3741C125.893 78.3741 125.272 77.9984 125.272 77.3192C125.272 75.8452 128.249 75.9608 128.639 75.9463V76.2932Z"
    fill="#99A8A7" />
  <path
    d="M135.955 72.0446C135.781 72.0157 135.622 72.0157 135.478 72.0302C134.481 72.0446 133.816 72.4782 133.31 73.3741V72.1602H131.879V79.4145H133.31V75.7874C133.31 74.0388 134.365 73.1429 135.955 73.3163V72.0446Z"
    fill="#99A8A7" />
  <path
    d="M143.526 75.903C143.526 73.7065 142.21 72.0013 140.014 72.0013C137.832 72.0013 136.416 73.6487 136.416 75.8018C136.416 77.9695 137.875 79.559 140.057 79.559C141.56 79.559 142.731 78.8365 143.367 77.4059L142.008 77.1602C141.618 77.955 140.939 78.3307 140.057 78.3307C138.8 78.3307 137.875 77.4926 137.803 76.2209H143.511C143.526 76.1198 143.526 76.0042 143.526 75.903ZM137.861 75.1082C138.02 73.9521 138.843 73.1863 140.014 73.1863C141.112 73.1863 141.994 73.9521 142.095 75.1082H137.861Z"
    fill="#99A8A7" />
  <path
    d="M152.055 69.01H150.625V73.273C150.09 72.4926 149.151 72.0157 148.081 72.0157C146.073 72.0157 144.7 73.6487 144.7 75.7729C144.7 77.8828 146.058 79.559 148.067 79.559C149.122 79.559 150.104 79.0966 150.625 78.2874V79.4145H152.055V69.01ZM150.639 75.7874C150.639 77.1891 149.815 78.3018 148.37 78.3018C147.012 78.3018 146.13 77.3047 146.13 75.7874C146.13 74.2701 147.012 73.273 148.37 73.273C149.815 73.273 150.639 74.3857 150.639 75.7874Z"
    fill="#99A8A7" />
  <path
    d="M160.397 72.0013C158.879 72.0013 157.579 72.8683 157.319 74.2845L158.692 74.5157C158.807 73.7354 159.515 73.2152 160.325 73.2152C161.177 73.2152 161.957 73.6776 161.957 74.6602V74.8914C160.397 74.8914 157.174 74.9781 157.174 77.3336C157.174 78.6486 158.2 79.559 159.559 79.559C160.7 79.559 161.408 79.1255 161.957 78.3018V79.4145H163.388V74.7469C163.388 72.9984 162.116 72.0013 160.397 72.0013ZM161.957 76.2932C161.957 77.3914 161.105 78.3741 159.949 78.3741C159.212 78.3741 158.59 77.9984 158.59 77.3192C158.59 75.8452 161.567 75.9608 161.957 75.9463V76.2932Z"
    fill="#99A8A7" />
  <path
    d="M166.296 74.0966C166.296 73.4753 166.975 73.1718 167.582 73.1718C168.276 73.1718 168.84 73.562 168.984 74.2123L170.357 73.981C170.097 72.7094 168.854 71.9868 167.582 71.9868C166.21 71.9868 164.923 72.8539 164.923 74.2267C164.923 75.5995 166.239 76.0764 167.756 76.4088C168.449 76.5677 169.172 76.7556 169.172 77.4203C169.172 78.1284 168.348 78.3741 167.727 78.3741C166.918 78.3741 166.34 77.9695 166.181 77.1891L164.793 77.4203C164.996 78.8654 166.325 79.559 167.756 79.559C169.215 79.559 170.574 78.8221 170.574 77.3625C170.574 75.8596 169.129 75.4117 167.828 75.1371C167.077 74.9781 166.296 74.7614 166.296 74.0966Z"
    fill="#99A8A7" />
  <path
    d="M176.915 71.9435C176.915 71.0331 177.768 70.4551 178.794 70.4551C179.776 70.4551 180.528 70.9753 180.817 71.9724L182.233 71.7123C181.814 70.0215 180.354 69.1545 178.779 69.1545C177.074 69.1545 175.441 70.166 175.441 72.0302C175.441 74.14 177.565 74.5446 179.213 75.007C180.224 75.2961 181.062 75.7296 181.062 76.6833C181.062 77.7238 180.051 78.244 178.996 78.244C177.825 78.244 176.886 77.6226 176.698 76.5677L175.268 76.8134C175.672 78.6197 177.088 79.559 178.938 79.559C180.875 79.559 182.536 78.5186 182.536 76.5822C182.536 74.4146 180.455 73.9666 178.823 73.5331C177.768 73.2585 176.915 72.8539 176.915 71.9435Z"
    fill="#99A8A7" />
  <path
    d="M192.505 72.1602L191.031 77.666L189.369 72.1602H188.097L186.435 77.666L184.962 72.1602H183.502L185.698 79.4145H187.129L188.733 74.1111L190.337 79.4145H191.768L193.964 72.1602H192.505Z"
    fill="#99A8A7" />
  <path
    d="M197.921 72.0013C196.403 72.0013 195.103 72.8683 194.843 74.2845L196.216 74.5157C196.331 73.7354 197.039 73.2152 197.849 73.2152C198.701 73.2152 199.481 73.6776 199.481 74.6602V74.8914C197.921 74.8914 194.698 74.9781 194.698 77.3336C194.698 78.6486 195.724 79.559 197.083 79.559C198.224 79.559 198.932 79.1255 199.481 78.3018V79.4145H200.912V74.7469C200.912 72.9984 199.64 72.0013 197.921 72.0013ZM199.481 76.2932C199.481 77.3914 198.629 78.3741 197.473 78.3741C196.736 78.3741 196.114 77.9984 196.114 77.3192C196.114 75.8452 199.091 75.9608 199.481 75.9463V76.2932Z"
    fill="#99A8A7" />
  <path
    d="M202.78 82.5937H204.21V78.3018C204.745 79.0822 205.684 79.559 206.754 79.559C208.762 79.559 210.135 77.9261 210.135 75.8018C210.135 73.692 208.777 72.0157 206.768 72.0157C205.684 72.0157 204.731 72.4926 204.21 73.2874V72.1602H202.78V82.5937ZM204.196 75.7874C204.196 74.3857 205.02 73.273 206.465 73.273C207.823 73.273 208.705 74.2701 208.705 75.7874C208.705 77.3047 207.823 78.3018 206.465 78.3018C205.02 78.3018 204.196 77.2036 204.196 75.7874Z"
    fill="#99A8A7" />
  <path
    d="M219.098 69.299H215.385V79.4145H216.873V75.5995H218.954L221.064 79.4145H222.726L220.399 75.4117C221.714 75.007 222.552 73.9377 222.552 72.4493C222.552 70.5273 221.136 69.299 219.098 69.299ZM218.997 74.2845H216.873V70.6285H218.997C220.24 70.6285 221.049 71.351 221.049 72.4493C221.049 73.562 220.24 74.2845 218.997 74.2845Z"
    fill="#99A8A7" />
  <path
    d="M230.78 75.903C230.78 73.7065 229.465 72.0013 227.269 72.0013C225.087 72.0013 223.671 73.6487 223.671 75.8018C223.671 77.9695 225.13 79.559 227.312 79.559C228.815 79.559 229.986 78.8365 230.622 77.4059L229.263 77.1602C228.873 77.955 228.194 78.3307 227.312 78.3307C226.055 78.3307 225.13 77.4926 225.058 76.2209H230.766C230.78 76.1198 230.78 76.0042 230.78 75.903ZM225.116 75.1082C225.275 73.9521 226.098 73.1863 227.269 73.1863C228.367 73.1863 229.249 73.9521 229.35 75.1082H225.116Z"
    fill="#99A8A7" />
  <path
    d="M240.486 72.1602L239.012 77.666L237.35 72.1602H236.078L234.417 77.666L232.943 72.1602H231.483L233.68 79.4145H235.11L236.714 74.1111L238.318 79.4145H239.749L241.945 72.1602H240.486Z"
    fill="#99A8A7" />
  <path
    d="M245.902 72.0013C244.385 72.0013 243.084 72.8683 242.824 74.2845L244.197 74.5157C244.312 73.7354 245.02 73.2152 245.83 73.2152C246.682 73.2152 247.463 73.6776 247.463 74.6602V74.8914C245.902 74.8914 242.679 74.9781 242.679 77.3336C242.679 78.6486 243.705 79.559 245.064 79.559C246.205 79.559 246.913 79.1255 247.463 78.3018V79.4145H248.893V74.7469C248.893 72.9984 247.622 72.0013 245.902 72.0013ZM247.463 76.2932C247.463 77.3914 246.61 78.3741 245.454 78.3741C244.717 78.3741 244.096 77.9984 244.096 77.3192C244.096 75.8452 247.072 75.9608 247.463 75.9463V76.2932Z"
    fill="#99A8A7" />
  <path
    d="M254.778 72.0446C254.605 72.0157 254.446 72.0157 254.301 72.0302C253.304 72.0446 252.64 72.4782 252.134 73.3741V72.1602H250.703V79.4145H252.134V75.7874C252.134 74.0388 253.189 73.1429 254.778 73.3163V72.0446Z"
    fill="#99A8A7" />
  <path
    d="M262.609 69.01H261.179V73.273C260.644 72.4926 259.705 72.0157 258.635 72.0157C256.627 72.0157 255.254 73.6487 255.254 75.7729C255.254 77.8828 256.612 79.559 258.621 79.559C259.676 79.559 260.658 79.0966 261.179 78.2874V79.4145H262.609V69.01ZM261.193 75.7874C261.193 77.1891 260.369 78.3018 258.924 78.3018C257.566 78.3018 256.685 77.3047 256.685 75.7874C256.685 74.2701 257.566 73.273 258.924 73.273C260.369 73.273 261.193 74.3857 261.193 75.7874Z"
    fill="#99A8A7" />
  <path
    d="M265.589 74.0966C265.589 73.4753 266.268 73.1718 266.875 73.1718C267.569 73.1718 268.132 73.562 268.277 74.2123L269.65 73.981C269.389 72.7094 268.147 71.9868 266.875 71.9868C265.502 71.9868 264.216 72.8539 264.216 74.2267C264.216 75.5995 265.531 76.0764 267.048 76.4088C267.742 76.5677 268.465 76.7556 268.465 77.4203C268.465 78.1284 267.641 78.3741 267.02 78.3741C266.21 78.3741 265.632 77.9695 265.473 77.1891L264.086 77.4203C264.288 78.8654 265.618 79.559 267.048 79.559C268.508 79.559 269.866 78.8221 269.866 77.3625C269.866 75.8596 268.421 75.4117 267.121 75.1371C266.369 74.9781 265.589 74.7614 265.589 74.0966Z"
    fill="#99A8A7" />
  <path
    d="M272.522 79.4723C273.057 79.4723 273.519 79.0244 273.519 78.4608C273.519 77.9117 273.057 77.4637 272.522 77.4637C271.973 77.4637 271.51 77.9117 271.51 78.4608C271.51 79.0244 271.973 79.4723 272.522 79.4723Z"
    fill="#99A8A7" />
  <path
    d="M60.0263 20.2989C60.0263 19.2584 61.0007 18.5978 62.1733 18.5978C63.2963 18.5978 64.1551 19.1923 64.4854 20.3319L66.1039 20.0346C65.6249 18.1023 63.9569 17.1114 62.1567 17.1114C60.208 17.1114 58.3417 18.2675 58.3417 20.398C58.3417 22.8092 60.7695 23.2716 62.6522 23.8001C63.8083 24.1304 64.7661 24.6258 64.7661 25.7158C64.7661 26.9049 63.6101 27.4995 62.4045 27.4995C61.0667 27.4995 59.9933 26.7893 59.7786 25.5837L58.1436 25.8645C58.606 27.9289 60.2245 29.0024 62.3384 29.0024C64.5514 29.0024 66.4507 27.8133 66.4507 25.6002C66.4507 23.123 64.0725 22.611 62.2063 22.1155C61.0007 21.8017 60.0263 21.3393 60.0263 20.2989Z"
    fill="#F1F6F6" />
  <path
    d="M77.8432 20.5466L76.1586 26.8389L74.2594 20.5466H72.8061L70.9068 26.8389L69.2223 20.5466H67.5542L70.0645 28.8372H71.6995L73.5327 22.7761L75.3659 28.8372H77.0009L79.5112 20.5466H77.8432Z"
    fill="#F1F6F6" />
  <path
    d="M84.0329 20.3649C82.2988 20.3649 80.8124 21.3558 80.5152 22.9743L82.0841 23.2386C82.2162 22.3467 83.0255 21.7522 83.9503 21.7522C84.9247 21.7522 85.8165 22.2807 85.8165 23.4037V23.668C84.0329 23.668 80.35 23.767 80.35 26.459C80.35 27.9619 81.5226 29.0024 83.075 29.0024C84.3797 29.0024 85.1889 28.5069 85.8165 27.5655V28.8372H87.4515V23.5028C87.4515 21.5045 85.9982 20.3649 84.0329 20.3649ZM85.8165 25.2699C85.8165 26.5251 84.8421 27.6481 83.5209 27.6481C82.6786 27.6481 81.9685 27.2187 81.9685 26.4425C81.9685 24.758 85.3706 24.8901 85.8165 24.8736V25.2699Z"
    fill="#F1F6F6" />
  <path
    d="M89.5861 32.4705H91.2211V27.5655C91.8322 28.4574 92.9057 29.0024 94.1278 29.0024C96.4234 29.0024 97.9923 27.1361 97.9923 24.7084C97.9923 22.2972 96.4399 20.3814 94.1443 20.3814C92.9057 20.3814 91.8157 20.9264 91.2211 21.8348V20.5466H89.5861V32.4705ZM91.2046 24.6919C91.2046 23.0899 92.146 21.8183 93.7975 21.8183C95.3499 21.8183 96.3573 22.9578 96.3573 24.6919C96.3573 26.426 95.3499 27.5655 93.7975 27.5655C92.146 27.5655 91.2046 26.3104 91.2046 24.6919Z"
    fill="#F1F6F6" />
  <path
    d="M108.451 20.4145C108.252 20.3814 108.071 20.3814 107.906 20.398C106.766 20.4145 106.006 20.9099 105.428 21.9339V20.5466H103.793V28.8372H105.428V24.6919C105.428 22.6936 106.634 21.6696 108.451 21.8678V20.4145Z"
    fill="#F1F6F6" />
  <path
    d="M117.103 24.824C117.103 22.3137 115.6 20.3649 113.09 20.3649C110.596 20.3649 108.978 22.2477 108.978 24.7084C108.978 27.1857 110.646 29.0024 113.14 29.0024C114.857 29.0024 116.195 28.1766 116.922 26.5416L115.369 26.2608C114.923 27.1692 114.147 27.5986 113.14 27.5986C111.703 27.5986 110.646 26.6407 110.563 25.1874H117.087C117.103 25.0717 117.103 24.9396 117.103 24.824ZM110.629 23.9157C110.811 22.5945 111.752 21.7192 113.09 21.7192C114.345 21.7192 115.353 22.5945 115.468 23.9157H110.629Z"
    fill="#F1F6F6" />
  <path
    d="M128.195 20.5466L126.511 26.8389L124.611 20.5466H123.158L121.259 26.8389L119.574 20.5466H117.906L120.416 28.8372H122.051L123.885 22.7761L125.718 28.8372H127.353L129.863 20.5466H128.195Z"
    fill="#F1F6F6" />
  <path
    d="M134.385 20.3649C132.651 20.3649 131.164 21.3558 130.867 22.9743L132.436 23.2386C132.568 22.3467 133.377 21.7522 134.302 21.7522C135.277 21.7522 136.168 22.2807 136.168 23.4037V23.668C134.385 23.668 130.702 23.767 130.702 26.459C130.702 27.9619 131.874 29.0024 133.427 29.0024C134.732 29.0024 135.541 28.5069 136.168 27.5655V28.8372H137.803V23.5028C137.803 21.5045 136.35 20.3649 134.385 20.3649ZM136.168 25.2699C136.168 26.5251 135.194 27.6481 133.873 27.6481C133.031 27.6481 132.32 27.2187 132.32 26.4425C132.32 24.758 135.722 24.8901 136.168 24.8736V25.2699Z"
    fill="#F1F6F6" />
  <path
    d="M144.529 20.4145C144.331 20.3814 144.149 20.3814 143.984 20.398C142.845 20.4145 142.085 20.9099 141.507 21.9339V20.5466H139.872V28.8372H141.507V24.6919C141.507 22.6936 142.713 21.6696 144.529 21.8678V20.4145Z"
    fill="#F1F6F6" />
  <path
    d="M153.479 16.9463H151.844V21.8183C151.233 20.9264 150.159 20.3814 148.937 20.3814C146.642 20.3814 145.073 22.2477 145.073 24.6754C145.073 27.0866 146.625 29.0024 148.921 29.0024C150.126 29.0024 151.249 28.4739 151.844 27.549V28.8372H153.479V16.9463ZM151.861 24.6919C151.861 26.2939 150.919 27.5655 149.268 27.5655C147.715 27.5655 146.708 26.426 146.708 24.6919C146.708 22.9578 147.715 21.8183 149.268 21.8183C150.919 21.8183 151.861 23.0899 151.861 24.6919Z"
    fill="#F1F6F6" />
  <path
    d="M156.884 22.7596C156.884 22.0495 157.66 21.7027 158.354 21.7027C159.147 21.7027 159.791 22.1486 159.956 22.8917L161.525 22.6275C161.228 21.1742 159.807 20.3484 158.354 20.3484C156.785 20.3484 155.315 21.3393 155.315 22.9083C155.315 24.4772 156.818 25.0222 158.552 25.402C159.345 25.5837 160.171 25.7984 160.171 26.5581C160.171 27.3674 159.229 27.6481 158.519 27.6481C157.594 27.6481 156.934 27.1857 156.752 26.2939L155.167 26.5581C155.398 28.2096 156.917 29.0024 158.552 29.0024C160.22 29.0024 161.773 28.1601 161.773 26.492C161.773 24.7745 160.121 24.2625 158.635 23.9487C157.776 23.767 156.884 23.5193 156.884 22.7596Z"
    fill="#F1F6F6" />
  <path
    d="M171.514 20.5466H169.73V19.5557C169.73 18.6969 169.961 18.3666 170.638 18.251C171.035 18.1849 171.497 18.284 171.563 18.317V16.8472C171.464 16.8307 171.084 16.7811 170.622 16.7811C168.772 16.7811 168.095 17.8876 168.095 19.5722V20.5466H166.774V21.9008H168.095V28.8372H169.73V21.9008H171.514V20.5466Z"
    fill="#F1F6F6" />
  <path
    d="M176.703 20.3814C174.16 20.3814 172.426 22.1816 172.426 24.6919C172.426 27.2022 174.16 29.0024 176.703 29.0024C179.213 29.0024 180.947 27.2022 180.947 24.6919C180.947 22.1816 179.197 20.3814 176.703 20.3814ZM176.687 27.5655C175.035 27.5655 174.094 26.3269 174.094 24.6919C174.094 23.0569 175.035 21.8183 176.687 21.8183C178.338 21.8183 179.279 23.0569 179.279 24.6919C179.279 26.3269 178.338 27.5655 176.687 27.5655Z"
    fill="#F1F6F6" />
  <path
    d="M187.301 20.4145C187.103 20.3814 186.921 20.3814 186.756 20.398C185.616 20.4145 184.857 20.9099 184.279 21.9339V20.5466H182.644V28.8372H184.279V24.6919C184.279 22.6936 185.484 21.6696 187.301 21.8678V20.4145Z"
    fill="#F1F6F6" />
  <path
    d="M196.522 27.5655C194.854 27.5655 193.995 26.2774 193.995 24.6919C193.995 23.1064 194.854 21.8183 196.538 21.8183C197.612 21.8183 198.471 22.4954 198.735 23.5358L200.32 23.2551C199.957 21.488 198.256 20.3814 196.555 20.3814C194.045 20.3814 192.36 22.2311 192.36 24.6919C192.36 27.1692 194.045 29.0024 196.555 29.0024C198.272 29.0024 199.957 27.8958 200.32 26.1287L198.735 25.848C198.471 26.8884 197.612 27.5655 196.522 27.5655Z"
    fill="#F1F6F6" />
  <path
    d="M205.879 20.3814C203.335 20.3814 201.601 22.1816 201.601 24.6919C201.601 27.2022 203.335 29.0024 205.879 29.0024C208.389 29.0024 210.123 27.2022 210.123 24.6919C210.123 22.1816 208.373 20.3814 205.879 20.3814ZM205.862 27.5655C204.211 27.5655 203.269 26.3269 203.269 24.6919C203.269 23.0569 204.211 21.8183 205.862 21.8183C207.514 21.8183 208.455 23.0569 208.455 24.6919C208.455 26.3269 207.514 27.5655 205.862 27.5655Z"
    fill="#F1F6F6" />
  <path
    d="M221.084 20.3814C219.928 20.3814 218.888 20.9595 218.343 22.0825C217.963 21.0586 217.038 20.3814 215.882 20.3814C214.924 20.3814 213.983 20.8769 213.471 21.8513V20.5466H211.836V28.8372H213.471V24.4111C213.471 23.123 214.098 21.8513 215.436 21.8513C216.526 21.8513 217.088 22.677 217.088 23.8166V28.8372H218.723V24.4111C218.723 23.1395 219.301 21.8513 220.655 21.8513C221.728 21.8513 222.29 22.677 222.29 23.8166V28.8372H223.925V23.668C223.925 21.8348 222.918 20.3814 221.084 20.3814Z"
    fill="#F1F6F6" />
  <path
    d="M235.261 20.3814C234.105 20.3814 233.064 20.9595 232.519 22.0825C232.14 21.0586 231.215 20.3814 230.059 20.3814C229.101 20.3814 228.159 20.8769 227.647 21.8513V20.5466H226.012V28.8372H227.647V24.4111C227.647 23.123 228.275 21.8513 229.613 21.8513C230.703 21.8513 231.264 22.677 231.264 23.8166V28.8372H232.899V24.4111C232.899 23.1395 233.477 21.8513 234.832 21.8513C235.905 21.8513 236.467 22.677 236.467 23.8166V28.8372H238.102V23.668C238.102 21.8348 237.094 20.3814 235.261 20.3814Z"
    fill="#F1F6F6" />
  <path
    d="M243.162 29.0024C244.252 29.0024 245.243 28.4408 245.821 27.516V28.8372H247.456V20.5466H245.821V24.824C245.821 26.1948 245.111 27.5655 243.575 27.5655C242.386 27.5655 241.775 26.6572 241.775 25.5342V20.5466H240.156V25.914C240.156 27.6316 241.444 29.0024 243.162 29.0024Z"
    fill="#F1F6F6" />
  <path
    d="M253.87 20.3814C252.78 20.3814 251.789 20.943 251.211 21.8678V20.5466H249.576V28.8372H251.211V24.5598C251.211 23.189 251.921 21.8183 253.457 21.8183C254.679 21.8183 255.273 22.7266 255.273 23.8496V28.8372H256.908V23.4698C256.908 21.7687 255.587 20.3814 253.87 20.3814Z"
    fill="#F1F6F6" />
  <path
    d="M259.92 18.7795C260.531 18.7795 260.993 18.317 260.993 17.7225C260.993 17.128 260.531 16.6655 259.92 16.6655C259.325 16.6655 258.879 17.128 258.879 17.7225C258.879 18.317 259.325 18.7795 259.92 18.7795ZM260.745 28.8372V20.5466H259.11V28.8372H260.745Z"
    fill="#F1F6F6" />
  <path
    d="M266.973 21.9008V20.5466H265.173V18.1189L263.571 18.3996V20.5466H262.233V21.9008H263.554V26.5086C263.554 28.1601 264.363 29.0024 266.015 29.0024C266.329 29.0024 266.709 28.9693 267.022 28.9033V27.4169C266.791 27.4995 266.543 27.5325 266.296 27.5325C265.321 27.5325 265.189 27.1031 265.189 26.1783V21.9008H266.973Z"
    fill="#F1F6F6" />
  <path
    d="M274.007 20.5466L271.893 26.6407L269.647 20.5466H267.929L271.084 28.4408L269.465 32.4705H271.216L275.724 20.5466H274.007Z"
    fill="#F1F6F6" />
  <path
    d="M44.5727 24.149L36.2557 23.6672C35.663 23.629 35.1034 23.3829 34.677 22.973C34.2507 22.5632 33.9855 22.0163 33.929 21.4303L33.1998 13.8077C33.1769 13.6805 33.1095 13.5653 33.0095 13.4824C32.9095 13.3995 32.7833 13.354 32.6529 13.354C32.5225 13.354 32.3963 13.3995 32.2963 13.4824C32.1963 13.5653 32.1289 13.6805 32.1059 13.8077L31.3593 21.4303C31.3098 22.0189 31.0468 22.5697 30.6191 22.9809C30.1913 23.3921 29.6278 23.6359 29.0326 23.6672L20.7156 24.1834C20.5873 24.2062 20.4711 24.2729 20.3874 24.372C20.3037 24.4711 20.2578 24.5962 20.2578 24.7254C20.2578 24.8546 20.3037 24.9797 20.3874 25.0788C20.4711 25.1779 20.5873 25.2446 20.7156 25.2674L29.0326 25.7492C29.6242 25.7908 30.1819 26.038 30.6076 26.4472C31.0332 26.8564 31.2995 27.4014 31.3593 27.9861L32.0885 35.6087C32.1115 35.7359 32.1789 35.8511 32.2789 35.934C32.3789 36.017 32.5051 36.0624 32.6355 36.0624C32.7659 36.0624 32.8921 36.017 32.9921 35.934C33.0921 35.8511 33.1595 35.7359 33.1824 35.6087L33.9117 27.9861C33.9682 27.4001 34.2333 26.8533 34.6597 26.4434C35.086 26.0335 35.6457 25.7874 36.2384 25.7492L44.5727 25.233C44.7011 25.2102 44.8173 25.1435 44.901 25.0444C44.9847 24.9453 45.0306 24.8202 45.0306 24.691C45.0306 24.5618 44.9847 24.4367 44.901 24.3376C44.8173 24.2385 44.7011 24.1717 44.5727 24.149Z"
    fill="#14B9EA" />
  <path
    d="M46.9419 13.6921L44.1695 13.5388C43.972 13.5266 43.7854 13.4483 43.6433 13.3179C43.5012 13.1875 43.4128 13.0135 43.394 12.8271L43.1509 10.4017C43.1433 10.3612 43.1208 10.3246 43.0875 10.2982C43.0541 10.2718 43.0121 10.2573 42.9686 10.2573C42.9251 10.2573 42.8831 10.2718 42.8497 10.2982C42.8164 10.3246 42.7939 10.3612 42.7863 10.4017L42.5374 12.8271C42.5209 13.0143 42.4332 13.1896 42.2907 13.3204C42.1481 13.4513 41.9602 13.5289 41.7619 13.5388L38.9895 13.703C38.9467 13.7103 38.908 13.7315 38.8801 13.763C38.8522 13.7946 38.8369 13.8344 38.8369 13.8755C38.8369 13.9166 38.8522 13.9564 38.8801 13.9879C38.908 14.0195 38.9467 14.0407 38.9895 14.0479L41.7619 14.2012C41.959 14.2145 42.145 14.2931 42.2868 14.4233C42.4287 14.5536 42.5175 14.727 42.5374 14.913L42.7805 17.3384C42.7881 17.3788 42.8106 17.4155 42.8439 17.4419C42.8773 17.4683 42.9193 17.4827 42.9628 17.4827C43.0063 17.4827 43.0483 17.4683 43.0817 17.4419C43.115 17.4155 43.1375 17.3788 43.1451 17.3384L43.3882 14.913C43.407 14.7265 43.4954 14.5525 43.6375 14.4221C43.7796 14.2917 43.9662 14.2134 44.1638 14.2012L46.9419 14.037C46.9847 14.0298 47.0234 14.0085 47.0513 13.977C47.0792 13.9455 47.0945 13.9057 47.0945 13.8645C47.0945 13.8234 47.0792 13.7836 47.0513 13.7521C47.0234 13.7206 46.9847 13.6993 46.9419 13.6921Z"
    fill="#22C480" />
  <defs>
    <filter id="filter0_ddd_1794_45900" x="-4" y="0" width="395.333" height="133.091" filterUnits="userSpaceOnUse"
      color-interpolation-filters="sRGB">
      <feFlood flood-opacity="0" result="BackgroundImageFix" />
      <feColorMatrix in="SourceAlpha" type="matrix" values="0 0 0 0 0 0 0 0 0 0 0 0 0 0 0 0 0 0 127 0"
        result="hardAlpha" />
      <feOffset dy="2" />
      <feGaussianBlur stdDeviation="2" />
      <feColorMatrix type="matrix" values="0 0 0 0 0 0 0 0 0 0.0784314 0 0 0 0 0.0745098 0 0 0 0.34 0" />
      <feBlend mode="normal" in2="BackgroundImageFix" result="effect1_dropShadow_1794_45900" />
      <feColorMatrix in="SourceAlpha" type="matrix" values="0 0 0 0 0 0 0 0 0 0 0 0 0 0 0 0 0 0 127 0"
        result="hardAlpha" />
      <feOffset dy="6" />
      <feGaussianBlur stdDeviation="4" />
      <feColorMatrix type="matrix" values="0 0 0 0 0 0 0 0 0 0.0784314 0 0 0 0 0.0745098 0 0 0 0.24 0" />
      <feBlend mode="normal" in2="effect1_dropShadow_1794_45900" result="effect2_dropShadow_1794_45900" />
      <feColorMatrix in="SourceAlpha" type="matrix" values="0 0 0 0 0 0 0 0 0 0 0 0 0 0 0 0 0 0 127 0"
        result="hardAlpha" />
      <feOffset dy="16" />
      <feGaussianBlur stdDeviation="8" />
      <feColorMatrix type="matrix" values="0 0 0 0 0 0 0 0 0 0.0784314 0 0 0 0 0.0745098 0 0 0 0.14 0" />
      <feBlend mode="normal" in2="effect2_dropShadow_1794_45900" result="effect3_dropShadow_1794_45900" />
      <feBlend mode="normal" in="SourceGraphic" in2="effect3_dropShadow_1794_45900" result="shape" />
    </filter>
  </defs>
</svg>