<svg width="386" height="332" viewBox="0 0 386 332" fill="none" xmlns="http://www.w3.org/2000/svg">
  <g filter="url(#filter0_ddd_1784_46270)">
    <rect x="294" y="26" width="168" height="258" rx="8" fill="#193330" />
    <line x1="318" y1="219.5" x2="438" y2="219.5" stroke="#001413" />
    <line x1="318" y1="161.5" x2="438" y2="161.5" stroke="#001413" />
    <path
      d="M328.039 202.76C328.507 204.668 329.983 205.874 331.963 206.126V207.35H333.457V206.144C335.545 205.892 337.273 204.56 337.273 202.346C337.273 199.916 335.257 199.286 333.457 198.764V195.272C334.123 195.506 334.645 196.028 334.879 196.82L336.931 196.46C336.481 194.642 335.023 193.58 333.457 193.292V192.086H331.963V193.256C330.073 193.472 328.309 194.768 328.309 196.928C328.309 199.178 330.199 199.826 331.963 200.33V204.164C331.027 203.93 330.307 203.282 330.127 202.382L328.039 202.76ZM330.469 196.784C330.469 195.956 331.099 195.362 331.963 195.182V198.314C331.117 198.008 330.469 197.594 330.469 196.784ZM335.113 202.526C335.113 203.462 334.357 204.038 333.457 204.2V200.798C334.393 201.158 335.113 201.608 335.113 202.526ZM339.183 195.308H341.271V206H343.413V193.4H339.183V195.308ZM346.462 196.964L348.478 197.324C348.622 195.848 349.612 195.11 350.818 195.11C352.06 195.11 353.014 195.902 353.014 197.18C353.014 198.17 352.456 198.908 351.502 199.718L346.39 204.092V206H355.174V204.11H349.27L352.834 201.05C354.04 200.024 355.138 198.782 355.138 197.036C355.138 194.732 353.176 193.22 350.818 193.22C348.352 193.22 346.624 194.84 346.462 196.964ZM358.861 206.09C359.599 206.09 360.229 205.46 360.229 204.704C360.229 203.93 359.599 203.318 358.861 203.318C358.087 203.318 357.457 203.93 357.457 204.704C357.457 205.46 358.087 206.09 358.861 206.09ZM362.511 196.964L364.527 197.324C364.671 195.848 365.661 195.11 366.867 195.11C368.109 195.11 369.063 195.902 369.063 197.18C369.063 198.17 368.505 198.908 367.551 199.718L362.439 204.092V206H371.223V204.11H365.319L368.883 201.05C370.089 200.024 371.187 198.782 371.187 197.036C371.187 194.732 369.225 193.22 366.867 193.22C364.401 193.22 362.673 194.84 362.511 196.964ZM373.128 196.964L375.144 197.324C375.288 195.848 376.278 195.11 377.484 195.11C378.726 195.11 379.68 195.902 379.68 197.18C379.68 198.17 379.122 198.908 378.168 199.718L373.056 204.092V206H381.84V204.11H375.936L379.5 201.05C380.706 200.024 381.804 198.782 381.804 197.036C381.804 194.732 379.842 193.22 377.484 193.22C375.018 193.22 373.29 194.84 373.128 196.964ZM383.745 196.964L385.761 197.324C385.905 195.848 386.895 195.11 388.101 195.11C389.343 195.11 390.297 195.902 390.297 197.18C390.297 198.17 389.739 198.908 388.785 199.718L383.673 204.092V206H392.457V204.11H386.553L390.117 201.05C391.323 200.024 392.421 198.782 392.421 197.036C392.421 194.732 390.459 193.22 388.101 193.22C385.635 193.22 383.907 194.84 383.745 196.964ZM396.144 206.09C396.882 206.09 397.512 205.46 397.512 204.704C397.512 203.93 396.882 203.318 396.144 203.318C395.37 203.318 394.74 203.93 394.74 204.704C394.74 205.46 395.37 206.09 396.144 206.09ZM406.598 199.25C407.552 198.782 408.2 197.828 408.2 196.604C408.2 194.642 406.49 193.22 404.204 193.22C401.936 193.22 400.208 194.642 400.208 196.586C400.208 197.828 400.91 198.782 401.828 199.25C400.442 199.862 399.668 201.032 399.668 202.418C399.668 204.614 401.576 206.18 404.204 206.18C406.85 206.18 408.758 204.614 408.758 202.418C408.758 201.032 407.984 199.862 406.598 199.25ZM402.314 196.766C402.314 195.812 403.124 195.074 404.222 195.074C405.32 195.074 406.112 195.812 406.112 196.766C406.112 197.702 405.32 198.44 404.222 198.44C403.124 198.44 402.314 197.702 402.314 196.766ZM404.204 204.326C402.818 204.326 401.828 203.408 401.828 202.256C401.828 201.104 402.818 200.222 404.204 200.222C405.572 200.222 406.598 201.104 406.598 202.256C406.598 203.408 405.572 204.326 404.204 204.326ZM410.352 193.4V195.308H416.22L411.792 205.838L413.88 206.216L418.434 195.236V193.4H410.352ZM420.002 193.4V195.308H425.87L421.442 205.838L423.53 206.216L428.084 195.236V193.4H420.002Z"
      fill="#F1F6F6" />
    <path
      d="M366.488 173.2V174.488H369.54V183H370.982V174.488H374.034V173.2H366.488ZM382.272 173.2L379.542 181.208L376.812 173.2H375.258L378.758 183H380.354L383.826 173.2H382.272ZM387.063 181.712V173.2H385.621V183H391.809V181.712H387.063Z"
      fill="#99A8A7" />
    <path
      d="M360.806 231.2H357.208V241H358.65V237.304H360.666L362.71 241H364.32L362.066 237.122C363.34 236.73 364.152 235.694 364.152 234.252C364.152 232.39 362.78 231.2 360.806 231.2ZM360.708 236.03H358.65V232.488H360.708C361.912 232.488 362.696 233.188 362.696 234.252C362.696 235.33 361.912 236.03 360.708 236.03ZM372.543 237.598C372.543 235.47 371.269 233.818 369.141 233.818C367.027 233.818 365.655 235.414 365.655 237.5C365.655 239.6 367.069 241.14 369.183 241.14C370.639 241.14 371.773 240.44 372.389 239.054L371.073 238.816C370.695 239.586 370.037 239.95 369.183 239.95C367.965 239.95 367.069 239.138 366.999 237.906H372.529C372.543 237.808 372.543 237.696 372.543 237.598ZM367.055 236.828C367.209 235.708 368.007 234.966 369.141 234.966C370.205 234.966 371.059 235.708 371.157 236.828H367.055ZM382.366 233.972L380.938 239.306L379.328 233.972H378.096L376.486 239.306L375.058 233.972H373.644L375.772 241H377.158L378.712 235.862L380.266 241H381.652L383.78 233.972H382.366ZM388.033 233.818C386.563 233.818 385.303 234.658 385.051 236.03L386.381 236.254C386.493 235.498 387.179 234.994 387.963 234.994C388.789 234.994 389.545 235.442 389.545 236.394V236.618C388.033 236.618 384.911 236.702 384.911 238.984C384.911 240.258 385.905 241.14 387.221 241.14C388.327 241.14 389.013 240.72 389.545 239.922V241H390.931V236.478C390.931 234.784 389.699 233.818 388.033 233.818ZM389.545 237.976C389.545 239.04 388.719 239.992 387.599 239.992C386.885 239.992 386.283 239.628 386.283 238.97C386.283 237.542 389.167 237.654 389.545 237.64V237.976ZM397.053 233.86C396.885 233.832 396.731 233.832 396.591 233.846C395.625 233.86 394.981 234.28 394.491 235.148V233.972H393.105V241H394.491V237.486C394.491 235.792 395.513 234.924 397.053 235.092V233.86ZM405.059 230.92H403.673V235.05C403.155 234.294 402.245 233.832 401.209 233.832C399.263 233.832 397.933 235.414 397.933 237.472C397.933 239.516 399.249 241.14 401.195 241.14C402.217 241.14 403.169 240.692 403.673 239.908V241H405.059V230.92ZM403.687 237.486C403.687 238.844 402.889 239.922 401.489 239.922C400.173 239.922 399.319 238.956 399.319 237.486C399.319 236.016 400.173 235.05 401.489 235.05C402.889 235.05 403.687 236.128 403.687 237.486Z"
      fill="#99A8A7" />
    <rect x="340.5" y="248" width="74" height="24" rx="4" fill="#002522" />
    <mask id="path-8-outside-1_1784_46270" maskUnits="userSpaceOnUse" x="346.167" y="252.333" width="12" height="15"
      fill="black">
      <rect fill="white" x="346.167" y="252.333" width="12" height="15" />
      <path fill-rule="evenodd" clip-rule="evenodd"
        d="M350.333 256.5C350.333 255.303 351.303 254.333 352.5 254.333C353.696 254.333 354.667 255.303 354.667 256.5V258H350.333V256.5ZM349.333 258V256.5C349.333 254.751 350.751 253.333 352.5 253.333C354.249 253.333 355.667 254.751 355.667 256.5V258H356.833C357.385 258 357.833 258.448 357.833 259V265.667C357.833 266.219 357.385 266.667 356.833 266.667H348.167C347.614 266.667 347.167 266.219 347.167 265.667V259C347.167 258.448 347.614 258 348.167 258H349.333ZM356.833 265.667V259H348.167V265.667H356.833ZM352 263.333V261.333H353V263.333H352Z" />
    </mask>
    <path fill-rule="evenodd" clip-rule="evenodd"
      d="M350.333 256.5C350.333 255.303 351.303 254.333 352.5 254.333C353.696 254.333 354.667 255.303 354.667 256.5V258H350.333V256.5ZM349.333 258V256.5C349.333 254.751 350.751 253.333 352.5 253.333C354.249 253.333 355.667 254.751 355.667 256.5V258H356.833C357.385 258 357.833 258.448 357.833 259V265.667C357.833 266.219 357.385 266.667 356.833 266.667H348.167C347.614 266.667 347.167 266.219 347.167 265.667V259C347.167 258.448 347.614 258 348.167 258H349.333ZM356.833 265.667V259H348.167V265.667H356.833ZM352 263.333V261.333H353V263.333H352Z"
      fill="#EEB218" />
    <path
      d="M354.667 258V258.25H354.917V258H354.667ZM350.333 258H350.083V258.25H350.333V258ZM349.333 258V258.25H349.583V258H349.333ZM355.667 258H355.417V258.25H355.667V258ZM356.833 259H357.083V258.75H356.833V259ZM356.833 265.667V265.917H357.083V265.667H356.833ZM348.167 259V258.75H347.917V259H348.167ZM348.167 265.667H347.917V265.917H348.167V265.667ZM352 261.333V261.083H351.75V261.333H352ZM352 263.333H351.75V263.583H352V263.333ZM353 261.333H353.25V261.083H353V261.333ZM353 263.333V263.583H353.25V263.333H353ZM352.5 254.083C351.165 254.083 350.083 255.165 350.083 256.5H350.583C350.583 255.441 351.441 254.583 352.5 254.583V254.083ZM354.917 256.5C354.917 255.165 353.835 254.083 352.5 254.083V254.583C353.558 254.583 354.417 255.441 354.417 256.5H354.917ZM354.917 258V256.5H354.417V258H354.917ZM350.333 258.25H354.667V257.75H350.333V258.25ZM350.083 256.5V258H350.583V256.5H350.083ZM349.583 258V256.5H349.083V258H349.583ZM349.583 256.5C349.583 254.889 350.889 253.583 352.5 253.583V253.083C350.613 253.083 349.083 254.613 349.083 256.5H349.583ZM352.5 253.583C354.111 253.583 355.417 254.889 355.417 256.5H355.917C355.917 254.613 354.387 253.083 352.5 253.083V253.583ZM355.417 256.5V258H355.917V256.5H355.417ZM355.667 258.25H356.833V257.75H355.667V258.25ZM356.833 258.25C357.247 258.25 357.583 258.586 357.583 259H358.083C358.083 258.31 357.524 257.75 356.833 257.75V258.25ZM357.583 259V265.667H358.083V259H357.583ZM357.583 265.667C357.583 266.081 357.247 266.417 356.833 266.417V266.917C357.524 266.917 358.083 266.357 358.083 265.667H357.583ZM356.833 266.417H348.167V266.917H356.833V266.417ZM348.167 266.417C347.752 266.417 347.417 266.081 347.417 265.667H346.917C346.917 266.357 347.476 266.917 348.167 266.917V266.417ZM347.417 265.667V259H346.917V265.667H347.417ZM347.417 259C347.417 258.586 347.752 258.25 348.167 258.25V257.75C347.476 257.75 346.917 258.31 346.917 259H347.417ZM348.167 258.25H349.333V257.75H348.167V258.25ZM356.583 259V265.667H357.083V259H356.583ZM348.167 259.25H356.833V258.75H348.167V259.25ZM348.417 265.667V259H347.917V265.667H348.417ZM356.833 265.417H348.167V265.917H356.833V265.417ZM351.75 261.333V263.333H352.25V261.333H351.75ZM353 261.083H352V261.583H353V261.083ZM353.25 263.333V261.333H352.75V263.333H353.25ZM352 263.583H353V263.083H352V263.583Z"
      fill="#EEB218" mask="url(#path-8-outside-1_1784_46270)" />
    <path
      d="M365.044 254.8V256.272H368.532V266H370.18V256.272H373.668V254.8H365.044ZM378.895 254.8H377.135L373.071 266H374.863L375.711 263.52H380.319L381.167 266H382.959L378.895 254.8ZM376.159 262.048L378.015 256.608L379.871 262.048H376.159ZM386.176 264.528V254.8H384.528V266H391.6V264.528H386.176ZM395.067 264.528V254.8H393.419V266H400.491V264.528H395.067ZM407.356 254.8L404.556 259.984L401.74 254.8H399.884L403.724 261.632V266H405.372V261.632L409.228 254.8H407.356Z"
      fill="white" />
    <path
      d="M336.963 144H353.523C353.343 143.748 353.091 143.46 353.415 141.732L353.991 138.24H352.947C352.263 140.256 351.039 140.796 347.943 140.796H339.123C342.615 135.072 353.703 134.28 353.703 127.296C353.703 123.444 350.607 121.068 345.747 121.068C340.311 121.068 337.467 124.02 337.467 127.296C337.467 129.276 338.511 130.608 340.059 130.608C340.995 130.608 342.111 130.14 342.111 128.808C342.111 127.872 341.607 127.548 341.607 126.252C341.607 124.056 343.119 122.256 345.531 122.256C348.267 122.256 349.491 124.488 349.491 126.504C349.491 132.84 336.963 135.576 336.963 144ZM365.105 144.36C370.397 144.36 374.321 141.192 374.321 136.26C374.321 130.896 369.677 128.628 365.789 128.628C363.485 128.628 361.145 129.42 359.705 130.824L360.137 125.1H371.981L372.413 121.104L369.749 121.608H359.273L358.409 132.696H359.381C360.425 131.04 362.333 130.104 364.313 130.104C368.021 130.104 370.109 133.272 370.109 137.052C370.109 140.796 368.237 143.172 365.429 143.172C362.873 143.172 361.685 141.156 361.109 139.752C360.173 137.34 360.965 135.648 358.769 135.648C357.545 135.648 356.681 136.296 356.681 138.132C356.681 141.948 360.497 144.36 365.105 144.36ZM386.222 144.36C392.342 144.36 395.582 138.816 395.582 132.696C395.582 126.612 392.342 121.068 386.222 121.068C380.066 121.068 376.826 126.612 376.826 132.696C376.826 138.816 380.066 144.36 386.222 144.36ZM386.546 143.028C382.37 143.028 381.074 137.376 381.074 131.796C381.074 126.18 382.478 122.4 385.862 122.4C390.002 122.4 391.298 128.052 391.298 133.632C391.298 139.284 389.93 143.028 386.546 143.028ZM415.664 121.644C411.092 124.344 409.652 121.392 404.432 121.392C401.3 121.392 398.636 124.092 398.636 127.332C398.636 129.528 399.896 131.472 402.632 131.472C405.764 131.472 408.428 128.808 408.428 125.568C408.428 124.74 408.248 123.948 407.888 123.3C410.156 124.02 412.46 124.776 414.764 122.868L399.14 144H402.488L417.248 121.644H415.664ZM403.28 130.356C401.948 130.356 401.48 128.88 401.48 126.972C401.48 124.632 402.164 122.544 403.748 122.544C405.116 122.544 405.584 123.984 405.584 125.928C405.584 128.268 404.9 130.356 403.28 130.356ZM415.016 134.316C411.884 134.316 409.22 137.016 409.22 140.22C409.22 142.452 410.48 144.396 413.18 144.396C416.312 144.396 418.976 141.732 418.976 138.456C418.976 136.26 417.716 134.316 415.016 134.316ZM413.864 143.244C412.532 143.244 412.064 141.804 412.064 139.86C412.064 137.52 412.748 135.432 414.332 135.432C415.664 135.432 416.132 136.908 416.132 138.816C416.132 141.156 415.448 143.244 413.864 143.244Z"
      fill="#22C480" />
    <path
      d="M334.378 100.488V99.2H328.05V109H334.378V107.712H329.492V104.702H333.818V103.456H329.492V100.488H334.378ZM337.569 103.848C337.569 103.246 338.227 102.952 338.815 102.952C339.487 102.952 340.033 103.33 340.173 103.96L341.503 103.736C341.251 102.504 340.047 101.804 338.815 101.804C337.485 101.804 336.239 102.644 336.239 103.974C336.239 105.304 337.513 105.766 338.983 106.088C339.655 106.242 340.355 106.424 340.355 107.068C340.355 107.754 339.557 107.992 338.955 107.992C338.171 107.992 337.611 107.6 337.457 106.844L336.113 107.068C336.309 108.468 337.597 109.14 338.983 109.14C340.397 109.14 341.713 108.426 341.713 107.012C341.713 105.556 340.313 105.122 339.053 104.856C338.325 104.702 337.569 104.492 337.569 103.848ZM346.806 103.12V101.972H345.28V99.914L343.922 100.152V101.972H342.788V103.12H343.908V107.026C343.908 108.426 344.594 109.14 345.994 109.14C346.26 109.14 346.582 109.112 346.848 109.056V107.796C346.652 107.866 346.442 107.894 346.232 107.894C345.406 107.894 345.294 107.53 345.294 106.746V103.12H346.806ZM349.423 100.474C349.941 100.474 350.333 100.082 350.333 99.578C350.333 99.074 349.941 98.682 349.423 98.682C348.919 98.682 348.541 99.074 348.541 99.578C348.541 100.082 348.919 100.474 349.423 100.474ZM350.123 109V101.972H348.737V109H350.123ZM360.275 101.832C359.295 101.832 358.413 102.322 357.951 103.274C357.629 102.406 356.845 101.832 355.865 101.832C355.053 101.832 354.255 102.252 353.821 103.078V101.972H352.435V109H353.821V105.248C353.821 104.156 354.353 103.078 355.487 103.078C356.411 103.078 356.887 103.778 356.887 104.744V109H358.273V105.248C358.273 104.17 358.763 103.078 359.911 103.078C360.821 103.078 361.297 103.778 361.297 104.744V109H362.683V104.618C362.683 103.064 361.829 101.832 360.275 101.832ZM367.645 101.818C366.175 101.818 364.915 102.658 364.663 104.03L365.993 104.254C366.105 103.498 366.791 102.994 367.575 102.994C368.401 102.994 369.157 103.442 369.157 104.394V104.618C367.645 104.618 364.523 104.702 364.523 106.984C364.523 108.258 365.517 109.14 366.833 109.14C367.939 109.14 368.625 108.72 369.157 107.922V109H370.543V104.478C370.543 102.784 369.311 101.818 367.645 101.818ZM369.157 105.976C369.157 107.04 368.331 107.992 367.211 107.992C366.497 107.992 365.895 107.628 365.895 106.97C365.895 105.542 368.779 105.654 369.157 105.64V105.976ZM376.048 103.12V101.972H374.522V99.914L373.164 100.152V101.972H372.03V103.12H373.15V107.026C373.15 108.426 373.836 109.14 375.236 109.14C375.502 109.14 375.824 109.112 376.09 109.056V107.796C375.894 107.866 375.684 107.894 375.474 107.894C374.648 107.894 374.536 107.53 374.536 106.746V103.12H376.048ZM384.255 105.598C384.255 103.47 382.981 101.818 380.853 101.818C378.739 101.818 377.367 103.414 377.367 105.5C377.367 107.6 378.781 109.14 380.895 109.14C382.351 109.14 383.485 108.44 384.101 107.054L382.785 106.816C382.407 107.586 381.749 107.95 380.895 107.95C379.677 107.95 378.781 107.138 378.711 105.906H384.241C384.255 105.808 384.255 105.696 384.255 105.598ZM378.767 104.828C378.921 103.708 379.719 102.966 380.853 102.966C381.917 102.966 382.771 103.708 382.869 104.828H378.767ZM392.939 98.92H391.553V103.05C391.035 102.294 390.125 101.832 389.089 101.832C387.143 101.832 385.813 103.414 385.813 105.472C385.813 107.516 387.129 109.14 389.075 109.14C390.097 109.14 391.049 108.692 391.553 107.908V109H392.939V98.92ZM391.567 105.486C391.567 106.844 390.769 107.922 389.369 107.922C388.053 107.922 387.199 106.956 387.199 105.486C387.199 104.016 388.053 103.05 389.369 103.05C390.769 103.05 391.567 104.128 391.567 105.486ZM403.61 99.2H402.07L398.514 109H400.082L400.824 106.83H404.856L405.598 109H407.166L403.61 99.2ZM401.216 105.542L402.84 100.782L404.464 105.542H401.216ZM412.557 99.2H408.959V109H410.401V105.304H412.557C414.545 105.304 415.903 104.128 415.903 102.252C415.903 100.39 414.531 99.2 412.557 99.2ZM412.459 104.03H410.401V100.488H412.459C413.663 100.488 414.447 101.188 414.447 102.252C414.447 103.33 413.663 104.03 412.459 104.03ZM421.563 99.2H417.965V109H419.407V105.304H421.423L423.467 109H425.077L422.823 105.122C424.097 104.73 424.909 103.694 424.909 102.252C424.909 100.39 423.537 99.2 421.563 99.2ZM421.465 104.03H419.407V100.488H421.465C422.669 100.488 423.453 101.188 423.453 102.252C423.453 103.33 422.669 104.03 421.465 104.03Z"
      fill="#99A8A7" />
    <rect x="354.5" y="2.5" width="47" height="47" rx="23.5" fill="#1BA58C" stroke="#FAF8F1" />
    <path fill-rule="evenodd" clip-rule="evenodd"
      d="M378 2C364.745 2 354 12.7452 354 26C354 39.2548 364.745 50 378 50C391.255 50 402 39.2548 402 26C402 12.7452 391.255 2 378 2ZM385.696 21.1719H387.04V17.3057H378.291V21.1175H379.652L376.947 24.2758H375.84V21.1175H377.383V17.3057H375.314V18.7396H374.188V17.3057H372.137V18.7396H371.012V17.3057H368.925V21.1719H370.758V26.0001V30.7921H368.925V34.6583H377.401V30.8284H375.858V27.6701H376.966L379.67 30.8284H378.309V34.6583H387.058V30.7921H385.696L381.576 25.982L385.696 21.1719Z"
      fill="#001413" />
    <rect x="354.5" y="2.5" width="47" height="47" rx="23.5" fill="#1BA58C" stroke="#FAF8F1" />
    <g clip-path="url(#clip0_1784_46270)">
      <path
        d="M378.017 50.0339C391.281 50.0339 402.034 39.2811 402.034 26.0169C402.034 12.7527 391.281 2 378.017 2C364.753 2 354 12.7527 354 26.0169C354 39.2811 364.753 50.0339 378.017 50.0339Z"
        fill="#7866D5" />
      <path
        d="M378 50C391.3 50 402 39.3001 402 26C402 12.6999 391.3 2 378 2C364.7 2 354 12.6999 354 26C354 39.3001 364.7 50 378 50Z"
        fill="#2775CA" />
      <path
        d="M384.6 29.8C384.6 26.3 382.5 25.1 378.3 24.6001C375.3 24.2 374.7 23.4001 374.7 22C374.7 20.5998 375.7 19.7 377.7 19.7C379.5 19.7 380.5 20.3 381 21.8C381.1 22.1 381.4 22.3 381.7 22.3H383.3C383.7 22.3 384 22 384 21.6001V21.5C383.6 19.3 381.8 17.6 379.5 17.4001V15.0001C379.5 14.6 379.2 14.3 378.7 14.2H377.2C376.8 14.2 376.5 14.5 376.4 15.0001V17.3C373.4 17.7001 371.5 19.7 371.5 22.2001C371.5 25.5001 373.5 26.8 377.7 27.3001C380.5 27.8001 381.4 28.4001 381.4 30.0001C381.4 31.6002 380 32.7001 378.1 32.7001C375.5 32.7001 374.6 31.6 374.3 30.1C374.2 29.7001 373.9 29.5 373.6 29.5H371.9C371.5 29.5 371.2 29.8 371.2 30.2001V30.3001C371.6 32.8 373.2 34.6 376.5 35.1001V37.5001C376.5 37.9 376.8 38.2 377.3 38.3001H378.8C379.2 38.3001 379.5 38.0001 379.6 37.5001V35.1001C382.6 34.6 384.6 32.5 384.6 29.8V29.8Z"
        fill="white" />
      <path
        d="M372.9 40.2999C365.1 37.5001 361.1 28.8001 364 21.0999C365.5 16.8999 368.8 13.6999 372.9 12.1999C373.3 12 373.5 11.7 373.5 11.1998V9.79992C373.5 9.39984 373.3 9.09984 372.9 9C372.8 9 372.6 9 372.5 9.09984C363 12.0998 357.8 22.2 360.8 31.7C362.6 37.2999 366.9 41.6 372.5 43.4C372.9 43.5999 373.3 43.4 373.4 42.9999C373.5 42.9001 373.5 42.8 373.5 42.6001V41.1999C373.5 40.8999 373.2 40.5001 372.9 40.2999ZM383.5 9.09984C383.1 8.89992 382.7 9.09984 382.6 9.49992C382.5 9.6 382.5 9.69984 382.5 9.9V11.2999C382.5 11.7 382.8 12.0998 383.1 12.3C390.9 15.0999 394.9 23.7999 392 31.5001C390.5 35.7001 387.2 38.9 383.1 40.4C382.7 40.5999 382.5 40.8999 382.5 41.4001V42.8C382.5 43.2001 382.7 43.5001 383.1 43.5999C383.2 43.5999 383.4 43.6 383.5 43.5001C393 40.5001 398.2 30.3999 395.2 20.9C393.4 15.1999 389 10.8998 383.5 9.09984V9.09984Z"
        fill="white" />
    </g>
    <rect x="349" y="37" width="18" height="18" rx="3" fill="#006AE3" stroke="#193330" stroke-width="2" />
    <rect x="350" y="38" width="16" height="16" rx="2" fill="#006AE3" />
    <path fill-rule="evenodd" clip-rule="evenodd"
      d="M358 38C362.418 38 366 41.5824 366 46C366 50.4176 362.418 54 358 54C353.582 54 350 50.4176 350 46C350 41.5824 353.582 38 358 38Z"
      fill="#006AE3" />
    <path d="M357.67 49.3728V42.7168H358.395V49.3728H357.67Z" fill="white" />
    <path
      d="M361.36 44.9345L359.122 45.5281L358.623 43.2049L359.288 43.0545L359.551 44.1553C359.551 44.1553 360.155 43.1633 359.349 42.1361C358.874 41.6081 358.648 41.5857 358.115 41.5025C357.647 41.4353 356.557 41.5937 356.232 42.8657C356.095 43.6849 356.25 44.2913 357.306 45.0849L357.247 45.9681C357.247 45.9681 356.067 45.1377 355.763 44.5553C355.528 44.0945 355.125 43.1841 355.853 41.9169C356.245 41.2833 357.018 40.6753 358.379 40.7393C359.064 40.7681 360.736 41.6049 360.477 43.5601C360.432 43.9265 360.242 44.4145 360.242 44.4145L361.16 44.2097L361.36 44.9345Z"
      fill="white" />
    <path
      d="M360.082 50.1424C359.672 50.7648 358.883 51.352 357.525 51.2528C356.84 51.2064 355.192 50.3248 355.503 48.3776C355.557 48.0128 355.76 47.5312 355.76 47.5312L354.837 47.7104L354.656 46.9824L356.911 46.448L357.349 48.784L356.679 48.9168L356.445 47.808C356.445 47.808 355.815 48.7824 356.592 49.832C357.053 50.3728 357.277 50.4 357.81 50.4976C358.275 50.5776 359.37 50.4464 359.728 49.184C359.887 48.3696 359.747 47.7584 358.714 46.936L358.797 46.0544C358.797 46.0544 359.954 46.9152 360.242 47.5056C360.463 47.9744 360.842 48.896 360.082 50.1424V50.1424Z"
      fill="white" />
    <path
      d="M363.996 61.4V69.338C363.996 70.904 363.078 72.272 361.278 72.272C359.46 72.272 358.56 70.922 358.56 69.338V61.4H356.346V69.356C356.346 72.218 358.128 74.18 361.278 74.18C364.428 74.18 366.21 72.218 366.21 69.356V61.4H363.996ZM370.523 64.766C370.523 63.776 371.441 63.128 372.629 63.128C373.727 63.128 374.609 63.686 374.951 64.82L377.003 64.46C376.481 62.3 374.555 61.22 372.611 61.22C370.487 61.22 368.363 62.516 368.363 64.91C368.363 67.538 370.937 68.024 372.953 68.6C374.195 68.942 375.203 69.428 375.203 70.544C375.203 71.66 374.141 72.254 372.881 72.254C371.477 72.254 370.451 71.534 370.235 70.4L368.147 70.76C368.651 72.956 370.433 74.18 372.809 74.18C375.293 74.18 377.363 72.83 377.363 70.364C377.363 67.646 374.825 67.106 372.827 66.584C371.549 66.242 370.523 65.81 370.523 64.766ZM383.317 61.4H379.303V74H383.317C387.205 74 389.815 71.552 389.815 67.628C389.815 63.776 387.277 61.4 383.317 61.4ZM383.209 72.092H381.517V63.308H383.209C385.909 63.308 387.601 64.874 387.601 67.628C387.601 70.454 385.819 72.092 383.209 72.092ZM390.45 61.4V63.308H394.284V74H396.48V63.308H400.332V61.4H390.45Z"
      fill="#F1F6F6" />
    <rect x="-74" y="26" width="168" height="258" rx="8" fill="#193330" />
    <line x1="-50" y1="219.5" x2="70" y2="219.5" stroke="#001413" />
    <line x1="-50" y1="161.5" x2="70" y2="161.5" stroke="#001413" />
    <path
      d="M-43.5905 202.76C-43.1225 204.668 -41.6465 205.874 -39.6665 206.126V207.35H-38.1725V206.144C-36.0845 205.892 -34.3565 204.56 -34.3565 202.346C-34.3565 199.916 -36.3725 199.286 -38.1725 198.764V195.272C-37.5065 195.506 -36.9845 196.028 -36.7505 196.82L-34.6985 196.46C-35.1485 194.642 -36.6065 193.58 -38.1725 193.292V192.086H-39.6665V193.256C-41.5565 193.472 -43.3205 194.768 -43.3205 196.928C-43.3205 199.178 -41.4305 199.826 -39.6665 200.33V204.164C-40.6025 203.93 -41.3225 203.282 -41.5025 202.382L-43.5905 202.76ZM-41.1605 196.784C-41.1605 195.956 -40.5305 195.362 -39.6665 195.182V198.314C-40.5125 198.008 -41.1605 197.594 -41.1605 196.784ZM-36.5165 202.526C-36.5165 203.462 -37.2725 204.038 -38.1725 204.2V200.798C-37.2365 201.158 -36.5165 201.608 -36.5165 202.526ZM-32.3748 196.964L-30.3588 197.324C-30.2148 195.848 -29.2248 195.11 -28.0188 195.11C-26.7768 195.11 -25.8228 195.902 -25.8228 197.18C-25.8228 198.17 -26.3808 198.908 -27.3348 199.718L-32.4468 204.092V206H-23.6628V204.11H-29.5668L-26.0028 201.05C-24.7968 200.024 -23.6988 198.782 -23.6988 197.036C-23.6988 194.732 -25.6608 193.22 -28.0188 193.22C-30.4848 193.22 -32.2128 194.84 -32.3748 196.964ZM-21.7576 196.964L-19.7416 197.324C-19.5976 195.848 -18.6076 195.11 -17.4016 195.11C-16.1596 195.11 -15.2056 195.902 -15.2056 197.18C-15.2056 198.17 -15.7636 198.908 -16.7176 199.718L-21.8296 204.092V206H-13.0456V204.11H-18.9496L-15.3856 201.05C-14.1796 200.024 -13.0816 198.782 -13.0816 197.036C-13.0816 194.732 -15.0436 193.22 -17.4016 193.22C-19.8676 193.22 -21.5956 194.84 -21.7576 196.964ZM-9.35844 206.09C-8.62044 206.09 -7.99044 205.46 -7.99044 204.704C-7.99044 203.93 -8.62044 203.318 -9.35844 203.318C-10.1324 203.318 -10.7624 203.93 -10.7624 204.704C-10.7624 205.46 -10.1324 206.09 -9.35844 206.09ZM1.0952 199.25C2.0492 198.782 2.6972 197.828 2.6972 196.604C2.6972 194.642 0.987204 193.22 -1.2988 193.22C-3.5668 193.22 -5.2948 194.642 -5.2948 196.586C-5.2948 197.828 -4.5928 198.782 -3.6748 199.25C-5.0608 199.862 -5.8348 201.032 -5.8348 202.418C-5.8348 204.614 -3.9268 206.18 -1.2988 206.18C1.3472 206.18 3.2552 204.614 3.2552 202.418C3.2552 201.032 2.4812 199.862 1.0952 199.25ZM-3.1888 196.766C-3.1888 195.812 -2.3788 195.074 -1.2808 195.074C-0.182797 195.074 0.609203 195.812 0.609203 196.766C0.609203 197.702 -0.182797 198.44 -1.2808 198.44C-2.3788 198.44 -3.1888 197.702 -3.1888 196.766ZM-1.2988 204.326C-2.6848 204.326 -3.6748 203.408 -3.6748 202.256C-3.6748 201.104 -2.6848 200.222 -1.2988 200.222C0.0692032 200.222 1.0952 201.104 1.0952 202.256C1.0952 203.408 0.0692032 204.326 -1.2988 204.326ZM9.96217 193.22C6.47017 193.22 4.95817 196.352 4.95817 199.7C4.95817 203.048 6.47017 206.18 9.96217 206.18C13.4722 206.18 14.9842 203.048 14.9842 199.7C14.9842 196.352 13.4722 193.22 9.96217 193.22ZM9.96217 204.272C7.73017 204.272 7.17217 201.95 7.17217 199.7C7.17217 197.45 7.73017 195.128 9.96217 195.128C12.2122 195.128 12.7702 197.45 12.7702 199.7C12.7702 201.95 12.2122 204.272 9.96217 204.272ZM21.7571 193.22C18.2651 193.22 16.7531 196.352 16.7531 199.7C16.7531 203.048 18.2651 206.18 21.7571 206.18C25.2671 206.18 26.7791 203.048 26.7791 199.7C26.7791 196.352 25.2671 193.22 21.7571 193.22ZM21.7571 204.272C19.5251 204.272 18.9671 201.95 18.9671 199.7C18.9671 197.45 19.5251 195.128 21.7571 195.128C24.0071 195.128 24.5651 197.45 24.5651 199.7C24.5651 201.95 24.0071 204.272 21.7571 204.272ZM30.0166 206.09C30.7546 206.09 31.3846 205.46 31.3846 204.704C31.3846 203.93 30.7546 203.318 30.0166 203.318C29.2426 203.318 28.6126 203.93 28.6126 204.704C28.6126 205.46 29.2426 206.09 30.0166 206.09ZM33.364 202.436C33.472 204.794 35.38 206.18 37.828 206.18C40.33 206.18 42.382 204.722 42.382 202.418C42.382 201.014 41.572 199.808 40.222 199.286C41.176 198.818 41.896 197.828 41.896 196.604C41.896 194.552 40.06 193.22 37.864 193.22C35.686 193.22 33.976 194.57 33.868 196.604L35.902 196.964C35.956 195.794 36.748 195.074 37.846 195.074C38.89 195.074 39.79 195.74 39.79 196.748C39.79 197.792 38.908 198.44 37.864 198.44H36.694V200.222H37.846C39.07 200.222 40.222 201.014 40.222 202.274C40.222 203.534 39.106 204.326 37.846 204.326C36.532 204.326 35.38 203.516 35.38 202.076L33.364 202.436ZM44.3361 196.964L46.3521 197.324C46.4961 195.848 47.4861 195.11 48.6921 195.11C49.9341 195.11 50.8881 195.902 50.8881 197.18C50.8881 198.17 50.3301 198.908 49.3761 199.718L44.2641 204.092V206H53.0481V204.11H47.1441L50.7081 201.05C51.9141 200.024 53.0121 198.782 53.0121 197.036C53.0121 194.732 51.0501 193.22 48.6921 193.22C46.2261 193.22 44.4981 194.84 44.3361 196.964ZM54.9533 196.964L56.9693 197.324C57.1133 195.848 58.1033 195.11 59.3093 195.11C60.5513 195.11 61.5053 195.902 61.5053 197.18C61.5053 198.17 60.9473 198.908 59.9933 199.718L54.8813 204.092V206H63.6653V204.11H57.7613L61.3253 201.05C62.5313 200.024 63.6293 198.782 63.6293 197.036C63.6293 194.732 61.6673 193.22 59.3093 193.22C56.8433 193.22 55.1153 194.84 54.9533 196.964Z"
      fill="#F1F6F6" />
    <path
      d="M-1.51205 173.2V174.488H1.53995V183H2.98195V174.488H6.03395V173.2H-1.51205ZM14.2719 173.2L11.5419 181.208L8.81186 173.2H7.25786L10.7579 183H12.3539L15.8259 173.2H14.2719ZM19.0627 181.712V173.2H17.6207V183H23.8087V181.712H19.0627Z"
      fill="#99A8A7" />
    <path
      d="M-7.19419 231.2H-10.7922V241H-9.35019V237.304H-7.33419L-5.29019 241H-3.68019L-5.93419 237.122C-4.66019 236.73 -3.84819 235.694 -3.84819 234.252C-3.84819 232.39 -5.22019 231.2 -7.19419 231.2ZM-7.29219 236.03H-9.35019V232.488H-7.29219C-6.08819 232.488 -5.30419 233.188 -5.30419 234.252C-5.30419 235.33 -6.08819 236.03 -7.29219 236.03ZM4.54339 237.598C4.54339 235.47 3.26939 233.818 1.14139 233.818C-0.972608 233.818 -2.34461 235.414 -2.34461 237.5C-2.34461 239.6 -0.930608 241.14 1.18339 241.14C2.63939 241.14 3.77339 240.44 4.38939 239.054L3.07339 238.816C2.69539 239.586 2.03739 239.95 1.18339 239.95C-0.0346076 239.95 -0.930608 239.138 -1.00061 237.906H4.52939C4.54339 237.808 4.54339 237.696 4.54339 237.598ZM-0.944608 236.828C-0.790608 235.708 0.00739229 234.966 1.14139 234.966C2.20539 234.966 3.05939 235.708 3.15739 236.828H-0.944608ZM14.366 233.972L12.938 239.306L11.328 233.972H10.096L8.48603 239.306L7.05803 233.972H5.64403L7.77203 241H9.15803L10.712 235.862L12.266 241H13.652L15.78 233.972H14.366ZM20.0331 233.818C18.5631 233.818 17.3031 234.658 17.0511 236.03L18.3811 236.254C18.4931 235.498 19.1791 234.994 19.9631 234.994C20.7891 234.994 21.5451 235.442 21.5451 236.394V236.618C20.0331 236.618 16.9111 236.702 16.9111 238.984C16.9111 240.258 17.9051 241.14 19.2211 241.14C20.3271 241.14 21.0131 240.72 21.5451 239.922V241H22.9311V236.478C22.9311 234.784 21.6991 233.818 20.0331 233.818ZM21.5451 237.976C21.5451 239.04 20.7191 239.992 19.5991 239.992C18.8851 239.992 18.2831 239.628 18.2831 238.97C18.2831 237.542 21.1671 237.654 21.5451 237.64V237.976ZM29.0526 233.86C28.8846 233.832 28.7306 233.832 28.5906 233.846C27.6246 233.86 26.9806 234.28 26.4906 235.148V233.972H25.1046V241H26.4906V237.486C26.4906 235.792 27.5126 234.924 29.0526 235.092V233.86ZM37.0594 230.92H35.6734V235.05C35.1554 234.294 34.2454 233.832 33.2094 233.832C31.2634 233.832 29.9334 235.414 29.9334 237.472C29.9334 239.516 31.2494 241.14 33.1954 241.14C34.2174 241.14 35.1694 240.692 35.6734 239.908V241H37.0594V230.92ZM35.6874 237.486C35.6874 238.844 34.8894 239.922 33.4894 239.922C32.1734 239.922 31.3194 238.956 31.3194 237.486C31.3194 236.016 32.1734 235.05 33.4894 235.05C34.8894 235.05 35.6874 236.128 35.6874 237.486Z"
      fill="#99A8A7" />
    <rect x="-27.5" y="248" width="74" height="24" rx="4" fill="#002522" />
    <path
      d="M-2.956 254.8V256.272H0.532V266H2.18V256.272H5.668V254.8H-2.956ZM10.8951 254.8H9.13513L5.07113 266H6.86313L7.71113 263.52H12.3191L13.1671 266H14.9591L10.8951 254.8ZM8.15913 262.048L10.0151 256.608L11.8711 262.048H8.15913ZM18.1761 264.528V254.8H16.5281V266H23.6001V264.528H18.1761ZM27.0668 264.528V254.8H25.4188V266H32.4908V264.528H27.0668ZM39.356 254.8L36.556 259.984L33.74 254.8H31.884L35.724 261.632V266H37.372V261.632L41.228 254.8H39.356Z"
      fill="white" />
    <path
      d="M-31.037 144H-14.477C-14.657 143.748 -14.909 143.46 -14.585 141.732L-14.009 138.24H-15.053C-15.737 140.256 -16.961 140.796 -20.057 140.796H-28.877C-25.385 135.072 -14.297 134.28 -14.297 127.296C-14.297 123.444 -17.393 121.068 -22.253 121.068C-27.689 121.068 -30.533 124.02 -30.533 127.296C-30.533 129.276 -29.489 130.608 -27.941 130.608C-27.005 130.608 -25.889 130.14 -25.889 128.808C-25.889 127.872 -26.393 127.548 -26.393 126.252C-26.393 124.056 -24.881 122.256 -22.469 122.256C-19.733 122.256 -18.509 124.488 -18.509 126.504C-18.509 132.84 -31.037 135.576 -31.037 144ZM-2.89451 144.36C2.39749 144.36 6.32149 141.192 6.32149 136.26C6.32149 130.896 1.67749 128.628 -2.21051 128.628C-4.51451 128.628 -6.85451 129.42 -8.29451 130.824L-7.86251 125.1H3.98149L4.41349 121.104L1.74949 121.608H-8.72651L-9.59051 132.696H-8.61851C-7.57451 131.04 -5.66651 130.104 -3.68651 130.104C0.0214868 130.104 2.10949 133.272 2.10949 137.052C2.10949 140.796 0.237486 143.172 -2.57051 143.172C-5.12651 143.172 -6.31451 141.156 -6.89051 139.752C-7.82651 137.34 -7.03451 135.648 -9.23051 135.648C-10.4545 135.648 -11.3185 136.296 -11.3185 138.132C-11.3185 141.948 -7.50251 144.36 -2.89451 144.36ZM18.222 144.36C24.342 144.36 27.582 138.816 27.582 132.696C27.582 126.612 24.342 121.068 18.222 121.068C12.066 121.068 8.82602 126.612 8.82602 132.696C8.82602 138.816 12.066 144.36 18.222 144.36ZM18.546 143.028C14.37 143.028 13.074 137.376 13.074 131.796C13.074 126.18 14.478 122.4 17.862 122.4C22.002 122.4 23.298 128.052 23.298 133.632C23.298 139.284 21.93 143.028 18.546 143.028ZM47.6635 121.644C43.0915 124.344 41.6515 121.392 36.4315 121.392C33.2995 121.392 30.6355 124.092 30.6355 127.332C30.6355 129.528 31.8955 131.472 34.6315 131.472C37.7635 131.472 40.4275 128.808 40.4275 125.568C40.4275 124.74 40.2475 123.948 39.8875 123.3C42.1555 124.02 44.4595 124.776 46.7635 122.868L31.1395 144H34.4875L49.2475 121.644H47.6635ZM35.2795 130.356C33.9475 130.356 33.4795 128.88 33.4795 126.972C33.4795 124.632 34.1635 122.544 35.7475 122.544C37.1155 122.544 37.5835 123.984 37.5835 125.928C37.5835 128.268 36.8995 130.356 35.2795 130.356ZM47.0155 134.316C43.8835 134.316 41.2195 137.016 41.2195 140.22C41.2195 142.452 42.4795 144.396 45.1795 144.396C48.3115 144.396 50.9755 141.732 50.9755 138.456C50.9755 136.26 49.7155 134.316 47.0155 134.316ZM45.8635 143.244C44.5315 143.244 44.0635 141.804 44.0635 139.86C44.0635 137.52 44.7475 135.432 46.3315 135.432C47.6635 135.432 48.1315 136.908 48.1315 138.816C48.1315 141.156 47.4475 143.244 45.8635 143.244Z"
      fill="#22C480" />
    <path
      d="M-33.622 100.488V99.2H-39.95V109H-33.622V107.712H-38.508V104.702H-34.182V103.456H-38.508V100.488H-33.622ZM-30.4309 103.848C-30.4309 103.246 -29.7729 102.952 -29.1849 102.952C-28.5129 102.952 -27.9669 103.33 -27.8269 103.96L-26.4969 103.736C-26.7489 102.504 -27.9529 101.804 -29.1849 101.804C-30.5149 101.804 -31.7609 102.644 -31.7609 103.974C-31.7609 105.304 -30.4869 105.766 -29.0169 106.088C-28.3449 106.242 -27.6449 106.424 -27.6449 107.068C-27.6449 107.754 -28.4429 107.992 -29.0449 107.992C-29.8289 107.992 -30.3889 107.6 -30.5429 106.844L-31.8869 107.068C-31.6909 108.468 -30.4029 109.14 -29.0169 109.14C-27.6029 109.14 -26.2869 108.426 -26.2869 107.012C-26.2869 105.556 -27.6869 105.122 -28.9469 104.856C-29.6749 104.702 -30.4309 104.492 -30.4309 103.848ZM-21.194 103.12V101.972H-22.72V99.914L-24.078 100.152V101.972H-25.212V103.12H-24.092V107.026C-24.092 108.426 -23.406 109.14 -22.006 109.14C-21.74 109.14 -21.418 109.112 -21.152 109.056V107.796C-21.348 107.866 -21.558 107.894 -21.768 107.894C-22.594 107.894 -22.706 107.53 -22.706 106.746V103.12H-21.194ZM-18.5772 100.474C-18.0592 100.474 -17.6672 100.082 -17.6672 99.578C-17.6672 99.074 -18.0592 98.682 -18.5772 98.682C-19.0812 98.682 -19.4592 99.074 -19.4592 99.578C-19.4592 100.082 -19.0812 100.474 -18.5772 100.474ZM-17.8772 109V101.972H-19.2632V109H-17.8772ZM-7.72462 101.832C-8.70462 101.832 -9.58662 102.322 -10.0486 103.274C-10.3706 102.406 -11.1546 101.832 -12.1346 101.832C-12.9466 101.832 -13.7446 102.252 -14.1786 103.078V101.972H-15.5646V109H-14.1786V105.248C-14.1786 104.156 -13.6466 103.078 -12.5126 103.078C-11.5886 103.078 -11.1126 103.778 -11.1126 104.744V109H-9.72662V105.248C-9.72662 104.17 -9.23662 103.078 -8.08862 103.078C-7.17862 103.078 -6.70262 103.778 -6.70262 104.744V109H-5.31662V104.618C-5.31662 103.064 -6.17062 101.832 -7.72462 101.832ZM-0.355048 101.818C-1.82505 101.818 -3.08505 102.658 -3.33705 104.03L-2.00705 104.254C-1.89505 103.498 -1.20905 102.994 -0.425048 102.994C0.400952 102.994 1.15695 103.442 1.15695 104.394V104.618C-0.355048 104.618 -3.47705 104.702 -3.47705 106.984C-3.47705 108.258 -2.48305 109.14 -1.16705 109.14C-0.0610481 109.14 0.624952 108.72 1.15695 107.922V109H2.54295V104.478C2.54295 102.784 1.31095 101.818 -0.355048 101.818ZM1.15695 105.976C1.15695 107.04 0.330952 107.992 -0.789048 107.992C-1.50305 107.992 -2.10505 107.628 -2.10505 106.97C-2.10505 105.542 0.778952 105.654 1.15695 105.64V105.976ZM8.04845 103.12V101.972H6.52245V99.914L5.16445 100.152V101.972H4.03045V103.12H5.15045V107.026C5.15045 108.426 5.83645 109.14 7.23645 109.14C7.50245 109.14 7.82445 109.112 8.09045 109.056V107.796C7.89445 107.866 7.68445 107.894 7.47445 107.894C6.64845 107.894 6.53645 107.53 6.53645 106.746V103.12H8.04845ZM16.2552 105.598C16.2552 103.47 14.9812 101.818 12.8532 101.818C10.7392 101.818 9.36719 103.414 9.36719 105.5C9.36719 107.6 10.7812 109.14 12.8952 109.14C14.3512 109.14 15.4852 108.44 16.1012 107.054L14.7852 106.816C14.4072 107.586 13.7492 107.95 12.8952 107.95C11.6772 107.95 10.7812 107.138 10.7112 105.906H16.2412C16.2552 105.808 16.2552 105.696 16.2552 105.598ZM10.7672 104.828C10.9212 103.708 11.7192 102.966 12.8532 102.966C13.9172 102.966 14.7712 103.708 14.8692 104.828H10.7672ZM24.9389 98.92H23.5529V103.05C23.0349 102.294 22.1249 101.832 21.0889 101.832C19.1429 101.832 17.8129 103.414 17.8129 105.472C17.8129 107.516 19.1289 109.14 21.0749 109.14C22.0969 109.14 23.0489 108.692 23.5529 107.908V109H24.9389V98.92ZM23.5669 105.486C23.5669 106.844 22.7689 107.922 21.3689 107.922C20.0529 107.922 19.1989 106.956 19.1989 105.486C19.1989 104.016 20.0529 103.05 21.3689 103.05C22.7689 103.05 23.5669 104.128 23.5669 105.486ZM35.6102 99.2H34.0702L30.5142 109H32.0822L32.8242 106.83H36.8562L37.5982 109H39.1662L35.6102 99.2ZM33.2162 105.542L34.8402 100.782L36.4642 105.542H33.2162ZM44.5571 99.2H40.9591V109H42.4011V105.304H44.5571C46.5451 105.304 47.9031 104.128 47.9031 102.252C47.9031 100.39 46.5311 99.2 44.5571 99.2ZM44.4591 104.03H42.4011V100.488H44.4591C45.6631 100.488 46.4471 101.188 46.4471 102.252C46.4471 103.33 45.6631 104.03 44.4591 104.03ZM53.563 99.2H49.965V109H51.407V105.304H53.423L55.467 109H57.077L54.823 105.122C56.097 104.73 56.909 103.694 56.909 102.252C56.909 100.39 55.537 99.2 53.563 99.2ZM53.465 104.03H51.407V100.488H53.465C54.669 100.488 55.453 101.188 55.453 102.252C55.453 103.33 54.669 104.03 53.465 104.03Z"
      fill="#99A8A7" />
    <rect x="-13.5" y="2.5" width="47" height="47" rx="23.5" fill="#1BA58C" stroke="#FAF8F1" />
    <path fill-rule="evenodd" clip-rule="evenodd"
      d="M10 2C-3.25483 2 -14 12.7452 -14 26C-14 39.2548 -3.25483 50 10 50C23.2548 50 34 39.2548 34 26C34 12.7452 23.2548 2 10 2ZM17.6963 21.1719H19.0395V17.3057H10.2906V21.1175H11.652L8.94742 24.2758H7.84019V21.1175H9.38305V17.3057H7.3138V18.7396H6.18843V17.3057H4.13733V18.7396H3.01196V17.3057H0.924561V21.1719H2.75784V26.0001V30.7921H0.924561V34.6583H9.4012V30.8284H7.85834V27.6701H8.96557L11.6701 30.8284H10.3088V34.6583H19.0577V30.7921H17.6963L13.576 25.982L17.6963 21.1719Z"
      fill="#001413" />
    <rect x="-13.5" y="2.5" width="47" height="47" rx="23.5" fill="#1BA58C" stroke="#FAF8F1" />
    <path
      d="M10 50C23.2548 50 34 39.2548 34 26C34 12.7452 23.2548 2 10 2C-3.25483 2 -14 12.7452 -14 26C-14 39.2548 -3.25483 50 10 50Z"
      fill="#26A17B" />
    <path
      d="M12.5583 28.2148V28.2109C12.3923 28.2225 11.5358 28.2727 9.62964 28.2727C8.10553 28.2727 7.03672 28.2302 6.65858 28.2109V28.2148C0.797488 27.9563 -3.57422 26.9376 -3.57422 25.7145C-3.57422 24.4952 0.801346 23.4727 6.65858 23.2142V27.2C7.04057 27.227 8.14025 27.2926 9.65665 27.2926C11.4779 27.2926 12.3885 27.2154 12.5583 27.2V23.218C18.4078 23.4804 22.7679 24.499 22.7679 25.7183C22.7679 26.9376 18.4039 27.9563 12.5583 28.2187V28.2148ZM12.5583 22.8052V19.2399H20.719V13.8032H-1.49833V19.2399H6.66244V22.8052C0.0296416 23.11 -4.95557 24.4219 -4.95557 25.9961C-4.95557 27.5704 0.0335002 28.8823 6.66244 29.191V40.6199H12.5621V29.191C19.1833 28.8862 24.1608 27.5743 24.1608 26C24.1608 24.4296 19.1833 23.1138 12.5621 22.809"
      fill="white" />
    <path
      d="M-4.00393 61.4V69.338C-4.00393 70.904 -4.92193 72.272 -6.72193 72.272C-8.53993 72.272 -9.43993 70.922 -9.43993 69.338V61.4H-11.6539V69.356C-11.6539 72.218 -9.87193 74.18 -6.72193 74.18C-3.57193 74.18 -1.78993 72.218 -1.78993 69.356V61.4H-4.00393ZM2.52276 64.766C2.52276 63.776 3.44076 63.128 4.62876 63.128C5.72676 63.128 6.60876 63.686 6.95076 64.82L9.00276 64.46C8.48076 62.3 6.55476 61.22 4.61076 61.22C2.48676 61.22 0.362758 62.516 0.362758 64.91C0.362758 67.538 2.93676 68.024 4.95276 68.6C6.19476 68.942 7.20276 69.428 7.20276 70.544C7.20276 71.66 6.14076 72.254 4.88076 72.254C3.47676 72.254 2.45076 71.534 2.23476 70.4L0.146758 70.76C0.650758 72.956 2.43276 74.18 4.80876 74.18C7.29276 74.18 9.36276 72.83 9.36276 70.364C9.36276 67.646 6.82476 67.106 4.82676 66.584C3.54876 66.242 2.52276 65.81 2.52276 64.766ZM15.3171 61.4H11.3031V74H15.3171C19.2051 74 21.8151 71.552 21.8151 67.628C21.8151 63.776 19.2771 61.4 15.3171 61.4ZM15.2091 72.092H13.5171V63.308H15.2091C17.9091 63.308 19.6011 64.874 19.6011 67.628C19.6011 70.454 17.8191 72.092 15.2091 72.092ZM22.4496 61.4V63.308H26.2836V74H28.4796V63.308H32.3316V61.4H22.4496Z"
      fill="#F1F6F6" />
    <g filter="url(#filter1_ddd_1784_46270)">
      <rect x="110" y="26" width="168" height="258" rx="8" fill="url(#paint0_linear_1784_46270)" />
    </g>
    <line x1="134" y1="219.5" x2="254" y2="219.5" stroke="#001413" />
    <line x1="134" y1="161.5" x2="254" y2="161.5" stroke="#001413" />
    <path
      d="M142.721 202.76C143.189 204.668 144.665 205.874 146.645 206.126V207.35H148.139V206.144C150.227 205.892 151.955 204.56 151.955 202.346C151.955 199.916 149.939 199.286 148.139 198.764V195.272C148.805 195.506 149.327 196.028 149.561 196.82L151.613 196.46C151.163 194.642 149.705 193.58 148.139 193.292V192.086H146.645V193.256C144.755 193.472 142.991 194.768 142.991 196.928C142.991 199.178 144.881 199.826 146.645 200.33V204.164C145.709 203.93 144.989 203.282 144.809 202.382L142.721 202.76ZM145.151 196.784C145.151 195.956 145.781 195.362 146.645 195.182V198.314C145.799 198.008 145.151 197.594 145.151 196.784ZM149.795 202.526C149.795 203.462 149.039 204.038 148.139 204.2V200.798C149.075 201.158 149.795 201.608 149.795 202.526ZM153.865 195.308H155.953V206H158.095V193.4H153.865V195.308ZM162.152 193.4L161.666 200.222L163.646 200.708C164.078 200.042 164.87 199.628 165.734 199.628C167.102 199.628 168.074 200.672 168.074 201.968C168.074 203.282 167.084 204.29 165.734 204.29C164.618 204.29 163.718 203.606 163.448 202.652L161.288 203.03C161.846 204.938 163.556 206.18 165.68 206.18C168.2 206.18 170.216 204.452 170.216 201.932C170.216 199.538 168.398 197.774 166.058 197.774C165.158 197.774 164.258 198.026 163.664 198.494L163.898 195.29H169.334V193.4H162.152ZM173.648 206.09C174.386 206.09 175.016 205.46 175.016 204.704C175.016 203.93 174.386 203.318 173.648 203.318C172.874 203.318 172.244 203.93 172.244 204.704C172.244 205.46 172.874 206.09 173.648 206.09ZM176.996 202.436C177.104 204.794 179.012 206.18 181.46 206.18C183.962 206.18 186.014 204.722 186.014 202.418C186.014 201.014 185.204 199.808 183.854 199.286C184.808 198.818 185.528 197.828 185.528 196.604C185.528 194.552 183.692 193.22 181.496 193.22C179.318 193.22 177.608 194.57 177.5 196.604L179.534 196.964C179.588 195.794 180.38 195.074 181.478 195.074C182.522 195.074 183.422 195.74 183.422 196.748C183.422 197.792 182.54 198.44 181.496 198.44H180.326V200.222H181.478C182.702 200.222 183.854 201.014 183.854 202.274C183.854 203.534 182.738 204.326 181.478 204.326C180.164 204.326 179.012 203.516 179.012 202.076L176.996 202.436ZM187.968 196.964L189.984 197.324C190.128 195.848 191.118 195.11 192.324 195.11C193.566 195.11 194.52 195.902 194.52 197.18C194.52 198.17 193.962 198.908 193.008 199.718L187.896 204.092V206H196.68V204.11H190.776L194.34 201.05C195.546 200.024 196.644 198.782 196.644 197.036C196.644 194.732 194.682 193.22 192.324 193.22C189.858 193.22 188.13 194.84 187.968 196.964ZM199.593 193.4L199.107 200.222L201.087 200.708C201.519 200.042 202.311 199.628 203.175 199.628C204.543 199.628 205.515 200.672 205.515 201.968C205.515 203.282 204.525 204.29 203.175 204.29C202.059 204.29 201.159 203.606 200.889 202.652L198.729 203.03C199.287 204.938 200.997 206.18 203.121 206.18C205.641 206.18 207.657 204.452 207.657 201.932C207.657 199.538 205.839 197.774 203.499 197.774C202.599 197.774 201.699 198.026 201.105 198.494L201.339 195.29H206.775V193.4H199.593ZM211.09 206.09C211.828 206.09 212.458 205.46 212.458 204.704C212.458 203.93 211.828 203.318 211.09 203.318C210.316 203.318 209.686 203.93 209.686 204.704C209.686 205.46 210.316 206.09 211.09 206.09ZM214.739 196.964L216.755 197.324C216.899 195.848 217.889 195.11 219.095 195.11C220.337 195.11 221.291 195.902 221.291 197.18C221.291 198.17 220.733 198.908 219.779 199.718L214.667 204.092V206H223.451V204.11H217.547L221.111 201.05C222.317 200.024 223.415 198.782 223.415 197.036C223.415 194.732 221.453 193.22 219.095 193.22C216.629 193.22 214.901 194.84 214.739 196.964ZM225.213 202.436C225.321 204.794 227.229 206.18 229.677 206.18C232.179 206.18 234.231 204.722 234.231 202.418C234.231 201.014 233.421 199.808 232.071 199.286C233.025 198.818 233.745 197.828 233.745 196.604C233.745 194.552 231.909 193.22 229.713 193.22C227.535 193.22 225.825 194.57 225.717 196.604L227.751 196.964C227.805 195.794 228.597 195.074 229.695 195.074C230.739 195.074 231.639 195.74 231.639 196.748C231.639 197.792 230.757 198.44 229.713 198.44H228.543V200.222H229.695C230.919 200.222 232.071 201.014 232.071 202.274C232.071 203.534 230.955 204.326 229.695 204.326C228.381 204.326 227.229 203.516 227.229 202.076L225.213 202.436ZM241.837 193.4L235.951 201.446V203.354H241.837V206H243.997V203.354H245.545V201.446H243.997V193.4H241.837ZM241.837 196.424V201.446H238.381L241.837 196.424Z"
      fill="#F1F6F6" />
    <path
      d="M182.488 173.2V174.488H185.54V183H186.982V174.488H190.034V173.2H182.488ZM198.272 173.2L195.542 181.208L192.812 173.2H191.258L194.758 183H196.354L199.826 173.2H198.272ZM203.063 181.712V173.2H201.621V183H207.809V181.712H203.063Z"
      fill="#99A8A7" />
    <path
      d="M176.806 231.2H173.208V241H174.65V237.304H176.666L178.71 241H180.32L178.066 237.122C179.34 236.73 180.152 235.694 180.152 234.252C180.152 232.39 178.78 231.2 176.806 231.2ZM176.708 236.03H174.65V232.488H176.708C177.912 232.488 178.696 233.188 178.696 234.252C178.696 235.33 177.912 236.03 176.708 236.03ZM188.543 237.598C188.543 235.47 187.269 233.818 185.141 233.818C183.027 233.818 181.655 235.414 181.655 237.5C181.655 239.6 183.069 241.14 185.183 241.14C186.639 241.14 187.773 240.44 188.389 239.054L187.073 238.816C186.695 239.586 186.037 239.95 185.183 239.95C183.965 239.95 183.069 239.138 182.999 237.906H188.529C188.543 237.808 188.543 237.696 188.543 237.598ZM183.055 236.828C183.209 235.708 184.007 234.966 185.141 234.966C186.205 234.966 187.059 235.708 187.157 236.828H183.055ZM198.366 233.972L196.938 239.306L195.328 233.972H194.096L192.486 239.306L191.058 233.972H189.644L191.772 241H193.158L194.712 235.862L196.266 241H197.652L199.78 233.972H198.366ZM204.033 233.818C202.563 233.818 201.303 234.658 201.051 236.03L202.381 236.254C202.493 235.498 203.179 234.994 203.963 234.994C204.789 234.994 205.545 235.442 205.545 236.394V236.618C204.033 236.618 200.911 236.702 200.911 238.984C200.911 240.258 201.905 241.14 203.221 241.14C204.327 241.14 205.013 240.72 205.545 239.922V241H206.931V236.478C206.931 234.784 205.699 233.818 204.033 233.818ZM205.545 237.976C205.545 239.04 204.719 239.992 203.599 239.992C202.885 239.992 202.283 239.628 202.283 238.97C202.283 237.542 205.167 237.654 205.545 237.64V237.976ZM213.053 233.86C212.885 233.832 212.731 233.832 212.591 233.846C211.625 233.86 210.981 234.28 210.491 235.148V233.972H209.105V241H210.491V237.486C210.491 235.792 211.513 234.924 213.053 235.092V233.86ZM221.059 230.92H219.673V235.05C219.155 234.294 218.245 233.832 217.209 233.832C215.263 233.832 213.933 235.414 213.933 237.472C213.933 239.516 215.249 241.14 217.195 241.14C218.217 241.14 219.169 240.692 219.673 239.908V241H221.059V230.92ZM219.687 237.486C219.687 238.844 218.889 239.922 217.489 239.922C216.173 239.922 215.319 238.956 215.319 237.486C215.319 236.016 216.173 235.05 217.489 235.05C218.889 235.05 219.687 236.128 219.687 237.486Z"
      fill="#99A8A7" />
    <rect x="156.5" y="248" width="74" height="24" rx="4" fill="#002522" />
    <mask id="path-50-outside-2_1784_46270" maskUnits="userSpaceOnUse" x="162.167" y="252.333" width="12" height="15"
      fill="black">
      <rect fill="white" x="162.167" y="252.333" width="12" height="15" />
      <path fill-rule="evenodd" clip-rule="evenodd"
        d="M166.333 256.5C166.333 255.303 167.303 254.333 168.5 254.333C169.696 254.333 170.667 255.303 170.667 256.5V258H166.333V256.5ZM165.333 258V256.5C165.333 254.751 166.751 253.333 168.5 253.333C170.249 253.333 171.667 254.751 171.667 256.5V258H172.833C173.385 258 173.833 258.448 173.833 259V265.667C173.833 266.219 173.385 266.667 172.833 266.667H164.167C163.614 266.667 163.167 266.219 163.167 265.667V259C163.167 258.448 163.614 258 164.167 258H165.333ZM172.833 265.667V259H164.167V265.667H172.833ZM168 263.333V261.333H169V263.333H168Z" />
    </mask>
    <path fill-rule="evenodd" clip-rule="evenodd"
      d="M166.333 256.5C166.333 255.303 167.303 254.333 168.5 254.333C169.696 254.333 170.667 255.303 170.667 256.5V258H166.333V256.5ZM165.333 258V256.5C165.333 254.751 166.751 253.333 168.5 253.333C170.249 253.333 171.667 254.751 171.667 256.5V258H172.833C173.385 258 173.833 258.448 173.833 259V265.667C173.833 266.219 173.385 266.667 172.833 266.667H164.167C163.614 266.667 163.167 266.219 163.167 265.667V259C163.167 258.448 163.614 258 164.167 258H165.333ZM172.833 265.667V259H164.167V265.667H172.833ZM168 263.333V261.333H169V263.333H168Z"
      fill="#EEB218" />
    <path
      d="M170.667 258V258.25H170.917V258H170.667ZM166.333 258H166.083V258.25H166.333V258ZM165.333 258V258.25H165.583V258H165.333ZM171.667 258H171.417V258.25H171.667V258ZM172.833 259H173.083V258.75H172.833V259ZM172.833 265.667V265.917H173.083V265.667H172.833ZM164.167 259V258.75H163.917V259H164.167ZM164.167 265.667H163.917V265.917H164.167V265.667ZM168 261.333V261.083H167.75V261.333H168ZM168 263.333H167.75V263.583H168V263.333ZM169 261.333H169.25V261.083H169V261.333ZM169 263.333V263.583H169.25V263.333H169ZM168.5 254.083C167.165 254.083 166.083 255.165 166.083 256.5H166.583C166.583 255.441 167.441 254.583 168.5 254.583V254.083ZM170.917 256.5C170.917 255.165 169.835 254.083 168.5 254.083V254.583C169.558 254.583 170.417 255.441 170.417 256.5H170.917ZM170.917 258V256.5H170.417V258H170.917ZM166.333 258.25H170.667V257.75H166.333V258.25ZM166.083 256.5V258H166.583V256.5H166.083ZM165.583 258V256.5H165.083V258H165.583ZM165.583 256.5C165.583 254.889 166.889 253.583 168.5 253.583V253.083C166.613 253.083 165.083 254.613 165.083 256.5H165.583ZM168.5 253.583C170.111 253.583 171.417 254.889 171.417 256.5H171.917C171.917 254.613 170.387 253.083 168.5 253.083V253.583ZM171.417 256.5V258H171.917V256.5H171.417ZM171.667 258.25H172.833V257.75H171.667V258.25ZM172.833 258.25C173.247 258.25 173.583 258.586 173.583 259H174.083C174.083 258.31 173.524 257.75 172.833 257.75V258.25ZM173.583 259V265.667H174.083V259H173.583ZM173.583 265.667C173.583 266.081 173.247 266.417 172.833 266.417V266.917C173.524 266.917 174.083 266.357 174.083 265.667H173.583ZM172.833 266.417H164.167V266.917H172.833V266.417ZM164.167 266.417C163.752 266.417 163.417 266.081 163.417 265.667H162.917C162.917 266.357 163.476 266.917 164.167 266.917V266.417ZM163.417 265.667V259H162.917V265.667H163.417ZM163.417 259C163.417 258.586 163.752 258.25 164.167 258.25V257.75C163.476 257.75 162.917 258.31 162.917 259H163.417ZM164.167 258.25H165.333V257.75H164.167V258.25ZM172.583 259V265.667H173.083V259H172.583ZM164.167 259.25H172.833V258.75H164.167V259.25ZM164.417 265.667V259H163.917V265.667H164.417ZM172.833 265.417H164.167V265.917H172.833V265.417ZM167.75 261.333V263.333H168.25V261.333H167.75ZM169 261.083H168V261.583H169V261.083ZM169.25 263.333V261.333H168.75V263.333H169.25ZM168 263.583H169V263.083H168V263.583Z"
      fill="#EEB218" mask="url(#path-50-outside-2_1784_46270)" />
    <path
      d="M181.044 254.8V256.272H184.532V266H186.18V256.272H189.668V254.8H181.044ZM194.895 254.8H193.135L189.071 266H190.863L191.711 263.52H196.319L197.167 266H198.959L194.895 254.8ZM192.159 262.048L194.015 256.608L195.871 262.048H192.159ZM202.176 264.528V254.8H200.528V266H207.6V264.528H202.176ZM211.067 264.528V254.8H209.419V266H216.491V264.528H211.067ZM223.356 254.8L220.556 259.984L217.74 254.8H215.884L219.724 261.632V266H221.372V261.632L225.228 254.8H223.356Z"
      fill="white" />
    <path
      d="M157.455 144H167.571V142.956C165.123 142.812 164.403 142.344 164.403 140.868V122.076C164.403 121.536 163.899 121.14 163.071 121.5L157.635 123.984V124.992L159.183 124.884C160.299 124.812 160.623 124.92 160.623 126.36V140.868C160.623 142.344 159.903 142.812 157.455 142.956V144ZM170.084 144H186.644C186.464 143.748 186.212 143.46 186.536 141.732L187.112 138.24H186.068C185.384 140.256 184.16 140.796 181.064 140.796H172.244C175.736 135.072 186.824 134.28 186.824 127.296C186.824 123.444 183.728 121.068 178.868 121.068C173.432 121.068 170.588 124.02 170.588 127.296C170.588 129.276 171.632 130.608 173.18 130.608C174.116 130.608 175.232 130.14 175.232 128.808C175.232 127.872 174.728 127.548 174.728 126.252C174.728 124.056 176.24 122.256 178.652 122.256C181.388 122.256 182.612 124.488 182.612 126.504C182.612 132.84 170.084 135.576 170.084 144ZM198.011 121.068C192.935 121.068 189.623 124.38 189.623 128.772C189.623 133.2 193.007 135.9 196.787 135.9C199.955 135.9 202.151 133.992 202.691 133.128C202.691 137.592 201.251 142.992 196.103 142.992C195.203 142.992 194.411 142.848 193.115 142.164L192.503 143.064C193.655 144 195.239 144.36 196.895 144.36C203.699 144.36 206.687 138.348 206.723 131.976C206.759 126.036 204.239 121.068 198.011 121.068ZM197.759 122.256C201.143 122.256 202.691 125.856 202.691 128.736C202.691 131.868 200.819 134.208 198.083 134.208C195.203 134.208 193.583 131.652 193.583 128.16C193.583 125.46 194.627 122.256 197.759 122.256ZM226.812 121.644C222.24 124.344 220.8 121.392 215.58 121.392C212.448 121.392 209.784 124.092 209.784 127.332C209.784 129.528 211.044 131.472 213.78 131.472C216.912 131.472 219.576 128.808 219.576 125.568C219.576 124.74 219.396 123.948 219.036 123.3C221.304 124.02 223.608 124.776 225.912 122.868L210.288 144H213.636L228.396 121.644H226.812ZM214.428 130.356C213.096 130.356 212.628 128.88 212.628 126.972C212.628 124.632 213.312 122.544 214.896 122.544C216.264 122.544 216.732 123.984 216.732 125.928C216.732 128.268 216.048 130.356 214.428 130.356ZM226.164 134.316C223.032 134.316 220.368 137.016 220.368 140.22C220.368 142.452 221.628 144.396 224.328 144.396C227.46 144.396 230.124 141.732 230.124 138.456C230.124 136.26 228.864 134.316 226.164 134.316ZM225.012 143.244C223.68 143.244 223.212 141.804 223.212 139.86C223.212 137.52 223.896 135.432 225.48 135.432C226.812 135.432 227.28 136.908 227.28 138.816C227.28 141.156 226.596 143.244 225.012 143.244Z"
      fill="#22C480" />
    <path
      d="M150.378 100.488V99.2H144.05V109H150.378V107.712H145.492V104.702H149.818V103.456H145.492V100.488H150.378ZM153.569 103.848C153.569 103.246 154.227 102.952 154.815 102.952C155.487 102.952 156.033 103.33 156.173 103.96L157.503 103.736C157.251 102.504 156.047 101.804 154.815 101.804C153.485 101.804 152.239 102.644 152.239 103.974C152.239 105.304 153.513 105.766 154.983 106.088C155.655 106.242 156.355 106.424 156.355 107.068C156.355 107.754 155.557 107.992 154.955 107.992C154.171 107.992 153.611 107.6 153.457 106.844L152.113 107.068C152.309 108.468 153.597 109.14 154.983 109.14C156.397 109.14 157.713 108.426 157.713 107.012C157.713 105.556 156.313 105.122 155.053 104.856C154.325 104.702 153.569 104.492 153.569 103.848ZM162.806 103.12V101.972H161.28V99.914L159.922 100.152V101.972H158.788V103.12H159.908V107.026C159.908 108.426 160.594 109.14 161.994 109.14C162.26 109.14 162.582 109.112 162.848 109.056V107.796C162.652 107.866 162.442 107.894 162.232 107.894C161.406 107.894 161.294 107.53 161.294 106.746V103.12H162.806ZM165.423 100.474C165.941 100.474 166.333 100.082 166.333 99.578C166.333 99.074 165.941 98.682 165.423 98.682C164.919 98.682 164.541 99.074 164.541 99.578C164.541 100.082 164.919 100.474 165.423 100.474ZM166.123 109V101.972H164.737V109H166.123ZM176.275 101.832C175.295 101.832 174.413 102.322 173.951 103.274C173.629 102.406 172.845 101.832 171.865 101.832C171.053 101.832 170.255 102.252 169.821 103.078V101.972H168.435V109H169.821V105.248C169.821 104.156 170.353 103.078 171.487 103.078C172.411 103.078 172.887 103.778 172.887 104.744V109H174.273V105.248C174.273 104.17 174.763 103.078 175.911 103.078C176.821 103.078 177.297 103.778 177.297 104.744V109H178.683V104.618C178.683 103.064 177.829 101.832 176.275 101.832ZM183.645 101.818C182.175 101.818 180.915 102.658 180.663 104.03L181.993 104.254C182.105 103.498 182.791 102.994 183.575 102.994C184.401 102.994 185.157 103.442 185.157 104.394V104.618C183.645 104.618 180.523 104.702 180.523 106.984C180.523 108.258 181.517 109.14 182.833 109.14C183.939 109.14 184.625 108.72 185.157 107.922V109H186.543V104.478C186.543 102.784 185.311 101.818 183.645 101.818ZM185.157 105.976C185.157 107.04 184.331 107.992 183.211 107.992C182.497 107.992 181.895 107.628 181.895 106.97C181.895 105.542 184.779 105.654 185.157 105.64V105.976ZM192.048 103.12V101.972H190.522V99.914L189.164 100.152V101.972H188.03V103.12H189.15V107.026C189.15 108.426 189.836 109.14 191.236 109.14C191.502 109.14 191.824 109.112 192.09 109.056V107.796C191.894 107.866 191.684 107.894 191.474 107.894C190.648 107.894 190.536 107.53 190.536 106.746V103.12H192.048ZM200.255 105.598C200.255 103.47 198.981 101.818 196.853 101.818C194.739 101.818 193.367 103.414 193.367 105.5C193.367 107.6 194.781 109.14 196.895 109.14C198.351 109.14 199.485 108.44 200.101 107.054L198.785 106.816C198.407 107.586 197.749 107.95 196.895 107.95C195.677 107.95 194.781 107.138 194.711 105.906H200.241C200.255 105.808 200.255 105.696 200.255 105.598ZM194.767 104.828C194.921 103.708 195.719 102.966 196.853 102.966C197.917 102.966 198.771 103.708 198.869 104.828H194.767ZM208.939 98.92H207.553V103.05C207.035 102.294 206.125 101.832 205.089 101.832C203.143 101.832 201.813 103.414 201.813 105.472C201.813 107.516 203.129 109.14 205.075 109.14C206.097 109.14 207.049 108.692 207.553 107.908V109H208.939V98.92ZM207.567 105.486C207.567 106.844 206.769 107.922 205.369 107.922C204.053 107.922 203.199 106.956 203.199 105.486C203.199 104.016 204.053 103.05 205.369 103.05C206.769 103.05 207.567 104.128 207.567 105.486ZM219.61 99.2H218.07L214.514 109H216.082L216.824 106.83H220.856L221.598 109H223.166L219.61 99.2ZM217.216 105.542L218.84 100.782L220.464 105.542H217.216ZM228.557 99.2H224.959V109H226.401V105.304H228.557C230.545 105.304 231.903 104.128 231.903 102.252C231.903 100.39 230.531 99.2 228.557 99.2ZM228.459 104.03H226.401V100.488H228.459C229.663 100.488 230.447 101.188 230.447 102.252C230.447 103.33 229.663 104.03 228.459 104.03ZM237.563 99.2H233.965V109H235.407V105.304H237.423L239.467 109H241.077L238.823 105.122C240.097 104.73 240.909 103.694 240.909 102.252C240.909 100.39 239.537 99.2 237.563 99.2ZM237.465 104.03H235.407V100.488H237.465C238.669 100.488 239.453 101.188 239.453 102.252C239.453 103.33 238.669 104.03 237.465 104.03Z"
      fill="#99A8A7" />
    <rect x="170.5" y="2.5" width="47" height="47" rx="23.5" fill="#1BA58C" stroke="#FAF8F1" />
    <path fill-rule="evenodd" clip-rule="evenodd"
      d="M194 2C180.745 2 170 12.7452 170 26C170 39.2548 180.745 50 194 50C207.255 50 218 39.2548 218 26C218 12.7452 207.255 2 194 2ZM201.696 21.1719H203.04V17.3057H194.291V21.1175H195.652L192.947 24.2758H191.84V21.1175H193.383V17.3057H191.314V18.7396H190.188V17.3057H188.137V18.7396H187.012V17.3057H184.925V21.1719H186.758V26.0001V30.7921H184.925V34.6583H193.401V30.8284H191.858V27.6701H192.966L195.67 30.8284H194.309V34.6583H203.058V30.7921H201.696L197.576 25.982L201.696 21.1719Z"
      fill="#001413" />
    <rect x="165" y="37" width="18" height="18" rx="3" fill="#006AE3" stroke="#193330" stroke-width="2" />
    <rect x="166" y="38" width="16" height="16" rx="2" fill="#006AE3" />
    <path fill-rule="evenodd" clip-rule="evenodd"
      d="M174 38C178.418 38 182 41.5824 182 46C182 50.4176 178.418 54 174 54C169.582 54 166 50.4176 166 46C166 41.5824 169.582 38 174 38Z"
      fill="#006AE3" />
    <path d="M173.67 49.3728V42.7168H174.395V49.3728H173.67Z" fill="white" />
    <path
      d="M177.36 44.9345L175.122 45.5281L174.623 43.2049L175.288 43.0545L175.551 44.1553C175.551 44.1553 176.155 43.1633 175.349 42.1361C174.874 41.6081 174.648 41.5857 174.115 41.5025C173.647 41.4353 172.557 41.5937 172.232 42.8657C172.095 43.6849 172.25 44.2913 173.306 45.0849L173.247 45.9681C173.247 45.9681 172.067 45.1377 171.763 44.5553C171.528 44.0945 171.125 43.1841 171.853 41.9169C172.245 41.2833 173.018 40.6753 174.379 40.7393C175.064 40.7681 176.736 41.6049 176.477 43.5601C176.432 43.9265 176.242 44.4145 176.242 44.4145L177.16 44.2097L177.36 44.9345Z"
      fill="white" />
    <path
      d="M176.082 50.1424C175.672 50.7648 174.883 51.352 173.525 51.2528C172.84 51.2064 171.192 50.3248 171.503 48.3776C171.557 48.0128 171.76 47.5312 171.76 47.5312L170.837 47.7104L170.656 46.9824L172.911 46.448L173.349 48.784L172.679 48.9168L172.445 47.808C172.445 47.808 171.815 48.7824 172.592 49.832C173.053 50.3728 173.277 50.4 173.81 50.4976C174.275 50.5776 175.37 50.4464 175.728 49.184C175.887 48.3696 175.747 47.7584 174.714 46.936L174.797 46.0544C174.797 46.0544 175.954 46.9152 176.242 47.5056C176.463 47.9744 176.842 48.896 176.082 50.1424V50.1424Z"
      fill="white" />
    <path
      d="M177.966 67.07L183.042 61.4H180.252L175.536 66.8V61.4H173.322V74H175.536V69.77L176.562 68.636L180.648 74H183.402L177.966 67.07ZM193.24 63.308V61.4H184.888V74H193.24V72.092H187.102V68.582H192.52V66.728H187.102V63.308H193.24ZM203.822 63.308V61.4H195.47V74H203.822V72.092H197.684V68.582H203.102V66.728H197.684V63.308H203.822ZM210.84 61.4H206.052V74H208.266V69.41H210.84C213.45 69.41 215.214 67.844 215.214 65.414C215.214 62.966 213.432 61.4 210.84 61.4ZM210.606 67.502H208.266V63.308H210.606C212.064 63.308 212.982 64.118 212.982 65.396C212.982 66.692 212.064 67.502 210.606 67.502Z"
      fill="#F1F6F6" />
  </g>
  <defs>
    <filter id="filter0_ddd_1784_46270" x="-90" y="0" width="568" height="324" filterUnits="userSpaceOnUse"
      color-interpolation-filters="sRGB">
      <feFlood flood-opacity="0" result="BackgroundImageFix" />
      <feColorMatrix in="SourceAlpha" type="matrix" values="0 0 0 0 0 0 0 0 0 0 0 0 0 0 0 0 0 0 127 0"
        result="hardAlpha" />
      <feOffset dy="2" />
      <feGaussianBlur stdDeviation="2" />
      <feColorMatrix type="matrix" values="0 0 0 0 0 0 0 0 0 0.0784314 0 0 0 0 0.0745098 0 0 0 0.34 0" />
      <feBlend mode="normal" in2="BackgroundImageFix" result="effect1_dropShadow_1784_46270" />
      <feColorMatrix in="SourceAlpha" type="matrix" values="0 0 0 0 0 0 0 0 0 0 0 0 0 0 0 0 0 0 127 0"
        result="hardAlpha" />
      <feOffset dy="6" />
      <feGaussianBlur stdDeviation="4" />
      <feColorMatrix type="matrix" values="0 0 0 0 0 0 0 0 0 0.0784314 0 0 0 0 0.0745098 0 0 0 0.24 0" />
      <feBlend mode="normal" in2="effect1_dropShadow_1784_46270" result="effect2_dropShadow_1784_46270" />
      <feColorMatrix in="SourceAlpha" type="matrix" values="0 0 0 0 0 0 0 0 0 0 0 0 0 0 0 0 0 0 127 0"
        result="hardAlpha" />
      <feOffset dy="16" />
      <feGaussianBlur stdDeviation="8" />
      <feColorMatrix type="matrix" values="0 0 0 0 0 0 0 0 0 0.0784314 0 0 0 0 0.0745098 0 0 0 0.14 0" />
      <feBlend mode="normal" in2="effect2_dropShadow_1784_46270" result="effect3_dropShadow_1784_46270" />
      <feBlend mode="normal" in="SourceGraphic" in2="effect3_dropShadow_1784_46270" result="shape" />
    </filter>
    <filter id="filter1_ddd_1784_46270" x="86" y="24" width="216" height="308" filterUnits="userSpaceOnUse"
      color-interpolation-filters="sRGB">
      <feFlood flood-opacity="0" result="BackgroundImageFix" />
      <feColorMatrix in="SourceAlpha" type="matrix" values="0 0 0 0 0 0 0 0 0 0 0 0 0 0 0 0 0 0 127 0"
        result="hardAlpha" />
      <feOffset dy="10" />
      <feGaussianBlur stdDeviation="6" />
      <feColorMatrix type="matrix" values="0 0 0 0 0 0 0 0 0 0.0784314 0 0 0 0 0.0745098 0 0 0 0.54 0" />
      <feBlend mode="normal" in2="BackgroundImageFix" result="effect1_dropShadow_1784_46270" />
      <feColorMatrix in="SourceAlpha" type="matrix" values="0 0 0 0 0 0 0 0 0 0 0 0 0 0 0 0 0 0 127 0"
        result="hardAlpha" />
      <feOffset dy="14" />
      <feGaussianBlur stdDeviation="8" />
      <feColorMatrix type="matrix" values="0 0 0 0 0 0 0 0 0 0.0784314 0 0 0 0 0.0745098 0 0 0 0.14 0" />
      <feBlend mode="normal" in2="effect1_dropShadow_1784_46270" result="effect2_dropShadow_1784_46270" />
      <feColorMatrix in="SourceAlpha" type="matrix" values="0 0 0 0 0 0 0 0 0 0 0 0 0 0 0 0 0 0 127 0"
        result="hardAlpha" />
      <feOffset dy="24" />
      <feGaussianBlur stdDeviation="12" />
      <feColorMatrix type="matrix" values="0 0 0 0 0 0 0 0 0 0.0784314 0 0 0 0 0.0745098 0 0 0 0.04 0" />
      <feBlend mode="normal" in2="effect2_dropShadow_1784_46270" result="effect3_dropShadow_1784_46270" />
      <feBlend mode="normal" in="SourceGraphic" in2="effect3_dropShadow_1784_46270" result="shape" />
    </filter>
    <linearGradient id="paint0_linear_1784_46270" x1="194" y1="26" x2="194" y2="284" gradientUnits="userSpaceOnUse">
      <stop stop-color="#284340" />
      <stop offset="1" stop-color="#193330" />
    </linearGradient>
    <clipPath id="clip0_1784_46270">
      <rect width="48" height="48" fill="white" transform="translate(354 2)" />
    </clipPath>
  </defs>
</svg>