<svg width="578" height="636" viewBox="0 0 578 636" fill="none" xmlns="http://www.w3.org/2000/svg">
  <g filter="url(#filter0_ddd_1922_55323)">
    <path
      d="M200.745 291.625C191.791 258.209 187.314 241.501 193.062 227.624C194.542 224.052 196.483 220.689 198.837 217.621C207.981 205.705 224.689 201.228 258.105 192.274C291.522 183.32 308.23 178.843 322.106 184.591C325.679 186.071 329.042 188.013 332.11 190.367C344.026 199.51 348.503 216.218 357.457 249.635C366.411 283.051 370.888 299.759 365.14 313.636C363.66 317.208 361.718 320.571 359.364 323.639C350.221 335.555 333.513 340.032 300.096 348.986C266.68 357.94 249.972 362.417 236.095 356.669C232.523 355.189 229.16 353.247 226.092 350.893C214.176 341.75 209.699 325.042 200.745 291.625Z"
      fill="#FAF8F1" />
    <path fill-rule="evenodd" clip-rule="evenodd"
      d="M319.391 250.574L320.859 251.121C322.144 251.566 323.273 252.377 324.109 253.454C324.537 254.069 324.828 254.77 324.96 255.508C325.056 256.086 325.117 256.669 325.144 257.254C325.183 258.412 325.072 259.57 324.813 260.698C324.671 261.278 324.482 261.845 324.247 262.394L324.138 262.674L324.73 264.009C324.947 264.547 325.133 265.096 325.288 265.655C325.869 267.878 325.958 270.201 325.55 272.461C325.142 274.721 324.246 276.863 322.925 278.738L322.768 278.964L322.54 279.109C320.569 280.479 318.497 281.696 316.342 282.75C314.152 283.863 311.834 284.703 309.439 285.254L309.283 285.296L309.096 285.346C304.008 285.108 298.91 285.406 293.885 286.234C293.565 286.29 293.243 286.35 292.916 286.41C291.953 286.589 290.957 286.774 289.911 286.879C288.532 287.026 287.141 287.039 285.758 286.918C283.366 286.742 280.961 286.955 278.638 287.551L278.56 287.572C278.168 288.809 278.035 290.114 278.171 291.406C278.308 292.698 278.709 293.948 279.351 295.078C280.763 297.96 282.602 300.613 284.803 302.946C287.259 305.362 289.566 307.927 291.709 310.625C292.859 312.052 293.837 313.609 294.624 315.263C295.471 317.072 295.855 319.062 295.741 321.055L295.56 323.435L293.334 322.555C293.002 322.43 292.657 322.337 292.307 322.277C292.447 323.371 292.519 324.472 292.522 325.575C292.48 327.51 292.191 329.431 291.663 331.292C287.668 321.469 279.804 320.455 272.118 319.464C268.676 319.02 265.271 318.581 262.264 317.357C252.543 313.402 249.971 306.423 251.607 292.562C252.099 288.302 252.135 284.001 251.714 279.732C251.607 278.77 251.535 277.816 251.495 276.854C251.478 276.723 251.47 276.59 251.472 276.457L251.441 275.778C251.569 276.185 251.691 276.593 251.812 276.999C252.105 277.982 252.396 278.957 252.779 279.899C253.21 281.209 253.825 282.451 254.603 283.588C254.947 284.068 255.38 284.476 255.878 284.79C256.024 284.89 256.176 284.971 256.353 285.065C256.476 285.13 256.611 285.202 256.765 285.291C257.034 285.472 257.318 285.632 257.612 285.769C258.809 286.265 260.076 286.571 261.366 286.675C264.09 286.881 266.828 286.745 269.517 286.27C272.124 285.89 274.727 285.31 277.317 284.616L277.707 284.512C280.398 283.811 283.186 283.552 285.961 283.743C288.436 283.905 290.921 283.691 293.332 283.11C298.499 282.247 303.742 281.928 308.977 282.156C311.05 281.66 313.057 280.924 314.961 279.966C316.321 279.299 317.635 278.528 318.926 277.729C321.705 275.558 322.815 271.401 318.698 273.008C317.715 273.346 316.757 273.754 315.832 274.229C315.103 274.575 314.42 275.059 313.689 275.576C313.037 276.038 312.346 276.527 311.55 276.97C309.93 277.841 308.114 278.282 306.275 278.249C304.618 278.03 302.938 278.078 301.297 278.392C301.931 277.76 302.702 277.284 303.549 277C304.152 276.771 304.714 276.644 305.254 276.521C305.517 276.462 305.775 276.404 306.03 276.335C307.541 276.129 309.006 275.669 310.363 274.973C311.034 274.57 311.668 273.97 312.353 273.321C312.903 272.801 313.485 272.25 314.146 271.745C315.588 270.622 317.232 269.788 318.989 269.289L320.05 269.005C320.821 266.953 321.354 264.763 320.529 263.306C319.876 262.789 319.082 262.481 318.252 262.423C318.032 262.406 317.612 262.409 317.067 262.412C315.079 262.424 311.43 262.447 309.766 261.576C308.495 260.826 308.538 258.616 312.399 256.676C314.191 255.844 316.093 255.272 318.047 254.978C318.726 254.918 319.377 254.68 319.935 254.287L319.646 254.147L318.234 253.619L316.79 253.033L311.149 250.702C310.23 250.328 309.259 249.95 308.38 249.666L307.947 249.547L307.13 249.43C306.592 249.356 306.046 249.251 305.495 249.13C303.787 248.732 302.138 248.114 300.588 247.29C294.985 244.664 287.377 236.737 285.222 234.059C283.525 232.011 281.139 230.656 278.517 230.252C279.651 229.879 280.856 229.771 282.039 229.936C283.222 230.102 284.353 230.537 285.344 231.208C285.824 231.429 286.843 232.298 288.074 233.348C290.558 235.466 293.905 238.32 295.425 238.07C296.214 237.827 296.971 237.494 297.684 237.079C296.757 236.564 295.876 235.97 295.051 235.301C293.965 234.455 293.052 233.525 292.169 232.627C291.866 232.319 291.567 232.014 291.266 231.718C290.223 230.583 289.06 229.567 287.795 228.688C287.512 228.514 287.219 228.357 286.917 228.219C286.606 228.095 286.285 228.002 285.956 227.939C285.228 227.782 284.498 227.676 283.603 227.58C282.708 227.484 281.914 227.395 280.959 227.198L278.481 226.687L273.543 225.729C270.289 225.112 267.001 224.699 263.698 224.491C260.431 224.304 257.155 224.457 253.921 224.946C253.15 225.046 252.384 225.19 251.629 225.376C251.021 225.521 250.456 225.811 249.982 226.22C249.73 226.423 249.476 226.659 249.204 226.914C248.868 227.228 248.503 227.568 248.076 227.905L246.176 229.488C243.738 231.668 241.491 234.055 239.461 236.623C237.778 238.508 236.423 240.663 235.451 242.999C237.632 242.305 239.925 242.033 242.208 242.195C239.385 242.904 236.691 244.056 234.228 245.609C233.017 246.352 231.858 247.179 230.76 248.081C229.651 248.942 228.614 249.893 227.66 250.925C226.703 251.885 225.868 252.96 225.174 254.125C224.894 254.615 224.72 255.159 224.665 255.721C224.555 256.372 224.477 257.08 224.415 257.785C224.22 260.661 224.222 263.547 224.423 266.424C224.754 272.169 225.826 277.849 227.613 283.32C229.037 287.744 231.376 291.817 234.477 295.273C235.72 292.238 236.9 289.154 238.009 286.055C239.408 282.039 240.668 277.943 241.686 273.879C242.217 271.756 242.606 269.58 243 267.381C243.36 265.368 243.724 263.337 244.203 261.308C244.663 259.152 245.311 257.042 246.141 255C246.569 253.946 247.128 252.951 247.805 252.038C248.462 251.103 249.397 250.4 250.477 250.03C247.826 254.113 247.361 263.298 247.2 273.492C247.06 281.767 244.348 301.286 239.781 302.962C237.985 303.561 237.095 302.86 235.369 301.41L233.977 300.273C231.508 298.242 229.389 295.816 227.707 293.094C226.114 290.411 224.819 287.563 223.842 284.599C222.906 281.678 222.179 278.693 221.667 275.669C221.205 272.66 220.923 269.626 220.821 266.583C220.703 263.535 220.796 260.483 221.098 257.449C221.195 256.685 221.291 255.921 221.445 255.124C221.528 254.679 221.639 254.24 221.779 253.81C221.943 253.372 222.143 252.948 222.375 252.543C223.223 251.152 224.264 249.89 225.468 248.795C227.465 246.968 229.724 245.452 232.171 244.297C232.461 242.491 233.057 240.748 233.933 239.144C234.791 237.584 235.781 236.1 236.892 234.71C238.909 231.948 241.217 229.411 243.776 227.144C244.397 226.592 245.22 225.919 245.773 225.485C246.043 225.273 246.318 225.02 246.619 224.743C246.933 224.454 247.275 224.139 247.667 223.82C248.486 223.128 249.45 222.629 250.486 222.36C251.361 222.137 252.247 221.967 253.142 221.85C256.595 221.331 260.093 221.169 263.58 221.368C267.017 221.577 270.438 222.006 273.822 222.651L278.831 223.624L281.324 224.13C281.882 224.264 282.568 224.34 283.298 224.42C283.432 224.435 283.568 224.45 283.704 224.466C284.584 224.566 285.421 224.694 286.341 224.883C286.841 224.987 287.332 225.13 287.81 225.312C288.282 225.52 288.738 225.763 289.175 226.037C290.72 227.011 292.15 228.159 293.436 229.459C293.487 229.51 293.538 229.562 293.59 229.614C295.956 231.993 298.155 234.203 300.886 235.113L303.074 235.853L303.129 236.056L302.861 237.118L301.263 238.016C300.963 238.204 300.749 238.502 300.666 238.847C300.625 239.018 300.621 239.197 300.656 239.37C300.729 239.713 300.82 240.053 300.928 240.387C301.073 240.917 301.136 241.466 301.114 242.015C301.108 242.318 301.08 242.582 301.057 242.806C301.039 242.969 301.025 243.111 301.022 243.231C301.005 243.353 301.012 243.476 301.044 243.595C301.075 243.713 301.131 243.824 301.206 243.92C302.764 244.861 304.465 245.539 306.242 245.927C306.69 246.041 307.146 246.12 307.618 246.195L308.324 246.274C308.684 246.334 309.038 246.425 309.383 246.544C310.356 246.85 311.178 247.183 312.033 247.529C312.14 247.573 312.248 247.616 312.357 247.66L318.002 250.007L319.391 250.574ZM276.126 251.53C275.737 251.675 275.335 251.783 274.925 251.851C272.2 252.414 270.395 250.918 270.324 248.907C270.253 246.895 269.82 246.34 269.29 246.482C268.545 246.991 267.985 247.73 267.697 248.587L267.588 248.616C267.561 248.629 267.531 248.635 267.501 248.634C267.471 248.633 267.442 248.626 267.415 248.612C267.389 248.597 267.366 248.578 267.349 248.553C267.331 248.529 267.32 248.501 267.315 248.471C266.823 244.391 269.071 243.605 270.085 243.333C273.241 242.735 276.448 242.437 279.661 242.445C279.752 242.436 279.843 242.454 279.923 242.498C280.003 242.541 280.068 242.608 280.11 242.689C280.152 242.771 280.168 242.863 280.157 242.953C280.145 243.044 280.107 243.129 280.047 243.197C279.707 243.709 279.51 244.302 279.474 244.916C279.439 245.53 279.567 246.142 279.846 246.691C280.528 248.488 278.73 250.513 276.126 251.53Z"
      fill="#002825" />
    <path
      d="M317.71 208.638L321.545 207.61C318.864 193.32 334.34 189.363 330.945 176.69C328.736 168.448 320.42 164.882 309.807 167.726C298.302 170.808 292.787 179.125 295.067 187.633C296.492 192.951 300.355 195.24 303.655 194.356C306.331 193.639 308.306 191.02 307.641 188.538C306.928 185.88 304.2 184.616 303.321 181.337C302.205 177.171 304.27 173.104 309.354 171.742C314.972 170.236 319.828 173.019 321.23 178.248C323.818 187.908 311.462 192.454 317.71 208.638ZM324.095 224.975C327.217 224.138 329.025 220.899 328.194 217.797C327.387 214.784 324.201 212.883 321.079 213.719C318.047 214.532 316.149 217.795 316.957 220.808C317.788 223.91 321.063 225.787 324.095 224.975Z"
      fill="#002825" />
    <path fill-rule="evenodd" clip-rule="evenodd"
      d="M308.608 212.362L308.538 212.179C307.41 209.259 306.695 206.479 306.346 203.813C306.297 203.827 306.249 203.84 306.2 203.853C295.91 206.611 287.882 198.807 285.57 190.178C283.654 183.03 285.058 175.794 289.279 169.912C293.405 164.162 299.806 160.226 307.262 158.228C314.081 156.401 321.161 156.358 327.377 159.002C333.854 161.758 338.559 167.117 340.442 174.145C343.344 184.976 337.879 192.577 334.905 196.713C334.771 196.9 334.641 197.08 334.518 197.253C331.396 201.63 330.702 203.091 331.21 205.796L331.315 206.357C334.353 208.398 336.686 211.496 337.692 215.252C339.892 223.461 335.145 232.193 326.64 234.472C318.322 236.701 309.685 231.66 307.459 223.353C306.436 219.536 306.954 215.656 308.608 212.362ZM317.601 208.35C317.637 208.445 317.673 208.541 317.71 208.637L321.546 207.61C321.519 207.467 321.494 207.326 321.471 207.186C321.27 205.966 321.202 204.823 321.243 203.743C321.439 198.657 324.059 194.983 326.594 191.43C328.961 188.112 331.253 184.899 331.424 180.739C331.47 179.62 331.363 178.432 331.062 177.155C331.026 177.001 330.987 176.846 330.945 176.69C330.856 176.36 330.758 176.038 330.651 175.724C328.068 168.173 319.996 164.995 309.807 167.725C309.324 167.855 308.851 167.994 308.389 168.141C299.568 170.959 294.65 177.007 294.563 183.684C294.55 184.674 294.643 185.677 294.846 186.687C294.909 187.002 294.983 187.317 295.067 187.633C296.492 192.951 300.356 195.24 303.656 194.356C306.331 193.639 308.306 191.02 307.641 188.538C307.303 187.279 306.513 186.332 305.682 185.336C305.246 184.813 304.798 184.277 304.399 183.675C303.952 183.002 303.566 182.247 303.322 181.337C302.205 177.171 304.27 173.104 309.354 171.741C309.843 171.61 310.327 171.512 310.803 171.444C315.793 170.74 319.951 173.475 321.23 178.248C321.319 178.58 321.39 178.907 321.445 179.228C321.523 179.683 321.569 180.128 321.585 180.565C321.696 183.552 320.445 186.123 319.092 188.906C318.415 190.297 317.712 191.741 317.142 193.316C317.007 193.687 316.88 194.066 316.762 194.452C316.344 195.824 316.044 197.301 315.953 198.929C315.888 200.098 315.931 201.344 316.116 202.685C316.214 203.398 316.352 204.137 316.536 204.906C316.796 205.993 317.146 207.139 317.601 208.35ZM316.78 219.066C316.747 219.643 316.802 220.23 316.957 220.808C317.788 223.91 321.063 225.787 324.095 224.974C327.217 224.138 329.025 220.899 328.194 217.797C328.04 217.219 327.797 216.682 327.485 216.198C326.529 214.715 324.915 213.722 323.137 213.548C322.466 213.483 321.771 213.534 321.079 213.719C320.427 213.894 319.828 214.182 319.296 214.556C317.83 215.589 316.882 217.281 316.78 219.066Z"
      fill="#FDF6ED" />
  </g>
  <defs>
    <filter id="filter0_ddd_1922_55323" x="0.492676" y="0.927002" width="577.216" height="634.311"
      filterUnits="userSpaceOnUse" color-interpolation-filters="sRGB">
      <feFlood flood-opacity="0" result="BackgroundImageFix" />
      <feColorMatrix in="SourceAlpha" type="matrix" values="0 0 0 0 0 0 0 0 0 0 0 0 0 0 0 0 0 0 127 0"
        result="hardAlpha" />
      <feOffset dx="10" dy="48" />
      <feGaussianBlur stdDeviation="32" />
      <feColorMatrix type="matrix" values="0 0 0 0 0.713726 0 0 0 0 0.47451 0 0 0 0 0.168627 0 0 0 0.04 0" />
      <feBlend mode="normal" in2="BackgroundImageFix" result="effect1_dropShadow_1922_55323" />
      <feColorMatrix in="SourceAlpha" type="matrix" values="0 0 0 0 0 0 0 0 0 0 0 0 0 0 0 0 0 0 127 0"
        result="hardAlpha" />
      <feOffset dx="10" dy="44" />
      <feGaussianBlur stdDeviation="100" />
      <feColorMatrix type="matrix" values="0 0 0 0 0.713726 0 0 0 0 0.47451 0 0 0 0 0.168627 0 0 0 0.1 0" />
      <feBlend mode="normal" in2="effect1_dropShadow_1922_55323" result="effect2_dropShadow_1922_55323" />
      <feColorMatrix in="SourceAlpha" type="matrix" values="0 0 0 0 0 0 0 0 0 0 0 0 0 0 0 0 0 0 127 0"
        result="hardAlpha" />
      <feOffset dx="10" dy="108" />
      <feGaussianBlur stdDeviation="84" />
      <feColorMatrix type="matrix" values="0 0 0 0 0.713726 0 0 0 0 0.47451 0 0 0 0 0.168627 0 0 0 0.15 0" />
      <feBlend mode="normal" in2="effect2_dropShadow_1922_55323" result="effect3_dropShadow_1922_55323" />
      <feBlend mode="normal" in="SourceGraphic" in2="effect3_dropShadow_1922_55323" result="shape" />
    </filter>
  </defs>
</svg>