<svg width="24" height="24" viewBox="0 0 24 24" fill="none" xmlns="http://www.w3.org/2000/svg">
<g id="icon/m/eye-on">
<path id="view-on" fill-rule="evenodd" clip-rule="evenodd" d="M2.37988 11.409C4.70969 8.84456 8.41551 6.34053 11.9987 6.40098C15.5818 6.34053 19.2876 8.84456 21.6201 11.409C22.1266 11.9714 22.1266 12.8254 21.6201 13.3877C19.3392 15.898 15.6432 18.4598 11.9987 18.3985C8.35418 18.4598 4.65902 15.898 2.37988 13.3877C1.87337 12.8254 1.87337 11.9714 2.37988 11.409ZM11.9734 16.8987C8.97819 16.9491 5.6763 14.7792 3.50768 12.3984C5.72019 9.97107 9.03313 7.85116 11.9734 7.90076C11.9902 7.90105 12.0071 7.90105 12.024 7.90076C14.964 7.85117 18.2767 9.97067 20.4923 12.3984C18.3217 14.7794 15.0191 16.9491 12.0239 16.8987C12.0071 16.8984 11.9903 16.8984 11.9734 16.8987ZM12 10.8999H12.0004C12.3982 10.8998 12.7798 11.0578 13.061 11.3391C13.3423 11.6205 13.5002 12.0021 13.5 12.3999L14.9996 12.4007L13.5 12.4003C13.4998 13.2287 12.8281 13.9 11.9997 13.8999C11.1714 13.8998 10.4999 13.2281 10.5 12.3998C10.5001 11.5714 11.1716 10.8999 12 10.8999ZM14.1218 10.2786C14.6845 10.8415 15.0004 11.6048 15 12.4007C14.9996 14.0575 13.6562 15.4002 11.9995 15.3999C10.3427 15.3996 8.99985 14.0564 9 12.3996C9.00015 10.7429 10.3433 9.3999 12 9.3999C12.7959 9.39969 13.5592 9.7158 14.1218 10.2786Z" fill="#E4EEEE" fill-opacity="0.7"/>
</g>
</svg>
