<svg xmlns="http://www.w3.org/2000/svg" width="160" height="160" fill="none">
  <g filter="url(#a)">
    <path fill="#0D2321" d="M24 56c0 30.928 25.072 56 56 56s56-25.072 56-56S110.928 0 80 0 24 25.072 24 56Z"/>
  </g>
  <path fill="#ED9A26" d="m115.472 29.296-4.003-.235a1.2 1.2 0 0 1-.76-.34 1.216 1.216 0 0 1-.36-.755l-.351-4.118a.27.27 0 0 0-.263-.222.268.268 0 0 0-.263.222l-.359 4.118a1.2 1.2 0 0 1-.357.759c-.206.201-.477.32-.763.336l-4.003.252a.266.266 0 0 0-.22.265.266.266 0 0 0 .22.265l4.003.236c.285.02.553.142.758.342.205.2.333.466.362.753l.351 4.118a.267.267 0 0 0 .526 0l.351-4.119c.027-.286.155-.554.36-.754.205-.2.474-.321.76-.34l4.011-.252a.269.269 0 0 0 .158-.438.269.269 0 0 0-.158-.093Z"/>
  <path fill="#ED9A26" fill-rule="evenodd" d="m115.507 29.006.017.003a.564.564 0 0 1 .461.552.562.562 0 0 1-.461.553l-.017.003-4.027.254a.906.906 0 0 0-.574.257.924.924 0 0 0-.273.572l-.352 4.13-.002.013a.566.566 0 0 1-.552.463.56.56 0 0 1-.552-.463l-.002-.013-.352-4.13a.936.936 0 0 0-.275-.57.917.917 0 0 0-.572-.26l-4.019-.236-.017-.003a.562.562 0 0 1 0-1.105l.017-.003 4.021-.254h.001a.888.888 0 0 0 .574-.253.907.907 0 0 0 .269-.574v-.001l.361-4.132.002-.012a.56.56 0 0 1 1.104 0l.002.013.352 4.13a.91.91 0 0 0 .846.829h.001l4.019.237Zm-4.038.055a1.2 1.2 0 0 1-.76-.34 1.216 1.216 0 0 1-.36-.755l-.351-4.118a.27.27 0 0 0-.263-.222.268.268 0 0 0-.263.222l-.359 4.118a1.2 1.2 0 0 1-.357.759c-.206.201-.477.32-.763.336l-4.003.252a.266.266 0 0 0-.22.265.266.266 0 0 0 .22.265l4.003.236c.285.02.553.142.758.342.205.2.333.466.362.753l.351 4.118a.267.267 0 0 0 .526 0l.351-4.119c.027-.286.155-.554.36-.754.205-.2.474-.321.76-.34l4.011-.252a.269.269 0 0 0 .158-.438.269.269 0 0 0-.158-.093l-4.003-.235Z" clip-rule="evenodd"/>
  <path fill="#ED9A26" d="M101.622 51.192A11.97 11.97 0 0 1 105 51.09c.385.072.782.037 1.148-.101l-.139-.12a57.543 57.543 0 0 0-8.542-6.082c-4.026-2.344-6.738-8.231-7.534-10.013a6.128 6.128 0 0 0-3.146-3.082 4.462 4.462 0 0 1 3.637 1.523c.703.581 3.248 5.13 4.562 5.26.47-.017.936-.088 1.389-.212h.101l.62-.148h.065l.49-.12.926-.267-.083-.056c-1.407-.923-2.305-2.5-3.285-4.199a13.392 13.392 0 0 0-1.851-2.52 5.307 5.307 0 0 0-.648-.59 5.688 5.688 0 0 0-.75-.461c-.481-.24-.925-.434-1.397-.618-.472-.185-.926-.351-1.268-.536l-1.305-.646-2.628-1.273a49.962 49.962 0 0 0-5.48-2.215c-1.9-.623-3.86-1.05-5.848-1.274-.513-.062-1.03-.1-1.546-.11a4.127 4.127 0 0 0-1.777.387c-.518.231-.925.48-1.295.637-.37.157-.926.406-1.352.628a27.263 27.263 0 0 0-5.071 3.156 19.274 19.274 0 0 0-2.295 2.002 9.48 9.48 0 0 0-1.509 2.123 6.37 6.37 0 0 1 1.287-.102c1.472.086 2.924.382 4.312.877-1.295 0-8.014-.36-11.596 2.04a5.31 5.31 0 0 0-1.666 1.799c-.148.286-.342.701-.555 1.218-.027.076-.058.15-.092.222a36.612 36.612 0 0 0-1.509 4.974 39.294 39.294 0 0 0-1.046 8.96v1.394c0 .47.065.784.102 1.181v.25c.037.344.083.685.139 1.024l.055.323c.137.831.322 1.654.556 2.464a16.84 16.84 0 0 0 1.85 3.986c.37.452.741.637 1.065.212l.231-.322c.269-.379.667-.923 1.148-1.698l.592-.923v-.056l.565-.922.13-.204c.416-.673.925-1.411 1.35-2.205l.195-.323.574-.978.166-.277.731-1.264.176-.305c.195-.35.389-.701.592-1.052.065-.13.14-.258.213-.388l.75-1.384a95.341 95.341 0 0 0 2.388-4.762c.36-.756.73-1.504 1.129-2.242a21.45 21.45 0 0 1 2.008-3.193c.393-.517.85-.982 1.36-1.385a3.106 3.106 0 0 1 1.777-.7c-2.073 1.845-3.831 6.883-5.293 12.42-.926 3.572-.482 5.307-3.212 13.723-2.711 8.25-.222 11.259 3.091 13.649 6.877 4.706 14.215 4.752 15.011 11.074l.426 3.313 1.722-2.86a15.04 15.04 0 0 0 1.453-3.332v-.157l1.397 1.033a9.013 9.013 0 0 0-1.101-10.197c.11.24.222.48.324.729.424.954.735 1.954.925 2.98a6.81 6.81 0 0 1-.24 3.35l-.454 1.283-1.101-.812a3.202 3.202 0 0 0-.528-.304 14.57 14.57 0 0 1-.37 1.846 13.415 13.415 0 0 1-1.323 3.026C77.8 80.455 69.49 80.75 64.685 77.17c-4.803-3.581-5.182-7.845-2.22-15.218a34.064 34.064 0 0 0 1.961-7.032c.084-.544.185-1.08.306-1.615a1.676 1.676 0 0 1 0-.23l.083-.388c0 .83 0 1.652.13 2.464.044.784.2 1.557.462 2.297.117.319.297.61.528.859.111.12.24.221.416.397.126.139.258.271.398.396.59.447 1.245.799 1.944 1.043 1.477.515 3.013.843 4.572.978 1.499.176 3.026.213 4.562.25h.232c1.594.009 3.176.28 4.682.802 1.347.451 2.754.697 4.174.73 2.988.286 5.938.883 8.802 1.78a15.414 15.414 0 0 0 3.637-.323 25.987 25.987 0 0 0 2.498-.636c1.851-.785 3.128-2.916.602-2.63-.594.038-1.185.118-1.768.24-.842.166-1.684.609-2.776.922a6.292 6.292 0 0 1-3.11-.083 9.276 9.276 0 0 0-2.776-.645 3.477 3.477 0 0 1 1.453-.444h1.471c.867.11 1.746.072 2.6-.11.778-.222 1.583-.812 2.574-1.21a8.348 8.348 0 0 1 3.045-.645h-.074.703c.731-1.015 1.351-2.104 1.11-3.064a2.294 2.294 0 0 0-1.129-.812c-.555-.194-3.563-.803-4.572-1.726-.37-.609-.009-1.818 2.416-2.325ZM85.695 39.02a1.975 1.975 0 0 0-.63 1.891c.084 1.08-1.212 1.938-2.776 2.104-2.008.222-3.082-.922-2.776-2.288.527-2.252-.63-1.514-1.407-.61a.111.111 0 0 1-.194-.082c.333-2.317 1.693-2.409 2.304-2.409 1.837.13 3.656.44 5.432.923a.268.268 0 0 1 .047.47Z"/>
  <defs>
    <filter id="a" width="280" height="280" x="-60" y="-84" color-interpolation-filters="sRGB" filterUnits="userSpaceOnUse">
      <feFlood flood-opacity="0" result="BackgroundImageFix"/>
      <feGaussianBlur in="BackgroundImageFix" stdDeviation="42"/>
      <feComposite in2="SourceAlpha" operator="in" result="effect1_backgroundBlur_1499_7960"/>
      <feColorMatrix in="SourceAlpha" result="hardAlpha" values="0 0 0 0 0 0 0 0 0 0 0 0 0 0 0 0 0 0 127 0"/>
      <feOffset dy="24"/>
      <feGaussianBlur stdDeviation="12"/>
      <feComposite in2="hardAlpha" operator="out"/>
      <feColorMatrix values="0 0 0 0 0.027451 0 0 0 0 0.0666667 0 0 0 0 0.0666667 0 0 0 0.14 0"/>
      <feBlend in2="effect1_backgroundBlur_1499_7960" result="effect2_dropShadow_1499_7960"/>
      <feBlend in="SourceGraphic" in2="effect2_dropShadow_1499_7960" result="shape"/>
    </filter>
  </defs>
</svg>
