<svg width="74" height="74" viewBox="0 0 74 74" fill="none" xmlns="http://www.w3.org/2000/svg">
<path opacity="0.95" d="M0 37C0 57.4345 16.5655 74 37 74C57.4345 74 74 57.4345 74 37C74 16.5655 57.4345 0 37 0C16.5655 0 0 16.5655 0 37Z" fill="url(#paint0_radial_840_17654)"/>
<path d="M60.3607 21.1833L57.6912 21.0315C57.501 21.0195 57.3213 20.942 57.1845 20.8129C57.0477 20.6838 56.9625 20.5115 56.9444 20.3269L56.7104 17.6749C56.703 17.6348 56.6814 17.5986 56.6493 17.5724C56.6172 17.5463 56.5767 17.532 56.5348 17.532C56.4929 17.532 56.4524 17.5463 56.4203 17.5724C56.3882 17.5986 56.3666 17.6348 56.3592 17.6749L56.1196 20.3269C56.1037 20.5123 56.0193 20.6858 55.882 20.8154C55.7447 20.9449 55.5638 21.0217 55.3728 21.0315L52.7033 21.1941C52.6621 21.2013 52.6248 21.2223 52.5979 21.2535C52.5711 21.2848 52.5564 21.3242 52.5564 21.3649C52.5564 21.4056 52.5711 21.445 52.5979 21.4762C52.6248 21.5074 52.6621 21.5284 52.7033 21.5356L55.3728 21.6874C55.5627 21.7005 55.7417 21.7783 55.8783 21.9072C56.0149 22.0361 56.1004 22.2078 56.1196 22.392L56.3537 25.044C56.361 25.0841 56.3827 25.1204 56.4148 25.1465C56.4469 25.1726 56.4874 25.1869 56.5292 25.1869C56.5711 25.1869 56.6116 25.1726 56.6437 25.1465C56.6758 25.1204 56.6974 25.0841 56.7048 25.044L56.9389 22.392C56.957 22.2074 57.0421 22.0351 57.1789 21.906C57.3158 21.7769 57.4954 21.6994 57.6856 21.6874L60.3607 21.5248C60.4019 21.5176 60.4392 21.4966 60.4661 21.4653C60.4929 21.4341 60.5077 21.3947 60.5077 21.354C60.5077 21.3133 60.4929 21.2739 60.4661 21.2427C60.4392 21.2115 60.4019 21.1905 60.3607 21.1833Z" fill="#0D2321"/>
<path fill-rule="evenodd" clip-rule="evenodd" d="M60.3839 20.9961L60.3955 20.9981C60.4823 21.0132 60.5605 21.0574 60.6166 21.1226C60.6727 21.1877 60.7032 21.2697 60.7032 21.354C60.7032 21.4384 60.6727 21.5203 60.6166 21.5854C60.5605 21.6506 60.4823 21.6949 60.3955 21.71L60.3843 21.7119L57.6985 21.8752C57.6984 21.8752 57.6983 21.8752 57.6982 21.8752C57.555 21.8843 57.4193 21.9427 57.3158 22.0405C57.2123 22.1381 57.1476 22.2686 57.1336 22.4089L56.8988 25.0684L56.8973 25.0768C56.882 25.1599 56.8371 25.2355 56.7699 25.2902C56.7027 25.345 56.6175 25.3751 56.5292 25.3751C56.441 25.3751 56.3558 25.345 56.2885 25.2902C56.2213 25.2355 56.1764 25.1599 56.1611 25.0768L56.1596 25.0684L55.9249 22.4094C55.91 22.2694 55.8449 22.1392 55.7415 22.0417C55.638 21.9441 55.5029 21.8853 55.36 21.8752L52.6801 21.7228L52.6685 21.7208C52.5817 21.7057 52.5035 21.6615 52.4474 21.5963C52.3913 21.5312 52.3608 21.4492 52.3608 21.3649C52.3608 21.2805 52.3913 21.1986 52.4474 21.1334C52.5035 21.0682 52.5817 21.024 52.6685 21.0089L52.6797 21.007L55.3614 20.8436L55.3624 20.8436C55.5056 20.8362 55.6416 20.7786 55.7452 20.6809C55.8487 20.5832 55.9127 20.452 55.9247 20.3115L55.9248 20.3106L56.1652 17.6503L56.1667 17.6421C56.182 17.559 56.2269 17.4834 56.2941 17.4287C56.3613 17.374 56.4465 17.3438 56.5348 17.3438C56.6231 17.3438 56.7083 17.374 56.7755 17.4287C56.8427 17.4834 56.8876 17.559 56.9029 17.6421L56.9044 17.6505L57.1391 20.31C57.1531 20.4503 57.2179 20.5808 57.3213 20.6784C57.4248 20.7761 57.5603 20.8345 57.7035 20.8437C57.7036 20.8437 57.7038 20.8437 57.704 20.8437L60.3839 20.9961ZM57.6912 21.0315C57.501 21.0195 57.3213 20.942 57.1845 20.8129C57.0477 20.6838 56.9625 20.5115 56.9444 20.3269L56.7104 17.6749C56.703 17.6348 56.6814 17.5986 56.6493 17.5724C56.6172 17.5463 56.5767 17.532 56.5348 17.532C56.4929 17.532 56.4524 17.5463 56.4203 17.5724C56.3882 17.5986 56.3666 17.6348 56.3592 17.6749L56.1196 20.3269C56.1037 20.5123 56.0193 20.6858 55.882 20.8154C55.7447 20.9449 55.5638 21.0217 55.3728 21.0315L52.7033 21.1941C52.6621 21.2013 52.6248 21.2223 52.5979 21.2535C52.5711 21.2848 52.5564 21.3242 52.5564 21.3649C52.5564 21.4056 52.5711 21.445 52.5979 21.4762C52.6248 21.5074 52.6621 21.5284 52.7033 21.5356L55.3728 21.6874C55.5627 21.7005 55.7417 21.7783 55.8783 21.9072C56.0149 22.0361 56.1004 22.2078 56.1196 22.392L56.3537 25.044C56.361 25.0841 56.3827 25.1204 56.4148 25.1465C56.4469 25.1726 56.4874 25.1869 56.5292 25.1869C56.5711 25.1869 56.6116 25.1726 56.6437 25.1465C56.6758 25.1204 56.6974 25.0841 56.7048 25.044L56.9389 22.392C56.957 22.2074 57.0421 22.0351 57.1789 21.906C57.3158 21.7769 57.4954 21.6994 57.6856 21.6874L60.3607 21.5248C60.4019 21.5176 60.4392 21.4966 60.4661 21.4653C60.4929 21.4341 60.5077 21.3947 60.5077 21.354C60.5077 21.3133 60.4929 21.2739 60.4661 21.2427C60.4392 21.2115 60.4019 21.1905 60.3607 21.1833L57.6912 21.0315Z" fill="#0D2321"/>
<path fill-rule="evenodd" clip-rule="evenodd" d="M54.3087 33.8925L54.7963 34.2252C55.2267 34.5051 55.5634 34.8994 55.7653 35.3602C55.8626 35.6187 55.9005 35.8944 55.8764 36.1683C55.8544 36.382 55.8194 36.5943 55.7715 36.8041C55.6714 37.2179 55.5158 37.6174 55.3086 37.9925C55.199 38.1844 55.073 38.3673 54.932 38.5392L54.8642 38.6283L54.9506 39.1572C54.9775 39.3682 54.9919 39.5804 54.9938 39.793C54.9882 40.6355 54.7914 41.4666 54.4171 42.2282C54.0429 42.9898 53.5003 43.6634 52.8273 44.202L52.7471 44.2674L52.6483 44.2971C51.7854 44.595 50.9003 44.8294 50.0005 44.9983C49.0817 45.1845 48.1428 45.2623 47.2045 45.23H47.1428H47.0687C45.2139 44.663 43.3024 44.2846 41.3657 44.101C41.2422 44.0905 41.1171 44.0811 40.9905 44.0716C40.6174 44.0435 40.2313 44.0146 39.835 43.9524C39.3112 43.8735 38.7965 43.7462 38.2981 43.5722C37.4323 43.2827 36.5235 43.1302 35.607 43.1205H35.5762C35.309 43.5214 35.1309 43.9713 35.0534 44.4418C34.9758 44.9122 35.0004 45.3931 35.1256 45.8539C35.3619 47.0087 35.7781 48.1226 36.36 49.1577C37.0277 50.2465 37.6255 51.3737 38.15 52.5328C38.433 53.1471 38.6402 53.7913 38.7672 54.4521C38.9008 55.1728 38.8456 55.9141 38.6067 56.6091L38.3043 57.4351L37.5698 56.9121C37.4593 56.8362 37.3414 56.7705 37.218 56.7161C37.1617 57.1168 37.0792 57.5137 36.9711 57.9045C36.7642 58.5858 36.4676 59.2388 36.0885 59.8475C35.5854 55.9896 32.7827 54.8842 30.0435 53.8039C28.8169 53.3201 27.6031 52.8414 26.6142 52.1228C23.417 49.7995 23.1578 47.0839 25.1329 42.3303C25.7358 40.8682 26.1744 39.3483 26.4414 37.7964C26.4969 37.4459 26.5648 37.1012 26.6451 36.7566C26.6518 36.7084 26.6621 36.6607 26.6759 36.614L26.7315 36.3703C26.7387 36.5267 26.7433 36.6826 26.7478 36.838C26.7589 37.2139 26.7699 37.5869 26.8179 37.9569C26.8476 38.4616 26.9515 38.9598 27.1265 39.4364C27.206 39.6388 27.3255 39.8245 27.4783 39.9831C27.5221 40.0323 27.5701 40.0752 27.6263 40.1254C27.6653 40.1601 27.7081 40.1984 27.7561 40.2446C27.8376 40.3344 27.9263 40.4178 28.0215 40.4942C28.4142 40.7836 28.8515 41.0121 29.3176 41.1715C30.3028 41.5029 31.327 41.7144 32.3667 41.8014C33.3665 41.9143 34.3849 41.9559 35.4095 41.9559H35.5638C36.6266 41.9633 37.6812 42.1359 38.6869 42.4669C39.5847 42.7591 40.5232 42.9194 41.4706 42.9423C43.4633 43.127 45.4305 43.5114 47.3403 44.0891C48.1545 44.1099 48.9684 44.0401 49.766 43.8811C50.3338 43.7742 50.8955 43.6256 51.451 43.4652C52.6916 42.9601 53.5125 41.5934 51.8336 41.7717C51.4372 41.7981 51.0432 41.8517 50.6548 41.9321C50.3515 41.9855 50.0516 42.092 49.7306 42.2059C49.4441 42.3077 49.1408 42.4154 48.8031 42.4966C48.1189 42.6515 47.405 42.6351 46.7293 42.4491C46.1394 42.2142 45.5143 42.0718 44.8776 42.0272C45.174 41.8636 45.5056 41.7681 45.8466 41.7479C46.0917 41.7239 46.3117 41.7322 46.5234 41.7402C46.6262 41.7441 46.7271 41.7479 46.828 41.7479C47.4062 41.8183 47.9925 41.7942 48.5624 41.6766C48.8501 41.5975 49.1435 41.4452 49.4605 41.2806C49.7148 41.1485 49.9843 41.0086 50.2782 40.8923C50.9216 40.6315 51.611 40.4923 52.3089 40.4823H52.7286C53.2162 39.8286 53.6297 39.1037 53.4693 38.5095C53.2792 38.2643 53.0168 38.08 52.7162 37.9806C52.6366 37.9538 52.4813 37.9149 52.2799 37.8644C51.5447 37.6801 50.1953 37.3418 49.6672 36.8754C49.2722 36.4892 49.5067 35.7108 51.1238 35.3899C51.8678 35.2654 52.6263 35.2434 53.3767 35.3245C53.6333 35.3676 53.8972 35.3451 54.142 35.2592L54.0494 35.1819L53.5803 34.861L53.1051 34.5164L51.2535 33.1557C50.951 32.9358 50.6301 32.71 50.3338 32.5258L50.1857 32.4426L49.8956 32.3238C49.7042 32.2465 49.5129 32.1574 49.3216 32.0623C48.7305 31.7593 48.1828 31.3838 47.6921 30.9452C45.8837 29.4835 43.8592 25.9539 43.3284 24.8011C42.9047 23.9146 42.1581 23.2085 41.2299 22.8164C41.6855 22.792 42.141 22.8681 42.5614 23.0391C42.9818 23.21 43.3561 23.4713 43.6555 23.8028C43.8109 23.9268 44.1012 24.3313 44.4517 24.8198C45.1592 25.8058 46.1123 27.1342 46.6984 27.1898C47.0134 27.1784 47.3261 27.1326 47.6304 27.0531C47.3388 26.783 47.0724 26.4887 46.8342 26.1737C46.517 25.771 46.2717 25.3551 46.0346 24.953C45.9533 24.8152 45.873 24.679 45.7911 24.5456C45.5186 24.0447 45.1895 23.5744 44.8097 23.1432C44.7226 23.0546 44.6298 22.9713 44.532 22.8937C44.4295 22.8203 44.32 22.7567 44.2048 22.7035C43.9518 22.5787 43.6926 22.4718 43.3716 22.3529C43.0506 22.2341 42.7667 22.1271 42.4334 21.9667L41.5693 21.5508L39.8411 20.7426C38.7011 20.2155 37.5282 19.7571 36.3292 19.37C35.1419 18.9939 33.9174 18.7371 32.6753 18.6035C32.3805 18.5657 32.0838 18.5439 31.7865 18.5381C31.5475 18.5319 31.3105 18.5808 31.0952 18.6807C30.9819 18.7286 30.8649 18.7884 30.7392 18.8527C30.5841 18.9319 30.4158 19.0179 30.2249 19.0967L29.367 19.477C28.251 20.0177 27.1855 20.6499 26.1822 21.3666C25.3746 21.8746 24.6611 22.5093 24.0713 23.2442C24.9449 23.2056 25.8182 23.3265 26.6451 23.6008C25.5327 23.584 24.4245 23.7364 23.3615 24.0524C22.8409 24.2008 22.3316 24.3835 21.837 24.5991C21.3421 24.7985 20.8652 25.037 20.4112 25.3121C19.9629 25.561 19.5483 25.8624 19.1768 26.2094C19.0249 26.3563 18.9071 26.5324 18.8311 26.7263C18.7262 26.9462 18.6274 27.1898 18.5349 27.4334C18.1781 28.4334 17.8935 29.4559 17.6831 30.4936C17.2369 32.5598 17.071 34.673 17.1893 36.7803C17.2775 38.482 17.7381 40.1465 18.541 41.6647C19.3002 40.7081 20.0409 39.7276 20.7568 38.7353C21.6703 37.4458 22.5406 36.1148 23.3183 34.7719C23.7244 34.0706 24.0834 33.337 24.4462 32.5954C24.7782 31.9169 25.1134 31.2318 25.4909 30.559C25.8739 29.8391 26.3221 29.1531 26.8302 28.5089C27.0925 28.1763 27.3973 27.8768 27.7375 27.6176C28.0728 27.3489 28.4874 27.1888 28.9226 27.1601C27.54 28.3545 26.4599 31.5632 25.3921 35.1581C24.5219 38.0757 21.5901 44.7309 19.7384 44.8913C19.0163 44.9329 18.7571 44.6001 18.2633 43.9227L17.8621 43.388C17.1512 42.4344 16.609 41.3743 16.2573 40.2505C15.9349 39.1494 15.7383 38.0176 15.671 36.8754C15.6143 35.7519 15.6411 34.626 15.7512 33.5062C15.8785 32.3967 16.0743 31.2955 16.3376 30.2084C16.5956 29.1177 16.9317 28.0456 17.3436 26.9996C17.4547 26.7382 17.5658 26.4768 17.7016 26.2094C17.776 26.0596 17.8605 25.9147 17.9547 25.7756C18.0588 25.6361 18.1744 25.505 18.3003 25.3834C18.7507 24.9712 19.2599 24.623 19.8125 24.3495C20.7305 23.8919 21.7146 23.5694 22.7319 23.3928C23.0179 22.7806 23.4103 22.2199 23.8923 21.735C24.3631 21.2637 24.8753 20.8322 25.423 20.4455C26.4409 19.6585 27.5438 18.9791 28.7127 18.4193C28.9967 18.2826 29.367 18.1222 29.6139 18.0212C29.7347 17.9717 29.8614 17.9081 29.9997 17.8386C30.1442 17.766 30.3014 17.687 30.478 17.6112C30.8487 17.444 31.2536 17.3587 31.663 17.3616C32.0078 17.3657 32.352 17.3895 32.6938 17.4329C34.0198 17.5767 35.327 17.8515 36.5946 18.2529C37.8428 18.6531 39.0632 19.1294 40.2485 19.679L42.0014 20.499L42.8717 20.915C43.0646 21.0153 43.3103 21.1072 43.5717 21.205C43.6198 21.223 43.6684 21.2411 43.7173 21.2596C44.032 21.3784 44.3283 21.5032 44.6492 21.6577C44.8236 21.7419 44.9908 21.8393 45.1492 21.9489C45.3026 22.0675 45.447 22.1965 45.5812 22.3351C46.0555 22.8267 46.4697 23.369 46.8157 23.9514C46.8296 23.9745 46.8434 23.9977 46.8572 24.0208C47.4955 25.0879 48.0885 26.0793 49.0068 26.6609L49.7413 27.1304V27.2076L49.5376 27.5582L48.8587 27.7246C48.7295 27.7628 48.621 27.8481 48.5562 27.9623C48.524 28.0191 48.5051 28.0819 48.5007 28.1465C48.4937 28.2751 48.4937 28.4041 48.5007 28.5327C48.5016 28.7342 48.4704 28.9346 48.4081 29.1269C48.3759 29.2337 48.3395 29.3245 48.3087 29.4016C48.2863 29.4576 48.2668 29.5063 48.2538 29.5488C48.2354 29.5901 48.226 29.6346 48.226 29.6795C48.226 29.7245 48.2354 29.7689 48.2538 29.8103C48.7357 30.2914 49.2967 30.6929 49.9141 30.9987C50.0684 31.0819 50.2289 31.1532 50.3955 31.2245L50.6486 31.3196C50.7755 31.3749 50.8973 31.4405 51.0127 31.5156C51.3417 31.7162 51.6122 31.9121 51.8935 32.1158C51.9288 32.1414 51.9644 32.1672 52.0003 32.193L53.8519 33.5597L54.3087 33.8925ZM38.2426 30.1252C38.0846 30.1399 37.9254 30.1399 37.7674 30.1252C36.7058 30.0658 36.1873 29.3646 36.3601 28.6456C36.533 27.9266 36.428 27.6889 36.2182 27.6889C35.8928 27.7984 35.6133 28.007 35.422 28.2831H35.3788C35.3675 28.285 35.356 28.2844 35.345 28.2813C35.3341 28.2781 35.324 28.2726 35.3157 28.2652C35.3073 28.2577 35.3008 28.2484 35.2968 28.2382C35.2928 28.2279 35.2912 28.2168 35.2924 28.2059C35.5146 26.7144 36.4219 26.6491 36.8231 26.6491C38.0475 26.7367 39.2606 26.9357 40.4461 27.2433C40.4805 27.2486 40.5123 27.2638 40.5376 27.2868C40.5628 27.3099 40.5803 27.3397 40.5876 27.3725C40.5949 27.4052 40.5918 27.4393 40.5787 27.4703C40.5656 27.5014 40.543 27.5278 40.514 27.5463C40.3381 27.6953 40.2066 27.8866 40.1328 28.1007C40.0591 28.3147 40.0458 28.5438 40.0943 28.7644C40.1684 29.4656 39.3043 30.0123 38.2426 30.1252Z" fill="#0D2321"/>
<defs>
<radialGradient id="paint0_radial_840_17654" cx="0" cy="0" r="1" gradientUnits="userSpaceOnUse" gradientTransform="translate(50.2969 15.0312) rotate(108.595) scale(65.2667)">
<stop stop-color="#FFBC5F"/>
<stop offset="1" stop-color="#FCA123"/>
</radialGradient>
</defs>
</svg>
