<svg width="19" height="17" viewBox="0 0 19 17" fill="none" xmlns="http://www.w3.org/2000/svg">
  <path
    d="M9.66025 1L10.0051 0.637976C9.81201 0.454008 9.5085 0.454008 9.31538 0.637976L9.66025 1ZM18.3205 9.25V9.75C18.525 9.75 18.7088 9.62554 18.7847 9.43573C18.8607 9.24591 18.8134 9.02899 18.6654 8.88798L18.3205 9.25ZM1 9.25L0.655126 8.88798C0.507101 9.02899 0.459834 9.24591 0.535774 9.43573C0.611713 9.62554 0.79556 9.75 1 9.75L1 9.25ZM4.66025 9.25H5.16025C5.16025 8.97386 4.9364 8.75 4.66025 8.75V9.25ZM4.66025 16H4.16025C4.16025 16.2761 4.38411 16.5 4.66025 16.5V16ZM14.6603 16V16.5C14.9364 16.5 15.1603 16.2761 15.1603 16H14.6603ZM14.6603 9.25V8.75C14.3841 8.75 14.1603 8.97386 14.1603 9.25H14.6603ZM9.31538 1.36202L17.9756 9.61202L18.6654 8.88798L10.0051 0.637976L9.31538 1.36202ZM1.34487 9.61202L10.0051 1.36202L9.31538 0.637976L0.655126 8.88798L1.34487 9.61202ZM4.66025 8.75H1V9.75H4.66025V8.75ZM5.16025 16V9.25H4.16025V16H5.16025ZM14.6603 15.5H4.66025V16.5H14.6603V15.5ZM14.1603 9.25V16H15.1603V9.25H14.1603ZM18.3205 8.75H14.6603V9.75H18.3205V8.75Z"
    fill="#FFFBFC" />
</svg>