<svg width="242" height="132" viewBox="0 0 242 132" fill="none" xmlns="http://www.w3.org/2000/svg">
  <g filter="url(#filter0_ddd_1276_40232)">
    <rect x="24" y="2" width="194" height="82" rx="12" fill="#193330" />
  </g>
  <path d="M95 40C95 33.3726 100.373 28 107 28H218V58H107C100.373 58 95 52.6274 95 46V40Z" fill="#002522" />
  <path
    d="M128.524 42.792C129.364 42.372 129.77 41.672 129.77 40.776C129.77 39.236 128.608 38.2 126.662 38.2H123.05V48H126.928C128.818 48 130.176 46.894 130.176 45.256C130.176 44.136 129.546 43.142 128.524 42.792ZM124.492 39.488H126.634C127.656 39.488 128.314 39.964 128.314 40.846C128.314 41.7 127.698 42.274 126.788 42.274H124.492V39.488ZM126.872 46.712H124.492V43.52H126.984C127.992 43.52 128.72 44.22 128.72 45.172C128.72 46.138 127.964 46.712 126.872 46.712ZM135.329 40.832C133.173 40.832 131.703 42.358 131.703 44.486C131.703 46.614 133.173 48.14 135.329 48.14C137.457 48.14 138.927 46.614 138.927 44.486C138.927 42.358 137.443 40.832 135.329 40.832ZM135.315 46.922C133.915 46.922 133.117 45.872 133.117 44.486C133.117 43.1 133.915 42.05 135.315 42.05C136.715 42.05 137.513 43.1 137.513 44.486C137.513 45.872 136.715 46.922 135.315 46.922ZM144.439 40.832C143.515 40.832 142.675 41.308 142.185 42.092V40.972H140.799V48H142.185V44.374C142.185 43.212 142.787 42.05 144.089 42.05C145.125 42.05 145.629 42.82 145.629 43.772V48H147.015V43.45C147.015 42.008 145.895 40.832 144.439 40.832ZM151.709 48.14C152.633 48.14 153.473 47.664 153.963 46.88V48H155.349V40.972H153.963V44.598C153.963 45.76 153.361 46.922 152.059 46.922C151.051 46.922 150.533 46.152 150.533 45.2V40.972H149.161V45.522C149.161 46.978 150.253 48.14 151.709 48.14ZM158.616 42.848C158.616 42.246 159.274 41.952 159.862 41.952C160.534 41.952 161.08 42.33 161.22 42.96L162.55 42.736C162.298 41.504 161.094 40.804 159.862 40.804C158.532 40.804 157.286 41.644 157.286 42.974C157.286 44.304 158.56 44.766 160.03 45.088C160.702 45.242 161.402 45.424 161.402 46.068C161.402 46.754 160.604 46.992 160.002 46.992C159.218 46.992 158.658 46.6 158.504 45.844L157.16 46.068C157.356 47.468 158.644 48.14 160.03 48.14C161.444 48.14 162.76 47.426 162.76 46.012C162.76 44.556 161.36 44.122 160.1 43.856C159.372 43.702 158.616 43.492 158.616 42.848ZM171.2 40.818C169.73 40.818 168.47 41.658 168.218 43.03L169.548 43.254C169.66 42.498 170.346 41.994 171.13 41.994C171.956 41.994 172.712 42.442 172.712 43.394V43.618C171.2 43.618 168.078 43.702 168.078 45.984C168.078 47.258 169.072 48.14 170.388 48.14C171.494 48.14 172.18 47.72 172.712 46.922V48H174.098V43.478C174.098 41.784 172.866 40.818 171.2 40.818ZM172.712 44.976C172.712 46.04 171.886 46.992 170.766 46.992C170.052 46.992 169.45 46.628 169.45 45.97C169.45 44.542 172.334 44.654 172.712 44.64V44.976ZM183.089 37.92H181.703V42.05C181.185 41.294 180.275 40.832 179.239 40.832C177.293 40.832 175.963 42.414 175.963 44.472C175.963 46.516 177.279 48.14 179.225 48.14C180.247 48.14 181.199 47.692 181.703 46.908V48H183.089V37.92ZM181.717 44.486C181.717 45.844 180.919 46.922 179.519 46.922C178.203 46.922 177.349 45.956 177.349 44.486C177.349 43.016 178.203 42.05 179.519 42.05C180.919 42.05 181.717 43.128 181.717 44.486ZM192.15 37.92H190.764V42.05C190.246 41.294 189.336 40.832 188.3 40.832C186.354 40.832 185.024 42.414 185.024 44.472C185.024 46.516 186.34 48.14 188.286 48.14C189.308 48.14 190.26 47.692 190.764 46.908V48H192.15V37.92ZM190.778 44.486C190.778 45.844 189.98 46.922 188.58 46.922C187.264 46.922 186.41 45.956 186.41 44.486C186.41 43.016 187.264 42.05 188.58 42.05C189.98 42.05 190.778 43.128 190.778 44.486ZM200.958 44.598C200.958 42.47 199.684 40.818 197.556 40.818C195.442 40.818 194.07 42.414 194.07 44.5C194.07 46.6 195.484 48.14 197.598 48.14C199.054 48.14 200.188 47.44 200.804 46.054L199.488 45.816C199.11 46.586 198.452 46.95 197.598 46.95C196.38 46.95 195.484 46.138 195.414 44.906H200.944C200.958 44.808 200.958 44.696 200.958 44.598ZM195.47 43.828C195.624 42.708 196.422 41.966 197.556 41.966C198.62 41.966 199.474 42.708 199.572 43.828H195.47ZM209.642 37.92H208.256V42.05C207.738 41.294 206.828 40.832 205.792 40.832C203.846 40.832 202.516 42.414 202.516 44.472C202.516 46.516 203.832 48.14 205.778 48.14C206.8 48.14 207.752 47.692 208.256 46.908V48H209.642V37.92ZM208.27 44.486C208.27 45.844 207.472 46.922 206.072 46.922C204.756 46.922 203.902 45.956 203.902 44.486C203.902 43.016 204.756 42.05 206.072 42.05C207.472 42.05 208.27 43.128 208.27 44.486Z"
    fill="#22C480" />
  <path fill-rule="evenodd" clip-rule="evenodd"
    d="M114.156 43.3394C113.981 46.0346 111.739 48.1666 109 48.1666C106.147 48.1666 103.833 45.8535 103.833 43C103.833 40.1465 106.147 37.8333 109 37.8333C110.386 37.8333 111.644 38.3787 112.572 39.2666L113.632 38.2057C112.433 37.0465 110.8 36.3333 109 36.3333C105.318 36.3333 102.333 39.3181 102.333 43C102.333 46.6819 105.318 49.6666 109 49.6666C112.682 49.6666 115.667 46.6819 115.667 43C115.667 42.6309 115.637 42.2688 115.579 41.9161L114.156 43.3394Z"
    fill="#22C480" />
  <path d="M106.333 42.3333L107.919 43.9191C108.7 44.7002 109.967 44.7002 110.748 43.9191L115.667 39" stroke="#22C480"
    stroke-width="1.5" />
  <path
    d="M34.9959 10.5317L35.7135 3.10317C35.7335 2.96561 35.9129 2.96561 35.9328 3.10317L36.6504 10.5317C36.7102 11.1802 37.2485 11.6911 37.9063 11.7305L47.2355 12.2807C47.375 12.2807 47.375 12.4969 47.2355 12.4969L37.8864 13.0668C37.2285 13.1061 36.6903 13.6171 36.6305 14.2656L35.9129 21.6941C35.8929 21.8316 35.7135 21.8316 35.6936 21.6941L34.976 14.2656C34.9162 13.6171 34.3779 13.1061 33.7201 13.0668L24.3909 12.5165C24.2514 12.5165 24.2514 12.3004 24.3909 12.3004L33.74 11.7305C34.3979 11.6911 34.9162 11.1802 34.9959 10.5317Z"
    fill="#F6E8D7" />
  <path
    d="M82.11 64.6061L82.4524 61.0494C82.462 60.9835 82.5476 60.9835 82.5571 61.0494L82.8995 64.6061C82.928 64.9166 83.1848 65.1613 83.4987 65.1801L87.9501 65.4435C88.0166 65.4435 88.0166 65.547 87.9501 65.547L83.4892 65.8199C83.1753 65.8387 82.9185 66.0834 82.89 66.3939L82.5476 69.9506C82.538 70.0165 82.4524 70.0165 82.4429 69.9506L82.1005 66.3939C82.072 66.0834 81.8152 65.8387 81.5013 65.8199L77.0499 65.5565C76.9834 65.5565 76.9834 65.453 77.0499 65.453L81.5108 65.1801C81.8247 65.1613 82.072 64.9166 82.11 64.6061Z"
    fill="#F6E8D7" />
  <path
    d="M88.1253 16.3147L88.5065 12.6005C88.5171 12.5317 88.6124 12.5317 88.623 12.6005L89.0043 16.3147C89.036 16.639 89.322 16.8945 89.6714 16.9141L94.6276 17.1892C94.7017 17.1892 94.7017 17.2973 94.6276 17.2973L89.6608 17.5823C89.3114 17.6019 89.0254 17.8574 88.9937 18.1817L88.6124 21.8959C88.6018 21.9647 88.5065 21.9647 88.4959 21.8959L88.1147 18.1817C88.0829 17.8574 87.797 17.6019 87.4475 17.5823L82.4914 17.3072C82.4173 17.3072 82.4173 17.1991 82.4914 17.1991L87.4581 16.9141C87.8076 16.8945 88.0829 16.639 88.1253 16.3147Z"
    fill="#22C480" />
  <path
    d="M23.3508 53.9308L23.6423 50.788C23.6504 50.7298 23.7233 50.7298 23.7314 50.788L24.023 53.9308C24.0472 54.2052 24.2659 54.4213 24.5331 54.438L28.3231 54.6708C28.3798 54.6708 28.3798 54.7622 28.3231 54.7622L24.525 55.0034C24.2578 55.02 24.0391 55.2362 24.0149 55.5105L23.7233 58.6534C23.7152 58.7116 23.6423 58.7116 23.6342 58.6534L23.3427 55.5105C23.3184 55.2362 23.0997 55.02 22.8325 55.0034L19.0425 54.7706C18.9858 54.7706 18.9858 54.6791 19.0425 54.6791L22.8406 54.438C23.1078 54.4213 23.3184 54.2052 23.3508 53.9308Z"
    fill="#22C480" />
  <path
    d="M34.1685 43.2054C34.2943 42.7753 34.43 42.3452 34.5773 41.9202C34.7229 41.4967 34.8784 41.0716 35.0439 40.6532C35.2077 40.2364 35.3831 39.8213 35.5667 39.4078C35.7521 38.996 35.944 38.5859 36.1475 38.1807C36.3494 37.7755 36.5579 37.3737 36.7796 36.9752C36.998 36.5767 37.2264 36.1831 37.4614 35.7946C37.698 35.4027 37.9412 35.0174 38.1927 34.6372C38.4459 34.2536 38.7057 33.8783 38.9737 33.5047C39.2418 33.1328 39.5148 32.7641 39.7961 32.4038C40.0774 32.0385 40.367 31.6832 40.6615 31.3295C40.9593 30.9758 41.2605 30.6287 41.5683 30.2883C41.8777 29.9479 42.1954 29.6092 42.5164 29.2787C42.8374 28.95 43.165 28.6245 43.4976 28.304C43.8319 27.9869 44.1694 27.6747 44.5169 27.3692C44.8594 27.062 45.2119 26.7631 45.566 26.4675C45.9201 26.1753 46.2824 25.888 46.6481 25.609C47.0121 25.3284 47.3828 25.0544 47.7551 24.7887C48.1307 24.5264 48.5096 24.264 48.8935 24.015C49.2757 23.7642 49.6629 23.5185 50.0534 23.281C50.4439 23.0469 50.8394 22.8177 51.2365 22.5969C51.6353 22.376 52.0357 22.1635 52.4378 21.9576C52.8432 21.7534 53.247 21.5591 53.6606 21.3681C54.0726 21.1805 54.4863 20.9995 54.9016 20.8285C55.317 20.6574 55.7356 20.4947 56.1542 20.3403C56.5762 20.1858 56.9981 20.0397 57.4201 19.9036C57.842 19.7674 58.2689 19.6412 58.6958 19.525C59.1211 19.4054 59.5513 19.2958 59.9815 19.1978C60.4101 19.0982 60.8403 19.0085 61.2705 18.9288C61.704 18.8491 62.1342 18.7811 62.5661 18.7196C62.9996 18.6598 63.4315 18.61 63.8634 18.5718C64.2952 18.532 64.7304 18.5037 65.1623 18.4855C65.5942 18.4672 66.026 18.4606 66.4579 18.4639C66.8881 18.4672 67.315 18.4788 67.7353 18.5021C68.1539 18.527 68.5676 18.5602 68.9763 18.605C69.3834 18.6499 69.7838 18.7047 70.1776 18.7711C70.5747 18.8342 70.9636 18.9106 71.3442 18.9953C71.7264 19.0816 72.1036 19.1713 72.471 19.2792C72.8416 19.3822 73.2024 19.4967 73.5581 19.6196C73.9155 19.7425 74.2647 19.872 74.6055 20.0115C74.948 20.1526 75.2823 20.3037 75.6083 20.4615C75.9359 20.6209 76.2569 20.7869 76.5696 20.9613C76.8807 21.1373 77.1868 21.32 77.4847 21.5126C77.7825 21.7052 78.0737 21.9028 78.355 22.112C78.638 22.3179 78.9126 22.5354 79.1774 22.758C79.4454 22.9805 79.7036 23.2113 79.9534 23.4487C80.2033 23.6878 80.4449 23.9319 80.6798 24.1843C80.9131 24.4367 81.1382 24.6958 81.3566 24.9598C81.5734 25.2255 81.7818 25.4978 81.9788 25.7784C82.1806 26.0557 82.3709 26.3413 82.5529 26.6319C82.7333 26.9258 82.907 27.223 83.0725 27.5286C83.2347 27.8308 83.3902 28.1413 83.5358 28.4535C83.6814 28.7706 83.8188 29.0911 83.9445 29.4182C84.0703 29.7453 84.1877 30.0774 84.2986 30.4145C84.4045 30.7516 84.5038 31.0904 84.5898 31.4424C84.6792 31.7894 84.7603 32.1415 84.8248 32.4985C84.8943 32.8555 84.9539 33.2175 85.0002 33.5844C85.0498 33.9514 85.0895 34.3217 85.1144 34.697C85.1441 35.0706 85.159 35.4525 85.1673 35.8361C85.1739 36.218 85.1706 36.6065 85.1557 36.9984C85.1425 37.3886 85.116 37.7838 85.0796 38.1824C85.0449 38.5809 84.9969 38.9844 84.939 39.3879C84.8777 39.7964 84.8066 40.2032 84.7305 40.615C84.6511 41.0251 84.5567 41.4436 84.4525 41.8587C84.3499 42.2772 84.2357 42.6989 84.1083 43.1224C83.9842 43.5425 83.8452 43.9642 83.6996 44.381C83.5524 44.7978 83.3968 45.2129 83.2297 45.6281C83.0609 46.0382 82.8872 46.4467 82.7035 46.8518C82.5198 47.2587 82.3262 47.6605 82.1227 48.059C81.9192 48.4575 81.7074 48.8544 81.489 49.2463C81.2689 49.6382 81.0406 50.0251 80.8039 50.4103C80.569 50.7939 80.3241 51.1725 80.0726 51.5477C79.8211 51.9247 79.5563 52.2966 79.2899 52.6619C79.0235 53.0306 78.7505 53.3926 78.4642 53.7512C78.1862 54.1066 77.8967 54.4619 77.5988 54.809C77.3026 55.1577 77.0015 55.5014 76.6921 55.8385C76.3793 56.1772 76.0649 56.5093 75.7439 56.8364C75.4229 57.1636 75.0953 57.4857 74.7611 57.7995C74.4268 58.1184 74.0876 58.4289 73.7434 58.7327C73.3993 59.0366 73.0468 59.3372 72.6911 59.6277C72.337 59.92 71.9779 60.2056 71.6122 60.4862C71.2465 60.7669 70.8775 61.0392 70.5019 61.3065C70.1296 61.5705 69.749 61.8312 69.3668 62.0869C68.9862 62.3377 68.5957 62.5851 68.2052 62.8226C67.8164 63.0617 67.4209 63.2941 67.0238 63.5166C66.625 63.7425 66.2246 63.9567 65.8208 64.1659C65.4171 64.3768 65.0084 64.576 64.6013 64.767C64.1893 64.9613 63.7757 65.1489 63.362 65.3233C62.9467 65.4993 62.528 65.6687 62.1094 65.8264C61.6891 65.9875 61.2688 66.1386 60.8452 66.2781C60.42 66.4225 59.998 66.5537 59.5695 66.6766C59.1442 66.8011 58.7157 66.919 58.2871 67.0236C57.8569 67.1282 57.4267 67.2245 56.9965 67.3109C56.5662 67.3972 56.136 67.4736 55.7008 67.54C55.2723 67.6048 54.8404 67.6596 54.4085 67.7094C53.975 67.7559 53.5415 67.7908 53.1129 67.8173C52.6794 67.8423 52.2475 67.8589 51.8173 67.8638C51.3871 67.8672 50.9619 67.8605 50.5416 67.8423C50.1229 67.8256 49.7076 67.7991 49.3006 67.7592C48.8935 67.7194 48.4947 67.6729 48.0993 67.6148C47.7055 67.555 47.3183 67.4869 46.9344 67.4089C46.5521 67.3325 46.1782 67.2428 45.8092 67.1448C45.4402 67.0485 45.0778 66.9389 44.7237 66.8227C44.368 66.7081 44.0188 66.5819 43.6796 66.4458C43.3388 66.3113 43.0045 66.1668 42.6752 66.014C42.3493 65.8613 42.0283 65.7002 41.7172 65.5259C41.4044 65.3598 41.1 65.1805 40.8021 64.9928C40.5026 64.8052 40.2147 64.6109 39.9334 64.4067C39.6521 64.2008 39.3758 63.9915 39.1111 63.7707C38.8447 63.5515 38.5882 63.3224 38.335 63.0882C38.0868 62.8541 37.8452 62.61 37.6119 62.3609C37.3753 62.1102 37.1519 61.8512 36.9335 61.5871C36.7184 61.3215 36.5083 61.0508 36.3114 60.7718C36.1111 60.4912 35.9192 60.2073 35.7388 59.915C35.5552 59.6228 35.3814 59.3239 35.2176 59.0183C35.0538 58.7128 34.8983 58.4023 34.7543 58.0835C34.607 57.7647 34.4714 57.4409 34.3439 57.1104C34.2182 56.7816 34.0991 56.4462 33.9915 56.1058C33.8839 55.7638 33.7863 55.4167 33.6953 55.0663C33.6076 54.7143 33.5282 54.3557 33.4603 53.9937C33.3925 53.6317 33.3329 53.2664 33.285 52.8927C33.2353 52.5208 33.1956 52.1455 33.1691 51.7636C33.141 51.3834 33.1244 50.9981 33.1162 50.6079C33.1096 50.2177 33.1112 49.8241 33.1278 49.4273C33.1393 49.0288 33.1658 48.6286 33.2022 48.2218C33.237 47.8166 33.285 47.4081 33.3412 46.9963C33.3991 46.5845 33.4686 46.1694 33.5497 45.7509C33.6291 45.3308 33.7218 44.9091 33.8244 44.4856C33.927 44.0605 34.0428 43.6338 34.1685 43.2054Z"
    fill="#9A5F15" />
  <path
    d="M31.8729 41.6196C31.9986 41.1896 32.1343 40.7595 32.2816 40.3344C32.4272 39.911 32.5827 39.4859 32.7482 39.0674C32.912 38.6507 33.0874 38.2355 33.2711 37.8221C33.4564 37.4103 33.6484 37.0001 33.8519 36.5949C34.0538 36.1898 34.2622 35.7879 34.484 35.3894C34.7024 34.9909 34.9307 34.5974 35.1657 34.2088C35.4023 33.8169 35.6456 33.4317 35.8971 33.0514C36.1502 32.6679 36.41 32.2926 36.6781 31.919C36.9461 31.547 37.2192 31.1784 37.5004 30.8181C37.7817 30.4527 38.0713 30.0974 38.3658 29.7437C38.6637 29.39 38.9648 29.043 39.2726 28.7026C39.582 28.3622 39.8997 28.0234 40.2207 27.693C40.5417 27.3642 40.8694 27.0388 41.202 26.7183C41.5362 26.4011 41.8738 26.0889 42.2212 25.7834C42.5638 25.4762 42.9162 25.1773 43.2703 24.8818C43.6244 24.5895 43.9868 24.3022 44.3525 24.0233C44.7165 23.7427 45.0871 23.4687 45.4594 23.203C45.835 22.9406 46.214 22.6783 46.5979 22.4292C46.9801 22.1785 47.3673 21.9327 47.7578 21.6953C48.1483 21.4611 48.5438 21.232 48.9409 21.0111C49.3397 20.7903 49.7401 20.5777 50.1422 20.3718C50.5476 20.1676 50.9513 19.9733 51.365 19.7824C51.777 19.5947 52.1907 19.4137 52.606 19.2427C53.0213 19.0717 53.4399 18.9089 53.8586 18.7545C54.2805 18.6001 54.7025 18.454 55.1244 18.3178C55.5463 18.1816 55.9732 18.0554 56.4002 17.9392C56.8254 17.8196 57.2556 17.7101 57.6858 17.6121C58.1144 17.5125 58.5446 17.4228 58.9748 17.3431C59.4084 17.2634 59.8386 17.1953 60.2704 17.1339C60.704 17.0741 61.1358 17.0243 61.5677 16.9861C61.9996 16.9462 62.4348 16.918 62.8666 16.8997C63.2985 16.8815 63.7304 16.8748 64.1622 16.8781C64.5925 16.8815 65.0194 16.8931 65.4397 16.9163C65.8583 16.9412 66.2719 16.9745 66.6807 17.0193C67.0877 17.0641 67.4881 17.1189 67.882 17.1853C68.2791 17.2484 68.6679 17.3248 69.0485 17.4095C69.4307 17.4958 69.808 17.5855 70.1753 17.6934C70.546 17.7964 70.9067 17.911 71.2625 18.0339C71.6199 18.1567 71.969 18.2862 72.3099 18.4257C72.6524 18.5669 72.9866 18.718 73.3126 18.8757C73.6402 19.0351 73.9612 19.2012 74.274 19.3755C74.585 19.5516 74.8912 19.7342 75.189 19.9268C75.4868 20.1194 75.7781 20.317 76.0594 20.5263C76.3423 20.7322 76.617 20.9497 76.8817 21.1722C77.1498 21.3947 77.4079 21.6255 77.6578 21.863C77.9076 22.1021 78.1492 22.3462 78.3842 22.5986C78.6175 22.851 78.8425 23.11 79.0609 23.374C79.2777 23.6397 79.4862 23.912 79.6831 24.1927C79.885 24.47 80.0753 24.7556 80.2573 25.0462C80.4376 25.3401 80.6114 25.6373 80.7768 25.9428C80.939 26.245 81.0945 26.5555 81.2402 26.8677C81.3858 27.1849 81.5231 27.5054 81.6489 27.8325C81.7746 28.1596 81.8921 28.4917 82.003 28.8288C82.1089 29.1659 82.2081 29.5046 82.2942 29.8566C82.3835 30.2037 82.4646 30.5557 82.5291 30.9127C82.5986 31.2697 82.6582 31.6317 82.7045 31.9987C82.7542 32.3656 82.7939 32.7359 82.8187 33.1112C82.8485 33.4848 82.8634 33.8667 82.8717 34.2503C82.8783 34.6322 82.875 35.0208 82.8601 35.4127C82.8468 35.8029 82.8204 36.1981 82.784 36.5966C82.7492 36.9951 82.7012 37.3986 82.6433 37.8021C82.5821 38.2106 82.5109 38.6174 82.4348 39.0292C82.3554 39.4394 82.2611 39.8578 82.1568 40.273C82.0542 40.6914 81.9401 41.1132 81.8127 41.5366C81.6886 41.9567 81.5496 42.3785 81.404 42.7953C81.2567 43.212 81.1012 43.6272 80.934 44.0423C80.7653 44.4524 80.5915 44.8609 80.4079 45.2661C80.2242 45.6729 80.0306 46.0748 79.8271 46.4733C79.6235 46.8718 79.4117 47.2687 79.1933 47.6605C78.9732 48.0524 78.7449 48.4393 78.5083 48.8245C78.2733 49.2081 78.0284 49.5867 77.7769 49.962C77.5254 50.3389 77.2607 50.7109 76.9943 51.0762C76.7279 51.4448 76.4548 51.8068 76.1686 52.1655C75.8906 52.5208 75.601 52.8762 75.3032 53.2232C75.007 53.5719 74.7058 53.9156 74.3964 54.2527C74.0837 54.5915 73.7693 54.9236 73.4483 55.2507C73.1273 55.5778 72.7996 55.8999 72.4654 56.2138C72.1312 56.5326 71.7919 56.8431 71.4478 57.147C71.1036 57.4509 70.7512 57.7514 70.3954 58.042C70.0413 58.3342 69.6822 58.6199 69.3166 58.9005C68.9509 59.1811 68.5819 59.4534 68.2063 59.7208C67.834 59.9848 67.4534 60.2455 67.0712 60.5012C66.6906 60.7519 66.3001 60.9993 65.9096 61.2368C65.5207 61.4759 65.1253 61.7084 64.7281 61.9309C64.3294 62.1567 63.9289 62.3709 63.5252 62.5801C63.1214 62.791 62.7127 62.9903 62.3057 63.1812C61.8937 63.3755 61.48 63.5632 61.0663 63.7375C60.651 63.9135 60.2324 64.0829 59.8138 64.2406C59.3935 64.4017 58.9732 64.5528 58.5496 64.6923C58.1243 64.8368 57.7024 64.9679 57.2738 65.0908C56.8486 65.2154 56.42 65.3333 55.9914 65.4379C55.5612 65.5425 55.131 65.6388 54.7008 65.7251C54.2706 65.8115 53.8404 65.8879 53.4052 65.9543C52.9766 66.019 52.5448 66.0738 52.1129 66.1237C51.6794 66.1702 51.2458 66.205 50.8173 66.2316C50.3838 66.2565 49.9519 66.2731 49.5217 66.2781C49.0915 66.2814 48.6662 66.2748 48.2459 66.2565C47.8273 66.2399 47.412 66.2133 47.0049 66.1735C46.5979 66.1336 46.1991 66.0871 45.8036 66.029C45.4098 65.9692 45.0226 65.9011 44.6387 65.8231C44.2565 65.7467 43.8825 65.6571 43.5135 65.5591C43.1445 65.4628 42.7822 65.3532 42.4281 65.2369C42.0723 65.1224 41.7232 64.9962 41.384 64.86C41.0431 64.7255 40.7089 64.581 40.3796 64.4283C40.0536 64.2755 39.7326 64.1144 39.4215 63.9401C39.1088 63.774 38.8043 63.5947 38.5065 63.4071C38.207 63.2194 37.9191 63.0252 37.6378 62.8209C37.3565 62.615 37.0802 62.4058 36.8154 62.1849C36.549 61.9658 36.2925 61.7366 36.0394 61.5025C35.7912 61.2683 35.5496 61.0243 35.3163 60.7752C35.0797 60.5244 34.8563 60.2654 34.6379 60.0014C34.4227 59.7357 34.2126 59.465 34.0157 59.1861C33.8155 58.9055 33.6235 58.6215 33.4432 58.3293C33.2595 58.037 33.0858 57.7381 32.922 57.4326C32.7581 57.1271 32.6026 56.8165 32.4586 56.4977C32.3114 56.1789 32.1757 55.8551 32.0483 55.5247C31.9225 55.1959 31.8034 54.8605 31.6958 54.5201C31.5883 54.178 31.4907 53.831 31.3997 53.4806C31.312 53.1286 31.2325 52.7699 31.1647 52.4079C31.0969 52.0459 31.0373 51.6806 30.9893 51.307C30.9397 50.935 30.8999 50.5598 30.8735 50.1779C30.8453 49.7976 30.8288 49.4124 30.8205 49.0221C30.8139 48.6319 30.8156 48.2384 30.8321 47.8415C30.8437 47.443 30.8702 47.0428 30.9066 46.636C30.9413 46.2308 30.9893 45.8224 31.0456 45.4106C31.1035 44.9987 31.173 44.5836 31.254 44.1652C31.3335 43.7451 31.4261 43.3233 31.5287 42.8999C31.6313 42.4748 31.7471 42.048 31.8729 41.6196Z"
    fill="#D08E39" />
  <path
    d="M76.5443 32.0003C76.5443 32.0003 76.0082 31.9671 75.4737 31.9356C74.9409 31.9024 74.4081 31.8708 74.4081 31.8708C74.2559 31.8625 74.1285 31.7977 74.0474 31.6898C73.968 31.5852 73.9415 31.4424 73.9729 31.2896C73.9729 31.2896 74.0722 30.7965 74.1715 30.3016C74.2708 29.8085 74.3717 29.312 74.3717 29.312C74.3767 29.2788 74.3651 29.2472 74.3469 29.2289C74.327 29.2057 74.2972 29.1957 74.2642 29.1957C74.2294 29.1957 74.1913 29.2057 74.1616 29.2256C74.1285 29.2489 74.0987 29.2788 74.0838 29.3136C74.0838 29.3136 73.8902 29.8051 73.6933 30.3016C73.498 30.7948 73.3011 31.2863 73.3011 31.2863C73.2432 31.4441 73.1307 31.5852 72.9884 31.6915C72.8444 31.7977 72.6773 31.8592 72.5218 31.8675C72.5218 31.8675 71.9675 31.899 71.4148 31.9322C70.8605 31.9655 70.3078 31.9987 70.3078 31.9987C70.2731 32.0036 70.2383 32.0219 70.2085 32.0468C70.1771 32.0717 70.1556 32.1033 70.1457 32.1381C70.1357 32.1714 70.1374 32.2046 70.1523 32.2311C70.1688 32.256 70.1936 32.2727 70.2251 32.2793C70.2251 32.2793 70.7579 32.3125 71.2907 32.3441C71.8235 32.3756 72.3613 32.4088 72.3613 32.4088C72.5085 32.4188 72.6376 32.4835 72.717 32.5881C72.7948 32.6961 72.8229 32.8389 72.7948 32.99C72.7948 32.99 72.6939 33.4815 72.5946 33.978C72.4953 34.4712 72.3944 34.9676 72.3944 34.9676C72.3911 35.0009 72.3993 35.0291 72.4175 35.0507C72.439 35.0723 72.4672 35.0855 72.5019 35.0839C72.535 35.0855 72.5714 35.0706 72.6062 35.0507C72.6376 35.0291 72.6641 34.9992 72.6823 34.9643C72.6823 34.9643 72.8759 34.4712 73.0711 33.978C73.2664 33.4832 73.4616 32.9916 73.4616 32.9916C73.5212 32.8372 73.6337 32.6977 73.7744 32.5898C73.9167 32.4852 74.0838 32.4221 74.2426 32.4105C74.2426 32.4105 74.797 32.3789 75.3513 32.3457C75.9056 32.3125 76.4599 32.281 76.4599 32.281C76.4947 32.276 76.5277 32.2577 76.5592 32.2311C76.5857 32.2062 76.6088 32.1714 76.6188 32.1415C76.6287 32.1083 76.627 32.0751 76.6138 32.0501C76.5989 32.0236 76.5757 32.0053 76.5443 32.0003Z"
    fill="#002522" />
  <path fill-rule="evenodd" clip-rule="evenodd"
    d="M69.7686 39.4012L70.0499 39.6519C70.3047 39.8611 70.4619 40.1567 70.5099 40.5021C70.5215 40.6964 70.4884 40.9039 70.4073 41.1065C70.3461 41.2709 70.27 41.4303 70.1889 41.5847C70.0234 41.8953 69.8183 42.1991 69.5833 42.4814C69.4592 42.6226 69.3235 42.7604 69.1845 42.8899L69.1117 42.9596L69.0588 43.3548C69.0323 43.5126 68.9942 43.6687 68.9495 43.8331C68.8519 44.1486 68.7212 44.4624 68.559 44.7696C68.3969 45.0768 68.2 45.374 67.9799 45.6596C67.7565 45.9485 67.5067 46.2192 67.2386 46.4666C66.9672 46.7174 66.676 46.9465 66.3699 47.1507L66.2954 47.1972L66.216 47.2222C65.8669 47.3334 65.5161 47.4364 65.1653 47.5244C64.8129 47.614 64.4637 47.6904 64.1129 47.7552C63.7572 47.8266 63.3998 47.878 63.049 47.9079C62.6998 47.9378 62.3507 47.9495 62.0098 47.9378H61.9635L61.9106 47.9395C61.6028 47.8316 61.2867 47.7369 60.9674 47.6506C60.648 47.5609 60.3254 47.4828 59.9961 47.4148C59.6685 47.3434 59.3342 47.2836 58.9967 47.2321C58.6608 47.1806 58.3166 47.1408 57.9741 47.1059C57.8847 47.0976 57.7954 47.0926 57.7044 47.0827C57.438 47.0644 57.1567 47.0428 56.8803 46.998C56.5163 46.9399 56.1655 46.8452 55.8395 46.7157C55.55 46.6078 55.2521 46.5247 54.9361 46.4683C54.6234 46.4151 54.2974 46.3836 53.9648 46.3819L53.9416 46.3803C53.6537 46.6858 53.4204 47.0262 53.2616 47.3799C53.0961 47.7369 53.0084 48.1006 52.9985 48.4476C52.9538 48.8843 52.9455 49.3127 52.977 49.7278C53.0034 50.1446 53.068 50.5481 53.1656 50.94C53.2897 51.3485 53.3972 51.7653 53.4899 52.1887C53.5842 52.6105 53.662 53.0422 53.7265 53.4789C53.796 53.9389 53.801 54.4271 53.7464 54.9252C53.6868 55.4649 53.4783 56.0278 53.1474 56.5525L52.742 57.1769L52.3217 56.785C52.2555 56.7302 52.1827 56.6804 52.1049 56.6405C51.9759 56.9427 51.8253 57.2449 51.6598 57.5372C51.3537 58.0536 50.9897 58.5484 50.5727 59.0134C50.6356 58.6481 50.6621 58.316 50.6571 58.0154C50.6505 57.7115 50.6124 57.4376 50.5496 57.1885C50.4205 56.6903 50.1822 56.2885 49.8778 55.9564C49.5733 55.621 49.196 55.352 48.784 55.1162C48.3753 54.8804 47.9302 54.6778 47.4884 54.4752C47.0913 54.2976 46.6958 54.1199 46.3301 53.9173C45.9661 53.7147 45.6269 53.4922 45.3456 53.2232C45.1156 53.004 44.9237 52.7799 44.7631 52.5507C44.6043 52.3199 44.4819 52.0824 44.3925 51.835C44.3015 51.5876 44.2469 51.3319 44.227 51.0629C44.2055 50.7922 44.2204 50.5099 44.2667 50.2144C44.3147 49.9205 44.3958 49.6083 44.5116 49.2812C44.6258 48.9541 44.7731 48.6087 44.9551 48.245C45.1371 47.8814 45.3522 47.4978 45.6021 47.0926C45.8486 46.6891 46.1316 46.2624 46.4426 45.8107C46.6362 45.5334 46.8232 45.2528 47.0003 44.9705C47.1806 44.6866 47.3527 44.4043 47.5165 44.117C47.682 43.8297 47.8408 43.5408 47.9914 43.2519C48.142 42.9596 48.286 42.6674 48.42 42.3735C48.5391 42.1061 48.6665 41.8471 48.8022 41.5847C48.8188 41.5482 48.8337 41.5133 48.8552 41.4785L48.9528 41.2925C48.923 41.4121 48.8899 41.5299 48.8601 41.6445C48.7824 41.9318 48.7079 42.2157 48.6599 42.493C48.5689 42.8783 48.5342 43.2552 48.5573 43.6139C48.5689 43.7666 48.6169 43.9061 48.6913 44.0273C48.7129 44.0655 48.741 44.0954 48.7691 44.1353C48.7906 44.1618 48.8121 44.1917 48.837 44.2266C48.8783 44.2947 48.9247 44.3561 48.976 44.4142C49.1993 44.6334 49.4707 44.8045 49.7785 44.924C50.1028 45.0486 50.442 45.1498 50.7944 45.2279C51.1419 45.3059 51.5043 45.3624 51.8766 45.3956C52.2324 45.4338 52.5931 45.4637 52.9604 45.4786C53.3277 45.4969 53.6984 45.5035 54.079 45.5019H54.1915C54.577 45.5052 54.9576 45.5351 55.3249 45.5998C55.6873 45.6629 56.0398 45.7559 56.3724 45.8805C56.6685 45.9884 56.9796 46.0731 57.3006 46.1329C57.6283 46.191 57.9642 46.2242 58.3083 46.2325C58.6641 46.2657 59.0149 46.3072 59.364 46.3604C59.7115 46.4118 60.054 46.4733 60.3932 46.543C60.7308 46.6144 61.0667 46.6941 61.3926 46.7838C61.7219 46.8734 62.0462 46.9714 62.3639 47.0793C62.6618 47.086 62.9629 47.076 63.2674 47.0478C63.5735 47.0212 63.8829 46.9764 64.1924 46.915C64.6342 46.8336 65.0776 46.7223 65.5227 46.5995C66.5486 46.2159 67.457 45.188 66.1829 45.3242C65.8867 45.3474 65.5856 45.389 65.2811 45.4471C65.0478 45.4902 64.8046 45.57 64.5415 45.658C64.3082 45.7343 64.06 45.8157 63.7952 45.8755C63.2591 45.9967 62.7362 45.9867 62.2829 45.8489C61.9006 45.6712 61.477 45.5666 61.017 45.5334C61.2702 45.4105 61.5366 45.3358 61.7914 45.3209C61.9784 45.3026 62.1372 45.3076 62.2895 45.3159C62.3639 45.3159 62.4384 45.3192 62.5112 45.3192C62.9232 45.3707 63.3551 45.3508 63.8018 45.2611C64.0318 45.1997 64.2801 45.0867 64.5481 44.9605C64.7682 44.8609 64.9965 44.7563 65.2398 44.6666C65.7693 44.4707 66.3054 44.3661 66.8216 44.3561L67.1294 44.3545C67.6374 43.8613 68.1007 43.3183 68.1172 42.8716C68.0312 42.684 67.8806 42.5495 67.6821 42.4748C67.6308 42.4532 67.5232 42.425 67.3842 42.3884C67.1377 42.317 66.7852 42.2207 66.456 42.0962C66.13 41.97 65.8288 41.8222 65.6882 41.6478C65.4847 41.3556 65.8305 40.7728 67.093 40.527C67.6672 40.4324 68.2248 40.4191 68.7593 40.4772C68.9413 40.5104 69.1398 40.4921 69.3384 40.429L69.2888 40.3693L69.0141 40.1285L68.7444 39.8711C68.7444 39.8711 68.478 39.6154 68.2132 39.3613C67.9501 39.1056 67.687 38.8482 67.687 38.8482C67.5133 38.6855 67.3263 38.5145 67.1542 38.3767L67.0632 38.3152L66.8746 38.2239C66.7505 38.1674 66.633 38.096 66.5139 38.0246C66.1432 37.8005 65.8272 37.5165 65.5657 37.1861C65.3159 36.9104 65.0842 36.5401 64.8757 36.1217C64.6672 35.7032 64.4803 35.24 64.3231 34.785C64.1642 34.33 64.0352 33.8817 63.9342 33.4931C63.8349 33.1029 63.7654 32.7758 63.734 32.5583C63.6777 32.2228 63.5503 31.9223 63.365 31.6682C63.1797 31.4125 62.9331 31.2066 62.6353 31.0588C62.9762 31.0406 63.2955 31.0987 63.5636 31.2282C63.8349 31.3594 64.0517 31.5553 64.1973 31.8027C64.285 31.899 64.4075 32.2046 64.5564 32.5715C64.7053 32.9435 64.8824 33.3802 65.0693 33.7306C65.2613 34.0793 65.4665 34.3383 65.6733 34.3599C65.9099 34.3516 66.1482 34.32 66.3898 34.257C66.2375 34.0544 66.1068 33.8319 66.0026 33.5961C65.8603 33.2905 65.7726 32.98 65.6882 32.6745C65.6584 32.5715 65.6319 32.4669 65.6005 32.3706C65.5128 31.9887 65.3754 31.6367 65.1934 31.3096C65.1488 31.2415 65.0991 31.18 65.0445 31.1236C64.9866 31.0671 64.9204 31.019 64.8476 30.9791C64.6888 30.8828 64.5249 30.8014 64.3115 30.7118C64.103 30.6204 63.9193 30.5407 63.7108 30.4212L63.1698 30.104L62.081 29.488C61.7186 29.2904 61.348 29.1011 60.969 28.9284C60.5918 28.7524 60.2013 28.593 59.8025 28.4435C59.4103 28.3024 59.0033 28.1795 58.5847 28.0799C58.1644 27.9836 57.7342 27.9072 57.2924 27.8541C57.0839 27.8258 56.8704 27.8109 56.652 27.8059C56.4783 27.7993 56.2946 27.8374 56.1126 27.9105C56.0166 27.947 55.919 27.9919 55.8131 28.04C55.6824 28.0998 55.5384 28.1629 55.3812 28.2227L54.6664 28.5083C54.1948 28.7109 53.7282 28.9301 53.2665 29.1692C52.8065 29.405 52.3498 29.6607 51.8998 29.933C51.549 30.1223 51.2065 30.3365 50.8755 30.574C50.5462 30.8114 50.2285 31.0704 49.9324 31.3494C50.2567 31.3345 50.5727 31.3511 50.8755 31.3959C51.1783 31.4424 51.4679 31.5204 51.7426 31.6251C51.3355 31.6168 50.9202 31.64 50.4999 31.6981C50.0796 31.7546 49.6544 31.8409 49.2291 31.9588C48.8138 32.0734 48.4001 32.2096 47.9865 32.3739C47.5761 32.5234 47.174 32.7044 46.7802 32.9119C46.393 33.0996 46.0207 33.3287 45.6716 33.5911C45.526 33.704 45.4019 33.8368 45.3009 33.9813C45.1768 34.1507 45.0494 34.3367 44.927 34.521C44.6837 34.9012 44.4537 35.2831 44.2353 35.67C44.0169 36.0569 43.8101 36.4488 43.6181 36.8407C43.4196 37.2342 43.2359 37.6278 43.0621 38.023C42.8884 38.4215 42.7279 38.8167 42.5806 39.2169C42.435 39.6154 42.301 40.0123 42.1785 40.4158C42.0561 40.8126 41.9485 41.2145 41.8493 41.6146C41.7715 41.9368 41.7103 42.2589 41.6656 42.5777C41.6209 42.8965 41.5978 43.2087 41.5878 43.5226C41.5812 43.8314 41.5895 44.1386 41.6176 44.4391C41.6441 44.738 41.6871 45.0353 41.7533 45.3209C42.1355 44.9572 42.5194 44.5886 42.9016 44.2166C43.2822 43.8463 43.6611 43.4694 44.0318 43.0941C44.2717 42.8484 44.5116 42.5993 44.7499 42.3519C44.9865 42.1045 45.2182 41.8554 45.4515 41.603C45.6815 41.3539 45.9098 41.0999 46.1365 40.8442C46.3616 40.5918 46.5833 40.3377 46.8017 40.0853C47.0301 39.8196 47.2501 39.5473 47.4685 39.2717C47.6853 38.996 47.9004 38.7171 48.1172 38.4364C48.3141 38.1791 48.5143 37.9217 48.7162 37.6626C48.9197 37.4053 49.1249 37.1462 49.34 36.8922C49.5617 36.6182 49.7901 36.3542 50.03 36.0951C50.2716 35.8361 50.5198 35.5854 50.7795 35.3413C51.0476 35.0889 51.3388 34.8614 51.6449 34.6671C51.9544 34.4645 52.2952 34.3416 52.6212 34.32C52.3002 34.5459 51.966 34.868 51.6185 35.2649C51.271 35.6617 50.9136 36.135 50.5429 36.6647C50.3593 36.9304 50.1723 37.2093 49.9853 37.4999C49.795 37.7938 49.6047 38.096 49.4144 38.4065C49.2225 38.7204 49.0272 39.0425 48.832 39.3713C48.6351 39.7001 48.4365 40.0355 48.2396 40.3759C48.0791 40.6515 47.8789 40.9737 47.6539 41.3224C47.4272 41.6744 47.174 42.0513 46.9026 42.4449C46.6296 42.8368 46.3384 43.2452 46.0372 43.6504C45.7361 44.0572 45.425 44.4624 45.1123 44.8526C44.8029 45.2395 44.4901 45.6115 44.1857 45.9552C43.8796 46.2956 43.585 46.6044 43.307 46.8685C42.7478 47.3965 42.2596 47.7352 41.9088 47.7668C41.3727 47.8 41.2536 47.5509 41.0434 47.0362L40.8697 46.631C40.7142 46.269 40.595 45.8888 40.5172 45.4919C40.4345 45.0934 40.3931 44.6799 40.3882 44.2532C40.3965 43.8331 40.4229 43.4113 40.4775 42.9829C40.5305 42.5561 40.6099 42.1211 40.7142 41.6894C40.8184 41.2593 40.9392 40.8375 41.0749 40.4108C41.2106 39.9824 41.3611 39.5523 41.5233 39.1322C41.6954 38.7104 41.879 38.2886 42.0743 37.8719C42.2696 37.4534 42.4747 37.0383 42.6915 36.6265C42.9066 36.213 43.1383 35.8012 43.3815 35.3944C43.6231 34.9892 43.8779 34.5874 44.1476 34.1905C44.2866 33.9929 44.4272 33.7937 44.5894 33.5878C44.6771 33.4749 44.7681 33.3669 44.8707 33.2623C44.9766 33.156 45.0908 33.0581 45.2116 32.9651C45.6352 32.6529 46.0885 32.3872 46.5535 32.183C46.9424 32.0086 47.3345 31.8608 47.7283 31.7396C48.1238 31.6184 48.5193 31.5254 48.9131 31.459C49.2606 30.9957 49.6742 30.5723 50.1375 30.2037C50.5893 29.8483 51.0608 29.5212 51.549 29.2306C52.0106 28.9334 52.4822 28.6577 52.9621 28.4037C53.4403 28.1496 53.9267 27.9155 54.4215 27.7063C54.6598 27.6033 54.9659 27.4838 55.1727 27.4057C55.272 27.3708 55.3779 27.321 55.4954 27.2679C55.6178 27.2148 55.7502 27.155 55.8991 27.1002C56.2085 26.974 56.5229 26.9092 56.8241 26.9159C57.0772 26.9209 57.3238 26.9358 57.5654 26.9723C58.037 27.0288 58.4986 27.1101 58.947 27.2131C59.3938 27.3194 59.829 27.4489 60.2476 27.6033C60.6629 27.7561 61.07 27.9221 61.4638 28.1031C61.8576 28.2858 62.2415 28.4801 62.6154 28.6876L63.7208 29.312L64.2668 29.6291C64.3893 29.7005 64.5481 29.7736 64.7169 29.8467C64.75 29.8599 64.7814 29.8749 64.8129 29.8865C65.0164 29.9795 65.2067 30.0741 65.4069 30.1904C65.5161 30.2568 65.6203 30.3249 65.713 30.4079C65.7957 30.4992 65.8735 30.5989 65.9413 30.7018C66.1813 31.0738 66.3633 31.4823 66.4874 31.9206C66.4924 31.9405 66.4973 31.9588 66.5023 31.9738C66.6165 32.3773 66.7273 32.7642 66.8779 33.1062C67.0285 33.4483 67.2188 33.7439 67.4901 33.9647L67.9253 34.3184L67.9088 34.3748L67.6788 34.6405L67.141 34.7634C67.0401 34.795 66.9408 34.8597 66.868 34.9427C66.8299 34.9859 66.8018 35.0341 66.7852 35.0806C66.7505 35.1802 66.724 35.2748 66.6992 35.3711C66.6529 35.5256 66.5867 35.675 66.499 35.8211C66.4493 35.8992 66.4047 35.9673 66.3633 36.0254C66.3352 36.0669 66.3087 36.1067 66.2888 36.1366C66.2657 36.1682 66.2508 36.1997 66.2408 36.2346C66.2309 36.2695 66.2276 36.3027 66.2342 36.3326C66.4775 36.6979 66.8018 36.9984 67.1857 37.2276C67.2783 37.2907 67.3826 37.3455 67.4901 37.3986L67.6523 37.4684C67.735 37.5099 67.8078 37.558 67.8757 37.6161C68.0742 37.7673 68.2314 37.9117 68.3903 38.0678C68.4101 38.0861 68.43 38.1043 68.4515 38.1226C68.4515 38.1226 68.7146 38.3816 68.9777 38.6357C69.2408 38.8947 69.5055 39.1521 69.5055 39.1521L69.7686 39.4012ZM58.808 36.5667C58.6872 36.5783 58.5698 36.5783 58.4589 36.565C57.6878 36.5219 57.4661 35.9938 57.7524 35.4492C58.0419 34.9062 58.0188 34.7285 57.8632 34.7285C57.5985 34.8116 57.3486 34.966 57.1467 35.1752L57.1153 35.1735C57.1054 35.1769 57.0954 35.1769 57.0888 35.1719C57.0806 35.1719 57.0772 35.1669 57.0723 35.1619C57.0657 35.1553 57.0624 35.1486 57.0657 35.1403C57.064 35.132 57.0624 35.1254 57.0657 35.1188C57.5654 33.9913 58.2421 33.9415 58.5383 33.9431C58.9785 33.9763 59.412 34.0311 59.8323 34.1075C60.2559 34.1822 60.6646 34.2785 61.07 34.3948C61.0931 34.3981 61.1113 34.4114 61.1262 34.4263C61.1411 34.4462 61.1478 34.4662 61.1428 34.4944C61.1428 34.5193 61.1295 34.5426 61.1163 34.5675C61.0998 34.5874 61.0766 34.609 61.0485 34.6223C60.888 34.7352 60.7457 34.8796 60.648 35.0424C60.5421 35.2034 60.4826 35.3761 60.4693 35.5422C60.4197 35.8062 60.2046 36.042 59.9018 36.2213C59.599 36.4007 59.2085 36.5252 58.808 36.5667Z"
    fill="#002522" />
  <defs>
    <filter id="filter0_ddd_1276_40232" x="0" y="0" width="242" height="132" filterUnits="userSpaceOnUse"
      color-interpolation-filters="sRGB">
      <feFlood flood-opacity="0" result="BackgroundImageFix" />
      <feColorMatrix in="SourceAlpha" type="matrix" values="0 0 0 0 0 0 0 0 0 0 0 0 0 0 0 0 0 0 127 0"
        result="hardAlpha" />
      <feOffset dy="10" />
      <feGaussianBlur stdDeviation="6" />
      <feColorMatrix type="matrix" values="0 0 0 0 0 0 0 0 0 0.0784314 0 0 0 0 0.0745098 0 0 0 0.34 0" />
      <feBlend mode="normal" in2="BackgroundImageFix" result="effect1_dropShadow_1276_40232" />
      <feColorMatrix in="SourceAlpha" type="matrix" values="0 0 0 0 0 0 0 0 0 0 0 0 0 0 0 0 0 0 127 0"
        result="hardAlpha" />
      <feOffset dy="14" />
      <feGaussianBlur stdDeviation="8" />
      <feColorMatrix type="matrix" values="0 0 0 0 0 0 0 0 0 0.0784314 0 0 0 0 0.0745098 0 0 0 0.24 0" />
      <feBlend mode="normal" in2="effect1_dropShadow_1276_40232" result="effect2_dropShadow_1276_40232" />
      <feColorMatrix in="SourceAlpha" type="matrix" values="0 0 0 0 0 0 0 0 0 0 0 0 0 0 0 0 0 0 127 0"
        result="hardAlpha" />
      <feOffset dy="24" />
      <feGaussianBlur stdDeviation="12" />
      <feColorMatrix type="matrix" values="0 0 0 0 0 0 0 0 0 0.0784314 0 0 0 0 0.0745098 0 0 0 0.14 0" />
      <feBlend mode="normal" in2="effect2_dropShadow_1276_40232" result="effect3_dropShadow_1276_40232" />
      <feBlend mode="normal" in="SourceGraphic" in2="effect3_dropShadow_1276_40232" result="shape" />
    </filter>
  </defs>
</svg>