<svg width="242" height="132" viewBox="0 0 242 132" fill="none" xmlns="http://www.w3.org/2000/svg">
  <g filter="url(#filter0_ddd_1284_33476)">
    <rect x="24" y="2" width="194" height="82" rx="12" fill="#193330" />
  </g>
  <rect x="36" y="44" width="134" height="23" rx="11.5" fill="#002522" />
  <circle cx="43" cy="17" r="4" stroke="#33514E" stroke-width="2" />
  <circle cx="63" cy="17" r="4" stroke="#33514E" stroke-width="2" />
  <circle cx="83" cy="17" r="4" stroke="#33514E" stroke-width="2" />
  <path
    d="M181 55C181 49.8824 181 47.3236 182.353 45.5608C182.535 45.3227 182.734 45.0977 182.947 44.8873C183.14 44.6967 183.345 44.5181 183.561 44.3526C185.324 43 187.882 43 193 43C198.118 43 200.676 43 202.439 44.3526C202.893 44.7008 203.299 45.107 203.647 45.5608C205 47.3236 205 49.8824 205 55C205 60.1176 205 62.6764 203.647 64.4392C203.482 64.6549 203.303 64.8598 203.113 65.0529C202.902 65.266 202.677 65.4647 202.439 65.6474C200.676 67 198.118 67 193 67C187.882 67 185.324 67 183.561 65.6474C183.107 65.2992 182.701 64.893 182.353 64.4392C181 62.6764 181 60.1176 181 55Z"
    fill="url(#paint0_linear_1284_33476)" />
  <path fill-rule="evenodd" clip-rule="evenodd"
    d="M202.042 54.2886C202.249 54.4566 202.389 54.6932 202.436 54.9555C202.446 55.0319 202.446 55.109 202.439 55.1855C202.419 55.2459 202.419 55.2948 202.419 55.3494C202.402 55.4553 202.378 55.56 202.347 55.6627C202.284 55.877 202.187 56.0798 202.06 56.2636C202.036 56.2982 202.006 56.3377 201.985 56.3649C201.978 56.3739 201.972 56.3815 201.968 56.3872C201.968 56.3914 201.97 56.3974 201.972 56.4052C201.979 56.4293 201.991 56.47 201.991 56.5223C202.025 56.7323 202.034 56.9454 202.02 57.1576C201.991 57.5676 201.894 57.9699 201.732 58.3478C201.571 58.7428 201.317 59.0937 200.993 59.3712L200.956 59.4028L200.904 59.4229C200.503 59.5717 200.092 59.6909 199.674 59.7794C199.243 59.8798 198.802 59.9233 198.36 59.9088H198.325H198.285C197.372 59.6148 196.429 59.422 195.474 59.3338C195.214 59.316 194.955 59.2795 194.7 59.2246C194.442 59.1563 194.188 59.0708 193.941 58.9687C193.556 58.8307 193.162 58.7174 192.763 58.6295C192.575 58.892 192.488 59.2136 192.518 59.535C192.547 59.8889 192.866 60.4977 193.094 60.9337C193.142 61.0256 193.186 61.1098 193.223 61.1823C193.48 61.7522 193.573 62.3823 193.492 63.0022C193.412 63.6221 193.16 64.2073 192.766 64.6924C192.143 63.3914 190.977 62.7739 189.932 62.221C188.428 61.4251 187.177 60.7629 188.166 58.388C188.446 57.6935 188.619 56.93 188.76 56.3047C188.881 55.7731 188.979 55.3414 189.1 55.1367V55.1539C189.02 55.6296 189.02 56.1156 189.1 56.5913C189.138 56.8142 189.222 57.0268 189.348 57.2151C189.478 57.3867 189.653 57.519 189.853 57.5975C190.287 57.7692 190.745 57.872 191.21 57.9022C191.449 57.9367 191.688 57.9367 191.929 57.9367H191.929C192.057 57.9357 192.184 57.9414 192.311 57.9539C192.438 57.9654 192.567 57.9798 192.694 57.9999C193.195 58.0809 193.689 58.202 194.171 58.3621C194.604 58.5339 195.063 58.6311 195.528 58.6496C196.517 58.7271 197.494 58.92 198.438 59.2246C198.815 59.2376 199.193 59.2087 199.564 59.1383C199.658 59.1205 199.75 59.0999 199.841 59.0794C199.882 59.0702 199.923 59.061 199.964 59.0521C200.611 58.8623 201.35 57.8591 200.505 57.9539C200.27 57.9649 200.036 57.9938 199.806 58.0402C199.597 58.0827 199.434 58.1218 199.295 58.1548C198.874 58.2554 198.69 58.2992 198.196 58.2126C197.848 58.0919 197.485 58.0146 197.118 57.9827C197.426 57.7846 197.791 57.6955 198.156 57.7297C198.425 57.7637 198.698 57.7521 198.964 57.6952C199.098 57.6569 199.234 57.5832 199.382 57.5036C199.5 57.4397 199.626 57.372 199.763 57.3157C200.153 57.1927 200.562 57.1392 200.97 57.1576C201.072 57.0503 201.147 56.9204 201.19 56.7786C201.232 56.6367 201.241 56.4869 201.215 56.3412C201.132 56.2155 201.006 56.1245 200.861 56.0853C200.804 56.0727 200.731 56.0585 200.648 56.0424C200.221 55.9596 199.522 55.8239 199.242 55.5592C199.05 55.3752 198.946 54.8147 199.625 54.6594C199.984 54.5963 200.349 54.5837 200.711 54.6221C200.867 54.6393 201.289 54.6795 201.387 54.5991C201.321 54.3708 200.576 53.9631 199.835 53.5571C199.184 53.2011 198.537 52.8465 198.351 52.6155C197.526 51.7743 196.833 50.8128 196.296 49.7637C196.122 49.325 195.792 48.9658 195.37 48.7547C195.872 48.7179 196.369 48.8674 196.767 49.1744C196.825 49.222 196.898 49.3527 196.992 49.5201C197.255 49.9889 197.679 50.746 198.371 50.7756C198.444 50.7826 198.518 50.7697 198.584 50.7383C198.241 50.4149 198.01 50.0248 197.793 49.6594C197.464 49.1055 197.169 48.6086 196.572 48.4873C196.563 48.4838 196.554 48.4803 196.545 48.4768C196.409 48.4234 196.281 48.3733 196.138 48.3004L195.732 48.0992L194.927 47.7082C194.396 47.4515 193.849 47.2297 193.289 47.0442C192.735 46.8622 192.164 46.7379 191.584 46.6733C191.458 46.659 191.288 46.6417 191.17 46.6417C191.059 46.6421 190.95 46.6687 190.851 46.7193C190.782 46.748 190.704 46.7883 190.625 46.8287C190.562 46.8612 190.499 46.8937 190.44 46.9206C190.414 46.9322 190.389 46.9438 190.363 46.9555C190.256 47.0043 190.148 47.0535 190.043 47.1045C189.518 47.3587 189.022 47.6701 188.566 48.0331C188.223 48.275 187.922 48.5711 187.674 48.9099C188.107 48.8785 188.541 48.9343 188.951 49.0738C188.328 49.1036 187.717 49.2599 187.156 49.5332C186.595 49.8065 186.096 50.1911 185.688 50.6635C184.949 51.4541 184.374 55.4874 185.211 56.5539C185.619 56.3627 186.171 55.4285 186.799 54.3669C187.766 52.7308 188.912 50.7922 189.986 50.8044C189.339 51.3822 188.839 52.9346 188.338 54.6738C187.936 56.0853 186.57 59.3051 185.708 59.3827C185.372 59.4028 185.248 59.2418 185.021 58.9141L184.831 58.6554C184.5 58.1944 184.247 57.6814 184.084 57.1375C183.933 56.605 183.843 56.0573 183.814 55.5046C183.784 54.9611 183.797 54.4162 183.851 53.8746C183.909 53.3379 184 52.8051 184.121 52.2791C184.242 51.7527 184.399 51.235 184.59 50.7296C184.642 50.6003 184.693 50.4738 184.759 50.3444C184.793 50.2719 184.831 50.2018 184.874 50.1345C184.924 50.067 184.979 50.0036 185.038 49.9448C185.248 49.7454 185.485 49.5769 185.743 49.4446C186.119 49.2482 186.52 49.1031 186.936 49.0134C187.067 48.7191 187.247 48.4489 187.467 48.2142C187.686 47.9854 187.923 47.7758 188.177 47.5875C188.665 47.2012 189.193 46.8695 189.753 46.5986C189.885 46.5296 190.058 46.452 190.173 46.4031C190.233 46.3773 190.297 46.3443 190.368 46.3079C190.431 46.2753 190.499 46.24 190.575 46.2047C190.747 46.1231 190.934 46.0799 191.124 46.0782C191.287 46.0787 191.449 46.0902 191.61 46.1128C192.229 46.1803 192.839 46.3123 193.43 46.5066C194.012 46.7007 194.581 46.9311 195.134 47.1965L195.951 47.5933L196.356 47.7945C196.455 47.848 196.582 47.8965 196.719 47.9494C196.729 47.9533 196.74 47.9573 196.75 47.9612C196.9 48.0187 197.038 48.0791 197.187 48.1538C197.268 48.1953 197.346 48.2423 197.42 48.2947C197.491 48.3519 197.558 48.4134 197.621 48.4787C197.841 48.7182 198.034 48.9814 198.196 49.2635C198.214 49.2947 198.232 49.3258 198.249 49.3568C198.533 49.8537 198.797 50.3153 199.208 50.5859L199.495 50.7756C199.491 50.7917 199.484 50.8071 199.475 50.8216L199.415 50.9337L199.127 51.0803C199.071 51.1079 199.026 51.1563 199.004 51.2155C198.993 51.242 198.987 51.2702 198.987 51.2988V51.4828C198.988 51.5799 198.976 51.6768 198.949 51.7703C198.938 51.8079 198.924 51.8412 198.912 51.8706C198.894 51.913 198.88 51.9472 198.88 51.9744C198.872 52.0035 198.872 52.0344 198.88 52.0635C198.961 52.428 200.021 53.0405 200.897 53.5464C201.451 53.8664 201.931 54.1438 202.042 54.2886ZM194.95 51.7624C194.982 52.162 194.496 52.4753 193.921 52.5415C193.182 52.6133 192.809 52.208 192.892 51.6963C192.975 51.1846 192.616 51.1846 192.374 51.4721C192.369 51.479 192.362 51.484 192.353 51.4863C192.345 51.4886 192.336 51.4881 192.328 51.4848C192.32 51.4816 192.313 51.4757 192.308 51.4683C192.304 51.4608 192.302 51.452 192.303 51.4433C192.423 50.5895 192.924 50.5521 193.148 50.5521C193.822 50.6 194.49 50.7136 195.143 50.8914C195.161 50.8958 195.178 50.9051 195.191 50.9184C195.204 50.9317 195.213 50.9484 195.217 50.9666C195.221 50.9848 195.22 51.0038 195.214 51.0215C195.208 51.0392 195.197 51.0548 195.183 51.0667C195.086 51.1514 195.013 51.2606 194.972 51.3829C194.931 51.5052 194.924 51.6362 194.95 51.7624Z"
    fill="#001413" />
  <defs>
    <filter id="filter0_ddd_1284_33476" x="0" y="0" width="242" height="132" filterUnits="userSpaceOnUse"
      color-interpolation-filters="sRGB">
      <feFlood flood-opacity="0" result="BackgroundImageFix" />
      <feColorMatrix in="SourceAlpha" type="matrix" values="0 0 0 0 0 0 0 0 0 0 0 0 0 0 0 0 0 0 127 0"
        result="hardAlpha" />
      <feOffset dy="10" />
      <feGaussianBlur stdDeviation="6" />
      <feColorMatrix type="matrix" values="0 0 0 0 0 0 0 0 0 0.0784314 0 0 0 0 0.0745098 0 0 0 0.34 0" />
      <feBlend mode="normal" in2="BackgroundImageFix" result="effect1_dropShadow_1284_33476" />
      <feColorMatrix in="SourceAlpha" type="matrix" values="0 0 0 0 0 0 0 0 0 0 0 0 0 0 0 0 0 0 127 0"
        result="hardAlpha" />
      <feOffset dy="14" />
      <feGaussianBlur stdDeviation="8" />
      <feColorMatrix type="matrix" values="0 0 0 0 0 0 0 0 0 0.0784314 0 0 0 0 0.0745098 0 0 0 0.24 0" />
      <feBlend mode="normal" in2="effect1_dropShadow_1284_33476" result="effect2_dropShadow_1284_33476" />
      <feColorMatrix in="SourceAlpha" type="matrix" values="0 0 0 0 0 0 0 0 0 0 0 0 0 0 0 0 0 0 127 0"
        result="hardAlpha" />
      <feOffset dy="24" />
      <feGaussianBlur stdDeviation="12" />
      <feColorMatrix type="matrix" values="0 0 0 0 0 0 0 0 0 0.0784314 0 0 0 0 0.0745098 0 0 0 0.14 0" />
      <feBlend mode="normal" in2="effect2_dropShadow_1284_33476" result="effect3_dropShadow_1284_33476" />
      <feBlend mode="normal" in="SourceGraphic" in2="effect3_dropShadow_1284_33476" result="shape" />
    </filter>
    <linearGradient id="paint0_linear_1284_33476" x1="188.584" y1="66.761" x2="201.784" y2="43"
      gradientUnits="userSpaceOnUse">
      <stop stop-color="#D08E39" />
      <stop offset="1" stop-color="#E3BB88" />
    </linearGradient>
  </defs>
</svg>