<svg width="1439" height="1121" viewBox="0 0 1439 1121" fill="none" xmlns="http://www.w3.org/2000/svg">
  <mask id="mask0_1794_90976" style="mask-type:alpha" maskUnits="userSpaceOnUse" x="-1" y="0" width="1440"
    height="1121">
    <rect x="-1" width="1440" height="1121" fill="#CC8023" />
  </mask>
  <g mask="url(#mask0_1794_90976)">
    <path
      d="M74.1743 81.6741L75.9232 63.5813C75.9471 63.4198 76.0287 63.2721 76.1531 63.1654C76.2775 63.0587 76.4365 63 76.6009 63C76.7653 63 76.9241 63.0587 77.0486 63.1654C77.173 63.2721 77.2546 63.4198 77.2785 63.5813L78.9982 81.6597C79.1078 82.6693 79.5703 83.6088 80.3052 84.3149C81.0401 85.0209 82.0009 85.4489 83.0205 85.5243L104.415 86.798C104.577 86.8218 104.726 86.9028 104.833 87.0264C104.941 87.1499 105 87.3078 105 87.471C105 87.6343 104.941 87.7922 104.833 87.9157C104.726 88.0393 104.577 88.1203 104.415 88.1441L83.0059 89.4613C81.9863 89.5366 81.0255 89.9646 80.2906 90.6706C79.5558 91.3767 79.0932 92.3163 78.9836 93.3259L77.2348 111.419C77.2109 111.58 77.1292 111.728 77.0048 111.835C76.8804 111.941 76.7215 112 76.5571 112C76.3927 112 76.2338 111.941 76.1094 111.835C75.985 111.728 75.9033 111.58 75.8794 111.419L74.1597 93.3403C74.0501 92.3307 73.5876 91.3912 72.8528 90.6851C72.1179 89.9791 71.157 89.5511 70.1374 89.4757L48.6849 88.2454C48.5033 88.2454 48.329 88.1737 48.2006 88.0462C48.0721 87.9186 48 87.7456 48 87.5651C48 87.3847 48.0721 87.2117 48.2006 87.0841C48.329 86.9565 48.5033 86.8848 48.6849 86.8848L70.1083 85.5822C71.1424 85.5151 72.1189 85.0853 72.8636 84.3695C73.6083 83.6537 74.0729 82.6984 74.1743 81.6741Z"
      fill="#FBEDDA" />
    <path
      d="M225.766 197.104L227.822 175.688C227.85 175.497 227.946 175.322 228.092 175.196C228.238 175.069 228.425 175 228.619 175C228.812 175 228.999 175.069 229.145 175.196C229.291 175.322 229.387 175.497 229.415 175.688L231.436 197.087C231.565 198.282 232.109 199.394 232.973 200.23C233.837 201.066 234.966 201.572 236.164 201.661L261.312 203.169C261.503 203.197 261.678 203.293 261.804 203.439C261.931 203.586 262 203.772 262 203.966C262 204.159 261.931 204.346 261.804 204.492C261.678 204.638 261.503 204.734 261.312 204.762L236.147 206.321C234.949 206.411 233.819 206.917 232.956 207.753C232.092 208.589 231.548 209.701 231.419 210.896L229.364 232.312C229.336 232.503 229.24 232.678 229.093 232.804C228.947 232.931 228.76 233 228.567 233C228.374 233 228.187 232.931 228.041 232.804C227.895 232.678 227.799 232.503 227.771 232.312L225.749 210.913C225.62 209.718 225.077 208.606 224.213 207.77C223.349 206.934 222.22 206.428 221.021 206.339L195.805 204.882C195.592 204.882 195.387 204.797 195.236 204.646C195.085 204.495 195 204.291 195 204.077C195 203.864 195.085 203.659 195.236 203.508C195.387 203.357 195.592 203.272 195.805 203.272L220.987 201.73C222.202 201.65 223.35 201.142 224.226 200.295C225.101 199.447 225.647 198.317 225.766 197.104Z"
      fill="#F5DAB7" />
    <path
      d="M644.848 285.342L646.842 264.664C646.869 264.48 646.963 264.311 647.104 264.189C647.246 264.067 647.428 264 647.615 264C647.802 264 647.984 264.067 648.126 264.189C648.267 264.311 648.36 264.48 648.388 264.664L650.349 285.325C650.474 286.479 651.001 287.553 651.839 288.36C652.677 289.167 653.773 289.656 654.936 289.742L679.333 291.198C679.518 291.225 679.688 291.317 679.81 291.459C679.933 291.6 680 291.78 680 291.967C680 292.154 679.933 292.334 679.81 292.475C679.688 292.616 679.518 292.709 679.333 292.736L654.919 294.241C653.756 294.328 652.661 294.817 651.823 295.624C650.985 296.431 650.457 297.504 650.332 298.658L648.338 319.336C648.311 319.52 648.218 319.689 648.076 319.811C647.934 319.933 647.753 320 647.565 320C647.378 320 647.196 319.933 647.055 319.811C646.913 319.689 646.82 319.52 646.792 319.336L644.831 298.675C644.706 297.521 644.179 296.447 643.341 295.64C642.503 294.833 641.407 294.344 640.244 294.258L615.781 292.852C615.574 292.852 615.375 292.77 615.229 292.624C615.082 292.478 615 292.281 615 292.074C615 291.868 615.082 291.67 615.229 291.525C615.375 291.379 615.574 291.297 615.781 291.297L640.211 289.808C641.39 289.731 642.504 289.24 643.353 288.422C644.202 287.604 644.732 286.513 644.848 285.342Z"
      fill="#EFBF81" />
    <path
      d="M684.235 312.909L685.186 303.308C685.199 303.223 685.244 303.144 685.311 303.088C685.379 303.031 685.465 303 685.555 303C685.644 303 685.731 303.031 685.798 303.088C685.866 303.144 685.91 303.223 685.923 303.308L686.859 312.901C686.918 313.437 687.17 313.935 687.57 314.31C687.969 314.685 688.492 314.912 689.046 314.952L700.682 315.628C700.77 315.64 700.851 315.683 700.909 315.749C700.968 315.814 701 315.898 701 315.985C701 316.071 700.968 316.155 700.909 316.221C700.851 316.286 700.77 316.329 700.682 316.342L689.038 317.041C688.484 317.081 687.961 317.308 687.562 317.682C687.162 318.057 686.91 318.556 686.851 319.091L685.9 328.692C685.887 328.777 685.842 328.856 685.775 328.912C685.707 328.969 685.62 329 685.531 329C685.442 329 685.355 328.969 685.288 328.912C685.22 328.856 685.175 328.777 685.162 328.692L684.227 319.099C684.168 318.563 683.916 318.065 683.516 317.69C683.117 317.315 682.594 317.088 682.04 317.048L670.373 316.396C670.274 316.396 670.179 316.357 670.109 316.29C670.039 316.222 670 316.13 670 316.035C670 315.939 670.039 315.847 670.109 315.779C670.179 315.712 670.274 315.674 670.373 315.674L682.024 314.982C682.586 314.947 683.117 314.719 683.522 314.339C683.927 313.959 684.18 313.452 684.235 312.909Z"
      fill="#F5DAB7" />
    <path
      d="M396.603 142.247L398.781 119.724C398.811 119.523 398.913 119.339 399.068 119.206C399.223 119.073 399.421 119 399.626 119C399.83 119 400.028 119.073 400.183 119.206C400.338 119.339 400.44 119.523 400.47 119.724L402.612 142.229C402.748 143.486 403.324 144.656 404.24 145.535C405.155 146.414 406.352 146.947 407.622 147.04L434.271 148.626C434.474 148.656 434.659 148.757 434.793 148.91C434.926 149.064 435 149.261 435 149.464C435 149.667 434.926 149.864 434.793 150.018C434.659 150.171 434.474 150.272 434.271 150.302L407.604 151.942C406.334 152.035 405.137 152.568 404.222 153.447C403.306 154.326 402.73 155.496 402.594 156.753L400.415 179.276C400.386 179.477 400.284 179.661 400.129 179.794C399.974 179.927 399.776 180 399.571 180C399.366 180 399.168 179.927 399.013 179.794C398.859 179.661 398.757 179.477 398.727 179.276L396.585 156.771C396.448 155.514 395.872 154.344 394.957 153.465C394.042 152.586 392.845 152.053 391.575 151.96L364.853 150.428C364.627 150.428 364.41 150.339 364.25 150.18C364.09 150.021 364 149.806 364 149.581C364 149.356 364.09 149.141 364.25 148.982C364.41 148.823 364.627 148.734 364.853 148.734L391.538 147.112C392.827 147.029 394.043 146.494 394.97 145.603C395.898 144.712 396.477 143.523 396.603 142.247Z"
      fill="#FBEDDA" />
    <path
      d="M754.011 164.199L755.883 144.629C755.908 144.454 755.996 144.294 756.129 144.179C756.262 144.063 756.432 144 756.608 144C756.784 144 756.954 144.063 757.087 144.179C757.22 144.294 757.308 144.454 757.333 144.629L759.173 164.183C759.291 165.275 759.786 166.291 760.572 167.055C761.359 167.819 762.387 168.281 763.478 168.363L786.374 169.741C786.548 169.766 786.707 169.854 786.822 169.988C786.937 170.121 787 170.292 787 170.469C787 170.645 786.937 170.816 786.822 170.95C786.707 171.083 786.548 171.171 786.374 171.197L763.463 172.621C762.371 172.703 761.343 173.166 760.557 173.929C759.77 174.693 759.275 175.709 759.158 176.801L757.286 196.371C757.261 196.546 757.173 196.706 757.04 196.821C756.907 196.937 756.737 197 756.561 197C756.385 197 756.215 196.937 756.082 196.821C755.949 196.706 755.861 196.546 755.836 196.371L753.995 176.817C753.878 175.725 753.383 174.709 752.597 173.945C751.81 173.181 750.782 172.719 749.691 172.637L726.733 171.306C726.539 171.306 726.352 171.229 726.215 171.091C726.077 170.953 726 170.766 726 170.57C726 170.375 726.077 170.188 726.215 170.05C726.352 169.912 726.539 169.835 726.733 169.835L749.66 168.426C750.766 168.353 751.811 167.888 752.608 167.114C753.405 166.34 753.903 165.306 754.011 164.199Z"
      fill="#F0AC55" />
    <path
      d="M1241.01 80.1985L1242.88 60.6288C1242.91 60.454 1243 60.2944 1243.13 60.1789C1243.26 60.0635 1243.43 60 1243.61 60C1243.78 60 1243.95 60.0635 1244.09 60.1789C1244.22 60.2944 1244.31 60.454 1244.33 60.6288L1246.17 80.1829C1246.29 81.275 1246.79 82.2912 1247.57 83.0549C1248.36 83.8186 1249.39 84.2814 1250.48 84.363L1273.37 85.7407C1273.55 85.7664 1273.71 85.854 1273.82 85.9877C1273.94 86.1214 1274 86.2921 1274 86.4687C1274 86.6453 1273.94 86.816 1273.82 86.9497C1273.71 87.0833 1273.55 87.171 1273.37 87.1967L1250.46 88.6214C1249.37 88.7029 1248.34 89.1658 1247.56 89.9295C1246.77 90.6932 1246.28 91.7094 1246.16 92.8015L1244.29 112.371C1244.26 112.546 1244.17 112.706 1244.04 112.821C1243.91 112.937 1243.74 113 1243.56 113C1243.39 113 1243.22 112.937 1243.08 112.821C1242.95 112.706 1242.86 112.546 1242.84 112.371L1241 92.8171C1240.88 91.725 1240.38 90.7088 1239.6 89.9451C1238.81 89.1814 1237.78 88.7186 1236.69 88.637L1213.73 87.3063C1213.54 87.3063 1213.35 87.2287 1213.21 87.0907C1213.08 86.9528 1213 86.7656 1213 86.5704C1213 86.3753 1213.08 86.1881 1213.21 86.0501C1213.35 85.9122 1213.54 85.8346 1213.73 85.8346L1236.66 84.4256C1237.77 84.353 1238.81 83.8882 1239.61 83.114C1240.41 82.3398 1240.9 81.3065 1241.01 80.1985Z"
      fill="#FBEDDA" />
    <path
      d="M1033.13 96.4427L1036.42 62.1033C1036.46 61.7967 1036.62 61.5165 1036.85 61.314C1037.08 61.1114 1037.38 61 1037.69 61C1038 61 1038.3 61.1114 1038.53 61.314C1038.76 61.5165 1038.92 61.7967 1038.96 62.1033L1042.19 96.4153C1042.4 98.3315 1043.26 100.115 1044.64 101.455C1046.02 102.795 1047.83 103.607 1049.74 103.75L1089.9 106.168C1090.21 106.213 1090.49 106.367 1090.69 106.601C1090.89 106.836 1091 107.135 1091 107.445C1091 107.755 1090.89 108.055 1090.69 108.289C1090.49 108.524 1090.21 108.677 1089.9 108.722L1049.71 111.222C1047.8 111.365 1046 112.178 1044.62 113.518C1043.24 114.858 1042.37 116.641 1042.16 118.557L1038.88 152.897C1038.83 153.203 1038.68 153.483 1038.45 153.686C1038.21 153.889 1037.92 154 1037.61 154C1037.3 154 1037 153.889 1036.77 153.686C1036.53 153.483 1036.38 153.203 1036.33 152.897L1033.11 118.585C1032.9 116.668 1032.03 114.885 1030.65 113.545C1029.27 112.205 1027.47 111.393 1025.56 111.25L985.286 108.915C984.945 108.915 984.618 108.779 984.377 108.537C984.135 108.294 984 107.966 984 107.624C984 107.281 984.135 106.953 984.377 106.711C984.618 106.468 984.945 106.332 985.286 106.332L1025.5 103.86C1027.44 103.733 1029.28 102.917 1030.67 101.558C1032.07 100.2 1032.94 98.3868 1033.13 96.4427Z"
      fill="#FBEDDA" />
    <path
      d="M1172.52 164.01L1174.76 140.747C1174.79 140.54 1174.9 140.35 1175.06 140.213C1175.22 140.075 1175.42 140 1175.63 140C1175.84 140 1176.04 140.075 1176.2 140.213C1176.36 140.35 1176.47 140.54 1176.5 140.747L1178.7 163.991C1178.84 165.289 1179.43 166.497 1180.37 167.405C1181.31 168.313 1182.54 168.863 1183.85 168.96L1211.25 170.597C1211.46 170.628 1211.65 170.732 1211.79 170.891C1211.92 171.05 1212 171.253 1212 171.463C1212 171.673 1211.92 171.876 1211.79 172.035C1211.65 172.193 1211.46 172.298 1211.25 172.328L1183.83 174.022C1182.53 174.119 1181.3 174.669 1180.35 175.577C1179.41 176.484 1178.82 177.692 1178.68 178.99L1176.44 202.253C1176.41 202.46 1176.31 202.65 1176.15 202.787C1175.99 202.925 1175.78 203 1175.57 203C1175.36 203 1175.16 202.925 1175 202.787C1174.84 202.65 1174.74 202.46 1174.71 202.253L1172.5 179.009C1172.36 177.711 1171.77 176.503 1170.83 175.595C1169.89 174.687 1168.66 174.137 1167.35 174.04L1139.88 172.458C1139.64 172.458 1139.42 172.366 1139.26 172.202C1139.09 172.038 1139 171.816 1139 171.584C1139 171.352 1139.09 171.129 1139.26 170.965C1139.42 170.801 1139.64 170.709 1139.88 170.709L1167.31 169.034C1168.64 168.948 1169.89 168.395 1170.84 167.475C1171.8 166.555 1172.39 165.327 1172.52 164.01Z"
      fill="#F5DAB7" />
    <path
      d="M276.746 219.101L278.065 205.439C278.083 205.317 278.144 205.206 278.238 205.125C278.332 205.044 278.452 205 278.576 205C278.7 205 278.82 205.044 278.914 205.125C279.008 205.206 279.069 205.317 279.087 205.439L280.385 219.09C280.467 219.852 280.816 220.562 281.371 221.095C281.925 221.628 282.65 221.951 283.419 222.008L299.558 222.97C299.681 222.988 299.793 223.049 299.874 223.142C299.955 223.236 300 223.355 300 223.478C300 223.601 299.955 223.721 299.874 223.814C299.793 223.907 299.681 223.968 299.558 223.986L283.408 224.981C282.639 225.038 281.914 225.361 281.36 225.894C280.805 226.427 280.456 227.137 280.374 227.899L279.054 241.561C279.036 241.683 278.975 241.794 278.881 241.875C278.787 241.956 278.667 242 278.543 242C278.419 242 278.299 241.956 278.205 241.875C278.111 241.794 278.05 241.683 278.032 241.561L276.735 227.91C276.652 227.148 276.303 226.438 275.749 225.905C275.194 225.372 274.469 225.049 273.7 224.992L257.517 224.063C257.38 224.063 257.248 224.009 257.151 223.912C257.054 223.816 257 223.685 257 223.549C257 223.413 257.054 223.282 257.151 223.186C257.248 223.09 257.38 223.035 257.517 223.035L273.678 222.052C274.458 222.001 275.195 221.677 275.757 221.136C276.319 220.596 276.669 219.874 276.746 219.101Z"
      fill="#F5DAB7" />
  </g>
</svg>