<svg width="213" height="175" viewBox="0 0 213 175" fill="none" xmlns="http://www.w3.org/2000/svg">
<g filter="url(#filter0_dd_6422_165109)">
<path d="M11 4.66016C11.3238 4.84282 11.6671 4.99273 12.0248 5.10655L13.6166 5.61293L17.0531 6.75828L19.9618 7.51228C20.5989 7.67743 21.2205 7.89738 21.8196 8.16969L22.2822 8.37991C23.46 8.9152 24.7388 9.19216 26.0326 9.19216H26.2551C26.9896 9.19216 27.7202 9.29937 28.4237 9.51039C29.6075 9.86548 30.8604 9.92444 32.0723 9.68209L33.3664 9.42329C34.1354 9.26953 34.8886 9.04565 35.6167 8.75446L38.102 7.76047L41.9681 6.75828L44.0183 6.15091C45.2226 5.79412 46.4721 5.61293 47.7282 5.61293C48.9416 5.61293 50.1491 5.78201 51.3158 6.11531L51.3646 6.12926C52.822 6.5456 54.1983 7.20577 55.4352 8.08176L57.0031 9.19216L58.3749 9.96747C59.654 10.6903 60.8756 11.5105 62.0288 12.4208L63.017 13.2009L63.4201 13.5163C65.3357 15.0152 67.4693 16.2125 69.7469 17.0665L72.6107 18.4982L75.6177 19.9299L79.6657 22.1375C80.1132 22.3816 80.5105 22.7079 80.8368 23.0995C81.443 23.8267 81.7749 24.7433 81.7749 25.69V29.1945C81.7749 30.3641 81.9002 31.5302 82.1487 32.6731L82.1925 32.8748C82.3909 33.7872 82.6784 34.678 83.0507 35.5344L83.232 35.9513C83.6898 37.0041 84.3053 37.981 85.0572 38.8485C85.5407 39.4063 86.0777 39.9154 86.6604 40.3686L86.9256 40.5748C87.8793 41.3165 88.7382 42.1727 89.4828 43.124L90.0665 43.8697C90.6473 44.6117 91.2859 45.3066 91.9765 45.9477C92.6204 46.5455 93.2193 47.1901 93.7682 47.8761L95.8075 50.4249L98.0985 52.7156L100.533 55.2927L101.388 56.2908C101.936 56.9295 102.735 57.297 103.576 57.297C103.837 57.297 104.097 57.3324 104.348 57.4021L105.72 57.7831C106.268 57.9356 106.836 58.0129 107.405 58.0129H108.33C109.302 58.0129 110.239 58.3751 110.958 59.0288C111.261 59.3043 111.519 59.6257 111.722 59.9812L112.224 60.8606C112.826 61.9127 113.608 62.8506 114.535 63.6311L115.854 64.7418C117.463 66.1616 119.318 67.2756 121.328 68.0291L121.725 68.1779L123.999 68.7463C125.131 69.0293 126.156 69.6367 126.947 70.494C127.283 70.8574 127.662 71.1779 128.076 71.4481L128.987 72.0417C130.135 72.7902 131.475 73.1887 132.846 73.1888C133.353 73.1888 133.86 73.2435 134.356 73.3519L136.851 73.8977C137.742 74.0926 138.652 74.191 139.564 74.191H141.218C142.789 74.191 144.32 73.7002 145.598 72.7873C146.288 72.2949 147.055 71.9223 147.869 71.6851L148.965 71.3654C149.704 71.1499 150.418 70.8564 151.095 70.4897L152.566 69.6931C153.187 69.3565 153.883 69.1801 154.59 69.18C155.648 69.18 156.667 69.5743 157.45 70.2853L158.196 70.9641C158.977 71.674 159.912 72.1943 160.927 72.4842L161.414 72.6234C162.717 72.9955 163.919 73.6562 164.932 74.556L165.971 75.4795L167.689 76.768L170.288 78.2531C170.559 78.4078 170.811 78.5937 171.039 78.8064L171.194 78.9509C172.206 79.8958 172.604 81.3283 172.224 82.6599C172.204 82.7287 172.186 82.798 172.171 82.8676C172.062 83.355 172.053 83.8602 172.145 84.3526L172.317 85.2689C172.325 85.3128 172.334 85.3565 172.343 85.4001C172.357 85.4672 172.372 85.5339 172.388 85.6002C172.79 87.2418 173.85 88.6531 175.326 89.4965C175.675 89.6959 176.003 89.9289 176.307 90.1921L176.386 90.2603C177.439 91.1725 178.206 92.3687 178.596 93.7058L178.806 94.4272C178.822 94.4824 178.838 94.538 178.852 94.5937C178.951 94.9838 179.001 95.385 179.001 95.7879V96.879C179.001 96.9481 179.003 97.0169 179.008 97.0852C179.078 98.11 179.666 99.0354 180.576 99.5319C181.547 100.061 182.151 101.079 182.151 102.185V103.541C182.151 103.617 182.152 103.694 182.154 103.77C182.185 104.918 182.447 106.049 182.927 107.094L183.256 107.813C183.569 108.495 183.944 109.146 184.376 109.759L185.444 111.272L186.198 112.163C186.745 112.808 187.233 113.501 187.656 114.233C188.279 115.308 189.039 116.298 189.918 117.177L190.358 117.617C190.995 118.254 191.586 118.935 192.127 119.656L193.463 121.437L194.185 122.664C194.656 123.464 195.239 124.193 195.916 124.828C196.756 125.615 197.449 126.545 197.964 127.574L198.444 128.533C198.56 128.765 198.659 129.005 198.741 129.251L199.188 130.593C199.2 130.628 199.212 130.662 199.225 130.696C199.423 131.202 199.807 131.616 200.3 131.852C201.558 132.454 201.919 134.074 201.036 135.152L200.334 136.011C200.328 136.018 200.322 136.025 200.316 136.032C200.227 136.139 200.131 136.24 200.028 136.333L199.776 136.562C199.68 136.649 199.587 136.738 199.496 136.829C198.861 137.469 198.343 138.217 197.967 139.038L196.809 141.572C196.789 141.615 196.768 141.659 196.748 141.703C196.439 142.356 196.067 142.977 195.637 143.557L194.641 144.901C194.604 144.951 194.57 145.002 194.537 145.056C194.324 145.405 194.187 145.837 194.058 146.269L194.003 146.453C193.995 146.478 193.988 146.503 193.98 146.529C193.74 147.325 193.476 148.064 192.747 148.209C192.66 148.227 192.516 148.214 192.33 148.176C191.771 148.064 190.831 147.735 189.893 147.374C189.802 147.339 189.712 147.303 189.622 147.267C188.275 146.723 186.998 146.018 185.775 145.231L183.726 143.914C183.607 143.817 183.481 143.729 183.351 143.651C182.441 143.109 181.303 143.064 180.343 143.561L177.998 144.773L173.897 147.052C173.853 147.076 173.81 147.101 173.767 147.126C173.121 147.502 172.536 147.974 172.031 148.526L171.963 148.601C171.794 148.786 171.616 148.962 171.43 149.127C170.128 150.283 168.441 150.93 166.683 150.93C166.601 150.93 166.519 150.931 166.438 150.934C165.214 150.976 164.02 151.331 162.972 151.968L160.673 153.364L156.234 155.941L151.976 158" stroke="#FF3D12" stroke-width="5" stroke-linecap="round"/>
</g>
<g opacity="0.3" filter="url(#filter1_dd_6422_165109)">
<circle cx="111.105" cy="59.6299" r="25.378" fill="#FF3D12"/>
</g>
<g filter="url(#filter2_dd_6422_165109)">
<circle cx="111.105" cy="59.6288" r="31.0175" fill="#FF3D12"/>
</g>
<g filter="url(#filter3_d_6422_165109)">
<path d="M97.9418 44.2349C97.7387 44.2273 97.5361 44.3038 97.3877 44.4468C97.197 44.6448 97.125 44.9389 97.213 45.2029L99.4124 51.8011C99.4564 51.9184 99.5218 52.0283 99.6171 52.109L114.801 65.6506L115.736 63.7791C115.948 63.3561 116.297 63.0073 116.72 62.7954L118.652 61.8288L105.05 46.6763C104.969 46.581 104.859 46.5155 104.742 46.4715L98.1437 44.2721C98.0777 44.2501 98.0095 44.2374 97.9418 44.2349ZM124.269 44.2349C124.201 44.2374 124.133 44.2501 124.067 44.2721L117.469 46.4715C117.352 46.5155 117.242 46.581 117.161 46.6763L112.091 52.3252L116.653 57.4085L122.594 52.109C122.689 52.0283 122.754 51.9184 122.798 51.8011L124.998 45.2029C125.086 44.9382 125.014 44.6448 124.823 44.4468C124.675 44.3038 124.472 44.2273 124.269 44.2349ZM105.674 59.4748L103.559 61.8288L105.491 62.7954C105.914 63.0073 106.263 63.3561 106.475 63.7791L107.411 65.6506L110.004 63.3366L105.674 59.4748ZM98.7494 61.1057C98.5243 61.0726 98.2919 61.1442 98.1237 61.3119L97.3905 62.0451C97.1039 62.3317 97.1039 62.7951 97.3905 63.0818L106.188 71.8795C106.331 72.0224 106.52 72.0942 106.707 72.0942C106.894 72.0942 107.081 72.0217 107.223 71.878L107.957 71.1449C108.18 70.922 108.236 70.5823 108.096 70.3001L105.163 64.4349C105.093 64.2934 104.977 64.1781 104.835 64.107L98.9699 61.1745C98.8994 61.1398 98.8244 61.1168 98.7494 61.1057ZM123.46 61.1057C123.385 61.1168 123.312 61.1396 123.241 61.1745L117.376 64.107C117.234 64.1774 117.119 64.2934 117.048 64.4349L114.115 70.3001C113.975 70.5823 114.029 70.9234 114.253 71.1463L114.986 71.8795C115.129 72.0224 115.317 72.0942 115.504 72.0942C115.692 72.0942 115.879 72.0217 116.021 71.8795L124.819 63.0818C125.106 62.7951 125.106 62.3331 124.819 62.0465L124.086 61.3133C123.918 61.1456 123.685 61.0725 123.46 61.1057ZM99.2878 67.051L96.6903 70.6437C96.6081 70.6338 96.5254 70.6285 96.4426 70.628C95.8593 70.628 95.2998 70.8597 94.8874 71.2722C94.4749 71.6846 94.2432 72.2441 94.2432 72.8274C94.2432 73.4107 94.4749 73.9701 94.8874 74.3826C95.2998 74.7951 95.8593 75.0268 96.4426 75.0268C97.0259 75.0268 97.5853 74.7951 97.9978 74.3826C98.4103 73.9701 98.642 73.4107 98.642 72.8274C98.6413 72.7647 98.638 72.7022 98.632 72.6398L102.236 70.0008L99.2878 67.051ZM122.923 67.0525L119.975 70.0008L123.579 72.6412C123.573 72.7031 123.57 72.7652 123.569 72.8274C123.569 73.4107 123.801 73.9701 124.213 74.3826C124.625 74.7951 125.185 75.0268 125.768 75.0268C126.352 75.0268 126.911 74.7951 127.323 74.3826C127.736 73.9701 127.968 73.4107 127.968 72.8274C127.968 72.2441 127.736 71.6846 127.323 71.2722C126.911 70.8597 126.352 70.628 125.768 70.628C125.686 70.6291 125.604 70.6348 125.522 70.6451L122.923 67.0525Z" fill="white"/>
</g>
<defs>
<filter id="filter0_dd_6422_165109" x="0.499512" y="0.160156" width="211.524" height="174.342" filterUnits="userSpaceOnUse" color-interpolation-filters="sRGB">
<feFlood flood-opacity="0" result="BackgroundImageFix"/>
<feColorMatrix in="SourceAlpha" type="matrix" values="0 0 0 0 0 0 0 0 0 0 0 0 0 0 0 0 0 0 127 0" result="hardAlpha"/>
<feOffset dy="2"/>
<feGaussianBlur stdDeviation="2"/>
<feComposite in2="hardAlpha" operator="out"/>
<feColorMatrix type="matrix" values="0 0 0 0 0.290196 0 0 0 0 0.243137 0 0 0 0 0.231373 0 0 0 0.34 0"/>
<feBlend mode="normal" in2="BackgroundImageFix" result="effect1_dropShadow_6422_165109"/>
<feColorMatrix in="SourceAlpha" type="matrix" values="0 0 0 0 0 0 0 0 0 0 0 0 0 0 0 0 0 0 127 0" result="hardAlpha"/>
<feOffset dy="6"/>
<feGaussianBlur stdDeviation="4"/>
<feComposite in2="hardAlpha" operator="out"/>
<feColorMatrix type="matrix" values="0 0 0 0 0.288558 0 0 0 0 0.24229 0 0 0 0 0.232035 0 0 0 0.44 0"/>
<feBlend mode="normal" in2="effect1_dropShadow_6422_165109" result="effect2_dropShadow_6422_165109"/>
<feBlend mode="normal" in="SourceGraphic" in2="effect2_dropShadow_6422_165109" result="shape"/>
</filter>
<filter id="filter1_dd_6422_165109" x="77.7273" y="32.252" width="66.7559" height="66.7559" filterUnits="userSpaceOnUse" color-interpolation-filters="sRGB">
<feFlood flood-opacity="0" result="BackgroundImageFix"/>
<feColorMatrix in="SourceAlpha" type="matrix" values="0 0 0 0 0 0 0 0 0 0 0 0 0 0 0 0 0 0 127 0" result="hardAlpha"/>
<feOffset dy="2"/>
<feGaussianBlur stdDeviation="2"/>
<feComposite in2="hardAlpha" operator="out"/>
<feColorMatrix type="matrix" values="0 0 0 0 1 0 0 0 0 0.239216 0 0 0 0 0.0705882 0 0 0 0.34 0"/>
<feBlend mode="normal" in2="BackgroundImageFix" result="effect1_dropShadow_6422_165109"/>
<feColorMatrix in="SourceAlpha" type="matrix" values="0 0 0 0 0 0 0 0 0 0 0 0 0 0 0 0 0 0 127 0" result="hardAlpha"/>
<feOffset dy="6"/>
<feGaussianBlur stdDeviation="4"/>
<feComposite in2="hardAlpha" operator="out"/>
<feColorMatrix type="matrix" values="0 0 0 0 1 0 0 0 0 0.239216 0 0 0 0 0.0705882 0 0 0 0.44 0"/>
<feBlend mode="normal" in2="effect1_dropShadow_6422_165109" result="effect2_dropShadow_6422_165109"/>
<feBlend mode="normal" in="SourceGraphic" in2="effect2_dropShadow_6422_165109" result="shape"/>
</filter>
<filter id="filter2_dd_6422_165109" x="72.0879" y="26.6113" width="78.0349" height="78.0352" filterUnits="userSpaceOnUse" color-interpolation-filters="sRGB">
<feFlood flood-opacity="0" result="BackgroundImageFix"/>
<feColorMatrix in="SourceAlpha" type="matrix" values="0 0 0 0 0 0 0 0 0 0 0 0 0 0 0 0 0 0 127 0" result="hardAlpha"/>
<feOffset dy="2"/>
<feGaussianBlur stdDeviation="2"/>
<feComposite in2="hardAlpha" operator="out"/>
<feColorMatrix type="matrix" values="0 0 0 0 0.290196 0 0 0 0 0.243137 0 0 0 0 0.231373 0 0 0 0.34 0"/>
<feBlend mode="normal" in2="BackgroundImageFix" result="effect1_dropShadow_6422_165109"/>
<feColorMatrix in="SourceAlpha" type="matrix" values="0 0 0 0 0 0 0 0 0 0 0 0 0 0 0 0 0 0 127 0" result="hardAlpha"/>
<feOffset dy="6"/>
<feGaussianBlur stdDeviation="4"/>
<feComposite in2="hardAlpha" operator="out"/>
<feColorMatrix type="matrix" values="0 0 0 0 0.290196 0 0 0 0 0.243137 0 0 0 0 0.231373 0 0 0 0.44 0"/>
<feBlend mode="normal" in2="effect1_dropShadow_6422_165109" result="effect2_dropShadow_6422_165109"/>
<feBlend mode="normal" in="SourceGraphic" in2="effect2_dropShadow_6422_165109" result="shape"/>
</filter>
<filter id="filter3_d_6422_165109" x="90.2432" y="44.2344" width="41.7244" height="38.793" filterUnits="userSpaceOnUse" color-interpolation-filters="sRGB">
<feFlood flood-opacity="0" result="BackgroundImageFix"/>
<feColorMatrix in="SourceAlpha" type="matrix" values="0 0 0 0 0 0 0 0 0 0 0 0 0 0 0 0 0 0 127 0" result="hardAlpha"/>
<feOffset dy="4"/>
<feGaussianBlur stdDeviation="2"/>
<feComposite in2="hardAlpha" operator="out"/>
<feColorMatrix type="matrix" values="0 0 0 0 0 0 0 0 0 0 0 0 0 0 0 0 0 0 0.25 0"/>
<feBlend mode="normal" in2="BackgroundImageFix" result="effect1_dropShadow_6422_165109"/>
<feBlend mode="normal" in="SourceGraphic" in2="effect1_dropShadow_6422_165109" result="shape"/>
</filter>
</defs>
</svg>
