<svg width="41" height="41" viewBox="0 0 41 41" fill="none" xmlns="http://www.w3.org/2000/svg">
<g filter="url(#filter0_dd_6422_165616)">
<circle cx="20.1851" cy="14.1855" r="12" fill="#FF3D12"/>
</g>
<g filter="url(#filter1_d_6422_165616)">
<path d="M15.0921 8.23067C15.0135 8.22774 14.9351 8.25735 14.8777 8.31266C14.8039 8.38924 14.776 8.50305 14.8101 8.60516L15.661 11.1579C15.678 11.2033 15.7033 11.2458 15.7402 11.277L21.6146 16.516L21.9763 15.7919C22.0583 15.6282 22.1933 15.4933 22.3569 15.4113L23.1042 15.0374L17.842 9.1752C17.8108 9.13833 17.7683 9.113 17.7229 9.09598L15.1702 8.24507C15.1446 8.23656 15.1182 8.23164 15.0921 8.23067ZM25.2775 8.23067C25.2513 8.23164 25.2249 8.23656 25.1994 8.24507L22.6466 9.09598C22.6013 9.113 22.5587 9.13833 22.5275 9.1752L20.5659 11.3606L22.3309 13.3273L24.6293 11.277C24.6662 11.2458 24.6915 11.2033 24.7085 11.1579L25.5595 8.60516C25.5935 8.50276 25.5656 8.38924 25.4919 8.31266C25.4344 8.25735 25.3561 8.22774 25.2775 8.23067ZM18.0835 14.1266L17.2653 15.0374L18.0126 15.4113C18.1763 15.4933 18.3112 15.6282 18.3932 15.7919L18.7555 16.516L19.7588 15.6207L18.0835 14.1266ZM15.4045 14.7576C15.3174 14.7448 15.2275 14.7725 15.1624 14.8374L14.8788 15.121C14.7679 15.2319 14.7679 15.4112 14.8788 15.5221L18.2824 18.9258C18.3377 18.9811 18.4106 19.0088 18.483 19.0088C18.5553 19.0088 18.6276 18.9808 18.6829 18.9252L18.9666 18.6416C19.0531 18.5553 19.0748 18.4239 19.0203 18.3147L17.8858 16.0456C17.8585 15.9909 17.8136 15.9463 17.7589 15.9188L15.4898 14.7842C15.4625 14.7708 15.4335 14.7619 15.4045 14.7576ZM24.9645 14.7576C24.9354 14.7619 24.9071 14.7707 24.8797 14.7842L22.6106 15.9188C22.5559 15.946 22.5113 15.9909 22.4838 16.0456L21.3492 18.3147C21.2948 18.4239 21.3159 18.5559 21.4024 18.6421L21.686 18.9258C21.7414 18.9811 21.814 19.0088 21.8866 19.0088C21.9592 19.0088 22.0315 18.9808 22.0866 18.9258L25.4902 15.5221C25.6011 15.4112 25.6011 15.2325 25.4902 15.1216L25.2066 14.838C25.1417 14.7731 25.0517 14.7448 24.9645 14.7576ZM15.6128 17.0577L14.6079 18.4477C14.5761 18.4438 14.5441 18.4418 14.512 18.4416C14.2864 18.4416 14.0699 18.5312 13.9104 18.6908C13.7508 18.8504 13.6611 19.0668 13.6611 19.2925C13.6611 19.5182 13.7508 19.7346 13.9104 19.8942C14.0699 20.0537 14.2864 20.1434 14.512 20.1434C14.7377 20.1434 14.9541 20.0537 15.1137 19.8942C15.2733 19.7346 15.363 19.5182 15.363 19.2925C15.3627 19.2683 15.3614 19.244 15.3591 19.2199L16.7534 18.1989L15.6128 17.0577ZM24.7567 17.0583L23.6161 18.1989L25.0105 19.2205C25.0082 19.2444 25.0069 19.2684 25.0066 19.2925C25.0066 19.5182 25.0962 19.7346 25.2558 19.8942C25.4154 20.0537 25.6318 20.1434 25.8575 20.1434C26.0832 20.1434 26.2996 20.0537 26.4592 19.8942C26.6188 19.7346 26.7084 19.5182 26.7084 19.2925C26.7084 19.0668 26.6188 18.8504 26.4592 18.6908C26.2996 18.5312 26.0832 18.4416 25.8575 18.4416C25.8256 18.442 25.7938 18.4442 25.7622 18.4482L24.7567 17.0583Z" fill="white"/>
</g>
<defs>
<filter id="filter0_dd_6422_165616" x="0.185059" y="0.185547" width="40" height="40" filterUnits="userSpaceOnUse" color-interpolation-filters="sRGB">
<feFlood flood-opacity="0" result="BackgroundImageFix"/>
<feColorMatrix in="SourceAlpha" type="matrix" values="0 0 0 0 0 0 0 0 0 0 0 0 0 0 0 0 0 0 127 0" result="hardAlpha"/>
<feOffset dy="2"/>
<feGaussianBlur stdDeviation="2"/>
<feComposite in2="hardAlpha" operator="out"/>
<feColorMatrix type="matrix" values="0 0 0 0 0.290196 0 0 0 0 0.243137 0 0 0 0 0.231373 0 0 0 0.34 0"/>
<feBlend mode="normal" in2="BackgroundImageFix" result="effect1_dropShadow_6422_165616"/>
<feColorMatrix in="SourceAlpha" type="matrix" values="0 0 0 0 0 0 0 0 0 0 0 0 0 0 0 0 0 0 127 0" result="hardAlpha"/>
<feOffset dy="6"/>
<feGaussianBlur stdDeviation="4"/>
<feComposite in2="hardAlpha" operator="out"/>
<feColorMatrix type="matrix" values="0 0 0 0 0.290196 0 0 0 0 0.243137 0 0 0 0 0.231373 0 0 0 0.44 0"/>
<feBlend mode="normal" in2="effect1_dropShadow_6422_165616" result="effect2_dropShadow_6422_165616"/>
<feBlend mode="normal" in="SourceGraphic" in2="effect2_dropShadow_6422_165616" result="shape"/>
</filter>
<filter id="filter1_d_6422_165616" x="9.66113" y="8.23047" width="21.0474" height="19.9121" filterUnits="userSpaceOnUse" color-interpolation-filters="sRGB">
<feFlood flood-opacity="0" result="BackgroundImageFix"/>
<feColorMatrix in="SourceAlpha" type="matrix" values="0 0 0 0 0 0 0 0 0 0 0 0 0 0 0 0 0 0 127 0" result="hardAlpha"/>
<feOffset dy="4"/>
<feGaussianBlur stdDeviation="2"/>
<feComposite in2="hardAlpha" operator="out"/>
<feColorMatrix type="matrix" values="0 0 0 0 0 0 0 0 0 0 0 0 0 0 0 0 0 0 0.25 0"/>
<feBlend mode="normal" in2="BackgroundImageFix" result="effect1_dropShadow_6422_165616"/>
<feBlend mode="normal" in="SourceGraphic" in2="effect1_dropShadow_6422_165616" result="shape"/>
</filter>
</defs>
</svg>
