<svg width="90" height="90" viewBox="0 0 90 90" fill="none" xmlns="http://www.w3.org/2000/svg">
<circle cx="45" cy="45" r="45" fill="#E4EEEE"/>
<mask id="mask0_6_304" style="mask-type:alpha" maskUnits="userSpaceOnUse" x="0" y="0" width="90" height="90">
<circle cx="45" cy="45" r="45" fill="#E4EEEE"/>
</mask>
<g mask="url(#mask0_6_304)">
<path d="M86.2253 19.2857H42.823C32.189 19.2857 23.5851 23.1225 23.5851 32.7183C23.5851 42.3141 31.2976 47.0702 39.5781 49.5697C46.7226 51.667 52.81 53.6807 52.81 59.6487C52.81 63.2765 50.5381 66.1808 44.6111 66.1808C37.953 66.0998 31.2161 62.0698 28.2946 54.1665C27.7266 52.555 27.4006 52.0692 26.2646 52.0692C24.4186 52.0692 23.5009 53.4378 23.3879 55.3836C23.38 55.5377 23.3747 55.697 23.3773 55.8589V69.3359C23.3773 69.7747 23.735 70.1299 24.1767 70.1299H43.1964C43.2621 70.1299 43.3278 70.1299 43.3936 70.1299C52.81 70.1299 64.4196 66.8233 64.4196 55.3731C64.4196 43.9229 53.7041 40.6973 45.4236 38.2788C38.5236 36.1815 34.1401 33.763 34.1401 28.602C34.1401 28.5811 34.1401 28.5603 34.1401 28.5394C34.1612 25.7003 36.178 23.0859 38.9128 22.2658C40.7982 21.7016 42.3628 21.7016 43.4619 21.7016C51.1104 21.6572 78.476 21.7121 86.228 21.7016C86.3752 21.7016 86.4935 21.5841 86.4935 21.4378V19.5495C86.4935 19.4032 86.3752 19.2857 86.228 19.2857H86.2253Z" fill="#002825"/>
</g>
</svg>