<svg width="155" height="32" viewBox="0 0 155 32" fill="none" xmlns="http://www.w3.org/2000/svg">
<path id="Subscape-Logo" fill-rule="evenodd" clip-rule="evenodd" d="M11.8804 0H154.02H154.022C154.112 0 154.184 0.0739713 154.184 0.166025V1.3545C154.184 1.44655 154.112 1.52052 154.022 1.52052C152.522 1.5226 141.404 1.52056 125.755 1.51769C92.0014 1.5115 37.1642 1.50143 12.2708 1.52052C11.5993 1.52052 10.6436 1.52052 9.49192 1.87558C7.82141 2.39174 6.5894 4.03719 6.57655 5.82401V5.86346C6.57655 9.11162 9.25419 10.6338 13.469 11.9538C18.5271 13.4759 25.0727 15.506 25.0727 22.7125C25.0727 29.9189 17.981 32 12.229 32H12.1085H0.49043C0.220578 32 0.00212682 31.7764 0.00212682 31.5003V23.0182C0.000520559 22.9163 0.00373308 22.816 0.00855187 22.7191C0.0776211 21.4944 0.638206 20.6331 1.7658 20.6331C2.45971 20.6331 2.65888 20.9388 3.00584 21.953C4.79039 26.9272 8.90563 29.4636 12.9727 29.5146C16.5932 29.5146 17.981 27.6866 17.981 25.4034C17.981 21.6473 14.2625 20.3799 9.8983 19.0599C4.84019 17.4868 0.129021 14.4935 0.129021 8.4541C0.129021 2.41475 5.38471 0 11.8804 0ZM91.9087 8.94067C86.7638 8.94067 82.6694 12.1379 82.6694 17.5904H82.671C82.671 23.1777 86.9485 26.3206 91.6998 26.3206C95.8199 26.3206 97.9723 23.9289 98.655 22.6402L97.8679 21.9678C96.5026 23.5262 94.9541 23.8484 93.8522 23.8484C90.8341 23.8484 87.6328 21.3498 87.5798 15.871C87.5268 12.3795 88.7347 10.042 91.0445 10.042C93.0652 10.042 93.8265 11.8157 93.9309 13.7225C94.0096 14.957 94.6136 16.1126 96.3451 16.1126C98.0767 16.1126 98.7594 14.8502 98.7594 13.642C98.7594 11.3045 96.2921 8.94067 91.9087 8.94067ZM28.7136 11.9027V18.5339L28.7152 18.5355C28.7152 24.011 31.8618 26.3222 36.271 26.3222C41.0834 26.3222 43.3691 23.4061 43.3691 19.1404V11.9027C43.3691 10.8293 44.2301 10.1965 45.5472 10.0584V8.95703H39.3085V10.0584C40.6256 10.1965 41.4593 10.8293 41.4593 11.9027V18.3974C41.4593 22.3047 39.6313 24.0653 37.2653 24.0653C34.8993 24.0653 33.2593 22.4691 33.2593 18.2314V11.9027C33.2593 10.8293 33.9853 10.1965 35.3025 10.0584V8.95703H26.6704V10.0584C27.9875 10.1965 28.7136 10.8293 28.7136 11.9027ZM49.0681 23.1003C49.0681 24.1738 48.342 24.7803 47.0249 24.9447V26.0444C49.8241 25.5499 52.9702 25.7655 55.3181 25.9264L55.3182 25.9265C56.2402 25.9896 57.0391 26.0444 57.6455 26.0444C61.4106 26.0444 64.1798 24.3118 64.1798 21.1196C64.1798 18.7804 62.702 17.1284 59.2598 16.6336C62.3261 16.1388 63.2128 14.5969 63.2128 13.0287C63.2128 10.2507 60.6042 8.95703 55.3341 8.95703H47.0249V10.0584C48.342 10.1948 49.0681 10.8277 49.0681 11.929V23.1003ZM58.3715 13.3049C58.3715 14.5706 57.888 16.0566 56.0328 16.0566V16.055H55.3341C54.1246 16.055 53.6138 15.506 53.6138 14.4046V11.9833C53.6138 10.8836 54.1246 10.305 55.3341 10.305H55.6023C57.35 10.305 58.3715 11.3784 58.3715 13.3049ZM59.3401 21.0933C59.3401 23.7628 57.8077 24.56 55.7646 24.56H54.8233C54.0443 24.56 53.6138 24.2296 53.6138 23.5146V19.0286C53.6138 17.9289 54.1246 17.3783 54.8233 17.3783C57.7804 17.3783 59.3401 18.4237 59.3401 21.0933ZM67.1097 24.6949C66.329 22.7766 66.1459 20.1925 67.6558 20.1925C68.0461 20.1925 68.1505 20.4062 68.3593 20.9651C69.3231 23.5755 71.5349 24.8544 73.5652 24.8807C75.4654 24.907 76.0132 23.9223 76.0132 22.9623C76.0132 21.0966 74.1387 20.3783 71.8481 19.7125C69.2444 18.9399 66.6679 17.1285 66.6679 14.0644C66.6679 10.7078 69.609 9.08203 72.9677 9.08203C75.051 9.08203 77.7576 9.72147 78.8514 10.4941C79.6321 12.4124 79.8152 14.9965 78.3053 14.9965C77.915 14.9965 77.8106 14.7828 77.6018 14.2239C76.691 11.6924 74.582 10.4415 72.7862 10.4415C70.9904 10.4415 70.3913 11.5609 70.3913 12.5192C70.3913 14.145 71.7453 14.9701 73.9845 15.6359C76.6926 16.4348 80.1284 17.6874 80.1284 21.3646C80.1284 25.2801 76.3023 26.3206 73.3339 26.3206C70.8603 26.3206 68.2051 25.4675 67.1113 24.6949H67.1097ZM99.5304 25.2192C101.225 24.8345 101.789 23.7052 102.435 22.1929L106.736 12.4238C107.355 11.02 107.515 9.75423 107.515 9.2315L109.881 9.01123L115.582 21.5584C115.741 21.9067 115.881 22.2289 116.011 22.5261L116.011 22.5271C116.669 24.0374 117.044 24.9008 118.19 25.2455V26.3189H110.177V25.2175C111.736 24.943 111.764 23.9518 111.198 22.7403L111.01 22.4099C110.822 21.8313 110.204 21.8313 109.611 21.8313H105.739C105.013 21.8313 104.529 21.9414 104.206 22.6565L104.287 22.5463C103.668 24.0044 104.314 24.8855 106.142 25.2159V26.3172H99.5272V25.2159L99.5304 25.2192ZM109.425 20.4028C109.693 20.4028 109.936 20.1825 109.748 19.7141L107.838 15.5585C107.65 15.09 107.542 15.09 107.355 15.5306L105.445 19.9064C105.364 20.2368 105.687 20.4012 105.875 20.4012H109.425V20.4028ZM121.735 23.3469C121.735 24.4318 121.003 25.0433 119.671 25.2093L119.67 25.211V26.3222H128.66V25.211C127.057 25.0433 126.324 24.4318 126.324 23.3485V21.8198C126.324 20.651 126.705 20.1793 127.818 20.1793H128.416C133.739 20.1793 136.319 18.0111 136.319 14.6199C136.319 11.2287 133.739 9.06055 128.416 9.06055H119.671V10.1718C121.003 10.3115 121.735 10.9509 121.735 12.0342V23.3469ZM131.864 14.6741C131.864 16.9821 131.05 18.7327 128.416 18.7327H127.818C126.705 18.7327 126.324 18.2593 126.324 17.0922V12.2561C126.324 11.1728 126.678 10.4496 127.9 10.4496H128.416C131.05 10.4496 131.864 12.2002 131.864 14.6741ZM137.814 25.2093C139.146 25.0433 139.878 24.4318 139.878 23.3469V12.0342C139.878 10.9509 139.146 10.3115 137.814 10.1718V9.06055H151.61C151.854 9.06055 151.964 9.14438 151.991 9.33835C151.996 9.38714 152 9.43594 152.005 9.48499L152.014 9.57384V9.57403C152.086 10.339 152.168 11.1972 152.561 13.0353H151.882C150.931 11.3405 150.116 10.4512 148.513 10.4512H146.205C144.983 10.4512 144.467 11.1465 144.467 12.2578V15.1755C144.467 16.2867 144.983 16.8982 146.205 16.8982H147.291C149.492 16.8982 149.898 16.3706 150.116 14.8418H150.714V20.3453H150.116C149.9 18.9004 149.492 18.3168 147.291 18.3168H146.205C144.983 18.3168 144.467 18.9283 144.467 20.0395V23.1809C144.467 24.2641 144.955 24.9595 145.906 24.9874L148.839 24.9595C150.523 24.9315 151.284 24.32 151.962 23.4028L152.614 22.4296H153.294C152.94 23.2351 152.641 24.4581 152.479 25.9309C152.452 26.1808 152.29 26.3205 152.044 26.3205H137.812V25.2093H137.814Z" fill="#E4EEEE"/>
</svg>
