<svg xmlns="http://www.w3.org/2000/svg" width="75" height="86" viewBox="0 0 75 86" fill="none">
<path d="M55.248 69.8119C55.2566 69.7832 55.2762 69.759 55.3024 69.7444C63.4652 65.2073 69.939 57.6116 72.8481 47.964C78.7812 28.2877 67.6402 7.52731 47.964 1.59424C28.2877 -4.33882 7.52731 6.80221 1.59424 26.4784C-1.30959 36.1086 -0.123423 45.9985 4.15165 54.2827C4.16975 54.3177 4.17758 54.3573 4.17413 54.3966C4.17045 54.4386 4.17961 54.4807 4.2004 54.5174L21.409 84.876C21.9359 85.8056 23.1005 86.1568 24.0535 85.6734L55.1898 69.8813C55.2179 69.8671 55.2389 69.842 55.248 69.8119Z" fill="url(#paint0_linear_4084_7152)"/>
<defs>
<linearGradient id="paint0_linear_4084_7152" x1="47.9648" y1="1.59432" x2="22.5725" y2="85.8047" gradientUnits="userSpaceOnUse">
<stop stop-color="#023935"/>
<stop offset="1" stop-color="#002825"/>
</linearGradient>
</defs>
</svg>